<svg width="198" height="231" viewBox="0 0 198 231" fill="none" xmlns="http://www.w3.org/2000/svg">
<rect width="198" height="231" fill="white"/>
<path d="M77.4022 207H75.1522V189.938H77.4022V207ZM83.2741 194.32L83.3444 195.914C84.3132 194.695 85.5788 194.086 87.1413 194.086C89.821 194.086 91.1726 195.598 91.196 198.621V207H89.028V198.609C89.0202 197.695 88.8093 197.02 88.3952 196.582C87.989 196.145 87.3522 195.926 86.4851 195.926C85.7819 195.926 85.1647 196.113 84.6335 196.488C84.1022 196.863 83.6882 197.355 83.3913 197.965V207H81.2233V194.32H83.2741ZM99.5875 205.465C100.361 205.465 101.037 205.23 101.615 204.762C102.193 204.293 102.513 203.707 102.576 203.004H104.627C104.587 203.73 104.337 204.422 103.877 205.078C103.416 205.734 102.798 206.258 102.025 206.648C101.259 207.039 100.447 207.234 99.5875 207.234C97.8609 207.234 96.4859 206.66 95.4625 205.512C94.4468 204.355 93.939 202.777 93.939 200.777V200.414C93.939 199.18 94.1656 198.082 94.6187 197.121C95.0718 196.16 95.7203 195.414 96.564 194.883C97.4156 194.352 98.4195 194.086 99.5758 194.086C100.998 194.086 102.177 194.512 103.115 195.363C104.06 196.215 104.564 197.32 104.627 198.68H102.576C102.513 197.859 102.201 197.188 101.638 196.664C101.084 196.133 100.396 195.867 99.5758 195.867C98.4742 195.867 97.6187 196.266 97.0093 197.062C96.4078 197.852 96.107 198.996 96.107 200.496V200.906C96.107 202.367 96.4078 203.492 97.0093 204.281C97.6109 205.07 98.4703 205.465 99.5875 205.465ZM106.526 200.543C106.526 199.301 106.768 198.184 107.252 197.191C107.745 196.199 108.424 195.434 109.291 194.895C110.166 194.355 111.163 194.086 112.28 194.086C114.006 194.086 115.401 194.684 116.463 195.879C117.534 197.074 118.069 198.664 118.069 200.648V200.801C118.069 202.035 117.831 203.145 117.354 204.129C116.885 205.105 116.209 205.867 115.327 206.414C114.452 206.961 113.444 207.234 112.303 207.234C110.584 207.234 109.19 206.637 108.12 205.441C107.057 204.246 106.526 202.664 106.526 200.695V200.543ZM108.706 200.801C108.706 202.207 109.03 203.336 109.678 204.188C110.334 205.039 111.209 205.465 112.303 205.465C113.405 205.465 114.28 205.035 114.928 204.176C115.577 203.309 115.901 202.098 115.901 200.543C115.901 199.152 115.569 198.027 114.905 197.168C114.248 196.301 113.373 195.867 112.28 195.867C111.209 195.867 110.346 196.293 109.69 197.145C109.034 197.996 108.706 199.215 108.706 200.801ZM122.863 194.32L122.921 195.727C123.851 194.633 125.105 194.086 126.683 194.086C128.456 194.086 129.663 194.766 130.304 196.125C130.726 195.516 131.273 195.023 131.945 194.648C132.624 194.273 133.425 194.086 134.347 194.086C137.128 194.086 138.542 195.559 138.589 198.504V207H136.421V198.633C136.421 197.727 136.214 197.051 135.8 196.605C135.386 196.152 134.691 195.926 133.714 195.926C132.909 195.926 132.242 196.168 131.71 196.652C131.179 197.129 130.87 197.773 130.784 198.586V207H128.605V198.691C128.605 196.848 127.702 195.926 125.898 195.926C124.476 195.926 123.503 196.531 122.98 197.742V207H120.812V194.32H122.863ZM147.168 207.234C145.449 207.234 144.051 206.672 142.973 205.547C141.895 204.414 141.356 202.902 141.356 201.012V200.613C141.356 199.355 141.594 198.234 142.07 197.25C142.555 196.258 143.227 195.484 144.086 194.93C144.953 194.367 145.891 194.086 146.899 194.086C148.547 194.086 149.828 194.629 150.742 195.715C151.656 196.801 152.113 198.355 152.113 200.379V201.281H143.524C143.555 202.531 143.918 203.543 144.613 204.316C145.317 205.082 146.207 205.465 147.285 205.465C148.051 205.465 148.699 205.309 149.231 204.996C149.762 204.684 150.227 204.27 150.625 203.754L151.949 204.785C150.887 206.418 149.293 207.234 147.168 207.234ZM146.899 195.867C146.024 195.867 145.289 196.188 144.695 196.828C144.102 197.461 143.735 198.352 143.594 199.5H149.945V199.336C149.883 198.234 149.586 197.383 149.055 196.781C148.524 196.172 147.805 195.867 146.899 195.867Z" fill="#1E272E"/>
<path d="M166.413 159.137C166.413 159.137 150.162 131.553 153.914 124.517C157.665 117.482 167.245 130.132 167.245 130.132C167.245 130.132 158.913 104.404 163.497 93.1641C168.08 81.9243 175.996 93.1641 176.412 101.119C176.828 109.073 174.744 122.638 174.744 122.638C174.744 122.638 178.079 94.5852 185.995 102.99C193.91 111.395 175.996 139.478 175.996 139.478C175.996 139.478 188.079 132.93 187.659 141.349C187.239 149.769 173.08 157.255 173.08 157.255" fill="#4ABDAC"/>
<path d="M166.55 153.992C166.55 153.992 151.513 140.423 158.841 134.343C166.168 128.264 170.023 140.891 170.023 140.891C170.023 140.891 161.925 102.063 175.034 100.657C188.143 99.2508 178.503 134.34 178.503 134.34C178.503 134.34 189.685 119.372 188.914 131.553C188.143 143.734 171.565 154.01 171.565 154.01" stroke="#263238" stroke-miterlimit="10"/>
<path d="M173.935 151.522L163.775 140.873" stroke="#263238" stroke-miterlimit="10"/>
<path d="M171.82 152.342L174.572 121.214" stroke="#263238" stroke-miterlimit="10"/>
<path d="M171.396 150.087L180.499 138.415" stroke="#263238" stroke-miterlimit="10"/>
<path d="M184.563 147.916H156.455L159.268 179.981H181.75L184.563 147.916Z" fill="#263238"/>
<path d="M77.2592 110.731C73.6046 108.996 69.827 107.516 65.9549 106.301C60.3753 104.64 53.7919 106.161 53.6469 107.958C53.5019 109.756 54.4942 108.933 55.7956 110.882C57.097 112.831 56.5092 117.386 58.3717 121.538C60.2341 125.691 65.8099 127.766 65.8099 127.766L77.2592 110.731Z" fill="#4ABDAC" stroke="#263238" stroke-linecap="round" stroke-linejoin="round"/>
<path opacity="0.3" d="M73.5379 114.747C73.5379 114.747 64.9509 109.487 59.9438 107.685C54.9366 105.884 54.6504 108.516 54.6504 108.516C55.4742 108.808 56.1811 109.345 56.6699 110.05C57.1587 110.755 57.4043 111.591 57.3715 112.44C57.3715 115.548 58.9782 121.985 62.8824 123.314C66.7867 124.643 73.5379 114.747 73.5379 114.747Z" fill="black"/>
<path d="M134.81 120.624C137.054 119.799 138.132 117.241 137.216 114.911C136.301 112.58 133.74 111.359 131.495 112.184C129.251 113.008 128.174 115.566 129.089 117.897C130.004 120.227 132.566 121.448 134.81 120.624Z" fill="#4ABDAC" stroke="#263238" stroke-linecap="round" stroke-linejoin="round"/>
<path d="M73.2832 164.707L78.0995 178.682C78.2302 179.061 78.4807 179.39 78.8157 179.623C79.1507 179.857 79.5531 179.982 79.9658 179.982H87.4727C87.8567 179.982 88.2325 179.874 88.5534 179.67C88.8743 179.466 89.1262 179.175 89.2779 178.834L92.6363 171.296" fill="#4ABDAC"/>
<path opacity="0.3" d="M75.6992 164.707L79.6836 178.682C79.759 179.033 79.9514 179.35 80.2314 179.585C80.5113 179.82 80.8633 179.959 81.233 179.982H87.4576C87.7995 179.965 88.1274 179.845 88.3956 179.639C88.6637 179.433 88.8588 179.152 88.9537 178.834L91.7397 171.296" fill="black"/>
<path d="M73.2832 164.707L78.0995 178.682C78.2302 179.061 78.4807 179.39 78.8157 179.623C79.1507 179.857 79.5531 179.982 79.9658 179.982H87.4727C87.8567 179.982 88.2325 179.874 88.5534 179.67C88.8743 179.466 89.1262 179.175 89.2779 178.834L92.6363 171.296" stroke="#263238" stroke-linecap="round" stroke-linejoin="round"/>
<path d="M109.508 164.707L104.695 178.682C104.565 179.061 104.314 179.39 103.979 179.623C103.644 179.857 103.242 179.982 102.829 179.982H95.3296C94.9456 179.982 94.5698 179.874 94.2489 179.67C93.9281 179.466 93.6762 179.175 93.5245 178.834L90.166 171.296" fill="#263238"/>
<path d="M109.508 164.707L104.695 178.682C104.565 179.061 104.314 179.39 103.979 179.623C103.644 179.857 103.242 179.982 102.829 179.982H95.3296C94.9456 179.982 94.5698 179.874 94.2489 179.67C93.9281 179.466 93.6762 179.175 93.5245 178.834L90.166 171.296" stroke="#263238" stroke-linecap="round" stroke-linejoin="round"/>
<path d="M125.457 164.707L120.64 178.682C120.51 179.061 120.259 179.39 119.924 179.623C119.589 179.857 119.187 179.982 118.774 179.982H111.267C110.883 179.982 110.507 179.874 110.186 179.67C109.866 179.466 109.614 179.175 109.462 178.834L106.104 171.296" fill="#4ABDAC"/>
<path opacity="0.3" d="M122.046 164.707L118.752 178.682C118.569 179.457 118.057 179.982 117.477 179.982H112.344C111.81 179.982 111.325 179.531 111.111 178.834L107.921 171.451" fill="black"/>
<path d="M125.457 164.707L120.64 178.682C120.51 179.061 120.259 179.39 119.924 179.623C119.589 179.857 119.187 179.982 118.774 179.982H111.267C110.883 179.982 110.507 179.874 110.186 179.67C109.866 179.466 109.614 179.175 109.462 178.834L106.104 171.296" stroke="#263238" stroke-linecap="round" stroke-linejoin="round"/>
<path d="M99.7189 173.902C122.518 173.902 141.001 157.69 141.001 137.691C141.001 117.692 122.518 101.48 99.7189 101.48C76.9193 101.48 58.4365 117.692 58.4365 137.691C58.4365 157.69 76.9193 173.902 99.7189 173.902Z" fill="#4ABDAC"/>
<path opacity="0.3" d="M128.153 112.949C130.574 117.592 131.835 122.72 131.836 127.92C131.836 147.919 113.353 164.131 90.5536 164.131C82.0691 164.173 73.7529 161.842 66.6055 157.421C73.8033 166.763 85.9891 172.924 99.8084 172.924C121.944 172.924 139.881 157.195 139.881 137.791C139.858 128.079 135.378 119.305 128.153 112.949Z" fill="black"/>
<path d="M99.7189 173.902C122.518 173.902 141.001 157.69 141.001 137.691C141.001 117.692 122.518 101.48 99.7189 101.48C76.9193 101.48 58.4365 117.692 58.4365 137.691C58.4365 157.69 76.9193 173.902 99.7189 173.902Z" stroke="#263238" stroke-linecap="round" stroke-linejoin="round"/>
<path d="M137.53 140.939C136.629 148.233 133.152 154.852 127.916 160.078" stroke="#4ABDAC" stroke-width="2" stroke-linecap="round" stroke-linejoin="round"/>
<path d="M136.847 129.707C137.456 132.15 137.763 134.654 137.763 137.167" stroke="#4ABDAC" stroke-width="2" stroke-linecap="round" stroke-linejoin="round"/>
<path d="M89.4844 103.739C92.8859 102.97 96.368 102.584 99.8613 102.588C102.098 102.587 104.331 102.745 106.544 103.06" stroke="#263238" stroke-width="4" stroke-linecap="round" stroke-linejoin="round"/>
<path d="M107.817 129.017C107.817 129.017 111.825 126.385 111.97 121.542C112.115 116.699 105.527 109.642 100.234 106.733C94.9407 103.824 91.0746 104.382 90.9334 106.456C90.7922 108.53 88.9298 110.885 88.2161 114.898C87.5024 118.91 87.2124 124.864 92.7958 126.802" fill="#4ABDAC"/>
<path d="M107.817 129.017C107.817 129.017 111.825 126.385 111.97 121.542C112.115 116.699 105.527 109.642 100.234 106.733C94.9407 103.824 91.0746 104.382 90.9334 106.456C90.7922 108.53 88.9298 110.885 88.2161 114.898C87.5024 118.91 87.2124 124.864 92.7958 126.802" stroke="#263238" stroke-linecap="round" stroke-linejoin="round"/>
<path opacity="0.3" d="M99.1956 127.463L100.016 127.581C103.535 128.072 104.771 125.85 104.668 122.513C104.527 117.807 98.0889 107.841 95.3678 106.456C92.6466 105.072 91.7918 107.01 91.7918 107.01C91.7918 107.01 92.1734 107.257 90.8338 111.558C90.2156 113.543 87.9143 120.468 90.1927 123.539C92.2077 126.252 95.9517 126.994 99.1956 127.463Z" fill="black"/>
<path opacity="0.3" d="M110.595 122.694H110.542C110.492 122.688 110.444 122.672 110.4 122.647C110.356 122.623 110.318 122.59 110.288 122.551C110.257 122.513 110.235 122.468 110.222 122.421C110.209 122.374 110.207 122.325 110.213 122.277C110.255 121.993 110.279 121.707 110.286 121.42C110.362 118.837 108.183 115.127 104.6 111.705C104.564 111.671 104.535 111.63 104.516 111.585C104.496 111.541 104.486 111.492 104.485 111.444C104.485 111.395 104.495 111.347 104.513 111.302C104.532 111.257 104.56 111.216 104.596 111.181C104.631 111.146 104.673 111.119 104.719 111.1C104.766 111.081 104.816 111.071 104.866 111.071C104.916 111.07 104.966 111.079 105.013 111.098C105.059 111.116 105.102 111.143 105.138 111.177C108.924 114.795 111.133 118.63 111.049 121.439C111.041 121.752 111.016 122.065 110.973 122.376C110.96 122.465 110.915 122.545 110.845 122.603C110.776 122.662 110.687 122.694 110.595 122.694Z" fill="black"/>
<path opacity="0.3" d="M108.543 127.145C108.471 127.146 108.4 127.126 108.339 127.089C108.278 127.052 108.229 126.999 108.198 126.936C108.166 126.873 108.154 126.802 108.163 126.733C108.171 126.664 108.2 126.598 108.245 126.544C108.874 125.798 109.377 124.961 109.734 124.063C109.77 123.972 109.842 123.898 109.934 123.858C110.026 123.817 110.132 123.814 110.226 123.849C110.321 123.884 110.397 123.954 110.439 124.043C110.48 124.132 110.483 124.234 110.448 124.325C110.062 125.297 109.518 126.203 108.837 127.009C108.801 127.051 108.757 127.085 108.706 127.109C108.655 127.133 108.599 127.145 108.543 127.145V127.145Z" fill="black"/>
<path opacity="0.3" d="M80.7506 144.698C81.8794 140.322 77.9452 135.605 71.9634 134.162C65.9816 132.718 60.2174 135.095 59.0886 139.47C57.9599 143.845 61.8941 148.562 67.8759 150.006C73.8577 151.45 79.6219 149.073 80.7506 144.698Z" fill="black"/>
<path d="M80.2135 143.903C81.3422 139.528 77.408 134.811 71.4263 133.367C65.4445 131.924 59.6802 134.3 58.5515 138.675C57.4228 143.051 61.357 147.768 67.3388 149.211C73.3206 150.655 79.0848 148.278 80.2135 143.903Z" fill="#4ABDAC" stroke="#263238" stroke-linecap="round" stroke-linejoin="round"/>
<path d="M66.0122 139.969C66.0809 140.958 65.6878 141.792 65.1382 141.814C64.5886 141.837 64.081 141.076 63.9933 140.087C63.9055 139.098 64.3177 138.26 64.871 138.241C65.4244 138.223 65.9435 138.976 66.0122 139.969Z" stroke="#263238" stroke-linecap="round" stroke-linejoin="round"/>
<path d="M73.5766 141.803C73.6453 142.796 73.2522 143.627 72.7026 143.649C72.1531 143.671 71.6455 142.911 71.5577 141.918C71.4699 140.925 71.8821 140.094 72.4355 140.072C72.9889 140.05 73.4964 140.81 73.5766 141.803Z" stroke="#263238" stroke-linecap="round" stroke-linejoin="round"/>
<path d="M86.0595 144.369C85.979 145.079 85.8072 145.777 85.5481 146.447C83.3575 152.172 75.4269 154.649 67.5918 152.183" stroke="#263238" stroke-width="3" stroke-linecap="round" stroke-linejoin="round"/>
<path d="M84.7822 143.826H87.2133" stroke="#263238" stroke-width="3" stroke-linecap="round" stroke-linejoin="round"/>
<path d="M69.2944 128.5C69.0272 129.574 68.3441 130.346 67.7678 130.205C67.1915 130.065 66.9397 129.098 67.2106 128.013C67.4816 126.928 68.1609 126.167 68.7372 126.304C69.3135 126.44 69.5654 127.422 69.2944 128.5Z" fill="#263238" stroke="#263238" stroke-linecap="round" stroke-linejoin="round"/>
<path d="M76.3333 129.984C76.6019 128.906 76.3529 127.923 75.7771 127.789C75.2014 127.655 74.5168 128.42 74.2481 129.498C73.9795 130.576 74.2285 131.559 74.8043 131.693C75.3801 131.828 76.0646 131.062 76.3333 129.984Z" fill="#263238" stroke="#263238" stroke-linecap="round" stroke-linejoin="round"/>
<path d="M86.8428 169.203L91.0408 178.837C91.1915 179.182 91.4438 179.476 91.7662 179.683C92.0886 179.89 92.4668 180 92.8537 180H100.487C100.87 180 101.245 179.891 101.565 179.688C101.886 179.485 102.138 179.195 102.292 178.856L106.871 168.62H106.673" fill="#4ABDAC"/>
<path opacity="0.3" d="M95.7118 167.974C93.2922 167.974 90.4757 168.28 88.1973 167.771L92.1206 178.819C92.214 179.14 92.4088 179.424 92.6777 179.633C92.9467 179.841 93.2763 179.963 93.6204 179.981H99.9099C100.25 179.963 100.576 179.843 100.842 179.638C101.109 179.433 101.303 179.153 101.398 178.837L105.196 167.568L103.669 167.771C98.826 168.28 98.952 167.974 95.7118 167.974Z" fill="black"/>
<path d="M86.8428 169.203L91.0408 178.837C91.1915 179.182 91.4438 179.476 91.7662 179.683C92.0886 179.89 92.4668 180 92.8537 180H100.487C100.87 180 101.245 179.891 101.565 179.688C101.886 179.485 102.138 179.195 102.292 178.856L106.871 168.62H106.673" stroke="#263238" stroke-linecap="round" stroke-linejoin="round"/>
<path d="M162.881 19.1329L141.773 48.5482C141.773 48.5482 139.968 52.7119 137.746 55.8015C135.525 58.891 129.297 61.9806 129.297 61.9806C129.297 61.9806 128.743 67.7536 126.938 69.769C125.133 71.7844 121.244 70.5774 121.244 70.5774C121.244 70.5774 119.576 72.3234 117.771 73.128C115.966 73.9327 110.413 70.9798 110.413 70.9798C110.413 70.9798 115.409 76.2176 116.103 77.9635C116.798 79.7095 118.05 81.186 115.829 82.799C113.608 84.4121 111.104 82.1272 111.104 82.1272C111.104 82.1272 112.218 85.6191 109.024 86.2909C105.83 86.9627 102.349 80.2447 100.96 77.9635C99.5707 75.6824 95.5443 67.0818 94.8536 66.6795C94.1628 66.2771 93.1896 64.1289 94.5788 62.1134C95.968 60.098 105.822 47.2046 106.933 46.2855C108.043 45.3664 129.297 40.4903 129.297 40.4903L137.353 19" fill="white"/>
<path opacity="0.2" d="M139.601 48.8696C139.601 48.8696 137.311 55.5138 134.831 56.8057C132.35 58.0976 118.229 61.6043 112.695 60.866C107.162 60.1278 104.108 58.0976 104.108 58.0976C104.108 58.0976 101.055 61.9734 99.7196 63.2653C98.7894 64.1008 97.6825 64.7306 96.4756 65.1109C96.4756 65.1109 103.116 81.2453 107.891 86.2395C108.261 86.3503 108.655 86.3681 109.035 86.2912C112.23 85.6194 111.115 82.1275 111.115 82.1275C111.115 82.1275 113.615 84.4086 115.84 82.7993C118.065 81.1899 116.81 79.7097 116.115 77.9638C115.42 76.2178 110.406 70.98 110.406 70.98C110.406 70.98 115.958 73.933 117.764 73.1283C119.569 72.3236 121.237 70.5739 121.237 70.5739C121.237 70.5739 125.126 71.7847 126.931 69.7693C128.736 67.7539 129.289 61.9808 129.289 61.9808C129.289 61.9808 135.537 58.8912 137.762 55.8017C139.987 52.7121 141.788 48.5484 141.788 48.5484L150.486 36.4302L139.601 48.8696Z" fill="black"/>
<path d="M162.881 19.1329L141.773 48.5482C141.773 48.5482 139.968 52.7119 137.746 55.8015C135.525 58.891 129.297 61.9806 129.297 61.9806C129.297 61.9806 128.743 67.7536 126.938 69.769C125.133 71.7844 121.244 70.5774 121.244 70.5774C121.244 70.5774 119.576 72.3234 117.771 73.128C115.966 73.9327 110.413 70.9798 110.413 70.9798C110.413 70.9798 115.409 76.2176 116.103 77.9635C116.798 79.7095 118.05 81.186 115.829 82.799C113.608 84.4121 111.104 82.1272 111.104 82.1272C111.104 82.1272 112.218 85.6191 109.024 86.2909C105.83 86.9627 102.349 80.2447 100.96 77.9635C99.5707 75.6824 95.5443 67.0818 94.8536 66.6795C94.1628 66.2771 93.1896 64.1289 94.5788 62.1134C95.968 60.098 105.822 47.2046 106.933 46.2855C108.043 45.3664 129.297 40.4903 129.297 40.4903L137.353 19" stroke="#263238" stroke-linecap="round" stroke-linejoin="round"/>
<path d="M90.6865 97.5713L91.2399 99.5867L99.8498 97.5713L107.906 77.1551L102.628 75.4092L90.6865 97.5713Z" fill="white" stroke="#263238" stroke-linecap="round" stroke-linejoin="round"/>
<path d="M93.3235 70.4408L105.265 74.7411L99.4336 100.258L85.4082 96.0948L93.3235 70.4408Z" fill="white" stroke="#263238" stroke-linecap="round" stroke-linejoin="round"/>
<path d="M85.877 94.5704L98.3223 98.1103L103.738 75.4093L92.8343 72.0208L85.877 94.5704Z" fill="#4ABDAC" stroke="#263238" stroke-linecap="round" stroke-linejoin="round"/>
<path d="M92.7858 77.635C92.2441 77.4963 91.6781 77.4712 91.1256 77.5611L87.874 88.0996C88.3446 88.5431 88.9236 88.8644 89.5571 89.0335C92.1065 89.7126 94.9001 87.7083 95.7931 84.5597C96.6862 81.4111 95.3313 78.3105 92.7858 77.635Z" fill="white" stroke="#263238" stroke-linecap="round" stroke-linejoin="round"/>
<path d="M92.3232 79.381C92.3068 79.3739 92.2934 79.3616 92.2851 79.3462C92.2768 79.3308 92.2741 79.3132 92.2774 79.2961L92.4224 78.7498C92.4313 78.7268 92.4346 78.7021 92.4321 78.6777C92.4297 78.6533 92.4216 78.6297 92.4083 78.6087C92.3951 78.5877 92.3771 78.57 92.3558 78.5567C92.3344 78.5434 92.3102 78.535 92.285 78.532L91.6782 78.3918C91.6544 78.3824 91.6288 78.3786 91.6032 78.3806C91.5776 78.3827 91.5529 78.3904 91.531 78.4034C91.5091 78.4163 91.4907 78.434 91.4771 78.455C91.4636 78.4761 91.4553 78.5 91.453 78.5247L91.3347 79.0894C91.3303 79.1063 91.3198 79.1211 91.3051 79.1313C91.2905 79.1414 91.2726 79.1462 91.2546 79.1448C91.0478 79.1243 90.8393 79.1243 90.6325 79.1448L89.5219 82.7511C90.3883 83.6222 91.7393 84.0578 91.5599 84.7887C91.4569 85.2021 91.0676 85.5269 90.3844 85.3793C90.2416 85.3608 90.1045 85.3128 89.9826 85.2385C89.8606 85.1642 89.7567 85.0654 89.6777 84.9488C89.5988 84.8321 89.5467 84.7004 89.5251 84.5626C89.5035 84.4248 89.5128 84.2841 89.5525 84.1501L89.5868 84.0024C89.6059 83.9212 89.5563 83.8548 89.438 83.829L89.2052 83.7736L88.5449 85.9071C88.8101 86.1403 89.12 86.3209 89.457 86.4386C89.4742 86.4459 89.4881 86.4588 89.4965 86.4749C89.5048 86.4911 89.5071 86.5096 89.5028 86.5272L89.3655 86.996C89.3549 87.0189 89.3503 87.044 89.352 87.069C89.3536 87.0941 89.3616 87.1183 89.3751 87.1398C89.3886 87.1612 89.4073 87.1791 89.4295 87.192C89.4518 87.2049 89.4769 87.2124 89.5028 87.2138L90.1326 87.3614C90.1547 87.3728 90.1792 87.3791 90.2043 87.3799C90.2293 87.3807 90.2542 87.3759 90.2771 87.3659C90.2999 87.356 90.3201 87.341 90.3361 87.3224C90.352 87.3037 90.3634 87.2817 90.3692 87.2581L90.4722 86.793C90.4779 86.7758 90.4891 86.7608 90.5042 86.7502C90.5193 86.7396 90.5375 86.7339 90.5562 86.7339C91.8996 86.8705 92.8117 86.2319 93.0941 85.095C93.3155 84.187 92.9987 83.4155 92.0179 82.6884C91.121 82.0313 90.1745 81.7065 90.3386 81.0347C90.4531 80.5696 90.892 80.3555 91.4836 80.4921C91.63 80.5149 91.7695 80.5681 91.8926 80.648C92.0158 80.7279 92.1195 80.8327 92.1968 80.9551C92.274 81.0776 92.3229 81.2147 92.3401 81.3572C92.3574 81.4996 92.3425 81.644 92.2965 81.7803L92.2698 81.8837C92.2698 81.9464 92.3079 82.0018 92.4262 82.0313L93.5444 82.2897C93.5683 82.2983 93.5937 82.3015 93.619 82.2991C93.6443 82.2968 93.6687 82.2889 93.6904 82.2761C93.712 82.2633 93.7304 82.2459 93.7441 82.2253C93.7579 82.2046 93.7666 82.1812 93.7696 82.1568L93.8536 81.8135C94.1093 80.732 93.5712 79.8129 92.3232 79.381Z" fill="#263238"/>
<path d="M103.182 57.0085C103.182 57.0085 104.85 59.4263 105.128 61.5783C105.365 63.4125 104.922 65.2684 103.877 66.8161C103.045 68.0231 102.213 69.0973 101.518 70.9798C100.824 72.8623 100.686 75.5458 99.7129 76.8858C98.7397 78.2257 98.1864 79.5693 99.5717 80.78C100.957 81.9907 104.571 81.8541 106.518 78.3622C108.464 74.8703 109.712 71.109 110.96 69.7654C112.208 68.4218 116.238 65.3359 116.238 65.3359C116.238 65.3359 127.207 63.8594 129.29 61.9806C131.374 60.1018 133.179 54.9968 133.179 54.9968" fill="white"/>
<path opacity="0.2" d="M132.351 56.8055C132.351 56.8055 126.436 60.4968 121.856 61.6041C117.276 62.7115 114.414 62.7115 112.696 64.9262C110.979 67.141 109.262 74.1543 106.972 75.4462C104.682 76.7381 104.3 72.1241 101.056 73.0469L100.949 73.0838C100.633 74.5234 100.354 75.9999 99.7129 76.8895C98.7397 78.2331 98.1864 79.573 99.5717 80.7837C100.957 81.9944 104.571 81.8578 106.518 78.3659C108.464 74.8741 109.712 71.1127 110.96 69.7691C112.208 68.4255 116.238 65.3396 116.238 65.3396C116.238 65.3396 127.207 63.8631 129.29 61.9843C130.55 60.8474 131.706 58.5367 132.424 56.8831L132.351 56.8055Z" fill="black"/>
<path d="M103.182 57.0085C103.182 57.0085 104.85 59.4263 105.128 61.5783C105.365 63.4125 104.922 65.2684 103.877 66.8161C103.045 68.0231 102.213 69.0973 101.518 70.9798C100.824 72.8623 100.686 75.5458 99.7129 76.8858C98.7397 78.2257 98.1864 79.5693 99.5717 80.78C100.957 81.9907 104.571 81.8541 106.518 78.3622C108.464 74.8703 109.712 71.109 110.96 69.7654C112.208 68.4218 116.238 65.3359 116.238 65.3359C116.238 65.3359 127.207 63.8594 129.29 61.9806C131.374 60.1018 133.179 54.9968 133.179 54.9968" stroke="#263238" stroke-linecap="round" stroke-linejoin="round"/>
<path d="M98.876 63.7266C98.876 63.7266 102.49 65.6054 105.127 63.4572" stroke="#263238" stroke-linecap="round" stroke-linejoin="round"/>
<path d="M111.097 82.1272L107.906 76.2175" stroke="#263238" stroke-linecap="round" stroke-linejoin="round"/>
<path d="M121.237 70.5773C121.237 70.5773 123.737 68.5619 123.596 64.1288" stroke="#263238" stroke-linecap="round" stroke-linejoin="round"/>
<path d="M45.3359 179.981H196.467" stroke="#263238" stroke-linecap="round" stroke-linejoin="round"/>
<path d="M31.9785 179.981H38.8481" stroke="#263238" stroke-linecap="round" stroke-linejoin="round"/>
</svg>
