<svg width="450" height="230" viewBox="0 0 450 230" fill="none" xmlns="http://www.w3.org/2000/svg">
<rect width="450" height="230" fill="white"/>
<path d="M273.722 189.759L277.378 179.203H279.224L274.478 192H272.983L268.246 179.203H270.083L273.722 189.759ZM282.485 192H280.859V182.49H282.485V192ZM280.727 179.968C280.727 179.704 280.806 179.481 280.965 179.3C281.129 179.118 281.369 179.027 281.685 179.027C282.002 179.027 282.242 179.118 282.406 179.3C282.57 179.481 282.652 179.704 282.652 179.968C282.652 180.231 282.57 180.451 282.406 180.627C282.242 180.803 282.002 180.891 281.685 180.891C281.369 180.891 281.129 180.803 280.965 180.627C280.806 180.451 280.727 180.231 280.727 179.968ZM289.069 192.176C287.78 192.176 286.731 191.754 285.922 190.91C285.114 190.061 284.709 188.927 284.709 187.509V187.21C284.709 186.267 284.888 185.426 285.245 184.688C285.609 183.943 286.113 183.363 286.757 182.947C287.408 182.525 288.111 182.314 288.866 182.314C290.103 182.314 291.064 182.722 291.749 183.536C292.435 184.351 292.778 185.517 292.778 187.034V187.711H286.335C286.359 188.648 286.631 189.407 287.153 189.987C287.68 190.562 288.348 190.849 289.157 190.849C289.731 190.849 290.217 190.731 290.616 190.497C291.014 190.263 291.363 189.952 291.661 189.565L292.655 190.339C291.858 191.563 290.662 192.176 289.069 192.176ZM288.866 183.65C288.21 183.65 287.659 183.891 287.214 184.371C286.769 184.846 286.493 185.514 286.388 186.375H291.152V186.252C291.105 185.426 290.882 184.787 290.484 184.336C290.085 183.879 289.546 183.65 288.866 183.65ZM303.114 189.759L304.942 182.49H306.568L303.8 192H302.481L300.17 184.793L297.92 192H296.602L293.842 182.49H295.459L297.331 189.609L299.546 182.49H300.855L303.114 189.759ZM312.353 187.166C312.353 185.707 312.698 184.535 313.39 183.65C314.081 182.76 314.987 182.314 316.106 182.314C317.219 182.314 318.101 182.695 318.751 183.457V178.5H320.377V192H318.883L318.804 190.98C318.154 191.777 317.248 192.176 316.088 192.176C314.987 192.176 314.087 191.725 313.39 190.822C312.698 189.92 312.353 188.742 312.353 187.289V187.166ZM313.979 187.351C313.979 188.429 314.201 189.272 314.647 189.882C315.092 190.491 315.707 190.796 316.492 190.796C317.524 190.796 318.277 190.333 318.751 189.407V185.039C318.265 184.143 317.518 183.694 316.51 183.694C315.713 183.694 315.092 184.002 314.647 184.617C314.201 185.232 313.979 186.144 313.979 187.351ZM328.807 192C328.713 191.812 328.637 191.479 328.578 190.998C327.822 191.783 326.92 192.176 325.871 192.176C324.933 192.176 324.163 191.912 323.559 191.385C322.962 190.852 322.663 190.178 322.663 189.363C322.663 188.373 323.038 187.605 323.788 187.061C324.544 186.51 325.604 186.234 326.97 186.234H328.552V185.487C328.552 184.919 328.382 184.468 328.042 184.134C327.702 183.794 327.201 183.624 326.539 183.624C325.959 183.624 325.473 183.771 325.08 184.063C324.687 184.356 324.491 184.711 324.491 185.127H322.856C322.856 184.652 323.023 184.195 323.357 183.756C323.697 183.311 324.154 182.959 324.728 182.701C325.308 182.443 325.944 182.314 326.636 182.314C327.731 182.314 328.59 182.59 329.211 183.141C329.832 183.686 330.154 184.438 330.178 185.399V189.776C330.178 190.649 330.289 191.344 330.512 191.859V192H328.807ZM326.108 190.761C326.618 190.761 327.101 190.629 327.558 190.365C328.016 190.102 328.347 189.759 328.552 189.337V187.386H327.277C325.285 187.386 324.289 187.969 324.289 189.135C324.289 189.645 324.459 190.043 324.799 190.33C325.139 190.617 325.575 190.761 326.108 190.761ZM334.96 180.188V182.49H336.735V183.747H334.96V189.645C334.96 190.025 335.039 190.312 335.197 190.506C335.355 190.693 335.625 190.787 336.005 190.787C336.193 190.787 336.451 190.752 336.779 190.682V192C336.351 192.117 335.935 192.176 335.531 192.176C334.804 192.176 334.256 191.956 333.887 191.517C333.518 191.077 333.334 190.453 333.334 189.645V183.747H331.602V182.49H333.334V180.188H334.96ZM344.54 192C344.446 191.812 344.37 191.479 344.312 190.998C343.556 191.783 342.654 192.176 341.605 192.176C340.667 192.176 339.897 191.912 339.293 191.385C338.695 190.852 338.397 190.178 338.397 189.363C338.397 188.373 338.772 187.605 339.522 187.061C340.278 186.51 341.338 186.234 342.703 186.234H344.285V185.487C344.285 184.919 344.115 184.468 343.776 184.134C343.436 183.794 342.935 183.624 342.273 183.624C341.693 183.624 341.206 183.771 340.814 184.063C340.421 184.356 340.225 184.711 340.225 185.127H338.59C338.59 184.652 338.757 184.195 339.091 183.756C339.431 183.311 339.888 182.959 340.462 182.701C341.042 182.443 341.678 182.314 342.369 182.314C343.465 182.314 344.323 182.59 344.945 183.141C345.566 183.686 345.888 184.438 345.911 185.399V189.776C345.911 190.649 346.023 191.344 346.245 191.859V192H344.54ZM341.842 190.761C342.352 190.761 342.835 190.629 343.292 190.365C343.749 190.102 344.08 189.759 344.285 189.337V187.386H343.011C341.019 187.386 340.023 187.969 340.023 189.135C340.023 189.645 340.193 190.043 340.532 190.33C340.872 190.617 341.309 190.761 341.842 190.761Z" fill="#00B8D1"/>
<path d="M356.952 187H367.009L363.931 191.36C363.787 191.564 363.718 191.827 363.738 192.092C363.759 192.356 363.868 192.6 364.041 192.77C364.214 192.94 364.438 193.021 364.662 192.997C364.886 192.973 365.093 192.844 365.237 192.64L369.477 186.64C369.505 186.592 369.531 186.542 369.553 186.49C369.553 186.44 369.553 186.41 369.613 186.36C369.651 186.245 369.671 186.123 369.672 186C369.671 185.877 369.651 185.755 369.613 185.64C369.613 185.59 369.613 185.56 369.553 185.51C369.531 185.458 369.505 185.408 369.477 185.36L365.237 179.36C365.157 179.247 365.057 179.156 364.944 179.094C364.832 179.032 364.708 179 364.584 179C364.386 179 364.194 179.081 364.041 179.23C363.955 179.314 363.884 179.417 363.832 179.533C363.78 179.65 363.748 179.777 363.738 179.908C363.728 180.039 363.739 180.171 363.773 180.297C363.806 180.422 363.86 180.539 363.931 180.64L367.009 185H356.952C356.727 185 356.511 185.105 356.352 185.293C356.193 185.48 356.104 185.735 356.104 186C356.104 186.265 356.193 186.52 356.352 186.707C356.511 186.895 356.727 187 356.952 187Z" fill="#00B8D1"/>
<path d="M239.688 129.576C247.416 129.576 252.504 125.256 252.504 118.488C252.504 112.008 247.656 108.12 242.232 108.12C239.304 108.12 236.712 109.272 235.176 110.808V102.984H250.344V96.984H228.36V115.32L233.112 116.616C235.032 114.792 237.192 114.024 239.832 114.024C243.48 114.024 245.592 115.944 245.592 118.776C245.592 121.368 243.432 123.528 239.64 123.528C236.28 123.528 233.304 122.28 231.144 120.024L227.352 124.776C230.088 127.752 234.12 129.576 239.688 129.576ZM269.203 129.576C278.371 129.576 282.451 121.272 282.451 113.016C282.451 104.76 278.371 96.504 269.203 96.504C260.035 96.504 255.955 104.76 255.955 113.016C255.955 121.272 260.035 129.576 269.203 129.576ZM269.203 123.528C264.643 123.528 262.915 118.92 262.915 113.016C262.915 107.112 264.643 102.552 269.203 102.552C273.811 102.552 275.491 107.112 275.491 113.016C275.491 118.92 273.763 123.528 269.203 123.528ZM299.089 129.576C308.257 129.576 312.337 121.272 312.337 113.016C312.337 104.76 308.257 96.504 299.089 96.504C289.921 96.504 285.841 104.76 285.841 113.016C285.841 121.272 289.921 129.576 299.089 129.576ZM299.089 123.528C294.529 123.528 292.801 118.92 292.801 113.016C292.801 107.112 294.529 102.552 299.089 102.552C303.697 102.552 305.377 107.112 305.377 113.016C305.377 118.92 303.649 123.528 299.089 123.528ZM319.207 129.528C321.319 129.528 323.095 127.752 323.095 125.64C323.095 123.528 321.319 121.752 319.207 121.752C317.095 121.752 315.319 123.528 315.319 125.64C315.319 127.752 317.095 129.528 319.207 129.528ZM339.36 129.576C348.528 129.576 352.608 121.272 352.608 113.016C352.608 104.76 348.528 96.504 339.36 96.504C330.192 96.504 326.112 104.76 326.112 113.016C326.112 121.272 330.192 129.576 339.36 129.576ZM339.36 123.528C334.8 123.528 333.072 118.92 333.072 113.016C333.072 107.112 334.8 102.552 339.36 102.552C343.968 102.552 345.648 107.112 345.648 113.016C345.648 118.92 343.92 123.528 339.36 123.528ZM369.246 129.576C378.414 129.576 382.494 121.272 382.494 113.016C382.494 104.76 378.414 96.504 369.246 96.504C360.078 96.504 355.998 104.76 355.998 113.016C355.998 121.272 360.078 129.576 369.246 129.576ZM369.246 123.528C364.686 123.528 362.958 118.92 362.958 113.016C362.958 107.112 364.686 102.552 369.246 102.552C373.854 102.552 375.534 107.112 375.534 113.016C375.534 118.92 373.806 123.528 369.246 123.528ZM399.131 129.576C408.299 129.576 412.379 121.272 412.379 113.016C412.379 104.76 408.299 96.504 399.131 96.504C389.963 96.504 385.883 104.76 385.883 113.016C385.883 121.272 389.963 129.576 399.131 129.576ZM399.131 123.528C394.571 123.528 392.843 118.92 392.843 113.016C392.843 107.112 394.571 102.552 399.131 102.552C403.739 102.552 405.419 107.112 405.419 113.016C405.419 118.92 403.691 123.528 399.131 123.528Z" fill="#1E272E"/>
<path d="M77.4022 206H75.1522V188.938H77.4022V206ZM83.2741 193.32L83.3444 194.914C84.3132 193.695 85.5788 193.086 87.1413 193.086C89.821 193.086 91.1726 194.598 91.196 197.621V206H89.028V197.609C89.0202 196.695 88.8093 196.02 88.3952 195.582C87.989 195.145 87.3522 194.926 86.4851 194.926C85.7819 194.926 85.1647 195.113 84.6335 195.488C84.1022 195.863 83.6882 196.355 83.3913 196.965V206H81.2233V193.32H83.2741ZM99.5875 204.465C100.361 204.465 101.037 204.23 101.615 203.762C102.193 203.293 102.513 202.707 102.576 202.004H104.627C104.587 202.73 104.337 203.422 103.877 204.078C103.416 204.734 102.798 205.258 102.025 205.648C101.259 206.039 100.447 206.234 99.5875 206.234C97.8609 206.234 96.4859 205.66 95.4625 204.512C94.4468 203.355 93.939 201.777 93.939 199.777V199.414C93.939 198.18 94.1656 197.082 94.6187 196.121C95.0718 195.16 95.7203 194.414 96.564 193.883C97.4156 193.352 98.4195 193.086 99.5758 193.086C100.998 193.086 102.177 193.512 103.115 194.363C104.06 195.215 104.564 196.32 104.627 197.68H102.576C102.513 196.859 102.201 196.188 101.638 195.664C101.084 195.133 100.396 194.867 99.5758 194.867C98.4742 194.867 97.6187 195.266 97.0093 196.062C96.4078 196.852 96.107 197.996 96.107 199.496V199.906C96.107 201.367 96.4078 202.492 97.0093 203.281C97.6109 204.07 98.4703 204.465 99.5875 204.465ZM106.526 199.543C106.526 198.301 106.768 197.184 107.252 196.191C107.745 195.199 108.424 194.434 109.291 193.895C110.166 193.355 111.163 193.086 112.28 193.086C114.006 193.086 115.401 193.684 116.463 194.879C117.534 196.074 118.069 197.664 118.069 199.648V199.801C118.069 201.035 117.831 202.145 117.354 203.129C116.885 204.105 116.209 204.867 115.327 205.414C114.452 205.961 113.444 206.234 112.303 206.234C110.584 206.234 109.19 205.637 108.12 204.441C107.057 203.246 106.526 201.664 106.526 199.695V199.543ZM108.706 199.801C108.706 201.207 109.03 202.336 109.678 203.188C110.334 204.039 111.209 204.465 112.303 204.465C113.405 204.465 114.28 204.035 114.928 203.176C115.577 202.309 115.901 201.098 115.901 199.543C115.901 198.152 115.569 197.027 114.905 196.168C114.248 195.301 113.373 194.867 112.28 194.867C111.209 194.867 110.346 195.293 109.69 196.145C109.034 196.996 108.706 198.215 108.706 199.801ZM122.863 193.32L122.921 194.727C123.851 193.633 125.105 193.086 126.683 193.086C128.456 193.086 129.663 193.766 130.304 195.125C130.726 194.516 131.273 194.023 131.945 193.648C132.624 193.273 133.425 193.086 134.347 193.086C137.128 193.086 138.542 194.559 138.589 197.504V206H136.421V197.633C136.421 196.727 136.214 196.051 135.8 195.605C135.386 195.152 134.691 194.926 133.714 194.926C132.909 194.926 132.242 195.168 131.71 195.652C131.179 196.129 130.87 196.773 130.784 197.586V206H128.605V197.691C128.605 195.848 127.702 194.926 125.898 194.926C124.476 194.926 123.503 195.531 122.98 196.742V206H120.812V193.32H122.863ZM147.168 206.234C145.449 206.234 144.051 205.672 142.973 204.547C141.895 203.414 141.356 201.902 141.356 200.012V199.613C141.356 198.355 141.594 197.234 142.07 196.25C142.555 195.258 143.227 194.484 144.086 193.93C144.953 193.367 145.891 193.086 146.899 193.086C148.547 193.086 149.828 193.629 150.742 194.715C151.656 195.801 152.113 197.355 152.113 199.379V200.281H143.524C143.555 201.531 143.918 202.543 144.613 203.316C145.317 204.082 146.207 204.465 147.285 204.465C148.051 204.465 148.699 204.309 149.231 203.996C149.762 203.684 150.227 203.27 150.625 202.754L151.949 203.785C150.887 205.418 149.293 206.234 147.168 206.234ZM146.899 194.867C146.024 194.867 145.289 195.188 144.695 195.828C144.102 196.461 143.735 197.352 143.594 198.5H149.945V198.336C149.883 197.234 149.586 196.383 149.055 195.781C148.524 195.172 147.805 194.867 146.899 194.867Z" fill="#1E272E"/>
<path d="M166.413 158.137C166.413 158.137 150.162 130.553 153.914 123.517C157.665 116.482 167.245 129.132 167.245 129.132C167.245 129.132 158.913 103.404 163.497 92.1641C168.08 80.9243 175.996 92.1641 176.412 100.119C176.828 108.073 174.744 121.638 174.744 121.638C174.744 121.638 178.079 93.5852 185.995 101.99C193.91 110.395 175.996 138.478 175.996 138.478C175.996 138.478 188.079 131.93 187.659 140.349C187.239 148.769 173.08 156.255 173.08 156.255" fill="#4ABDAC"/>
<path d="M166.55 152.992C166.55 152.992 151.513 139.423 158.841 133.343C166.168 127.264 170.023 139.891 170.023 139.891C170.023 139.891 161.925 101.063 175.034 99.6571C188.143 98.2508 178.503 133.34 178.503 133.34C178.503 133.34 189.685 118.372 188.914 130.553C188.143 142.734 171.565 153.01 171.565 153.01" stroke="#263238" stroke-miterlimit="10"/>
<path d="M173.935 150.522L163.775 139.873" stroke="#263238" stroke-miterlimit="10"/>
<path d="M171.82 151.342L174.572 120.214" stroke="#263238" stroke-miterlimit="10"/>
<path d="M171.396 149.087L180.499 137.415" stroke="#263238" stroke-miterlimit="10"/>
<path d="M184.563 146.916H156.455L159.268 178.981H181.75L184.563 146.916Z" fill="#263238"/>
<path d="M77.2592 109.731C73.6046 107.996 69.827 106.516 65.9549 105.301C60.3753 103.64 53.7919 105.161 53.6469 106.958C53.5019 108.756 54.4942 107.933 55.7956 109.882C57.097 111.831 56.5092 116.386 58.3717 120.538C60.2341 124.691 65.8099 126.766 65.8099 126.766L77.2592 109.731Z" fill="#4ABDAC" stroke="#263238" stroke-linecap="round" stroke-linejoin="round"/>
<path opacity="0.3" d="M73.5379 113.747C73.5379 113.747 64.9509 108.487 59.9438 106.685C54.9366 104.884 54.6504 107.516 54.6504 107.516C55.4742 107.808 56.1811 108.345 56.6699 109.05C57.1587 109.755 57.4043 110.591 57.3715 111.44C57.3715 114.548 58.9782 120.985 62.8824 122.314C66.7867 123.643 73.5379 113.747 73.5379 113.747Z" fill="black"/>
<path d="M134.81 119.624C137.054 118.799 138.132 116.241 137.216 113.911C136.301 111.58 133.74 110.359 131.495 111.184C129.251 112.008 128.174 114.566 129.089 116.897C130.004 119.227 132.566 120.448 134.81 119.624Z" fill="#4ABDAC" stroke="#263238" stroke-linecap="round" stroke-linejoin="round"/>
<path d="M73.2832 163.707L78.0995 177.682C78.2302 178.061 78.4807 178.39 78.8157 178.623C79.1507 178.857 79.5531 178.982 79.9658 178.982H87.4727C87.8567 178.982 88.2325 178.874 88.5534 178.67C88.8743 178.466 89.1262 178.175 89.2779 177.834L92.6363 170.296" fill="#4ABDAC"/>
<path opacity="0.3" d="M75.6992 163.707L79.6836 177.682C79.759 178.033 79.9514 178.35 80.2314 178.585C80.5113 178.82 80.8633 178.959 81.233 178.982H87.4576C87.7995 178.965 88.1274 178.845 88.3956 178.639C88.6637 178.433 88.8588 178.152 88.9537 177.834L91.7397 170.296" fill="black"/>
<path d="M73.2832 163.707L78.0995 177.682C78.2302 178.061 78.4807 178.39 78.8157 178.623C79.1507 178.857 79.5531 178.982 79.9658 178.982H87.4727C87.8567 178.982 88.2325 178.874 88.5534 178.67C88.8743 178.466 89.1262 178.175 89.2779 177.834L92.6363 170.296" stroke="#263238" stroke-linecap="round" stroke-linejoin="round"/>
<path d="M109.508 163.707L104.695 177.682C104.565 178.061 104.314 178.39 103.979 178.623C103.644 178.857 103.242 178.982 102.829 178.982H95.3296C94.9456 178.982 94.5698 178.874 94.2489 178.67C93.9281 178.466 93.6762 178.175 93.5245 177.834L90.166 170.296" fill="#263238"/>
<path d="M109.508 163.707L104.695 177.682C104.565 178.061 104.314 178.39 103.979 178.623C103.644 178.857 103.242 178.982 102.829 178.982H95.3296C94.9456 178.982 94.5698 178.874 94.2489 178.67C93.9281 178.466 93.6762 178.175 93.5245 177.834L90.166 170.296" stroke="#263238" stroke-linecap="round" stroke-linejoin="round"/>
<path d="M125.457 163.707L120.64 177.682C120.51 178.061 120.259 178.39 119.924 178.623C119.589 178.857 119.187 178.982 118.774 178.982H111.267C110.883 178.982 110.507 178.874 110.186 178.67C109.866 178.466 109.614 178.175 109.462 177.834L106.104 170.296" fill="#4ABDAC"/>
<path opacity="0.3" d="M122.046 163.707L118.752 177.682C118.569 178.457 118.057 178.982 117.477 178.982H112.344C111.81 178.982 111.325 178.531 111.111 177.834L107.921 170.451" fill="black"/>
<path d="M125.457 163.707L120.64 177.682C120.51 178.061 120.259 178.39 119.924 178.623C119.589 178.857 119.187 178.982 118.774 178.982H111.267C110.883 178.982 110.507 178.874 110.186 178.67C109.866 178.466 109.614 178.175 109.462 177.834L106.104 170.296" stroke="#263238" stroke-linecap="round" stroke-linejoin="round"/>
<path d="M99.7189 172.902C122.518 172.902 141.001 156.69 141.001 136.691C141.001 116.692 122.518 100.48 99.7189 100.48C76.9193 100.48 58.4365 116.692 58.4365 136.691C58.4365 156.69 76.9193 172.902 99.7189 172.902Z" fill="#4ABDAC"/>
<path opacity="0.3" d="M128.153 111.949C130.574 116.592 131.835 121.72 131.836 126.92C131.836 146.919 113.353 163.131 90.5536 163.131C82.0691 163.173 73.7529 160.842 66.6055 156.421C73.8033 165.763 85.9891 171.924 99.8084 171.924C121.944 171.924 139.881 156.195 139.881 136.791C139.858 127.079 135.378 118.305 128.153 111.949Z" fill="black"/>
<path d="M99.7189 172.902C122.518 172.902 141.001 156.69 141.001 136.691C141.001 116.692 122.518 100.48 99.7189 100.48C76.9193 100.48 58.4365 116.692 58.4365 136.691C58.4365 156.69 76.9193 172.902 99.7189 172.902Z" stroke="#263238" stroke-linecap="round" stroke-linejoin="round"/>
<path d="M137.53 139.939C136.629 147.233 133.152 153.852 127.916 159.078" stroke="#4ABDAC" stroke-width="2" stroke-linecap="round" stroke-linejoin="round"/>
<path d="M136.847 128.707C137.456 131.15 137.763 133.654 137.763 136.167" stroke="#4ABDAC" stroke-width="2" stroke-linecap="round" stroke-linejoin="round"/>
<path d="M89.4844 102.739C92.8859 101.97 96.368 101.584 99.8613 101.588C102.098 101.587 104.331 101.745 106.544 102.06" stroke="#263238" stroke-width="4" stroke-linecap="round" stroke-linejoin="round"/>
<path d="M107.817 128.017C107.817 128.017 111.825 125.385 111.97 120.542C112.115 115.699 105.527 108.642 100.234 105.733C94.9407 102.824 91.0746 103.382 90.9334 105.456C90.7922 107.53 88.9298 109.885 88.2161 113.898C87.5024 117.91 87.2124 123.864 92.7958 125.802" fill="#4ABDAC"/>
<path d="M107.817 128.017C107.817 128.017 111.825 125.385 111.97 120.542C112.115 115.699 105.527 108.642 100.234 105.733C94.9407 102.824 91.0746 103.382 90.9334 105.456C90.7922 107.53 88.9298 109.885 88.2161 113.898C87.5024 117.91 87.2124 123.864 92.7958 125.802" stroke="#263238" stroke-linecap="round" stroke-linejoin="round"/>
<path opacity="0.3" d="M99.1956 126.463L100.016 126.581C103.535 127.072 104.771 124.85 104.668 121.513C104.527 116.807 98.0889 106.841 95.3678 105.456C92.6466 104.072 91.7918 106.01 91.7918 106.01C91.7918 106.01 92.1734 106.257 90.8338 110.558C90.2156 112.543 87.9143 119.468 90.1927 122.539C92.2077 125.252 95.9517 125.994 99.1956 126.463Z" fill="black"/>
<path opacity="0.3" d="M110.595 121.694H110.542C110.492 121.688 110.444 121.672 110.4 121.647C110.356 121.623 110.318 121.59 110.288 121.551C110.257 121.513 110.235 121.468 110.222 121.421C110.209 121.374 110.207 121.325 110.213 121.277C110.255 120.993 110.279 120.707 110.286 120.42C110.362 117.837 108.183 114.127 104.6 110.705C104.564 110.671 104.535 110.63 104.516 110.585C104.496 110.541 104.486 110.492 104.485 110.444C104.485 110.395 104.495 110.347 104.513 110.302C104.532 110.257 104.56 110.216 104.596 110.181C104.631 110.146 104.673 110.119 104.719 110.1C104.766 110.081 104.816 110.071 104.866 110.071C104.916 110.07 104.966 110.079 105.013 110.098C105.059 110.116 105.102 110.143 105.138 110.177C108.924 113.795 111.133 117.63 111.049 120.439C111.041 120.752 111.016 121.065 110.973 121.376C110.96 121.465 110.915 121.545 110.845 121.603C110.776 121.662 110.687 121.694 110.595 121.694Z" fill="black"/>
<path opacity="0.3" d="M108.543 126.145C108.471 126.146 108.4 126.126 108.339 126.089C108.278 126.052 108.229 125.999 108.198 125.936C108.166 125.873 108.154 125.802 108.163 125.733C108.171 125.664 108.2 125.598 108.245 125.544C108.874 124.798 109.377 123.961 109.734 123.063C109.77 122.972 109.842 122.898 109.934 122.858C110.026 122.817 110.132 122.814 110.226 122.849C110.321 122.884 110.397 122.954 110.439 123.043C110.48 123.132 110.483 123.234 110.448 123.325C110.062 124.297 109.518 125.203 108.837 126.009C108.801 126.051 108.757 126.085 108.706 126.109C108.655 126.133 108.599 126.145 108.543 126.145V126.145Z" fill="black"/>
<path opacity="0.3" d="M80.7506 143.698C81.8794 139.322 77.9452 134.605 71.9634 133.162C65.9816 131.718 60.2174 134.095 59.0886 138.47C57.9599 142.845 61.8941 147.562 67.8759 149.006C73.8577 150.45 79.6219 148.073 80.7506 143.698Z" fill="black"/>
<path d="M80.2135 142.903C81.3422 138.528 77.408 133.811 71.4263 132.367C65.4445 130.924 59.6802 133.3 58.5515 137.675C57.4228 142.051 61.357 146.768 67.3388 148.211C73.3206 149.655 79.0848 147.278 80.2135 142.903Z" fill="#4ABDAC" stroke="#263238" stroke-linecap="round" stroke-linejoin="round"/>
<path d="M66.0122 138.969C66.0809 139.958 65.6878 140.792 65.1382 140.814C64.5886 140.837 64.081 140.076 63.9933 139.087C63.9055 138.098 64.3177 137.26 64.871 137.241C65.4244 137.223 65.9435 137.976 66.0122 138.969Z" stroke="#263238" stroke-linecap="round" stroke-linejoin="round"/>
<path d="M73.5766 140.803C73.6453 141.796 73.2522 142.627 72.7026 142.649C72.1531 142.671 71.6455 141.911 71.5577 140.918C71.4699 139.925 71.8821 139.094 72.4355 139.072C72.9889 139.05 73.4964 139.81 73.5766 140.803Z" stroke="#263238" stroke-linecap="round" stroke-linejoin="round"/>
<path d="M86.0595 143.369C85.979 144.079 85.8072 144.777 85.5481 145.447C83.3575 151.172 75.4269 153.649 67.5918 151.183" stroke="#263238" stroke-width="3" stroke-linecap="round" stroke-linejoin="round"/>
<path d="M84.7822 142.826H87.2133" stroke="#263238" stroke-width="3" stroke-linecap="round" stroke-linejoin="round"/>
<path d="M69.2944 127.5C69.0272 128.574 68.3441 129.346 67.7678 129.205C67.1915 129.065 66.9397 128.098 67.2106 127.013C67.4816 125.928 68.1609 125.167 68.7372 125.304C69.3135 125.44 69.5654 126.422 69.2944 127.5Z" fill="#263238" stroke="#263238" stroke-linecap="round" stroke-linejoin="round"/>
<path d="M76.3333 128.984C76.6019 127.906 76.3529 126.923 75.7771 126.789C75.2014 126.655 74.5168 127.42 74.2481 128.498C73.9795 129.576 74.2285 130.559 74.8043 130.693C75.3801 130.828 76.0646 130.062 76.3333 128.984Z" fill="#263238" stroke="#263238" stroke-linecap="round" stroke-linejoin="round"/>
<path d="M86.8428 168.203L91.0408 177.837C91.1915 178.182 91.4438 178.476 91.7662 178.683C92.0886 178.89 92.4668 179 92.8537 179H100.487C100.87 179 101.245 178.891 101.565 178.688C101.886 178.485 102.138 178.195 102.292 177.856L106.871 167.62H106.673" fill="#4ABDAC"/>
<path opacity="0.3" d="M95.7118 166.974C93.2922 166.974 90.4757 167.28 88.1973 166.771L92.1206 177.819C92.214 178.14 92.4088 178.424 92.6777 178.633C92.9467 178.841 93.2763 178.963 93.6204 178.981H99.9099C100.25 178.963 100.576 178.843 100.842 178.638C101.109 178.433 101.303 178.153 101.398 177.837L105.196 166.568L103.669 166.771C98.826 167.28 98.952 166.974 95.7118 166.974Z" fill="black"/>
<path d="M86.8428 168.203L91.0408 177.837C91.1915 178.182 91.4438 178.476 91.7662 178.683C92.0886 178.89 92.4668 179 92.8537 179H100.487C100.87 179 101.245 178.891 101.565 178.688C101.886 178.485 102.138 178.195 102.292 177.856L106.871 167.62H106.673" stroke="#263238" stroke-linecap="round" stroke-linejoin="round"/>
<path d="M162.881 18.1329L141.773 47.5482C141.773 47.5482 139.968 51.7119 137.746 54.8015C135.525 57.891 129.297 60.9806 129.297 60.9806C129.297 60.9806 128.743 66.7536 126.938 68.769C125.133 70.7844 121.244 69.5774 121.244 69.5774C121.244 69.5774 119.576 71.3234 117.771 72.128C115.966 72.9327 110.413 69.9798 110.413 69.9798C110.413 69.9798 115.409 75.2176 116.103 76.9635C116.798 78.7095 118.05 80.186 115.829 81.799C113.608 83.4121 111.104 81.1272 111.104 81.1272C111.104 81.1272 112.218 84.6191 109.024 85.2909C105.83 85.9627 102.349 79.2447 100.96 76.9635C99.5707 74.6824 95.5443 66.0818 94.8536 65.6795C94.1628 65.2771 93.1896 63.1289 94.5788 61.1134C95.968 59.098 105.822 46.2046 106.933 45.2855C108.043 44.3664 129.297 39.4903 129.297 39.4903L137.353 18" fill="white"/>
<path opacity="0.2" d="M139.601 47.8696C139.601 47.8696 137.311 54.5138 134.831 55.8057C132.35 57.0976 118.229 60.6043 112.695 59.866C107.162 59.1278 104.108 57.0976 104.108 57.0976C104.108 57.0976 101.055 60.9734 99.7196 62.2653C98.7894 63.1008 97.6825 63.7306 96.4756 64.1109C96.4756 64.1109 103.116 80.2453 107.891 85.2395C108.261 85.3503 108.655 85.3681 109.035 85.2912C112.23 84.6194 111.115 81.1275 111.115 81.1275C111.115 81.1275 113.615 83.4086 115.84 81.7993C118.065 80.1899 116.81 78.7097 116.115 76.9638C115.42 75.2178 110.406 69.98 110.406 69.98C110.406 69.98 115.958 72.933 117.764 72.1283C119.569 71.3236 121.237 69.5739 121.237 69.5739C121.237 69.5739 125.126 70.7847 126.931 68.7693C128.736 66.7539 129.289 60.9808 129.289 60.9808C129.289 60.9808 135.537 57.8912 137.762 54.8017C139.987 51.7121 141.788 47.5484 141.788 47.5484L150.486 35.4302L139.601 47.8696Z" fill="black"/>
<path d="M162.881 18.1329L141.773 47.5482C141.773 47.5482 139.968 51.7119 137.746 54.8015C135.525 57.891 129.297 60.9806 129.297 60.9806C129.297 60.9806 128.743 66.7536 126.938 68.769C125.133 70.7844 121.244 69.5774 121.244 69.5774C121.244 69.5774 119.576 71.3234 117.771 72.128C115.966 72.9327 110.413 69.9798 110.413 69.9798C110.413 69.9798 115.409 75.2176 116.103 76.9635C116.798 78.7095 118.05 80.186 115.829 81.799C113.608 83.4121 111.104 81.1272 111.104 81.1272C111.104 81.1272 112.218 84.6191 109.024 85.2909C105.83 85.9627 102.349 79.2447 100.96 76.9635C99.5707 74.6824 95.5443 66.0818 94.8536 65.6795C94.1628 65.2771 93.1896 63.1289 94.5788 61.1134C95.968 59.098 105.822 46.2046 106.933 45.2855C108.043 44.3664 129.297 39.4903 129.297 39.4903L137.353 18" stroke="#263238" stroke-linecap="round" stroke-linejoin="round"/>
<path d="M90.6865 96.5713L91.2399 98.5867L99.8498 96.5713L107.906 76.1551L102.628 74.4092L90.6865 96.5713Z" fill="white" stroke="#263238" stroke-linecap="round" stroke-linejoin="round"/>
<path d="M93.3235 69.4408L105.265 73.7411L99.4336 99.2585L85.4082 95.0948L93.3235 69.4408Z" fill="white" stroke="#263238" stroke-linecap="round" stroke-linejoin="round"/>
<path d="M85.877 93.5704L98.3223 97.1103L103.738 74.4093L92.8343 71.0208L85.877 93.5704Z" fill="#4ABDAC" stroke="#263238" stroke-linecap="round" stroke-linejoin="round"/>
<path d="M92.7858 76.635C92.2441 76.4963 91.6781 76.4712 91.1256 76.5611L87.874 87.0996C88.3446 87.5431 88.9236 87.8644 89.5571 88.0335C92.1065 88.7126 94.9001 86.7083 95.7931 83.5597C96.6862 80.4111 95.3313 77.3105 92.7858 76.635Z" fill="white" stroke="#263238" stroke-linecap="round" stroke-linejoin="round"/>
<path d="M92.3232 78.381C92.3068 78.3739 92.2934 78.3616 92.2851 78.3462C92.2768 78.3308 92.2741 78.3132 92.2774 78.2961L92.4224 77.7498C92.4313 77.7268 92.4346 77.7021 92.4321 77.6777C92.4297 77.6533 92.4216 77.6297 92.4083 77.6087C92.3951 77.5877 92.3771 77.57 92.3558 77.5567C92.3344 77.5434 92.3102 77.535 92.285 77.532L91.6782 77.3918C91.6544 77.3824 91.6288 77.3786 91.6032 77.3806C91.5776 77.3827 91.5529 77.3904 91.531 77.4034C91.5091 77.4163 91.4907 77.434 91.4771 77.455C91.4636 77.4761 91.4553 77.5 91.453 77.5247L91.3347 78.0894C91.3303 78.1063 91.3198 78.1211 91.3051 78.1313C91.2905 78.1414 91.2726 78.1462 91.2546 78.1448C91.0478 78.1243 90.8393 78.1243 90.6325 78.1448L89.5219 81.7511C90.3883 82.6222 91.7393 83.0578 91.5599 83.7887C91.4569 84.2021 91.0676 84.5269 90.3844 84.3793C90.2416 84.3608 90.1045 84.3128 89.9826 84.2385C89.8606 84.1642 89.7567 84.0654 89.6777 83.9488C89.5988 83.8321 89.5467 83.7004 89.5251 83.5626C89.5035 83.4248 89.5128 83.2841 89.5525 83.1501L89.5868 83.0024C89.6059 82.9212 89.5563 82.8548 89.438 82.829L89.2052 82.7736L88.5449 84.9071C88.8101 85.1403 89.12 85.3209 89.457 85.4386C89.4742 85.4459 89.4881 85.4588 89.4965 85.4749C89.5048 85.4911 89.5071 85.5096 89.5028 85.5272L89.3655 85.996C89.3549 86.0189 89.3503 86.044 89.352 86.069C89.3536 86.0941 89.3616 86.1183 89.3751 86.1398C89.3886 86.1612 89.4073 86.1791 89.4295 86.192C89.4518 86.2049 89.4769 86.2124 89.5028 86.2138L90.1326 86.3614C90.1547 86.3728 90.1792 86.3791 90.2043 86.3799C90.2293 86.3807 90.2542 86.3759 90.2771 86.3659C90.2999 86.356 90.3201 86.341 90.3361 86.3224C90.352 86.3037 90.3634 86.2817 90.3692 86.2581L90.4722 85.793C90.4779 85.7758 90.4891 85.7608 90.5042 85.7502C90.5193 85.7396 90.5375 85.7339 90.5562 85.7339C91.8996 85.8705 92.8117 85.2319 93.0941 84.095C93.3155 83.187 92.9987 82.4155 92.0179 81.6884C91.121 81.0313 90.1745 80.7065 90.3386 80.0347C90.4531 79.5696 90.892 79.3555 91.4836 79.4921C91.63 79.5149 91.7695 79.5681 91.8926 79.648C92.0158 79.7279 92.1195 79.8327 92.1968 79.9551C92.274 80.0776 92.3229 80.2147 92.3401 80.3572C92.3574 80.4996 92.3425 80.644 92.2965 80.7803L92.2698 80.8837C92.2698 80.9464 92.3079 81.0018 92.4262 81.0313L93.5444 81.2897C93.5683 81.2983 93.5937 81.3015 93.619 81.2991C93.6443 81.2968 93.6687 81.2889 93.6904 81.2761C93.712 81.2633 93.7304 81.2459 93.7441 81.2253C93.7579 81.2046 93.7666 81.1812 93.7696 81.1568L93.8536 80.8135C94.1093 79.732 93.5712 78.8129 92.3232 78.381Z" fill="#263238"/>
<path d="M103.182 56.0085C103.182 56.0085 104.85 58.4263 105.128 60.5783C105.365 62.4125 104.922 64.2684 103.877 65.8161C103.045 67.0231 102.213 68.0973 101.518 69.9798C100.824 71.8623 100.686 74.5458 99.7129 75.8858C98.7397 77.2257 98.1864 78.5693 99.5717 79.78C100.957 80.9907 104.571 80.8541 106.518 77.3622C108.464 73.8703 109.712 70.109 110.96 68.7654C112.208 67.4218 116.238 64.3359 116.238 64.3359C116.238 64.3359 127.207 62.8594 129.29 60.9806C131.374 59.1018 133.179 53.9968 133.179 53.9968" fill="white"/>
<path opacity="0.2" d="M132.351 55.8055C132.351 55.8055 126.436 59.4968 121.856 60.6041C117.276 61.7115 114.414 61.7115 112.696 63.9262C110.979 66.141 109.262 73.1543 106.972 74.4462C104.682 75.7381 104.3 71.1241 101.056 72.0469L100.949 72.0838C100.633 73.5234 100.354 74.9999 99.7129 75.8895C98.7397 77.2331 98.1864 78.573 99.5717 79.7837C100.957 80.9944 104.571 80.8578 106.518 77.3659C108.464 73.8741 109.712 70.1127 110.96 68.7691C112.208 67.4255 116.238 64.3396 116.238 64.3396C116.238 64.3396 127.207 62.8631 129.29 60.9843C130.55 59.8474 131.706 57.5367 132.424 55.8831L132.351 55.8055Z" fill="black"/>
<path d="M103.182 56.0085C103.182 56.0085 104.85 58.4263 105.128 60.5783C105.365 62.4125 104.922 64.2684 103.877 65.8161C103.045 67.0231 102.213 68.0973 101.518 69.9798C100.824 71.8623 100.686 74.5458 99.7129 75.8858C98.7397 77.2257 98.1864 78.5693 99.5717 79.78C100.957 80.9907 104.571 80.8541 106.518 77.3622C108.464 73.8703 109.712 70.109 110.96 68.7654C112.208 67.4218 116.238 64.3359 116.238 64.3359C116.238 64.3359 127.207 62.8594 129.29 60.9806C131.374 59.1018 133.179 53.9968 133.179 53.9968" stroke="#263238" stroke-linecap="round" stroke-linejoin="round"/>
<path d="M98.876 62.7266C98.876 62.7266 102.49 64.6054 105.127 62.4572" stroke="#263238" stroke-linecap="round" stroke-linejoin="round"/>
<path d="M111.097 81.1272L107.906 75.2175" stroke="#263238" stroke-linecap="round" stroke-linejoin="round"/>
<path d="M121.237 69.5773C121.237 69.5773 123.737 67.5619 123.596 63.1288" stroke="#263238" stroke-linecap="round" stroke-linejoin="round"/>
<path d="M45.3359 178.981H196.467" stroke="#263238" stroke-linecap="round" stroke-linejoin="round"/>
<path d="M31.9785 178.981H38.8481" stroke="#263238" stroke-linecap="round" stroke-linejoin="round"/>
</svg>
