<svg width="799" height="887" viewBox="0 0 799 887" fill="none" xmlns="http://www.w3.org/2000/svg">
<rect width="799" height="887" fill="white"/>
<path d="M359.721 799.4H356.517L344.348 780.773V799.4H341.143V775.228H344.348L356.55 793.938V775.228H359.721V799.4ZM384.061 788.094C384.061 790.463 383.662 792.533 382.865 794.303C382.068 796.063 380.939 797.408 379.478 798.338C378.018 799.267 376.313 799.732 374.365 799.732C372.462 799.732 370.774 799.267 369.302 798.338C367.83 797.397 366.684 796.063 365.865 794.337C365.057 792.599 364.642 790.59 364.62 788.31V786.567C364.62 784.243 365.024 782.19 365.832 780.408C366.64 778.626 367.78 777.265 369.252 776.324C370.735 775.372 372.428 774.896 374.332 774.896C376.269 774.896 377.973 775.366 379.445 776.307C380.928 777.237 382.068 778.593 382.865 780.375C383.662 782.145 384.061 784.21 384.061 786.567V788.094ZM380.89 786.534C380.89 783.667 380.314 781.47 379.163 779.943C378.012 778.405 376.402 777.635 374.332 777.635C372.318 777.635 370.729 778.405 369.567 779.943C368.416 781.47 367.824 783.595 367.791 786.318V788.094C367.791 790.872 368.372 793.058 369.534 794.652C370.707 796.235 372.318 797.026 374.365 797.026C376.424 797.026 378.018 796.279 379.146 794.785C380.275 793.28 380.856 791.127 380.89 788.327V786.534ZM393.044 775.228L400.946 794.951L408.849 775.228H412.982V799.4H409.795V789.987L410.094 779.827L402.158 799.4H399.718L391.799 779.877L392.114 789.987V799.4H388.927V775.228H393.044ZM418.695 799.4V775.228H425.519C427.621 775.228 429.481 775.693 431.097 776.623C432.713 777.552 433.958 778.875 434.832 780.59C435.717 782.306 436.166 784.276 436.177 786.501V788.045C436.177 790.325 435.734 792.322 434.849 794.038C433.974 795.753 432.718 797.07 431.08 797.989C429.453 798.908 427.555 799.378 425.386 799.4H418.695ZM421.883 777.851V796.794H425.236C427.693 796.794 429.603 796.03 430.964 794.503C432.336 792.975 433.022 790.8 433.022 787.978V786.567C433.022 783.822 432.375 781.692 431.08 780.175C429.796 778.648 427.97 777.873 425.602 777.851H421.883ZM459.687 788.094C459.687 790.463 459.288 792.533 458.491 794.303C457.694 796.063 456.566 797.408 455.105 798.338C453.644 799.267 451.939 799.732 449.991 799.732C448.088 799.732 446.4 799.267 444.928 798.338C443.456 797.397 442.31 796.063 441.491 794.337C440.683 792.599 440.268 790.59 440.246 788.31V786.567C440.246 784.243 440.65 782.19 441.458 780.408C442.266 778.626 443.406 777.265 444.878 776.324C446.361 775.372 448.054 774.896 449.958 774.896C451.895 774.896 453.599 775.366 455.071 776.307C456.554 777.237 457.694 778.593 458.491 780.375C459.288 782.145 459.687 784.21 459.687 786.567V788.094ZM456.516 786.534C456.516 783.667 455.94 781.47 454.789 779.943C453.638 778.405 452.028 777.635 449.958 777.635C447.944 777.635 446.356 778.405 445.193 779.943C444.042 781.47 443.45 783.595 443.417 786.318V788.094C443.417 790.872 443.998 793.058 445.16 794.652C446.333 796.235 447.944 797.026 449.991 797.026C452.05 797.026 453.644 796.279 454.773 794.785C455.901 793.28 456.482 791.127 456.516 788.327V786.534Z" fill="#1E272E"/>
<path d="M306.359 826.181L311.007 837.783L315.656 826.181H318.087V840.4H316.212V834.863L316.388 828.886L311.72 840.4H310.285L305.626 828.916L305.812 834.863V840.4H303.937V826.181H306.359ZM327.668 840.4C327.564 840.192 327.479 839.821 327.414 839.287C326.574 840.159 325.572 840.595 324.406 840.595C323.365 840.595 322.509 840.302 321.838 839.716C321.174 839.124 320.842 838.375 320.842 837.47C320.842 836.37 321.259 835.517 322.092 834.912C322.932 834.3 324.11 833.994 325.627 833.994H327.385V833.164C327.385 832.532 327.196 832.031 326.819 831.66C326.441 831.282 325.884 831.093 325.149 831.093C324.504 831.093 323.964 831.256 323.528 831.582C323.091 831.907 322.873 832.301 322.873 832.763H321.057C321.057 832.236 321.242 831.728 321.614 831.24C321.991 830.745 322.499 830.354 323.137 830.068C323.781 829.782 324.488 829.638 325.256 829.638C326.474 829.638 327.427 829.944 328.117 830.556C328.808 831.162 329.166 831.998 329.192 833.066V837.929C329.192 838.899 329.315 839.671 329.563 840.244V840.4H327.668ZM324.67 839.023C325.237 839.023 325.774 838.877 326.281 838.584C326.789 838.291 327.157 837.91 327.385 837.441V835.273H325.969C323.755 835.273 322.649 835.921 322.649 837.216C322.649 837.783 322.837 838.226 323.215 838.545C323.593 838.864 324.078 839.023 324.67 839.023ZM335.003 835.507L333.87 836.689V840.4H332.063V825.4H333.87V834.472L334.837 833.31L338.128 829.834H340.325L336.214 834.248L340.804 840.4H338.685L335.003 835.507ZM346.41 840.595C344.978 840.595 343.812 840.127 342.914 839.189C342.015 838.245 341.566 836.985 341.566 835.41V835.078C341.566 834.03 341.765 833.095 342.162 832.275C342.565 831.448 343.125 830.804 343.841 830.341C344.564 829.873 345.345 829.638 346.185 829.638C347.559 829.638 348.627 830.091 349.388 830.996C350.15 831.901 350.531 833.196 350.531 834.882V835.634H343.373C343.399 836.676 343.702 837.519 344.281 838.164C344.867 838.802 345.609 839.121 346.508 839.121C347.146 839.121 347.686 838.991 348.129 838.73C348.571 838.47 348.959 838.125 349.291 837.695L350.394 838.554C349.509 839.915 348.181 840.595 346.41 840.595ZM346.185 831.123C345.456 831.123 344.844 831.39 344.349 831.923C343.855 832.451 343.549 833.193 343.431 834.15H348.724V834.013C348.672 833.095 348.425 832.386 347.982 831.884C347.539 831.377 346.94 831.123 346.185 831.123ZM362.271 833.32L365.982 826.181H368.11L363.208 835.097V840.4H361.333V835.097L356.431 826.181H358.579L362.271 833.32ZM368.57 835.019C368.57 833.984 368.772 833.053 369.176 832.226C369.586 831.399 370.152 830.761 370.875 830.312C371.604 829.863 372.434 829.638 373.365 829.638C374.804 829.638 375.966 830.136 376.851 831.132C377.743 832.129 378.189 833.453 378.189 835.107V835.234C378.189 836.263 377.991 837.187 377.594 838.007C377.203 838.821 376.64 839.456 375.904 839.912C375.175 840.367 374.335 840.595 373.385 840.595C371.952 840.595 370.79 840.097 369.898 839.101C369.013 838.105 368.57 836.787 368.57 835.146V835.019ZM370.387 835.234C370.387 836.406 370.657 837.347 371.197 838.056C371.744 838.766 372.473 839.121 373.385 839.121C374.303 839.121 375.032 838.763 375.572 838.047C376.112 837.324 376.383 836.315 376.383 835.019C376.383 833.86 376.106 832.923 375.553 832.207C375.006 831.484 374.277 831.123 373.365 831.123C372.473 831.123 371.754 831.477 371.207 832.187C370.66 832.897 370.387 833.912 370.387 835.234ZM387.008 839.355C386.305 840.182 385.273 840.595 383.913 840.595C382.786 840.595 381.927 840.27 381.335 839.619C380.749 838.961 380.452 837.991 380.446 836.709V829.834H382.253V836.66C382.253 838.261 382.904 839.062 384.206 839.062C385.586 839.062 386.504 838.548 386.96 837.519V829.834H388.766V840.4H387.047L387.008 839.355ZM396.658 831.455C396.384 831.409 396.088 831.386 395.769 831.386C394.584 831.386 393.78 831.891 393.357 832.9V840.4H391.55V829.834H393.308L393.337 831.054C393.93 830.11 394.769 829.638 395.857 829.638C396.208 829.638 396.475 829.684 396.658 829.775V831.455ZM414.569 833.75C414.569 835.143 414.335 836.36 413.866 837.402C413.397 838.437 412.733 839.228 411.874 839.775C411.014 840.322 410.012 840.595 408.866 840.595C407.746 840.595 406.753 840.322 405.887 839.775C405.022 839.222 404.348 838.437 403.866 837.422C403.391 836.399 403.147 835.218 403.134 833.877V832.851C403.134 831.484 403.371 830.276 403.846 829.228C404.322 828.18 404.992 827.379 405.858 826.826C406.731 826.266 407.727 825.986 408.846 825.986C409.986 825.986 410.988 826.263 411.854 826.816C412.727 827.363 413.397 828.16 413.866 829.209C414.335 830.25 414.569 831.464 414.569 832.851V833.75ZM412.704 832.832C412.704 831.145 412.365 829.853 411.688 828.955C411.011 828.05 410.064 827.597 408.846 827.597C407.662 827.597 406.727 828.05 406.044 828.955C405.367 829.853 405.018 831.103 404.999 832.705V833.75C404.999 835.384 405.341 836.67 406.024 837.607C406.714 838.538 407.662 839.004 408.866 839.004C410.077 839.004 411.014 838.564 411.678 837.685C412.343 836.8 412.684 835.533 412.704 833.886V832.832ZM426.484 837.91L428.515 829.834H430.322L427.246 840.4H425.781L423.212 832.392L420.712 840.4H419.248L416.181 829.834H417.978L420.058 837.744L422.519 829.834H423.974L426.484 837.91ZM433.906 829.834L433.965 831.162C434.772 830.146 435.827 829.638 437.129 829.638C439.362 829.638 440.488 830.898 440.508 833.418V840.4H438.701V833.408C438.695 832.646 438.519 832.083 438.174 831.718C437.835 831.354 437.305 831.172 436.582 831.172C435.996 831.172 435.482 831.328 435.039 831.64C434.597 831.953 434.251 832.363 434.004 832.871V840.4H432.197V829.834H433.906ZM450.412 834.834V840.4H448.537V826.181H453.781C455.337 826.181 456.554 826.578 457.433 827.373C458.319 828.167 458.761 829.218 458.761 830.527C458.761 831.907 458.328 832.972 457.462 833.72C456.603 834.463 455.369 834.834 453.761 834.834H450.412ZM450.412 833.3H453.781C454.783 833.3 455.552 833.066 456.086 832.597C456.619 832.122 456.886 831.438 456.886 830.547C456.886 829.7 456.619 829.023 456.086 828.515C455.552 828.007 454.819 827.744 453.888 827.724H450.412V833.3ZM462.864 840.4H461.057V825.4H462.864V840.4ZM472.317 840.4C472.213 840.192 472.129 839.821 472.064 839.287C471.224 840.159 470.221 840.595 469.056 840.595C468.014 840.595 467.158 840.302 466.487 839.716C465.823 839.124 465.491 838.375 465.491 837.47C465.491 836.37 465.908 835.517 466.741 834.912C467.581 834.3 468.759 833.994 470.276 833.994H472.034V833.164C472.034 832.532 471.845 832.031 471.468 831.66C471.09 831.282 470.534 831.093 469.798 831.093C469.153 831.093 468.613 831.256 468.177 831.582C467.741 831.907 467.522 832.301 467.522 832.763H465.706C465.706 832.236 465.892 831.728 466.263 831.24C466.64 830.745 467.148 830.354 467.786 830.068C468.431 829.782 469.137 829.638 469.905 829.638C471.123 829.638 472.077 829.944 472.767 830.556C473.457 831.162 473.815 831.998 473.841 833.066V837.929C473.841 838.899 473.965 839.671 474.212 840.244V840.4H472.317ZM469.319 839.023C469.886 839.023 470.423 838.877 470.931 838.584C471.439 838.291 471.806 837.91 472.034 837.441V835.273H470.618C468.405 835.273 467.298 835.921 467.298 837.216C467.298 837.783 467.487 838.226 467.864 838.545C468.242 838.864 468.727 839.023 469.319 839.023ZM478.412 829.834L478.47 831.162C479.278 830.146 480.332 829.638 481.635 829.638C483.868 829.638 484.994 830.898 485.013 833.418V840.4H483.207V833.408C483.2 832.646 483.024 832.083 482.679 831.718C482.341 831.354 481.81 831.172 481.088 831.172C480.502 831.172 479.987 831.328 479.545 831.64C479.102 831.953 478.757 832.363 478.51 832.871V840.4H476.703V829.834H478.412ZM493.92 837.597C493.92 837.109 493.735 836.731 493.364 836.464C492.999 836.191 492.358 835.957 491.44 835.761C490.528 835.566 489.803 835.332 489.262 835.058C488.728 834.785 488.331 834.459 488.071 834.082C487.817 833.704 487.69 833.255 487.69 832.734C487.69 831.868 488.054 831.136 488.784 830.537C489.519 829.938 490.457 829.638 491.596 829.638C492.794 829.638 493.764 829.948 494.506 830.566C495.255 831.185 495.629 831.976 495.629 832.939H493.813C493.813 832.444 493.601 832.018 493.178 831.66C492.762 831.302 492.234 831.123 491.596 831.123C490.939 831.123 490.424 831.266 490.053 831.552C489.682 831.839 489.497 832.213 489.497 832.675C489.497 833.112 489.669 833.44 490.014 833.662C490.359 833.883 490.981 834.095 491.879 834.297C492.784 834.498 493.517 834.739 494.077 835.019C494.637 835.299 495.05 835.638 495.317 836.035C495.59 836.425 495.727 836.904 495.727 837.47C495.727 838.414 495.349 839.173 494.594 839.746C493.839 840.312 492.859 840.595 491.655 840.595C490.808 840.595 490.06 840.446 489.409 840.146C488.758 839.847 488.247 839.43 487.875 838.896C487.511 838.356 487.329 837.773 487.329 837.148H489.135C489.168 837.754 489.409 838.235 489.858 838.593C490.314 838.945 490.913 839.121 491.655 839.121C492.338 839.121 492.885 838.984 493.295 838.711C493.712 838.431 493.92 838.06 493.92 837.597Z" fill="#485671"/>
<path d="M554.507 540.233C554.507 540.233 562.663 532.915 564.754 528.214C566.497 524.247 567.821 518.535 565.974 514.331C565.574 513.311 564.99 512.399 564.26 511.653C563.529 510.908 562.668 510.347 561.734 510.006C560.8 509.665 559.813 509.553 558.838 509.676C557.862 509.799 556.921 510.155 556.075 510.721C551.056 514.271 550.516 526.389 551.788 532.22C551.91 532.657 554.42 540.312 554.507 540.233Z" fill="#4ABDAC"/>
<path d="M479.101 601.28C479.45 601.617 485.253 606.417 485.288 606.298C485.322 606.179 488.546 595.072 488.006 589.836C487.553 585.394 485.88 579.92 482.273 577.46C481.445 576.857 480.515 576.46 479.543 576.295C478.572 576.129 477.58 576.2 476.634 576.501C475.688 576.803 474.808 577.329 474.053 578.044C473.298 578.76 472.684 579.649 472.252 580.653C469.83 586.762 475.25 597.214 479.101 601.28Z" fill="#4ABDAC"/>
<path d="M649.885 551.34C649.885 551.34 620.033 586.385 620.26 629.463C620.486 672.541 650.53 707.289 650.53 707.289C650.53 707.289 680.365 672.224 680.156 629.166C679.947 586.108 649.885 551.34 649.885 551.34Z" fill="#4ABDAC"/>
<path d="M607.398 655.247C607.798 654.768 608.159 654.25 608.479 653.699C610.657 649.951 612.505 644.497 611.11 640.034C610.819 638.966 610.331 637.979 609.681 637.14C609.03 636.301 608.231 635.628 607.336 635.165C606.44 634.703 605.469 634.461 604.486 634.456C603.502 634.45 602.529 634.682 601.63 635.136C597.587 637.317 595.6 644.715 595.165 650.764C593.544 650.328 592.098 650.011 590.843 649.773C590.303 648.404 589.762 647.036 589.222 645.627C588.682 644.219 588.229 642.751 587.706 641.304C586.991 639.162 586.347 636.901 585.702 634.64C588.054 633.45 594.938 629.781 597.5 626.568C600.062 623.355 602.728 618.158 601.909 613.497C601.761 612.392 601.41 611.335 600.879 610.395C600.347 609.456 599.647 608.654 598.824 608.044C598.002 607.433 597.075 607.028 596.105 606.853C595.135 606.679 594.143 606.74 593.195 607.032C587.532 609.015 584.203 620.459 584.081 626.468C584.081 626.667 584.168 627.936 584.29 629.443C583.715 627.222 583.14 625.001 582.635 622.74C581.171 616.294 579.864 609.67 578.522 603.045C578.243 601.657 577.947 600.288 577.668 598.9C579.655 597.908 587.131 594.021 589.867 590.649C592.603 587.278 595.095 582.24 594.293 577.579C594.146 576.474 593.795 575.417 593.263 574.477C592.732 573.537 592.032 572.736 591.209 572.126C590.386 571.515 589.459 571.109 588.489 570.935C587.519 570.761 586.528 570.822 585.58 571.114C579.916 573.097 576.57 584.541 576.466 590.55C576.466 590.768 576.57 592.296 576.71 593.981C575.925 590.392 575.124 586.822 574.235 583.311C572.72 577.281 570.857 571.371 568.658 565.62C569.355 565.283 578.208 560.919 581.188 557.171C583.837 553.839 586.416 548.761 585.615 544.101C585.467 542.996 585.116 541.939 584.585 540.999C584.053 540.059 583.353 539.258 582.53 538.647C581.708 538.037 580.781 537.631 579.811 537.456C578.841 537.282 577.849 537.343 576.901 537.635C571.237 539.618 567.909 551.062 567.787 557.072C567.787 557.508 568.223 563.022 568.432 565.005C568.439 564.939 568.439 564.873 568.432 564.807C566.145 559.216 563.427 553.866 560.311 548.821C557.55 544.308 554.559 539.984 551.353 535.87C548.408 532.002 545.498 528.67 542.919 525.755C541.507 524.188 540.2 522.78 538.945 521.491H539.085C539.189 521.491 536.314 513.974 536.087 513.557C533.438 508.361 525.631 500.091 519.863 501.519C518.908 501.782 518.012 502.273 517.235 502.958C516.459 503.644 515.818 504.508 515.356 505.495C514.893 506.482 514.619 507.57 514.552 508.686C514.485 509.802 514.626 510.921 514.966 511.971C516.255 516.473 520.647 519.527 524.376 520.995C528.106 522.463 536.575 521.768 538.597 521.55C539.869 522.919 541.211 524.406 542.657 526.092C545.167 529.067 548.007 532.459 550.848 536.366C551.615 537.397 552.399 538.567 553.183 539.658C551.528 538.111 549.245 536.028 549.001 535.85C544.539 532.617 534.275 529.364 529.726 533.668C528.977 534.403 528.373 535.311 527.956 536.331C527.538 537.352 527.317 538.461 527.305 539.587C527.293 540.713 527.493 541.828 527.889 542.859C528.285 543.891 528.87 544.814 529.604 545.568C532.584 548.9 537.708 549.297 541.612 548.643C545.515 547.988 552.956 542.792 554.525 541.641C556.268 544.12 557.906 546.699 559.509 549.575C562.499 554.622 565.082 559.965 567.229 565.54C567.351 565.878 567.438 566.215 567.56 566.552C566.863 565.62 562.716 560.84 562.332 560.602C558.202 556.834 548.391 552.312 543.372 556.02C542.564 556.659 541.884 557.484 541.377 558.442C540.869 559.401 540.546 560.47 540.427 561.581C540.309 562.692 540.398 563.818 540.689 564.887C540.98 565.956 541.467 566.942 542.117 567.782C544.748 571.471 549.82 572.502 553.758 572.343C558.289 572.145 567.229 567.008 567.578 566.81C569.581 572.432 571.264 578.196 572.614 584.065C573.642 588.408 574.514 592.851 575.368 597.313C574.427 596.143 570.575 591.701 570.261 591.363C566.149 587.595 556.32 583.093 551.318 586.782C550.51 587.418 549.828 588.243 549.319 589.2C548.81 590.158 548.485 591.227 548.365 592.338C548.244 593.449 548.332 594.576 548.622 595.645C548.912 596.715 549.397 597.702 550.046 598.543C552.695 602.232 557.749 603.263 561.687 603.105C566.114 602.926 574.705 598.047 575.437 597.631C575.803 599.614 576.204 601.597 576.57 603.72C577.773 610.364 578.958 617.048 580.299 623.553C580.77 625.814 581.31 628.035 581.833 630.257C580.387 628.531 577.703 625.457 577.441 625.219C573.329 621.451 563.5 616.948 558.498 620.637C557.689 621.274 557.008 622.098 556.499 623.056C555.99 624.013 555.665 625.082 555.544 626.193C555.424 627.304 555.512 628.431 555.802 629.501C556.092 630.57 556.577 631.558 557.226 632.399C559.875 636.088 564.929 637.119 568.867 636.96C572.806 636.802 580.125 632.875 582.164 631.744C583.07 635.433 584.029 639.063 585.127 642.593C585.615 644.1 586.05 645.667 586.608 647.095C586.887 647.849 587.166 648.602 587.427 649.356C586.695 649.257 586.294 649.237 586.294 649.237C586.248 651.076 586.283 652.916 586.399 654.751C582.042 651.22 575.786 648.186 571.708 650.328C570.825 650.819 570.044 651.518 569.415 652.377C568.787 653.237 568.325 654.238 568.06 655.314C567.795 656.391 567.733 657.52 567.878 658.626C568.023 659.732 568.372 660.79 568.902 661.732C569.164 662.239 569.468 662.717 569.808 663.16C570.585 668.367 572.516 673.261 575.42 677.38C575.646 677.678 578.609 680.772 580.143 682.319L575.629 679.522C573.416 678.114 571.115 676.547 568.885 675.06L565.399 672.561C564.214 671.748 563.169 670.796 562.036 669.903C560.398 668.555 558.777 667.087 557.139 665.599C558.533 663.12 562.489 655.683 563.064 651.458C563.639 647.234 563.326 641.185 560.415 637.793C559.761 636.949 558.957 636.273 558.055 635.81C557.154 635.347 556.176 635.107 555.187 635.107C554.198 635.107 553.221 635.347 552.319 635.81C551.418 636.273 550.613 636.949 549.959 637.793C546.177 642.95 548.983 654.651 551.702 659.729C551.789 659.887 552.486 660.899 553.322 662.069C551.771 660.582 550.203 659.094 548.687 657.527C544.348 653.065 539.973 648.364 535.721 643.644L533.125 640.709C534.292 638.626 538.649 630.673 539.241 626.171C539.834 621.669 539.52 615.897 536.593 612.506C535.938 611.662 535.134 610.985 534.232 610.522C533.331 610.059 532.353 609.82 531.364 609.82C530.375 609.82 529.398 610.059 528.496 610.522C527.595 610.985 526.79 611.662 526.136 612.506C522.337 617.662 525.143 629.364 527.966 634.441C528.071 634.64 528.89 635.83 529.831 637.158C527.443 634.64 525.038 632.18 522.599 629.82C518.414 625.736 513.995 621.972 509.372 618.555C509.79 617.821 515.053 608.638 515.732 603.62C516.325 599.198 515.994 593.347 513.084 589.955C512.429 589.111 511.625 588.435 510.723 587.972C509.822 587.509 508.844 587.269 507.855 587.269C506.866 587.269 505.889 587.509 504.987 587.972C504.086 588.435 503.281 589.111 502.627 589.955C498.846 595.112 501.651 606.814 504.457 611.891C504.666 612.268 507.681 616.572 508.814 618.059L508.657 617.94C504.044 614.709 499.185 611.954 494.14 609.709C489.645 607.677 485.048 605.949 480.373 604.533C476.051 603.144 472.026 602.192 468.453 601.399C466.519 600.963 464.724 600.626 463.068 600.328H463.173C463.26 600.328 457.23 595.806 456.812 595.568C452.089 592.91 441.581 590.907 437.45 595.727C436.783 596.546 436.275 597.516 435.96 598.574C435.645 599.632 435.529 600.754 435.622 601.866C435.714 602.978 436.011 604.055 436.495 605.028C436.978 606 437.636 606.845 438.426 607.508C441.703 610.463 446.826 610.245 450.625 609.134C454.424 608.023 461.081 602.153 462.824 600.665C464.567 601.022 466.309 601.419 468.401 601.915C471.886 602.807 475.947 603.898 480.234 605.326C481.366 605.723 482.586 606.199 483.719 606.635C481.593 606.377 478.665 606.06 478.369 606.06C473.141 606.179 462.964 609.908 461.238 616.353C460.981 617.429 460.927 618.555 461.078 619.657C461.229 620.758 461.583 621.811 462.115 622.747C462.648 623.683 463.348 624.48 464.17 625.087C464.992 625.694 465.917 626.097 466.885 626.27C470.98 627.182 475.459 624.287 478.386 621.292C481.314 618.297 485.009 609.293 485.775 607.409C488.372 608.4 491.004 609.511 493.757 610.84C498.69 613.182 503.431 616.016 507.925 619.309L508.692 619.943C507.664 619.606 501.878 618.238 501.477 618.178C496.249 617.643 485.793 620.161 483.458 626.27C483.094 627.308 482.927 628.421 482.968 629.537C483.008 630.653 483.255 631.746 483.693 632.746C484.131 633.746 484.749 634.629 485.507 635.338C486.265 636.047 487.147 636.566 488.093 636.861C492.084 638.289 496.807 635.968 500.013 633.37C503.708 630.356 508.727 620.459 508.866 620.082C513.266 623.507 517.463 627.257 521.431 631.308C524.394 634.283 527.269 637.436 530.145 640.629C528.803 640.233 523.418 638.963 523.034 638.924C517.806 638.368 507.35 640.808 505.015 646.996C504.649 648.036 504.48 649.152 504.52 650.271C504.56 651.391 504.808 652.488 505.248 653.49C505.688 654.493 506.309 655.378 507.07 656.087C507.832 656.797 508.718 657.315 509.668 657.607C513.641 659.015 518.381 656.714 521.57 654.096C525.178 651.161 529.988 641.7 530.389 640.907L534.292 645.27C538.51 650.05 542.744 654.87 547.031 659.491C548.513 661.077 550.029 662.605 551.545 664.132C549.506 663.596 545.777 662.724 545.445 662.684C540.217 662.129 529.761 664.568 527.426 670.756C527.06 671.796 526.891 672.912 526.931 674.032C526.971 675.151 527.219 676.248 527.659 677.251C528.099 678.253 528.72 679.138 529.482 679.848C530.243 680.557 531.129 681.075 532.079 681.367C536.07 682.775 540.792 680.474 543.999 677.856C547.206 675.238 551.405 667.384 552.556 665.143C555.083 667.662 557.644 670.082 560.276 672.343C561.426 673.295 562.541 674.326 563.761 675.179L567.159 677.757C569.53 679.423 571.725 680.99 573.973 682.478L577.285 684.659C575.28 683.767 572.056 682.418 571.795 682.339C566.672 680.891 556.111 681.506 552.922 687.218C552.422 688.181 552.106 689.254 551.996 690.366C551.886 691.478 551.984 692.604 552.284 693.67C552.584 694.736 553.078 695.717 553.734 696.55C554.391 697.383 555.195 698.049 556.093 698.503C559.84 700.486 564.807 699.118 568.292 697.095C572.161 694.854 577.999 686.643 578.748 685.631C581.45 687.376 584.116 689.062 586.625 690.589C593.317 694.675 599.173 697.928 603.704 700.347C618.43 714.846 639.185 716.452 639.185 716.452C639.185 716.452 640.283 688.17 625.644 669.566C620.562 663.324 614.332 658.435 607.398 655.247V655.247ZM581.084 682.815C581.554 681.664 585.074 672.68 585.318 667.603C586.138 667.444 586.974 667.246 587.758 667.027C589.27 675.962 592.391 684.444 596.925 691.938C594.241 690.49 591.331 688.864 588.211 687.099C585.963 685.71 583.558 684.322 581.084 682.815V682.815Z" fill="#4ABDAC"/>
<path d="M716.108 649.832C716.108 649.832 691.258 650.705 676.026 668.694C660.795 686.682 660.987 714.984 660.987 714.984C660.987 714.984 685.855 714.132 701.069 696.123C716.283 678.114 716.108 649.832 716.108 649.832Z" fill="#4ABDAC"/>
<g opacity="0.5">
<path opacity="0.5" d="M554.507 540.233C554.507 540.233 562.663 532.915 564.754 528.214C566.497 524.247 567.821 518.535 565.974 514.331C565.574 513.311 564.99 512.399 564.26 511.653C563.529 510.908 562.668 510.347 561.734 510.006C560.8 509.665 559.813 509.553 558.838 509.676C557.862 509.799 556.921 510.155 556.075 510.721C551.056 514.271 550.516 526.389 551.788 532.22C551.91 532.657 554.42 540.312 554.507 540.233Z" fill="white"/>
<path opacity="0.5" d="M479.101 601.28C479.45 601.617 485.253 606.417 485.288 606.298C485.322 606.179 488.546 595.072 488.006 589.836C487.553 585.394 485.88 579.92 482.273 577.46C481.445 576.857 480.515 576.46 479.543 576.295C478.572 576.129 477.58 576.2 476.634 576.501C475.688 576.803 474.808 577.329 474.053 578.044C473.298 578.76 472.684 579.649 472.252 580.653C469.83 586.762 475.25 597.214 479.101 601.28Z" fill="white"/>
<path opacity="0.5" d="M649.885 551.34C649.885 551.34 620.033 586.385 620.26 629.463C620.486 672.541 650.53 707.289 650.53 707.289C650.53 707.289 680.365 672.224 680.156 629.166C679.947 586.108 649.885 551.34 649.885 551.34Z" fill="white"/>
<path opacity="0.5" d="M607.398 655.247C607.798 654.768 608.159 654.25 608.479 653.699C610.657 649.951 612.505 644.497 611.11 640.034C610.819 638.966 610.331 637.979 609.681 637.14C609.03 636.301 608.231 635.628 607.336 635.165C606.44 634.703 605.469 634.461 604.486 634.456C603.502 634.45 602.529 634.682 601.63 635.136C597.587 637.317 595.6 644.715 595.165 650.764C593.544 650.328 592.098 650.011 590.843 649.773C590.303 648.404 589.762 647.036 589.222 645.627C588.682 644.219 588.229 642.751 587.706 641.304C586.991 639.162 586.347 636.901 585.702 634.64C588.054 633.45 594.938 629.781 597.5 626.568C600.062 623.355 602.728 618.158 601.909 613.497C601.761 612.392 601.41 611.335 600.879 610.395C600.347 609.456 599.647 608.654 598.824 608.044C598.002 607.433 597.075 607.028 596.105 606.853C595.135 606.679 594.143 606.74 593.195 607.032C587.532 609.015 584.203 620.459 584.081 626.468C584.081 626.667 584.168 627.936 584.29 629.443C583.715 627.222 583.14 625.001 582.635 622.74C581.171 616.294 579.864 609.67 578.522 603.045C578.243 601.657 577.947 600.288 577.668 598.9C579.655 597.908 587.131 594.021 589.867 590.649C592.603 587.278 595.095 582.24 594.293 577.579C594.146 576.474 593.795 575.417 593.263 574.477C592.732 573.537 592.032 572.736 591.209 572.126C590.386 571.515 589.459 571.109 588.489 570.935C587.519 570.761 586.528 570.822 585.58 571.114C579.916 573.097 576.57 584.541 576.466 590.55C576.466 590.768 576.57 592.296 576.71 593.981C575.925 590.392 575.124 586.822 574.235 583.311C572.72 577.281 570.857 571.371 568.658 565.62C569.355 565.283 578.208 560.919 581.188 557.171C583.837 553.839 586.416 548.761 585.615 544.101C585.467 542.996 585.116 541.939 584.585 540.999C584.053 540.059 583.353 539.258 582.53 538.647C581.708 538.037 580.781 537.631 579.811 537.456C578.841 537.282 577.849 537.343 576.901 537.635C571.237 539.618 567.909 551.062 567.787 557.072C567.787 557.508 568.223 563.022 568.432 565.005C568.439 564.939 568.439 564.873 568.432 564.807C566.145 559.216 563.427 553.866 560.311 548.821C557.55 544.308 554.559 539.984 551.353 535.87C548.408 532.002 545.498 528.67 542.919 525.755C541.507 524.188 540.2 522.78 538.945 521.491H539.085C539.189 521.491 536.314 513.974 536.087 513.557C533.438 508.361 525.631 500.091 519.863 501.519C518.908 501.782 518.012 502.273 517.235 502.958C516.459 503.644 515.818 504.508 515.356 505.495C514.893 506.482 514.619 507.57 514.552 508.686C514.485 509.802 514.626 510.921 514.966 511.971C516.255 516.473 520.647 519.527 524.376 520.995C528.106 522.463 536.575 521.768 538.597 521.55C539.869 522.919 541.211 524.406 542.657 526.092C545.167 529.067 548.007 532.459 550.848 536.366C551.615 537.397 552.399 538.567 553.183 539.658C551.528 538.111 549.245 536.028 549.001 535.85C544.539 532.617 534.275 529.364 529.726 533.668C528.977 534.403 528.373 535.311 527.956 536.331C527.538 537.352 527.317 538.461 527.305 539.587C527.293 540.713 527.493 541.828 527.889 542.859C528.285 543.891 528.87 544.814 529.604 545.568C532.584 548.9 537.708 549.297 541.612 548.643C545.515 547.988 552.956 542.792 554.525 541.641C556.268 544.12 557.906 546.699 559.509 549.575C562.499 554.622 565.082 559.965 567.229 565.54C567.351 565.878 567.438 566.215 567.56 566.552C566.863 565.62 562.716 560.84 562.332 560.602C558.202 556.834 548.391 552.312 543.372 556.02C542.564 556.659 541.884 557.484 541.377 558.442C540.869 559.401 540.546 560.47 540.427 561.581C540.309 562.692 540.398 563.818 540.689 564.887C540.98 565.956 541.467 566.942 542.117 567.782C544.748 571.471 549.82 572.502 553.758 572.343C558.289 572.145 567.229 567.008 567.578 566.81C569.581 572.432 571.264 578.196 572.614 584.065C573.642 588.408 574.514 592.851 575.368 597.313C574.427 596.143 570.575 591.701 570.261 591.363C566.149 587.595 556.32 583.093 551.318 586.782C550.51 587.418 549.828 588.243 549.319 589.2C548.81 590.158 548.485 591.227 548.365 592.338C548.244 593.449 548.332 594.576 548.622 595.645C548.912 596.715 549.397 597.702 550.046 598.543C552.695 602.232 557.749 603.263 561.687 603.105C566.114 602.926 574.705 598.047 575.437 597.631C575.803 599.614 576.204 601.597 576.57 603.72C577.773 610.364 578.958 617.048 580.299 623.553C580.77 625.814 581.31 628.035 581.833 630.257C580.387 628.531 577.703 625.457 577.441 625.219C573.329 621.451 563.5 616.948 558.498 620.637C557.689 621.274 557.008 622.098 556.499 623.056C555.99 624.013 555.665 625.082 555.544 626.193C555.424 627.304 555.512 628.431 555.802 629.501C556.092 630.57 556.577 631.558 557.226 632.399C559.875 636.088 564.929 637.119 568.867 636.96C572.806 636.802 580.125 632.875 582.164 631.744C583.07 635.433 584.029 639.063 585.127 642.593C585.615 644.1 586.05 645.667 586.608 647.095C586.887 647.849 587.166 648.602 587.427 649.356C586.695 649.257 586.294 649.237 586.294 649.237C586.248 651.076 586.283 652.916 586.399 654.751C582.042 651.22 575.786 648.186 571.708 650.328C570.825 650.819 570.044 651.518 569.415 652.377C568.787 653.237 568.325 654.238 568.06 655.314C567.795 656.391 567.733 657.52 567.878 658.626C568.023 659.732 568.372 660.79 568.902 661.732C569.164 662.239 569.468 662.717 569.808 663.16C570.585 668.367 572.516 673.261 575.42 677.38C575.646 677.678 578.609 680.772 580.143 682.319L575.629 679.522C573.416 678.114 571.115 676.547 568.885 675.06L565.399 672.561C564.214 671.748 563.169 670.796 562.036 669.903C560.398 668.555 558.777 667.087 557.139 665.599C558.533 663.12 562.489 655.683 563.064 651.458C563.639 647.234 563.326 641.185 560.415 637.793C559.761 636.949 558.957 636.273 558.055 635.81C557.154 635.347 556.176 635.107 555.187 635.107C554.198 635.107 553.221 635.347 552.319 635.81C551.418 636.273 550.613 636.949 549.959 637.793C546.177 642.95 548.983 654.651 551.702 659.729C551.789 659.887 552.486 660.899 553.322 662.069C551.771 660.582 550.203 659.094 548.687 657.527C544.348 653.065 539.973 648.364 535.721 643.644L533.125 640.709C534.292 638.626 538.649 630.673 539.241 626.171C539.834 621.669 539.52 615.897 536.593 612.506C535.938 611.662 535.134 610.985 534.232 610.522C533.331 610.059 532.353 609.82 531.364 609.82C530.375 609.82 529.398 610.059 528.496 610.522C527.595 610.985 526.79 611.662 526.136 612.506C522.337 617.662 525.143 629.364 527.966 634.441C528.071 634.64 528.89 635.83 529.831 637.158C527.443 634.64 525.038 632.18 522.599 629.82C518.414 625.736 513.995 621.972 509.372 618.555C509.79 617.821 515.053 608.638 515.732 603.62C516.325 599.198 515.994 593.347 513.084 589.955C512.429 589.111 511.625 588.435 510.723 587.972C509.822 587.509 508.844 587.269 507.855 587.269C506.866 587.269 505.889 587.509 504.987 587.972C504.086 588.435 503.281 589.111 502.627 589.955C498.846 595.112 501.651 606.814 504.457 611.891C504.666 612.268 507.681 616.572 508.814 618.059L508.657 617.94C504.044 614.709 499.185 611.954 494.14 609.709C489.645 607.677 485.048 605.949 480.373 604.533C476.051 603.144 472.026 602.192 468.453 601.399C466.519 600.963 464.724 600.626 463.068 600.328H463.173C463.26 600.328 457.23 595.806 456.812 595.568C452.089 592.91 441.581 590.907 437.45 595.727C436.783 596.546 436.275 597.516 435.96 598.574C435.645 599.632 435.529 600.754 435.622 601.866C435.714 602.978 436.011 604.055 436.495 605.028C436.978 606 437.636 606.845 438.426 607.508C441.703 610.463 446.826 610.245 450.625 609.134C454.424 608.023 461.081 602.153 462.824 600.665C464.567 601.022 466.309 601.419 468.401 601.915C471.886 602.807 475.947 603.898 480.234 605.326C481.366 605.723 482.586 606.199 483.719 606.635C481.593 606.377 478.665 606.06 478.369 606.06C473.141 606.179 462.964 609.908 461.238 616.353C460.981 617.429 460.927 618.555 461.078 619.657C461.229 620.758 461.583 621.811 462.115 622.747C462.648 623.683 463.348 624.48 464.17 625.087C464.992 625.694 465.917 626.097 466.885 626.27C470.98 627.182 475.459 624.287 478.386 621.292C481.314 618.297 485.009 609.293 485.775 607.409C488.372 608.4 491.004 609.511 493.757 610.84C498.69 613.182 503.431 616.016 507.925 619.309L508.692 619.943C507.664 619.606 501.878 618.238 501.477 618.178C496.249 617.643 485.793 620.161 483.458 626.27C483.094 627.308 482.927 628.421 482.968 629.537C483.008 630.653 483.255 631.746 483.693 632.746C484.131 633.746 484.749 634.629 485.507 635.338C486.265 636.047 487.147 636.566 488.093 636.861C492.084 638.289 496.807 635.968 500.013 633.37C503.708 630.356 508.727 620.459 508.866 620.082C513.266 623.507 517.463 627.257 521.431 631.308C524.394 634.283 527.269 637.436 530.145 640.629C528.803 640.233 523.418 638.963 523.034 638.924C517.806 638.368 507.35 640.808 505.015 646.996C504.649 648.036 504.48 649.152 504.52 650.271C504.56 651.391 504.808 652.488 505.248 653.49C505.688 654.493 506.309 655.378 507.07 656.087C507.832 656.797 508.718 657.315 509.668 657.607C513.641 659.015 518.381 656.714 521.57 654.096C525.178 651.161 529.988 641.7 530.389 640.907L534.292 645.27C538.51 650.05 542.744 654.87 547.031 659.491C548.513 661.077 550.029 662.605 551.545 664.132C549.506 663.596 545.777 662.724 545.445 662.684C540.217 662.129 529.761 664.568 527.426 670.756C527.06 671.796 526.891 672.912 526.931 674.032C526.971 675.151 527.219 676.248 527.659 677.251C528.099 678.253 528.72 679.138 529.482 679.848C530.243 680.557 531.129 681.075 532.079 681.367C536.07 682.775 540.792 680.474 543.999 677.856C547.206 675.238 551.405 667.384 552.556 665.143C555.083 667.662 557.644 670.082 560.276 672.343C561.426 673.295 562.541 674.326 563.761 675.179L567.159 677.757C569.53 679.423 571.725 680.99 573.973 682.478L577.285 684.659C575.28 683.767 572.056 682.418 571.795 682.339C566.672 680.891 556.111 681.506 552.922 687.218C552.422 688.181 552.106 689.254 551.996 690.366C551.886 691.478 551.984 692.604 552.284 693.67C552.584 694.736 553.078 695.717 553.734 696.55C554.391 697.383 555.195 698.049 556.093 698.503C559.84 700.486 564.807 699.118 568.292 697.095C572.161 694.854 577.999 686.643 578.748 685.631C581.45 687.376 584.116 689.062 586.625 690.589C593.317 694.675 599.173 697.928 603.704 700.347C618.43 714.846 639.185 716.452 639.185 716.452C639.185 716.452 640.283 688.17 625.644 669.566C620.562 663.324 614.332 658.435 607.398 655.247V655.247ZM581.084 682.815C581.554 681.664 585.074 672.68 585.318 667.603C586.138 667.444 586.974 667.246 587.758 667.027C589.27 675.962 592.391 684.444 596.925 691.938C594.241 690.49 591.331 688.864 588.211 687.099C585.963 685.71 583.558 684.322 581.084 682.815V682.815Z" fill="white"/>
<path opacity="0.5" d="M716.108 649.832C716.108 649.832 691.258 650.705 676.026 668.694C660.795 686.682 660.987 714.984 660.987 714.984C660.987 714.984 685.855 714.132 701.069 696.123C716.283 678.114 716.108 649.832 716.108 649.832Z" fill="white"/>
</g>
<path d="M651.193 668.059L675.591 643.089L674.545 641.76L651.175 665.679L651.053 632.934L651.175 633.033L671.826 598.682L670.537 597.67L651.036 630.118L650.74 551.32L649.171 551.34L649.38 604.81L633.835 589.499L632.807 590.848L649.38 607.17L649.52 645.409L625.958 621.688L624.93 623.017L649.537 647.789L649.677 682.597L631.953 666.789L630.995 668.198L649.677 684.877L649.764 707.289H651.332L651.175 668.059H651.193Z" fill="white"/>
<path d="M628.694 677.698L627.125 677.499L625.156 697.293L614.683 683.965L614.7 683.945L612.034 660.007L610.483 660.225L612.87 681.645L586.817 648.503L585.632 649.673L603.32 672.184L592.132 672.323L592.15 674.108L604.697 673.929L617.105 689.717L599.591 689.737L599.608 691.522L618.499 691.502L629.774 705.841L617.436 706.674L617.523 708.459L631.116 707.527L638.61 717.087L639.777 715.897L626.568 699.078L628.694 677.698Z" fill="white"/>
<path d="M687.684 684.758L708.475 679.959L708.161 678.213L689.566 682.497L716.665 650.467L715.55 649.217L697.147 670.974L696.189 658.281L694.62 658.42L695.718 672.68L682.822 687.912L681.498 668.059L679.929 668.198L681.358 689.637L669.63 703.501L667.974 689.558L666.423 689.796L668.253 705.147L660.446 714.37L661.561 715.599L675.328 699.356L694.202 700.169L694.254 698.384L676.775 697.63L687.684 684.739V684.758Z" fill="white"/>
<path d="M220.92 141.604L213.792 118.319H98.2686V141.604V159.929V457.489H481.262V141.604H220.92Z" fill="#4ABDAC" stroke="#2E353A" stroke-miterlimit="10"/>
<path d="M474.082 172.484H105.431V438.151H474.082V172.484Z" fill="white" stroke="#2E353A" stroke-miterlimit="10"/>
<path d="M404.025 150.41H220.868V163.162H404.025V150.41Z" fill="white" stroke="#2E353A" stroke-miterlimit="10"/>
<path d="M114.301 148.367L109.021 154.158L114.493 160.842" stroke="#2E353A" stroke-linecap="round" stroke-linejoin="round"/>
<path d="M109.003 154.158H120.749" stroke="#2E353A" stroke-linecap="round" stroke-linejoin="round"/>
<path d="M144.242 148.367L149.522 154.158L144.05 160.842" stroke="#2E353A" stroke-linecap="round" stroke-linejoin="round"/>
<path d="M149.522 154.158H137.793" stroke="#2E353A" stroke-linecap="round" stroke-linejoin="round"/>
<path d="M174.755 153.365C174.422 152.019 173.72 150.83 172.751 149.97C171.783 149.111 170.598 148.625 169.371 148.585C168.547 148.615 167.742 148.866 167.02 149.317C166.298 149.768 165.68 150.407 165.217 151.182C164.753 151.956 164.456 152.845 164.352 153.774C164.247 154.704 164.336 155.649 164.613 156.532C164.89 157.414 165.346 158.21 165.945 158.854C166.543 159.499 167.267 159.973 168.056 160.238C168.846 160.504 169.68 160.553 170.49 160.382C171.3 160.211 172.063 159.825 172.717 159.255" stroke="#2E353A" stroke-linecap="round" stroke-linejoin="round"/>
<path d="M171.201 154.059H175.313V148.486" stroke="#2E353A" stroke-linecap="round" stroke-linejoin="round"/>
<path d="M202.76 152.075L197.881 147.593L193.245 152.075V161.853H202.76V152.075Z" stroke="#2E353A" stroke-linecap="round" stroke-linejoin="round"/>
<path d="M199.728 154.713H196.016V161.496H199.728V154.713Z" fill="#2E353A"/>
<path d="M193.246 152.075L190.458 154.991" stroke="#2E353A" stroke-linecap="round" stroke-linejoin="round"/>
<path d="M202.761 152.075L205.375 154.733" stroke="#2E353A" stroke-linecap="round" stroke-linejoin="round"/>
<path d="M201 130.378L208.424 139.085" stroke="#2E353A" stroke-linecap="round" stroke-linejoin="round"/>
<path d="M208.529 130.517L200.879 138.966" stroke="#2E353A" stroke-linecap="round" stroke-linejoin="round"/>
<path d="M454.668 152.73H469.359" stroke="#2E353A" stroke-linecap="round" stroke-linejoin="round"/>
<path d="M454.668 156.518H469.359" stroke="#2E353A" stroke-linecap="round" stroke-linejoin="round"/>
<path d="M454.668 160.286H469.359" stroke="#2E353A" stroke-linecap="round" stroke-linejoin="round"/>
<path d="M454.668 164.055H469.359" stroke="#2E353A" stroke-linecap="round" stroke-linejoin="round"/>
<path d="M385.848 74.9437L378.721 51.6594H263.197V74.9437V93.2697V390.829H646.19V74.9437H385.848Z" fill="#4ABDAC" stroke="#2E353A" stroke-miterlimit="10"/>
<path d="M639.029 105.824H270.378V371.491H639.029V105.824Z" fill="white" stroke="#2E353A" stroke-miterlimit="10"/>
<path d="M568.955 83.7498H385.797V96.5026H568.955V83.7498Z" fill="white" stroke="#2E353A" stroke-miterlimit="10"/>
<path d="M279.231 81.7069L273.95 87.4982L279.44 94.1821" stroke="#2E353A" stroke-linecap="round" stroke-linejoin="round"/>
<path d="M273.95 87.4983H285.696" stroke="#2E353A" stroke-linecap="round" stroke-linejoin="round"/>
<path d="M309.188 81.7069L314.468 87.4982L308.979 94.1821" stroke="#2E353A" stroke-linecap="round" stroke-linejoin="round"/>
<path d="M314.468 87.4983H302.722" stroke="#2E353A" stroke-linecap="round" stroke-linejoin="round"/>
<path d="M339.685 86.7446C339.352 85.3971 338.651 84.2053 337.683 83.3422C336.714 82.4791 335.53 81.9897 334.3 81.9449C333.477 81.9748 332.672 82.2256 331.95 82.6769C331.228 83.1282 330.61 83.7672 330.146 84.5418C329.682 85.3164 329.386 86.2048 329.281 87.1345C329.176 88.0642 329.266 89.009 329.543 89.8918C329.82 90.7746 330.276 91.5705 330.874 92.2146C331.473 92.8587 332.196 93.3328 332.986 93.5983C333.776 93.8638 334.61 93.9131 335.42 93.7423C336.229 93.5714 336.992 93.1853 337.646 92.6153" stroke="#2E353A" stroke-linecap="round" stroke-linejoin="round"/>
<path d="M336.147 87.3991H340.243V81.8259" stroke="#2E353A" stroke-linecap="round" stroke-linejoin="round"/>
<path d="M367.69 85.4157L362.81 80.9333L358.175 85.4157V95.1935H367.69V85.4157Z" stroke="#2E353A" stroke-linecap="round" stroke-linejoin="round"/>
<path d="M364.675 88.0536H360.963V94.8366H364.675V88.0536Z" fill="#2E353A"/>
<path d="M358.174 85.4158L355.386 88.3313" stroke="#2E353A" stroke-linecap="round" stroke-linejoin="round"/>
<path d="M367.689 85.4158L370.303 88.0734" stroke="#2E353A" stroke-linecap="round" stroke-linejoin="round"/>
<path d="M365.93 63.7181L373.354 72.425" stroke="#2E353A" stroke-linecap="round" stroke-linejoin="round"/>
<path d="M373.476 63.8569L365.825 72.3059" stroke="#2E353A" stroke-linecap="round" stroke-linejoin="round"/>
<path d="M619.615 86.0901H634.288" stroke="#2E353A" stroke-linecap="round" stroke-linejoin="round"/>
<path d="M619.615 89.8584H634.288" stroke="#2E353A" stroke-linecap="round" stroke-linejoin="round"/>
<path d="M619.615 93.6267H634.288" stroke="#2E353A" stroke-linecap="round" stroke-linejoin="round"/>
<path d="M619.615 97.395H634.288" stroke="#2E353A" stroke-linecap="round" stroke-linejoin="round"/>
<path d="M475.249 170.818L468.104 147.534H352.598V170.818V189.124V486.703H735.574V170.818H475.249Z" fill="#4ABDAC" stroke="#2E353A" stroke-miterlimit="10"/>
<path d="M728.411 201.698H359.761V467.366H728.411V201.698Z" fill="white" stroke="#2E353A" stroke-miterlimit="10"/>
<path d="M658.337 179.604H475.18V192.357H658.337V179.604Z" fill="white" stroke="#2E353A" stroke-miterlimit="10"/>
<path d="M368.613 177.561L363.333 183.372L368.822 190.036" stroke="#2E353A" stroke-linecap="round" stroke-linejoin="round"/>
<path d="M363.333 183.372H375.079" stroke="#2E353A" stroke-linecap="round" stroke-linejoin="round"/>
<path d="M398.571 177.561L403.851 183.372L398.379 190.036" stroke="#2E353A" stroke-linecap="round" stroke-linejoin="round"/>
<path d="M403.851 183.372H392.105" stroke="#2E353A" stroke-linecap="round" stroke-linejoin="round"/>
<path d="M429.085 182.579C428.752 181.234 428.05 180.045 427.081 179.185C426.113 178.325 424.928 177.84 423.7 177.799C422.3 177.799 420.957 178.432 419.967 179.559C418.976 180.686 418.42 182.215 418.42 183.809C418.42 185.403 418.976 186.931 419.967 188.058C420.957 189.185 422.3 189.818 423.7 189.818C424.92 189.827 426.103 189.35 427.046 188.47" stroke="#2E353A" stroke-linecap="round" stroke-linejoin="round"/>
<path d="M425.53 183.253H429.643V177.7" stroke="#2E353A" stroke-linecap="round" stroke-linejoin="round"/>
<path d="M457.073 181.29L452.194 176.788L447.558 181.29V191.068H457.073V181.29Z" stroke="#2E353A" stroke-linecap="round" stroke-linejoin="round"/>
<path d="M454.059 183.928H450.347V190.711H454.059V183.928Z" fill="#2E353A"/>
<path d="M447.558 181.29L444.77 184.186" stroke="#2E353A" stroke-linecap="round" stroke-linejoin="round"/>
<path d="M457.073 181.29L459.705 183.928" stroke="#2E353A" stroke-linecap="round" stroke-linejoin="round"/>
<path d="M455.313 159.592L462.737 168.299" stroke="#2E353A" stroke-linecap="round" stroke-linejoin="round"/>
<path d="M462.859 159.711L455.209 168.16" stroke="#2E353A" stroke-linecap="round" stroke-linejoin="round"/>
<path d="M708.998 181.944H723.689" stroke="#2E353A" stroke-linecap="round" stroke-linejoin="round"/>
<path d="M708.998 185.713H723.689" stroke="#2E353A" stroke-linecap="round" stroke-linejoin="round"/>
<path d="M708.998 189.481H723.689" stroke="#2E353A" stroke-linecap="round" stroke-linejoin="round"/>
<path d="M708.998 193.249H723.689" stroke="#2E353A" stroke-linecap="round" stroke-linejoin="round"/>
<path d="M416.016 336.624H492.834" stroke="#2E353A" stroke-linecap="round" stroke-linejoin="round"/>
<path d="M416.016 347.929H492.834" stroke="#2E353A" stroke-linecap="round" stroke-linejoin="round"/>
<path d="M416.016 359.215H492.834" stroke="#2E353A" stroke-linecap="round" stroke-linejoin="round"/>
<path d="M416.016 370.5H492.834" stroke="#2E353A" stroke-linecap="round" stroke-linejoin="round"/>
<path d="M416.016 381.785H492.834" stroke="#2E353A" stroke-linecap="round" stroke-linejoin="round"/>
<path d="M416.016 393.09H492.834" stroke="#2E353A" stroke-linecap="round" stroke-linejoin="round"/>
<path d="M416.016 404.375H492.834" stroke="#2E353A" stroke-linecap="round" stroke-linejoin="round"/>
<path d="M416.016 415.66H492.834" stroke="#2E353A" stroke-linecap="round" stroke-linejoin="round"/>
<path d="M416.016 426.945H492.834" stroke="#2E353A" stroke-linecap="round" stroke-linejoin="round"/>
<path d="M506.356 336.624H583.157" stroke="#2E353A" stroke-linecap="round" stroke-linejoin="round"/>
<path d="M506.356 347.929H583.157" stroke="#2E353A" stroke-linecap="round" stroke-linejoin="round"/>
<path d="M506.356 359.215H583.157" stroke="#2E353A" stroke-linecap="round" stroke-linejoin="round"/>
<path d="M506.356 370.5H583.157" stroke="#2E353A" stroke-linecap="round" stroke-linejoin="round"/>
<path d="M506.356 381.785H583.157" stroke="#2E353A" stroke-linecap="round" stroke-linejoin="round"/>
<path d="M506.356 393.09H583.157" stroke="#2E353A" stroke-linecap="round" stroke-linejoin="round"/>
<path d="M506.356 404.375H583.157" stroke="#2E353A" stroke-linecap="round" stroke-linejoin="round"/>
<path d="M506.356 415.66H583.157" stroke="#2E353A" stroke-linecap="round" stroke-linejoin="round"/>
<path d="M506.356 426.945H583.157" stroke="#2E353A" stroke-linecap="round" stroke-linejoin="round"/>
<path d="M506.356 247.216H583.157" stroke="#2E353A" stroke-linecap="round" stroke-linejoin="round"/>
<path d="M506.356 258.501H583.157" stroke="#2E353A" stroke-linecap="round" stroke-linejoin="round"/>
<path d="M506.356 269.786H583.157" stroke="#2E353A" stroke-linecap="round" stroke-linejoin="round"/>
<path d="M506.356 281.071H583.157" stroke="#2E353A" stroke-linecap="round" stroke-linejoin="round"/>
<path d="M506.356 292.376H583.157" stroke="#2E353A" stroke-linecap="round" stroke-linejoin="round"/>
<path d="M506.356 303.661H583.157" stroke="#2E353A" stroke-linecap="round" stroke-linejoin="round"/>
<path d="M506.356 314.947H583.157" stroke="#2E353A" stroke-linecap="round" stroke-linejoin="round"/>
<path d="M506.356 326.232H583.157" stroke="#2E353A" stroke-linecap="round" stroke-linejoin="round"/>
<path d="M596.315 336.624H673.134" stroke="#2E353A" stroke-linecap="round" stroke-linejoin="round"/>
<path d="M596.315 347.929H673.134" stroke="#2E353A" stroke-linecap="round" stroke-linejoin="round"/>
<path d="M596.315 359.215H673.134" stroke="#2E353A" stroke-linecap="round" stroke-linejoin="round"/>
<path d="M596.315 370.5H673.134" stroke="#2E353A" stroke-linecap="round" stroke-linejoin="round"/>
<path d="M596.315 381.785H673.134" stroke="#2E353A" stroke-linecap="round" stroke-linejoin="round"/>
<path d="M596.315 393.09H673.134" stroke="#2E353A" stroke-linecap="round" stroke-linejoin="round"/>
<path d="M596.315 404.375H673.134" stroke="#2E353A" stroke-linecap="round" stroke-linejoin="round"/>
<path d="M596.315 415.66H673.134" stroke="#2E353A" stroke-linecap="round" stroke-linejoin="round"/>
<path d="M596.315 426.945H673.134" stroke="#2E353A" stroke-linecap="round" stroke-linejoin="round"/>
<path d="M467.391 265.244C467.777 263.906 467.977 262.508 467.983 261.099C467.983 255.962 463.417 255.665 458.904 255.665H457.788V254.455H477.359V255.665C472.253 255.665 470.475 259.374 468.82 264.867L458.364 300.389C457.562 303.027 456.9 304.99 454.442 304.99H454.251L445.119 270.996L436.51 300.329C435.708 302.967 435.046 304.931 432.606 304.931H432.397L419.013 255.605H414.308V254.396H431.543V255.605H426.629L436.58 294.518H436.981L444.457 268.576L440.971 255.605H436.266V254.396H453.484V255.605H448.587L458.52 294.518H458.921L467.391 265.244Z" fill="#4ABDAC"/>
<path d="M673.865 243.15H594.816V324.467H673.865V243.15Z" fill="#4ABDAC" stroke="#2E353A" stroke-linecap="round" stroke-linejoin="round"/>
<path d="M673.864 277.144C671.208 277.333 668.568 277.757 665.97 278.414C653.963 281.389 650.826 301.004 637.25 301.004C625.226 301.004 624.197 282.579 606.962 280.199C602.769 279.442 598.473 280.308 594.763 282.658V324.486H673.812L673.864 277.144Z" fill="#2E353A" stroke="#2E353A" stroke-linecap="round" stroke-linejoin="round"/>
<path d="M621.061 261.754C621.061 263.75 620.541 265.702 619.566 267.362C618.591 269.022 617.206 270.316 615.585 271.08C613.964 271.844 612.181 272.044 610.46 271.655C608.739 271.265 607.159 270.304 605.918 268.892C604.678 267.48 603.833 265.681 603.491 263.723C603.148 261.765 603.324 259.735 603.996 257.89C604.667 256.046 605.804 254.469 607.263 253.36C608.721 252.251 610.436 251.658 612.191 251.658C614.543 251.658 616.799 252.722 618.463 254.615C620.127 256.508 621.061 259.076 621.061 261.754V261.754Z" fill="white" stroke="#2E353A" stroke-linecap="round" stroke-linejoin="round"/>
<path d="M205.096 727.4C272.931 727.4 327.922 720.296 327.922 711.533C327.922 702.77 272.931 695.667 205.096 695.667C137.262 695.667 82.271 702.77 82.271 711.533C82.271 720.296 137.262 727.4 205.096 727.4Z" fill="#4ABDAC"/>
<path opacity="0.5" d="M205.096 727.4C272.931 727.4 327.922 720.296 327.922 711.533C327.922 702.77 272.931 695.667 205.096 695.667C137.262 695.667 82.271 702.77 82.271 711.533C82.271 720.296 137.262 727.4 205.096 727.4Z" fill="white"/>
<path d="M276.216 256.855C276.216 256.855 266.526 260.822 265.01 271.928C263.494 283.035 246.171 278.89 246.171 278.89C246.171 278.89 246.171 245.272 250.755 239.481C255.338 233.69 276.216 256.855 276.216 256.855Z" fill="white" stroke="#2E353A" stroke-miterlimit="10"/>
<path d="M281.305 212.25C281.305 212.25 284.355 226.728 285.889 227.898C287.422 229.068 291.988 231.369 291.483 233.095C290.31 235.55 288.945 237.88 287.405 240.056C287.405 240.056 288.276 255.05 286.743 256.776C285.209 258.501 282.316 259.751 276.286 259.751C270.257 259.751 263.042 257.45 261.003 253.959L256.925 247.018C256.925 247.018 253.44 247.018 253.44 241.226C253.44 235.435 250.895 227.898 256.925 219.767C262.955 211.635 275.694 207.609 281.305 212.25Z" fill="white" stroke="#2E353A" stroke-miterlimit="10"/>
<path d="M282.176 230.298C282.385 231.865 282.176 233.194 281.636 233.293C281.095 233.392 280.572 232.162 280.363 230.615C280.154 229.068 280.363 227.7 280.886 227.621C281.409 227.541 281.932 228.731 282.176 230.298Z" fill="#2E353A"/>
<path d="M276.948 225.578C276.948 225.578 278.796 220.104 282.176 222.206" stroke="#2E353A" stroke-linecap="round" stroke-linejoin="round"/>
<path d="M245.144 266.137C245.144 266.137 249.727 263.241 258.388 267.287C267.05 271.333 276.722 277.204 278.238 277.72C279.754 278.235 282.316 280.04 278.76 281.21C274.412 282.411 269.981 283.181 265.516 283.511C263.477 283.511 252.271 277.144 248.211 277.144H242.094C242.094 277.144 241.083 267.882 245.144 266.137Z" fill="#4ABDAC" stroke="#2E353A" stroke-miterlimit="10"/>
<path d="M272.138 287.061C265.138 281.234 257.169 277.09 248.716 274.883C234.966 271.413 222.244 274.308 213.583 277.204C204.922 280.1 197.289 282.42 193.716 287.121C190.144 291.821 152.484 350.27 143.317 365.918C134.151 381.567 127.354 419.468 127.354 419.468C127.924 420.441 128.676 421.258 129.555 421.861C130.435 422.465 131.421 422.84 132.443 422.959C135.493 422.959 135.684 416.374 135.684 416.374C138.675 414.516 141.416 412.178 143.823 409.433C147.901 404.792 152.989 378.136 159.612 371.749C166.234 365.363 204.922 325.399 204.922 325.399C204.922 325.399 212.555 348.584 212.555 357.846C212.555 367.108 209.505 373.495 201.367 390.293C193.228 407.092 185.578 415.799 181.5 433.768C177.422 451.737 174.372 475.418 174.372 475.418C174.372 475.418 158.078 539.063 154.959 548.861C151.839 558.658 129.498 580.733 125.333 597.532C121.168 614.331 110.729 675.794 105.64 682.2C100.551 688.606 90.3567 690.887 83.229 699.594C76.1014 708.301 77.635 710.601 86.2788 710.026C94.9226 709.451 104.107 704.81 109.648 703.561C115.19 702.311 118.362 702.985 119.843 696.619C121.324 690.252 116.358 687.912 120.349 676.905C124.339 665.897 151.403 601.538 163.114 583.034C174.825 564.529 186.536 542.474 191.12 530.297C195.703 518.119 210.986 475.24 212.503 470.023C214.019 464.807 214.036 463.082 215.988 468.873C217.94 474.664 230.383 534.977 229.895 549.495C229.407 564.013 218.689 588.904 223.272 605.703C227.856 622.502 241.1 666.552 243.122 678.729C245.143 690.907 241.1 698.999 243.122 702.529C245.143 706.06 264.522 709.471 269.611 710.066C274.699 710.661 287.944 712.367 288.955 708.321C289.966 704.275 279.788 703.68 273.166 695.568C267.694 688.864 258.911 678.769 255.861 663.696C252.811 648.622 248.716 597.016 250.807 582.577C252.898 568.139 255.39 526.945 255.896 519.983C256.401 513.022 261.49 484.641 257.935 456.814C254.38 428.988 250.807 387.834 250.807 387.834C250.807 387.834 253.857 365.799 254.868 364.034C255.878 362.269 267.607 344.32 268.112 337.378C268.273 331.557 267.934 325.731 267.101 319.984C267.101 319.984 303.245 307.232 323.112 299.12C342.978 291.008 387.348 253.126 391.931 248.485C393.987 246.502 392.558 241.861 394.562 239.362C397.054 236.248 398.971 233.65 398.971 233.65L395.922 227.859C395.922 227.859 372.5 241.187 351.117 255.09C337.301 264.203 323.008 272.344 308.316 279.465C301.154 282.936 273.654 287.061 272.138 287.061Z" fill="white" stroke="#2E353A" stroke-miterlimit="10"/>
<path d="M110.833 684.62C106.319 684.62 99.54 688.745 99.54 688.745L100.742 686.544C95.5144 690.213 88.5436 693.168 83.3155 699.594C76.1878 708.281 77.7214 710.601 86.3652 710.026C95.009 709.451 104.106 704.81 109.648 703.56C115.189 702.311 118.361 702.985 119.842 696.619C120.818 692.494 119.058 690.054 118.779 685.889C116.191 685.068 113.519 684.641 110.833 684.62Z" fill="#4ABDAC" stroke="#2E353A" stroke-miterlimit="10"/>
<path d="M119.826 696.956C115.467 695.378 110.867 694.858 106.32 695.429C97.6433 696.608 89.1271 699 80.964 702.549C76.5898 708.816 78.7159 710.482 86.192 710.026C94.9055 709.431 104.02 704.81 109.614 703.64C115.208 702.47 118.362 703.025 119.826 696.956Z" fill="white" stroke="#2E353A" stroke-miterlimit="10"/>
<path d="M118.362 700.486C116.619 699.832 112.663 698.999 104.124 700.05C95.3704 701.125 86.8391 703.874 78.8896 708.182C79.395 709.848 81.9394 710.304 86.3484 710.026C95.0619 709.431 104.176 704.81 109.77 703.64C113.796 702.787 116.619 702.866 118.362 700.486Z" fill="white" stroke="#2E353A" stroke-miterlimit="10"/>
<g style="mix-blend-mode:multiply" opacity="0.5">
<path d="M143.631 622.244L134.046 623.672C134.046 623.672 121.412 659.372 117.055 672.264C112.698 685.155 110.833 691.661 106.32 695.429C102.712 698.344 87.8646 699.891 79.7959 704.413C77.147 709.134 79.5345 710.463 86.2787 710.026C94.9922 709.431 104.107 704.81 109.701 703.64C115.295 702.47 118.414 703.065 119.895 696.698C121.377 690.332 116.41 687.991 120.401 676.984C122.806 670.498 133.14 645.528 143.631 622.244Z" fill="#4ABDAC"/>
</g>
<path d="M273.149 695.627C270.918 692.89 268.148 689.677 265.429 685.71C263.689 687.36 262.401 689.541 261.717 691.998C261.717 691.998 249.971 690.014 245.911 687.376C245.216 686.932 244.472 686.599 243.698 686.385C243.698 694.437 241.537 699.951 243.105 702.668C245.144 706.139 264.505 709.609 269.594 710.204C274.683 710.799 287.927 712.505 288.938 708.459C289.949 704.413 279.771 703.56 273.149 695.627Z" fill="#4ABDAC" stroke="#2E353A" stroke-miterlimit="10"/>
<path d="M288.938 708.281C289.002 708.033 289.02 707.772 288.99 707.516C288.96 707.26 288.882 707.014 288.763 706.793C283.222 708.261 274.996 706.793 263.529 704.155L242.617 699.376C242.53 700.453 242.724 701.536 243.174 702.49C245.213 705.96 264.575 709.431 269.664 710.026C274.752 710.621 287.927 712.327 288.938 708.281Z" fill="white" stroke="#2E353A" stroke-miterlimit="10"/>
<g style="mix-blend-mode:multiply" opacity="0.5">
<path d="M273.149 695.627C267.677 688.924 258.893 678.828 255.844 663.755C253.882 651.833 252.509 639.795 251.731 627.698L245.37 631.665C245.37 631.665 248.856 666.433 252.341 676.369C255.826 686.306 275.92 701.2 278.481 707.15C278.744 707.72 278.901 708.345 278.943 708.986C278.985 709.627 278.911 710.272 278.725 710.879C283.57 711.077 288.293 710.681 288.885 708.321C289.948 704.215 279.771 703.561 273.149 695.627Z" fill="#4ABDAC"/>
</g>
<g style="mix-blend-mode:multiply" opacity="0.5">
<path d="M199.973 294.994C200.791 299.451 202.58 303.602 205.174 307.067C207.768 310.532 211.085 313.201 214.821 314.828C227.909 320.778 249.675 316.811 261.072 307.866C272.469 298.921 265.516 283.57 265.516 283.57L260.201 275.082C260.201 275.082 232.265 303.84 199.973 294.994Z" fill="#4ABDAC"/>
</g>
<g style="mix-blend-mode:multiply" opacity="0.5">
<path d="M143.823 409.274C147.901 404.633 152.99 377.977 159.612 371.591C165.781 365.641 199.694 330.575 204.382 325.795L199.973 315.76C189.948 324.75 180.619 334.703 172.09 345.51C158.985 362.408 143.283 373.276 144.207 383.193C145.13 393.11 135.772 416.116 135.772 416.116C138.727 414.281 141.438 411.977 143.823 409.274V409.274Z" fill="#4ABDAC"/>
</g>
<g style="mix-blend-mode:multiply" opacity="0.5">
<path d="M306.452 300.944C306.452 300.944 319.557 282.063 316.908 285.078C314.259 288.092 307.323 298.961 295.09 302.928C282.856 306.894 254.066 317.822 249.779 320.778C245.492 323.733 230.61 320.778 234.949 325.756C238.761 330.707 241.718 336.434 243.663 342.634C244.551 345.609 241.048 352.551 240.177 358.501C239.306 364.451 235.088 380.178 240.177 384.284C243.518 386.513 247.138 388.152 250.912 389.143C250.912 388.29 250.808 387.814 250.808 387.814C250.808 387.814 253.857 365.779 254.868 364.014C255.879 362.249 267.607 344.3 268.113 337.358C268.273 331.537 267.935 325.711 267.102 319.964C267.102 319.964 303.245 307.212 323.112 299.1C342.979 290.988 387.348 253.106 391.931 248.465C393.988 246.482 392.559 241.841 394.563 239.342C394.563 239.342 367.603 258.085 347.51 275.974C335.178 286.907 321.291 295.352 306.452 300.944V300.944Z" fill="#4ABDAC"/>
</g>
<path d="M267.049 320.024L249.727 327.561" stroke="#2E353A" stroke-linecap="round" stroke-linejoin="round"/>
<path d="M262.972 322.344L249.727 337.993" stroke="#2E353A" stroke-linecap="round" stroke-linejoin="round"/>
<path d="M204.922 325.24L197.167 305.962" stroke="#2E353A" stroke-linecap="round" stroke-linejoin="round"/>
<path d="M287.84 208.878C283.243 214.75 278.068 220.001 272.417 224.527C263.424 231.607 258.597 228.077 260.009 241.306C261.42 254.534 271.266 274.784 262.692 290.572C254.118 306.359 237.963 318.497 209.836 304.851C181.709 291.206 178.102 257.252 190.527 243.904C202.953 230.556 213.618 229.624 219.665 218.854C225.712 208.085 221.704 189.977 237.458 183.729C253.212 177.482 266.631 183.194 270.674 182.639C274.717 182.083 274.159 171.651 286.811 175.161C299.463 178.672 300.108 203.761 287.84 208.878Z" fill="#2E353A" stroke="#2E353A" stroke-miterlimit="10"/>
<path d="M286.393 186.863C286.393 186.863 297.633 186.367 296.344 195.233C295.054 204.098 292.44 204.098 279.021 207.549C265.603 211 250.894 211.516 247.879 226.252C244.864 240.988 253.927 264.669 253.107 282.4C252.288 300.131 242.651 306.537 232.334 308.005" stroke="white" stroke-width="0.5" stroke-linecap="round" stroke-linejoin="round"/>
<path d="M260.862 232.162C260.862 232.162 251.33 239.064 251.765 262.706" stroke="white" stroke-width="0.5" stroke-linecap="round" stroke-linejoin="round"/>
<path d="M277.732 200.151C277.732 200.151 260.862 191.782 249.605 202.611C238.347 213.44 241.815 227.244 237.493 242.02C233.171 256.795 221.913 279.941 205.026 285.355C188.139 290.77 182.964 264.173 190.318 260.246C197.672 256.319 205.462 262.23 202.517 270.163" stroke="white" stroke-width="0.5" stroke-linecap="round" stroke-linejoin="round"/>
<path d="M131.049 439.421C131.049 439.421 132.095 448.524 131.398 451.697L130.701 454.871C130.701 454.871 128.609 456.854 128.261 440.611C128.261 440.611 129.655 437.041 131.049 439.421Z" fill="white" stroke="#2E353A" stroke-linecap="round" stroke-linejoin="round"/>
<path d="M128.958 444.181C128.958 444.181 130.004 453.284 129.307 456.457L128.61 459.631C128.61 459.631 126.536 461.614 126.188 445.371C126.188 445.371 127.582 441.761 128.958 444.181Z" fill="white" stroke="#2E353A" stroke-linecap="round" stroke-linejoin="round"/>
<path d="M127.233 447.354C127.233 447.354 128.261 456.457 127.581 459.631L126.884 462.784C126.884 462.784 124.793 464.767 124.444 448.524C124.444 448.524 125.838 444.974 127.233 447.354Z" fill="white" stroke="#2E353A" stroke-linecap="round" stroke-linejoin="round"/>
<path d="M134.185 421.928C136.408 424.945 138.277 428.279 139.745 431.844C141.487 436.584 144.276 440.551 146.367 441.761C148.458 442.971 149.486 444.538 146.018 444.538C142.55 444.538 141.836 440.968 139.745 440.174C137.577 439.625 135.361 439.359 133.14 439.381C131.15 441.408 129.497 443.827 128.26 446.521C127.232 449.674 125.838 450.488 125.838 455.228C125.838 459.968 124.792 467.128 123.747 463.538C122.388 458.544 121.914 453.292 122.353 448.088C123.05 443.744 125.838 424.724 126.186 423.157C126.51 421.811 126.9 420.487 127.354 419.191C127.354 419.191 130.352 423.197 134.185 421.928Z" fill="white" stroke="#2E353A" stroke-linecap="round" stroke-linejoin="round"/>
<path d="M133.141 439.421C133.705 438.289 134.058 437.038 134.177 435.745C134.297 434.451 134.182 433.144 133.838 431.904" stroke="#2E353A" stroke-linecap="round" stroke-linejoin="round"/>
<path d="M206.16 380.119C204.8 383.034 203.215 386.307 201.367 390.135C193.212 406.953 185.578 415.64 181.501 433.609C177.423 451.578 174.373 475.259 174.373 475.259C174.373 475.259 158.079 539.063 154.959 548.861C151.84 558.658 129.498 580.733 125.333 597.532C123.974 603.164 121.848 613.835 119.46 625.735C122.915 624.409 126.635 624.266 130.161 625.324C133.686 626.382 136.861 628.593 139.292 631.685C147.866 612.268 157.277 592.196 163.011 583.113C174.721 564.569 186.432 542.554 191.016 530.376C195.599 518.198 210.882 475.319 212.399 470.103C213.915 464.886 213.932 463.161 215.884 468.952C217.836 474.744 230.383 534.977 229.895 549.495C229.407 564.013 218.69 588.904 223.273 605.703C225.713 614.648 230.61 631.308 234.949 646.778C241.108 646.755 247.239 645.842 253.195 644.06C250.982 622.66 249.292 593.029 250.755 582.577C252.794 568.079 255.339 526.945 255.844 519.983C256.349 513.022 261.438 484.64 257.883 456.814C254.328 428.988 250.808 387.834 250.808 387.834C250.808 387.834 229.111 377.422 206.16 380.119Z" fill="#2E353A" stroke="#2E353A" stroke-miterlimit="10"/>
<path d="M213.81 467.643L201.733 457.211" stroke="white" stroke-width="0.5" stroke-linecap="round" stroke-linejoin="round"/>
<path d="M245.231 388.449C245.231 388.449 251.016 422.542 253.439 450.606C255.861 478.671 250.058 533.113 251.016 546.858C251.975 560.602 245.701 580.396 245.231 598.563C245.173 613.44 245.819 628.31 247.165 643.109" stroke="white" stroke-width="0.5" stroke-linecap="round" stroke-linejoin="round"/>
<path d="M122.963 624.961C122.963 624.961 130.683 590.848 138.909 576.548C143.331 568.7 148.173 561.169 153.408 553.997" stroke="white" stroke-width="0.5" stroke-linecap="round" stroke-linejoin="round"/>
<path d="M444.56 227.184C445.048 226.907 444.804 225.796 444.56 224.824C444.153 224.378 443.703 223.985 443.218 223.654L425.269 218.834C425.269 218.834 425.269 218.497 429.259 217.922C433.25 217.347 438.67 219.231 440.674 219.588C445.536 220.5 444.159 217.288 444.159 217.288C444.159 217.288 431.961 212.646 429.399 212.646C426.837 212.646 421.051 213.559 421.051 213.559C421.051 213.559 425.826 208.005 424.816 205.11C423.805 202.214 417.688 210.326 412.617 213.797C407.545 217.268 395.887 227.898 395.887 227.898L398.884 234.086H403.816C408.783 234.086 409.759 232.42 412.268 231.805L413.471 231.508H413.627L422.881 230.496C422.881 230.496 426.506 232.024 428.527 233.055C431.061 234.109 433.742 234.633 436.439 234.602C438.931 234.602 428.092 229.465 428.092 229.465C428.092 229.465 434.418 231.448 437.119 232.024C439.293 232.476 441.538 232.025 443.445 230.754C445.031 229.723 440.064 227.66 437.119 227.402C435.09 227.103 433.089 226.592 431.142 225.875C431.333 225.875 429.242 224.824 429.399 224.824C432.361 224.864 443.671 227.72 444.56 227.184Z" stroke="#2E353A" stroke-linecap="round" stroke-linejoin="round"/>
<path d="M429.417 224.864C427.723 224.111 425.974 223.534 424.189 223.138" stroke="#2E353A" stroke-linecap="round" stroke-linejoin="round"/>
<path d="M428.075 229.544C426.674 228.475 425.164 227.603 423.579 226.946" stroke="#2E353A" stroke-linecap="round" stroke-linejoin="round"/>
<g style="mix-blend-mode:multiply" opacity="0.5">
<path d="M207.624 334.046L207.833 333.63L206.839 331.349L207.624 334.046Z" fill="#4ABDAC"/>
</g>
</svg>
