<svg width="728" height="668" viewBox="0 0 728 668" fill="none" xmlns="http://www.w3.org/2000/svg">
<g opacity="0.2">
<path opacity="0.2" d="M153.996 3.8313H222.493V91.5285H136.722" stroke="black" stroke-linecap="round" stroke-linejoin="round"/>
<path opacity="0.2" d="M127.761 91.5285H106.9V3.8313H145.035" stroke="black" stroke-linecap="round" stroke-linejoin="round"/>
<path opacity="0.2" d="M128.317 29.2836H115.631V41.5627H128.317V29.2836Z" stroke="black" stroke-linecap="round" stroke-linejoin="round"/>
<path opacity="0.2" d="M145.407 29.2836H132.72V41.5627H145.407V29.2836Z" stroke="black" stroke-linecap="round" stroke-linejoin="round"/>
<path opacity="0.2" d="M162.496 29.2836H149.809V41.5627H162.496V29.2836Z" stroke="black" stroke-linecap="round" stroke-linejoin="round"/>
<path opacity="0.2" d="M179.585 29.2836H166.898V41.5627H179.585V29.2836Z" stroke="black" stroke-linecap="round" stroke-linejoin="round"/>
<path opacity="0.2" d="M196.689 29.2836H184.003V41.5627H196.689V29.2836Z" stroke="black" stroke-linecap="round" stroke-linejoin="round"/>
<path opacity="0.2" d="M213.778 29.2836H201.092V41.5627H213.778V29.2836Z" stroke="black" stroke-linecap="round" stroke-linejoin="round"/>
<path opacity="0.2" d="M128.317 46.3611H115.631V58.6402H128.317V46.3611Z" stroke="black" stroke-linecap="round" stroke-linejoin="round"/>
<path opacity="0.2" d="M145.407 46.3611H132.72V58.6402H145.407V46.3611Z" stroke="black" stroke-linecap="round" stroke-linejoin="round"/>
<path opacity="0.2" d="M162.496 46.3611H149.809V58.6402H162.496V46.3611Z" stroke="black" stroke-linecap="round" stroke-linejoin="round"/>
<path opacity="0.2" d="M179.585 46.3611H166.898V58.6402H179.585V46.3611Z" stroke="black" stroke-linecap="round" stroke-linejoin="round"/>
<path opacity="0.2" d="M196.689 46.3611H184.003V58.6402H196.689V46.3611Z" stroke="black" stroke-linecap="round" stroke-linejoin="round"/>
<path opacity="0.2" d="M213.778 46.3611H201.092V58.6402H213.778V46.3611Z" stroke="black" stroke-linecap="round" stroke-linejoin="round"/>
<path opacity="0.2" d="M128.317 63.4385H115.631V75.7176H128.317V63.4385Z" stroke="black" stroke-linecap="round" stroke-linejoin="round"/>
<path opacity="0.2" d="M145.407 63.4385H132.72V75.7176H145.407V63.4385Z" stroke="black" stroke-linecap="round" stroke-linejoin="round"/>
<path opacity="0.2" d="M162.496 63.4385H149.809V75.7176H162.496V63.4385Z" stroke="black" stroke-linecap="round" stroke-linejoin="round"/>
<path opacity="0.2" d="M179.585 63.4385H166.898V75.7176H179.585V63.4385Z" stroke="black" stroke-linecap="round" stroke-linejoin="round"/>
<path opacity="0.2" d="M196.689 63.4385H184.003V75.7176H196.689V63.4385Z" stroke="black" stroke-linecap="round" stroke-linejoin="round"/>
<path opacity="0.2" d="M213.778 63.4385H201.092V75.7176H213.778V63.4385Z" stroke="black" stroke-linecap="round" stroke-linejoin="round"/>
<path opacity="0.2" d="M214.256 15.9315H116.107V20.1934H214.256V15.9315Z" stroke="black" stroke-linecap="round" stroke-linejoin="round"/>
</g>
<g opacity="0.2">
<path opacity="0.2" d="M657.598 104.061H700.814V191.773H689.591" stroke="black" stroke-linecap="round" stroke-linejoin="round"/>
<path opacity="0.2" d="M681.909 191.773H585.207V104.061H647.36" stroke="black" stroke-linecap="round" stroke-linejoin="round"/>
<path opacity="0.2" d="M606.622 129.513H593.936V141.792H606.622V129.513Z" stroke="black" stroke-linecap="round" stroke-linejoin="round"/>
<path opacity="0.2" d="M623.726 129.513H611.039V141.792H623.726V129.513Z" stroke="black" stroke-linecap="round" stroke-linejoin="round"/>
<path opacity="0.2" d="M640.816 129.513H628.13V141.792H640.816V129.513Z" stroke="black" stroke-linecap="round" stroke-linejoin="round"/>
<path opacity="0.2" d="M657.905 129.513H645.219V141.792H657.905V129.513Z" stroke="black" stroke-linecap="round" stroke-linejoin="round"/>
<path opacity="0.2" d="M674.994 129.513H662.308V141.792H674.994V129.513Z" stroke="black" stroke-linecap="round" stroke-linejoin="round"/>
<path opacity="0.2" d="M692.084 129.513H679.398V141.792H692.084V129.513Z" stroke="black" stroke-linecap="round" stroke-linejoin="round"/>
<path opacity="0.2" d="M606.622 146.591H593.936V158.87H606.622V146.591Z" stroke="black" stroke-linecap="round" stroke-linejoin="round"/>
<path opacity="0.2" d="M623.726 146.591H611.039V158.87H623.726V146.591Z" stroke="black" stroke-linecap="round" stroke-linejoin="round"/>
<path opacity="0.2" d="M640.816 146.591H628.13V158.87H640.816V146.591Z" stroke="black" stroke-linecap="round" stroke-linejoin="round"/>
<path opacity="0.2" d="M657.905 146.591H645.219V158.87H657.905V146.591Z" stroke="black" stroke-linecap="round" stroke-linejoin="round"/>
<path opacity="0.2" d="M674.994 146.591H662.308V158.87H674.994V146.591Z" stroke="black" stroke-linecap="round" stroke-linejoin="round"/>
<path opacity="0.2" d="M692.084 146.591H679.398V158.87H692.084V146.591Z" stroke="black" stroke-linecap="round" stroke-linejoin="round"/>
<path opacity="0.2" d="M606.622 163.668H593.936V175.947H606.622V163.668Z" stroke="black" stroke-linecap="round" stroke-linejoin="round"/>
<path opacity="0.2" d="M623.726 163.668H611.039V175.947H623.726V163.668Z" stroke="black" stroke-linecap="round" stroke-linejoin="round"/>
<path opacity="0.2" d="M640.816 163.668H628.13V175.947H640.816V163.668Z" stroke="black" stroke-linecap="round" stroke-linejoin="round"/>
<path opacity="0.2" d="M657.905 163.668H645.219V175.947H657.905V163.668Z" stroke="black" stroke-linecap="round" stroke-linejoin="round"/>
<path opacity="0.2" d="M674.994 163.668H662.308V175.947H674.994V163.668Z" stroke="black" stroke-linecap="round" stroke-linejoin="round"/>
<path opacity="0.2" d="M692.084 163.668H679.398V175.947H692.084V163.668Z" stroke="black" stroke-linecap="round" stroke-linejoin="round"/>
<path opacity="0.2" d="M692.578 116.176H594.429V120.453H692.578V116.176Z" stroke="black" stroke-linecap="round" stroke-linejoin="round"/>
</g>
<g opacity="0.2">
<path opacity="0.2" d="M49.7495 244.317V198.553C49.7414 197.801 49.8875 197.054 50.1794 196.357C50.4713 195.659 50.9032 195.024 51.4502 194.489C51.9971 193.955 52.6482 193.53 53.3658 193.24C54.0834 192.95 54.8532 192.801 55.6308 192.801H129.531C131.095 192.801 132.595 193.402 133.701 194.473C134.807 195.543 135.428 196.995 135.428 198.509V264.33H49.7495V254.226" stroke="black" stroke-linecap="round" stroke-linejoin="round"/>
<path opacity="0.2" d="M50.8122 208.388H134.304" stroke="black" stroke-linecap="round" stroke-linejoin="round"/>
<path opacity="0.2" d="M70.8113 221.86H58.3098V231.173H126.806V221.86H83.6054" stroke="black" stroke-linecap="round" stroke-linejoin="round"/>
<path opacity="0.2" d="M126.806 241.545H58.3098V250.873H126.806V241.545Z" stroke="black" stroke-linecap="round" stroke-linejoin="round"/>
</g>
<g opacity="0.2">
<path opacity="0.2" d="M403.581 577.268H477.481C479.041 577.268 480.537 577.868 481.64 578.935C482.743 580.003 483.363 581.451 483.363 582.961V648.797H397.699V583.02C397.691 582.268 397.837 581.521 398.129 580.823C398.421 580.126 398.853 579.491 399.4 578.956C399.947 578.421 400.598 577.997 401.316 577.707C402.033 577.417 402.803 577.268 403.581 577.268V577.268Z" stroke="black" stroke-linecap="round" stroke-linejoin="round"/>
<path opacity="0.2" d="M398.761 592.855H482.253" stroke="black" stroke-linecap="round" stroke-linejoin="round"/>
<path opacity="0.2" d="M474.755 606.327H406.258V615.655H474.755V606.327Z" stroke="black" stroke-linecap="round" stroke-linejoin="round"/>
<path opacity="0.2" d="M474.755 626.012H406.258V635.341H474.755V626.012Z" stroke="black" stroke-linecap="round" stroke-linejoin="round"/>
</g>
<g opacity="0.2">
<path opacity="0.2" d="M420.177 19.5078C410.99 11.0422 398.705 6.45584 386.023 6.75766C373.342 7.05948 361.305 12.2248 352.558 21.1172C343.812 30.0097 339.074 41.9009 339.385 54.175C339.697 66.449 345.034 78.1004 354.221 86.566" stroke="black" stroke-linecap="round" stroke-linejoin="round"/>
<path opacity="0.2" d="M359.609 91.0666C369.1 97.8647 380.854 101.024 392.607 99.936C404.36 98.8482 415.283 93.59 423.27 85.1741C431.258 76.7582 435.747 65.7795 435.872 54.352C435.997 42.9245 431.75 31.8562 423.949 23.2782" stroke="black" stroke-linecap="round" stroke-linejoin="round"/>
<path opacity="0.2" d="M409.954 53.8715H388.077V89.8296" stroke="black" stroke-linecap="round" stroke-linejoin="round"/>
</g>
<g opacity="0.2">
<path opacity="0.2" d="M49.6116 85.897C46.2931 86.4046 43.1214 87.5796 40.3008 89.3462C37.4802 91.1129 35.0733 93.4319 33.2353 96.154C31.3973 98.876 30.1689 101.941 29.6294 105.15C29.0899 108.36 29.2511 111.643 30.1028 114.789C30.9544 117.934 32.4776 120.872 34.5741 123.413C36.6705 125.954 39.2938 128.042 42.2748 129.542C45.2559 131.041 48.5284 131.92 51.8817 132.121C55.2349 132.321 58.5944 131.84 61.7436 130.707" stroke="black" stroke-linecap="round" stroke-linejoin="round"/>
<path opacity="0.2" d="M69.5649 126.056C72.9374 123.047 75.351 119.167 76.5212 114.874C77.6915 110.581 77.5697 106.054 76.1702 101.826C74.7707 97.5974 72.1518 93.8445 68.6221 91.009C65.0924 88.1735 60.7989 86.3735 56.2474 85.8212" stroke="black" stroke-linecap="round" stroke-linejoin="round"/>
<path opacity="0.2" d="M53.3064 97.0421V120.751" stroke="black" stroke-miterlimit="10"/>
<path opacity="0.2" d="M65.5622 108.904H41.0519" stroke="black" stroke-miterlimit="10"/>
</g>
<g opacity="0.2">
<path opacity="0.2" d="M700.429 313.551C713.711 313.551 724.478 303.129 724.478 290.274C724.478 277.419 713.711 266.997 700.429 266.997C687.148 266.997 676.381 277.419 676.381 290.274C676.381 303.129 687.148 313.551 700.429 313.551Z" stroke="black" stroke-linecap="round" stroke-linejoin="round"/>
<path opacity="0.2" d="M700.429 278.412V302.136" stroke="black" stroke-miterlimit="10"/>
<path opacity="0.2" d="M712.67 290.274H688.175" stroke="black" stroke-miterlimit="10"/>
</g>
<path d="M655.735 601.111H103.021L103.667 160.718C103.667 156.477 105.408 152.41 108.506 149.411C111.604 146.413 115.806 144.728 120.187 144.728H639.862C642.032 144.726 644.181 145.138 646.186 145.941C648.192 146.744 650.014 147.922 651.548 149.407C653.082 150.892 654.299 152.655 655.129 154.596C655.958 156.537 656.384 158.617 656.382 160.718L655.735 601.111Z" fill="white" stroke="#263238" stroke-linecap="round" stroke-linejoin="round"/>
<path d="M255.009 183.86H176.536V199.492H255.009V183.86Z" stroke="#263238" stroke-linecap="round" stroke-linejoin="round"/>
<path d="M492.908 205.155H636.014" stroke="#263238" stroke-linecap="round" stroke-linejoin="round"/>
<path d="M134.352 205.155H484.564" stroke="#263238" stroke-linecap="round" stroke-linejoin="round"/>
<path d="M639.862 144.728H120.187C115.806 144.728 111.604 146.413 108.506 149.411C105.408 152.41 103.668 156.477 103.668 160.718V172.892H656.382V160.718C656.384 158.617 655.958 156.537 655.129 154.596C654.299 152.655 653.083 150.892 651.548 149.407C650.014 147.922 648.192 146.744 646.187 145.941C644.181 145.138 642.032 144.726 639.862 144.728V144.728Z" fill="#263238" stroke="#263238" stroke-linecap="round" stroke-linejoin="round"/>
<path d="M133.813 160.36C133.813 159.405 133.521 158.472 132.973 157.678C132.425 156.884 131.646 156.265 130.734 155.9C129.823 155.534 128.82 155.438 127.852 155.625C126.884 155.811 125.995 156.271 125.298 156.946C124.6 157.621 124.125 158.482 123.933 159.418C123.74 160.355 123.839 161.326 124.217 162.208C124.594 163.09 125.233 163.844 126.054 164.375C126.874 164.905 127.838 165.188 128.825 165.188C130.148 165.188 131.417 164.68 132.352 163.774C133.288 162.869 133.813 161.641 133.813 160.36V160.36Z" fill="white" stroke="#263238" stroke-linecap="round" stroke-linejoin="round"/>
<path d="M153.72 160.36C153.72 159.405 153.427 158.472 152.879 157.678C152.331 156.884 151.552 156.265 150.64 155.9C149.729 155.534 148.726 155.438 147.758 155.625C146.791 155.811 145.902 156.271 145.204 156.946C144.507 157.621 144.032 158.482 143.839 159.418C143.647 160.355 143.745 161.326 144.123 162.208C144.501 163.09 145.14 163.844 145.96 164.375C146.781 164.905 147.745 165.188 148.732 165.188C150.055 165.188 151.323 164.68 152.259 163.774C153.194 162.869 153.72 161.641 153.72 160.36V160.36Z" fill="white" stroke="#263238" stroke-linecap="round" stroke-linejoin="round"/>
<path d="M168.669 165.188C171.424 165.188 173.657 163.027 173.657 160.36C173.657 157.694 171.424 155.532 168.669 155.532C165.914 155.532 163.68 157.694 163.68 160.36C163.68 163.027 165.914 165.188 168.669 165.188Z" fill="white" stroke="#263238" stroke-linecap="round" stroke-linejoin="round"/>
<path d="M135.568 184.784H159.216" stroke="#263238" stroke-linecap="round" stroke-linejoin="round"/>
<path d="M135.568 190.939H159.216" stroke="#263238" stroke-linecap="round" stroke-linejoin="round"/>
<path d="M135.568 197.078H159.216" stroke="#263238" stroke-linecap="round" stroke-linejoin="round"/>
<path d="M139.971 239.086V219.356H135.799V217.136H146.684V219.356H142.496V239.086H139.971Z" fill="#263238"/>
<path d="M149.731 234.66L148.854 239.131H146.514L150.855 217.181H154.519L158.861 239.131H156.336L155.459 234.66H149.731ZM150.055 232.559H155.104L152.549 219.893L150.055 232.559Z" fill="#263238"/>
<path d="M170.654 222.396V222.992H168.253V222.277C168.253 220.295 167.483 219.133 165.666 219.133C163.849 219.133 163.08 220.295 163.08 222.247C163.08 227.165 170.685 227.642 170.685 233.811C170.685 237.134 169.038 239.295 165.574 239.295C162.11 239.295 160.478 237.134 160.478 233.811V232.559H162.849V233.945C162.849 235.912 163.695 237.075 165.512 237.075C167.329 237.075 168.16 235.912 168.16 233.945C168.16 229.043 160.585 228.581 160.585 222.396C160.585 219.014 162.125 216.912 165.605 216.912C169.084 216.912 170.654 219.073 170.654 222.396Z" fill="#263238"/>
<path d="M176.752 229.549L175.413 231.71V239.086H172.888V217.136H175.382V227.731L181.417 217.136H183.973L178.276 227.075L184.204 238.997H181.54L176.752 229.549Z" fill="#263238"/>
<path d="M195.797 222.396V222.992H193.395V222.277C193.395 220.295 192.626 219.133 190.809 219.133C188.992 219.133 188.222 220.295 188.222 222.247C188.222 227.165 195.828 227.642 195.828 233.811C195.828 237.134 194.181 239.295 190.717 239.295C187.252 239.295 185.62 237.134 185.62 233.811V232.559H187.991V233.945C187.991 235.912 188.838 237.075 190.655 237.075C192.472 237.075 193.303 235.912 193.303 233.945C193.303 229.043 185.728 228.581 185.728 222.396C185.728 219.014 187.345 216.912 190.747 216.912C194.15 216.912 195.797 219.073 195.797 222.396Z" fill="#263238"/>
<path d="M482.546 362.309H134.736V452.257H482.546V362.309Z" fill="white" stroke="#263238" stroke-linecap="round" stroke-linejoin="round"/>
<path d="M402.749 385.78C404.288 385.78 404.919 386.644 404.919 388.06V389.192C404.919 390.682 404.196 391.457 402.672 391.457H401.702V395.168H400.624V385.78H402.749ZM402.672 390.519C403.472 390.519 403.857 390.161 403.857 389.267V388.015C403.857 387.151 403.534 386.719 402.749 386.719H401.702V390.519H402.672Z" fill="#263238"/>
<path d="M407.86 385.78C409.4 385.78 410.031 386.525 410.031 387.926V388.686C410.095 389.093 410.01 389.51 409.791 389.863C409.571 390.217 409.232 390.485 408.83 390.623C409.708 390.876 410.046 391.562 410.046 392.575V394.065C410.017 394.451 410.08 394.839 410.231 395.198H409.138C408.992 394.833 408.934 394.44 408.969 394.05V392.56C408.969 391.502 408.445 391.174 407.552 391.174H406.782V395.183H405.705V385.795L407.86 385.78ZM407.598 390.25C408.445 390.25 408.969 389.982 408.969 388.954V388.015C408.969 387.166 408.645 386.719 407.845 386.719H406.782V390.206L407.598 390.25Z" fill="#263238"/>
<path d="M411.139 388.015C411.139 386.525 411.878 385.646 413.356 385.646C414.834 385.646 415.589 386.57 415.589 388.015V392.873C415.614 393.171 415.576 393.471 415.476 393.753C415.375 394.036 415.216 394.296 415.007 394.516C414.798 394.735 414.544 394.911 414.261 395.031C413.978 395.151 413.673 395.213 413.364 395.213C413.055 395.213 412.75 395.151 412.467 395.031C412.184 394.911 411.93 394.735 411.721 394.516C411.512 394.296 411.352 394.036 411.252 393.753C411.152 393.471 411.114 393.171 411.139 392.873V388.015ZM412.217 392.918C412.217 393.782 412.586 394.274 413.356 394.274C414.126 394.274 414.511 393.782 414.511 392.918V388.015C414.511 387.166 414.157 386.659 413.356 386.659C412.556 386.659 412.217 387.166 412.217 388.015V392.918Z" fill="#263238"/>
<path d="M420.9 388.015V388.82H419.869V388.015C419.869 387.166 419.53 386.659 418.729 386.659C417.929 386.659 417.605 387.166 417.605 388.015V392.977C417.605 393.827 417.959 394.333 418.729 394.333C419.499 394.333 419.869 393.827 419.869 392.977V391.1H418.868V390.161H420.9V392.933C420.9 394.423 420.207 395.287 418.714 395.287C417.22 395.287 416.528 394.348 416.528 392.933V388.015C416.528 386.525 417.22 385.646 418.714 385.646C420.207 385.646 420.9 386.614 420.9 388.015Z" fill="#263238"/>
<path d="M424.087 385.78C425.626 385.78 426.242 386.525 426.242 387.926V388.686C426.306 389.093 426.221 389.51 426.002 389.863C425.783 390.217 425.443 390.485 425.041 390.623C425.934 390.876 426.258 391.562 426.258 392.575V394.065C426.226 394.453 426.295 394.842 426.458 395.198H425.365C425.212 394.834 425.148 394.441 425.18 394.05V392.56C425.18 391.502 424.672 391.174 423.764 391.174H423.009V395.183H421.916V385.795L424.087 385.78ZM423.81 390.25C424.672 390.25 425.18 389.982 425.18 388.954V388.015C425.18 387.166 424.857 386.719 424.056 386.719H423.009V390.206L423.81 390.25Z" fill="#263238"/>
<path d="M430.831 389.937V390.876H428.46V394.214H431.37V395.168H427.382V385.78H431.37V386.719H428.46V389.937H430.831Z" fill="#263238"/>
<path d="M436.574 388.015V388.268H435.573V388.015C435.573 387.166 435.25 386.674 434.464 386.674C433.679 386.674 433.356 387.166 433.356 388C433.356 390.116 436.62 390.31 436.62 392.948C436.62 394.438 435.912 395.302 434.418 395.302C432.925 395.302 432.247 394.378 432.247 392.948V392.411H433.264V393.007C433.264 393.857 433.618 394.348 434.403 394.348C435.188 394.348 435.527 393.857 435.527 393.007C435.527 390.921 432.294 390.712 432.294 388.075C432.294 386.585 432.986 385.72 434.434 385.72C435.881 385.72 436.574 386.599 436.574 388.015Z" fill="#263238"/>
<path d="M441.731 388.015V388.268H440.7V388.015C440.7 387.166 440.361 386.674 439.591 386.674C438.821 386.674 438.483 387.166 438.483 388C438.483 390.116 441.731 390.31 441.731 392.948C441.731 394.438 441.038 395.302 439.545 395.302C438.052 395.302 437.374 394.378 437.374 392.948V392.411H438.39V393.007C438.39 393.857 438.745 394.348 439.514 394.348C440.284 394.348 440.654 393.857 440.654 393.007C440.654 390.921 437.42 390.712 437.42 388.075C437.42 386.585 438.113 385.72 439.56 385.72C441.008 385.72 441.731 386.599 441.731 388.015Z" fill="#263238"/>
<path d="M333.236 385.78C334.775 385.78 335.438 386.659 335.438 388.104V392.843C335.438 394.333 334.745 395.168 333.236 395.168H330.957V385.78H333.236ZM333.236 394.214C334.006 394.214 334.391 393.737 334.391 392.888V388.015C334.391 387.151 334.006 386.674 333.22 386.674H332.05V394.125L333.236 394.214Z" fill="#263238"/>
<path d="M339.904 389.937V390.876H337.533V394.214H340.443V395.168H336.455V385.78H340.443V386.719H337.533V389.937H339.904Z" fill="#263238"/>
<path d="M342.535 393.275L342.15 395.168H341.165L343.013 385.78H344.552L346.415 395.168H345.322L344.952 393.275H342.535ZM342.674 392.366H344.829L343.736 386.957L342.674 392.366Z" fill="#263238"/>
<path d="M349.557 385.78C351.096 385.78 351.758 386.659 351.758 388.104V392.843C351.758 394.333 351.065 395.168 349.557 395.168H347.278V385.78H349.557ZM349.557 394.214C350.342 394.214 350.711 393.737 350.711 392.888V388.015C350.711 387.151 350.342 386.674 349.541 386.674H348.387V394.125L349.557 394.214Z" fill="#263238"/>
<path d="M352.774 395.168V385.78H353.851V394.214H356.623V395.168H352.774Z" fill="#263238"/>
<path d="M358.594 385.78V395.168H357.516V385.78H358.594Z" fill="#263238"/>
<path d="M360.579 395.168H359.609V385.78H360.979L363.227 392.56V385.78H364.182V395.168H363.073L360.579 387.568V395.168Z" fill="#263238"/>
<path d="M368.755 389.937V390.876H366.384V394.214H369.371V395.168H365.368V385.78H369.371V386.719H366.461V389.937H368.755Z" fill="#263238"/>
<path d="M269.467 396.509H289.728" stroke="#263238" stroke-linecap="round" stroke-linejoin="round"/>
<path d="M208.714 396.509H262.184" stroke="#263238" stroke-linecap="round" stroke-linejoin="round"/>
<path d="M151.964 396.509H200.616" stroke="#263238" stroke-linecap="round" stroke-linejoin="round"/>
<path d="M239.506 418.802H254.979" stroke="#263238" stroke-linecap="round" stroke-linejoin="round"/>
<path d="M199.8 418.802H226.543" stroke="#263238" stroke-linecap="round" stroke-linejoin="round"/>
<path d="M180.37 418.802H191.701" stroke="#263238" stroke-linecap="round" stroke-linejoin="round"/>
<path d="M151.964 418.802H173.888" stroke="#263238" stroke-linecap="round" stroke-linejoin="round"/>
<path d="M469.659 414.645C469.655 416.509 468.888 418.296 467.526 419.614C466.164 420.932 464.318 421.674 462.392 421.678H386.105C384.176 421.678 382.326 420.938 380.961 419.619C379.596 418.3 378.827 416.511 378.823 414.645C378.831 412.778 379.601 410.989 380.965 409.669C382.329 408.349 384.176 407.604 386.105 407.596H462.392C463.348 407.596 464.294 407.778 465.176 408.133C466.059 408.487 466.861 409.007 467.536 409.661C468.211 410.316 468.746 411.093 469.11 411.948C469.474 412.803 469.661 413.72 469.659 414.645V414.645Z" fill="white" stroke="#263238" stroke-linecap="round" stroke-linejoin="round"/>
<path d="M446.919 407.596V421.678H386.105C384.176 421.678 382.326 420.938 380.961 419.619C379.596 418.3 378.827 416.511 378.823 414.645C378.831 412.778 379.601 410.989 380.965 409.669C382.329 408.349 384.176 407.604 386.105 407.596H446.919Z" fill="#4ABDAC" stroke="#263238" stroke-linecap="round" stroke-linejoin="round"/>
<path d="M364.383 407.596H334.268C330.255 407.596 327.002 410.745 327.002 414.63V414.645C327.002 418.529 330.255 421.678 334.268 421.678H364.383C368.396 421.678 371.65 418.529 371.65 414.645V414.63C371.65 410.745 368.396 407.596 364.383 407.596Z" fill="white" stroke="#263238" stroke-linecap="round" stroke-linejoin="round"/>
<path d="M482.546 477.068H134.736V567.016H482.546V477.068Z" fill="white" stroke="#263238" stroke-linecap="round" stroke-linejoin="round"/>
<path d="M402.749 502.431C404.288 502.431 404.919 503.296 404.919 504.726V505.844C404.919 507.334 404.196 508.124 402.672 508.124H401.702V511.819H400.624V502.431H402.749ZM402.672 507.185C403.472 507.185 403.857 506.812 403.857 505.918V504.667C403.857 503.817 403.534 503.385 402.749 503.385H401.702V507.23L402.672 507.185Z" fill="#263238"/>
<path d="M407.86 502.431C409.4 502.431 410.031 503.176 410.031 504.577V505.337C410.031 506.38 409.662 507.021 408.83 507.274C409.708 507.528 410.046 508.228 410.046 509.226V510.717C410.016 511.103 410.079 511.491 410.231 511.849H409.138C408.991 511.49 408.934 511.102 408.969 510.717V509.226C408.969 508.154 408.445 507.826 407.552 507.826H406.782V511.834H405.705V502.446L407.86 502.431ZM407.598 506.902C408.445 506.902 408.969 506.634 408.969 505.62V504.711C408.969 503.877 408.645 503.43 407.845 503.43H406.782V506.902H407.598Z" fill="#263238"/>
<path d="M411.139 504.696C411.139 503.206 411.878 502.342 413.356 502.342C414.834 502.342 415.589 503.266 415.589 504.696V509.554C415.614 509.852 415.576 510.152 415.476 510.435C415.375 510.717 415.216 510.977 415.007 511.197C414.798 511.417 414.544 511.592 414.261 511.712C413.978 511.832 413.673 511.894 413.364 511.894C413.055 511.894 412.75 511.832 412.467 511.712C412.184 511.592 411.93 511.417 411.721 511.197C411.512 510.977 411.352 510.717 411.252 510.435C411.152 510.152 411.114 509.852 411.139 509.554V504.696ZM412.217 509.614C412.217 510.463 412.586 510.955 413.356 510.955C414.126 510.955 414.511 510.463 414.511 509.614V504.637C414.511 503.802 414.157 503.296 413.356 503.296C412.556 503.296 412.217 503.802 412.217 504.637V509.614Z" fill="#263238"/>
<path d="M420.9 504.696V505.501H419.869V504.637C419.869 503.802 419.53 503.296 418.729 503.296C417.929 503.296 417.605 503.802 417.605 504.637V509.614C417.605 510.449 417.959 510.955 418.729 510.955C419.499 510.955 419.869 510.449 419.869 509.614V507.736H418.868V506.798H420.9V509.554C420.9 510.97 420.207 511.909 418.714 511.909C417.22 511.909 416.528 510.97 416.528 509.554V504.696C416.528 503.281 417.22 502.342 418.714 502.342C420.207 502.342 420.9 503.281 420.9 504.696Z" fill="#263238"/>
<path d="M424.087 502.431C425.626 502.431 426.242 503.176 426.242 504.577V505.337C426.242 506.38 425.873 507.021 425.041 507.274C425.934 507.528 426.258 508.228 426.258 509.226V510.717C426.224 511.105 426.293 511.494 426.458 511.849H425.365C425.211 511.491 425.148 511.103 425.18 510.717V509.226C425.18 508.154 424.672 507.826 423.764 507.826H423.009V511.834H421.916V502.446L424.087 502.431ZM423.81 506.902C424.672 506.902 425.18 506.634 425.18 505.62V504.711C425.18 503.877 424.857 503.43 424.056 503.43H423.009V506.902H423.81Z" fill="#263238"/>
<path d="M430.831 506.589V507.528H428.46V510.866H431.37V511.819H427.382V502.431H431.37V503.385H428.46V506.589H430.831Z" fill="#263238"/>
<path d="M436.574 504.682V504.935H435.573V504.637C435.573 503.787 435.25 503.296 434.464 503.296C433.679 503.296 433.356 503.787 433.356 504.622C433.356 506.723 436.62 506.917 436.62 509.569C436.62 510.985 435.912 511.909 434.418 511.909C432.925 511.909 432.247 510.985 432.247 509.569V509.033H433.264V509.614C433.264 510.463 433.618 510.955 434.403 510.955C435.188 510.955 435.527 510.463 435.527 509.614C435.527 507.528 432.294 507.319 432.294 504.682C432.294 503.191 432.986 502.342 434.434 502.342C435.881 502.342 436.574 503.266 436.574 504.682Z" fill="#263238"/>
<path d="M441.731 504.682V504.935H440.7V504.637C440.7 503.787 440.361 503.296 439.591 503.296C438.821 503.296 438.483 503.787 438.483 504.622C438.483 506.723 441.731 506.917 441.731 509.569C441.731 510.985 441.038 511.909 439.545 511.909C438.052 511.909 437.374 510.985 437.374 509.569V509.033H438.39V509.614C438.39 510.463 438.745 510.955 439.514 510.955C440.284 510.955 440.654 510.463 440.654 509.614C440.654 507.528 437.42 507.319 437.42 504.682C437.42 503.191 438.113 502.342 439.56 502.342C441.008 502.342 441.731 503.266 441.731 504.682Z" fill="#263238"/>
<path d="M333.236 502.431C334.775 502.431 335.438 503.31 335.438 504.771V509.495C335.438 510.985 334.745 511.819 333.236 511.819H330.957V502.431H333.236ZM333.236 510.866C334.006 510.866 334.391 510.404 334.391 509.539V504.711C334.391 503.847 334.006 503.385 333.22 503.385H332.05V510.836L333.236 510.866Z" fill="#263238"/>
<path d="M339.904 506.589V507.528H337.533V510.866H340.443V511.819H336.455V502.431H340.443V503.385H337.533V506.589H339.904Z" fill="#263238"/>
<path d="M342.535 509.927L342.15 511.819H341.165L343.013 502.431H344.552L346.415 511.819H345.322L344.952 509.927H342.535ZM342.674 509.033H344.829L343.736 503.609L342.674 509.033Z" fill="#263238"/>
<path d="M349.557 502.431C351.096 502.431 351.758 503.31 351.758 504.771V509.495C351.758 510.985 351.065 511.819 349.557 511.819H347.278V502.431H349.557ZM349.557 510.866C350.342 510.866 350.711 510.404 350.711 509.539V504.711C350.711 503.847 350.342 503.385 349.541 503.385H348.387V510.836L349.557 510.866Z" fill="#263238"/>
<path d="M352.774 511.819V502.431H353.851V510.866H356.623V511.819H352.774Z" fill="#263238"/>
<path d="M358.594 502.431V511.819H357.516V502.431H358.594Z" fill="#263238"/>
<path d="M360.579 511.819H359.609V502.431H360.979L363.227 509.212V502.431H364.182V511.819H363.073L360.579 504.249V511.819Z" fill="#263238"/>
<path d="M368.755 506.589V507.528H366.384V510.866H369.371V511.819H365.368V502.431H369.371V503.385H366.461V506.589H368.755Z" fill="#263238"/>
<path d="M269.467 513.161H289.728" stroke="#263238" stroke-linecap="round" stroke-linejoin="round"/>
<path d="M208.714 513.161H262.184" stroke="#263238" stroke-linecap="round" stroke-linejoin="round"/>
<path d="M151.964 513.161H200.616" stroke="#263238" stroke-linecap="round" stroke-linejoin="round"/>
<path d="M239.506 535.469H254.979" stroke="#263238" stroke-linecap="round" stroke-linejoin="round"/>
<path d="M199.8 535.469H226.543" stroke="#263238" stroke-linecap="round" stroke-linejoin="round"/>
<path d="M180.37 535.469H191.701" stroke="#263238" stroke-linecap="round" stroke-linejoin="round"/>
<path d="M151.964 535.469H173.888" stroke="#263238" stroke-linecap="round" stroke-linejoin="round"/>
<path d="M469.659 531.296C469.661 532.22 469.474 533.136 469.11 533.99C468.745 534.844 468.21 535.62 467.535 536.274C466.86 536.927 466.058 537.445 465.175 537.798C464.293 538.151 463.347 538.332 462.392 538.33H386.105C385.149 538.332 384.203 538.151 383.319 537.799C382.436 537.446 381.633 536.928 380.957 536.275C380.28 535.621 379.744 534.845 379.377 533.991C379.011 533.137 378.823 532.221 378.823 531.296C378.827 529.429 379.596 527.64 380.961 526.322C382.326 525.003 384.176 524.262 386.105 524.262H462.392C463.346 524.262 464.291 524.444 465.173 524.798C466.055 525.151 466.856 525.669 467.53 526.322C468.205 526.976 468.74 527.751 469.106 528.604C469.471 529.458 469.659 530.372 469.659 531.296Z" fill="white" stroke="#263238" stroke-linecap="round" stroke-linejoin="round"/>
<path d="M393.357 524.262V538.33H386.105C385.149 538.332 384.203 538.151 383.319 537.799C382.436 537.446 381.633 536.928 380.957 536.275C380.28 535.621 379.744 534.845 379.377 533.991C379.011 533.137 378.823 532.221 378.823 531.296C378.827 529.429 379.596 527.64 380.961 526.322C382.326 525.003 384.176 524.262 386.105 524.262H393.357Z" fill="#4ABDAC" stroke="#263238" stroke-linecap="round" stroke-linejoin="round"/>
<path d="M364.368 538.33H334.268C332.341 538.33 330.493 537.589 329.13 536.27C327.767 534.951 327.002 533.161 327.002 531.296V531.296C327.002 530.372 327.19 529.458 327.555 528.604C327.92 527.751 328.455 526.976 329.13 526.322C329.805 525.669 330.606 525.151 331.488 524.798C332.369 524.444 333.314 524.262 334.268 524.262H364.368C365.323 524.26 366.27 524.441 367.153 524.793C368.037 525.146 368.84 525.664 369.516 526.317C370.192 526.971 370.729 527.747 371.095 528.601C371.461 529.455 371.65 530.371 371.65 531.296V531.296C371.65 532.221 371.461 533.137 371.095 533.991C370.729 534.845 370.192 535.622 369.516 536.275C368.84 536.928 368.037 537.446 367.153 537.799C366.27 538.151 365.323 538.332 364.368 538.33V538.33Z" fill="white" stroke="#263238" stroke-linecap="round" stroke-linejoin="round"/>
<path d="M633.287 247.58H511.613C507.6 247.58 504.346 250.729 504.346 254.614V287.905C504.346 291.789 507.6 294.938 511.613 294.938H633.287C637.301 294.938 640.554 291.789 640.554 287.905V254.614C640.554 250.729 637.301 247.58 633.287 247.58Z" fill="#4ABDAC" stroke="#263238" stroke-linecap="round" stroke-linejoin="round"/>
<path d="M530.458 278.874L529.581 283.345H527.241L531.582 261.349H535.247L539.588 283.3H537.063L536.186 278.829L530.458 278.874ZM530.782 276.773H535.832L533.276 264.106L530.782 276.773Z" fill="white"/>
<path d="M546.87 261.349C550.411 261.349 552.028 263.421 552.028 266.804V277.876C552.028 281.229 550.411 283.3 546.87 283.3H541.558V261.349H546.87ZM546.87 281.08C548.687 281.08 549.564 279.977 549.564 277.965V266.684C549.564 264.673 548.687 263.585 546.839 263.585H544.114V281.08H546.87Z" fill="white"/>
<path d="M559.71 261.349C563.236 261.349 564.852 263.421 564.852 266.804V277.876C564.852 281.229 563.236 283.3 559.71 283.3H554.399V261.349H559.71ZM559.71 281.08C561.511 281.08 562.389 279.977 562.389 277.965V266.684C562.389 264.673 561.511 263.585 559.664 263.585H556.954V281.08H559.71Z" fill="white"/>
<path d="M575.554 283.3V263.585H571.366V261.349H582.251V263.585H578.079V283.3H575.554Z" fill="white"/>
<path d="M585.329 278.874L584.451 283.345H582.127L586.453 261.349H590.117L594.459 283.3H591.918L591.056 278.829L585.329 278.874ZM585.652 276.773H590.702L588.146 264.106L585.652 276.773Z" fill="white"/>
<path d="M606.269 266.625V267.221H603.867V266.491C603.867 264.524 603.082 263.361 601.28 263.361C599.479 263.361 598.678 264.524 598.678 266.461C598.678 271.393 606.299 271.855 606.299 278.04C606.299 281.363 604.637 283.524 601.173 283.524C597.708 283.524 596.092 281.363 596.092 278.04V276.773H598.447V278.159C598.447 280.141 599.294 281.288 601.111 281.288C602.928 281.288 603.774 280.141 603.774 278.159C603.774 273.271 596.184 272.794 596.184 266.625C596.184 263.227 597.801 261.126 601.203 261.126C604.606 261.126 606.269 263.302 606.269 266.625Z" fill="white"/>
<path d="M612.349 273.778L611.025 275.938V283.3H608.5V261.349H611.086V271.945L617.106 261.349H619.677L613.934 271.349L619.862 283.27H617.245L612.349 273.778Z" fill="white"/>
<path d="M523.807 58.8637C523.807 58.8637 505.917 66.4934 496.603 68.9075C487.288 71.3216 477.281 75.1514 474.771 82.7662C472.262 90.381 461.084 119.678 460.361 125.981C459.637 132.285 471.138 143.461 471.138 143.461H620.048C620.048 143.461 622.819 106.997 616.722 94.5237C610.625 82.0509 592.089 71.3961 586.762 69.3248C581.435 67.2534 567.486 60.5923 561.82 59.5641C556.154 58.5358 530.258 56.4347 523.807 58.8637Z" fill="white" stroke="#263238" stroke-linecap="round" stroke-linejoin="round"/>
<path d="M474.448 109.351C477.316 108.541 480.339 108.389 483.279 108.906C486.218 109.424 488.993 110.596 491.383 112.331" fill="white"/>
<path d="M474.448 109.351C477.316 108.541 480.339 108.389 483.279 108.906C486.218 109.424 488.993 110.596 491.383 112.331" stroke="#263238" stroke-linecap="round" stroke-linejoin="round"/>
<path d="M486.379 112.332C489.808 112.514 493.068 113.829 495.617 116.057Z" fill="white"/>
<path d="M486.379 112.332C489.808 112.514 493.068 113.829 495.617 116.057" stroke="#263238" stroke-linecap="round" stroke-linejoin="round"/>
<path d="M501.591 95.701C502.993 98.0228 503.596 100.715 503.315 103.39C502.865 108.517 501.592 113.545 499.543 118.292" stroke="#263238" stroke-linecap="round" stroke-linejoin="round"/>
<path d="M496.388 90.6494C497.801 91.4728 499.064 92.5149 500.129 93.7341" stroke="#263238" stroke-linecap="round" stroke-linejoin="round"/>
<path d="M505.517 95.2689C505.517 95.2689 508.396 103.659 506.78 110.439" stroke="#263238" stroke-linecap="round" stroke-linejoin="round"/>
<path d="M582.866 100.41C582.866 100.41 579.294 112.54 579.648 116.355" stroke="#263238" stroke-linecap="round" stroke-linejoin="round"/>
<path d="M525.933 88.5929L532.507 100.037L538.096 117.532L545.978 101.632L553.538 88.9207L538.742 86.6854L525.933 88.5929Z" fill="#92E3A9" stroke="#263238" stroke-linecap="round" stroke-linejoin="round"/>
<path d="M532.507 100.052L545.978 101.632" stroke="#263238" stroke-linecap="round" stroke-linejoin="round"/>
<path d="M525.24 68.2222C523.552 70.4385 522.223 72.8906 521.298 75.4942C519.866 79.6518 517.372 93.8533 517.372 93.8533C517.372 93.8533 531.321 93.1678 534.908 93.1678C538.496 93.1678 544.146 93.5105 545.285 93.5105C546.424 93.5105 562.467 102.869 562.467 102.869C562.467 102.869 565.331 86.9239 562.113 77.9232C558.895 68.9225 537.048 58.1783 525.24 68.2222Z" fill="white" stroke="#263238" stroke-linecap="round" stroke-linejoin="round"/>
<path d="M532.752 87.8776L538.417 99.4116L549.934 86.8345C549.934 86.8345 539.203 89.9788 532.752 87.8776Z" fill="white" stroke="#263238" stroke-linecap="round" stroke-linejoin="round"/>
<path d="M580.757 217.94L575.23 227.82C575.23 227.82 568.394 229.206 567.685 230.592C565.932 233.756 563.87 236.75 561.527 239.533C559.741 241.262 556.169 243.691 559.387 245.077C562.605 246.463 568.332 240.234 568.332 240.234L571.55 238.49C571.78 241.257 571.429 244.039 570.518 246.671C568.409 252.528 565.977 259.651 566.284 260.396C567.824 264.121 570.364 261.498 570.364 261.498L575.168 250.635L576.015 250.113C576.015 250.113 575.045 262.527 575.045 262.571C574.86 264.851 576.938 267.519 578.755 265.179L583.051 252.021V263.853C583.038 264.284 583.127 264.712 583.311 265.105C583.495 265.497 583.768 265.845 584.111 266.12C584.453 266.396 584.856 266.592 585.288 266.695C585.721 266.798 586.172 266.805 586.607 266.714L586.992 266.565C588.424 265.88 588.917 251.425 588.917 251.425L591.903 261.856C591.973 262.129 592.1 262.384 592.278 262.606C592.455 262.828 592.679 263.012 592.934 263.145C593.189 263.278 593.471 263.358 593.76 263.38C594.049 263.402 594.34 263.365 594.613 263.272C594.75 263.231 594.876 263.161 594.981 263.065C595.085 262.969 595.165 262.851 595.213 262.72C595.583 261.692 594.505 245.062 594.505 245.062L593.782 227.731L594.859 221.845L580.757 217.94Z" fill="white" stroke="#263238" stroke-linecap="round" stroke-linejoin="round"/>
<path d="M587.53 101.9C587.53 101.9 581.803 113.688 582.511 117.845C583.219 122.003 599.909 161.746 599.909 161.746L579.17 219.58L595.644 223.395C595.644 223.395 623.772 182.921 626.759 174.219C628.397 169.3 629.122 164.138 628.899 158.974C628.899 156.888 622.248 109.53 618.307 101.215C616.015 96.3152 613.002 91.7627 609.362 87.6989" fill="white"/>
<path d="M587.53 101.9C587.53 101.9 581.803 113.688 582.511 117.845C583.219 122.003 599.909 161.746 599.909 161.746L579.17 219.58L595.644 223.395C595.644 223.395 623.772 182.921 626.759 174.219C628.397 169.3 629.122 164.138 628.899 158.974C628.899 156.888 622.248 109.53 618.307 101.215C616.015 96.3152 613.002 91.7627 609.362 87.6989" stroke="#263238" stroke-linecap="round" stroke-linejoin="round"/>
<path d="M602.418 160.285C602.418 160.285 608.854 151.613 612.795 146.069" stroke="#263238" stroke-linecap="round" stroke-linejoin="round"/>
<path d="M611.718 142.955L603.851 152.656" stroke="#263238" stroke-linecap="round" stroke-linejoin="round"/>
<path d="M580.603 213.962L598.139 218.12" stroke="#263238" stroke-linecap="round" stroke-linejoin="round"/>
<path d="M465.949 116.072C464.269 117.486 462.784 119.104 461.531 120.885C458.298 125.356 460.099 135.087 462.239 138.201C464.379 141.316 473.016 143.402 473.016 143.402H542.513L543.914 132.032H541.374C541.374 132.032 528.857 128.217 519.897 125.788C510.936 123.359 493.339 116.161 488.042 115.059C483.995 114.219 479.828 114.062 475.726 114.597" fill="white"/>
<path d="M465.949 116.072C464.269 117.486 462.784 119.104 461.531 120.885C458.298 125.356 460.099 135.087 462.239 138.201C464.379 141.316 473.016 143.402 473.016 143.402H542.513L543.914 132.032H541.374C541.374 132.032 528.857 128.217 519.897 125.788C510.936 123.359 493.339 116.161 488.042 115.059C483.995 114.219 479.828 114.062 475.726 114.597" stroke="#263238" stroke-linecap="round" stroke-linejoin="round"/>
<path d="M554.215 143.402L553.86 142.97C553.86 142.97 561.081 142.329 562.067 142.016C563.366 141.725 564.682 141.511 566.008 141.375L576.446 143.402H586.808L585.73 141.673L576.493 136.13L568.502 132.27C560.204 128.247 550.242 133.209 541.405 131.972L543.083 132.181L541.682 143.402H554.215Z" fill="white" stroke="#263238" stroke-linecap="round" stroke-linejoin="round"/>
<path d="M568.641 135.653L585.068 142.657" stroke="#263238" stroke-linecap="round" stroke-linejoin="round"/>
<path d="M536.771 131.525L536.34 143.059" stroke="#263238" stroke-linecap="round" stroke-linejoin="round"/>
<path d="M523.099 48.477C520.226 44.6059 518.492 40.0533 518.08 35.3038C517.726 28.0318 521.297 26.6459 521.297 26.6459C521.297 26.6459 515.94 18.3307 527.748 13.4727C539.557 8.61469 557.462 5.85785 567.485 11.0586C577.508 16.2593 581.08 28.3745 580.726 36.6897C580.372 45.0049 575.353 54.706 575.353 54.706L567.485 64.0643C567.485 64.0643 562.466 65.793 561.327 63.7216C560.188 61.6502 554.229 55.4064 551.042 55.4064C547.855 55.4064 539.588 55.4064 535.292 53.6629C530.997 51.9194 523.099 48.477 523.099 48.477Z" fill="#263238" stroke="#263238" stroke-linecap="round" stroke-linejoin="round"/>
<path d="M522.375 38.0757C522.375 38.0757 522.021 59.2065 522.021 63.7217C522.021 68.237 522.021 72.6628 524.161 77.2228C526.301 81.7827 528.102 93.8532 537.771 94.5536C547.44 95.254 561.388 85.6125 563.944 80.3521C566.5 75.0918 567.839 66.1358 567.839 66.1358C567.839 66.1358 576.43 60.5923 577.862 54.0206C579.294 47.4489 576.43 44.3195 574.644 47.434C572.858 50.5485 570.349 58.521 569.271 59.2065C568.193 59.8919 566.761 55.0489 566.761 55.0489C566.761 55.0489 561.388 57.1351 560.68 55.0489C559.972 52.9626 563.544 42.9337 563.544 42.9337C563.544 42.9337 551.735 46.0482 549.225 46.0482C546.541 45.7495 543.898 45.1699 541.343 44.3195L551.735 50.5485C547.2 52.3692 542.182 52.7348 537.417 51.5916C530.258 49.5054 524.884 38.0757 524.884 38.0757H522.375Z" fill="white" stroke="#263238" stroke-linecap="round" stroke-linejoin="round"/>
<path d="M533.123 60.2495V64.4071C533.123 64.4071 528.504 76.1945 529.181 78.2658C529.859 80.3372 536.34 79.3089 537.772 78.6086" fill="white"/>
<path d="M533.123 60.2495V64.4071C533.123 64.4071 528.504 76.1945 529.181 78.2658C529.859 80.3372 536.34 79.3089 537.772 78.6086" stroke="#263238" stroke-linecap="round" stroke-linejoin="round"/>
<path d="M532.398 81.7379C534.509 82.9256 536.894 83.5796 539.335 83.6395C541.775 83.6994 544.192 83.1633 546.362 82.0807" fill="white"/>
<path d="M532.398 81.7379C534.509 82.9256 536.894 83.5796 539.335 83.6395C541.775 83.6994 544.192 83.1633 546.362 82.0807" stroke="#263238" stroke-linecap="round" stroke-linejoin="round"/>
<path d="M542.774 66.1357C544.57 67.3692 546.643 68.1708 548.823 68.474C551.002 68.7772 553.225 68.5733 555.307 67.8793" fill="white"/>
<path d="M542.774 66.1357C544.57 67.3692 546.643 68.1708 548.823 68.474C551.002 68.7772 553.225 68.5733 555.307 67.8793" stroke="#263238" stroke-linecap="round" stroke-linejoin="round"/>
<path d="M543.146 59.907C543.146 59.907 551.044 57.1949 556.032 62.336Z" fill="white"/>
<path d="M543.146 59.907C543.146 59.907 551.044 57.1949 556.032 62.336" stroke="#263238" stroke-linecap="round" stroke-linejoin="round"/>
<path d="M524.87 60.5923C524.87 60.5923 526.302 63.7217 533.107 64.4071Z" fill="white"/>
<path d="M524.87 60.5923C524.87 60.5923 526.302 63.7217 533.107 64.4071" stroke="#263238" stroke-linecap="round" stroke-linejoin="round"/>
<path d="M531.689 57.1947C531.689 57.1947 529.18 53.0371 525.531 54.423Z" fill="white"/>
<path d="M531.689 57.1947C531.689 57.1947 529.18 53.0371 525.531 54.423" stroke="#263238" stroke-linecap="round" stroke-linejoin="round"/>
<path d="M538.094 117.532L527.902 205.617L541.05 223.424L553.197 205.617L538.094 117.532Z" fill="#4ABDAC" stroke="#263238" stroke-linecap="round" stroke-linejoin="round"/>
<path d="M143.188 332.103V346.603C143.188 346.603 296.501 340.538 482.546 337.528L143.188 332.103Z" fill="#263238" stroke="#263238" stroke-linecap="round" stroke-linejoin="round"/>
<path d="M482.546 247.58H134.736V337.528H482.546V247.58Z" fill="white" stroke="#263238" stroke-linecap="round" stroke-linejoin="round"/>
<path d="M402.75 270.768C404.289 270.768 404.921 271.632 404.921 273.062V274.18C404.921 275.67 404.197 276.445 402.673 276.445H401.703V280.156H400.625V270.768H402.75ZM402.673 275.506C403.473 275.506 403.858 275.149 403.858 274.255V273.003C403.858 272.153 403.535 271.721 402.75 271.721H401.703V275.506H402.673Z" fill="#263238"/>
<path d="M407.86 270.768C409.4 270.768 410.031 271.513 410.031 272.913V273.673C410.031 274.702 409.662 275.357 408.83 275.611C409.708 275.864 410.047 276.564 410.047 277.563V279.053C410.017 279.439 410.081 279.827 410.231 280.186H409.138C408.99 279.821 408.932 279.428 408.969 279.038V277.548C408.969 276.49 408.445 276.162 407.552 276.162H406.783V280.171H405.705V270.782L407.86 270.768ZM407.599 275.238C408.445 275.238 408.969 274.97 408.969 273.942V273.048C408.969 272.198 408.646 271.766 407.845 271.766H406.783V275.238H407.599Z" fill="#263238"/>
<path d="M411.14 273.033C411.14 271.542 411.879 270.663 413.357 270.663C414.835 270.663 415.59 271.602 415.59 273.033V277.891C415.615 278.188 415.577 278.488 415.477 278.771C415.377 279.054 415.217 279.313 415.008 279.533C414.799 279.753 414.545 279.928 414.262 280.049C413.979 280.169 413.674 280.231 413.365 280.231C413.056 280.231 412.751 280.169 412.468 280.049C412.185 279.928 411.931 279.753 411.722 279.533C411.513 279.313 411.354 279.054 411.253 278.771C411.153 278.488 411.115 278.188 411.14 277.891V273.033ZM412.218 277.935C412.218 278.8 412.588 279.291 413.357 279.291C414.127 279.291 414.512 278.8 414.512 277.935V272.973C414.512 272.138 414.158 271.617 413.357 271.617C412.557 271.617 412.218 272.138 412.218 272.973V277.935Z" fill="#263238"/>
<path d="M420.901 273.033V273.837H419.87V272.973C419.87 272.138 419.531 271.617 418.73 271.617C417.93 271.617 417.607 272.138 417.607 272.973V277.935C417.607 278.785 417.961 279.291 418.73 279.291C419.5 279.291 419.87 278.785 419.87 277.935V276.058H418.869V275.119H420.901V277.891C420.901 279.381 420.208 280.245 418.715 280.245C417.222 280.245 416.529 279.306 416.529 277.891V273.033C416.529 271.542 417.222 270.663 418.715 270.663C420.208 270.663 420.901 271.602 420.901 273.033Z" fill="#263238"/>
<path d="M424.088 270.768C425.628 270.768 426.244 271.513 426.244 272.913V273.673C426.244 274.702 425.874 275.357 425.043 275.611C425.936 275.864 426.259 276.564 426.259 277.563V279.053C426.227 279.441 426.296 279.83 426.459 280.186H425.366C425.211 279.823 425.148 279.429 425.181 279.038V277.548C425.181 276.49 424.673 276.162 423.765 276.162H423.01V280.171H421.917V270.782L424.088 270.768ZM423.811 275.238C424.673 275.238 425.181 274.97 425.181 273.942V273.048C425.181 272.198 424.858 271.766 424.057 271.766H423.01V275.238H423.811Z" fill="#263238"/>
<path d="M430.831 274.925V275.864H428.46V279.232H431.37V280.185H427.382V270.797H431.37V271.781H428.46V274.985L430.831 274.925Z" fill="#263238"/>
<path d="M436.575 273.018V273.271H435.574V272.958C435.574 272.124 435.251 271.617 434.466 271.617C433.681 271.617 433.357 272.124 433.357 272.958C433.357 275.059 436.621 275.253 436.621 277.905C436.621 279.321 435.913 280.245 434.42 280.245C432.926 280.245 432.249 279.321 432.249 277.905V277.369H433.265V277.95C433.265 278.8 433.619 279.291 434.404 279.291C435.189 279.291 435.528 278.8 435.528 277.95C435.528 275.864 432.295 275.655 432.295 273.018C432.295 271.528 432.988 270.663 434.435 270.663C435.882 270.663 436.575 271.602 436.575 273.018Z" fill="#263238"/>
<path d="M441.73 273.018V273.271H440.699V272.958C440.699 272.124 440.36 271.617 439.59 271.617C438.821 271.617 438.482 272.124 438.482 272.958C438.482 275.059 441.73 275.253 441.73 277.905C441.73 279.321 441.038 280.245 439.544 280.245C438.051 280.245 437.373 279.321 437.373 277.905V277.369H438.389V277.95C438.389 278.8 438.744 279.291 439.513 279.291C440.283 279.291 440.653 278.8 440.653 277.95C440.653 275.864 437.42 275.655 437.42 273.018C437.42 271.528 438.112 270.663 439.56 270.663C441.007 270.663 441.73 271.602 441.73 273.018Z" fill="#263238"/>
<path d="M333.236 270.768C334.776 270.768 335.438 271.647 335.438 273.092V277.831C335.438 279.321 334.745 280.156 333.236 280.156H330.957V270.768H333.236ZM333.236 279.202C334.006 279.202 334.391 278.74 334.391 277.876V273.048C334.391 272.183 334.006 271.721 333.221 271.721H332.051V279.172L333.236 279.202Z" fill="#263238"/>
<path d="M339.903 274.925V275.864H337.532V279.232H340.442V280.185H336.454V270.797H340.442V271.781H337.532V274.985L339.903 274.925Z" fill="#263238"/>
<path d="M342.535 278.263L342.151 280.156H341.165L343.013 270.768H344.552L346.415 280.156H345.322L344.953 278.263H342.535ZM342.674 277.369H344.829L343.736 271.945L342.674 277.369Z" fill="#263238"/>
<path d="M349.556 270.768C351.095 270.768 351.757 271.647 351.757 273.092V277.831C351.757 279.321 351.064 280.156 349.556 280.156H347.277V270.768H349.556ZM349.556 279.202C350.341 279.202 350.71 278.74 350.71 277.876V273.048C350.71 272.183 350.341 271.721 349.54 271.721H348.386V279.172L349.556 279.202Z" fill="#263238"/>
<path d="M352.774 280.156V270.768H353.852V279.232H356.623V280.186L352.774 280.156Z" fill="#263238"/>
<path d="M358.593 270.768V280.156H357.515V270.768H358.593Z" fill="#263238"/>
<path d="M360.579 280.156H359.609V270.768H360.98L363.227 277.548V270.768H364.182V280.156H363.073L360.579 272.556V280.156Z" fill="#263238"/>
<path d="M368.755 274.925V275.864H366.384V279.232H369.371V280.185H365.368V270.797H369.371V271.781H366.461V274.985L368.755 274.925Z" fill="#263238"/>
<path d="M269.466 281.497H289.727" stroke="#263238" stroke-linecap="round" stroke-linejoin="round"/>
<path d="M208.713 281.497H262.183" stroke="#263238" stroke-linecap="round" stroke-linejoin="round"/>
<path d="M151.965 281.497H200.616" stroke="#263238" stroke-linecap="round" stroke-linejoin="round"/>
<path d="M239.506 303.805H254.979" stroke="#263238" stroke-linecap="round" stroke-linejoin="round"/>
<path d="M199.799 303.805H226.542" stroke="#263238" stroke-linecap="round" stroke-linejoin="round"/>
<path d="M180.369 303.805H191.7" stroke="#263238" stroke-linecap="round" stroke-linejoin="round"/>
<path d="M151.965 303.805H173.888" stroke="#263238" stroke-linecap="round" stroke-linejoin="round"/>
<path d="M469.66 299.632C469.662 300.557 469.476 301.472 469.111 302.326C468.747 303.181 468.211 303.957 467.536 304.61C466.861 305.264 466.059 305.782 465.177 306.135C464.294 306.487 463.348 306.668 462.393 306.666H386.106C385.151 306.668 384.204 306.487 383.321 306.135C382.437 305.782 381.634 305.264 380.958 304.611C380.281 303.958 379.745 303.182 379.379 302.327C379.012 301.473 378.824 300.557 378.824 299.632C378.832 297.765 379.602 295.977 380.966 294.657C382.33 293.337 384.177 292.592 386.106 292.584H462.393C463.349 292.584 464.295 292.766 465.178 293.121C466.06 293.475 466.862 293.994 467.537 294.649C468.212 295.304 468.747 296.081 469.111 296.936C469.476 297.791 469.662 298.707 469.66 299.632V299.632Z" fill="white" stroke="#263238" stroke-linecap="round" stroke-linejoin="round"/>
<path d="M364.367 306.666H334.268C332.34 306.666 330.492 305.925 329.129 304.606C327.766 303.287 327.001 301.498 327.001 299.632V299.632C327.013 297.775 327.784 295.997 329.145 294.688C330.507 293.378 332.348 292.643 334.268 292.643H364.367C365.323 292.643 366.27 292.826 367.153 293.18C368.037 293.534 368.84 294.053 369.516 294.708C370.192 295.362 370.729 296.139 371.095 296.995C371.461 297.85 371.649 298.766 371.649 299.692C371.633 301.55 370.858 303.326 369.493 304.632C368.129 305.939 366.286 306.67 364.367 306.666V306.666Z" fill="white" stroke="#263238" stroke-linecap="round" stroke-linejoin="round"/>
<path d="M165.406 352.251C165.406 352.251 170.548 339.301 171.564 337.975C172.58 336.649 174.304 333.325 177.399 333.325C180.494 333.325 185.975 333.653 188.376 332.655C190.778 331.656 193.857 331.656 193.18 333.653C192.502 335.65 188.376 336.306 188.376 336.306L206.205 337.647C206.205 337.647 201.063 342.281 198.661 343.28C196.2 344.124 193.679 344.792 191.117 345.277C188.985 346.666 186.677 347.783 184.25 348.6C181.99 349.07 179.702 349.404 177.399 349.598L173.627 356.23L165.406 352.251Z" fill="white" stroke="#263238" stroke-linecap="round" stroke-linejoin="round"/>
<path d="M188.391 336.291L180.493 338.288" stroke="#263238" stroke-linecap="round" stroke-linejoin="round"/>
<path d="M122.866 294.789L117.031 304.431L120.464 312.06L130.071 305.086L134.875 301.763V281.839L122.866 294.789Z" fill="white" stroke="#263238" stroke-linecap="round" stroke-linejoin="round"/>
<path d="M121.496 300.094C121.496 300.094 124.236 286.474 125.606 284.82C126.977 283.166 132.473 279.172 134.182 278.859C135.891 278.546 138.308 279.515 136.938 281.512C135.225 283.41 133.264 285.083 131.103 286.489C131.103 286.489 133.505 293.135 131.78 296.786C130.593 299.085 128.671 300.951 126.299 302.106" fill="white"/>
<path d="M121.496 300.094C121.496 300.094 124.236 286.474 125.606 284.82C126.977 283.166 132.473 279.172 134.182 278.859C135.891 278.546 138.308 279.515 136.938 281.512C135.225 283.41 133.264 285.083 131.103 286.489C131.103 286.489 133.505 293.135 131.78 296.786C130.593 299.085 128.671 300.951 126.299 302.106" stroke="#263238" stroke-linecap="round" stroke-linejoin="round"/>
<path d="M117.385 301.763L123.204 316.039L93.367 337.96L86.8545 315.384L117.385 301.763Z" fill="#92E3A9" stroke="#263238" stroke-linecap="round" stroke-linejoin="round"/>
<path d="M103.79 541.25L104.944 555.407C104.944 555.407 97.2462 571.054 98.016 584.838C98.7858 598.622 100.325 638.485 100.325 640.72C100.325 642.955 96.4764 645.563 99.1707 654.877C99.9251 657.47 106.484 655.622 113.027 659.72C119.57 663.818 127.653 666.426 132.657 666.426C137.661 666.426 140.355 666.426 140.355 664.19C140.355 661.955 133.042 658.975 129.963 655.994C125.127 650.674 120.628 645.076 116.491 639.23C115.721 637.74 119.185 615.759 121.495 607.191C123.804 598.622 130.348 578.132 133.042 563.603C135.736 549.074 136.891 537.152 136.891 537.152L103.79 541.25Z" fill="white" stroke="#263238" stroke-linecap="round" stroke-linejoin="round"/>
<path d="M99.1714 654.877L99.9412 664.936H105.33L107.639 656.74C107.639 656.74 101.096 654.504 99.1714 654.877Z" fill="#263238" stroke="#263238" stroke-linecap="round" stroke-linejoin="round"/>
<path d="M132.658 666.426C137.631 665.949 140.356 666.426 140.356 664.19C140.356 661.955 133.043 658.975 129.964 655.994C125.778 651.398 121.837 646.599 118.155 641.614C116.567 642.815 114.652 643.54 112.643 643.7C106.87 644.073 100.327 640.72 100.327 640.72C100.327 642.955 96.4777 645.563 99.172 654.877C99.9264 657.47 106.701 657.008 111.981 663.147C116.97 668.944 131.904 666.5 132.658 666.426Z" fill="#263238" stroke="#263238" stroke-linecap="round" stroke-linejoin="round"/>
<path d="M58.7573 530.447L59.5271 551.309C59.5271 551.309 49.5197 564.348 47.5952 577.015C45.6707 589.681 39.1274 639.23 39.1274 644.073C39.1274 648.916 36.0482 664.563 37.5878 665.681C39.1274 666.798 56.8328 665.681 56.8328 665.681C57.4576 664.012 57.7197 662.236 57.6026 660.465C57.6026 656.74 54.5234 644.446 55.2932 641.465C56.063 638.485 58.7573 629.171 58.7573 629.171C58.7573 629.171 70.6891 598.995 75.6928 589.681C80.6965 580.368 84.9304 566.956 87.6247 558.76C90.319 550.564 92.6283 539.015 92.6283 539.015L58.7573 530.447Z" fill="white" stroke="#263238" stroke-linecap="round" stroke-linejoin="round"/>
<path d="M55.2008 642.031C49.8584 634.759 41.1443 639.2 39.4353 640.169C39.2352 642.091 39.1274 643.462 39.1274 644.073C39.1274 648.916 36.0482 664.563 37.5878 665.681C39.1274 666.798 56.8328 665.681 56.8328 665.681C57.4576 664.012 57.7197 662.236 57.6026 660.465C57.6026 656.948 54.8467 645.816 55.2008 642.031Z" fill="#263238" stroke="#263238" stroke-linecap="round" stroke-linejoin="round"/>
<path d="M56.8325 665.681C56.0627 663.445 50.6741 654.504 50.6741 654.504L40.6667 654.877C37.2027 658.602 37.5876 665.681 37.5876 665.681C39.1271 666.798 56.8325 665.681 56.8325 665.681Z" fill="#8C8C8C" stroke="#263238" stroke-linecap="round" stroke-linejoin="round"/>
<path d="M50.6743 654.504C50.6743 654.504 47.2102 651.524 44.5159 652.642C43.1095 653.167 41.8073 653.923 40.6669 654.877L41.0518 666.053H47.98L50.6743 654.504Z" fill="#263238" stroke="#263238" stroke-linecap="round" stroke-linejoin="round"/>
<path d="M50.2893 456.31C48.2307 461.816 47.0622 467.596 46.8252 473.447C46.4403 483.133 49.1346 530.819 49.1346 530.819C49.1346 530.819 68.3796 543.486 100.711 544.603C133.043 545.721 148.054 537.152 148.054 537.152C148.054 537.152 147.284 479.78 143.435 465.996C139.586 452.212 132.658 446.624 132.658 446.624C132.658 446.624 117.262 451.094 93.7829 450.722C80.4398 450.626 67.1469 449.127 54.1383 446.251L50.2893 456.31Z" fill="#263238" stroke="#263238" stroke-linecap="round" stroke-linejoin="round"/>
<path d="M60.4354 341.611C60.4354 341.611 50.8283 358.867 49.4581 371.489C48.0878 384.111 60.7741 422.617 60.7741 423.943C60.7741 425.27 47.4104 458.471 47.4104 458.471C57.9123 462.83 68.7939 466.276 79.9266 468.768C97.0777 472.419 114.568 470.094 118.001 469.096L122.466 456.161L124.175 467.114C124.175 467.114 124.175 467.442 129.671 466.115C135.167 464.789 141.988 459.141 141.988 459.141C141.988 459.141 133.073 438.89 128.609 433.242C124.144 427.594 118.663 414.66 118.663 414.66L120.711 398.059C120.711 398.059 136.106 410.338 137.523 410.666C138.939 410.994 160.17 386.823 164.62 379.789C169.069 372.756 176.29 354.888 176.29 354.888L166.144 349.911L162.033 353.89L137.677 379.461C137.677 379.461 122.928 363.189 115.722 360.536C108.517 357.884 94.7991 353.89 94.7991 353.89L67.0094 347.586L69.0725 341.939C69.0725 341.939 67.6099 337.96 60.4354 341.611Z" fill="#4ABDAC" stroke="#263238" stroke-linecap="round" stroke-linejoin="round"/>
<path d="M120.819 398.059L105.33 389.252L119.433 405.748L120.819 398.059Z" fill="#263238" stroke="#263238" stroke-linecap="round" stroke-linejoin="round"/>
<path d="M88.2872 418.609C89.7292 420.248 91.3102 421.769 93.0138 423.154" stroke="#263238" stroke-linecap="round" stroke-linejoin="round"/>
<path d="M69.4108 386.167C69.4108 386.167 76.031 402.678 85.1454 414.749" stroke="#263238" stroke-linecap="round" stroke-linejoin="round"/>
<path d="M76.7245 411.187C80.4243 417.052 84.7541 422.521 89.6417 427.505" stroke="#263238" stroke-linecap="round" stroke-linejoin="round"/>
<path d="M105.038 289.484C106.4 292.123 107.434 294.91 108.117 297.785C109.487 303.09 114.275 305.757 116.015 305.414C117.755 305.072 117.724 309.065 116.692 311.062C115.96 312.397 115.037 313.626 113.952 314.713C113.741 319.382 113.284 324.037 112.582 328.661C111.55 334.622 111.211 339.286 108.81 339.286H96.4928C96.4928 339.286 95.4613 344.591 95.1072 348.913C94.7531 353.234 94.7685 353.89 94.7685 353.89L66.9788 347.586L70.058 338.288C70.058 338.288 52.5682 330.658 61.1437 316.71C69.7193 302.762 89.9341 285.193 105.038 289.484Z" fill="white" stroke="#263238" stroke-linecap="round" stroke-linejoin="round"/>
<path d="M96.4618 339.286L90.7653 338.839L95.2609 346.454L96.4618 339.286Z" fill="#263238" stroke="#263238" stroke-linecap="round" stroke-linejoin="round"/>
<path d="M113.26 322.015C112.24 322.627 111.077 322.979 109.88 323.039C108.682 323.098 107.488 322.864 106.409 322.358" stroke="#263238" stroke-linecap="round" stroke-linejoin="round"/>
<path d="M102.636 301.436C102.636 301.436 103.313 295.132 106.746 295.475" stroke="#263238" stroke-linecap="round" stroke-linejoin="round"/>
<path d="M108.055 304.073C108.64 305.816 108.594 307.381 107.962 307.59C107.331 307.798 106.423 306.517 105.776 304.773C105.13 303.03 105.237 301.465 105.869 301.256C106.5 301.048 107.485 302.315 108.055 304.073Z" fill="#263238"/>
<path d="M105.038 279.515L105.161 279.664C108.794 284.239 108.24 289.335 105.377 294.134C99.6647 303.894 82.2826 312.969 82.2826 321.031C82.2826 329.093 91.0583 328.676 91.0583 328.676C91.0583 328.676 94.5686 335.903 85.7929 342.266C77.0172 348.63 59.004 350.328 47.5956 338.839C44.4586 335.573 42.1731 331.629 40.9291 327.335C37.465 316.158 36.9724 303.73 42.0684 293.597C46.3485 285.103 51.306 278.218 60.2202 273.942C67.2408 270.604 78.3259 269.769 86.1624 270.216C89.9892 270.357 93.748 271.238 97.2167 272.809C100.263 274.513 102.923 276.794 105.038 279.515V279.515Z" fill="#263238" stroke="#263238" stroke-linecap="round" stroke-linejoin="round"/>
<path d="M81.0501 335.531C82.7438 335.263 84.4014 334.813 85.9922 334.19" stroke="#757575" stroke-linecap="round" stroke-linejoin="round"/>
<path d="M96.0308 298.276C93.6426 301.632 90.6552 304.549 87.2089 306.89C75.1077 315.086 61.8056 323.669 67.8562 331.463C68.8977 332.797 70.2381 333.886 71.7767 334.648C73.3153 335.409 75.0121 335.823 76.7397 335.859" stroke="#757575" stroke-linecap="round" stroke-linejoin="round"/>
<path d="M101.312 286.593C100.826 288.903 100.045 291.146 98.9875 293.269" stroke="#757575" stroke-linecap="round" stroke-linejoin="round"/>
<path d="M72.4597 309.557C70.489 312.195 68.0102 315.294 65.0388 318.588C56.571 327.961 57.7719 347.065 76.7243 345.515" stroke="#757575" stroke-linecap="round" stroke-linejoin="round"/>
<path d="M77.9255 301.421C77.9255 301.421 77.0325 303.075 75.3082 305.578" stroke="#757575" stroke-linecap="round" stroke-linejoin="round"/>
</svg>
