<svg width="538" height="564" viewBox="0 0 538 564" fill="none" xmlns="http://www.w3.org/2000/svg">
<path d="M42.7585 563.62C42.7585 563.62 20.6006 452.212 20.6006 429.271C20.6006 397.585 45.4957 384.91 45.4957 384.91L35.7983 358.002H89.1598L80.7919 384.758C80.7919 384.758 108.88 399.245 104.97 432.135C97.6319 493.644 85.9664 563.607 85.9664 563.607L42.7585 563.62Z" fill="#F5F5F5"/>
<path d="M93.6567 397.584C93.4572 397.601 93.2566 397.601 93.0572 397.584C92.4815 397.524 91.9025 397.499 91.3236 397.508C89.0782 397.541 86.8623 398.011 84.8066 398.89C81.5811 400.294 78.7345 402.407 76.4908 405.062C75.0719 406.702 73.7946 408.453 72.6719 410.297C71.3821 412.345 70.262 414.489 69.3221 416.71C68.2805 419.117 67.7528 421.704 67.7711 424.315C67.8538 427.135 68.9728 429.833 70.9253 431.92C71.9502 433.004 73.2556 433.8 74.7052 434.226C76.1965 434.651 77.7872 434.611 79.2541 434.112C80.7761 433.542 82.1433 432.64 83.2506 431.476C84.3578 430.311 85.1755 428.915 85.6408 427.395C86.0968 425.786 86.1318 424.093 85.7425 422.468C85.3532 420.843 84.552 419.338 83.4119 418.092C81.0771 415.396 77.8521 413.573 74.2881 412.933C70.5622 412.379 66.7516 412.817 63.2613 414.201C59.6389 415.592 56.2884 417.577 53.3554 420.069C47.4152 424.922 43.3099 431.563 41.6899 438.941C40.9425 442.41 41.0138 445.998 41.8984 449.436C42.6361 452.74 44.4674 455.719 47.1121 457.915C48.3716 458.954 49.8997 459.638 51.5306 459.892C53.1054 460.127 54.7153 459.818 56.0795 459.017C57.3475 458.172 58.3819 457.036 59.0912 455.71C59.8005 454.384 60.1628 452.908 60.1461 451.413C60.1933 449.991 59.9034 448.577 59.2989 447.281C58.6609 446.038 57.7747 444.93 56.6921 444.024C54.6375 442.323 52.1461 441.197 49.4843 440.766C44.9051 440.057 40.2134 440.865 36.1634 443.06C33.0562 444.692 30.3519 446.963 28.2387 449.714C26.8804 451.438 25.7993 453.353 25.0323 455.393C24.4979 456.787 24.3155 457.56 24.2764 457.547C24.4182 456.797 24.6231 456.059 24.889 455.342C25.6032 453.261 26.6501 451.302 27.9911 449.537C30.096 446.713 32.8208 444.379 35.9679 442.705C40.1333 440.397 44.9854 439.542 49.7189 440.285C52.4839 440.715 55.0754 441.872 57.2135 443.631C58.3411 444.579 59.2666 445.733 59.9376 447.027C60.5866 448.406 60.9031 449.91 60.863 451.425C60.8752 453.022 60.4832 454.597 59.7218 456.012C58.9603 457.426 57.8527 458.637 56.4966 459.537C54.9987 460.426 53.226 460.772 51.4915 460.513C49.7383 460.254 48.0924 459.53 46.7341 458.422C43.9394 456.135 41.9971 453.017 41.2076 449.55C40.2833 446.011 40.1986 442.314 40.96 438.738C42.6199 431.222 46.8069 424.457 52.8601 419.511C55.8646 416.963 59.2939 414.931 63.0006 413.504C66.6241 412.088 70.5733 411.65 74.4315 412.236C78.1823 412.9 81.576 414.819 84.0245 417.661C85.1915 419.054 86.0361 420.675 86.501 422.414C86.9497 424.13 86.9001 425.933 86.3576 427.623C85.8547 429.242 84.9762 430.728 83.7898 431.965C82.6034 433.202 81.1409 434.158 79.5147 434.759C77.9146 435.292 76.1836 435.327 74.5618 434.86C72.9995 434.388 71.5984 433.511 70.5082 432.325C68.4584 430.105 67.2892 427.247 67.2106 424.264C67.1992 421.563 67.7582 418.888 68.8529 416.406C69.8279 414.173 70.9784 412.016 72.2939 409.955C73.4395 408.095 74.7478 406.336 76.2041 404.695C78.501 402.014 81.4175 399.898 84.7153 398.522C86.8003 397.662 89.0458 397.23 91.3106 397.255C92.1027 397.281 92.8894 397.391 93.6567 397.584V397.584Z" fill="#E0E0E0"/>
<path d="M95.0381 481.743C95.1768 483.64 95.0142 485.547 94.5558 487.396C94.0779 489.603 93.2883 491.736 92.2097 493.733C90.8091 496.379 88.9127 498.747 86.6181 500.716C83.8299 503.106 80.4899 504.806 76.8816 505.672C72.7277 506.721 68.3597 506.659 64.2386 505.495C59.6813 504.149 55.6913 501.411 52.8598 497.687C49.7053 493.712 48.1483 488.756 48.4804 483.745C48.611 481.164 49.7372 478.724 51.6346 476.914C52.6281 476.1 53.8179 475.545 55.0924 475.301C56.3669 475.057 57.6842 475.133 58.9207 475.52C60.1165 475.84 61.2326 476.394 62.2007 477.148C63.1688 477.902 63.9687 478.84 64.5514 479.905C65.5867 481.99 65.8492 484.358 65.2943 486.61C64.8088 488.737 63.7519 490.7 62.2313 492.301C60.7976 493.785 59.0561 494.955 57.122 495.735C53.6595 497.102 49.8897 497.565 46.1864 497.079C43.149 496.712 40.2018 495.829 37.4796 494.468C35.4249 493.457 33.5218 492.177 31.8229 490.666C30.3397 489.415 29.0646 487.948 28.043 486.318C28.1415 486.4 28.2291 486.494 28.3037 486.597L29.0075 487.459C29.9354 488.525 30.9417 489.525 32.0184 490.45C33.7282 491.901 35.6255 493.128 37.6621 494.1C40.35 495.402 43.2536 496.23 46.2385 496.547C49.8428 496.994 53.5046 496.518 56.8613 495.165C58.711 494.414 60.3734 493.286 61.736 491.857C63.1602 490.336 64.149 488.479 64.6035 486.47C65.1086 484.37 64.8603 482.166 63.8997 480.222C63.3543 479.246 62.611 478.388 61.7149 477.7C60.8188 477.011 59.7884 476.507 58.6861 476.217C57.5779 475.877 56.3995 475.815 55.2601 476.037C54.1208 476.258 53.0575 476.756 52.169 477.484C50.4162 479.166 49.3825 481.43 49.2755 483.821C48.9435 488.636 50.416 493.404 53.4203 497.244C56.1423 500.866 59.9971 503.534 64.408 504.848C68.4095 505.997 72.6555 506.076 76.6991 505.076C80.2318 504.252 83.5086 502.613 86.2531 500.298C88.5226 498.386 90.4094 496.083 91.8187 493.505C92.9098 491.566 93.7295 489.495 94.256 487.345C94.5879 485.987 94.8102 484.605 94.9208 483.213C94.9208 482.769 94.9208 482.415 94.9859 482.123C94.9854 481.995 95.0029 481.867 95.0381 481.743Z" fill="#E0E0E0"/>
<path d="M85.1075 534.24C85.0293 534.38 82.7092 533.163 78.6686 532.022C77.5721 531.704 76.4581 531.446 75.3319 531.249C74.1328 530.983 72.8163 530.856 71.4217 530.679C68.4263 530.4 65.4105 530.4 62.4152 530.679C59.4314 531.033 56.4895 531.666 53.6302 532.567C52.3268 533.036 51.0234 533.442 49.9676 533.961C48.9201 534.411 47.8976 534.915 46.9046 535.47C43.229 537.447 41.2348 539.133 41.1436 539.006C41.528 538.556 41.9655 538.152 42.447 537.802C42.9955 537.343 43.5746 536.919 44.1805 536.534C44.9511 535.983 45.7565 535.479 46.5918 535.026C47.5827 534.441 48.61 533.916 49.6678 533.454C50.892 532.894 52.1449 532.395 53.4216 531.959C56.3235 531 59.3201 530.337 62.363 529.982C65.3964 529.679 68.4535 529.679 71.4869 529.982C72.8007 530.138 74.1058 530.358 75.3971 530.641C76.5361 530.862 77.6594 531.154 78.7599 531.515C79.6771 531.782 80.5779 532.099 81.4579 532.466C82.1375 532.714 82.7994 533.006 83.4391 533.34C84.0287 533.577 84.5885 533.879 85.1075 534.24V534.24Z" fill="#E0E0E0"/>
<path d="M81.378 386.355C80.8328 386.811 80.2435 387.214 79.6184 387.559C78.4584 388.307 76.7249 389.295 74.5352 390.423C63.0314 396.294 50.3299 399.606 37.349 400.119C34.8725 400.208 32.8652 400.195 31.4836 400.119C30.7626 400.127 30.0425 400.067 29.333 399.942C30.0448 399.84 30.7647 399.802 31.4836 399.828C32.8652 399.828 34.8595 399.752 37.3229 399.6C50.1772 398.806 62.7396 395.527 74.2745 389.955C76.4772 388.89 78.1847 387.977 79.4881 387.318C80.09 386.947 80.722 386.625 81.378 386.355V386.355Z" fill="#E0E0E0"/>
<path d="M88.1046 359.333C88.1046 359.409 86.8012 359.219 84.429 359.206C81.0931 359.217 77.7802 359.743 74.6143 360.765C72.4369 361.47 70.3438 362.401 68.371 363.541C67.2781 364.18 66.2288 364.887 65.2298 365.657C64.1516 366.435 63.1832 367.347 62.3493 368.37C61.4707 369.402 60.8704 370.63 60.6027 371.944C60.4789 372.609 60.5259 373.294 60.7397 373.937C60.9534 374.581 61.3272 375.163 61.8279 375.632C62.9469 376.582 64.2902 377.248 65.7381 377.571C67.1862 378.074 68.7333 378.247 70.2609 378.078C70.9553 377.872 71.5643 377.456 72 376.891C72.4357 376.326 72.6757 375.641 72.6853 374.935C72.7955 373.486 72.4838 372.037 71.7859 370.753C70.489 368.25 68.4077 366.212 65.8424 364.935C63.5391 363.736 60.9847 363.064 58.3739 362.97C56.0884 362.927 53.8113 363.253 51.6353 363.934C48.4735 364.965 45.5029 366.484 42.8373 368.433C41.8988 369.13 41.1819 369.701 40.6997 370.068C40.4657 370.285 40.2078 370.476 39.9307 370.638C40.1256 370.387 40.3485 370.158 40.5954 369.954C41.0516 369.536 41.7424 368.94 42.6678 368.205C45.2968 366.136 48.2731 364.524 51.4658 363.439C53.6914 362.692 56.0326 362.324 58.3869 362.349C61.1135 362.428 63.7868 363.103 66.2073 364.327C68.9193 365.657 71.1211 367.799 72.4898 370.436C73.2486 371.842 73.5872 373.427 73.4673 375.011C73.4018 375.846 73.1143 376.649 72.6331 377.343C72.1194 378.067 71.349 378.582 70.4695 378.788C68.8134 379.004 67.1282 378.831 65.5556 378.281C63.9747 377.928 62.5096 377.196 61.2935 376.152C60.7123 375.601 60.2779 374.921 60.0281 374.17C59.7783 373.419 59.7205 372.62 59.8598 371.843C60.1613 370.406 60.824 369.065 61.7888 367.939C62.6665 366.885 63.6782 365.944 64.7997 365.138C65.8296 364.362 66.9093 363.651 68.0321 363.008C70.0538 361.867 72.2004 360.949 74.4318 360.271C77.6561 359.27 81.0333 358.815 84.4159 358.927C85.3323 358.947 86.2465 359.024 87.1531 359.155C87.476 359.181 87.795 359.24 88.1046 359.333V359.333Z" fill="#E0E0E0"/>
<path d="M178.013 7.896H12.4023V297.19H178.013V7.896Z" fill="#EBEBEB"/>
<path d="M169.685 16.2866H19.0244V288.572H169.685V16.2866Z" fill="#FAFAFA"/>
<path d="M185.013 299.789L178.014 297.19V2.99121H185.013V299.789Z" fill="#E0E0E0"/>
<path d="M56.0273 192.17C69.0614 180.34 82.0955 168.549 95.1295 156.795C100.082 152.321 106.56 147.492 112.934 149.698C116.01 150.762 118.317 153.31 121.315 154.527C127.324 156.96 134.193 153.449 138.807 148.988C143.421 144.526 147.07 138.95 152.675 135.718C158.28 132.486 167.012 132.904 169.724 138.633V177.112L112.856 200.788L56.0273 192.17Z" fill="#F5F5F5"/>
<path d="M19.0244 170.04C33.4401 164.337 47.8297 169.178 58.1266 180.522C60.2903 182.905 62.2715 185.592 65.2563 186.973C69.2968 188.76 73.963 187.43 78.3816 186.973C84.4441 186.381 90.557 187.431 96.0436 190.008C101.53 192.585 106.176 196.588 109.468 201.574L61.3069 224.591L19.0244 224.299V170.04Z" fill="#E0E0E0"/>
<path d="M169.684 170.231C160.195 165.769 151.827 171.169 143.068 176.872C134.309 182.576 126.124 189.901 115.892 192.208C109.023 193.742 101.659 192.893 95.0378 195.187C81.5084 199.876 73.688 216.568 59.3635 217.367C51.5431 217.798 44.5959 213.21 37.6488 209.762C30.7016 206.315 25.2273 203.045 19.0361 207.658V288.559H169.684V170.231Z" fill="#EBEBEB"/>
<path d="M172.957 94.6147H19.0244V97.5172H172.957V94.6147Z" fill="#E0E0E0"/>
<path d="M172.957 159.457H19.0244V162.359H172.957V159.457Z" fill="#E0E0E0"/>
<path d="M172.957 224.3H19.0244V227.202H172.957V224.3Z" fill="#E0E0E0"/>
<path d="M90.5537 96.047L90.5537 296.278H98.1656L98.1656 96.047H90.5537Z" fill="#E0E0E0"/>
<path d="M51.4921 16.2866H48.0381V96.0596H51.4921V16.2866Z" fill="#E0E0E0"/>
<path d="M81.2353 16.2866H77.7812V96.0596H81.2353V16.2866Z" fill="#E0E0E0"/>
<path d="M110.966 16.2866H107.512V96.0596H110.966V16.2866Z" fill="#E0E0E0"/>
<path d="M140.709 16.2866H137.255V96.0596H140.709V16.2866Z" fill="#E0E0E0"/>
<path d="M12.4036 2.99121H5.4043V298.977H12.4036V2.99121Z" fill="#E0E0E0"/>
<path d="M185.014 0H5.4043V7.89618H185.014V0Z" fill="#E0E0E0"/>
<path d="M189.744 300.765H0.423828V308.116H189.744V300.765Z" fill="#E0E0E0"/>
<path d="M178.013 297.19L189.757 300.765H0.423828L12.4021 297.19H178.013Z" fill="#EBEBEB"/>
<path d="M492.343 559.437V179.571H487.508V559.526L447.532 562.441H487.508H492.343H532.319L492.343 559.437Z" fill="#EBEBEB"/>
<path d="M462.313 146.479L444.365 224.515H535.499L514.997 146.719L462.313 146.479Z" fill="#E0E0E0"/>
<path d="M479.022 256.138C478.814 256.138 478.67 246.556 478.696 234.743C478.722 222.931 478.905 213.349 479.113 213.361C479.321 213.374 479.477 222.931 479.438 234.743C479.399 246.556 479.23 256.138 479.022 256.138Z" fill="#E0E0E0"/>
<path d="M478.984 255.986C478.984 255.897 479.635 255.986 479.922 256.784C480.002 257.022 480.022 257.275 479.982 257.521C479.941 257.768 479.84 258.002 479.688 258.204C479.475 258.454 479.186 258.631 478.862 258.709C478.538 258.787 478.196 258.76 477.889 258.635C477.605 258.552 477.352 258.39 477.163 258.169C476.973 257.948 476.853 257.678 476.82 257.392C476.787 257.105 476.841 256.816 476.975 256.559C477.109 256.302 477.318 256.09 477.576 255.948C478.345 255.504 478.879 255.872 478.879 255.948C478.879 256.024 478.397 255.948 477.941 256.379C477.822 256.483 477.726 256.61 477.659 256.751C477.591 256.893 477.554 257.046 477.55 257.202C477.57 257.377 477.643 257.542 477.759 257.678C477.874 257.813 478.028 257.912 478.202 257.963C478.368 258.036 478.553 258.058 478.732 258.026C478.911 257.994 479.076 257.91 479.205 257.785C479.308 257.665 479.383 257.525 479.426 257.374C479.469 257.223 479.478 257.065 479.453 256.911C479.336 256.315 478.932 256.087 478.984 255.986Z" fill="#E0E0E0"/>
<path d="M537.309 16.7935H445.484V109.875H537.309V16.7935Z" fill="#E0E0E0"/>
<path d="M531.094 16.7935H439.269V109.875H531.094V16.7935Z" fill="#EBEBEB"/>
<path d="M518.749 29.3032H451.61V97.365H518.749V29.3032Z" fill="#FAFAFA"/>
<path d="M451.61 97.8086C451.121 98.4798 450.562 99.0999 449.942 99.6591C448.86 100.762 447.335 102.194 445.654 103.867C443.972 105.54 442.421 106.922 441.274 107.961C440.696 108.555 440.054 109.086 439.358 109.545C439.855 108.884 440.414 108.269 441.027 107.707C442.109 106.605 443.634 105.172 445.315 103.499C446.996 101.826 448.56 100.432 449.707 99.4056C450.285 98.812 450.922 98.2769 451.61 97.8086V97.8086Z" fill="#E0E0E0"/>
<path d="M518.737 97.644C519.429 98.123 520.066 98.671 520.64 99.279C521.774 100.331 523.247 101.814 524.968 103.436C526.688 105.059 528.109 106.592 529.178 107.695C529.788 108.257 530.334 108.882 530.807 109.558C530.122 109.081 529.489 108.537 528.917 107.936C527.796 106.884 526.31 105.401 524.59 103.766C522.869 102.131 521.435 100.61 520.38 99.5072C519.767 98.9436 519.216 98.3192 518.737 97.644Z" fill="#E0E0E0"/>
<path d="M518.565 29.4807C519.066 28.8148 519.629 28.1953 520.247 27.6302C521.329 26.5402 522.854 25.0953 524.522 23.435C526.19 21.7746 527.767 20.3678 528.901 19.3411C529.486 18.7546 530.128 18.224 530.817 17.7568C530.331 18.4223 529.776 19.038 529.162 19.5946C528.08 20.6846 526.555 22.1295 524.874 23.8025C523.193 25.4756 521.628 26.8698 520.494 27.8964C519.912 28.4909 519.266 29.0221 518.565 29.4807V29.4807Z" fill="#E0E0E0"/>
<path d="M451.428 29.6584C450.743 29.1716 450.106 28.6243 449.525 28.0234C448.404 26.9714 446.918 25.4885 445.211 23.8661C443.503 22.2438 442.056 20.7102 441.001 19.6075C440.401 19.0319 439.852 18.4087 439.358 17.7444C440.049 18.2188 440.687 18.7626 441.261 19.3667C442.382 20.406 443.868 21.9016 445.589 23.5366C447.309 25.1716 448.743 26.6925 449.799 27.7952C450.409 28.3573 450.956 28.982 451.428 29.6584V29.6584Z" fill="#E0E0E0"/>
<path d="M518.568 97.3652C518.568 97.3652 518.568 97.2511 518.568 97.0356C518.568 96.8202 518.568 96.4906 518.568 96.085C518.568 95.2359 518.568 94.0064 518.568 92.4095C518.568 89.2028 518.568 84.5133 518.568 78.5436C518.568 66.6297 518.503 49.6459 518.45 29.3034L518.672 29.5189H451.729L451.99 29.2781C451.99 54.2594 451.99 77.6311 451.99 97.3398L451.768 97.1244L500.268 97.2384H513.875H517.473H513.967H500.398L451.768 97.3398H451.56V97.137C451.56 77.4283 451.56 54.0439 451.56 29.0753V28.8345H451.82H518.763H518.737V29.0499C518.737 49.4431 518.659 66.4776 518.633 78.4803C518.633 84.4246 518.633 89.0888 518.633 92.2954C518.633 93.8797 518.633 95.0964 518.633 95.933V97.0483C518.618 97.1551 518.596 97.2609 518.568 97.3652V97.3652Z" fill="#E0E0E0"/>
<path d="M469.337 57.7576C469.337 57.7576 467.891 74.6146 486.66 74.6146C486.66 65.5904 479.035 58.4927 469.337 57.7576Z" fill="#EBEBEB"/>
<path d="M503.669 57.7574C503.669 57.7574 486.347 56.3632 486.347 74.6144C495.588 74.6017 502.887 67.1745 503.669 57.7574Z" fill="#EBEBEB"/>
<path d="M485.826 48.5303C485.826 48.5303 471.671 60.8879 486.608 74.5889C493.556 67.4279 492.956 56.211 485.826 48.5303Z" fill="#E0E0E0"/>
<path d="M380.484 27.1228H240.055C221.792 27.1228 206.987 41.5191 206.987 59.2779V411.741C206.987 429.5 221.792 443.896 240.055 443.896H380.484C398.746 443.896 413.551 429.5 413.551 411.741V59.2779C413.551 41.5191 398.746 27.1228 380.484 27.1228Z" fill="#FAFAFA"/>
<path d="M380.483 443.897L383.611 443.707C384.641 443.58 385.919 443.39 387.417 443.124L389.816 442.516C390.676 442.3 391.549 441.92 392.501 441.603C397.147 439.829 401.312 437.041 404.675 433.454C406.85 431.2 408.657 428.636 410.032 425.849C411.644 422.704 412.689 419.313 413.121 415.823C413.424 411.902 413.519 407.967 413.407 404.036C413.407 399.887 413.407 395.544 413.407 391.007C413.407 381.919 413.407 371.995 413.407 361.45C413.407 340.246 413.407 316.088 413.407 289.396C413.407 236.011 413.407 172.449 413.329 101.814V75.0836C413.329 70.5715 413.329 66.0214 413.329 61.4586C413.329 60.3179 413.329 59.1645 413.264 58.0365C413.251 56.9023 413.146 55.7708 412.951 54.6524L412.677 52.9541C412.56 52.4091 412.391 51.8514 412.26 51.3064C412.13 50.7614 411.974 50.191 411.804 49.646L411.192 48.0364C409.526 43.7343 406.91 39.8403 403.528 36.6294C400.102 33.3729 395.988 30.8816 391.471 29.3289C389.202 28.5438 386.85 28.0082 384.459 27.7319C383.273 27.5672 382.06 27.5798 380.848 27.5038C379.636 27.4277 378.411 27.5038 377.186 27.5038H240.08C234.888 27.5271 229.773 28.7293 225.143 31.0146C220.549 33.2913 216.581 36.6026 213.569 40.6725C210.537 44.6898 208.547 49.3596 207.769 54.2849L207.482 56.11L207.391 57.9605C207.3 59.2279 207.391 60.4954 207.391 61.6868V69.1393C207.391 88.9791 207.391 108.51 207.391 127.733C207.391 166.15 207.391 203.197 207.391 238.495C207.391 273.794 207.391 307.33 207.391 338.725C207.391 354.416 207.391 369.557 207.391 384.15C207.391 391.425 207.391 398.573 207.391 405.557C207.289 408.999 207.385 412.443 207.678 415.874C208.095 419.206 209.078 422.448 210.584 425.469C211.998 428.446 213.905 431.178 216.228 433.555C220.672 438.205 226.447 441.454 232.807 442.883C233.569 443.079 234.344 443.219 235.127 443.302C235.893 443.448 236.668 443.546 237.447 443.593C238.999 443.682 240.55 443.758 242.101 443.732H277.032H332.961L368.323 443.796H377.446H380.575H377.446H368.323L332.961 443.859H277.032H242.101C240.55 443.859 238.985 443.859 237.408 443.732C236.626 443.732 235.844 443.53 235.062 443.441C234.271 443.348 233.488 443.204 232.716 443.01C229.549 442.306 226.506 441.153 223.683 439.588C220.771 437.988 218.133 435.957 215.863 433.568C213.502 431.163 211.565 428.397 210.128 425.38C208.596 422.316 207.596 419.027 207.169 415.646C206.869 412.194 206.765 408.729 206.856 405.266V384.099C206.856 369.524 206.856 354.382 206.856 338.674C206.856 307.279 206.856 273.743 206.856 238.445C206.856 203.146 206.856 166.099 206.856 127.683V61.6361C206.856 60.3686 206.856 59.1012 206.922 57.8337L207.026 55.9452L207.313 54.0821C208.099 49.0384 210.129 44.2549 213.23 40.1402C216.313 35.9898 220.364 32.6103 225.052 30.2795C229.777 27.9541 234.993 26.7263 240.289 26.6926H377.081C378.307 26.6926 379.532 26.6926 380.757 26.6926C381.982 26.6926 383.22 26.7687 384.433 26.9334C391.768 27.786 398.606 30.9772 403.879 36.0083C407.336 39.304 410.005 43.2976 411.7 47.7069L412.313 49.3419C412.495 49.8995 412.625 50.4699 412.782 51.0276C412.938 51.5852 413.082 52.1556 413.212 52.7259L413.486 54.437C413.678 55.5814 413.787 56.7377 413.811 57.8971C413.89 59.0632 413.811 60.2039 413.877 61.3446C413.877 65.9074 413.877 70.4575 413.877 74.9696V101.763C413.877 172.347 413.877 235.91 413.798 289.345C413.798 316.037 413.798 340.195 413.798 361.399C413.798 371.995 413.798 381.869 413.798 390.956C413.798 395.494 413.798 399.837 413.798 403.985C413.902 407.926 413.797 411.868 413.486 415.798C413.056 419.33 411.993 422.762 410.344 425.938C408.94 428.72 407.116 431.282 404.935 433.542C401.54 437.133 397.338 439.914 392.657 441.667C391.693 441.983 390.819 442.364 389.959 442.566L387.548 443.162C386.036 443.428 384.745 443.606 383.729 443.72L380.483 443.897Z" fill="#1E272E"/>
<path d="M393.7 51.8005C388.688 52.2398 383.645 52.2398 378.633 51.8005C383.645 51.3611 388.688 51.3611 393.7 51.8005V51.8005Z" fill="#1E272E"/>
<path d="M393.7 56.579C388.688 57.0184 383.645 57.0184 378.633 56.579C383.645 56.1397 388.688 56.1397 393.7 56.579V56.579Z" fill="#1E272E"/>
<path d="M393.7 61.3571C388.688 61.7965 383.645 61.7965 378.633 61.3571C383.645 60.9177 388.688 60.9177 393.7 61.3571V61.3571Z" fill="#1E272E"/>
<path d="M289.676 61.3573V56.2875L287.069 60.4828H286.6L283.993 56.3255V61.3193H283.016V54.4624H283.85L286.809 59.304L289.728 54.4624H290.641V61.3573H289.676Z" fill="#1E272E"/>
<path d="M297.392 56.1352L294.785 61.8894C294.316 62.9921 293.69 63.3343 292.869 63.3343C292.363 63.3479 291.869 63.176 291.487 62.8527L291.904 62.1429C292.163 62.3859 292.509 62.5222 292.869 62.5231C293.338 62.5231 293.625 62.3203 293.899 61.712L294.068 61.3571L291.696 56.1352H292.713L294.55 60.2924L296.401 56.1099L297.392 56.1352Z" fill="#1E272E"/>
<path d="M306.907 56.8579C306.907 58.3661 305.786 59.266 303.935 59.266H302.189V61.3573H301.172V54.4624H303.935C305.786 54.4624 306.907 55.3623 306.907 56.8579ZM305.89 56.8579C305.89 55.8819 305.212 55.3116 303.909 55.3116H302.189V58.4168H303.909C305.212 58.4168 305.89 57.8465 305.89 56.8579V56.8579Z" fill="#1E272E"/>
<path d="M311.052 56.0844V56.997H310.817C310.581 56.9814 310.344 57.0174 310.124 57.1024C309.903 57.1873 309.706 57.319 309.544 57.4879C309.383 57.6567 309.263 57.8584 309.192 58.0783C309.121 58.2982 309.102 58.5307 309.136 58.7587V61.2936H308.158V56.1351H309.084V57.0096C309.29 56.6924 309.584 56.4376 309.932 56.2741C310.28 56.1107 310.668 56.0449 311.052 56.0844V56.0844Z" fill="#1E272E"/>
<path d="M311.691 58.7462C311.68 58.2052 311.836 57.6734 312.137 57.2187C312.439 56.7639 312.873 56.4068 313.384 56.1927C313.895 55.9787 314.46 55.9174 315.007 56.0168C315.554 56.1161 316.058 56.3716 316.455 56.7506C316.853 57.1296 317.125 57.615 317.237 58.1449C317.35 58.6749 317.297 59.2253 317.087 59.7262C316.876 60.2271 316.517 60.6557 316.055 60.9575C315.593 61.2592 315.049 61.4204 314.493 61.4205C314.125 61.4381 313.757 61.3814 313.412 61.254C313.067 61.1265 312.753 60.931 312.49 60.6798C312.227 60.4286 312.02 60.1271 311.882 59.7943C311.745 59.4615 311.679 59.1046 311.691 58.7462ZM316.305 58.7462C316.287 58.402 316.166 58.0706 315.956 57.7927C315.746 57.5149 315.458 57.303 315.125 57.1831C314.793 57.0633 314.432 57.0408 314.087 57.1185C313.742 57.1961 313.427 57.3706 313.183 57.6201C312.939 57.8697 312.775 58.1834 312.712 58.5225C312.649 58.8616 312.69 59.2112 312.83 59.528C312.969 59.8448 313.201 60.1148 313.497 60.3048C313.792 60.4947 314.139 60.5962 314.493 60.5966C314.74 60.6026 314.986 60.5581 315.215 60.466C315.444 60.3739 315.65 60.2363 315.821 60.062C315.991 59.8877 316.123 59.6805 316.206 59.4539C316.289 59.2273 316.323 58.9862 316.305 58.7462Z" fill="#1E272E"/>
<path d="M320.54 53.9555C320.929 53.9417 321.313 54.0482 321.635 54.2597L321.349 54.9822C321.129 54.8273 320.864 54.7431 320.593 54.7414C320.019 54.7414 319.719 55.0582 319.719 55.6539V56.1102H321.283V56.8833H319.745V61.3321H318.768V56.9087H317.855V56.1356H318.768V55.6666C318.745 55.4354 318.776 55.2022 318.857 54.9838C318.939 54.7655 319.069 54.5673 319.238 54.4037C319.408 54.2401 319.613 54.115 319.838 54.0375C320.063 53.96 320.303 53.932 320.54 53.9555ZM322.847 54.4879C322.849 54.4046 322.868 54.3226 322.902 54.2463C322.936 54.17 322.986 54.1011 323.048 54.0434C323.109 53.9858 323.182 53.9405 323.262 53.9102C323.342 53.8799 323.427 53.8651 323.512 53.8668C323.685 53.8668 323.851 53.9336 323.973 54.0524C324.095 54.1713 324.164 54.3325 324.164 54.5006C324.164 54.6686 324.095 54.8298 323.973 54.9487C323.851 55.0675 323.685 55.1343 323.512 55.1343C323.427 55.136 323.342 55.1212 323.262 55.0909C323.182 55.0606 323.109 55.0153 323.048 54.9577C322.986 54.9 322.936 54.8311 322.902 54.7548C322.868 54.6785 322.849 54.5965 322.847 54.5132V54.4879ZM323.017 56.1102H323.995V61.3321H323.017V56.1102Z" fill="#1E272E"/>
<path d="M325.831 54.0442H326.807V61.3573H325.831V54.0442Z" fill="#1E272E"/>
<path d="M333.509 59.0251H329.156C329.205 59.4721 329.429 59.8839 329.78 60.1761C330.131 60.4682 330.584 60.6187 331.046 60.5968C331.336 60.6057 331.625 60.5537 331.893 60.4444C332.16 60.335 332.401 60.1709 332.597 59.9631L333.131 60.5714C332.869 60.8596 332.542 61.0858 332.176 61.233C331.811 61.3801 331.415 61.4443 331.02 61.4206C330.645 61.4472 330.269 61.3973 329.915 61.2742C329.561 61.1511 329.237 60.9574 328.965 60.7056C328.693 60.4539 328.477 60.1495 328.333 59.8121C328.188 59.4747 328.118 59.1117 328.126 58.7463C328.108 58.3953 328.165 58.0444 328.294 57.716C328.422 57.3875 328.62 57.0887 328.873 56.8384C329.127 56.5881 329.432 56.3919 329.767 56.2621C330.103 56.1323 330.463 56.0719 330.824 56.0847C331.18 56.0841 331.533 56.1543 331.86 56.2911C332.186 56.4279 332.481 56.6283 332.725 56.8801C332.97 57.1318 333.158 57.4295 333.28 57.7548C333.401 58.0802 333.453 58.4262 333.431 58.7717C333.462 58.8546 333.488 58.9392 333.509 59.0251V59.0251ZM329.156 58.3407H332.597C332.561 57.9251 332.362 57.5386 332.042 57.2606C331.722 56.9826 331.305 56.8339 330.877 56.8451C330.44 56.8279 330.013 56.9796 329.691 57.2669C329.369 57.5543 329.176 57.954 329.156 58.3787V58.3407Z" fill="#1E272E"/>
<path d="M344.901 196.859H276.303V200.814H344.901V196.859Z" fill="#4ABDAC"/>
<path d="M372.403 207.215C372.403 207.405 345.684 207.557 312.72 207.557C279.757 207.557 253.024 207.405 253.024 207.215C253.024 207.025 279.744 206.885 312.72 206.885C345.697 206.885 372.403 207.037 372.403 207.215Z" fill="#1E272E"/>
<path d="M250.692 268.242C261.921 268.242 271.025 259.39 271.025 248.47C271.025 237.55 261.921 228.698 250.692 228.698C239.462 228.698 230.358 237.55 230.358 248.47C230.358 259.39 239.462 268.242 250.692 268.242Z" fill="#4ABDAC"/>
<path d="M310.165 268.242C321.395 268.242 330.498 259.39 330.498 248.47C330.498 237.55 321.395 228.698 310.165 228.698C298.935 228.698 289.832 237.55 289.832 248.47C289.832 259.39 298.935 268.242 310.165 268.242Z" fill="#4ABDAC"/>
<path d="M369.639 268.242C380.868 268.242 389.972 259.39 389.972 248.47C389.972 237.55 380.868 228.698 369.639 228.698C358.409 228.698 349.306 237.55 349.306 248.47C349.306 259.39 358.409 268.242 369.639 268.242Z" fill="#4ABDAC"/>
<path d="M276.12 277.025C276.12 277.203 264.729 277.355 250.691 277.355C236.653 277.355 225.274 277.203 225.274 277.025C225.274 276.848 236.653 276.696 250.691 276.696C264.729 276.696 276.12 276.797 276.12 277.025Z" fill="#1E272E"/>
<path d="M332.271 277.025C332.271 277.203 322.378 277.355 310.113 277.355C297.848 277.355 287.955 277.203 287.955 277.025C287.955 276.848 297.848 276.696 310.113 276.696C322.378 276.696 332.271 276.797 332.271 277.025Z" fill="#1E272E"/>
<path d="M389.986 277.025C389.986 277.203 380.093 277.355 367.828 277.355C355.563 277.355 345.735 277.203 345.735 277.025C345.735 276.848 355.628 276.696 367.828 276.696C380.028 276.696 389.986 276.797 389.986 277.025Z" fill="#1E272E"/>
<path d="M392.736 344.986C392.736 344.986 392.736 344.694 392.736 344.149C392.736 343.604 392.736 342.793 392.736 341.741C392.736 339.612 392.736 336.481 392.736 332.426C392.736 324.289 392.671 312.463 392.619 297.533L392.827 297.736L227.699 297.862L228.038 297.533V344.986L227.699 344.669L345.696 344.809L380.289 344.897H389.595H392.006H392.84H392.045H389.569H380.341L345.813 344.999L227.594 345.138H227.269V344.821C227.269 329.713 227.269 313.756 227.269 297.368V297.039H227.62L392.749 297.153H392.971V297.368C392.971 312.349 392.879 324.225 392.853 332.375C392.853 336.418 392.853 339.536 392.853 341.653C392.853 342.692 392.853 343.478 392.853 344.035C392.853 344.593 392.736 344.986 392.736 344.986Z" fill="#1E272E"/>
<path d="M381.305 312.641C381.305 312.818 349.567 312.97 310.399 312.97C271.232 312.97 239.494 312.818 239.494 312.641C239.494 312.463 271.232 312.311 310.399 312.311C349.567 312.311 381.305 312.514 381.305 312.641Z" fill="#1E272E"/>
<path d="M381.305 322.032C381.305 322.222 349.567 322.362 310.399 322.362C271.232 322.362 239.494 322.222 239.494 322.032C239.494 321.842 271.232 321.703 310.399 321.703C349.567 321.703 381.305 321.855 381.305 322.032Z" fill="#1E272E"/>
<path d="M381.305 331.437C381.305 331.614 349.567 331.766 310.399 331.766C271.232 331.766 239.494 331.614 239.494 331.437C239.494 331.259 271.232 331.107 310.399 331.107C349.567 331.107 381.305 331.259 381.305 331.437Z" fill="#1E272E"/>
<path d="M392.735 404.53C392.735 404.53 392.735 404.252 392.735 403.707C392.735 403.162 392.735 402.338 392.735 401.286C392.735 399.156 392.735 396.026 392.735 391.97C392.735 383.846 392.67 372.008 392.618 357.077L392.827 357.293L227.698 357.407L228.037 357.077V404.53L227.698 404.214L345.695 404.366L380.288 404.454H389.594H392.005H392.84C392.84 404.454 392.579 404.454 392.044 404.454H389.672H380.444L345.917 404.543L227.698 404.695H227.372V404.366C227.372 389.258 227.372 373.313 227.372 356.913V356.583H227.724L392.853 356.71H393.074V356.913C393.074 371.894 392.983 383.782 392.957 391.932C392.957 395.975 392.957 399.08 392.957 401.21C392.957 402.236 392.957 403.035 392.957 403.58C392.957 404.125 392.735 404.53 392.735 404.53Z" fill="#1E272E"/>
<path d="M381.305 372.185C381.305 372.375 349.567 372.515 310.399 372.515C271.232 372.515 239.494 372.375 239.494 372.185C239.494 371.995 271.232 371.855 310.399 371.855C349.567 371.855 381.305 372.008 381.305 372.185Z" fill="#1E272E"/>
<path d="M381.305 381.589C381.305 381.767 349.567 381.919 310.399 381.919C271.232 381.919 239.494 381.767 239.494 381.589C239.494 381.412 271.232 381.26 310.399 381.26C349.567 381.26 381.305 381.399 381.305 381.589Z" fill="#1E272E"/>
<path d="M381.305 390.981C381.305 391.172 349.567 391.311 310.399 391.311C271.232 391.311 239.494 391.172 239.494 390.981C239.494 390.791 271.232 390.652 310.399 390.652C349.567 390.652 381.305 390.804 381.305 390.981Z" fill="#1E272E"/>
<path d="M229.823 61.3698H230.071H230.762H233.29L233.212 61.4459C233.212 60.9009 233.212 60.3052 233.212 59.6588C233.212 59.3293 233.212 59.0124 233.212 58.6322C233.25 58.4336 233.353 58.2523 233.506 58.1153C233.659 57.9783 233.853 57.8928 234.059 57.8717C234.476 57.8717 234.828 57.8717 235.271 57.8717C235.504 57.9079 235.716 58.0234 235.869 58.1976C236.021 58.3718 236.106 58.5933 236.106 58.8223C236.106 59.6461 236.106 60.5207 236.106 61.3572L235.988 61.2431H239.182L239.051 61.3572C239.051 60.0897 239.051 58.8223 239.051 57.4915C239.051 57.1619 239.051 56.8324 239.051 56.5029C239.038 56.3579 238.991 56.2178 238.914 56.0928C238.837 55.9678 238.733 55.8611 238.608 55.7804L237.201 54.3736L235.897 53.1061L235.245 52.4851C235.024 52.2696 234.854 52.0541 234.594 52.0034C234.469 51.9711 234.339 51.9669 234.212 51.9911C234.086 52.0152 233.967 52.0671 233.864 52.1429C233.668 52.2949 233.46 52.5231 233.264 52.7132C233.069 52.9033 232.495 53.4737 232.117 53.8286C231.4 54.5637 230.644 55.2227 230.11 55.8565C229.949 56.2194 229.89 56.6176 229.941 57.0098V58.0998C229.941 58.7716 229.941 59.3673 229.941 59.8616C229.941 60.3559 229.941 60.6854 229.941 60.9896C229.953 61.1245 229.953 61.2603 229.941 61.3952C229.941 61.3952 229.941 61.2684 229.941 61.015C229.941 60.7615 229.941 60.3559 229.941 59.9123C229.941 59.4687 229.941 58.8096 229.941 58.1379C229.941 57.783 229.941 57.4154 229.941 57.0225V56.4141C229.941 56.1867 230.004 55.9634 230.123 55.7677C230.71 55.058 231.426 54.5003 232.143 53.6891L233.277 52.5611C233.486 52.3583 233.655 52.1682 233.89 51.9654C234.022 51.8722 234.173 51.8081 234.332 51.7774C234.492 51.7468 234.657 51.7504 234.815 51.788C235.117 51.894 235.383 52.0781 235.584 52.3203L236.236 52.9413L237.539 54.2088L238.934 55.4762C239.068 55.5879 239.186 55.7157 239.286 55.8565C239.394 56.0095 239.453 56.1904 239.455 56.3761C239.455 56.7057 239.455 57.0352 239.455 57.3647C239.455 58.6322 239.455 59.9757 239.455 61.2304V61.3445H239.338H236.145H235.897V61.2304C235.897 60.3305 235.897 59.456 235.897 58.6955C235.9 58.5158 235.838 58.3409 235.721 58.2016C235.604 58.0624 235.44 57.968 235.258 57.9351H234.098C233.931 57.951 233.774 58.0187 233.65 58.1283C233.525 58.2378 233.44 58.3834 233.408 58.5434C233.408 58.8476 233.408 59.2152 233.408 59.5321V61.3825H229.875L229.823 61.3698Z" fill="#1E272E"/>
<path d="M357.857 144.977C364.29 118.009 347.023 91.075 319.289 84.8191C291.556 78.5631 263.858 95.354 257.424 122.323C250.991 149.291 268.258 176.225 295.992 182.481C323.725 188.737 351.423 171.946 357.857 144.977Z" fill="#E0E0E0"/>
<path d="M348.916 138.988C350.106 137.639 350.885 135.993 351.165 134.237C351.446 132.48 351.216 130.682 350.502 129.046C349.788 127.409 348.618 125.999 347.124 124.975C345.63 123.95 343.872 123.352 342.047 123.247C342.648 121.592 342.798 119.813 342.481 118.085C342.163 116.357 341.39 114.739 340.237 113.388C339.083 112.038 337.589 111.002 335.9 110.382C334.212 109.761 332.386 109.578 330.603 109.85C330.484 108.106 329.937 106.414 329.009 104.918C328.08 103.421 326.797 102.162 325.265 101.247C323.734 100.331 322 99.7849 320.207 99.6543C318.415 99.5237 316.616 99.8123 314.962 100.496C313.899 99.2382 312.551 98.2369 311.024 97.5704C309.497 96.9039 307.831 96.5903 306.159 96.6541C304.486 96.7179 302.851 97.1575 301.382 97.9384C299.913 98.7192 298.65 99.8202 297.692 101.155L294.981 101.294C292.63 101.382 290.325 101.955 288.219 102.975C286.113 103.996 284.255 105.441 282.768 107.213C282.614 107.416 282.44 107.603 282.246 107.771C279.64 110.141 276.902 112.676 275.977 116.035C274.947 119.761 276.316 124.045 274.374 127.442C273.618 128.773 272.38 129.85 271.871 131.244C270.894 133.969 272.784 136.91 272.562 139.787C272.341 142.664 269.734 145.49 270.047 148.532C270.269 149.618 270.72 150.648 271.37 151.557C272.021 152.467 272.857 153.236 273.826 153.817C275.77 154.973 277.583 156.324 279.236 157.848C280.435 159.115 281.217 160.826 282.39 162.182C284.141 164.033 286.548 165.169 289.126 165.362C291.705 165.555 294.263 164.79 296.284 163.222C297.666 164.243 299.279 164.928 300.989 165.219C302.699 165.51 304.455 165.399 306.112 164.895C309.415 163.867 312.523 162.321 315.314 160.319C315.935 161.146 316.76 161.808 317.713 162.245C318.666 162.681 319.716 162.877 320.767 162.815C321.818 162.753 322.837 162.435 323.729 161.891C324.621 161.346 325.358 160.592 325.871 159.698C326.601 161.916 329.312 163.044 331.698 162.816C334.049 162.399 336.276 161.476 338.215 160.116C342.047 157.822 346.322 154.793 346.426 150.421C346.491 147.746 344.901 144.983 345.944 142.512C346.737 141.192 347.74 140.003 348.916 138.988V138.988Z" fill="#1E272E"/>
<path d="M323.094 122.397C322.234 120.116 322.612 117.581 322.286 115.173C321.582 109.85 317.32 105.363 312.185 103.411C306.931 101.621 301.203 101.652 295.97 103.5C292.013 104.654 288.459 106.847 285.699 109.837C283.955 111.885 282.741 114.309 282.158 116.906C281.575 119.504 281.641 122.2 282.35 124.768L310.321 121.13C312.791 123.403 315.626 125.27 318.715 126.656C319.624 127.059 320.626 127.225 321.621 127.138C322.116 127.086 322.585 126.897 322.973 126.593C323.362 126.29 323.652 125.885 323.811 125.427C323.887 124.37 323.638 123.315 323.094 122.397V122.397Z" fill="#1E272E"/>
<path d="M319.589 116.301L295.28 110.99C287.525 110.382 282.624 119.773 282.337 127.34C282.011 135.743 281.972 146.009 283.158 152.233C285.544 164.768 295.515 166.111 295.515 166.111C295.515 166.111 295.515 174.679 295.736 179.242C304.534 183.31 313.58 182.727 322.808 178.722L323.773 120.699C323.773 119.588 323.342 118.518 322.566 117.703C321.791 116.888 320.727 116.387 319.589 116.301V116.301Z" fill="#B78876"/>
<path d="M287.382 135.135C287.392 135.555 287.569 135.954 287.875 136.249C288.181 136.545 288.593 136.713 289.024 136.72C289.236 136.73 289.447 136.699 289.647 136.629C289.846 136.56 290.029 136.452 290.186 136.313C290.342 136.174 290.468 136.006 290.558 135.819C290.647 135.632 290.697 135.43 290.706 135.224C290.695 134.805 290.519 134.406 290.213 134.11C289.906 133.815 289.494 133.646 289.063 133.64C288.851 133.628 288.639 133.657 288.439 133.726C288.239 133.796 288.055 133.903 287.898 134.043C287.741 134.182 287.615 134.35 287.526 134.538C287.438 134.726 287.388 134.929 287.382 135.135V135.135Z" fill="#1E272E"/>
<path d="M284.761 132.6C284.983 132.803 286.208 131.878 287.994 131.827C289.78 131.776 291.109 132.625 291.305 132.41C291.5 132.195 291.174 131.941 290.601 131.548C289.82 131.052 288.901 130.801 287.969 130.828C287.037 130.855 286.136 131.16 285.387 131.7C284.84 132.131 284.657 132.537 284.761 132.6Z" fill="#1E272E"/>
<path d="M304.312 135.135C304.319 135.556 304.495 135.957 304.802 136.253C305.109 136.549 305.523 136.716 305.955 136.72C306.166 136.732 306.378 136.702 306.577 136.633C306.777 136.563 306.96 136.456 307.115 136.316C307.271 136.177 307.396 136.008 307.484 135.82C307.571 135.633 307.618 135.43 307.623 135.224C307.616 134.804 307.441 134.403 307.134 134.107C306.827 133.811 306.413 133.643 305.981 133.64C305.769 133.628 305.558 133.657 305.358 133.727C305.159 133.796 304.976 133.904 304.82 134.043C304.665 134.183 304.539 134.351 304.452 134.539C304.365 134.727 304.317 134.93 304.312 135.135V135.135Z" fill="#1E272E"/>
<path d="M302.371 132.537C302.579 132.739 303.817 131.801 305.603 131.763C307.389 131.725 308.718 132.562 308.901 132.334C309.083 132.106 308.783 131.865 308.197 131.485C307.425 130.988 306.515 130.736 305.59 130.762C304.646 130.768 303.73 131.075 302.983 131.637C302.371 132.004 302.227 132.397 302.371 132.537Z" fill="#1E272E"/>
<path d="M296.193 145.528C295.244 145.258 294.262 145.109 293.273 145.084C292.817 145.084 292.387 144.983 292.309 144.679C292.264 144.241 292.355 143.799 292.57 143.411C292.974 142.321 293.391 141.181 293.873 140.002C295.043 137.121 295.976 134.155 296.662 131.13C295.25 133.922 294.073 136.821 293.143 139.799L291.944 143.221C291.666 143.763 291.597 144.383 291.748 144.97C291.819 145.125 291.925 145.263 292.059 145.373C292.192 145.482 292.349 145.562 292.517 145.604C292.769 145.664 293.028 145.689 293.287 145.68C294.258 145.748 295.235 145.697 296.193 145.528Z" fill="#1E272E"/>
<path d="M295.514 166.099C301.608 166.037 307.564 164.33 312.719 161.168C312.719 161.168 308.587 170.041 295.605 169.141L295.514 166.099Z" fill="#AA6550"/>
<path d="M297.066 149.685C297.389 149.256 297.82 148.914 298.317 148.692C298.814 148.47 299.362 148.376 299.907 148.418C300.302 148.442 300.688 148.543 301.042 148.715C301.396 148.887 301.71 149.126 301.967 149.419C302.216 149.701 302.369 150.051 302.404 150.422C302.439 150.792 302.355 151.164 302.162 151.485C301.885 151.805 301.517 152.037 301.103 152.152C300.69 152.267 300.251 152.26 299.842 152.132C298.992 151.858 298.204 151.428 297.522 150.864C297.32 150.725 297.144 150.553 297.001 150.357C296.933 150.262 296.897 150.149 296.897 150.034C296.897 149.919 296.933 149.806 297.001 149.711" fill="#AA6550"/>
<path d="M301.484 146.593C301.184 146.593 301.236 148.469 299.607 149.85C297.977 151.232 295.918 151.118 295.918 151.333C295.918 151.549 296.387 151.688 297.221 151.688C298.355 151.676 299.449 151.277 300.31 150.56C301.136 149.869 301.651 148.891 301.744 147.835C301.835 147.037 301.614 146.58 301.484 146.593Z" fill="#1E272E"/>
<path d="M301.889 127.239C302.085 127.708 303.857 127.442 305.956 127.632C308.054 127.822 309.762 128.342 310.035 127.911C310.153 127.708 309.853 127.264 309.149 126.821C308.225 126.281 307.186 125.955 306.112 125.87C305.035 125.773 303.95 125.925 302.945 126.314C302.189 126.643 301.811 127.023 301.889 127.239Z" fill="#1E272E"/>
<path d="M285.088 124.996C285.414 125.389 286.626 124.996 288.112 124.882C289.598 124.767 290.849 125.084 291.123 124.666C291.24 124.463 291.031 124.07 290.471 123.715C289.735 123.269 288.873 123.06 288.007 123.12C287.136 123.162 286.299 123.462 285.609 123.982C285.101 124.4 284.944 124.805 285.088 124.996Z" fill="#1E272E"/>
<path d="M327.618 118.785C325.181 111.535 314.272 101.56 306.451 102.143L294.017 109.52C294.446 111.582 295.439 113.495 296.891 115.056C298.342 116.617 300.2 117.769 302.267 118.392C304.483 119.038 307.142 119.19 308.458 121.028C309.775 122.866 309.058 125.667 310.322 127.593C312.069 130.28 316.839 130.128 318.143 133.031C318.716 134.298 318.429 135.819 319.029 137.087C319.837 138.76 324.243 140.889 326.041 140.293C327.84 139.697 327.827 136.719 328.414 135.147C329.143 133.364 329.221 131.391 328.635 129.558C327.788 126.047 328.778 122.245 327.618 118.785Z" fill="#1E272E"/>
<path d="M326.001 137.252C325.936 137.252 326.197 136.605 326.392 135.427C326.638 133.758 326.5 132.056 325.988 130.446C325.252 128.057 323.68 125.994 321.543 124.615C320.223 123.873 318.856 123.213 317.451 122.638C315.876 122.012 314.451 121.075 313.267 119.888C312.269 118.569 311.454 117.129 310.843 115.604C309.991 113.813 308.644 112.287 306.952 111.197C305.261 110.107 303.291 109.496 301.262 109.431C299.529 109.389 297.808 109.731 296.231 110.433C295.097 110.914 294.55 111.332 294.511 111.282C294.472 111.231 294.628 111.142 294.889 110.952C295.273 110.664 295.683 110.409 296.114 110.192C297.699 109.37 299.466 108.935 301.262 108.924C303.963 108.935 306.569 109.894 308.601 111.624C309.795 112.639 310.762 113.881 311.442 115.274C312.028 116.748 312.818 118.138 313.788 119.406C314.889 120.534 316.221 121.423 317.698 122.017C319.127 122.607 320.512 123.293 321.843 124.07C323.7 125.309 325.141 127.05 325.989 129.077C326.837 131.105 327.055 133.331 326.614 135.477C326.514 135.941 326.37 136.395 326.184 136.833C326.105 137.112 326.027 137.264 326.001 137.252Z" fill="#485671"/>
<path d="M324.816 123.779C324.75 123.779 324.529 123.335 323.851 122.689C322.843 121.821 321.688 121.13 320.436 120.648C319.545 120.271 318.674 119.848 317.829 119.381C316.88 118.872 316.053 118.172 315.405 117.327C314.01 115.426 313.567 112.891 311.716 111.142C309.982 109.498 307.745 108.448 305.343 108.151C303.363 107.919 301.355 108.074 299.438 108.607C297.66 109.15 295.918 109.802 294.225 110.559C294.613 110.225 295.053 109.951 295.528 109.748C296.729 109.083 298.001 108.547 299.321 108.151C301.293 107.537 303.376 107.334 305.434 107.555C307.991 107.828 310.379 108.931 312.212 110.686C314.219 112.613 314.662 115.249 315.926 117.023C317.208 118.49 318.842 119.626 320.684 120.331C321.963 120.863 323.12 121.639 324.086 122.613C324.341 122.887 324.556 123.194 324.724 123.525C324.789 123.665 324.842 123.766 324.816 123.779Z" fill="#485671"/>
<path d="M320.619 141.853C320.619 140.915 321.649 138.684 322.6 138.519C325.129 138.063 329.717 138.152 329.925 144.426C330.212 152.993 321.297 151.511 321.284 151.27C321.271 151.029 320.749 145.097 320.619 141.853Z" fill="#B78876"/>
<path d="M323.916 147.923C323.916 147.923 324.073 148.025 324.333 148.139C324.702 148.279 325.111 148.279 325.48 148.139C326.04 147.771 326.488 147.265 326.779 146.672C327.07 146.079 327.193 145.422 327.136 144.767C327.137 144.029 326.963 143.3 326.627 142.638C326.538 142.372 326.384 142.131 326.177 141.937C325.97 141.742 325.718 141.6 325.441 141.523C325.262 141.487 325.075 141.511 324.912 141.591C324.748 141.672 324.618 141.804 324.542 141.966C324.438 142.207 324.542 142.372 324.451 142.397C324.359 142.423 324.255 142.258 324.32 141.903C324.356 141.685 324.472 141.487 324.646 141.345C324.883 141.165 325.181 141.079 325.48 141.104C325.845 141.16 326.189 141.306 326.478 141.528C326.768 141.75 326.995 142.04 327.136 142.372C327.539 143.1 327.75 143.915 327.748 144.742C327.748 146.478 326.901 148.126 325.637 148.544C325.401 148.619 325.151 148.642 324.906 148.611C324.66 148.581 324.424 148.497 324.216 148.367C323.942 148.139 323.89 147.949 323.916 147.923Z" fill="#AA6550"/>
<path d="M327.773 150.04C327.903 149.863 328.203 149.774 328.633 149.952C328.917 150.102 329.166 150.308 329.364 150.556C329.561 150.805 329.703 151.091 329.78 151.397C329.925 151.901 329.937 152.432 329.813 152.942C329.69 153.452 329.437 153.923 329.076 154.312C328.629 154.785 328.066 155.14 327.439 155.344C326.812 155.548 326.142 155.594 325.492 155.478C324.848 155.349 324.247 155.065 323.746 154.65C323.245 154.236 322.859 153.705 322.625 153.108C322.437 152.655 322.35 152.17 322.37 151.682C322.39 151.195 322.517 150.717 322.742 150.281C322.891 149.98 323.11 149.717 323.381 149.513C323.652 149.308 323.969 149.168 324.306 149.103C324.814 149.103 325.062 149.28 325.088 149.495C325.083 149.735 325.048 149.974 324.984 150.205C324.946 150.47 324.946 150.739 324.984 151.004C325.071 151.299 325.217 151.574 325.414 151.815C325.576 152.027 325.812 152.176 326.079 152.233C326.338 152.269 326.603 152.238 326.848 152.144C326.966 152.098 327.072 152.028 327.16 151.938C327.248 151.849 327.314 151.742 327.356 151.625C327.682 151.054 327.525 150.421 327.773 150.04Z" fill="#E0E0E0"/>
<path d="M284.201 178.304L295.658 176.365L322.86 175.415L335.177 176.01C335.177 176.01 311.495 191.98 284.201 178.304Z" fill="#4ABDAC"/>
<path d="M359.172 133.64C359.172 133.64 359.172 133.361 359.094 132.829C359.016 132.296 359.016 131.472 358.938 130.446C358.938 129.926 358.938 129.343 358.834 128.697C358.729 128.05 358.625 127.353 358.508 126.605C358.39 125.858 358.247 125.034 358.104 124.159C357.934 123.24 357.712 122.33 357.439 121.434C356.236 116.748 354.311 112.266 351.73 108.139C348.361 102.649 343.936 97.8424 338.696 93.9814L336.48 92.3718C335.698 91.8775 334.877 91.4212 334.069 90.9269C333.261 90.4326 332.453 89.9129 331.566 89.52L328.894 88.2526L327.591 87.6189L326.157 87.1246L323.225 86.136C322.247 85.8191 321.217 85.6163 320.201 85.3501C319.183 85.0565 318.147 84.8279 317.098 84.6657C314.947 84.2738 312.769 84.0324 310.581 83.9433C309.474 83.9433 308.366 83.7912 307.245 83.8165L303.843 83.9813C303.282 83.9813 302.709 83.9813 302.135 84.0954L300.428 84.3489C299.281 84.5263 298.121 84.6657 296.974 84.8939C292.277 85.9293 287.734 87.5435 283.458 89.6975C282.376 90.2678 281.346 90.9649 280.277 91.548C279.756 91.8775 279.195 92.1563 278.687 92.5239L277.188 93.6266C275.137 95.0937 273.195 96.6988 271.375 98.4302C269.572 100.241 267.895 102.168 266.357 104.197L265.171 105.731L264.141 107.366L263.111 109.013C262.756 109.559 262.438 110.126 262.16 110.712C261.586 111.878 261 113.056 260.426 114.235C259.853 115.414 259.501 116.681 259.032 117.923C255.504 128.116 255.504 139.151 259.032 149.343C259.488 150.611 259.957 151.878 260.413 153.032C260.87 154.185 261.573 155.389 262.16 156.555L262.59 157.417L263.111 158.254L264.141 159.901L265.171 161.536L266.344 163.07C267.883 165.106 269.564 167.037 271.375 168.849C273.2 170.57 275.137 172.175 277.175 173.653L278.687 174.756C279.2 175.103 279.73 175.425 280.277 175.719C281.346 176.34 282.376 176.986 283.458 177.582C285.621 178.671 287.855 179.623 290.144 180.434C292.375 181.227 294.656 181.879 296.974 182.386C298.121 182.614 299.281 182.741 300.428 182.931L302.135 183.184C302.709 183.26 303.282 183.184 303.843 183.286L307.245 183.463C308.366 183.463 309.474 183.374 310.581 183.336C312.768 183.241 314.946 182.999 317.098 182.614C318.144 182.44 319.18 182.211 320.201 181.929C321.217 181.663 322.247 181.46 323.225 181.144L326.118 180.117L327.539 179.61L328.842 178.989L331.449 177.721C332.335 177.329 333.117 176.771 333.952 176.315C334.786 175.858 335.581 175.377 336.363 174.882L338.579 173.273C343.819 169.412 348.244 164.605 351.613 159.115C354.19 154.987 356.114 150.505 357.322 145.82C357.595 144.92 357.817 144.006 357.986 143.082C358.13 142.22 358.273 141.409 358.39 140.649C358.508 139.888 358.651 139.191 358.716 138.557C358.781 137.924 358.794 137.29 358.821 136.808C358.899 135.769 358.951 134.983 358.977 134.426C359.003 133.868 359.055 133.614 359.055 133.614C359.055 133.614 359.055 133.893 359.055 134.426C359.055 134.958 359.055 135.782 358.964 136.808C358.964 137.341 358.964 137.924 358.886 138.57C358.808 139.217 358.703 139.914 358.586 140.674C358.469 141.435 358.351 142.258 358.221 143.133C358.061 144.062 357.843 144.98 357.569 145.883C356.417 150.614 354.518 155.141 351.939 159.306C348.581 164.853 344.155 169.72 338.905 173.64L336.663 175.275C335.881 175.782 335.059 176.239 334.238 176.733C333.417 177.227 332.609 177.76 331.71 178.165L329.025 179.433L327.721 180.066L326.274 180.573L323.368 181.613C322.377 181.942 321.348 182.145 320.318 182.424C319.285 182.714 318.237 182.947 317.177 183.121C315.024 183.516 312.847 183.77 310.66 183.881C309.539 183.881 308.405 184.021 307.271 184.008L303.843 183.843C303.269 183.843 302.683 183.843 302.109 183.742L300.376 183.488C299.229 183.298 298.056 183.171 296.896 182.943C292.135 181.925 287.527 180.319 283.184 178.165C282.089 177.582 281.046 176.898 279.951 176.289C279.417 175.96 278.857 175.681 278.348 175.301L276.823 174.198C274.749 172.706 272.781 171.08 270.932 169.331C269.099 167.498 267.397 165.545 265.836 163.488L264.649 161.942L263.594 160.281L262.551 158.608L262.03 157.772L261.586 156.885L259.827 153.336C259.358 152.068 258.888 150.801 258.406 149.597C254.835 139.264 254.835 128.079 258.406 117.746L259.814 113.944L261.573 110.395C261.85 109.795 262.177 109.219 262.551 108.671L263.594 106.998L264.636 105.338L265.836 103.791C268.86 99.6595 272.568 96.0446 276.81 93.0942L278.335 91.9789C278.844 91.6113 279.417 91.3325 279.938 91.003C281.033 90.3692 282.076 89.7355 283.171 89.1271C285.356 88.0117 287.621 87.0502 289.949 86.25C292.214 85.4744 294.531 84.8477 296.883 84.3742C298.043 84.1461 299.216 84.0067 300.363 83.8292L302.096 83.5757C302.67 83.4997 303.256 83.4997 303.83 83.4617L307.258 83.3096C308.392 83.3096 309.526 83.3983 310.634 83.4363C312.821 83.547 314.998 83.8011 317.151 84.1968C318.213 84.3585 319.263 84.5914 320.292 84.8939C321.309 85.16 322.351 85.3755 323.342 85.6924L326.248 86.7317L327.682 87.2513L329.051 87.885L331.736 89.1525C332.635 89.5454 333.43 90.1157 334.264 90.572C335.099 91.0283 335.907 91.5353 336.689 92.0423L338.918 93.6646C344.198 97.5776 348.646 102.45 352.017 108.012C354.591 112.179 356.49 116.706 357.648 121.434C357.924 122.337 358.142 123.255 358.299 124.185C358.43 125.059 358.56 125.87 358.664 126.643C358.768 127.417 358.912 128.101 358.964 128.747C359.016 129.394 358.964 130.015 359.042 130.497C359.042 131.536 359.107 132.322 359.133 132.892C359.159 133.462 359.172 133.64 359.172 133.64Z" fill="#1E272E"/>
<path d="M521.043 452.896C517.721 449.785 513.648 447.537 509.198 446.361C504.747 445.184 500.064 445.116 495.58 446.163C491.096 447.21 486.955 449.338 483.539 452.351C480.124 455.364 477.543 459.165 476.036 463.403L479.295 475.659C480.533 471.489 483.205 467.446 487.285 465.735C491.364 464.024 496.487 464.962 500.853 466.508C505.219 468.054 509.508 470.108 514.135 470.387C518.762 470.665 524.015 468.523 525.396 464.214C526.7 460.171 524.184 455.849 521.043 452.896Z" fill="#4ABDAC"/>
<g opacity="0.3">
<path opacity="0.3" d="M521.043 452.896C517.721 449.785 513.648 447.537 509.198 446.361C504.747 445.184 500.064 445.116 495.58 446.163C491.096 447.21 486.955 449.338 483.539 452.351C480.124 455.364 477.543 459.165 476.036 463.403L479.295 475.659C480.533 471.489 483.205 467.446 487.285 465.735C491.364 464.024 496.487 464.962 500.853 466.508C505.219 468.054 509.508 470.108 514.135 470.387C518.762 470.665 524.015 468.523 525.396 464.214C526.7 460.171 524.184 455.849 521.043 452.896Z" fill="black"/>
</g>
<path d="M442.565 493.758C435.761 487.421 436.048 476.533 439.489 468.029C442.93 459.524 450.294 452.984 458.557 448.688C466.631 444.563 475.562 442.271 484.677 441.984C493.793 441.696 502.857 443.42 511.189 447.027C507.111 447.199 503.138 448.34 499.618 450.351C496.098 452.361 493.139 455.18 490.999 458.561C487.271 464.581 486.437 471.882 483.361 478.244C479.887 485.409 473.723 491.008 466.137 493.893C458.55 496.778 450.116 496.73 442.565 493.758" fill="#4ABDAC"/>
<path d="M439.294 456.014C431.76 447.37 430.757 433.491 431.864 422.223C432.972 410.956 435.657 399.587 433.833 388.408C432.751 381.779 430.105 375.442 429.219 368.788C428.332 362.134 429.584 354.605 434.888 350.309C440.988 345.378 450.529 346.506 456.916 351.183C463.303 355.86 466.939 363.097 469.624 370.36C475.516 386.304 477.679 403.985 472.844 420.272C468.008 436.558 456.629 451.096 439.946 456.014" fill="#4ABDAC"/>
<path d="M435.671 526.94C435.651 526.606 435.651 526.272 435.671 525.939C435.671 525.292 435.671 524.329 435.736 523.087C435.828 520.552 436.075 517.016 436.649 512.618C437.314 507.457 438.28 502.336 439.542 497.282C441.098 491.076 443.518 485.106 446.737 479.537C449.946 473.967 453.89 468.829 458.468 464.252C462.194 460.511 466.323 457.171 470.785 454.29C472.662 453.022 474.487 452.059 475.999 451.172C477.511 450.285 479.009 449.676 480.156 449.144L482.868 448.029C483.178 447.887 483.501 447.772 483.832 447.687C483.537 447.856 483.233 448.008 482.92 448.143L480.313 449.347C479.192 449.917 477.81 450.614 476.22 451.464C474.63 452.313 472.883 453.365 471.007 454.645C461.209 461.156 453.08 469.768 447.245 479.816C440.324 491.591 438.434 503.974 437.053 512.656C436.427 517.041 436.114 520.615 435.945 523.087C435.88 524.278 435.815 525.229 435.775 525.926C435.778 526.266 435.743 526.606 435.671 526.94V526.94Z" fill="#1E272E"/>
<path d="M370.722 421.919C356.788 430.094 356.827 437.534 359.16 444.556C361.493 451.578 370.044 456.457 377.121 453.821C381.136 452.338 384.042 448.954 386.519 445.545C388.995 442.135 391.328 438.498 394.796 436.051C398.263 433.605 403.32 432.68 406.8 435.101" fill="#4ABDAC"/>
<path d="M411.218 437.395L397.871 432.515L403.189 433.124C404.625 433.267 405.999 433.769 407.177 434.581L411.218 437.395Z" fill="black"/>
<g opacity="0.3">
<path opacity="0.3" d="M370.722 421.919C356.788 430.094 356.827 437.534 359.16 444.556C361.493 451.578 370.044 456.457 377.121 453.821C381.136 452.338 384.042 448.954 386.519 445.545C388.995 442.135 391.328 438.498 394.796 436.051C397.189 434.331 400.145 433.515 403.111 433.757L370.722 421.919Z" fill="black"/>
</g>
<path d="M360.294 430.88C363.93 425.988 372.937 424.543 378.62 427.015C384.303 429.486 388.461 434.29 392.188 439.131C395.916 443.973 399.54 449.068 404.701 452.44C409.863 455.811 417.07 457.002 422.284 453.631C423.923 452.44 425.295 450.937 426.317 449.213C427.339 447.489 427.989 445.581 428.227 443.605C428.681 439.652 428.408 435.652 427.419 431.793C426.181 426.115 424.174 420.183 419.508 416.583C414.294 412.566 407.06 412.363 400.413 412.578C392.775 412.819 385.033 413.377 377.864 415.95C370.695 418.523 363.396 424.074 360.359 430.893" fill="#4ABDAC"/>
<path d="M424.096 516.091C424.079 515.99 424.079 515.887 424.096 515.786C424.096 515.558 424.096 515.267 424.096 514.912C424.096 514.101 424.031 512.973 423.979 511.553C423.901 508.587 423.77 504.367 423.614 499.183C423.458 493.999 423.223 487.776 422.845 480.856C422.467 473.935 421.92 466.394 420.838 458.498C420.39 454.641 419.618 450.826 418.531 447.091C417.425 443.663 415.998 440.341 414.269 437.167C412.715 434.283 410.914 431.531 408.885 428.941C407.093 426.684 405.123 424.565 402.994 422.604C399.885 419.817 396.372 417.489 392.567 415.696C391.889 415.392 391.263 415.101 390.755 414.885L389.452 414.378L388.617 414.049C388.519 414.017 388.426 413.97 388.344 413.909C388.446 413.926 388.546 413.951 388.644 413.985L389.491 414.251L390.885 414.72C391.433 414.91 392.032 415.189 392.723 415.481C396.6 417.21 400.182 419.505 403.346 422.287C405.516 424.24 407.521 426.359 409.342 428.624C411.413 431.22 413.249 433.985 414.829 436.888C416.594 440.091 418.047 443.447 419.169 446.913C420.269 450.647 421.054 454.462 421.515 458.32C422.597 466.242 423.106 473.821 423.471 480.729C423.836 487.636 423.992 493.847 424.109 499.069C424.227 504.291 424.266 508.524 424.279 511.452V514.81C424.279 515.165 424.279 515.457 424.279 515.685C424.24 515.829 424.179 515.966 424.096 516.091V516.091Z" fill="#1E272E"/>
<path d="M429.115 522.212C428.452 520.314 427.942 518.369 427.59 516.394C426.619 510.997 426.404 505.497 426.951 500.044C427.799 491.971 429.578 484.016 432.256 476.33C435.11 467.61 438.994 458.295 442.318 448.269C443.951 443.404 445.283 438.448 446.307 433.427C447.255 428.744 447.938 424.014 448.353 419.257C448.991 411.199 449.139 403.112 448.796 395.036C448.561 388.142 448.183 382.565 447.949 378.699L447.675 374.263C447.675 373.781 447.675 373.401 447.675 373.11C447.658 372.979 447.658 372.847 447.675 372.717C447.708 372.841 447.73 372.969 447.74 373.097C447.74 373.389 447.805 373.769 447.858 374.25C447.949 375.302 448.079 376.785 448.236 378.686C448.548 382.489 448.992 388.116 449.291 395.024C449.697 403.117 449.592 411.227 448.979 419.308C448.6 424.084 447.947 428.836 447.023 433.541C446.003 438.589 444.667 443.57 443.022 448.459C439.698 458.51 435.801 467.813 432.921 476.495C430.191 484.141 428.333 492.055 427.381 500.095C426.808 505.511 426.957 510.977 427.824 516.356C428.163 518.257 428.476 519.728 428.75 520.704C428.867 521.173 428.958 521.553 429.036 521.832L429.115 522.212Z" fill="#1E272E"/>
<path d="M463.655 528.334H398.237L396.738 516.09H463.655V528.334Z" fill="#485671"/>
<path d="M405.249 526.94L413.434 563.67H448.978L456.629 526.94H405.249Z" fill="#485671"/>
<path d="M463.654 528.334C463.654 528.499 449.317 528.6 431.525 528.55C413.734 528.499 399.409 528.322 399.409 528.157C399.409 527.992 413.747 527.891 431.525 527.941C449.304 527.992 463.654 528.169 463.654 528.334Z" fill="#485671"/>
<path d="M452.419 546.459C450.641 545.164 448.706 544.088 446.658 543.252C444.426 542.4 442.057 541.936 439.659 541.883C436.716 541.891 433.798 542.41 431.044 543.417C428.059 544.405 425.269 545.546 422.558 546.167C420.151 546.674 417.668 546.747 415.233 546.382C413.594 546.152 412.005 545.664 410.528 544.938C410.134 544.727 409.755 544.49 409.394 544.228C409.146 544.05 409.029 543.949 409.042 543.936C409.055 543.924 409.589 544.253 410.632 544.722C412.116 545.364 413.688 545.791 415.298 545.99C417.682 546.281 420.099 546.165 422.441 545.647C425.048 545.014 427.837 543.86 430.848 542.872C433.667 541.838 436.659 541.322 439.672 541.351C442.135 541.423 444.562 541.943 446.828 542.884C448.354 543.496 449.788 544.306 451.09 545.293C451.447 545.559 451.786 545.847 452.107 546.154C452.328 546.332 452.432 546.446 452.419 546.459Z" fill="#1E272E"/>
<path d="M451.924 548.917C450.211 547.661 448.357 546.598 446.397 545.748C444.248 544.894 441.954 544.434 439.633 544.392C436.79 544.4 433.971 544.893 431.304 545.85C428.423 546.788 425.712 547.878 423.131 548.55C420.847 549.19 418.467 549.451 416.093 549.323C414.487 549.228 412.918 548.818 411.479 548.119C411.093 547.917 410.723 547.688 410.371 547.434C410.136 547.269 410.019 547.168 410.032 547.155C410.045 547.143 410.58 547.46 411.583 547.903C413.018 548.506 414.557 548.841 416.119 548.892C418.438 548.962 420.753 548.667 422.975 548.017C425.504 547.32 428.189 546.217 431.108 545.28C433.842 544.303 436.734 543.813 439.646 543.835C443.651 543.951 447.51 545.325 450.646 547.751C450.988 548.012 451.314 548.291 451.624 548.588C451.832 548.79 451.937 548.904 451.924 548.917Z" fill="white"/>
<path d="M453.07 544.025C451.236 542.682 449.251 541.547 447.153 540.641C444.876 539.682 442.447 539.112 439.971 538.955C436.934 538.895 433.915 539.412 431.082 540.476C428.218 541.575 425.288 542.506 422.31 543.264C419.804 543.69 417.242 543.69 414.737 543.264C413.048 543.007 411.409 542.503 409.875 541.769C409.464 541.566 409.071 541.328 408.702 541.059C408.441 540.869 408.311 540.767 408.324 540.755C408.337 540.742 408.911 541.084 409.979 541.553C411.521 542.185 413.143 542.611 414.802 542.821C417.257 543.169 419.754 543.122 422.192 542.681C425.138 541.889 428.04 540.95 430.886 539.868C433.793 538.775 436.895 538.262 440.01 538.359C444.275 538.693 448.349 540.221 451.741 542.757C452.106 543.032 452.455 543.328 452.783 543.644C452.966 543.898 453.083 544.012 453.07 544.025Z" fill="white"/>
<path d="M464.23 528.385C464.23 528.55 449.514 528.689 431.371 528.689C413.228 528.689 398.499 528.55 398.499 528.385C398.499 528.22 413.214 528.081 431.371 528.081C449.527 528.081 464.23 528.22 464.23 528.385Z" fill="#1E272E"/>
<path d="M139.525 548.106L135.602 491.933L166.857 494.785L164.25 549.247L148.883 550.083L139.525 548.106Z" fill="#B78876"/>
<path d="M138.625 545.318V546.991C138.625 546.991 110.159 558.398 109.95 563.709L166.714 562.872L165.619 544.456C157.238 548.41 148.414 548.968 138.625 545.318Z" fill="#4ABDAC"/>
<g opacity="0.6">
<path opacity="0.6" d="M159.962 550.439C160.507 550.592 160.975 550.936 161.278 551.403C161.581 551.87 161.697 552.429 161.604 552.973C161.467 553.517 161.12 553.988 160.634 554.288C160.148 554.588 159.561 554.694 158.997 554.583C158.416 554.417 157.918 554.049 157.598 553.549C157.278 553.048 157.159 552.451 157.264 551.871C157.468 551.324 157.881 550.874 158.418 550.617C158.955 550.36 159.573 550.314 160.144 550.489" fill="white"/>
</g>
<g opacity="0.6">
<path opacity="0.6" d="M166.673 562.834L166.412 558.423L112.073 560.831C112.073 560.831 109.558 561.946 109.871 563.67L166.673 562.834Z" fill="white"/>
</g>
<path d="M138.442 547.105C138.442 547.384 139.837 547.485 141.219 548.373C142.6 549.26 143.343 550.337 143.591 550.223C143.838 550.109 143.408 548.563 141.727 547.561C140.045 546.56 138.377 546.864 138.442 547.105Z" fill="#1E272E"/>
<path d="M132.525 549.589C132.46 549.855 133.672 550.299 134.636 551.427C135.601 552.555 135.875 553.747 136.161 553.734C136.448 553.721 136.592 552.188 135.366 550.806C134.141 549.425 132.525 549.336 132.525 549.589Z" fill="#1E272E"/>
<path d="M129.253 556.573C129.5 556.573 129.865 555.305 129.135 553.81C128.406 552.314 127.089 551.769 126.985 551.997C126.881 552.225 127.676 552.998 128.288 554.215C128.901 555.432 129.018 556.547 129.253 556.573Z" fill="#1E272E"/>
<path d="M203.651 510.476L168.563 465.684L196.274 451.324L224.949 498.182L212.593 507.104L203.651 510.476Z" fill="#B78876"/>
<path d="M201.331 508.626L202.27 509.982C202.27 509.982 184.987 534.786 187.763 539.386L234.686 508.296L223.411 493.543C221.057 497.448 217.867 500.816 214.057 503.418C210.248 506.02 205.908 507.796 201.331 508.626Z" fill="#4ABDAC"/>
<g opacity="0.6">
<path opacity="0.6" d="M222.044 501.477C222.592 501.316 223.181 501.356 223.7 501.589C224.219 501.823 224.632 502.234 224.86 502.744C225.043 503.274 225.01 503.853 224.768 504.36C224.525 504.867 224.091 505.264 223.556 505.469C222.979 505.645 222.356 505.606 221.806 505.361C221.257 505.115 220.822 504.679 220.584 504.138C220.44 503.572 220.528 502.974 220.83 502.47C221.132 501.966 221.623 501.596 222.201 501.439" fill="white"/>
</g>
<g opacity="0.6">
<path opacity="0.6" d="M234.659 508.232L231.948 504.684L187.997 535.774C187.997 535.774 186.524 538.043 187.762 539.323L234.659 508.232Z" fill="white"/>
</g>
<path d="M202.191 510.235C202.361 510.45 203.573 509.791 205.202 509.766C206.832 509.741 208.083 510.273 208.239 510.045C208.396 509.817 207.144 508.777 205.163 508.777C203.182 508.777 202.009 510.045 202.191 510.235Z" fill="#1E272E"/>
<path d="M198.658 515.457C198.763 515.71 199.962 515.457 201.448 515.862C202.934 516.268 203.82 517.13 204.054 516.978C204.289 516.826 203.546 515.457 201.747 514.963C199.949 514.468 198.515 515.305 198.658 515.457Z" fill="#1E272E"/>
<path d="M199.884 523.036C200.118 522.947 199.662 521.629 198.215 520.793C196.769 519.956 195.361 520.184 195.387 520.438C195.413 520.691 196.547 520.907 197.72 521.604C198.893 522.301 199.636 523.163 199.884 523.036Z" fill="#1E272E"/>
<path d="M149.43 317.71C149.43 317.71 122.319 411.704 124.144 418.459C125.969 425.215 174.129 494.607 175.498 495.038C176.867 495.469 214.939 473.39 214.939 473.39L175.498 410.17C175.498 410.17 197.46 364.454 203.86 344.263C210.26 324.073 211.498 323.034 207.523 304.643C205.111 293.489 194.358 278.559 194.358 278.559L192.625 273.4H148.192L149.43 317.71Z" fill="#1E272E"/>
<path d="M120.169 273.388L116.949 285.897C111.462 289.7 103.237 307.634 102.781 314.808C102.325 321.981 100.552 351.462 100.5 371.843C100.422 395.468 127.429 535.774 127.429 535.774H175.941L158.88 313.071L154.605 273.388H120.169Z" fill="#1E272E"/>
<path d="M147.879 301.576C147.87 301.755 147.844 301.933 147.801 302.108C147.722 302.488 147.631 303.008 147.501 303.667C147.214 305.061 146.797 307.064 146.276 309.624C145.142 314.795 143.447 322.298 141.218 331.437C138.99 340.575 136.279 351.551 133.607 363.756C132.303 369.853 131 376.279 129.905 382.984C128.713 389.882 128.021 396.853 127.832 403.846C127.715 411.007 128.289 418.092 130.856 424.404C133.28 430.487 136.101 436.414 139.302 442.148C145.35 453.137 151.463 462.693 156.82 470.551C162.177 478.409 166.817 484.557 170.141 488.688C171.836 490.754 173.139 492.351 174.051 493.378L175.107 494.582C175.236 494.714 175.349 494.858 175.446 495.013C173.483 493.054 171.626 490.998 169.88 488.853C166.479 484.734 161.773 478.6 156.364 470.754C150.955 462.909 144.803 453.377 138.703 442.376C135.464 436.65 132.616 430.722 130.179 424.632C127.572 418.295 126.972 411.032 127.103 403.846C127.291 396.823 127.992 389.821 129.201 382.895C130.257 376.177 131.599 369.752 132.942 363.642C135.653 351.437 138.429 340.524 140.697 331.348C142.965 322.172 144.751 314.732 145.911 309.586C146.497 307.051 146.94 305.036 147.214 303.642L147.592 302.108C147.667 301.921 147.763 301.742 147.879 301.576Z" fill="#485671"/>
<path d="M205.189 306.797C204.663 307.051 204.107 307.242 203.534 307.368C201.997 307.783 200.428 308.071 198.841 308.23C193.569 308.767 188.242 307.976 183.375 305.931C178.508 303.887 174.264 300.658 171.053 296.556C170.067 295.332 169.195 294.026 168.446 292.653C168.144 292.164 167.907 291.641 167.742 291.094C167.859 291.018 168.889 293.248 171.392 296.265C174.639 300.212 178.833 303.324 183.605 305.328C188.377 307.332 193.582 308.168 198.763 307.761C202.778 307.444 205.15 306.658 205.189 306.797Z" fill="#485671"/>
<path d="M122.761 287.279C122.761 287.279 122.761 287.659 122.54 288.318C122.279 289.242 121.957 290.148 121.575 291.031C119.053 296.936 114.892 302.044 109.558 305.784C108.756 306.348 107.921 306.864 107.055 307.33C106.754 307.532 106.419 307.683 106.064 307.774C106.064 307.685 107.368 306.899 109.271 305.416C114.353 301.536 118.417 296.542 121.132 290.841C122.175 288.661 122.657 287.241 122.761 287.279Z" fill="#485671"/>
<path d="M201.436 107.745C202.465 106.577 203.138 105.153 203.38 103.633C203.622 102.114 203.423 100.558 202.805 99.1422C202.188 97.7263 201.176 96.5061 199.884 95.619C198.592 94.7318 197.071 94.2128 195.492 94.1205C195.981 92.6895 196.086 91.161 195.799 89.6794C195.511 88.1977 194.84 86.8118 193.849 85.6524C192.857 84.4931 191.578 83.5985 190.133 83.0533C188.687 82.508 187.122 82.33 185.586 82.536C185.484 81.0242 185.011 79.5581 184.207 78.2607C183.402 76.9632 182.289 75.8722 180.962 75.0791C179.634 74.2859 178.13 73.8137 176.577 73.702C175.023 73.5903 173.464 73.8423 172.031 74.437C171.109 73.3532 169.941 72.4911 168.62 71.9178C167.299 71.3446 165.86 71.0757 164.414 71.1321C162.968 71.1885 161.556 71.5687 160.286 72.2431C159.016 72.9175 157.924 73.8678 157.094 75.0201C155.477 75.2757 153.938 75.8727 152.584 76.7691C151.092 76.5158 149.556 76.7381 148.205 77.4029C146.542 78.2941 145.023 79.4172 143.695 80.7362C141.44 82.7895 139.068 84.9822 138.273 87.8846C137.373 91.1166 138.559 94.8175 136.878 97.7453C136.06 98.7942 135.336 99.9094 134.714 101.079C133.867 103.436 135.509 105.971 135.314 108.468C135.118 110.965 132.864 113.398 133.137 116.073C133.33 117.013 133.719 117.905 134.282 118.692C134.845 119.479 135.569 120.145 136.409 120.648C138.09 121.648 139.658 122.816 141.088 124.134C142.131 125.287 142.796 126.668 143.825 127.872C145.334 129.481 147.416 130.47 149.648 130.64C151.88 130.809 154.095 130.146 155.843 128.785C157.038 129.667 158.433 130.259 159.911 130.51C161.39 130.762 162.908 130.665 164.341 130.23C167.199 129.342 169.889 128.006 172.305 126.276C172.845 126.986 173.559 127.553 174.382 127.927C175.206 128.3 176.112 128.467 177.019 128.413C177.926 128.359 178.804 128.085 179.574 127.616C180.344 127.148 180.982 126.5 181.428 125.731C181.841 126.659 182.559 127.428 183.469 127.917C184.38 128.405 185.432 128.586 186.46 128.43C188.511 128.081 190.454 127.283 192.142 126.098C195.453 124.108 199.168 121.497 199.246 117.708C199.246 115.388 197.943 112.993 198.842 110.851C199.532 109.689 200.408 108.641 201.436 107.745V107.745Z" fill="#1E272E"/>
<path d="M127.545 92.6376C129.538 89.9333 132.09 87.663 135.037 85.9717C137.983 84.2804 141.261 83.2052 144.659 82.8149C154.108 81.256 164.614 82.8149 172.291 88.3917C179.329 93.4614 183.24 101.941 184.334 110.433C184.712 113.424 183.787 116.301 182.927 119.191C181.596 122.545 179.133 125.361 175.94 127.175C173.19 128.582 172.03 127.682 169.723 125.693C168.4 124.364 167.37 122.785 166.699 121.054C163.363 113.969 159.544 106.947 153.926 101.383C148.308 95.8189 140.631 91.8391 132.615 92.0799" fill="#4ABDAC"/>
<path d="M169.227 106.655C168.263 104.12 168.68 101.294 168.328 98.5944C167.533 92.6754 162.788 87.669 157.053 85.489C151.199 83.5 144.818 83.5359 138.988 85.5904C134.581 86.8735 130.621 89.3116 127.544 92.6374C125.601 94.9202 124.248 97.6218 123.597 100.517C122.946 103.412 123.017 106.416 123.803 109.279L154.981 105.261C157.733 107.794 160.895 109.871 164.339 111.408C165.351 111.87 166.472 112.058 167.585 111.953C168.138 111.897 168.662 111.686 169.094 111.347C169.527 111.007 169.849 110.553 170.022 110.039C170.107 108.86 169.83 107.682 169.227 106.655V106.655Z" fill="#1E272E"/>
<path d="M138.221 93.9303L165.305 99.8746C166.572 99.9699 167.756 100.524 168.623 101.428C169.489 102.332 169.975 103.519 169.985 104.754L168.903 161.929C168.848 165.828 167.474 169.601 164.993 172.664L162.386 175.883C161.009 177.587 159.217 178.93 157.172 179.791C155.127 180.652 152.894 181.004 150.674 180.816C148.454 180.627 146.317 179.903 144.457 178.71C142.597 177.517 141.072 175.892 140.019 173.982C139.757 173.505 139.556 172.998 139.42 172.474C139.31 172.057 139.232 171.634 139.185 171.206C138.753 168.341 138.631 165.44 138.82 162.55C138.625 157.48 138.572 155.363 138.572 155.414C138.572 155.465 127.467 153.906 124.795 139.939C123.492 132.993 123.492 121.548 123.883 112.181C124.118 103.728 129.566 93.2459 138.221 93.9303Z" fill="#B78876"/>
<path d="M129.422 120.864C129.429 121.332 129.623 121.78 129.964 122.111C130.305 122.442 130.765 122.631 131.247 122.638C131.483 122.652 131.72 122.619 131.943 122.541C132.166 122.464 132.371 122.343 132.545 122.187C132.719 122.031 132.859 121.842 132.956 121.632C133.053 121.422 133.106 121.195 133.111 120.965C133.104 120.498 132.909 120.051 132.568 119.722C132.227 119.393 131.766 119.207 131.286 119.203C131.05 119.19 130.815 119.222 130.592 119.299C130.37 119.375 130.166 119.495 129.992 119.65C129.818 119.804 129.678 119.992 129.58 120.2C129.482 120.409 129.428 120.634 129.422 120.864Z" fill="#1E272E"/>
<path d="M126.502 118.05C126.736 118.278 128.118 117.226 130.099 117.188C132.08 117.15 133.579 118.075 133.788 117.821C133.996 117.568 133.644 117.302 132.993 116.871C132.121 116.31 131.091 116.027 130.047 116.06C129.009 116.08 128.004 116.422 127.179 117.036C126.58 117.517 126.41 117.948 126.502 118.05Z" fill="#1E272E"/>
<path d="M148.283 120.864C148.293 121.333 148.491 121.781 148.833 122.112C149.176 122.443 149.638 122.632 150.121 122.638C150.357 122.65 150.593 122.616 150.815 122.538C151.038 122.46 151.242 122.339 151.415 122.183C151.589 122.027 151.729 121.839 151.827 121.63C151.924 121.421 151.978 121.195 151.985 120.965C151.978 120.495 151.781 120.047 151.437 119.718C151.094 119.388 150.63 119.203 150.147 119.203C149.912 119.19 149.676 119.222 149.454 119.299C149.231 119.375 149.027 119.495 148.854 119.65C148.68 119.804 148.54 119.992 148.442 120.2C148.344 120.409 148.29 120.634 148.283 120.864Z" fill="#1E272E"/>
<path d="M146.08 117.91C146.315 118.138 147.683 117.099 149.678 117.048C151.672 116.998 153.158 117.935 153.366 117.695C153.575 117.454 153.223 117.175 152.571 116.731C151.693 116.175 150.66 115.896 149.613 115.933C148.579 115.956 147.579 116.297 146.758 116.909C146.158 117.327 145.963 117.809 146.08 117.91Z" fill="#1E272E"/>
<path d="M139.237 132.448C138.181 132.15 137.09 131.988 135.991 131.966C135.483 131.966 135.001 131.84 134.897 131.497C134.851 130.99 134.955 130.48 135.196 130.027C135.653 128.76 136.109 127.492 136.604 126.225C138.546 120.813 139.941 116.377 139.719 116.301C139.498 116.225 137.738 120.547 135.809 125.959C135.34 127.29 134.884 128.57 134.506 129.761C134.196 130.361 134.122 131.051 134.297 131.7C134.375 131.872 134.492 132.025 134.638 132.148C134.785 132.271 134.958 132.36 135.144 132.41C135.431 132.474 135.724 132.504 136.017 132.499C137.089 132.611 138.17 132.594 139.237 132.448Z" fill="#1E272E"/>
<path d="M138.48 155.35C145.281 155.292 151.931 153.401 157.693 149.888C157.693 149.888 153.105 159.71 138.624 158.76L138.48 155.35Z" fill="#AA6550"/>
<path d="M140.201 137.087C140.567 136.614 141.052 136.24 141.608 136C142.165 135.761 142.775 135.663 143.381 135.718C143.822 135.741 144.253 135.852 144.648 136.044C145.042 136.236 145.392 136.504 145.675 136.833C145.95 137.15 146.119 137.54 146.158 137.953C146.198 138.365 146.107 138.779 145.897 139.14C145.584 139.497 145.169 139.755 144.705 139.882C144.241 140.008 143.748 139.997 143.29 139.85C142.332 139.551 141.446 139.069 140.683 138.43C140.454 138.281 140.255 138.092 140.097 137.872C140.023 137.766 139.983 137.64 139.983 137.511C139.983 137.383 140.023 137.257 140.097 137.15" fill="#AA6550"/>
<path d="M145.129 133.639C144.803 133.639 144.856 135.731 143.057 137.264C141.258 138.798 138.938 138.633 138.925 138.925C138.912 139.216 139.446 139.318 140.424 139.318C141.69 139.309 142.911 138.859 143.865 138.05C144.789 137.283 145.368 136.197 145.481 135.021C145.533 134.134 145.286 133.627 145.129 133.639Z" fill="#1E272E"/>
<path d="M145.584 112.068C145.792 112.587 147.773 112.296 150.119 112.499C152.466 112.701 154.368 113.284 154.668 112.815C154.799 112.587 154.46 112.093 153.678 111.548C152.645 110.952 151.486 110.592 150.29 110.496C149.093 110.399 147.889 110.568 146.77 110.99C145.962 111.396 145.492 111.827 145.584 112.068Z" fill="#1E272E"/>
<path d="M126.856 109.57C127.221 110.001 128.577 109.57 130.232 109.444C131.887 109.317 133.282 109.659 133.582 109.19C133.725 108.962 133.49 108.531 132.865 108.126C132.039 107.639 131.078 107.413 130.115 107.479C129.145 107.523 128.212 107.855 127.443 108.43C126.869 108.899 126.7 109.355 126.856 109.57Z" fill="#1E272E"/>
<path d="M174.261 102.638C171.55 94.5639 159.389 83.4484 150.682 84.0948L136.84 92.3205C137.307 94.6179 138.4 96.7512 140.005 98.497C141.61 100.243 143.668 101.537 145.964 102.245C148.427 102.967 151.399 103.145 152.872 105.185C154.345 107.226 153.536 110.344 154.944 112.511C156.899 115.502 162.165 115.325 163.638 118.557C164.277 119.976 163.964 121.675 164.628 123.081C165.515 124.945 170.429 127.302 172.449 126.656C174.469 126.009 174.456 122.676 175.056 120.914C175.877 118.93 175.965 116.731 175.303 114.691C174.456 110.737 175.551 106.503 174.261 102.638Z" fill="#1E272E"/>
<path d="M179.669 96.6046L178.601 101.066C178.648 97.8832 177.82 94.7459 176.202 91.9784C172.722 86.9087 165.071 83.4232 159.036 81.7375C153.002 80.0518 145.585 81.0784 139.746 83.3471C134.491 85.2733 129.972 88.7247 126.803 93.2332C122.372 99.0634 121.342 107.847 124.079 109.406C126.243 103.36 129.671 96.4272 135.106 92.8023C137.799 90.9412 140.878 89.6762 144.127 89.0959C147.376 88.5157 150.717 88.6343 153.914 89.4435C160.952 91.4588 166.309 97.251 169.425 103.702C170.943 107.009 172.126 110.451 172.957 113.981C173.97 118.127 173.938 122.449 172.866 126.58L169.346 138.557L169.268 142.448C177.832 139.368 183.123 130.686 184.544 121.915C185.965 113.145 184.948 104.653 179.669 96.6046Z" fill="#4ABDAC"/>
<path d="M172.461 123.233C172.396 123.233 172.695 122.511 172.917 121.193C173.201 119.329 173.05 117.428 172.474 115.629C171.655 112.958 169.897 110.653 167.508 109.114C166.041 108.278 164.517 107.542 162.946 106.909C161.196 106.213 159.615 105.168 158.306 103.842C157.189 102.379 156.282 100.776 155.608 99.076C154.649 97.0763 153.139 95.3743 151.245 94.1593C149.352 92.9443 147.148 92.2639 144.881 92.1938C142.946 92.1529 141.026 92.5341 139.263 93.3091C137.96 93.8668 137.399 94.3231 137.373 94.2724C137.494 94.1352 137.634 94.0157 137.79 93.9175C138.22 93.6003 138.678 93.3204 139.159 93.081C141.373 91.9618 143.884 91.5201 146.362 91.8142C148.839 92.1083 151.167 93.1243 153.04 94.7287C154.374 95.8573 155.452 97.2427 156.207 98.7972C156.868 100.438 157.744 101.989 158.814 103.411C160.068 104.665 161.571 105.657 163.233 106.326C164.824 106.979 166.366 107.741 167.847 108.607C169.912 109.982 171.518 111.915 172.466 114.167C173.413 116.42 173.661 118.894 173.178 121.282C173.065 121.796 172.908 122.301 172.708 122.79C172.647 122.948 172.563 123.097 172.461 123.233Z" fill="#485671"/>
<path d="M171.144 108.214C171.144 108.214 170.831 107.707 170.088 106.947C168.958 105.981 167.666 105.209 166.269 104.666C165.409 104.273 164.431 103.854 163.441 103.284C162.342 102.704 161.39 101.895 160.651 100.914C159.1 98.8099 158.605 95.9708 156.546 94.019C154.605 92.1749 152.096 90.9996 149.403 90.6729C147.217 90.4288 145.002 90.6053 142.886 91.1926C140.919 91.8013 138.994 92.5338 137.125 93.3853C137.555 93.0342 138.028 92.7362 138.533 92.498C139.873 91.7679 141.288 91.1774 142.756 90.7363C144.948 90.0607 147.26 89.8362 149.546 90.0772C152.394 90.3788 155.053 91.607 157.093 93.5627C159.322 95.7047 159.804 98.6325 161.225 100.559C162.646 102.485 164.875 103.385 166.543 104.247C167.968 104.838 169.258 105.7 170.336 106.782C170.622 107.082 170.863 107.419 171.053 107.783C171.105 108.062 171.17 108.202 171.144 108.214Z" fill="#485671"/>
<path d="M166.53 128.354C166.53 127.315 167.677 124.818 168.733 124.628C171.548 124.133 176.658 124.222 176.892 131.218C177.218 140.775 167.286 139.115 167.26 138.823C167.234 138.532 166.608 131.966 166.53 128.354Z" fill="#B78876"/>
<path d="M170.142 135.072C170.142 135.072 170.311 135.186 170.611 135.312C171.029 135.479 171.497 135.479 171.914 135.312C172.545 134.899 173.05 134.327 173.373 133.658C173.697 132.988 173.828 132.246 173.752 131.51C173.752 130.689 173.56 129.879 173.192 129.14C173.096 128.842 172.928 128.571 172.701 128.35C172.474 128.129 172.195 127.965 171.888 127.872C171.69 127.827 171.481 127.852 171.3 127.943C171.118 128.033 170.976 128.184 170.898 128.367C170.767 128.633 170.833 128.823 170.78 128.836C170.728 128.848 170.572 128.684 170.637 128.291C170.687 128.055 170.815 127.841 171.002 127.682C171.266 127.474 171.602 127.374 171.94 127.404C172.348 127.468 172.731 127.634 173.053 127.885C173.375 128.136 173.625 128.463 173.778 128.836C174.225 129.647 174.462 130.552 174.469 131.472C174.469 133.411 173.518 135.274 172.11 135.68C171.849 135.765 171.571 135.791 171.297 135.756C171.024 135.721 170.763 135.625 170.533 135.477C170.168 135.363 170.103 135.148 170.142 135.072Z" fill="#AA6550"/>
<path d="M178.404 135.87C178.518 135.53 178.671 135.202 178.86 134.894C179.173 134.248 179.629 133.31 180.098 132.055C181.412 128.495 182.057 124.734 182.001 120.952C181.948 118.344 181.669 115.745 181.167 113.183C180.661 110.237 179.876 107.344 178.821 104.539C177.636 101.448 175.975 98.5505 173.894 95.9457C171.642 93.1691 168.928 90.7786 165.865 88.8734C159.896 85.1682 152.772 83.6371 145.753 84.5514C142.713 84.9356 139.756 85.7914 136.994 87.0863C134.592 88.2248 132.371 89.6931 130.399 91.4463C127.534 93.999 125.225 97.0849 123.608 100.521C123.061 101.789 122.696 102.727 122.474 103.398C122.375 103.744 122.253 104.082 122.109 104.412C122.152 104.055 122.231 103.703 122.344 103.36C122.623 102.36 122.967 101.378 123.374 100.42C125.999 94.4109 130.74 89.5084 136.747 86.592C139.555 85.2432 142.571 84.3485 145.675 83.943C152.842 82.9628 160.133 84.5094 166.23 88.303C172.316 92.0777 176.946 97.7069 179.394 104.311C180.455 107.156 181.236 110.093 181.727 113.082C182.206 115.676 182.459 118.304 182.483 120.94C182.507 124.768 181.781 128.566 180.346 132.131C179.963 133.087 179.528 134.022 179.042 134.932C178.855 135.261 178.641 135.574 178.404 135.87V135.87Z" fill="#1E272E"/>
<path d="M174.234 137.606C174.364 137.429 174.677 137.353 175.12 137.606C175.416 137.768 175.674 137.988 175.878 138.252C176.082 138.516 176.228 138.818 176.306 139.14C176.441 139.61 176.463 140.104 176.371 140.585C176.255 141.184 175.971 141.741 175.55 142.194C175.084 142.693 174.494 143.068 173.836 143.281C173.179 143.494 172.476 143.539 171.795 143.412C171.114 143.285 170.479 142.989 169.949 142.554C169.42 142.119 169.015 141.558 168.772 140.927C168.573 140.449 168.479 139.936 168.497 139.42C168.515 138.905 168.645 138.399 168.877 137.936C169.029 137.616 169.256 137.336 169.538 137.116C169.821 136.896 170.152 136.743 170.506 136.668C171.04 136.592 171.301 136.833 171.327 137.048C171.32 137.295 171.272 137.539 171.184 137.771C171.137 138.065 171.137 138.364 171.184 138.658C171.26 139.006 171.411 139.334 171.627 139.621C171.824 139.883 172.11 140.067 172.435 140.141C172.759 140.195 173.093 140.146 173.386 140.002C173.522 139.936 173.642 139.843 173.739 139.73C173.835 139.616 173.906 139.484 173.947 139.342C174.195 138.645 173.973 137.974 174.234 137.606Z" fill="#485671"/>
<path d="M97.0981 197.48C97.0981 197.48 98.7274 184.806 105.049 178.38C111.37 171.954 138.664 163.779 138.664 163.779C138.664 163.779 138.846 173.133 145.181 175.325C151.88 177.645 158.397 176.415 163.311 170.877C166.244 167.409 168.197 163.26 168.981 158.836C168.981 158.836 202.035 161.814 207.171 170.243C212.306 178.671 218.954 211.194 218.954 211.194L189.471 217.278L193.485 273.388H115.15L116.688 220.738L95.3516 223.691L97.0981 197.48Z" fill="#485671"/>
<path d="M183.618 219.129C183.53 218.712 183.495 218.286 183.514 217.861C183.514 217.037 183.514 215.859 183.514 214.414C183.514 211.499 183.514 207.481 183.657 203.007C183.8 198.533 183.865 194.553 183.995 191.6C184.06 190.142 184.112 188.963 184.177 188.152C184.166 187.725 184.218 187.298 184.334 186.885C184.428 187.301 184.463 187.727 184.438 188.152C184.438 188.963 184.438 190.142 184.438 191.6C184.438 194.502 184.438 198.52 184.295 203.007C184.151 207.493 184.073 211.461 183.943 214.414C183.943 215.871 183.826 217.05 183.774 217.861C183.786 218.289 183.734 218.716 183.618 219.129V219.129Z" fill="#1E272E"/>
<path d="M109.467 196.036C109.649 196.036 111.487 201.676 113.585 208.71C115.684 215.744 117.222 221.562 117.039 221.6C115.453 217.445 114.083 213.215 112.934 208.926C110.77 201.853 109.245 196.086 109.467 196.036Z" fill="#1E272E"/>
<path d="M203.873 168.203C203.873 168.317 202.466 168.57 200.315 169.369C194.669 171.462 189.971 175.438 187.059 180.586C185.951 182.55 185.495 183.881 185.378 183.843C185.4 183.509 185.474 183.18 185.6 182.867C185.867 181.995 186.211 181.147 186.629 180.332C188.003 177.66 189.905 175.277 192.226 173.32C194.548 171.362 197.243 169.869 200.159 168.925C201.039 168.642 201.941 168.426 202.857 168.279C203.508 168.19 203.86 168.152 203.873 168.203Z" fill="#1E272E"/>
<path d="M104.567 180.953C105.233 182.194 105.699 183.528 105.947 184.908C106.411 186.235 106.657 187.625 106.676 189.027C105.542 186.46 104.831 183.735 104.567 180.953V180.953Z" fill="#1E272E"/>
<path d="M213.74 212.284C213.74 212.284 204.903 255.884 203.899 259.611C202.896 263.337 201.292 273.388 190.565 275.466C176.124 278.267 119.438 276.315 119.438 276.315L130.126 263.147L179.734 249.623L186.512 217.937L213.74 212.284Z" fill="#B78876"/>
<path d="M81.7051 204.185C81.7051 204.185 89.695 230.332 93.0056 241.638C96.5379 253.641 104.228 280.929 120.651 276.074C133.138 272.386 129.462 256.644 129.462 256.644L116.689 220.738L106.744 222.347L97.0983 198.126L81.7051 204.185Z" fill="#B78876"/>
<path d="M125.109 257.773C125.554 255.828 125.554 253.811 125.109 251.866C124.601 249.773 123.718 247.782 122.502 245.985C120.928 243.798 119.185 241.73 117.289 239.8C115.386 237.844 113.642 235.746 112.075 233.526C110.825 231.689 109.731 229.756 108.803 227.747C108.187 226.394 107.656 225.005 107.213 223.59C107.017 223.079 106.886 222.547 106.822 222.005C107.078 222.486 107.291 222.986 107.461 223.501C107.852 224.477 108.412 225.871 109.247 227.544C110.215 229.504 111.335 231.389 112.596 233.184C114.182 235.363 115.924 237.43 117.81 239.369C119.729 241.334 121.473 243.454 123.024 245.707C124.277 247.567 125.161 249.639 125.63 251.816C125.945 253.285 125.967 254.8 125.696 256.277C125.61 256.674 125.493 257.064 125.344 257.443C125.174 257.659 125.109 257.785 125.109 257.773Z" fill="#AA6550"/>
<path d="M68.3846 155.059C68.3846 155.059 69.688 153.285 72.9074 156.022C76.1268 158.76 89.1479 180.269 90.1645 182.246C91.1812 184.223 97.0986 198.127 97.0986 198.127L83.9082 207.214L81.7054 204.185C81.7054 204.185 70.6395 194.641 68.3846 192.005C66.4042 189.799 64.5961 187.452 62.9754 184.983C62.8581 184.438 62.0761 181.663 64.2788 180.852C64.2788 180.852 62.1282 177.531 64.0442 175.883C65.9602 174.236 69.4664 175.769 69.4664 175.769L57.7357 161.067C57.7357 161.067 56.7191 156.681 60.1079 158.329C63.4968 159.977 72.3991 172.588 73.9762 172.917C75.5533 173.247 75.5533 171.65 75.5533 171.65C75.5533 171.65 66.3643 158.05 68.3846 155.059Z" fill="#B78876"/>
<path d="M80.4534 193.653C80.4534 193.653 80.3231 193.45 80.1797 193.045C79.9598 192.451 79.8111 191.834 79.7366 191.207C79.5527 190.062 79.6141 188.892 79.9169 187.771C80.2197 186.65 80.7573 185.602 81.4962 184.692V185.047C80.3101 183.653 79.0197 182.106 77.586 180.471L77.6772 180.548C76.7518 180.028 75.8003 179.458 74.8488 178.849L73.402 177.886C72.8922 177.55 72.4165 177.168 71.9813 176.745C71.5631 176.334 71.3129 175.789 71.2775 175.212C71.2743 174.92 71.3355 174.631 71.4569 174.364C71.5783 174.097 71.7571 173.859 71.9813 173.665L72.0986 173.539H72.2811L80.4013 175.782L86.788 180.408C87.6218 180.965 88.4065 181.588 89.1341 182.271C88.253 181.797 87.404 181.267 86.5925 180.687L80.0755 176.238H80.1667L72.0334 174.084H72.3332C72.1893 174.218 72.0747 174.379 71.9963 174.558C71.9179 174.737 71.8774 174.929 71.877 175.123C71.9168 175.54 72.1059 175.93 72.4114 176.226C72.8119 176.614 73.2482 176.966 73.7148 177.278L75.1225 178.228C76.061 178.836 76.9994 179.407 77.9118 179.914C79.2152 181.587 80.5186 183.146 81.7047 184.553L81.8481 184.73L81.6917 184.908C80.8755 185.851 80.3074 186.973 80.0364 188.178C79.8183 189.108 79.7523 190.066 79.8408 191.017C80.2058 192.766 80.5316 193.628 80.4534 193.653Z" fill="#AA6550"/>
<path d="M69.6607 176.492C70.0783 176.872 70.45 177.297 70.7686 177.759C71.7036 178.995 72.5444 180.295 73.2842 181.65C73.8091 182.591 74.279 183.56 74.6919 184.553C74.9463 185.15 75.0099 185.808 74.8743 186.441C74.773 186.797 74.5696 187.116 74.288 187.363C74.0063 187.61 73.6581 187.774 73.2842 187.835C72.5482 187.972 71.7862 187.851 71.1335 187.493C70.4851 187.166 69.8809 186.761 69.3349 186.289C68.2325 185.316 67.2643 184.208 66.4543 182.994C65.9721 182.322 65.5419 181.638 65.1509 180.991L65.6853 180.611C67.3811 182.521 68.8259 184.628 69.9866 186.885C70.2758 187.424 70.4194 188.026 70.4036 188.634C70.3872 188.937 70.3 189.233 70.1487 189.498C69.9974 189.764 69.786 189.993 69.5304 190.167C69.2735 190.302 68.9886 190.377 68.6972 190.388C68.4058 190.399 68.1157 190.345 67.849 190.231C67.405 190.038 66.9958 189.777 66.6368 189.458C65.5971 188.555 64.6538 187.553 63.8214 186.466C63.4958 186.083 63.2281 185.656 63.0264 185.199C64.2418 186.581 65.5479 187.885 66.9366 189.103C67.5622 189.597 68.5137 190.155 69.2566 189.698C69.4345 189.565 69.5795 189.394 69.6809 189.199C69.7824 189.004 69.8378 188.789 69.8432 188.57C69.8403 188.062 69.7106 187.562 69.4652 187.113C68.2687 184.933 66.8213 182.892 65.1509 181.029L65.6983 180.649C66.1024 181.283 66.5456 181.916 67.0018 182.626C67.795 183.804 68.7364 184.881 69.8041 185.833C70.8468 186.682 72.059 187.518 73.1929 187.278C73.4576 187.237 73.7053 187.126 73.908 186.955C74.1107 186.785 74.2604 186.563 74.3399 186.314C74.4477 185.792 74.3979 185.251 74.1966 184.755C73.8055 183.729 73.3233 182.753 72.8932 181.891C72.2017 180.532 71.4314 179.211 70.5861 177.937C70.2291 177.486 69.9191 177.002 69.6607 176.492Z" fill="#AA6550"/>
<path d="M129.162 255.783C129.364 256.094 129.509 256.437 129.592 256.797C129.885 257.742 130.078 258.715 130.165 259.699C130.461 262.989 129.754 266.291 128.132 269.192C127.266 270.791 126.174 272.263 124.887 273.565C123.819 274.635 122.531 275.473 121.107 276.024C120.15 276.382 119.144 276.6 118.122 276.67C117.752 276.743 117.371 276.743 117.001 276.67C118.334 276.439 119.643 276.091 120.911 275.631C122.234 275.042 123.429 274.212 124.43 273.185C125.643 271.892 126.685 270.457 127.533 268.913C129.083 266.107 129.821 262.945 129.67 259.762C129.566 257.278 129.018 255.821 129.162 255.783Z" fill="#AA6550"/>
</svg>
