<svg width="605" height="455" viewBox="0 0 605 455" fill="none" xmlns="http://www.w3.org/2000/svg">
<path opacity="0.3" d="M161.986 92.0467C110.725 105.886 70.2513 138.32 63.8607 198.01C58.4823 248.313 66.0816 337.131 152.408 351.68C320.391 379.933 457.767 389.214 519.558 311.806C557.75 263.978 569.55 130.079 474.536 97.495C410.102 75.4753 271.941 62.3752 161.986 92.0467Z" fill="#E6E6E6"/>
<path d="M480.353 115.938H117.463V307.519H480.353V115.938Z" fill="#E6E6E6"/>
<g opacity="0.12">
<path opacity="0.12" d="M442.901 228.225H461.468V195.067H442.901V228.225Z" fill="black"/>
<path opacity="0.12" d="M412.64 228.225H431.207V182.948H412.64V228.225Z" fill="black"/>
<path opacity="0.12" d="M382.379 228.225H400.946V163.509H382.379V228.225Z" fill="black"/>
<path opacity="0.12" d="M352.118 228.225H370.685V145.851H352.118V228.225Z" fill="black"/>
</g>
<path opacity="0.08" d="M158.345 268.762V239.574C158.345 239.574 172.773 257.353 179.148 256.009C185.524 254.666 195.601 231.862 202.641 230.186C209.681 228.511 210.361 242.26 216.752 240.253C223.142 238.246 246.288 199.006 255.685 198.327C265.082 197.647 272.137 220.12 281.187 216.437C290.236 212.755 316.101 165.471 328.852 158.77V268.747L158.345 268.762Z" fill="black"/>
<g opacity="0.08">
<path opacity="0.08" d="M340.606 278.995H149.447V133.128H152.468V275.977H340.606V278.995Z" fill="black"/>
</g>
<path opacity="0.08" d="M480.429 210.158V307.489H425.3C423.684 293.227 404.361 289.242 376.683 286.963C345.395 284.367 345.758 228.828 341.497 214.007C337.237 199.186 350.093 200.696 350.093 200.696C350.093 200.696 359.158 243.603 379.161 254.047C399.164 264.491 396.218 241.973 402.261 211.034C408.304 180.095 453.627 190.448 453.627 190.448L455.652 172.337C455.652 172.337 447.75 165.244 447.66 155.283C447.569 145.322 452.192 145.775 452.192 145.775L463.976 151.087L466.65 170.466L480.429 210.158Z" fill="black"/>
<path d="M356.801 209.541C356.801 209.541 357.541 197.376 349.731 194.327C341.92 191.279 349.731 213.404 349.731 213.404L356.801 209.541Z" fill="#F4A28C"/>
<path d="M447.01 193.889C445.606 192.271 443.874 190.97 441.928 190.072C439.982 189.174 437.867 188.7 435.723 188.681C433.58 188.663 431.457 189.1 429.496 189.964C427.535 190.828 425.78 192.099 424.348 193.693C414.577 204.454 409.071 218.406 408.863 232.933C407.85 266.604 384.041 263.269 359.294 208.152L347.313 214.687C347.313 214.687 380.097 323.563 430.18 261.82C460.788 224.255 455.636 204.001 447.01 193.889Z" fill="#4ABDAC"/>
<path opacity="0.08" d="M441.828 189.12C439.846 187.657 437.418 186.924 434.956 187.045C432.495 187.166 430.151 188.134 428.322 189.784C422.292 195.262 417.455 201.921 414.112 209.347C410.77 216.773 408.993 224.807 408.893 232.948C407.881 266.619 384.071 263.284 359.324 208.167L347.344 214.702C347.344 214.702 380.128 323.578 430.21 261.835C466.605 216.935 452.343 196.802 441.828 189.12Z" fill="black"/>
<path d="M456.679 151.872C456.086 156.244 456.086 160.676 456.679 165.048C456.911 166.072 457.537 166.963 458.422 167.528C459.308 168.094 460.381 168.287 461.408 168.066C463.086 167.818 464.656 167.091 465.929 165.971C467.203 164.852 468.125 163.389 468.584 161.758L471.364 155.057C471.756 153.638 471.698 152.133 471.197 150.749C470.697 149.365 469.778 148.17 468.569 147.329C464.188 143.858 457.072 147.058 456.679 151.872Z" fill="#F4A28C"/>
<path d="M470.835 156.234L473.781 182.057L459.429 182.661L463.039 163.63L470.835 156.234Z" fill="#F4A28C"/>
<path d="M458.628 152.294C461.071 152.495 463.53 152.414 465.955 152.053C465.199 153.098 464.767 154.34 464.71 155.628C464.654 156.915 464.976 158.191 465.638 159.297C466.256 160.383 467.234 161.22 468.403 161.663C469.572 162.107 470.859 162.129 472.043 161.727L472.376 151.555C472.471 150.099 472.17 148.644 471.505 147.345C470.84 146.046 469.836 144.95 468.599 144.175C467.528 143.497 466.413 142.892 465.26 142.364C462.39 141.066 458.008 142.832 455.455 140.734C455.2 140.538 454.899 140.41 454.581 140.362C454.263 140.314 453.937 140.347 453.636 140.459C453.334 140.571 453.065 140.757 452.855 141C452.645 141.243 452.5 141.536 452.433 141.851C451.844 144.869 452.177 149.819 456.301 151.706C457.042 152.019 457.827 152.218 458.628 152.294V152.294Z" fill="#24285B"/>
<path d="M464.807 159.026C464.807 159.026 464.988 156.007 467.285 156.309C469.581 156.611 469.309 161.063 466.167 161.335L464.807 159.026Z" fill="#F4A28C"/>
<path d="M456.256 156.868L453.914 159.887C453.781 160.054 453.693 160.253 453.658 160.464C453.622 160.675 453.641 160.891 453.712 161.093C453.783 161.295 453.903 161.476 454.063 161.618C454.223 161.761 454.416 161.861 454.624 161.909L457.646 162.618L456.256 156.868Z" fill="#F4A28C"/>
<path opacity="0.31" d="M462.073 167.765C463.877 167.395 465.532 166.503 466.832 165.199C466.832 165.199 466.424 169.938 461 174.406L462.073 167.765Z" fill="#CE8172"/>
<path d="M444.608 182.359C444.608 182.359 497.954 170.421 517.126 181.137C536.297 191.852 498.724 292.699 498.724 292.699L439.804 290.828C439.804 290.828 388.271 192.607 444.608 182.359Z" fill="#4ABDAC"/>
<path opacity="0.08" d="M491.004 190.479C491.004 190.479 474.159 201.39 482.725 226.308C491.291 251.225 492.711 269.079 472.467 262.831C452.222 256.583 453.703 228.692 453.703 228.692L432.99 231.877L430.996 271.464L439.758 290.827L491.004 287.613L511.853 282.3L519.558 256.175L505.402 211.94L491.004 190.479Z" fill="black"/>
<path d="M462.118 342.308C462.39 325.615 464.58 309.814 471.485 306.086C479.311 301.77 484.054 321.344 486.849 342.308H500.96V286.994L439.758 290.888L447.796 342.368L462.118 342.308Z" fill="#24285B"/>
<path d="M501.323 177.952C501.323 177.952 534.56 172.383 534.56 224.542C534.56 276.701 526.583 323.155 449.956 276.61L455.788 267.736C455.788 267.736 497.032 285.847 505.81 269.939C514.587 254.032 471.364 186.751 501.323 177.952Z" fill="#4ABDAC"/>
<path opacity="0.46" d="M501.323 177.952C501.323 177.952 534.56 172.383 534.56 224.542C534.56 276.701 526.583 323.155 449.956 276.61L455.788 267.736C455.788 267.736 497.032 285.847 505.81 269.939C514.587 254.032 471.364 186.751 501.323 177.952Z" fill="white"/>
<path d="M440.657 224.38L412.555 231.441L423.137 273.462L451.238 266.401L440.657 224.38Z" fill="#F7B733"/>
<path d="M455.772 267.736C455.772 267.736 441.949 256.794 439.758 265.155C437.568 273.517 451.935 273.577 451.935 273.577L455.772 267.736Z" fill="#F4A28C"/>
<path opacity="0.08" d="M282.108 145.865H248.463V151.525H282.108V145.865Z" fill="black"/>
<path opacity="0.08" d="M282.108 160.792H248.463V166.452H282.108V160.792Z" fill="black"/>
<path opacity="0.46" d="M237.993 145.865H228.068V151.525H237.993V145.865Z" fill="white"/>
<path d="M237.993 160.792H228.068V166.452H237.993V160.792Z" fill="#F7B733"/>
<path opacity="0.46" d="M215.936 158.785C215.952 164.391 213.812 169.79 209.958 173.865C206.104 177.941 200.83 180.382 195.226 180.684C189.621 180.987 184.115 179.127 179.844 175.49C175.573 171.853 172.863 166.716 172.274 161.141C171.686 155.565 173.263 149.976 176.681 145.529C180.099 141.082 185.096 138.117 190.64 137.245C196.185 136.373 201.852 137.661 206.472 140.844C211.093 144.027 214.313 148.861 215.468 154.348V154.348C215.588 154.921 215.679 155.525 215.77 156.113C215.88 157 215.935 157.892 215.936 158.785V158.785Z" fill="white"/>
<path d="M194.105 136.946V158.754L215.483 154.317C215.483 154.317 212.491 136.84 194.105 136.946Z" fill="#F7B733"/>
<path opacity="0.1" d="M215.936 158.785C215.932 162.733 214.856 166.605 212.822 169.99C210.788 173.375 207.872 176.144 204.386 178.004C200.899 179.863 196.973 180.741 193.026 180.546C189.079 180.351 185.259 179.089 181.974 176.896L194.06 158.785L215.422 154.348C215.543 154.921 215.634 155.525 215.724 156.113C215.85 156.999 215.92 157.891 215.936 158.785V158.785Z" fill="black"/>
<path opacity="0.08" d="M195.269 194.599C195.918 194.599 196.115 194.81 196.115 195.459V196.847C197.255 196.958 198.343 197.378 199.262 198.061C200.18 198.745 200.894 199.666 201.327 200.726C201.674 201.405 201.538 201.767 200.768 202.115L199.393 202.749C198.743 203.05 198.441 202.915 198.063 202.25C197.77 201.551 197.259 200.963 196.606 200.575C195.954 200.186 195.194 200.017 194.438 200.092C192.035 200.092 190.948 200.832 190.963 202.432C191.018 202.922 191.243 203.377 191.599 203.719C191.955 204.061 192.419 204.267 192.912 204.303C193.583 204.455 194.265 204.556 194.951 204.605C196.232 204.663 197.499 204.902 198.713 205.314C199.318 205.504 199.882 205.806 200.375 206.205C200.878 206.727 201.27 207.345 201.53 208.021C201.789 208.698 201.91 209.42 201.886 210.144C201.886 213.162 199.861 215.305 196.22 215.864V217.373C196.22 218.007 196.024 218.248 195.374 218.248H193.863C193.214 218.248 192.987 218.037 192.987 217.388V215.954C191.724 215.873 190.513 215.422 189.505 214.657C188.498 213.892 187.738 212.847 187.322 211.653C187.262 211.527 187.231 211.388 187.231 211.249C187.232 211.109 187.263 210.971 187.324 210.845C187.385 210.719 187.474 210.608 187.583 210.521C187.692 210.433 187.82 210.372 187.956 210.34L189.346 209.827C190.041 209.57 190.358 209.736 190.676 210.446C190.967 211.201 191.499 211.839 192.19 212.262C192.881 212.685 193.692 212.869 194.498 212.785C197.097 212.785 198.381 211.94 198.381 210.28C198.397 209.894 198.284 209.514 198.059 209.199C197.835 208.885 197.512 208.654 197.142 208.544C196.243 208.224 195.3 208.046 194.347 208.016C193.054 207.955 191.78 207.69 190.57 207.231C189.972 207.022 189.415 206.71 188.923 206.31C188.42 205.813 188.026 205.217 187.766 204.56C187.506 203.902 187.386 203.198 187.412 202.492C187.412 199.473 189.286 197.406 192.897 196.893V195.519C192.897 194.87 193.108 194.644 193.758 194.644L195.269 194.599Z" fill="black"/>
<path d="M523.728 326.974H72.6687V343.319H523.728V326.974Z" fill="#E6E6E6"/>
<path d="M523.728 342.563H72.6687V379.6H523.728V342.563Z" fill="#C9C9C9"/>
<path opacity="0.08" d="M138.04 327.472C138.04 327.472 122.932 366.274 87.1873 379.586H319.032L314.394 358.29L163.074 326.974L138.04 327.472Z" fill="black"/>
<path d="M182.548 257.851C182.548 257.851 206.72 275.961 217.024 301.362C218.319 304.503 218.823 307.914 218.492 311.295C218.16 314.676 217.003 317.924 215.123 320.755C213.242 323.585 210.695 325.912 207.705 327.53C204.715 329.148 201.373 330.009 197.973 330.037L169.631 330.233L182.548 257.851Z" fill="#F4A28C"/>
<path d="M154.432 233.417L152.241 246.064L140.85 246.894L147.785 226.655L154.432 233.417Z" fill="#F4A28C"/>
<path d="M150.444 214.717C151.434 213.918 152.611 213.382 153.864 213.159C155.118 212.936 156.407 213.033 157.613 213.441C158.819 213.849 159.902 214.555 160.761 215.493C161.621 216.431 162.229 217.571 162.53 218.807C164.041 224.603 165.143 233.084 158.405 233.779C148.117 234.835 146.319 221.569 146.319 221.569C146.991 218.93 148.425 216.547 150.444 214.717V214.717Z" fill="#F4A28C"/>
<path d="M152.423 224.27C152.423 224.27 151.365 221.614 149.25 223.44C147.135 225.266 149.96 228.209 151.607 227.59C153.254 226.971 152.423 224.27 152.423 224.27Z" fill="#F4A28C"/>
<path d="M110.514 253.021C110.514 253.021 137.98 237.793 162.409 246.894C206.886 263.495 204.439 293.242 173.211 378.589L132.254 378.816L110.514 253.021Z" fill="#4ABDAC"/>
<path opacity="0.08" d="M152.589 244.449C152.589 244.449 149.945 250.954 154.492 269.849C159.04 288.745 182.608 352.087 182.608 352.087L173.271 378.589H158.36L112.508 252.01C112.508 252.01 133.221 241.279 152.589 244.449Z" fill="black"/>
<path d="M161.88 378.815C161.88 378.815 170.295 262.031 120.394 253.021C70.493 244.011 53.9197 286.843 83.0778 378.815H161.88Z" fill="#F7B733"/>
<path d="M149.688 378.815C149.688 378.815 158.118 262.031 108.217 253.021C58.3161 244.011 41.7428 286.843 70.8858 378.815H149.688Z" fill="#F7B733"/>
<path opacity="0.08" d="M149.688 378.815C149.688 378.815 158.118 262.031 108.217 253.021C58.3161 244.011 41.7428 286.843 70.8858 378.815H149.688Z" fill="black"/>
<path d="M138.267 239.574C139.925 237.424 141.031 234.9 141.486 232.224C141.942 229.549 141.734 226.802 140.88 224.225C139.626 220.271 139.717 215.17 144.204 209.887C154.16 198.1 168.377 206.416 163.663 213.117C158.949 219.818 156.366 222.852 156.366 222.852C156.366 222.852 173.544 240.962 164.585 251.889C156.623 261.624 124.081 257.488 138.267 239.574Z" fill="#24285B"/>
<path d="M293.318 233.417L291.128 246.064L279.736 246.894L286.671 226.655L293.318 233.417Z" fill="#F4A28C"/>
<path d="M289.33 214.717C290.32 213.918 291.497 213.382 292.75 213.159C294.004 212.936 295.293 213.033 296.499 213.441C297.705 213.849 298.788 214.555 299.648 215.493C300.507 216.431 301.115 217.571 301.416 218.807C302.927 224.603 304.015 233.084 297.292 233.779C287.003 234.835 285.205 221.569 285.205 221.569C285.877 218.93 287.311 216.547 289.33 214.717V214.717Z" fill="#F4A28C"/>
<path d="M291.309 224.27C291.309 224.27 290.251 221.614 288.136 223.44C286.021 225.266 288.846 228.209 290.493 227.59C292.14 226.971 291.309 224.27 291.309 224.27Z" fill="#F4A28C"/>
<path d="M293.877 222.051C293.877 222.051 291.717 235.635 285.115 231.213C278.513 226.79 284.979 223.863 284.254 216.89C283.528 209.917 287.275 207.457 294.92 205.812C298.455 205.057 300.615 204.982 302.171 204.424C302.842 204.158 303.57 204.068 304.285 204.16C305.001 204.252 305.681 204.525 306.262 204.952C306.844 205.379 307.307 205.946 307.609 206.601C307.911 207.255 308.041 207.976 307.988 208.695C307.429 214.068 304.271 219.954 293.877 222.051Z" fill="#24285B"/>
<path d="M249.4 253.021C249.4 253.021 276.866 237.793 301.295 246.894C345.773 263.495 343.174 294.284 311.871 379.706L271.941 379.389L249.4 253.021Z" fill="#4ABDAC"/>
<path opacity="0.08" d="M291.581 245.037C291.581 245.037 288.952 251.527 293.5 270.422C298.047 289.318 321.6 352.66 321.6 352.66L312.264 379.177H297.367L251.56 252.583C251.56 252.583 272.213 241.852 291.581 245.037Z" fill="black"/>
<path d="M301.295 379.63C301.295 379.63 309.166 262.031 259.28 253.021C209.394 244.011 192.806 286.843 221.949 378.815L301.295 379.63Z" fill="#F7B733"/>
<path d="M288.559 378.816C288.559 378.816 296.974 262.031 247.073 253.021C197.172 244.011 181.792 288.232 210.966 380.219L288.559 378.816Z" fill="#F7B733"/>
<path opacity="0.08" d="M288.559 379.495C288.559 379.495 297.05 262.031 247.149 253.021C197.248 244.011 181.868 288.232 211.041 380.219L288.559 379.495Z" fill="black"/>
<path d="M297.261 276.535C298.108 260.507 318.488 254.017 328.565 266.528C336.361 276.187 341.724 290.419 341.104 311.398C340.731 324.045 342.975 336.633 347.696 348.374C352.417 360.115 359.513 370.755 368.54 379.63H339.443C339.443 379.63 314.726 350.442 301.295 304.365C297.911 292.744 296.884 283.643 297.261 276.535Z" fill="#4ABDAC"/>
</svg>
