<svg width="77" height="75" viewBox="0 0 77 75" fill="none" xmlns="http://www.w3.org/2000/svg">
<path d="M70.6858 13.1764C70.31 12.9299 69.889 12.7595 69.4468 12.6748C69.0047 12.5902 68.5501 12.593 68.109 12.6831C67.668 12.7732 67.2491 12.9489 66.8764 13.2C66.5038 13.4511 66.1846 13.7728 65.9371 14.1466L45.2478 40.7835H31.7521L11.0668 14.1466C10.5666 13.3917 9.785 12.8651 8.89406 12.6828C8.00313 12.5005 7.0758 12.6773 6.31607 13.1744C5.55635 13.6715 5.02646 14.4481 4.84297 15.3334C4.65949 16.2188 4.83745 17.1402 5.33769 17.8952L25.8213 48.8098C26.1279 49.2789 26.9953 67.8934 26.9953 67.8934H49.9924C49.9924 67.8934 50.8558 49.2789 51.1665 48.8098L71.6501 17.8952C72.1511 17.1421 72.331 16.2223 72.1502 15.3376C71.9694 14.4529 71.4428 13.6756 70.6858 13.1764V13.1764Z" fill="#00AA92"/>
<path d="M50.0082 68.2943H27.0111C26.9041 68.2943 26.8015 68.2521 26.7258 68.1769C26.6501 68.1017 26.6076 67.9997 26.6076 67.8934C26.2768 60.7531 25.7039 49.9043 25.4739 48.9742L5.01456 18.1036C4.45546 17.2599 4.25656 16.2301 4.46161 15.2406C4.66665 14.2511 5.25885 13.3832 6.10793 12.8276C6.957 12.272 7.9934 12.0744 8.98913 12.2781C9.98485 12.4819 10.8583 13.0703 11.4174 13.9141L31.9656 40.3745H45.0659L65.6422 13.894C66.2032 13.0651 67.0695 12.4885 68.0544 12.2882C69.0392 12.088 70.0638 12.2803 70.9073 12.8236V12.8236C71.3278 13.0986 71.6896 13.4533 71.9721 13.8673C72.2546 14.2814 72.4523 14.7466 72.5538 15.2366C72.6553 15.7265 72.6587 16.2315 72.5638 16.7228C72.4689 17.214 72.2776 17.6819 72.0007 18.0996L51.5454 48.9702C51.3154 49.9003 50.7385 60.7491 50.4076 67.8894C50.4082 67.942 50.3983 67.9943 50.3785 68.0431C50.3587 68.092 50.3294 68.1365 50.2923 68.1741C50.2552 68.2117 50.2111 68.2416 50.1623 68.2623C50.1136 68.2829 50.0612 68.2938 50.0082 68.2943ZM27.3782 67.4925H49.6209C50.0244 59.0292 50.5448 49.0504 50.8313 48.5893L71.3269 17.6747C71.7663 17.0079 71.9221 16.1954 71.7603 15.4149C71.5985 14.6343 71.1323 13.9491 70.4635 13.5091V13.5091C70.1316 13.2919 69.7599 13.1418 69.3696 13.0673C68.9793 12.9929 68.578 12.9956 68.1887 13.0752C67.7995 13.1549 67.4298 13.31 67.1009 13.5317C66.7719 13.7533 66.4901 14.0372 66.2716 14.3671L45.5661 41.032C45.5281 41.0798 45.4797 41.1184 45.4245 41.1448C45.3692 41.1712 45.3087 41.1847 45.2474 41.1844H31.7517C31.6904 41.1847 31.6299 41.1712 31.5747 41.1448C31.5194 41.1184 31.471 41.0798 31.433 41.032L10.7477 14.3912C10.5377 14.0451 10.2597 13.7446 9.93034 13.5075C9.60097 13.2705 9.22694 13.1017 8.83055 13.0113C8.43416 12.921 8.02351 12.9108 7.62309 12.9815C7.22267 13.0522 6.84066 13.2022 6.49983 13.4227C6.15901 13.6432 5.86634 13.9296 5.63927 14.2649C5.4122 14.6001 5.25538 14.9774 5.17814 15.3742C5.10091 15.771 5.10485 16.1791 5.18973 16.5744C5.27461 16.9696 5.43869 17.3438 5.67219 17.6747L26.1558 48.5893C26.4584 49.0463 26.9829 59.0292 27.3782 67.4925Z" fill="#093F68"/>
<path d="M40.689 43.7422H36.3115V62.3688H40.689V43.7422Z" fill="#093F68"/>
<path d="M40.6892 62.7738H36.3117C36.2047 62.7738 36.102 62.7315 36.0264 62.6563C35.9507 62.5812 35.9082 62.4792 35.9082 62.3729V43.7423C35.9082 43.636 35.9507 43.534 36.0264 43.4588C36.102 43.3836 36.2047 43.3414 36.3117 43.3414H40.6892C40.7962 43.3414 40.8988 43.3836 40.9745 43.4588C41.0501 43.534 41.0926 43.636 41.0926 43.7423V62.3729C41.0926 62.4792 41.0501 62.5812 40.9745 62.6563C40.8988 62.7315 40.7962 62.7738 40.6892 62.7738ZM36.7151 61.9719H40.2857V44.1432H36.7151V61.9719Z" fill="#093F68"/>
<path d="M69.404 13.4331V17.346C69.404 17.783 69.5787 18.2021 69.8896 18.5112C70.2006 18.8202 70.6224 18.9938 71.0622 18.9938C71.502 18.9938 71.9237 18.8202 72.2347 18.5112C72.5457 18.2021 72.7204 17.783 72.7204 17.346V12.4067C73.0956 11.8013 73.3135 10.8391 73.3135 9.31165C73.3135 5.17019 71.3688 4.45656 69.3757 4.45656C67.3826 4.45656 64.9135 5.99608 64.6714 7.16675C64.1994 9.29562 67.5481 13.2647 69.404 13.4331Z" fill="#FFC9B0"/>
<path d="M69.36 4.05561C71.2239 4.05561 73.7012 4.59685 73.7012 9.31162C73.7012 10.7349 73.5115 11.7773 73.1242 12.4909V17.346C73.1242 17.8893 72.907 18.4104 72.5204 18.7946C72.1337 19.1788 71.6094 19.3947 71.0626 19.3947C70.5158 19.3947 69.9914 19.1788 69.6047 18.7946C69.2181 18.4104 69.0009 17.8893 69.0009 17.346V13.7698C67.7905 13.4451 66.4914 12.1661 65.6724 11.0516C65.1479 10.346 63.9577 8.55389 64.2603 7.08653C64.5628 5.61918 67.2701 4.05561 69.36 4.05561ZM72.3173 12.4748C72.2917 12.3745 72.3062 12.2682 72.3577 12.1782C72.7208 11.5928 72.8943 10.6507 72.8943 9.29157C72.8943 5.3666 71.1069 4.83739 69.36 4.83739C67.4314 4.83739 65.2326 6.34885 65.051 7.24289C64.8896 8.04472 65.3778 9.3036 66.3219 10.5705C67.3306 11.9256 68.6418 12.976 69.4407 13.0321C69.5412 13.0411 69.6348 13.0873 69.7028 13.1616C69.7707 13.2358 69.8082 13.3327 69.8078 13.433V17.346C69.8078 17.6767 69.94 17.9938 70.1753 18.2276C70.4106 18.4615 70.7298 18.5928 71.0626 18.5928C71.3953 18.5928 71.7145 18.4615 71.9498 18.2276C72.1851 17.9938 72.3173 17.6767 72.3173 17.346V12.4748Z" fill="#093F68"/>
<path d="M65.4994 14.319H70.821C71.3513 14.319 71.7812 13.8918 71.7812 13.3649V13.3608C71.7812 12.8339 71.3513 12.4067 70.821 12.4067H65.4994C64.9691 12.4067 64.5392 12.8339 64.5392 13.3608V13.3649C64.5392 13.8918 64.9691 14.319 65.4994 14.319Z" fill="#FFC9B0"/>
<path d="M65.4992 12.0058H70.8168C71.0024 11.9958 71.1881 12.0234 71.3626 12.0871C71.537 12.1508 71.6966 12.2491 71.8316 12.3761C71.9665 12.5031 72.074 12.6561 72.1474 12.8258C72.2209 12.9954 72.2588 13.1782 72.2588 13.3629C72.2588 13.5476 72.2209 13.7303 72.1474 13.9C72.074 14.0697 71.9665 14.2227 71.8316 14.3497C71.6966 14.4767 71.537 14.575 71.3626 14.6387C71.1881 14.7023 71.0024 14.73 70.8168 14.72L65.4992 14.72C65.3136 14.73 65.1279 14.7023 64.9535 14.6387C64.779 14.575 64.6194 14.4767 64.4845 14.3497C64.3495 14.2227 64.242 14.0697 64.1686 13.9C64.0951 13.7303 64.0572 13.5476 64.0572 13.3629C64.0572 13.1782 64.0951 12.9954 64.1686 12.8258C64.242 12.6561 64.3495 12.5031 64.4845 12.3761C64.6194 12.2491 64.779 12.1508 64.9535 12.0871C65.1279 12.0234 65.3136 11.9958 65.4992 12.0058V12.0058ZM70.8168 13.9181C70.8942 13.9247 70.9721 13.9152 71.0456 13.8903C71.119 13.8653 71.1865 13.8255 71.2437 13.7733C71.3009 13.7211 71.3465 13.6577 71.3778 13.587C71.409 13.5164 71.4251 13.44 71.4251 13.3629C71.4251 13.2857 71.409 13.2094 71.3778 13.1387C71.3465 13.0681 71.3009 13.0047 71.2437 12.9525C71.1865 12.9003 71.119 12.8604 71.0456 12.8355C70.9721 12.8106 70.8942 12.8011 70.8168 12.8076H65.4992C65.4219 12.8011 65.344 12.8106 65.2705 12.8355C65.197 12.8604 65.1295 12.9003 65.0723 12.9525C65.0151 13.0047 64.9695 13.0681 64.9383 13.1387C64.907 13.2094 64.8909 13.2857 64.8909 13.3629C64.8909 13.44 64.907 13.5164 64.9383 13.587C64.9695 13.6577 65.0151 13.7211 65.0723 13.7733C65.1295 13.8255 65.197 13.8653 65.2705 13.8903C65.344 13.9152 65.4219 13.9247 65.4992 13.9181H70.8168Z" fill="#093F68"/>
<path d="M65.4994 12.4067H70.821C71.3513 12.4067 71.7812 11.9795 71.7812 11.4525V11.4485C71.7812 10.9215 71.3513 10.4943 70.821 10.4943H65.4994C64.9691 10.4943 64.5392 10.9215 64.5392 11.4485V11.4525C64.5392 11.9795 64.9691 12.4067 65.4994 12.4067Z" fill="#FFC9B0"/>
<path d="M65.4994 10.0974H70.817C71.1786 10.0974 71.5255 10.2402 71.7812 10.4943C72.037 10.7485 72.1807 11.0931 72.1807 11.4525C72.1807 11.8119 72.037 12.1566 71.7812 12.4107C71.5255 12.6648 71.1786 12.8076 70.817 12.8076H65.4994C65.1377 12.8076 64.7909 12.6648 64.5351 12.4107C64.2794 12.1566 64.1357 11.8119 64.1357 11.4525C64.1357 11.0931 64.2794 10.7485 64.5351 10.4943C64.7909 10.2402 65.1377 10.0974 65.4994 10.0974V10.0974ZM70.817 12.0058C70.9646 12.0058 71.1063 11.9475 71.2107 11.8437C71.3151 11.74 71.3737 11.5993 71.3737 11.4525C71.3737 11.3058 71.3151 11.1651 71.2107 11.0613C71.1063 10.9575 70.9646 10.8993 70.817 10.8993H65.4994C65.3517 10.8993 65.2101 10.9575 65.1057 11.0613C65.0013 11.1651 64.9426 11.3058 64.9426 11.4525C64.9426 11.5993 65.0013 11.74 65.1057 11.8437C65.2101 11.9475 65.3517 12.0058 65.4994 12.0058H70.817Z" fill="#093F68"/>
<path d="M65.4994 10.4983H70.821C71.3513 10.4983 71.7812 10.0711 71.7812 9.54411V9.5401C71.7812 9.01312 71.3513 8.58592 70.821 8.58592H65.4994C64.9691 8.58592 64.5392 9.01312 64.5392 9.5401V9.54411C64.5392 10.0711 64.9691 10.4983 65.4994 10.4983Z" fill="#FFC9B0"/>
<path d="M65.4992 8.18504H70.8168C71.0024 8.17501 71.1881 8.20268 71.3626 8.26635C71.537 8.33002 71.6966 8.42836 71.8316 8.55536C71.9665 8.68237 72.074 8.83537 72.1474 9.00503C72.2209 9.17469 72.2588 9.35745 72.2588 9.54214C72.2588 9.72683 72.2209 9.90959 72.1474 10.0792C72.074 10.2489 71.9665 10.4019 71.8316 10.5289C71.6966 10.6559 71.537 10.7543 71.3626 10.8179C71.1881 10.8816 71.0024 10.9093 70.8168 10.8992L65.4992 10.8992C65.3136 10.9093 65.1279 10.8816 64.9535 10.8179C64.779 10.7543 64.6194 10.6559 64.4845 10.5289C64.3495 10.4019 64.242 10.2489 64.1686 10.0792C64.0951 9.90959 64.0572 9.72683 64.0572 9.54214C64.0572 9.35745 64.0951 9.17469 64.1686 9.00503C64.242 8.83537 64.3495 8.68237 64.4845 8.55536C64.6194 8.42836 64.779 8.33002 64.9535 8.26635C65.1279 8.20268 65.3136 8.17501 65.4992 8.18504V8.18504ZM70.8168 10.0974C70.8942 10.1039 70.9721 10.0944 71.0456 10.0695C71.119 10.0446 71.1865 10.0047 71.2437 9.95255C71.3009 9.90035 71.3465 9.83692 71.3778 9.76627C71.409 9.69563 71.4251 9.6193 71.4251 9.54214C71.4251 9.46498 71.409 9.38866 71.3778 9.31801C71.3465 9.24736 71.3009 9.18393 71.2437 9.13173C71.1865 9.07953 71.119 9.0397 71.0456 9.01477C70.9721 8.98983 70.8942 8.98033 70.8168 8.98687H65.4992C65.4219 8.98033 65.344 8.98983 65.2705 9.01477C65.197 9.0397 65.1295 9.07953 65.0723 9.13173C65.0151 9.18393 64.9695 9.24736 64.9383 9.31801C64.907 9.38866 64.8909 9.46498 64.8909 9.54214C64.8909 9.6193 64.907 9.69563 64.9383 9.76627C64.9695 9.83692 65.0151 9.90035 65.0723 9.95255C65.1295 10.0047 65.197 10.0446 65.2705 10.0695C65.344 10.0944 65.4219 10.1039 65.4992 10.0974H70.8168Z" fill="#093F68"/>
<path d="M65.1926 5.87177C65.246 5.87199 65.2988 5.88273 65.348 5.90338C65.3971 5.92402 65.4417 5.95416 65.4791 5.99204C65.5542 6.06716 65.5964 6.16877 65.5964 6.27469C65.5964 6.3806 65.5542 6.48222 65.4791 6.55733C65.1732 6.83597 64.982 7.21732 64.9425 7.62778C64.9425 7.77558 65.0015 7.91732 65.1067 8.02183C65.2119 8.12634 65.3545 8.18506 65.5033 8.18506H70.8168C70.8942 8.19159 70.9721 8.18209 71.0456 8.15716C71.119 8.13222 71.1865 8.09239 71.2437 8.04019C71.3009 7.98799 71.3465 7.92456 71.3778 7.85392C71.409 7.78327 71.4251 7.70695 71.4251 7.62979C71.4251 7.55262 71.409 7.4763 71.3778 7.40565C71.3465 7.33501 71.3009 7.27157 71.2437 7.21938C71.1865 7.16718 71.119 7.12735 71.0456 7.10241C70.9721 7.07748 70.8942 7.06798 70.8168 7.07452H67.7142C67.6072 7.07452 67.5046 7.03228 67.4289 6.95709C67.3533 6.8819 67.3107 6.77993 67.3107 6.6736C67.3107 6.56727 67.3533 6.4653 67.4289 6.39011C67.5046 6.31492 67.6072 6.27268 67.7142 6.27268H70.8168C71.0024 6.26266 71.1881 6.29032 71.3626 6.35399C71.537 6.41767 71.6966 6.51601 71.8316 6.64301C71.9665 6.77001 72.074 6.92302 72.1474 7.09268C72.2209 7.26234 72.2588 7.44509 72.2588 7.62979C72.2588 7.81448 72.2209 7.99724 72.1474 8.1669C72.074 8.33655 71.9665 8.48956 71.8316 8.61656C71.6966 8.74357 71.537 8.84191 71.3626 8.90558C71.1881 8.96925 71.0024 8.99691 70.8168 8.98689L65.4992 8.98689C65.1365 8.98689 64.7886 8.84369 64.5321 8.58881C64.2756 8.33393 64.1315 7.98824 64.1315 7.62778C64.1648 7.00178 64.4428 6.41344 64.9061 5.98803C64.9438 5.95088 64.9885 5.92148 65.0377 5.90153C65.0869 5.88158 65.1395 5.87146 65.1926 5.87177Z" fill="#093F68"/>
<path d="M7.67471 13.4331L7.67471 17.346C7.67471 17.783 7.50001 18.2021 7.18903 18.5112C6.87806 18.8202 6.45628 18.9938 6.0165 18.9938C5.57671 18.9938 5.15494 18.8202 4.84397 18.5112C4.53299 18.2021 4.35829 17.783 4.35829 17.346V12.4067C3.98307 11.8013 3.76117 10.8391 3.76117 9.31165C3.76117 5.17019 5.70987 4.45656 7.69892 4.45656C9.68797 4.45656 12.1571 5.99608 12.4194 7.16675C12.8592 9.29562 9.53062 13.2647 7.67471 13.4331Z" fill="#FFC9B0"/>
<path d="M7.71902 4.05561C9.80893 4.05561 12.5282 5.65927 12.8187 7.08653C13.1092 8.51379 11.9352 10.346 11.4066 11.0516C10.5997 12.1501 9.27233 13.4571 8.08213 13.7698V17.346C8.08213 17.8893 7.86492 18.4104 7.47828 18.7946C7.09164 19.1788 6.56724 19.3947 6.02045 19.3947C5.47367 19.3947 4.94927 19.1788 4.56263 18.7946C4.176 18.4104 3.95878 17.8893 3.95878 17.346V12.4909C3.55533 11.7773 3.37781 10.7349 3.37781 9.31162C3.37377 4.61288 5.85101 4.05561 7.71902 4.05561ZM6.02045 18.5928C6.18523 18.5928 6.3484 18.5606 6.50063 18.4979C6.65287 18.4353 6.79119 18.3434 6.9077 18.2276C7.02422 18.1118 7.11664 17.9744 7.1797 17.8231C7.24276 17.6718 7.27521 17.5097 7.27521 17.346L7.27521 13.433C7.2748 13.3327 7.31229 13.2358 7.38027 13.1616C7.44824 13.0873 7.54177 13.0411 7.64236 13.0321C8.44928 12.96 9.74841 11.9256 10.7611 10.5705C11.7052 9.3036 12.1934 8.02869 12.028 7.24289C11.8464 6.36488 9.65158 4.83739 7.71902 4.83739C5.97204 4.83739 4.18472 5.3666 4.18472 9.29157C4.18472 10.6507 4.36225 11.5928 4.72133 12.1782C4.75076 12.2256 4.7699 12.2787 4.77754 12.3339C4.78519 12.3891 4.78115 12.4453 4.7657 12.4989V17.3099C4.76085 17.4763 4.78959 17.642 4.85022 17.7972C4.91085 17.9524 5.00215 18.094 5.11872 18.2135C5.23529 18.3331 5.37478 18.4283 5.52896 18.4934C5.68314 18.5586 5.84888 18.5924 6.01642 18.5928H6.02045Z" fill="#093F68"/>
<path d="M11.5797 12.4107L6.25808 12.4107C5.72776 12.4107 5.29785 12.8379 5.29785 13.3649V13.3689C5.29785 13.8959 5.72776 14.3231 6.25808 14.3231L11.5797 14.3231C12.11 14.3231 12.5399 13.8959 12.5399 13.3689V13.3649C12.5399 12.8379 12.11 12.4107 11.5797 12.4107Z" fill="#FFC9B0"/>
<path d="M6.25797 12.0058H11.5796C11.929 12.0246 12.2578 12.1759 12.4984 12.4283C12.739 12.6807 12.873 13.0152 12.873 13.3629C12.873 13.7106 12.739 14.045 12.4984 14.2975C12.2578 14.5499 11.929 14.7011 11.5796 14.72H6.25797C5.9086 14.7011 5.57979 14.5499 5.33919 14.2975C5.0986 14.045 4.9645 13.7106 4.9645 13.3629C4.9645 13.0152 5.0986 12.6807 5.33919 12.4283C5.57979 12.1759 5.9086 12.0246 6.25797 12.0058ZM11.5796 13.9181C11.7196 13.9063 11.85 13.8427 11.9451 13.7399C12.0401 13.637 12.0929 13.5025 12.0929 13.3629C12.0929 13.2232 12.0401 13.0887 11.9451 12.9859C11.85 12.8831 11.7196 12.8194 11.5796 12.8076H6.25797C6.11797 12.8194 5.98753 12.8831 5.89248 12.9859C5.79743 13.0887 5.74468 13.2232 5.74468 13.3629C5.74468 13.5025 5.79743 13.637 5.89248 13.7399C5.98753 13.8427 6.11797 13.9063 6.25797 13.9181H11.5796Z" fill="#093F68"/>
<path d="M11.5797 10.4983L6.25808 10.4983C5.72776 10.4983 5.29785 10.9255 5.29785 11.4525V11.4565C5.29785 11.9835 5.72776 12.4107 6.25808 12.4107L11.5797 12.4107C12.11 12.4107 12.5399 11.9835 12.5399 11.4565V11.4525C12.5399 10.9255 12.11 10.4983 11.5797 10.4983Z" fill="#FFC9B0"/>
<path d="M6.25806 10.0974H11.5797C11.9413 10.0974 12.2882 10.2402 12.5439 10.4943C12.7997 10.7485 12.9434 11.0931 12.9434 11.4525C12.9434 11.8119 12.7997 12.1566 12.5439 12.4107C12.2882 12.6648 11.9413 12.8076 11.5797 12.8076H6.25806C5.89639 12.8076 5.54952 12.6648 5.29378 12.4107C5.03804 12.1566 4.89437 11.8119 4.89437 11.4525C4.89437 11.0931 5.03804 10.7485 5.29378 10.4943C5.54952 10.2402 5.89639 10.0974 6.25806 10.0974V10.0974ZM11.5797 12.0058C11.7273 12.0058 11.869 11.9475 11.9734 11.8437C12.0778 11.74 12.1364 11.5993 12.1364 11.4525C12.1364 11.3058 12.0778 11.1651 11.9734 11.0613C11.869 10.9575 11.7273 10.8993 11.5797 10.8993H6.25806C6.1104 10.8993 5.96878 10.9575 5.86436 11.0613C5.75995 11.1651 5.70129 11.3058 5.70129 11.4525C5.70129 11.5993 5.75995 11.74 5.86436 11.8437C5.96878 11.9475 6.1104 12.0058 6.25806 12.0058H11.5797Z" fill="#093F68"/>
<path d="M11.5797 8.58191H6.25808C5.72776 8.58191 5.29785 9.00911 5.29785 9.53609V9.5401C5.29785 10.0671 5.72776 10.4943 6.25808 10.4943H11.5797C12.11 10.4943 12.5399 10.0671 12.5399 9.5401V9.53609C12.5399 9.00911 12.11 8.58191 11.5797 8.58191Z" fill="#FFC9B0"/>
<path d="M6.25797 8.18503H11.5796C11.929 8.20391 12.2578 8.35512 12.4984 8.60755C12.739 8.85999 12.873 9.19445 12.873 9.54213C12.873 9.88981 12.739 10.2243 12.4984 10.4767C12.2578 10.7291 11.929 10.8804 11.5796 10.8992H6.25797C5.9086 10.8804 5.57979 10.7291 5.33919 10.4767C5.0986 10.2243 4.9645 9.88981 4.9645 9.54213C4.9645 9.19445 5.0986 8.85999 5.33919 8.60755C5.57979 8.35512 5.9086 8.20391 6.25797 8.18503V8.18503ZM11.5796 10.0974C11.7196 10.0856 11.85 10.0219 11.9451 9.91912C12.0401 9.81629 12.0929 9.68175 12.0929 9.54213C12.0929 9.40251 12.0401 9.26797 11.9451 9.16515C11.85 9.06232 11.7196 8.9987 11.5796 8.98686H6.25797C6.11797 8.9987 5.98753 9.06232 5.89248 9.16515C5.79743 9.26797 5.74468 9.40251 5.74468 9.54213C5.74468 9.68175 5.79743 9.81629 5.89248 9.91912C5.98753 10.0219 6.11797 10.0856 6.25797 10.0974H11.5796Z" fill="#093F68"/>
<path d="M11.8863 5.87176C11.9921 5.8722 12.0936 5.91396 12.1687 5.98802C12.6321 6.41343 12.91 7.00177 12.9434 7.62777C12.9439 7.80606 12.909 7.98271 12.8407 8.14758C12.7724 8.31245 12.6721 8.4623 12.5454 8.58856C12.4187 8.71482 12.2682 8.81499 12.1025 8.88334C11.9367 8.95169 11.7591 8.98688 11.5797 8.98688L6.25805 8.98688C5.90868 8.968 5.57988 8.81679 5.33928 8.56435C5.09868 8.31192 4.96459 7.97746 4.96459 7.62978C4.96459 7.28209 5.09868 6.94763 5.33928 6.69519C5.57988 6.44276 5.90868 6.29155 6.25805 6.27267L9.36065 6.27267C9.46765 6.27267 9.57027 6.31491 9.64593 6.3901C9.7216 6.46529 9.7641 6.56726 9.7641 6.67359C9.7641 6.77992 9.7216 6.8819 9.64593 6.95708C9.57027 7.03227 9.46765 7.07451 9.36065 7.07451L6.25805 7.07451C6.11805 7.08634 5.98762 7.14996 5.89257 7.25279C5.79752 7.35562 5.74477 7.49015 5.74477 7.62978C5.74477 7.7694 5.79752 7.90393 5.89257 8.00676C5.98762 8.10959 6.11805 8.17321 6.25805 8.18505H11.5797C11.6531 8.18505 11.7259 8.1706 11.7937 8.14255C11.8615 8.1145 11.923 8.07338 11.9748 8.02158C12.0266 7.96978 12.0675 7.90832 12.0952 7.84073C12.123 7.77314 12.137 7.70076 12.1364 7.62777C12.0969 7.21731 11.9057 6.83596 11.5998 6.55732C11.5247 6.48221 11.4825 6.38059 11.4825 6.27468C11.4825 6.16876 11.5247 6.06715 11.5998 5.99203C11.6372 5.95415 11.6818 5.92401 11.7309 5.90337C11.7801 5.88272 11.8329 5.87198 11.8863 5.87176Z" fill="#093F68"/>
<path d="M52.3322 71.0245H24.6671L20.7293 53.1356C20.6689 52.8625 20.671 52.5793 20.7355 52.3071C20.7999 52.0348 20.925 51.7804 21.1016 51.5626C21.2782 51.3448 21.5017 51.1692 21.7557 51.0487C22.0097 50.9282 22.2877 50.8659 22.5691 50.8665H54.4423C54.7234 50.8665 55.0009 50.9293 55.2544 51.05C55.5079 51.1708 55.7309 51.3465 55.9071 51.5642C56.0832 51.7819 56.208 52.0361 56.2722 52.308C56.3364 52.58 56.3384 52.8628 56.278 53.1356L52.3322 71.0245Z" fill="#9A99A2"/>
<path d="M52.3326 71.4255H24.6674C24.5736 71.4275 24.482 71.397 24.4084 71.3392C24.3347 71.2814 24.2837 71.1999 24.264 71.1087L20.3262 53.2199C20.2532 52.8882 20.256 52.5444 20.3344 52.2139C20.4128 51.8834 20.5649 51.5746 20.7794 51.3103C20.9939 51.046 21.2654 50.8329 21.5738 50.6867C21.8822 50.5405 22.2197 50.4649 22.5614 50.4656H54.4346C54.776 50.4655 55.113 50.5415 55.4209 50.688C55.7288 50.8344 55.9997 51.0476 56.2138 51.3119C56.4278 51.5761 56.5796 51.8847 56.6578 52.2149C56.736 52.5451 56.7387 52.8885 56.6657 53.2199L52.728 71.1087C52.7085 71.1986 52.6587 71.279 52.5867 71.3367C52.5147 71.3943 52.425 71.4257 52.3326 71.4255ZM24.9902 70.6236H52.0219L55.8911 53.0515C55.9388 52.8369 55.9374 52.6143 55.887 52.4003C55.8366 52.1863 55.7384 51.9862 55.5998 51.815C55.4611 51.6437 55.2855 51.5056 55.0859 51.4108C54.8863 51.316 54.6679 51.267 54.4467 51.2674H22.5735C22.3521 51.2663 22.1332 51.3148 21.9332 51.4093C21.7333 51.5039 21.5573 51.642 21.4185 51.8135C21.2797 51.9849 21.1816 52.1853 21.1315 52.3996C21.0814 52.614 21.0806 52.8368 21.1291 53.0515L24.9902 70.6236Z" fill="#093F68"/>
<path d="M52.6268 71.0245H24.5381V73.8791H52.6268V71.0245Z" fill="#9A99A2"/>
<path d="M52.627 74.28H24.5382C24.4312 74.28 24.3286 74.2378 24.2529 74.1626C24.1773 74.0874 24.1348 73.9854 24.1348 73.8791V71.0246C24.1348 70.9182 24.1773 70.8163 24.2529 70.7411C24.3286 70.6659 24.4312 70.6237 24.5382 70.6237H52.627C52.734 70.6237 52.8366 70.6659 52.9123 70.7411C52.9879 70.8163 53.0304 70.9182 53.0304 71.0246V73.8791C53.0304 73.9854 52.9879 74.0874 52.9123 74.1626C52.8366 74.2378 52.734 74.28 52.627 74.28ZM24.9417 73.4782H52.2235V71.4255H24.9417V73.4782Z" fill="#093F68"/>
<path d="M36.3076 43.1729H40.7457V45.6987C40.7457 46.1942 40.5476 46.6694 40.195 47.0198C39.8424 47.3701 39.3642 47.567 38.8655 47.567H38.1958C37.6972 47.567 37.219 47.3701 36.8664 47.0198C36.5138 46.6694 36.3157 46.1942 36.3157 45.6987V43.1729H36.3076Z" fill="#FFC9B0"/>
<path d="M38.8615 47.9759H38.1918C37.5858 47.9749 37.0049 47.7349 36.5768 47.3087C36.1487 46.8825 35.9082 46.3049 35.9082 45.7027V43.1729C35.9082 43.0666 35.9507 42.9646 36.0264 42.8895C36.102 42.8143 36.2047 42.772 36.3117 42.772H40.7497C40.8567 42.772 40.9593 42.8143 41.035 42.8895C41.1107 42.9646 41.1532 43.0666 41.1532 43.1729V45.6987C41.1537 45.9979 41.0948 46.2943 40.9798 46.5708C40.8648 46.8473 40.696 47.0986 40.4831 47.3101C40.2702 47.5217 40.0174 47.6894 39.7391 47.8037C39.4608 47.9179 39.1626 47.9764 38.8615 47.9759ZM36.7151 43.5658V45.6987C36.7151 46.0883 36.8706 46.4619 37.1474 46.7377C37.4242 47.0135 37.7998 47.169 38.1918 47.1701H38.8615C39.2532 47.168 39.6282 47.0121 39.9047 46.7366C40.1813 46.461 40.3371 46.0879 40.3382 45.6987V43.5739L36.7151 43.5658Z" fill="#093F68"/>
<path d="M23.9613 31.7148C22.3474 30.6684 22.1901 28.1346 21.8996 26.3826C20.9021 20.389 21.5158 14.2399 23.6788 8.55785C23.8285 10.3301 24.1846 12.0791 24.7399 13.7698C24.0662 11.7251 26.5232 8.15693 27.4189 6.48912C28.6293 4.21593 29.8397 2.50402 31.8892 0.800127L34.4229 6.56931C35.6205 4.66646 36.4943 2.58046 37.0091 0.395203C36.876 0.960494 43.7186 6.68558 43.9203 6.65751C44.2673 6.61341 44.7273 4.25201 44.691 3.41009C47.5152 6.46908 50.5774 10.0934 50.1255 14.2348C51.1242 13.1542 51.8076 11.8236 52.1025 10.386C53.9896 14.927 54.5977 19.8927 53.8616 24.7508C53.6114 26.4146 53.2765 29.9628 51.9411 31.1655C50.6984 32.276 47.8621 31.4702 46.3371 31.5183L32.6639 31.9433C30.2996 32.0154 26.8016 32.8053 24.5342 31.9874C24.3335 31.9182 24.1413 31.8268 23.9613 31.7148Z" fill="#725858"/>
<path d="M27.1604 32.7652C26.2269 32.7888 25.2962 32.6532 24.4088 32.3642C24.1788 32.282 23.9594 32.173 23.7552 32.0395C22.1979 31.0292 21.8791 28.8723 21.6209 27.1403C21.5846 26.8957 21.5523 26.6632 21.512 26.4387C20.4969 20.3723 21.1192 14.1469 23.3154 8.39748C23.3481 8.31282 23.4086 8.24165 23.4872 8.19558C23.5658 8.14951 23.6578 8.13127 23.7481 8.14383C23.8385 8.15639 23.9219 8.19901 23.9847 8.26474C24.0475 8.33047 24.0861 8.41542 24.0941 8.50573C24.1678 9.45944 24.3026 10.4075 24.4976 11.3442C25.0208 9.91077 25.6971 8.53715 26.5149 7.24685C26.7287 6.87801 26.9183 6.54525 27.0716 6.26862C28.1748 4.04123 29.7298 2.06472 31.6388 0.463358C31.6895 0.424076 31.7489 0.397397 31.812 0.385542C31.8752 0.373687 31.9403 0.376999 32.0019 0.395203C32.0622 0.409747 32.1184 0.437935 32.166 0.477572C32.2136 0.517209 32.2513 0.567224 32.2762 0.623725L34.5074 5.69531C35.4753 4.01256 36.1915 2.19878 36.6336 0.311011V0.311011C36.6455 0.259662 36.6674 0.211145 36.6982 0.168236C36.729 0.125327 36.768 0.0888664 36.8129 0.0609401C36.8579 0.0330138 36.908 0.0141687 36.9603 0.00548351C37.0126 -0.00320168 37.0661 -0.00155622 37.1177 0.010324C37.2008 0.0295223 37.2757 0.0744009 37.3315 0.138511C37.3873 0.202622 37.4212 0.282664 37.4284 0.367139C37.8319 1.10482 42.5281 5.17813 43.8353 6.12429C44.1119 5.25095 44.2707 4.34499 44.3074 3.43014C44.3052 3.34881 44.3279 3.26874 44.3726 3.20056C44.4173 3.13239 44.4818 3.07933 44.5575 3.04844C44.6332 3.01755 44.7166 3.01029 44.7966 3.02763C44.8766 3.04496 44.9494 3.08607 45.0054 3.14549C47.644 5.98397 50.4077 9.28752 50.5852 13.0441C51.1407 12.2164 51.5286 11.289 51.727 10.3139C51.7438 10.2297 51.7874 10.1531 51.8513 10.0953C51.9152 10.0376 51.9961 10.0018 52.082 9.99313C52.1666 9.98656 52.2511 10.0067 52.3235 10.0506C52.396 10.0945 52.4526 10.1599 52.4855 10.2377C54.4094 14.8435 55.0275 19.8849 54.2728 24.815C54.2445 25.0074 54.2123 25.2159 54.18 25.4645C53.9137 27.3969 53.5143 30.3196 52.2232 31.4782C51.2065 32.3883 49.4474 32.2039 47.8941 32.0395C47.3872 31.9723 46.8764 31.9374 46.365 31.9353L32.6878 32.3602C32.0221 32.3602 31.2555 32.4605 30.4486 32.5447C29.3569 32.6728 28.2595 32.7464 27.1604 32.7652V32.7652ZM23.501 10.3139C21.8117 15.4861 21.3966 20.9857 22.2907 26.3505C22.327 26.575 22.3633 26.8156 22.3996 27.0641C22.6336 28.6397 22.9201 30.5962 24.1748 31.4101C24.3282 31.5077 24.4919 31.5883 24.663 31.6506C26.1881 32.1999 28.395 31.9713 30.3437 31.7709C31.1506 31.6827 31.9575 31.6025 32.6394 31.5824L46.3166 31.1575C46.8657 31.1577 47.4143 31.1939 47.9587 31.2657C49.2739 31.406 50.912 31.5784 51.6624 30.9049C52.7356 29.9507 53.127 27.0882 53.361 25.3843C53.3932 25.1437 53.4255 24.9192 53.4538 24.7268C54.1348 20.3298 53.6951 15.8333 52.1748 11.6489C51.7914 12.7089 51.1988 13.6821 50.4319 14.5115C50.3741 14.5734 50.2982 14.6157 50.2149 14.6322C50.1316 14.6488 50.0451 14.6388 49.9679 14.6037C49.8919 14.5691 49.8286 14.512 49.7867 14.4402C49.7448 14.3684 49.7263 14.2854 49.7339 14.2027C50.1373 10.5504 47.6157 7.23082 45.0134 4.36026C44.8843 5.41868 44.61 6.99027 43.9806 7.06644C43.3512 7.14262 37.9731 2.1873 37.1863 1.3574C36.6452 3.274 35.83 5.10347 34.7656 6.78981C34.7268 6.85182 34.6718 6.90214 34.6064 6.93535C34.541 6.96855 34.4677 6.98338 34.3944 6.97824C34.3212 6.97257 34.251 6.94717 34.1913 6.90478C34.1316 6.8624 34.0846 6.80463 34.0555 6.73769L31.7275 1.45362C30.0914 2.92932 28.7489 4.69728 27.7696 6.66553C27.6163 6.95018 27.4186 7.29096 27.1967 7.66782C26.176 9.42784 24.6186 12.0979 25.1431 13.6254C25.1718 13.7252 25.1604 13.8321 25.1114 13.9237C25.0624 14.0153 24.9795 14.0844 24.8803 14.1166C24.7811 14.1488 24.6731 14.1415 24.5792 14.0962C24.4852 14.051 24.4126 13.9713 24.3765 13.874C23.9866 12.7083 23.6898 11.5139 23.4889 10.3018L23.501 10.3139Z" fill="#093F68"/>
<path d="M27.0158 35.4192C29.3934 35.4192 31.3207 33.7696 31.3207 31.7348C31.3207 29.6999 29.3934 28.0504 27.0158 28.0504C24.6383 28.0504 22.7109 29.6999 22.7109 31.7348C22.7109 33.7696 24.6383 35.4192 27.0158 35.4192Z" fill="#FFC9B0"/>
<path d="M27.016 35.8241C24.4177 35.8241 22.3076 33.9879 22.3076 31.7348C22.3076 29.4816 24.4177 27.6575 27.016 27.6575C29.6142 27.6575 31.7203 29.4897 31.7203 31.7428C31.7203 33.996 29.6102 35.8241 27.016 35.8241ZM27.016 28.4513C24.8655 28.4513 23.1145 29.9267 23.1145 31.7348C23.1145 33.5429 24.8655 35.0223 27.016 35.0223C29.1664 35.0223 30.9134 33.5469 30.9134 31.7348C30.9134 29.9226 29.1785 28.4593 27.016 28.4593V28.4513Z" fill="#093F68"/>
<path d="M50.0285 35.4192C52.4061 35.4192 54.3334 33.7696 54.3334 31.7348C54.3334 29.6999 52.4061 28.0504 50.0285 28.0504C47.651 28.0504 45.7236 29.6999 45.7236 31.7348C45.7236 33.7696 47.651 35.4192 50.0285 35.4192Z" fill="#FFC9B0"/>
<path d="M50.0287 35.8241C47.4304 35.8241 45.3203 33.9879 45.3203 31.7348C45.3203 29.4816 47.4304 27.6575 50.0287 27.6575C52.6269 27.6575 54.733 29.4897 54.733 31.7428C54.733 33.996 52.6229 35.8241 50.0287 35.8241ZM50.0287 28.4513C47.8742 28.4513 46.1272 29.9267 46.1272 31.7348C46.1272 33.5429 47.8742 35.0223 50.0287 35.0223C52.1831 35.0223 53.9261 33.5469 53.9261 31.7348C53.9261 29.9226 52.1751 28.4593 50.0287 28.4593V28.4513Z" fill="#093F68"/>
<path d="M32.5109 30.1672C33.1749 30.1672 33.7132 29.6323 33.7132 28.9725C33.7132 28.3127 33.1749 27.7778 32.5109 27.7778C31.8469 27.7778 31.3086 28.3127 31.3086 28.9725C31.3086 29.6323 31.8469 30.1672 32.5109 30.1672Z" fill="#093F68"/>
<path d="M44.9093 30.1672C45.5734 30.1672 46.1116 29.6323 46.1116 28.9725C46.1116 28.3127 45.5734 27.7778 44.9093 27.7778C44.2453 27.7778 43.707 28.3127 43.707 28.9725C43.707 29.6323 44.2453 30.1672 44.9093 30.1672Z" fill="#093F68"/>
<path d="M43.2543 34.7377C43.2184 35.9617 42.7038 37.1236 41.8198 37.9767C40.9358 38.8298 39.752 39.3071 38.5197 39.3071C37.2874 39.3071 36.1037 38.8298 35.2197 37.9767C34.3357 37.1236 33.8211 35.9617 33.7852 34.7377H43.2543Z" fill="#F5F8FA"/>
<path d="M38.5219 39.8413C37.1597 39.8402 35.8535 39.3023 34.8899 38.3455C33.9263 37.3888 33.384 36.0913 33.3818 34.7376C33.3818 34.6313 33.4243 34.5293 33.5 34.4542C33.5757 34.379 33.6783 34.3367 33.7853 34.3367H43.2545C43.3615 34.3367 43.4641 34.379 43.5397 34.4542C43.6154 34.5293 43.6579 34.6313 43.6579 34.7376C43.6568 36.0909 43.1154 37.3884 42.1524 38.3453C41.1895 39.3022 39.8837 39.8402 38.5219 39.8413V39.8413ZM34.2049 35.1386C34.3037 36.2079 34.801 37.2019 35.5993 37.9257C36.3976 38.6494 37.4393 39.0507 38.5199 39.0507C39.6005 39.0507 40.6421 38.6494 41.4404 37.9257C42.2387 37.2019 42.736 36.2079 42.8349 35.1386H34.2049Z" fill="#093F68"/>
<path d="M38.4576 33.3865C38.0643 33.3865 37.6716 33.3543 37.2835 33.2903C37.179 33.2717 37.086 33.2129 37.0248 33.1265C36.9636 33.0402 36.9391 32.9334 36.9567 32.8293C36.9655 32.777 36.9846 32.7271 37.013 32.6822C37.0413 32.6374 37.0783 32.5985 37.1218 32.568C37.1653 32.5374 37.2145 32.5157 37.2665 32.5041C37.3185 32.4925 37.3723 32.4913 37.4248 32.5005C38.0035 32.6001 38.5945 32.6082 39.1758 32.5246C39.2282 32.1597 38.7723 30.9209 38.1631 29.7382C38.1163 29.6444 38.1083 29.5361 38.1407 29.4365C38.1732 29.3369 38.2436 29.2539 38.3369 29.2052C38.4302 29.1565 38.5389 29.146 38.6399 29.1759C38.7408 29.2058 38.826 29.2738 38.8772 29.3653C39.3008 30.1672 40.249 32.1277 39.898 32.9014C39.859 32.9991 39.7974 33.0863 39.7182 33.156C39.639 33.2256 39.5444 33.2758 39.4421 33.3023C39.1184 33.3688 38.7879 33.397 38.4576 33.3865Z" fill="#093F68"/>
<path d="M29.2508 25.4484C29.1448 25.4539 29.0388 25.4387 28.9388 25.4035C28.8387 25.3683 28.7467 25.3139 28.6678 25.2433C28.5085 25.1009 28.4127 24.9013 28.4015 24.6887C28.3903 24.476 28.4645 24.2676 28.6079 24.1094C28.7513 23.9511 28.9521 23.8559 29.1661 23.8448L34.8669 23.2474C35.0809 23.2251 35.2951 23.2881 35.4623 23.4227C35.6295 23.5573 35.7361 23.7524 35.7586 23.965C35.781 24.1777 35.7176 24.3905 35.5821 24.5567C35.4467 24.7228 35.2504 24.8287 35.0364 24.8511L29.3355 25.4444L29.2508 25.4484Z" fill="#093F68"/>
<path d="M48.8189 25.9776C48.7679 25.9835 48.7165 25.9835 48.6656 25.9776L43.0171 24.9192C42.8069 24.8794 42.6212 24.7581 42.5009 24.5822C42.3806 24.4062 42.3355 24.19 42.3756 23.9811C42.4158 23.7721 42.5378 23.5876 42.7148 23.4681C42.8919 23.3485 43.1095 23.3038 43.3197 23.3436L48.9681 24.402C49.1822 24.4217 49.3795 24.5251 49.5169 24.6893C49.6542 24.8536 49.7202 25.0654 49.7004 25.278C49.6806 25.4907 49.5766 25.6868 49.4113 25.8233C49.246 25.9598 49.0329 26.0254 48.8189 26.0057V25.9776Z" fill="#093F68"/>
<path d="M38.5225 43.1729C35.3715 43.1719 32.35 41.9276 30.1219 39.7136C27.8939 37.4996 26.6417 34.497 26.6406 31.366V19.563C29.6643 17.1505 33.2894 15.5973 37.1305 15.0687C47.7375 18.9937 50.4003 19.563 50.4003 19.563V31.366C50.4003 34.4967 49.149 37.4992 46.9216 39.7133C44.6942 41.9275 41.673 43.1719 38.5225 43.1729V43.1729Z" fill="#FFC9B0"/>
<path d="M38.5226 43.5739C35.2653 43.5707 32.1424 42.2835 29.8391 39.9948C27.5359 37.706 26.2405 34.6027 26.2373 31.366V19.563C26.2374 19.5071 26.2493 19.4518 26.2723 19.4007C26.2952 19.3496 26.3286 19.3038 26.3704 19.2663C26.5359 19.118 30.4898 15.63 37.0782 14.6718C37.1444 14.6549 37.2138 14.6549 37.28 14.6718C47.7013 18.5327 50.4569 19.1461 50.4851 19.1501C50.5769 19.1696 50.6589 19.2204 50.7171 19.2936C50.7753 19.3667 50.806 19.4578 50.8039 19.551V31.354C50.8039 34.5921 49.5105 37.6979 47.2078 39.9891C44.905 42.2803 41.7813 43.5696 38.5226 43.5739V43.5739ZM27.0442 19.7474V31.374C27.0156 32.8896 27.2913 34.3957 27.8552 35.8042C28.4191 37.2126 29.2599 38.4953 30.3284 39.5772C31.3969 40.6591 32.6717 41.5184 34.0783 42.1051C35.4849 42.6917 36.9951 42.9939 38.5206 42.9939C40.0461 42.9939 41.5562 42.6917 42.9628 42.1051C44.3694 41.5184 45.6442 40.6591 46.7128 39.5772C47.7813 38.4953 48.622 37.2126 49.1859 35.8042C49.7498 34.3957 50.0256 32.8896 49.997 31.374V19.8757C49.0367 19.6272 45.7082 18.673 37.0863 15.4657C33.4238 16.0101 29.9648 17.4849 27.0442 19.7474V19.7474Z" fill="#093F68"/>
<path d="M34.786 28.4593H30.239C29.6144 28.4583 29.0157 28.2113 28.5741 27.7724C28.1325 27.3336 27.8839 26.7386 27.8828 26.118V24.2618C27.8839 23.6411 28.1325 23.0462 28.5741 22.6073C29.0157 22.1685 29.6144 21.9215 30.239 21.9204H34.786C35.4102 21.9215 36.0085 22.1686 36.4495 22.6076C36.8905 23.0466 37.1381 23.6415 37.1381 24.2618V26.118C37.1381 26.7383 36.8905 27.3332 36.4495 27.7722C36.0085 28.2111 35.4102 28.4583 34.786 28.4593V28.4593ZM30.239 22.7222C29.8281 22.7222 29.434 22.8844 29.1435 23.1732C28.853 23.4619 28.6897 23.8535 28.6897 24.2618V26.118C28.6897 26.5263 28.853 26.9179 29.1435 27.2066C29.434 27.4953 29.8281 27.6575 30.239 27.6575H34.786C35.1962 27.6565 35.5892 27.4938 35.8789 27.2052C36.1686 26.9166 36.3312 26.5256 36.3312 26.118V24.2618C36.3312 23.8541 36.1686 23.4632 35.8789 23.1746C35.5892 22.886 35.1962 22.7233 34.786 22.7222H30.239Z" fill="#093F68"/>
<path d="M46.8661 28.4593H42.3191C41.6945 28.4583 41.0958 28.2113 40.6542 27.7724C40.2125 27.3336 39.964 26.7386 39.9629 26.118V24.2618C39.964 23.6411 40.2125 23.0462 40.6542 22.6073C41.0958 22.1685 41.6945 21.9215 42.3191 21.9204H46.8661C47.4903 21.9215 48.0885 22.1686 48.5295 22.6076C48.9705 23.0466 49.2182 23.6415 49.2182 24.2618V26.118C49.2182 26.7383 48.9705 27.3332 48.5295 27.7722C48.0885 28.2111 47.4903 28.4583 46.8661 28.4593V28.4593ZM42.3191 22.7222C41.9082 22.7222 41.5141 22.8844 41.2236 23.1732C40.933 23.4619 40.7698 23.8535 40.7698 24.2618V26.118C40.7698 26.5263 40.933 26.9179 41.2236 27.2066C41.5141 27.4953 41.9082 27.6575 42.3191 27.6575H46.8661C47.2763 27.6565 47.6693 27.4938 47.959 27.2052C48.2486 26.9166 48.4113 26.5256 48.4113 26.118V24.2618C48.4113 23.8541 48.2486 23.4632 47.959 23.1746C47.6693 22.886 47.2763 22.7233 46.8661 22.7222H42.3191Z" fill="#093F68"/>
<path d="M40.3656 25.1197C40.2746 25.1192 40.1865 25.0881 40.1155 25.0315C38.8446 24.0412 37.2711 25.0315 37.2025 25.0555C37.1578 25.0837 37.1078 25.1028 37.0556 25.1118C37.0034 25.1208 36.9499 25.1195 36.8982 25.108C36.8465 25.0965 36.7976 25.0749 36.7543 25.0446C36.711 25.0142 36.6741 24.9757 36.6458 24.9312C36.5898 24.8417 36.5715 24.7339 36.5949 24.6311C36.6183 24.5283 36.6815 24.4388 36.7708 24.382C36.8556 24.3259 38.893 23.059 40.6158 24.382C40.6575 24.4148 40.6923 24.4555 40.7182 24.5017C40.7441 24.5479 40.7605 24.5987 40.7665 24.6513C40.7725 24.7038 40.7679 24.757 40.7532 24.8078C40.7384 24.8586 40.7136 24.906 40.6803 24.9473C40.6449 24.9982 40.598 25.0403 40.5434 25.0702C40.4888 25.1001 40.4279 25.1171 40.3656 25.1197Z" fill="#093F68"/>
<path d="M25.2241 28.4593C25.1438 28.459 25.0655 28.4349 24.999 28.39C24.9326 28.3452 24.8812 28.2817 24.8513 28.2077C24.8214 28.1336 24.8144 28.0524 24.8312 27.9744C24.8481 27.8963 24.8879 27.8251 24.9457 27.7697L28.008 24.8912C28.087 24.827 28.1874 24.795 28.2892 24.8015C28.391 24.808 28.4865 24.8526 28.5566 24.9262C28.6266 24.9999 28.666 25.0972 28.6668 25.1985C28.6675 25.2999 28.6296 25.3978 28.5607 25.4725L25.4985 28.3511C25.4241 28.4203 25.326 28.459 25.2241 28.4593Z" fill="#093F68"/>
<path d="M51.937 28.4593C51.8337 28.46 51.734 28.4213 51.6586 28.3511L48.5964 25.4725C48.5535 25.4377 48.5182 25.3944 48.4929 25.3454C48.4675 25.2964 48.4526 25.2428 48.4491 25.1878C48.4455 25.1329 48.4534 25.0778 48.4722 25.026C48.491 24.9742 48.5204 24.9268 48.5584 24.8867C48.5965 24.8467 48.6425 24.8149 48.6934 24.7933C48.7444 24.7717 48.7993 24.7608 48.8547 24.7612C48.9102 24.7616 48.9649 24.7734 49.0156 24.7957C49.0662 24.8181 49.1117 24.8506 49.1491 24.8912L52.2114 27.7698C52.2865 27.8449 52.3287 27.9465 52.3287 28.0524C52.3287 28.1583 52.2865 28.2599 52.2114 28.3351C52.1395 28.4102 52.0412 28.4547 51.937 28.4593Z" fill="#093F68"/>
<path d="M39.4054 32.3001C39.0494 32.2994 38.6952 32.2509 38.3524 32.1558C38.2547 32.1224 38.1736 32.053 38.1259 31.9619C38.0782 31.8708 38.0674 31.765 38.0959 31.6663C38.1243 31.5676 38.1898 31.4835 38.2788 31.4314C38.3678 31.3792 38.4736 31.363 38.5743 31.386C38.6469 31.386 40.3939 31.8792 40.7771 30.7406C41.0878 29.8064 39.3529 27.6976 38.1869 26.5871C38.1485 26.5507 38.1177 26.5072 38.0962 26.4591C38.0747 26.4109 38.063 26.359 38.0616 26.3063C38.0603 26.2536 38.0695 26.2012 38.0886 26.1521C38.1076 26.1029 38.1363 26.0579 38.1728 26.0198C38.2094 25.9816 38.2531 25.951 38.3016 25.9296C38.3501 25.9082 38.4023 25.8966 38.4553 25.8953C38.5084 25.894 38.5611 25.903 38.6106 25.922C38.6601 25.941 38.7053 25.9694 38.7437 26.0057C39.0907 26.3345 42.1166 29.2772 41.5397 30.9931C41.2008 32.0115 40.2527 32.3001 39.4054 32.3001Z" fill="#093F68"/>
<path d="M32.9063 25.9456C33.4321 25.9456 33.8584 25.522 33.8584 24.9994C33.8584 24.4769 33.4321 24.0533 32.9063 24.0533C32.3804 24.0533 31.9541 24.4769 31.9541 24.9994C31.9541 25.522 32.3804 25.9456 32.9063 25.9456Z" fill="#093F68"/>
<path d="M44.9092 25.9456C45.4351 25.9456 45.8614 25.522 45.8614 24.9994C45.8614 24.4769 45.4351 24.0533 44.9092 24.0533C44.3833 24.0533 43.957 24.4769 43.957 24.9994C43.957 25.522 44.3833 25.9456 44.9092 25.9456Z" fill="#093F68"/>
<path d="M29.2545 21.6758C29.0848 21.6753 28.9195 21.6216 28.7823 21.5224C28.6451 21.4231 28.5429 21.2834 28.4901 21.1231C28.4374 20.9628 28.4369 20.7901 28.4886 20.6295C28.5404 20.4689 28.6418 20.3286 28.7784 20.2285C28.9236 20.1243 32.4095 17.6787 35.8631 19.543C36.0515 19.644 36.1917 19.8152 36.253 20.0189C36.3143 20.2227 36.2916 20.4423 36.1899 20.6294C36.0883 20.8166 35.916 20.9559 35.7109 21.0168C35.5059 21.0777 35.2849 21.0552 35.0965 20.9542C32.5225 19.571 29.7507 21.5075 29.7225 21.5275C29.5858 21.6241 29.4222 21.6759 29.2545 21.6758V21.6758Z" fill="#093F68"/>
<path d="M47.0108 21.6798C46.8426 21.6788 46.679 21.6255 46.5428 21.5275C46.4944 21.4954 43.7186 19.575 41.1687 20.9542C41.0755 21.0042 40.9732 21.0355 40.8678 21.0462C40.7624 21.057 40.6559 21.047 40.5544 21.0168C40.4528 20.9867 40.3583 20.9369 40.2761 20.8705C40.1939 20.804 40.1257 20.7221 40.0754 20.6294C40.025 20.5368 39.9935 20.4352 39.9827 20.3304C39.9719 20.2257 39.982 20.1198 40.0123 20.0189C40.0427 19.9181 40.0927 19.8241 40.1596 19.7424C40.2265 19.6608 40.3089 19.593 40.4022 19.543C43.8759 17.6787 47.3416 20.1243 47.4869 20.2285C47.6252 20.328 47.7282 20.4686 47.781 20.63C47.8338 20.7913 47.8338 20.9652 47.7809 21.1265C47.728 21.2879 47.6249 21.4283 47.4865 21.5278C47.3481 21.6272 47.1816 21.6805 47.0108 21.6798Z" fill="#093F68"/>
<path d="M36.7344 40.8427H41.6445C41.6445 40.8427 41.0192 33.4217 39.1875 34.0271C37.3558 34.6325 36.7344 40.8427 36.7344 40.8427Z" fill="#093F68"/>
<path d="M39.4028 33.591C39.6128 33.5922 39.8177 33.6549 39.9919 33.7714C41.4645 34.7336 41.9607 39.7852 42.0455 40.7955C42.0501 40.8507 42.0432 40.9063 42.0252 40.9588C42.0071 41.0112 41.9783 41.0594 41.9406 41.1002C41.9033 41.1412 41.8579 41.1742 41.8072 41.1969C41.7565 41.2197 41.7017 41.2318 41.646 41.2325H36.736C36.6797 41.2324 36.624 41.2205 36.5726 41.1977C36.5212 41.1749 36.4751 41.1417 36.4374 41.1002C36.3999 41.0586 36.3715 41.0096 36.3541 40.9564C36.3368 40.9033 36.3308 40.8471 36.3365 40.7915C36.9538 34.6615 38.7129 33.7674 39.0599 33.6512C39.17 33.6121 39.2859 33.5918 39.4028 33.591ZM41.2022 40.4307C40.9803 38.2296 40.3953 34.9862 39.5521 34.445C39.5205 34.4192 39.4825 34.4022 39.442 34.3959C39.4016 34.3895 39.3602 34.394 39.3221 34.4089C38.2368 34.7737 37.4703 38.1254 37.1878 40.4226L41.2022 40.4307Z" fill="#093F68"/>
<path d="M76.5965 74.28H0.403458C0.296454 74.28 0.193833 74.2377 0.11817 74.1626C0.0425068 74.0874 0 73.9854 0 73.8791C0 73.7727 0.0425068 73.6708 0.11817 73.5956C0.193833 73.5204 0.296454 73.4781 0.403458 73.4781H76.5965C76.7035 73.4781 76.8062 73.5204 76.8818 73.5956C76.9575 73.6708 77 73.7727 77 73.8791C77 73.9854 76.9575 74.0874 76.8818 74.1626C76.8062 74.2377 76.7035 74.28 76.5965 74.28Z" fill="#093F68"/>
<path d="M38.8853 64.5498C40.4539 64.5498 41.7256 63.5967 41.7256 62.4209C41.7256 61.2452 40.4539 60.2921 38.8853 60.2921C37.3166 60.2921 36.0449 61.2452 36.0449 62.4209C36.0449 63.5967 37.3166 64.5498 38.8853 64.5498Z" fill="#093F68"/>
<path d="M38.8849 64.9426C37.0935 64.9426 35.6572 63.808 35.6572 62.4169C35.6572 61.0257 37.1097 59.8871 38.8849 59.8871C40.6601 59.8871 42.1126 61.0217 42.1126 62.4169C42.1126 63.8121 40.6722 64.9426 38.8849 64.9426ZM38.8849 60.6889C37.5414 60.6889 36.4641 61.4627 36.4641 62.4169C36.4641 63.371 37.5575 64.1408 38.8849 64.1408C40.2123 64.1408 41.3056 63.367 41.3056 62.4169C41.3056 61.4667 40.2284 60.6929 38.8849 60.6929V60.6889Z" fill="#093F68"/>
<path d="M38.8853 60.693H38.8168C38.7114 60.6753 38.6174 60.6168 38.5554 60.5304C38.4934 60.444 38.4684 60.3366 38.4859 60.2319C38.5222 60.0274 38.8571 58.2594 40.0998 58.1151C40.1527 58.109 40.2064 58.1134 40.2577 58.1279C40.309 58.1425 40.3569 58.1669 40.3986 58.1999C40.4404 58.2328 40.4752 58.2736 40.5011 58.32C40.5271 58.3663 40.5435 58.4172 40.5496 58.4699C40.5557 58.5225 40.5513 58.5759 40.5367 58.6268C40.522 58.6778 40.4974 58.7254 40.4643 58.7669C40.4311 58.8084 40.39 58.843 40.3434 58.8687C40.2968 58.8945 40.2455 58.9108 40.1926 58.9169C39.6923 58.977 39.3856 59.9232 39.2928 60.3722C39.2739 60.4648 39.2226 60.5478 39.148 60.6065C39.0734 60.6652 38.9804 60.6958 38.8853 60.693Z" fill="#093F68"/>
<path d="M11.0228 62.3728H19.1203V70.4994C19.1203 71.3553 18.7781 72.1762 18.169 72.7815C17.5599 73.3867 16.7338 73.7267 15.8724 73.7267H14.2586C13.3972 73.7267 12.5711 73.3867 11.962 72.7815C11.3529 72.1762 11.0107 71.3553 11.0107 70.4994V62.3728H11.0228Z" fill="#00AA92"/>
<path d="M15.8638 74.1276H14.2499C13.2854 74.1266 12.3603 73.7467 11.6763 73.0709C10.9924 72.395 10.605 71.4779 10.5986 70.5194V62.3728C10.5986 62.2664 10.6411 62.1645 10.7168 62.0893C10.7925 62.0141 10.8951 61.9719 11.0021 61.9719H19.0995C19.2065 61.9719 19.3091 62.0141 19.3848 62.0893C19.4605 62.1645 19.503 62.2664 19.503 62.3728V70.4993C19.5008 71.4589 19.1171 72.3787 18.4355 73.0584C17.7538 73.738 16.8294 74.1224 15.8638 74.1276V74.1276ZM11.4257 62.7737V70.4993C11.431 71.2455 11.7331 71.9593 12.2659 72.485C12.7988 73.0107 13.5192 73.3058 14.2701 73.3058H15.8839C16.6352 73.3058 17.3561 73.0109 17.8896 72.4853C18.423 71.9596 18.726 71.2459 18.7324 70.4993V62.7737H11.4257Z" fill="#093F68"/>
<path d="M11.0222 70.1987H10.9374C10.0371 70.1682 9.18399 69.7914 8.55797 69.1477C7.93195 68.5041 7.58203 67.644 7.58203 66.7488C7.58203 65.8537 7.93195 64.9936 8.55797 64.3499C9.18399 63.7063 10.0371 63.3295 10.9374 63.299H11.0222C11.1292 63.299 11.2318 63.3412 11.3075 63.4164C11.3831 63.4916 11.4256 63.5935 11.4256 63.6999V69.7978C11.4256 69.9041 11.3831 70.0061 11.3075 70.0813C11.2318 70.1565 11.1292 70.1987 11.0222 70.1987ZM10.6187 64.1409C9.97068 64.2165 9.37314 64.5258 8.9395 65.0103C8.50586 65.4947 8.2663 66.1205 8.2663 66.7689C8.2663 67.4172 8.50586 68.043 8.9395 68.5275C9.37314 69.0119 9.97068 69.3213 10.6187 69.3969V64.1409Z" fill="#093F68"/>
<path d="M73.8649 64.5458V56.8923H58.36V64.5458H56.3145V69.2526H58.0816V73.8791H73.5865V69.1764H71.8234V64.5458H73.8649Z" fill="#F5F8FA"/>
<path d="M73.5866 74.28H58.0817C57.9747 74.28 57.8721 74.2377 57.7965 74.1625C57.7208 74.0874 57.6783 73.9854 57.6783 73.8791V69.6534H56.3146C56.2076 69.6534 56.105 69.6112 56.0293 69.536C55.9536 69.4608 55.9111 69.3588 55.9111 69.2525V64.5417C55.9111 64.4354 55.9536 64.3334 56.0293 64.2582C56.105 64.183 56.2076 64.1408 56.3146 64.1408H57.9567V56.8922C57.9567 56.7859 57.9992 56.6839 58.0748 56.6088C58.1505 56.5336 58.2531 56.4913 58.3601 56.4913H73.865C73.972 56.4913 74.0746 56.5336 74.1503 56.6088C74.226 56.6839 74.2685 56.7859 74.2685 56.8922V64.5417C74.2685 64.6481 74.226 64.75 74.1503 64.8252C74.0746 64.9004 73.972 64.9426 73.865 64.9426H72.227V68.7714H73.5866C73.6936 68.7714 73.7963 68.8136 73.8719 68.8888C73.9476 68.964 73.9901 69.066 73.9901 69.1723V73.875C73.9906 73.928 73.9806 73.9806 73.9605 74.0297C73.9405 74.0788 73.9109 74.1235 73.8734 74.1611C73.8358 74.1988 73.7912 74.2287 73.742 74.2491C73.6928 74.2695 73.64 74.28 73.5866 74.28ZM58.4852 73.4781H73.1832V69.5772H71.8235C71.7165 69.5772 71.6139 69.535 71.5382 69.4598C71.4626 69.3846 71.4201 69.2826 71.4201 69.1763V64.5417C71.4201 64.4354 71.4626 64.3334 71.5382 64.2582C71.6139 64.183 71.7165 64.1408 71.8235 64.1408H73.4616V57.2932H58.7636V64.5417C58.7636 64.6481 58.7211 64.75 58.6454 64.8252C58.5698 64.9004 58.4671 64.9426 58.3601 64.9426H56.718V68.8476H58.0817C58.1887 68.8476 58.2914 68.8898 58.367 68.965C58.4427 69.0402 58.4852 69.1422 58.4852 69.2485V73.4781Z" fill="#093F68"/>
<path d="M71.8237 69.5773H62.173C62.066 69.5773 61.9634 69.535 61.8877 69.4599C61.812 69.3847 61.7695 69.2827 61.7695 69.1764C61.7695 69.07 61.812 68.9681 61.8877 68.8929C61.9634 68.8177 62.066 68.7755 62.173 68.7755H71.8237C71.9307 68.7755 72.0333 68.8177 72.109 68.8929C72.1847 68.9681 72.2272 69.07 72.2272 69.1764C72.2272 69.2827 72.1847 69.3847 72.109 69.4599C72.0333 69.535 71.9307 69.5773 71.8237 69.5773Z" fill="#093F68"/>
<path d="M63.8758 64.9427H58.3605C58.2535 64.9427 58.1509 64.9005 58.0752 64.8253C57.9995 64.7501 57.957 64.6481 57.957 64.5418C57.957 64.4355 57.9995 64.3335 58.0752 64.2583C58.1509 64.1831 58.2535 64.1409 58.3605 64.1409H63.8758C63.9828 64.1409 64.0854 64.1831 64.161 64.2583C64.2367 64.3335 64.2792 64.4355 64.2792 64.5418C64.2792 64.6481 64.2367 64.7501 64.161 64.8253C64.0854 64.9005 63.9828 64.9427 63.8758 64.9427Z" fill="#093F68"/>
<path d="M71.8232 64.9427H67.6232C67.5162 64.9427 67.4136 64.9005 67.3379 64.8253C67.2622 64.7501 67.2197 64.6481 67.2197 64.5418C67.2197 64.4355 67.2622 64.3335 67.3379 64.2583C67.4136 64.1831 67.5162 64.1409 67.6232 64.1409H71.8232C71.9302 64.1409 72.0328 64.1831 72.1085 64.2583C72.1841 64.3335 72.2266 64.4355 72.2266 64.5418C72.2266 64.6481 72.1841 64.7501 72.1085 64.8253C72.0328 64.9005 71.9302 64.9427 71.8232 64.9427Z" fill="#093F68"/>
<path d="M73.8649 61.7875H60.6476C60.5406 61.7875 60.438 61.7452 60.3623 61.6701C60.2866 61.5949 60.2441 61.4929 60.2441 61.3866C60.2441 61.2802 60.2866 61.1783 60.3623 61.1031C60.438 61.0279 60.5406 60.9857 60.6476 60.9857H73.873C73.98 60.9857 74.0826 61.0279 74.1583 61.1031C74.2339 61.1783 74.2764 61.2802 74.2764 61.3866C74.2764 61.4929 74.2339 61.5949 74.1583 61.6701C74.0826 61.7452 73.98 61.7875 73.873 61.7875H73.8649Z" fill="#093F68"/>
<path d="M68.8175 59.418H58.5939C58.4869 59.418 58.3843 59.3758 58.3086 59.3006C58.2329 59.2254 58.1904 59.1235 58.1904 59.0171C58.1904 58.9108 58.2329 58.8088 58.3086 58.7336C58.3843 58.6584 58.4869 58.6162 58.5939 58.6162H68.8175C68.9245 58.6162 69.0271 58.6584 69.1028 58.7336C69.1785 58.8088 69.221 58.9108 69.221 59.0171C69.221 59.1235 69.1785 59.2254 69.1028 59.3006C69.0271 59.3758 68.9245 59.418 68.8175 59.418Z" fill="#093F68"/>
<path d="M68.4187 66.7548H56.8878C56.7808 66.7548 56.6782 66.7125 56.6026 66.6373C56.5269 66.5622 56.4844 66.4602 56.4844 66.3539C56.4844 66.2475 56.5269 66.1456 56.6026 66.0704C56.6782 65.9952 56.7808 65.9529 56.8878 65.9529H68.4187C68.5257 65.9529 68.6283 65.9952 68.704 66.0704C68.7796 66.1456 68.8221 66.2475 68.8221 66.3539C68.8221 66.4602 68.7796 66.5622 68.704 66.6373C68.6283 66.7125 68.5257 66.7548 68.4187 66.7548Z" fill="#093F68"/>
<path d="M70.3513 71.4255H58.0822C57.9752 71.4255 57.8725 71.3833 57.7969 71.3081C57.7212 71.2329 57.6787 71.1309 57.6787 71.0246C57.6787 70.9182 57.7212 70.8163 57.7969 70.7411C57.8725 70.6659 57.9752 70.6237 58.0822 70.6237H70.3513C70.4583 70.6237 70.561 70.6659 70.6366 70.7411C70.7123 70.8163 70.7548 70.9182 70.7548 71.0246C70.7548 71.1309 70.7123 71.2329 70.6366 71.3081C70.561 71.3833 70.4583 71.4255 70.3513 71.4255Z" fill="#093F68"/>
<path d="M8.19838 45.1254C8.09138 45.1254 7.98875 45.0831 7.91309 45.0079C7.83743 44.9328 7.79492 44.8308 7.79492 44.7245V43.2932C7.79492 43.1869 7.83743 43.0849 7.91309 43.0097C7.98875 42.9345 8.09138 42.8923 8.19838 42.8923C8.30538 42.8923 8.40801 42.9345 8.48367 43.0097C8.55933 43.0849 8.60184 43.1869 8.60184 43.2932V44.7204C8.60237 44.7734 8.59233 44.826 8.57229 44.8751C8.55225 44.9242 8.52262 44.9689 8.4851 45.0065C8.44759 45.0442 8.40293 45.0741 8.35372 45.0945C8.3045 45.1149 8.2517 45.1254 8.19838 45.1254Z" fill="#DFEAEF"/>
<path d="M8.19838 48.2204C8.09138 48.2204 7.98875 48.1782 7.91309 48.103C7.83743 48.0278 7.79492 47.9259 7.79492 47.8195V46.3963C7.79492 46.2899 7.83743 46.188 7.91309 46.1128C7.98875 46.0376 8.09138 45.9954 8.19838 45.9954C8.30538 45.9954 8.40801 46.0376 8.48367 46.1128C8.55933 46.188 8.60184 46.2899 8.60184 46.3963V47.8195C8.60184 47.9259 8.55933 48.0278 8.48367 48.103C8.40801 48.1782 8.30538 48.2204 8.19838 48.2204Z" fill="#DFEAEF"/>
<path d="M10.4775 45.9593H9.04115C8.93415 45.9593 8.83153 45.9171 8.75587 45.8419C8.68021 45.7667 8.6377 45.6647 8.6377 45.5584C8.6377 45.4521 8.68021 45.3501 8.75587 45.2749C8.83153 45.1997 8.93415 45.1575 9.04115 45.1575H10.4775C10.5845 45.1575 10.6871 45.1997 10.7628 45.2749C10.8384 45.3501 10.8809 45.4521 10.8809 45.5584C10.8809 45.6647 10.8384 45.7667 10.7628 45.8419C10.6871 45.9171 10.5845 45.9593 10.4775 45.9593Z" fill="#DFEAEF"/>
<path d="M7.35917 45.9593H5.9269C5.81989 45.9593 5.71727 45.9171 5.64161 45.8419C5.56594 45.7667 5.52344 45.6647 5.52344 45.5584C5.52344 45.4521 5.56594 45.3501 5.64161 45.2749C5.71727 45.1997 5.81989 45.1575 5.9269 45.1575H7.35917C7.46617 45.1575 7.5688 45.1997 7.64446 45.2749C7.72012 45.3501 7.76263 45.4521 7.76263 45.5584C7.76263 45.6647 7.72012 45.7667 7.64446 45.8419C7.5688 45.9171 7.46617 45.9593 7.35917 45.9593Z" fill="#DFEAEF"/>
<path d="M66.881 45.9593C66.774 45.9593 66.6714 45.917 66.5957 45.8418C66.52 45.7667 66.4775 45.6647 66.4775 45.5584V44.1351C66.4775 44.0288 66.52 43.9268 66.5957 43.8516C66.6714 43.7764 66.774 43.7342 66.881 43.7342C66.988 43.7342 67.0906 43.7764 67.1663 43.8516C67.2419 43.9268 67.2845 44.0288 67.2845 44.1351V45.5584C67.2845 45.6647 67.2419 45.7667 67.1663 45.8418C67.0906 45.917 66.988 45.9593 66.881 45.9593Z" fill="#DFEAEF"/>
<path d="M66.881 49.0584C66.774 49.0584 66.6714 49.0162 66.5957 48.941C66.52 48.8658 66.4775 48.7638 66.4775 48.6575V47.2342C66.4775 47.1279 66.52 47.0259 66.5957 46.9507C66.6714 46.8756 66.774 46.8333 66.881 46.8333C66.988 46.8333 67.0906 46.8756 67.1663 46.9507C67.2419 47.0259 67.2845 47.1279 67.2845 47.2342V48.6575C67.2845 48.7638 67.2419 48.8658 67.1663 48.941C67.0906 49.0162 66.988 49.0584 66.881 49.0584Z" fill="#DFEAEF"/>
<path d="M69.1611 46.7972H67.7247C67.6177 46.7972 67.5151 46.755 67.4395 46.6798C67.3638 46.6046 67.3213 46.5026 67.3213 46.3963C67.3213 46.2899 67.3638 46.188 67.4395 46.1128C67.5151 46.0376 67.6177 45.9954 67.7247 45.9954H69.1611C69.2681 45.9954 69.3707 46.0376 69.4463 46.1128C69.522 46.188 69.5645 46.2899 69.5645 46.3963C69.5645 46.5026 69.522 46.6046 69.4463 46.6798C69.3707 46.755 69.2681 46.7972 69.1611 46.7972Z" fill="#DFEAEF"/>
<path d="M66.0419 46.7972H64.6056C64.4986 46.7972 64.396 46.755 64.3203 46.6798C64.2447 46.6046 64.2021 46.5026 64.2021 46.3963C64.2021 46.2899 64.2447 46.188 64.3203 46.1128C64.396 46.0376 64.4986 45.9954 64.6056 45.9954H66.0419C66.1489 45.9954 66.2515 46.0376 66.3272 46.1128C66.4029 46.188 66.4454 46.2899 66.4454 46.3963C66.4454 46.5026 66.4029 46.6046 66.3272 46.6798C66.2515 46.755 66.1489 46.7972 66.0419 46.7972Z" fill="#DFEAEF"/>
<path d="M70.7345 32.9857C70.6275 32.9857 70.5249 32.9434 70.4492 32.8682C70.3736 32.793 70.3311 32.6911 70.3311 32.5847V31.382C70.3311 31.2757 70.3736 31.1737 70.4492 31.0985C70.5249 31.0233 70.6275 30.9811 70.7345 30.9811C70.8415 30.9811 70.9441 31.0233 71.0198 31.0985C71.0955 31.1737 71.138 31.2757 71.138 31.382V32.5847C71.138 32.6911 71.0955 32.793 71.0198 32.8682C70.9441 32.9434 70.8415 32.9857 70.7345 32.9857Z" fill="#DFEAEF"/>
<path d="M70.7345 35.5956C70.6275 35.5956 70.5249 35.5534 70.4492 35.4782C70.3736 35.403 70.3311 35.3011 70.3311 35.1947V33.992C70.3311 33.8857 70.3736 33.7837 70.4492 33.7085C70.5249 33.6333 70.6275 33.5911 70.7345 33.5911C70.8415 33.5911 70.9441 33.6333 71.0198 33.7085C71.0955 33.7837 71.138 33.8857 71.138 33.992V35.1947C71.138 35.3011 71.0955 35.403 71.0198 35.4782C70.9441 35.5534 70.8415 35.5956 70.7345 35.5956Z" fill="#DFEAEF"/>
<path d="M72.6343 33.6913H71.424C71.317 33.6913 71.2143 33.6491 71.1387 33.5739C71.063 33.4987 71.0205 33.3967 71.0205 33.2904C71.0205 33.1841 71.063 33.0821 71.1387 33.0069C71.2143 32.9317 71.317 32.8895 71.424 32.8895H72.6343C72.7413 32.8895 72.844 32.9317 72.9196 33.0069C72.9953 33.0821 73.0378 33.1841 73.0378 33.2904C73.0378 33.3967 72.9953 33.4987 72.9196 33.5739C72.844 33.6491 72.7413 33.6913 72.6343 33.6913Z" fill="#DFEAEF"/>
<path d="M70.0084 33.6913H68.798C68.691 33.6913 68.5884 33.6491 68.5127 33.5739C68.437 33.4987 68.3945 33.3967 68.3945 33.2904C68.3945 33.1841 68.437 33.0821 68.5127 33.0069C68.5884 32.9317 68.691 32.8895 68.798 32.8895H70.0084C70.1154 32.8895 70.218 32.9317 70.2936 33.0069C70.3693 33.0821 70.4118 33.1841 70.4118 33.2904C70.4118 33.3967 70.3693 33.4987 70.2936 33.5739C70.218 33.6491 70.1154 33.6913 70.0084 33.6913Z" fill="#DFEAEF"/>
</svg>
