<svg width="77" height="75" viewBox="0 0 77 75" fill="none" xmlns="http://www.w3.org/2000/svg">
<path d="M70.6858 13.1764C70.31 12.9299 69.889 12.7595 69.4468 12.6748C69.0047 12.5902 68.5501 12.593 68.109 12.6831C67.668 12.7732 67.2491 12.9489 66.8764 13.2C66.5038 13.4511 66.1846 13.7728 65.9371 14.1466L45.2478 40.7835H31.7521L11.0668 14.1466C10.5666 13.3917 9.785 12.8651 8.89406 12.6828C8.00313 12.5005 7.0758 12.6773 6.31607 13.1744C5.55635 13.6715 5.02646 14.4481 4.84297 15.3334C4.65949 16.2188 4.83745 17.1402 5.33769 17.8952L25.8213 48.8098C26.1279 49.2789 26.9953 67.8934 26.9953 67.8934H49.9924C49.9924 67.8934 50.8558 49.2789 51.1665 48.8098L71.6501 17.8952C72.1511 17.1421 72.331 16.2223 72.1502 15.3376C71.9694 14.4529 71.4428 13.6756 70.6858 13.1764V13.1764Z" fill="#E6A01B"/>
<path d="M50.0082 68.2943H27.0111C26.9041 68.2943 26.8015 68.2521 26.7258 68.1769C26.6501 68.1017 26.6076 67.9997 26.6076 67.8934C26.2768 60.7531 25.7039 49.9043 25.4739 48.9742L5.01456 18.1036C4.45546 17.2599 4.25656 16.2301 4.46161 15.2406C4.66665 14.2511 5.25885 13.3832 6.10793 12.8276C6.957 12.272 7.9934 12.0744 8.98913 12.2781C9.98485 12.4819 10.8583 13.0703 11.4174 13.9141L31.9656 40.3745H45.0659L65.6422 13.894C66.2032 13.0651 67.0695 12.4885 68.0544 12.2882C69.0392 12.088 70.0638 12.2803 70.9073 12.8236V12.8236C71.3278 13.0986 71.6896 13.4533 71.9721 13.8673C72.2546 14.2814 72.4523 14.7466 72.5538 15.2366C72.6553 15.7265 72.6587 16.2315 72.5638 16.7228C72.4689 17.214 72.2776 17.6819 72.0007 18.0996L51.5454 48.9702C51.3154 49.9003 50.7385 60.7491 50.4076 67.8894C50.4082 67.942 50.3983 67.9943 50.3785 68.0431C50.3587 68.092 50.3294 68.1364 50.2923 68.174C50.2552 68.2116 50.2111 68.2416 50.1623 68.2623C50.1136 68.2829 50.0612 68.2938 50.0082 68.2943ZM27.3782 67.4925H49.6209C50.0244 59.0291 50.5448 49.0503 50.8313 48.5893L71.3269 17.6747C71.7663 17.0079 71.9221 16.1954 71.7603 15.4149C71.5985 14.6343 71.1323 13.9491 70.4635 13.5091V13.5091C70.1316 13.2919 69.7599 13.1418 69.3696 13.0673C68.9793 12.9929 68.578 12.9956 68.1887 13.0752C67.7995 13.1549 67.4298 13.31 67.1009 13.5317C66.7719 13.7533 66.4901 14.0372 66.2716 14.3671L45.5661 41.032C45.5281 41.0798 45.4797 41.1184 45.4245 41.1448C45.3692 41.1711 45.3087 41.1847 45.2474 41.1844H31.7517C31.6904 41.1847 31.6299 41.1711 31.5747 41.1448C31.5194 41.1184 31.471 41.0798 31.433 41.032L10.7477 14.3912C10.5377 14.0451 10.2597 13.7446 9.93034 13.5075C9.60097 13.2704 9.22694 13.1017 8.83055 13.0113C8.43416 12.921 8.02351 12.9108 7.62309 12.9815C7.22267 13.0522 6.84066 13.2022 6.49983 13.4227C6.15901 13.6432 5.86634 13.9296 5.63927 14.2649C5.4122 14.6001 5.25538 14.9774 5.17814 15.3742C5.10091 15.771 5.10485 16.1791 5.18973 16.5744C5.27461 16.9696 5.43869 17.3438 5.67219 17.6747L26.1558 48.5893C26.4584 49.0463 26.9829 59.0291 27.3782 67.4925Z" fill="#093F68"/>
<path d="M40.689 43.7422H36.3115V62.3687H40.689V43.7422Z" fill="#093F68"/>
<path d="M40.6892 62.7736H36.3117C36.2047 62.7736 36.102 62.7314 36.0264 62.6562C35.9507 62.581 35.9082 62.4791 35.9082 62.3727V43.7422C35.9082 43.6358 35.9507 43.5339 36.0264 43.4587C36.102 43.3835 36.2047 43.3412 36.3117 43.3412H40.6892C40.7962 43.3412 40.8988 43.3835 40.9745 43.4587C41.0501 43.5339 41.0926 43.6358 41.0926 43.7422V62.3727C41.0926 62.4791 41.0501 62.581 40.9745 62.6562C40.8988 62.7314 40.7962 62.7736 40.6892 62.7736ZM36.7151 61.9718H40.2857V44.1431H36.7151V61.9718Z" fill="#093F68"/>
<path d="M68.3538 10.0172V6.10424C68.3538 5.66723 68.1791 5.24812 67.8682 4.9391C67.5572 4.63008 67.1354 4.45648 66.6956 4.45648C66.2558 4.45648 65.8341 4.63008 65.5231 4.9391C65.2121 5.24812 65.0374 5.66723 65.0374 6.10424V11.0435C64.6622 11.6489 64.4443 12.6111 64.4443 14.1386C64.4443 18.2801 66.389 18.9937 68.3821 18.9937C70.3752 18.9937 72.8443 17.4542 73.0864 16.2835C73.5584 14.1546 70.2098 10.1856 68.3538 10.0172Z" fill="#FFC9B0"/>
<path d="M68.3978 19.3946C66.5339 19.3946 64.0566 18.8533 64.0566 14.1386C64.0566 12.7153 64.2463 11.6729 64.6336 10.9593V6.10422C64.6336 5.56088 64.8508 5.03979 65.2374 4.65559C65.6241 4.27138 66.1485 4.05554 66.6952 4.05554C67.242 4.05554 67.7664 4.27138 68.1531 4.65559C68.5397 5.03979 68.7569 5.56088 68.7569 6.10422V9.68039C69.9673 10.0051 71.2664 11.2841 72.0855 12.3986C72.61 13.1042 73.8002 14.8963 73.4976 16.3637C73.195 17.831 70.4878 19.3946 68.3978 19.3946ZM65.4405 10.9753C65.4661 11.0757 65.4516 11.182 65.4002 11.272C65.037 11.8574 64.8636 12.7995 64.8636 14.1586C64.8636 18.0836 66.6509 18.6128 68.3978 18.6128C70.3264 18.6128 72.5252 17.1013 72.7068 16.2073C72.8682 15.4055 72.38 14.1466 71.4359 12.8797C70.4272 11.5246 69.116 10.4742 68.3172 10.4181C68.2166 10.409 68.123 10.3629 68.0551 10.2886C67.9871 10.2144 67.9496 10.1175 67.95 10.0172V6.10422C67.95 5.77354 67.8178 5.4564 67.5825 5.22257C67.3472 4.98874 67.028 4.85737 66.6952 4.85737C66.3625 4.85737 66.0433 4.98874 65.808 5.22257C65.5727 5.4564 65.4405 5.77354 65.4405 6.10422V10.9753Z" fill="#093F68"/>
<path d="M72.2594 9.13116H66.9378C66.4075 9.13116 65.9775 9.55836 65.9775 10.0853V10.0894C65.9775 10.6163 66.4075 11.0435 66.9378 11.0435H72.2594C72.7897 11.0435 73.2196 10.6163 73.2196 10.0894V10.0853C73.2196 9.55836 72.7897 9.13116 72.2594 9.13116Z" fill="#FFC9B0"/>
<path d="M72.2596 11.4445H66.942C66.7564 11.4545 66.5707 11.4268 66.3962 11.3632C66.2217 11.2995 66.0622 11.2012 65.9272 11.0742C65.7923 10.9471 65.6848 10.7941 65.6113 10.6245C65.5379 10.4548 65.5 10.2721 65.5 10.0874C65.5 9.90268 65.5379 9.71992 65.6113 9.55026C65.6848 9.38061 65.7923 9.22761 65.9272 9.1006C66.0622 8.9736 66.2217 8.87526 66.3962 8.81159C66.5707 8.74792 66.7564 8.72025 66.942 8.73028H72.2596C72.4452 8.72025 72.6309 8.74792 72.8053 8.81159C72.9798 8.87526 73.1394 8.9736 73.2743 9.1006C73.4093 9.22761 73.5168 9.38061 73.5902 9.55026C73.6637 9.71992 73.7015 9.90268 73.7015 10.0874C73.7015 10.2721 73.6637 10.4548 73.5902 10.6245C73.5168 10.7941 73.4093 10.9471 73.2743 11.0742C73.1394 11.2012 72.9798 11.2995 72.8053 11.3632C72.6309 11.4268 72.4452 11.4545 72.2596 11.4445V11.4445ZM66.942 9.53211C66.8646 9.52557 66.7867 9.53507 66.7132 9.56C66.6397 9.58494 66.5723 9.62477 66.5151 9.67697C66.4579 9.72917 66.4122 9.7926 66.381 9.86324C66.3498 9.93389 66.3336 10.0102 66.3336 10.0874C66.3336 10.1645 66.3498 10.2409 66.381 10.3115C66.4122 10.3822 66.4579 10.4456 66.5151 10.4978C66.5723 10.55 66.6397 10.5898 66.7132 10.6147C66.7867 10.6397 66.8646 10.6492 66.942 10.6426H72.2596C72.3369 10.6492 72.4148 10.6397 72.4883 10.6147C72.5618 10.5898 72.6293 10.55 72.6865 10.4978C72.7437 10.4456 72.7893 10.3822 72.8205 10.3115C72.8518 10.2409 72.8679 10.1645 72.8679 10.0874C72.8679 10.0102 72.8518 9.93389 72.8205 9.86324C72.7893 9.7926 72.7437 9.72917 72.6865 9.67697C72.6293 9.62477 72.5618 9.58494 72.4883 9.56C72.4148 9.53507 72.3369 9.52557 72.2596 9.53211H66.942Z" fill="#093F68"/>
<path d="M72.2594 11.0435H66.9378C66.4075 11.0435 65.9775 11.4707 65.9775 11.9977V12.0017C65.9775 12.5287 66.4075 12.9559 66.9378 12.9559H72.2594C72.7897 12.9559 73.2196 12.5287 73.2196 12.0017V11.9977C73.2196 11.4707 72.7897 11.0435 72.2594 11.0435Z" fill="#FFC9B0"/>
<path d="M72.2594 13.3528H66.9418C66.5801 13.3528 66.2333 13.21 65.9775 12.9559C65.7218 12.7017 65.5781 12.3571 65.5781 11.9977C65.5781 11.6383 65.7218 11.2936 65.9775 11.0395C66.2333 10.7853 66.5801 10.6426 66.9418 10.6426H72.2594C72.6211 10.6426 72.9679 10.7853 73.2237 11.0395C73.4794 11.2936 73.6231 11.6383 73.6231 11.9977C73.6231 12.3571 73.4794 12.7017 73.2237 12.9559C72.9679 13.21 72.6211 13.3528 72.2594 13.3528V13.3528ZM66.9418 11.4444C66.7942 11.4444 66.6525 11.5027 66.5481 11.6065C66.4437 11.7102 66.385 11.8509 66.385 11.9977C66.385 12.1444 66.4437 12.2851 66.5481 12.3889C66.6525 12.4926 66.7942 12.5509 66.9418 12.5509H72.2594C72.4071 12.5509 72.5487 12.4926 72.6531 12.3889C72.7575 12.2851 72.8162 12.1444 72.8162 11.9977C72.8162 11.8509 72.7575 11.7102 72.6531 11.6065C72.5487 11.5027 72.4071 11.4444 72.2594 11.4444H66.9418Z" fill="#093F68"/>
<path d="M72.2594 12.9519H66.9378C66.4075 12.9519 65.9775 13.3791 65.9775 13.9061V13.9101C65.9775 14.4371 66.4075 14.8643 66.9378 14.8643H72.2594C72.7897 14.8643 73.2196 14.4371 73.2196 13.9101V13.9061C73.2196 13.3791 72.7897 12.9519 72.2594 12.9519Z" fill="#FFC9B0"/>
<path d="M72.2596 15.2652H66.942C66.7564 15.2752 66.5707 15.2476 66.3962 15.1839C66.2217 15.1202 66.0622 15.0219 65.9272 14.8949C65.7923 14.7679 65.6848 14.6149 65.6113 14.4452C65.5379 14.2756 65.5 14.0928 65.5 13.9081C65.5 13.7234 65.5379 13.5407 65.6113 13.371C65.6848 13.2013 65.7923 13.0483 65.9272 12.9213C66.0622 12.7943 66.2217 12.696 66.3962 12.6323C66.5707 12.5687 66.7564 12.541 66.942 12.551H72.2596C72.4452 12.541 72.6309 12.5687 72.8053 12.6323C72.9798 12.696 73.1394 12.7943 73.2743 12.9213C73.4093 13.0483 73.5168 13.2013 73.5902 13.371C73.6637 13.5407 73.7015 13.7234 73.7015 13.9081C73.7015 14.0928 73.6637 14.2756 73.5902 14.4452C73.5168 14.6149 73.4093 14.7679 73.2743 14.8949C73.1394 15.0219 72.9798 15.1202 72.8053 15.1839C72.6309 15.2476 72.4452 15.2752 72.2596 15.2652V15.2652ZM66.942 13.3528C66.8646 13.3463 66.7867 13.3558 66.7132 13.3807C66.6397 13.4057 66.5723 13.4455 66.5151 13.4977C66.4579 13.5499 66.4122 13.6133 66.381 13.684C66.3498 13.7546 66.3336 13.831 66.3336 13.9081C66.3336 13.9853 66.3498 14.0616 66.381 14.1322C66.4122 14.2029 66.4579 14.2663 66.5151 14.3185C66.5723 14.3707 66.6397 14.4106 66.7132 14.4355C66.7867 14.4604 66.8646 14.4699 66.942 14.4634H72.2596C72.3369 14.4699 72.4148 14.4604 72.4883 14.4355C72.5618 14.4106 72.6293 14.3707 72.6865 14.3185C72.7437 14.2663 72.7893 14.2029 72.8205 14.1322C72.8518 14.0616 72.8679 13.9853 72.8679 13.9081C72.8679 13.831 72.8518 13.7546 72.8205 13.684C72.7893 13.6133 72.7437 13.5499 72.6865 13.4977C72.6293 13.4455 72.5618 13.4057 72.4883 13.3807C72.4148 13.3558 72.3369 13.3463 72.2596 13.3528H66.942Z" fill="#093F68"/>
<path d="M72.5662 17.5784C72.5128 17.5782 72.46 17.5675 72.4108 17.5468C72.3617 17.5262 72.3171 17.496 72.2797 17.4582C72.2046 17.383 72.1624 17.2814 72.1624 17.1755C72.1624 17.0696 72.2046 16.968 72.2797 16.8929C72.5856 16.6142 72.7768 16.2329 72.8163 15.8224C72.8163 15.6746 72.7572 15.5329 72.6521 15.4284C72.5469 15.3239 72.4043 15.2651 72.2555 15.2651H66.942C66.8646 15.2586 66.7867 15.2681 66.7132 15.293C66.6397 15.318 66.5723 15.3578 66.5151 15.41C66.4579 15.4622 66.4122 15.5256 66.381 15.5963C66.3498 15.6669 66.3336 15.7432 66.3336 15.8204C66.3336 15.8976 66.3498 15.9739 66.381 16.0445C66.4122 16.1152 66.4579 16.1786 66.5151 16.2308C66.5723 16.283 66.6397 16.3228 66.7132 16.3478C66.7867 16.3727 66.8646 16.3822 66.942 16.3757H70.0446C70.1516 16.3757 70.2542 16.4179 70.3299 16.4931C70.4055 16.5683 70.448 16.6703 70.448 16.7766C70.448 16.8829 70.4055 16.9849 70.3299 17.0601C70.2542 17.1353 70.1516 17.1775 70.0446 17.1775H66.942C66.7564 17.1875 66.5707 17.1599 66.3962 17.0962C66.2217 17.0325 66.0622 16.9342 65.9272 16.8072C65.7923 16.6802 65.6848 16.5272 65.6113 16.3575C65.5379 16.1879 65.5 16.0051 65.5 15.8204C65.5 15.6357 65.5379 15.453 65.6113 15.2833C65.6848 15.1136 65.7923 14.9606 65.9272 14.8336C66.0622 14.7066 66.2217 14.6083 66.3962 14.5446C66.5707 14.4809 66.7564 14.4533 66.942 14.4633H72.2596C72.6223 14.4633 72.9702 14.6065 73.2267 14.8614C73.4832 15.1163 73.6273 15.462 73.6273 15.8224C73.594 16.4484 73.316 17.0368 72.8526 17.4622C72.8149 17.4993 72.7702 17.5287 72.7211 17.5487C72.6719 17.5686 72.6193 17.5787 72.5662 17.5784Z" fill="#093F68"/>
<path d="M8.64658 10.0172V6.10424C8.64658 5.66723 8.82128 5.24812 9.13225 4.9391C9.44323 4.63008 9.865 4.45648 10.3048 4.45648C10.7446 4.45648 11.1663 4.63008 11.4773 4.9391C11.7883 5.24812 11.963 5.66723 11.963 6.10424V11.0435C12.3382 11.6489 12.5601 12.6111 12.5601 14.1386C12.5601 18.2801 10.6114 18.9937 8.62237 18.9937C6.63332 18.9937 4.16415 17.4542 3.90191 16.2835C3.46214 14.1546 6.79067 10.1856 8.64658 10.0172Z" fill="#FFC9B0"/>
<path d="M8.6013 19.3946C6.51138 19.3946 3.79207 17.7909 3.50158 16.3637C3.21109 14.9364 4.38516 13.1042 4.91369 12.3986C5.7206 11.3001 7.04798 9.99311 8.23818 9.68039V6.10422C8.23818 5.56088 8.4554 5.03979 8.84203 4.65559C9.22867 4.27138 9.75307 4.05554 10.2999 4.05554C10.8466 4.05554 11.371 4.27138 11.7577 4.65559C12.1443 5.03979 12.3615 5.56088 12.3615 6.10422V10.9593C12.765 11.6729 12.9425 12.7153 12.9425 14.1386C12.9465 18.8373 10.4693 19.3946 8.6013 19.3946ZM10.2999 4.85737C10.1351 4.85737 9.97191 4.88962 9.81968 4.95228C9.66745 5.01494 9.52912 5.10679 9.41261 5.22257C9.29609 5.33835 9.20367 5.4758 9.14061 5.62707C9.07755 5.77835 9.0451 5.94048 9.0451 6.10422V10.0172C9.04551 10.1175 9.00802 10.2144 8.94005 10.2886C8.87207 10.3629 8.77854 10.409 8.67795 10.4181C7.87104 10.4902 6.5719 11.5246 5.55922 12.8797C4.61513 14.1466 4.12694 15.4215 4.29236 16.2073C4.47392 17.0853 6.66873 18.6128 8.6013 18.6128C10.3483 18.6128 12.1356 18.0836 12.1356 14.1586C12.1356 12.7995 11.9581 11.8574 11.599 11.272C11.5696 11.2246 11.5504 11.1715 11.5428 11.1163C11.5351 11.0611 11.5392 11.0049 11.5546 10.9513V6.1403C11.5595 5.97389 11.5307 5.8082 11.4701 5.653C11.4095 5.4978 11.3182 5.35624 11.2016 5.23667C11.085 5.11709 10.9455 5.02193 10.7914 4.95678C10.6372 4.89164 10.4714 4.85784 10.3039 4.85737H10.2999Z" fill="#093F68"/>
<path d="M4.74062 11.0395H10.0622C10.5926 11.0395 11.0225 10.6123 11.0225 10.0853V10.0813C11.0225 9.55432 10.5926 9.12712 10.0622 9.12712H4.74062C4.2103 9.12712 3.78039 9.55432 3.78039 10.0813V10.0853C3.78039 10.6123 4.2103 11.0395 4.74062 11.0395Z" fill="#FFC9B0"/>
<path d="M10.0623 11.4445H4.74073C4.39136 11.4256 4.06255 11.2744 3.82196 11.022C3.58136 10.7695 3.44727 10.4351 3.44727 10.0874C3.44727 9.7397 3.58136 9.40524 3.82196 9.15281C4.06255 8.90037 4.39136 8.74916 4.74073 8.73029H10.0623C10.4117 8.74916 10.7405 8.90037 10.9811 9.15281C11.2217 9.40524 11.3558 9.7397 11.3558 10.0874C11.3558 10.4351 11.2217 10.7695 10.9811 11.022C10.7405 11.2744 10.4117 11.4256 10.0623 11.4445ZM4.74073 9.53212C4.60073 9.54395 4.4703 9.60757 4.37525 9.7104C4.28019 9.81323 4.22745 9.94776 4.22745 10.0874C4.22745 10.227 4.28019 10.3615 4.37525 10.4644C4.4703 10.5672 4.60073 10.6308 4.74073 10.6427H10.0623C10.2023 10.6308 10.3328 10.5672 10.4278 10.4644C10.5229 10.3615 10.5756 10.227 10.5756 10.0874C10.5756 9.94776 10.5229 9.81323 10.4278 9.7104C10.3328 9.60757 10.2023 9.54395 10.0623 9.53212H4.74073Z" fill="#093F68"/>
<path d="M4.74062 12.9519H10.0622C10.5926 12.9519 11.0225 12.5247 11.0225 11.9977V11.9937C11.0225 11.4667 10.5926 11.0395 10.0622 11.0395H4.74062C4.2103 11.0395 3.78039 11.4667 3.78039 11.9937V11.9977C3.78039 12.5247 4.2103 12.9519 4.74062 12.9519Z" fill="#FFC9B0"/>
<path d="M10.0623 13.3528H4.74064C4.37897 13.3528 4.03211 13.21 3.77637 12.9559C3.52063 12.7017 3.37695 12.3571 3.37695 11.9977C3.37695 11.6383 3.52063 11.2936 3.77637 11.0395C4.03211 10.7853 4.37897 10.6426 4.74064 10.6426H10.0623C10.4239 10.6426 10.7708 10.7853 11.0265 11.0395C11.2823 11.2936 11.4259 11.6383 11.4259 11.9977C11.4259 12.3571 11.2823 12.7017 11.0265 12.9559C10.7708 13.21 10.4239 13.3528 10.0623 13.3528V13.3528ZM4.74064 11.4444C4.59298 11.4444 4.45136 11.5027 4.34694 11.6065C4.24253 11.7102 4.18387 11.8509 4.18387 11.9977C4.18387 12.1444 4.24253 12.2851 4.34694 12.3889C4.45136 12.4926 4.59298 12.5509 4.74064 12.5509H10.0623C10.2099 12.5509 10.3515 12.4926 10.456 12.3889C10.5604 12.2851 10.619 12.1444 10.619 11.9977C10.619 11.8509 10.5604 11.7102 10.456 11.6065C10.3515 11.5027 10.2099 11.4444 10.0623 11.4444H4.74064Z" fill="#093F68"/>
<path d="M4.74062 14.8683H10.0622C10.5926 14.8683 11.0225 14.4411 11.0225 13.9141V13.9101C11.0225 13.3831 10.5926 12.9559 10.0622 12.9559H4.74062C4.2103 12.9559 3.78039 13.3831 3.78039 13.9101V13.9141C3.78039 14.4411 4.2103 14.8683 4.74062 14.8683Z" fill="#FFC9B0"/>
<path d="M10.0623 15.2652H4.74073C4.39136 15.2463 4.06255 15.0951 3.82196 14.8426C3.58136 14.5902 3.44727 14.2557 3.44727 13.9081C3.44727 13.5604 3.58136 13.2259 3.82196 12.9735C4.06255 12.721 4.39136 12.5698 4.74073 12.551H10.0623C10.4117 12.5698 10.7405 12.721 10.9811 12.9735C11.2217 13.2259 11.3558 13.5604 11.3558 13.9081C11.3558 14.2557 11.2217 14.5902 10.9811 14.8426C10.7405 15.0951 10.4117 15.2463 10.0623 15.2652V15.2652ZM4.74073 13.3528C4.60073 13.3646 4.4703 13.4283 4.37525 13.5311C4.28019 13.6339 4.22745 13.7684 4.22745 13.9081C4.22745 14.0477 4.28019 14.1822 4.37525 14.285C4.4703 14.3879 4.60073 14.4515 4.74073 14.4633H10.0623C10.2023 14.4515 10.3328 14.3879 10.4278 14.285C10.5229 14.1822 10.5756 14.0477 10.5756 13.9081C10.5756 13.7684 10.5229 13.6339 10.4278 13.5311C10.3328 13.4283 10.2023 13.3646 10.0623 13.3528H4.74073Z" fill="#093F68"/>
<path d="M4.43402 17.5784C4.32817 17.578 4.22675 17.5362 4.1516 17.4622C3.68823 17.0368 3.41029 16.4484 3.37696 15.8224C3.37643 15.6441 3.41131 15.4675 3.4796 15.3026C3.5479 15.1377 3.64826 14.9879 3.77494 14.8616C3.90163 14.7354 4.05214 14.6352 4.21785 14.5669C4.38357 14.4985 4.56122 14.4633 4.74065 14.4633H10.0623C10.4116 14.4822 10.7404 14.6334 10.981 14.8858C11.2216 15.1383 11.3557 15.4727 11.3557 15.8204C11.3557 16.1681 11.2216 16.5026 10.981 16.755C10.7404 17.0074 10.4116 17.1586 10.0623 17.1775H6.95967C6.85266 17.1775 6.75004 17.1353 6.67438 17.0601C6.59872 16.9849 6.55621 16.8829 6.55621 16.7766C6.55621 16.6703 6.59872 16.5683 6.67438 16.4931C6.75004 16.4179 6.85266 16.3757 6.95967 16.3757H10.0623C10.2023 16.3639 10.3327 16.3002 10.4277 16.1974C10.5228 16.0946 10.5755 15.96 10.5755 15.8204C10.5755 15.6808 10.5228 15.5463 10.4277 15.4434C10.3327 15.3406 10.2023 15.277 10.0623 15.2651H4.74065C4.66719 15.2651 4.59446 15.2796 4.52664 15.3076C4.45883 15.3357 4.39727 15.3768 4.34551 15.4286C4.29376 15.4804 4.25283 15.5419 4.22509 15.6095C4.19735 15.6771 4.18334 15.7494 4.18388 15.8224C4.22343 16.2329 4.41459 16.6142 4.72047 16.8929C4.79562 16.968 4.8378 17.0696 4.8378 17.1755C4.8378 17.2814 4.79562 17.383 4.72047 17.4582C4.68311 17.496 4.63855 17.5262 4.58938 17.5468C4.54021 17.5675 4.4874 17.5782 4.43402 17.5784Z" fill="#093F68"/>
<path d="M52.3322 71.0246H24.6671L20.7293 53.1357C20.6689 52.8625 20.671 52.5794 20.7355 52.3071C20.7999 52.0349 20.925 51.7805 21.1016 51.5627C21.2782 51.3449 21.5017 51.1693 21.7557 51.0488C22.0097 50.9283 22.2877 50.866 22.5691 50.8665H54.4423C54.7234 50.8666 55.0009 50.9293 55.2544 51.0501C55.5079 51.1708 55.7309 51.3465 55.9071 51.5642C56.0832 51.782 56.208 52.0361 56.2722 52.3081C56.3364 52.5801 56.3384 52.8629 56.278 53.1357L52.3322 71.0246Z" fill="#9A99A2"/>
<path d="M52.3326 71.4255H24.6674C24.5736 71.4275 24.482 71.397 24.4084 71.3392C24.3347 71.2814 24.2837 71.1999 24.264 71.1087L20.3262 53.2199C20.2532 52.8882 20.256 52.5444 20.3344 52.2139C20.4128 51.8834 20.5649 51.5746 20.7794 51.3103C20.9939 51.046 21.2654 50.8329 21.5738 50.6867C21.8822 50.5405 22.2197 50.4649 22.5614 50.4656H54.4346C54.776 50.4655 55.113 50.5415 55.4209 50.688C55.7288 50.8344 55.9997 51.0476 56.2138 51.3119C56.4278 51.5761 56.5796 51.8847 56.6578 52.2149C56.736 52.5451 56.7387 52.8885 56.6657 53.2199L52.728 71.1087C52.7085 71.1986 52.6587 71.279 52.5867 71.3367C52.5147 71.3943 52.425 71.4257 52.3326 71.4255V71.4255ZM24.9902 70.6236H52.0219L55.8911 53.0515C55.9388 52.8369 55.9374 52.6143 55.887 52.4003C55.8366 52.1863 55.7384 51.9862 55.5998 51.815C55.4611 51.6437 55.2855 51.5056 55.0859 51.4108C54.8863 51.316 54.6679 51.267 54.4467 51.2674H22.5735C22.3521 51.2663 22.1332 51.3148 21.9332 51.4093C21.7333 51.5039 21.5573 51.642 21.4185 51.8135C21.2797 51.9849 21.1816 52.1853 21.1315 52.3996C21.0814 52.614 21.0806 52.8368 21.1291 53.0515L24.9902 70.6236Z" fill="#093F68"/>
<path d="M52.6268 71.0246H24.5381V73.8791H52.6268V71.0246Z" fill="#9A99A2"/>
<path d="M52.627 74.28H24.5382C24.4312 74.28 24.3286 74.2378 24.2529 74.1626C24.1773 74.0874 24.1348 73.9854 24.1348 73.8791V71.0246C24.1348 70.9182 24.1773 70.8163 24.2529 70.7411C24.3286 70.6659 24.4312 70.6237 24.5382 70.6237H52.627C52.734 70.6237 52.8366 70.6659 52.9123 70.7411C52.9879 70.8163 53.0304 70.9182 53.0304 71.0246V73.8791C53.0304 73.9854 52.9879 74.0874 52.9123 74.1626C52.8366 74.2378 52.734 74.28 52.627 74.28ZM24.9417 73.4782H52.2235V71.4255H24.9417V73.4782Z" fill="#093F68"/>
<path d="M36.3076 43.173H40.7457V45.6987C40.7457 46.1942 40.5476 46.6694 40.195 47.0198C39.8424 47.3702 39.3642 47.567 38.8655 47.567H38.1958C37.6972 47.567 37.219 47.3702 36.8664 47.0198C36.5138 46.6694 36.3157 46.1942 36.3157 45.6987V43.173H36.3076Z" fill="#FFC9B0"/>
<path d="M38.8615 47.9759H38.1918C37.5858 47.9749 37.0049 47.7349 36.5768 47.3087C36.1487 46.8825 35.9082 46.3049 35.9082 45.7027V43.1729C35.9082 43.0666 35.9507 42.9646 36.0264 42.8895C36.102 42.8143 36.2047 42.772 36.3117 42.772H40.7497C40.8567 42.772 40.9593 42.8143 41.035 42.8895C41.1107 42.9646 41.1532 43.0666 41.1532 43.1729V45.6987C41.1537 45.9979 41.0948 46.2943 40.9798 46.5708C40.8648 46.8473 40.696 47.0986 40.4831 47.3101C40.2702 47.5217 40.0174 47.6894 39.7391 47.8037C39.4608 47.9179 39.1626 47.9764 38.8615 47.9759ZM36.7151 43.5658V45.6987C36.7151 46.0883 36.8706 46.4619 37.1474 46.7377C37.4242 47.0135 37.7998 47.169 38.1918 47.1701H38.8615C39.2532 47.168 39.6282 47.0121 39.9047 46.7366C40.1813 46.461 40.3371 46.0879 40.3382 45.6987V43.5739L36.7151 43.5658Z" fill="#093F68"/>
<path d="M23.9613 31.7147C22.3474 30.6684 22.1901 28.1346 21.8996 26.3826C20.9021 20.389 21.5158 14.2399 23.6788 8.55785C23.8285 10.3301 24.1846 12.0791 24.7399 13.7698C24.0662 11.7251 26.5232 8.15693 27.4189 6.48912C28.6293 4.21593 29.8397 2.50402 31.8892 0.800127L34.4229 6.56931C35.6205 4.66646 36.4943 2.58046 37.0091 0.395203C36.876 0.960494 43.7186 6.68557 43.9203 6.65751C44.2673 6.61341 44.7273 4.25201 44.691 3.41009C47.5152 6.46908 50.5774 10.0934 50.1255 14.2348C51.1242 13.1542 51.8076 11.8236 52.1025 10.386C53.9896 14.927 54.5977 19.8927 53.8616 24.7508C53.6114 26.4146 53.2765 29.9627 51.9411 31.1655C50.6984 32.276 47.8621 31.4702 46.3371 31.5183L32.6639 31.9433C30.2996 32.0154 26.8016 32.8052 24.5342 31.9874C24.3335 31.9182 24.1413 31.8267 23.9613 31.7147Z" fill="#725858"/>
<path d="M27.1604 32.7652C26.2269 32.7888 25.2962 32.6532 24.4088 32.3642C24.1788 32.282 23.9594 32.173 23.7552 32.0395C22.1979 31.0292 21.8791 28.8723 21.6209 27.1403C21.5846 26.8957 21.5523 26.6632 21.512 26.4387C20.4969 20.3723 21.1192 14.1469 23.3154 8.39748C23.3481 8.31282 23.4086 8.24165 23.4872 8.19558C23.5658 8.14951 23.6578 8.13127 23.7481 8.14383C23.8385 8.15639 23.9219 8.19901 23.9847 8.26474C24.0475 8.33047 24.0861 8.41542 24.0941 8.50573C24.1678 9.45944 24.3026 10.4075 24.4976 11.3442C25.0208 9.91077 25.6971 8.53715 26.5149 7.24685C26.7287 6.87801 26.9183 6.54525 27.0716 6.26862C28.1748 4.04123 29.7298 2.06472 31.6388 0.463358C31.6895 0.424076 31.7489 0.397397 31.812 0.385542C31.8752 0.373687 31.9403 0.376999 32.0019 0.395203C32.0622 0.409747 32.1184 0.437935 32.166 0.477572C32.2136 0.517209 32.2513 0.567224 32.2762 0.623725L34.5074 5.69531C35.4753 4.01256 36.1915 2.19878 36.6336 0.311011V0.311011C36.6455 0.259662 36.6674 0.211145 36.6982 0.168236C36.729 0.125327 36.768 0.0888664 36.8129 0.0609401C36.8579 0.0330138 36.908 0.0141687 36.9603 0.00548351C37.0126 -0.00320168 37.0661 -0.00155622 37.1177 0.010324C37.2008 0.0295223 37.2757 0.0744009 37.3315 0.138511C37.3873 0.202622 37.4212 0.282664 37.4284 0.367139C37.8319 1.10482 42.5281 5.17813 43.8353 6.12429C44.1119 5.25095 44.2707 4.34499 44.3074 3.43014C44.3052 3.34881 44.3279 3.26874 44.3726 3.20056C44.4173 3.13239 44.4818 3.07933 44.5575 3.04844C44.6332 3.01755 44.7166 3.01029 44.7966 3.02763C44.8766 3.04496 44.9494 3.08607 45.0054 3.14549C47.644 5.98397 50.4077 9.28752 50.5852 13.0441C51.1407 12.2164 51.5286 11.289 51.727 10.3139C51.7438 10.2297 51.7874 10.1531 51.8513 10.0953C51.9152 10.0376 51.9961 10.0018 52.082 9.99313C52.1666 9.98656 52.2511 10.0067 52.3235 10.0506C52.396 10.0945 52.4526 10.1599 52.4855 10.2377C54.4094 14.8435 55.0275 19.8849 54.2728 24.815C54.2445 25.0074 54.2123 25.2159 54.18 25.4645C53.9137 27.3969 53.5143 30.3196 52.2232 31.4782C51.2065 32.3883 49.4474 32.2039 47.8941 32.0395C47.3872 31.9723 46.8764 31.9374 46.365 31.9353L32.6878 32.3602C32.0221 32.3602 31.2555 32.4605 30.4486 32.5447C29.3569 32.6728 28.2595 32.7464 27.1604 32.7652V32.7652ZM23.501 10.3139C21.8117 15.4861 21.3966 20.9857 22.2907 26.3505C22.327 26.575 22.3633 26.8156 22.3996 27.0641C22.6336 28.6397 22.9201 30.5962 24.1748 31.4101C24.3282 31.5077 24.4919 31.5883 24.663 31.6506C26.1881 32.1999 28.395 31.9713 30.3437 31.7709C31.1506 31.6827 31.9575 31.6025 32.6394 31.5824L46.3166 31.1575C46.8657 31.1577 47.4143 31.1939 47.9587 31.2657C49.2739 31.406 50.912 31.5784 51.6624 30.9049C52.7356 29.9507 53.127 27.0882 53.361 25.3843C53.3932 25.1437 53.4255 24.9192 53.4538 24.7268C54.1348 20.3298 53.6951 15.8333 52.1748 11.6489C51.7914 12.7089 51.1988 13.6821 50.4319 14.5115C50.3741 14.5734 50.2982 14.6157 50.2149 14.6322C50.1316 14.6488 50.0451 14.6388 49.9679 14.6037C49.8919 14.5691 49.8286 14.512 49.7867 14.4402C49.7448 14.3684 49.7263 14.2854 49.7339 14.2027C50.1373 10.5504 47.6157 7.23082 45.0134 4.36026C44.8843 5.41868 44.61 6.99027 43.9806 7.06644C43.3512 7.14262 37.9731 2.1873 37.1863 1.3574C36.6452 3.274 35.83 5.10347 34.7656 6.78981C34.7268 6.85182 34.6718 6.90214 34.6064 6.93535C34.541 6.96855 34.4677 6.98338 34.3944 6.97824C34.3212 6.97257 34.251 6.94717 34.1913 6.90478C34.1316 6.8624 34.0846 6.80463 34.0555 6.73769L31.7275 1.45362C30.0914 2.92932 28.7489 4.69728 27.7696 6.66553C27.6163 6.95018 27.4186 7.29096 27.1967 7.66782C26.176 9.42784 24.6186 12.0979 25.1431 13.6254C25.1718 13.7252 25.1604 13.8321 25.1114 13.9237C25.0624 14.0153 24.9795 14.0844 24.8803 14.1166C24.7811 14.1488 24.6731 14.1415 24.5792 14.0962C24.4852 14.051 24.4126 13.9713 24.3765 13.874C23.9866 12.7083 23.6898 11.5139 23.4889 10.3018L23.501 10.3139Z" fill="#093F68"/>
<path d="M27.0158 35.4192C29.3934 35.4192 31.3207 33.7697 31.3207 31.7348C31.3207 29.7 29.3934 28.0504 27.0158 28.0504C24.6383 28.0504 22.7109 29.7 22.7109 31.7348C22.7109 33.7697 24.6383 35.4192 27.0158 35.4192Z" fill="#FFC9B0"/>
<path d="M27.016 35.8241C24.4177 35.8241 22.3076 33.9879 22.3076 31.7348C22.3076 29.4816 24.4177 27.6575 27.016 27.6575C29.6142 27.6575 31.7203 29.4897 31.7203 31.7428C31.7203 33.996 29.6102 35.8241 27.016 35.8241ZM27.016 28.4513C24.8655 28.4513 23.1145 29.9267 23.1145 31.7348C23.1145 33.5429 24.8655 35.0223 27.016 35.0223C29.1664 35.0223 30.9134 33.5469 30.9134 31.7348C30.9134 29.9226 29.1785 28.4593 27.016 28.4593V28.4513Z" fill="#093F68"/>
<path d="M50.0285 35.4192C52.4061 35.4192 54.3334 33.7697 54.3334 31.7348C54.3334 29.7 52.4061 28.0504 50.0285 28.0504C47.651 28.0504 45.7236 29.7 45.7236 31.7348C45.7236 33.7697 47.651 35.4192 50.0285 35.4192Z" fill="#FFC9B0"/>
<path d="M50.0287 35.8241C47.4304 35.8241 45.3203 33.9879 45.3203 31.7348C45.3203 29.4816 47.4304 27.6575 50.0287 27.6575C52.6269 27.6575 54.733 29.4897 54.733 31.7428C54.733 33.996 52.6229 35.8241 50.0287 35.8241ZM50.0287 28.4513C47.8742 28.4513 46.1272 29.9267 46.1272 31.7348C46.1272 33.5429 47.8742 35.0223 50.0287 35.0223C52.1831 35.0223 53.9261 33.5469 53.9261 31.7348C53.9261 29.9226 52.1751 28.4593 50.0287 28.4593V28.4513Z" fill="#093F68"/>
<path d="M32.5109 30.1672C33.1749 30.1672 33.7132 29.6323 33.7132 28.9725C33.7132 28.3127 33.1749 27.7778 32.5109 27.7778C31.8469 27.7778 31.3086 28.3127 31.3086 28.9725C31.3086 29.6323 31.8469 30.1672 32.5109 30.1672Z" fill="#093F68"/>
<path d="M44.9093 30.1672C45.5734 30.1672 46.1116 29.6323 46.1116 28.9725C46.1116 28.3127 45.5734 27.7778 44.9093 27.7778C44.2453 27.7778 43.707 28.3127 43.707 28.9725C43.707 29.6323 44.2453 30.1672 44.9093 30.1672Z" fill="#093F68"/>
<path d="M43.2543 34.7377C43.2184 35.9617 42.7038 37.1236 41.8198 37.9767C40.9358 38.8298 39.752 39.3071 38.5197 39.3071C37.2874 39.3071 36.1037 38.8298 35.2197 37.9767C34.3357 37.1236 33.8211 35.9617 33.7852 34.7377H43.2543Z" fill="#F5F8FA"/>
<path d="M38.5219 39.8413C37.1597 39.8402 35.8535 39.3023 34.8899 38.3455C33.9263 37.3888 33.384 36.0913 33.3818 34.7376C33.3818 34.6313 33.4243 34.5293 33.5 34.4542C33.5757 34.379 33.6783 34.3367 33.7853 34.3367H43.2545C43.3615 34.3367 43.4641 34.379 43.5397 34.4542C43.6154 34.5293 43.6579 34.6313 43.6579 34.7376C43.6568 36.0909 43.1154 37.3884 42.1524 38.3453C41.1895 39.3022 39.8837 39.8402 38.5219 39.8413V39.8413ZM34.2049 35.1386C34.3037 36.2079 34.801 37.2019 35.5993 37.9257C36.3976 38.6494 37.4393 39.0506 38.5199 39.0506C39.6005 39.0506 40.6421 38.6494 41.4404 37.9257C42.2387 37.2019 42.736 36.2079 42.8349 35.1386H34.2049Z" fill="#093F68"/>
<path d="M38.4576 33.3866C38.0643 33.3865 37.6716 33.3543 37.2835 33.2904C37.179 33.2718 37.086 33.2129 37.0248 33.1266C36.9636 33.0403 36.9391 32.9334 36.9567 32.8293C36.9655 32.7771 36.9846 32.7271 37.013 32.6823C37.0413 32.6374 37.0783 32.5986 37.1218 32.568C37.1653 32.5375 37.2145 32.5158 37.2665 32.5042C37.3185 32.4926 37.3723 32.4914 37.4248 32.5006C38.0035 32.6002 38.5945 32.6083 39.1758 32.5246C39.2282 32.1598 38.7723 30.921 38.1631 29.7383C38.1163 29.6445 38.1083 29.5362 38.1407 29.4366C38.1732 29.337 38.2436 29.2539 38.3369 29.2053C38.4302 29.1566 38.5389 29.146 38.6399 29.176C38.7408 29.2059 38.826 29.2739 38.8772 29.3654C39.3008 30.1672 40.249 32.1277 39.898 32.9015C39.859 32.9992 39.7974 33.0864 39.7182 33.156C39.639 33.2257 39.5444 33.2758 39.4421 33.3024C39.1184 33.3688 38.7879 33.3971 38.4576 33.3866Z" fill="#093F68"/>
<path d="M29.2508 25.4484C29.1448 25.4539 29.0388 25.4387 28.9388 25.4035C28.8387 25.3683 28.7467 25.3139 28.6678 25.2433C28.5085 25.1009 28.4127 24.9013 28.4015 24.6887C28.3903 24.476 28.4645 24.2676 28.6079 24.1094C28.7513 23.9511 28.9521 23.8559 29.1661 23.8448L34.8669 23.2474C35.0809 23.2251 35.2951 23.2881 35.4623 23.4227C35.6295 23.5573 35.7361 23.7524 35.7586 23.965C35.781 24.1777 35.7176 24.3905 35.5821 24.5567C35.4467 24.7228 35.2504 24.8287 35.0364 24.8511L29.3355 25.4444L29.2508 25.4484Z" fill="#093F68"/>
<path d="M48.8189 25.9776C48.7679 25.9835 48.7165 25.9835 48.6656 25.9776L43.0171 24.9192C42.8069 24.8793 42.6212 24.7581 42.5009 24.5821C42.3806 24.4062 42.3355 24.19 42.3756 23.981C42.4158 23.7721 42.5378 23.5875 42.7148 23.468C42.8919 23.3485 43.1095 23.3037 43.3197 23.3436L48.9681 24.402C49.1822 24.4217 49.3795 24.525 49.5169 24.6893C49.6542 24.8536 49.7202 25.0653 49.7004 25.278C49.6806 25.4906 49.5766 25.6868 49.4113 25.8232C49.246 25.9597 49.0329 26.0253 48.8189 26.0056V25.9776Z" fill="#093F68"/>
<path d="M38.5225 43.1729C35.3715 43.1719 32.35 41.9276 30.1219 39.7136C27.8939 37.4996 26.6417 34.497 26.6406 31.366V19.563C29.6643 17.1505 33.2894 15.5973 37.1305 15.0687C47.7375 18.9937 50.4003 19.563 50.4003 19.563V31.366C50.4003 34.4967 49.149 37.4992 46.9216 39.7133C44.6942 41.9275 41.673 43.1719 38.5225 43.1729Z" fill="#FFC9B0"/>
<path d="M38.5226 43.5738C35.2653 43.5706 32.1424 42.2834 29.8391 39.9947C27.5359 37.706 26.2405 34.6027 26.2373 31.3659V19.563C26.2374 19.507 26.2493 19.4517 26.2723 19.4006C26.2952 19.3495 26.3286 19.3038 26.3704 19.2663C26.5359 19.1179 30.4898 15.63 37.0782 14.6718C37.1444 14.6548 37.2138 14.6548 37.28 14.6718C47.7013 18.5326 50.4569 19.146 50.4851 19.15C50.5769 19.1696 50.6589 19.2203 50.7171 19.2935C50.7753 19.3667 50.806 19.4577 50.8039 19.5509V31.3539C50.8039 34.592 49.5105 37.6978 47.2078 39.989C44.905 42.2802 41.7813 43.5696 38.5226 43.5738V43.5738ZM27.0442 19.7474V31.3739C27.0156 32.8895 27.2913 34.3956 27.8552 35.8041C28.4191 37.2126 29.2599 38.4952 30.3284 39.5771C31.3969 40.659 32.6717 41.5184 34.0783 42.105C35.4849 42.6917 36.9951 42.9938 38.5206 42.9938C40.0461 42.9938 41.5562 42.6917 42.9628 42.105C44.3694 41.5184 45.6442 40.659 46.7128 39.5771C47.7813 38.4952 48.622 37.2126 49.1859 35.8041C49.7498 34.3956 50.0256 32.8895 49.997 31.3739V19.8757C49.0367 19.6271 45.7082 18.6729 37.0863 15.4656C33.4238 16.01 29.9648 17.4849 27.0442 19.7474V19.7474Z" fill="#093F68"/>
<path d="M34.786 28.4593H30.239C29.6144 28.4583 29.0157 28.2113 28.5741 27.7724C28.1325 27.3336 27.8839 26.7386 27.8828 26.118V24.2618C27.8839 23.6411 28.1325 23.0462 28.5741 22.6073C29.0157 22.1685 29.6144 21.9215 30.239 21.9204H34.786C35.4102 21.9215 36.0085 22.1686 36.4495 22.6076C36.8905 23.0466 37.1381 23.6415 37.1381 24.2618V26.118C37.1381 26.7383 36.8905 27.3332 36.4495 27.7722C36.0085 28.2111 35.4102 28.4583 34.786 28.4593V28.4593ZM30.239 22.7222C29.8281 22.7222 29.434 22.8844 29.1435 23.1732C28.853 23.4619 28.6897 23.8535 28.6897 24.2618V26.118C28.6897 26.5263 28.853 26.9179 29.1435 27.2066C29.434 27.4953 29.8281 27.6575 30.239 27.6575H34.786C35.1962 27.6565 35.5892 27.4938 35.8789 27.2052C36.1686 26.9166 36.3312 26.5256 36.3312 26.118V24.2618C36.3312 23.8541 36.1686 23.4632 35.8789 23.1746C35.5892 22.886 35.1962 22.7233 34.786 22.7222H30.239Z" fill="#093F68"/>
<path d="M46.8661 28.4593H42.3191C41.6945 28.4583 41.0958 28.2113 40.6542 27.7724C40.2125 27.3336 39.964 26.7386 39.9629 26.118V24.2618C39.964 23.6411 40.2125 23.0462 40.6542 22.6073C41.0958 22.1685 41.6945 21.9215 42.3191 21.9204H46.8661C47.4903 21.9215 48.0885 22.1686 48.5295 22.6076C48.9705 23.0466 49.2182 23.6415 49.2182 24.2618V26.118C49.2182 26.7383 48.9705 27.3332 48.5295 27.7722C48.0885 28.2111 47.4903 28.4583 46.8661 28.4593V28.4593ZM42.3191 22.7222C41.9082 22.7222 41.5141 22.8844 41.2236 23.1732C40.933 23.4619 40.7698 23.8535 40.7698 24.2618V26.118C40.7698 26.5263 40.933 26.9179 41.2236 27.2066C41.5141 27.4953 41.9082 27.6575 42.3191 27.6575H46.8661C47.2763 27.6565 47.6693 27.4938 47.959 27.2052C48.2486 26.9166 48.4113 26.5256 48.4113 26.118V24.2618C48.4113 23.8541 48.2486 23.4632 47.959 23.1746C47.6693 22.886 47.2763 22.7233 46.8661 22.7222H42.3191Z" fill="#093F68"/>
<path d="M40.3656 25.1197C40.2746 25.1192 40.1865 25.0881 40.1155 25.0315C38.8446 24.0412 37.2711 25.0315 37.2025 25.0555C37.1578 25.0837 37.1078 25.1028 37.0556 25.1118C37.0034 25.1208 36.9499 25.1195 36.8982 25.108C36.8465 25.0965 36.7976 25.0749 36.7543 25.0446C36.711 25.0142 36.6741 24.9757 36.6458 24.9312C36.5898 24.8417 36.5715 24.7339 36.5949 24.6311C36.6183 24.5283 36.6815 24.4388 36.7708 24.382C36.8556 24.3259 38.893 23.059 40.6158 24.382C40.6575 24.4148 40.6923 24.4555 40.7182 24.5017C40.7441 24.5479 40.7605 24.5987 40.7665 24.6513C40.7725 24.7038 40.7679 24.757 40.7532 24.8078C40.7384 24.8586 40.7136 24.906 40.6803 24.9473C40.6449 24.9982 40.598 25.0403 40.5434 25.0702C40.4888 25.1001 40.4279 25.1171 40.3656 25.1197Z" fill="#093F68"/>
<path d="M25.2241 28.4594C25.1438 28.459 25.0655 28.4349 24.999 28.3901C24.9326 28.3453 24.8812 28.2818 24.8513 28.2077C24.8214 28.1337 24.8144 28.0524 24.8312 27.9744C24.8481 27.8964 24.8879 27.8252 24.9457 27.7698L28.008 24.8912C28.087 24.8271 28.1874 24.795 28.2892 24.8015C28.391 24.8081 28.4865 24.8526 28.5566 24.9263C28.6266 25 28.666 25.0973 28.6668 25.1986C28.6675 25.3 28.6296 25.3978 28.5607 25.4725L25.4985 28.3511C25.4241 28.4203 25.326 28.459 25.2241 28.4594Z" fill="#093F68"/>
<path d="M51.937 28.4593C51.8337 28.4599 51.734 28.4212 51.6586 28.351L48.5964 25.4724C48.5535 25.4376 48.5182 25.3943 48.4929 25.3454C48.4675 25.2964 48.4526 25.2427 48.4491 25.1878C48.4455 25.1328 48.4534 25.0777 48.4722 25.0259C48.491 24.9741 48.5204 24.9267 48.5584 24.8867C48.5965 24.8467 48.6425 24.8148 48.6934 24.7932C48.7444 24.7716 48.7993 24.7607 48.8547 24.7611C48.9102 24.7615 48.9649 24.7733 49.0156 24.7957C49.0662 24.818 49.1117 24.8505 49.1491 24.8911L52.2114 27.7697C52.2865 27.8448 52.3287 27.9464 52.3287 28.0523C52.3287 28.1583 52.2865 28.2599 52.2114 28.335C52.1395 28.4101 52.0412 28.4546 51.937 28.4593Z" fill="#093F68"/>
<path d="M39.4054 32.3001C39.0494 32.2994 38.6952 32.2509 38.3524 32.1558C38.2547 32.1224 38.1736 32.053 38.1259 31.9619C38.0782 31.8708 38.0674 31.765 38.0959 31.6663C38.1243 31.5676 38.1898 31.4835 38.2788 31.4314C38.3678 31.3792 38.4736 31.363 38.5743 31.386C38.6469 31.386 40.3939 31.8792 40.7771 30.7406C41.0878 29.8064 39.3529 27.6976 38.1869 26.5871C38.1485 26.5507 38.1177 26.5072 38.0962 26.4591C38.0747 26.4109 38.063 26.359 38.0616 26.3063C38.0603 26.2536 38.0695 26.2012 38.0886 26.1521C38.1076 26.1029 38.1363 26.0579 38.1728 26.0198C38.2094 25.9816 38.2531 25.951 38.3016 25.9296C38.3501 25.9082 38.4023 25.8966 38.4553 25.8953C38.5084 25.894 38.5611 25.903 38.6106 25.922C38.6601 25.941 38.7053 25.9694 38.7437 26.0057C39.0907 26.3345 42.1166 29.2772 41.5397 30.9931C41.2008 32.0115 40.2527 32.3001 39.4054 32.3001Z" fill="#093F68"/>
<path d="M32.9063 25.9455C33.4321 25.9455 33.8584 25.5219 33.8584 24.9994C33.8584 24.4768 33.4321 24.0532 32.9063 24.0532C32.3804 24.0532 31.9541 24.4768 31.9541 24.9994C31.9541 25.5219 32.3804 25.9455 32.9063 25.9455Z" fill="#093F68"/>
<path d="M44.9092 25.9455C45.4351 25.9455 45.8614 25.5219 45.8614 24.9994C45.8614 24.4768 45.4351 24.0532 44.9092 24.0532C44.3833 24.0532 43.957 24.4768 43.957 24.9994C43.957 25.5219 44.3833 25.9455 44.9092 25.9455Z" fill="#093F68"/>
<path d="M29.2545 21.6758C29.0848 21.6753 28.9195 21.6216 28.7823 21.5224C28.6451 21.4231 28.5429 21.2834 28.4901 21.1231C28.4374 20.9628 28.4369 20.7901 28.4886 20.6295C28.5404 20.4689 28.6418 20.3286 28.7784 20.2285C28.9236 20.1243 32.4095 17.6787 35.8631 19.543C36.0515 19.644 36.1917 19.8152 36.253 20.0189C36.3143 20.2227 36.2916 20.4423 36.1899 20.6294C36.0883 20.8166 35.916 20.9559 35.7109 21.0168C35.5059 21.0777 35.2849 21.0552 35.0965 20.9542C32.5225 19.571 29.7507 21.5075 29.7225 21.5275C29.5858 21.6241 29.4222 21.6759 29.2545 21.6758V21.6758Z" fill="#093F68"/>
<path d="M47.0108 21.6798C46.8426 21.6788 46.679 21.6255 46.5428 21.5275C46.4944 21.4954 43.7186 19.575 41.1687 20.9542C41.0755 21.0042 40.9732 21.0355 40.8678 21.0462C40.7624 21.057 40.6559 21.047 40.5544 21.0168C40.4528 20.9867 40.3583 20.9369 40.2761 20.8705C40.1939 20.804 40.1257 20.7221 40.0754 20.6294C40.025 20.5368 39.9935 20.4352 39.9827 20.3304C39.9719 20.2257 39.982 20.1198 40.0123 20.0189C40.0427 19.9181 40.0927 19.8241 40.1596 19.7424C40.2265 19.6608 40.3089 19.593 40.4022 19.543C43.8759 17.6787 47.3416 20.1243 47.4869 20.2285C47.6252 20.328 47.7282 20.4686 47.781 20.63C47.8338 20.7913 47.8338 20.9652 47.7809 21.1265C47.728 21.2879 47.6249 21.4283 47.4865 21.5278C47.3481 21.6272 47.1816 21.6805 47.0108 21.6798Z" fill="#093F68"/>
<path d="M41.6445 33.9919H36.7344C36.7344 33.9919 37.3597 41.4129 39.1914 40.8075C41.0231 40.2021 41.6445 33.9919 41.6445 33.9919Z" fill="#093F68"/>
<path d="M38.978 41.2325C38.7681 41.2313 38.5632 41.1686 38.389 41.052C36.9164 40.0899 36.4201 35.0383 36.3354 34.028C36.3307 33.9728 36.3376 33.9172 36.3557 33.8647C36.3738 33.8123 36.4026 33.7641 36.4403 33.7233C36.4776 33.6823 36.523 33.6493 36.5736 33.6266C36.6243 33.6038 36.6792 33.5917 36.7348 33.591H41.6449C41.7012 33.5911 41.7569 33.603 41.8083 33.6258C41.8597 33.6485 41.9057 33.6818 41.9435 33.7233C41.981 33.7649 42.0094 33.8139 42.0267 33.8671C42.0441 33.9202 42.0501 33.9764 42.0443 34.032C41.427 40.162 39.668 41.0561 39.321 41.1723C39.2109 41.2114 39.0949 41.2317 38.978 41.2325ZM37.1786 34.3928C37.4005 36.5939 37.9855 39.8373 38.8288 40.3785C38.8604 40.4043 38.8984 40.4213 38.9388 40.4276C38.9792 40.4339 39.0206 40.4295 39.0587 40.4146C40.144 40.0498 40.9106 36.6981 41.193 34.4009L37.1786 34.3928Z" fill="#093F68"/>
<path d="M76.5965 74.28H0.403458C0.296454 74.28 0.193833 74.2378 0.11817 74.1626C0.0425068 74.0874 0 73.9855 0 73.8791C0 73.7728 0.0425068 73.6708 0.11817 73.5956C0.193833 73.5204 0.296454 73.4782 0.403458 73.4782H76.5965C76.7035 73.4782 76.8062 73.5204 76.8818 73.5956C76.9575 73.6708 77 73.7728 77 73.8791C77 73.9855 76.9575 74.0874 76.8818 74.1626C76.8062 74.2378 76.7035 74.28 76.5965 74.28Z" fill="#093F68"/>
<path d="M38.8853 64.5498C40.4539 64.5498 41.7256 63.5967 41.7256 62.4209C41.7256 61.2452 40.4539 60.2921 38.8853 60.2921C37.3166 60.2921 36.0449 61.2452 36.0449 62.4209C36.0449 63.5967 37.3166 64.5498 38.8853 64.5498Z" fill="#093F68"/>
<path d="M38.8849 64.9426C37.0935 64.9426 35.6572 63.808 35.6572 62.4169C35.6572 61.0257 37.1097 59.8871 38.8849 59.8871C40.6601 59.8871 42.1126 61.0217 42.1126 62.4169C42.1126 63.8121 40.6722 64.9426 38.8849 64.9426ZM38.8849 60.6889C37.5414 60.6889 36.4641 61.4627 36.4641 62.4169C36.4641 63.371 37.5575 64.1408 38.8849 64.1408C40.2123 64.1408 41.3056 63.367 41.3056 62.4169C41.3056 61.4667 40.2284 60.6929 38.8849 60.6929V60.6889Z" fill="#093F68"/>
<path d="M38.8853 60.693H38.8168C38.7114 60.6753 38.6174 60.6168 38.5554 60.5304C38.4934 60.444 38.4684 60.3366 38.4859 60.2319C38.5222 60.0274 38.8571 58.2594 40.0998 58.1151C40.1527 58.109 40.2064 58.1134 40.2577 58.1279C40.309 58.1425 40.3569 58.1669 40.3986 58.1999C40.4404 58.2328 40.4752 58.2736 40.5011 58.32C40.5271 58.3663 40.5435 58.4172 40.5496 58.4699C40.5557 58.5225 40.5513 58.5759 40.5367 58.6268C40.522 58.6778 40.4974 58.7254 40.4643 58.7669C40.4311 58.8084 40.39 58.843 40.3434 58.8687C40.2968 58.8945 40.2455 58.9108 40.1926 58.9169C39.6923 58.977 39.3856 59.9232 39.2928 60.3722C39.2739 60.4648 39.2226 60.5478 39.148 60.6065C39.0734 60.6652 38.9804 60.6958 38.8853 60.693Z" fill="#093F68"/>
<path d="M11.0228 62.3727H19.1203V70.4993C19.1203 71.3553 18.7781 72.1762 18.169 72.7814C17.5599 73.3867 16.7338 73.7267 15.8724 73.7267H14.2586C13.3972 73.7267 12.5711 73.3867 11.962 72.7814C11.3529 72.1762 11.0107 71.3553 11.0107 70.4993V62.3727H11.0228Z" fill="#FFBC0E"/>
<path d="M15.8638 74.1276H14.2499C13.2854 74.1266 12.3603 73.7467 11.6763 73.0709C10.9924 72.395 10.605 71.4779 10.5986 70.5194V62.3728C10.5986 62.2664 10.6411 62.1645 10.7168 62.0893C10.7925 62.0141 10.8951 61.9719 11.0021 61.9719H19.0995C19.2065 61.9719 19.3091 62.0141 19.3848 62.0893C19.4605 62.1645 19.503 62.2664 19.503 62.3728V70.4993C19.5008 71.4589 19.1171 72.3787 18.4355 73.0584C17.7538 73.738 16.8294 74.1223 15.8638 74.1276V74.1276ZM11.4257 62.7737V70.4993C11.431 71.2455 11.7331 71.9593 12.2659 72.485C12.7988 73.0107 13.5192 73.3058 14.2701 73.3058H15.8839C16.6352 73.3058 17.3561 73.0109 17.8896 72.4853C18.423 71.9596 18.726 71.2459 18.7324 70.4993V62.7737H11.4257Z" fill="#093F68"/>
<path d="M11.0222 70.1987H10.9374C10.0371 70.1682 9.18399 69.7913 8.55797 69.1477C7.93195 68.504 7.58203 67.6439 7.58203 66.7488C7.58203 65.8536 7.93195 64.9935 8.55797 64.3499C9.18399 63.7062 10.0371 63.3294 10.9374 63.2989H11.0222C11.1292 63.2989 11.2318 63.3411 11.3075 63.4163C11.3831 63.4915 11.4256 63.5935 11.4256 63.6998V69.7977C11.4256 69.9041 11.3831 70.006 11.3075 70.0812C11.2318 70.1564 11.1292 70.1987 11.0222 70.1987ZM10.6187 64.1408C9.97068 64.2164 9.37314 64.5258 8.9395 65.0102C8.50586 65.4947 8.2663 66.1205 8.2663 66.7688C8.2663 67.4172 8.50586 68.043 8.9395 68.5274C9.37314 69.0119 9.97068 69.3212 10.6187 69.3968V64.1408Z" fill="#093F68"/>
<path d="M73.8649 64.5458V56.8923H58.36V64.5458H56.3145V69.2525H58.0816V73.8791H73.5865V69.1763H71.8234V64.5458H73.8649Z" fill="#F5F8FA"/>
<path d="M73.5866 74.28H58.0817C57.9747 74.28 57.8721 74.2377 57.7965 74.1625C57.7208 74.0874 57.6783 73.9854 57.6783 73.8791V69.6534H56.3146C56.2076 69.6534 56.105 69.6112 56.0293 69.536C55.9536 69.4608 55.9111 69.3588 55.9111 69.2525V64.5417C55.9111 64.4354 55.9536 64.3334 56.0293 64.2582C56.105 64.183 56.2076 64.1408 56.3146 64.1408H57.9567V56.8922C57.9567 56.7859 57.9992 56.6839 58.0748 56.6088C58.1505 56.5336 58.2531 56.4913 58.3601 56.4913H73.865C73.972 56.4913 74.0746 56.5336 74.1503 56.6088C74.226 56.6839 74.2685 56.7859 74.2685 56.8922V64.5417C74.2685 64.6481 74.226 64.75 74.1503 64.8252C74.0746 64.9004 73.972 64.9426 73.865 64.9426H72.227V68.7714H73.5866C73.6936 68.7714 73.7963 68.8136 73.8719 68.8888C73.9476 68.964 73.9901 69.066 73.9901 69.1723V73.875C73.9906 73.928 73.9806 73.9806 73.9605 74.0297C73.9405 74.0788 73.9109 74.1235 73.8734 74.1611C73.8358 74.1988 73.7912 74.2287 73.742 74.2491C73.6928 74.2695 73.64 74.28 73.5866 74.28ZM58.4852 73.4781H73.1832V69.5772H71.8235C71.7165 69.5772 71.6139 69.535 71.5382 69.4598C71.4626 69.3846 71.4201 69.2826 71.4201 69.1763V64.5417C71.4201 64.4354 71.4626 64.3334 71.5382 64.2582C71.6139 64.183 71.7165 64.1408 71.8235 64.1408H73.4616V57.2932H58.7636V64.5417C58.7636 64.6481 58.7211 64.75 58.6454 64.8252C58.5698 64.9004 58.4671 64.9426 58.3601 64.9426H56.718V68.8476H58.0817C58.1887 68.8476 58.2914 68.8898 58.367 68.965C58.4427 69.0402 58.4852 69.1422 58.4852 69.2485V73.4781Z" fill="#093F68"/>
<path d="M71.8237 69.5772H62.173C62.066 69.5772 61.9634 69.535 61.8877 69.4598C61.812 69.3846 61.7695 69.2826 61.7695 69.1763C61.7695 69.07 61.812 68.968 61.8877 68.8928C61.9634 68.8176 62.066 68.7754 62.173 68.7754H71.8237C71.9307 68.7754 72.0333 68.8176 72.109 68.8928C72.1847 68.968 72.2272 69.07 72.2272 69.1763C72.2272 69.2826 72.1847 69.3846 72.109 69.4598C72.0333 69.535 71.9307 69.5772 71.8237 69.5772Z" fill="#093F68"/>
<path d="M63.8758 64.9426H58.3605C58.2535 64.9426 58.1509 64.9004 58.0752 64.8252C57.9995 64.75 57.957 64.6481 57.957 64.5417C57.957 64.4354 57.9995 64.3334 58.0752 64.2582C58.1509 64.183 58.2535 64.1408 58.3605 64.1408H63.8758C63.9828 64.1408 64.0854 64.183 64.161 64.2582C64.2367 64.3334 64.2792 64.4354 64.2792 64.5417C64.2792 64.6481 64.2367 64.75 64.161 64.8252C64.0854 64.9004 63.9828 64.9426 63.8758 64.9426Z" fill="#093F68"/>
<path d="M71.8232 64.9426H67.6232C67.5162 64.9426 67.4136 64.9004 67.3379 64.8252C67.2622 64.75 67.2197 64.6481 67.2197 64.5417C67.2197 64.4354 67.2622 64.3334 67.3379 64.2582C67.4136 64.183 67.5162 64.1408 67.6232 64.1408H71.8232C71.9302 64.1408 72.0328 64.183 72.1085 64.2582C72.1841 64.3334 72.2266 64.4354 72.2266 64.5417C72.2266 64.6481 72.1841 64.75 72.1085 64.8252C72.0328 64.9004 71.9302 64.9426 71.8232 64.9426Z" fill="#093F68"/>
<path d="M73.8649 61.7874H60.6476C60.5406 61.7874 60.438 61.7452 60.3623 61.67C60.2866 61.5948 60.2441 61.4928 60.2441 61.3865C60.2441 61.2802 60.2866 61.1782 60.3623 61.103C60.438 61.0278 60.5406 60.9856 60.6476 60.9856H73.873C73.98 60.9856 74.0826 61.0278 74.1583 61.103C74.2339 61.1782 74.2764 61.2802 74.2764 61.3865C74.2764 61.4928 74.2339 61.5948 74.1583 61.67C74.0826 61.7452 73.98 61.7874 73.873 61.7874H73.8649Z" fill="#093F68"/>
<path d="M68.8175 59.418H58.5939C58.4869 59.418 58.3843 59.3758 58.3086 59.3006C58.2329 59.2254 58.1904 59.1235 58.1904 59.0171C58.1904 58.9108 58.2329 58.8088 58.3086 58.7336C58.3843 58.6584 58.4869 58.6162 58.5939 58.6162H68.8175C68.9245 58.6162 69.0271 58.6584 69.1028 58.7336C69.1785 58.8088 69.221 58.9108 69.221 59.0171C69.221 59.1235 69.1785 59.2254 69.1028 59.3006C69.0271 59.3758 68.9245 59.418 68.8175 59.418Z" fill="#093F68"/>
<path d="M68.4187 66.7548H56.8878C56.7808 66.7548 56.6782 66.7125 56.6026 66.6373C56.5269 66.5622 56.4844 66.4602 56.4844 66.3539C56.4844 66.2475 56.5269 66.1456 56.6026 66.0704C56.6782 65.9952 56.7808 65.9529 56.8878 65.9529H68.4187C68.5257 65.9529 68.6283 65.9952 68.704 66.0704C68.7796 66.1456 68.8221 66.2475 68.8221 66.3539C68.8221 66.4602 68.7796 66.5622 68.704 66.6373C68.6283 66.7125 68.5257 66.7548 68.4187 66.7548Z" fill="#093F68"/>
<path d="M70.3513 71.4255H58.0822C57.9752 71.4255 57.8725 71.3833 57.7969 71.3081C57.7212 71.2329 57.6787 71.1309 57.6787 71.0246C57.6787 70.9182 57.7212 70.8163 57.7969 70.7411C57.8725 70.6659 57.9752 70.6237 58.0822 70.6237H70.3513C70.4583 70.6237 70.561 70.6659 70.6366 70.7411C70.7123 70.8163 70.7548 70.9182 70.7548 71.0246C70.7548 71.1309 70.7123 71.2329 70.6366 71.3081C70.561 71.3833 70.4583 71.4255 70.3513 71.4255Z" fill="#093F68"/>
<path d="M8.19838 45.1254C8.09138 45.1254 7.98875 45.0831 7.91309 45.0079C7.83743 44.9328 7.79492 44.8308 7.79492 44.7245V43.2932C7.79492 43.1869 7.83743 43.0849 7.91309 43.0097C7.98875 42.9345 8.09138 42.8923 8.19838 42.8923C8.30538 42.8923 8.40801 42.9345 8.48367 43.0097C8.55933 43.0849 8.60184 43.1869 8.60184 43.2932V44.7204C8.60237 44.7734 8.59233 44.826 8.57229 44.8751C8.55225 44.9242 8.52262 44.9689 8.4851 45.0065C8.44759 45.0442 8.40293 45.0741 8.35372 45.0945C8.3045 45.1149 8.2517 45.1254 8.19838 45.1254Z" fill="#DFEAEF"/>
<path d="M8.19838 48.2205C8.09138 48.2205 7.98875 48.1783 7.91309 48.1031C7.83743 48.0279 7.79492 47.9259 7.79492 47.8196V46.3963C7.79492 46.29 7.83743 46.188 7.91309 46.1128C7.98875 46.0377 8.09138 45.9954 8.19838 45.9954C8.30538 45.9954 8.40801 46.0377 8.48367 46.1128C8.55933 46.188 8.60184 46.29 8.60184 46.3963V47.8196C8.60184 47.9259 8.55933 48.0279 8.48367 48.1031C8.40801 48.1783 8.30538 48.2205 8.19838 48.2205Z" fill="#DFEAEF"/>
<path d="M10.4775 45.9593H9.04115C8.93415 45.9593 8.83153 45.9171 8.75587 45.8419C8.68021 45.7667 8.6377 45.6647 8.6377 45.5584C8.6377 45.4521 8.68021 45.3501 8.75587 45.2749C8.83153 45.1997 8.93415 45.1575 9.04115 45.1575H10.4775C10.5845 45.1575 10.6871 45.1997 10.7628 45.2749C10.8384 45.3501 10.8809 45.4521 10.8809 45.5584C10.8809 45.6647 10.8384 45.7667 10.7628 45.8419C10.6871 45.9171 10.5845 45.9593 10.4775 45.9593Z" fill="#DFEAEF"/>
<path d="M7.35917 45.9593H5.9269C5.81989 45.9593 5.71727 45.9171 5.64161 45.8419C5.56594 45.7667 5.52344 45.6647 5.52344 45.5584C5.52344 45.4521 5.56594 45.3501 5.64161 45.2749C5.71727 45.1997 5.81989 45.1575 5.9269 45.1575H7.35917C7.46617 45.1575 7.5688 45.1997 7.64446 45.2749C7.72012 45.3501 7.76263 45.4521 7.76263 45.5584C7.76263 45.6647 7.72012 45.7667 7.64446 45.8419C7.5688 45.9171 7.46617 45.9593 7.35917 45.9593Z" fill="#DFEAEF"/>
<path d="M66.881 45.9593C66.774 45.9593 66.6714 45.917 66.5957 45.8418C66.52 45.7667 66.4775 45.6647 66.4775 45.5584V44.1351C66.4775 44.0288 66.52 43.9268 66.5957 43.8516C66.6714 43.7764 66.774 43.7342 66.881 43.7342C66.988 43.7342 67.0906 43.7764 67.1663 43.8516C67.2419 43.9268 67.2845 44.0288 67.2845 44.1351V45.5584C67.2845 45.6647 67.2419 45.7667 67.1663 45.8418C67.0906 45.917 66.988 45.9593 66.881 45.9593Z" fill="#DFEAEF"/>
<path d="M66.881 49.0584C66.774 49.0584 66.6714 49.0162 66.5957 48.941C66.52 48.8658 66.4775 48.7638 66.4775 48.6575V47.2342C66.4775 47.1279 66.52 47.0259 66.5957 46.9507C66.6714 46.8756 66.774 46.8333 66.881 46.8333C66.988 46.8333 67.0906 46.8756 67.1663 46.9507C67.2419 47.0259 67.2845 47.1279 67.2845 47.2342V48.6575C67.2845 48.7638 67.2419 48.8658 67.1663 48.941C67.0906 49.0162 66.988 49.0584 66.881 49.0584Z" fill="#DFEAEF"/>
<path d="M69.1611 46.7973H67.7247C67.6177 46.7973 67.5151 46.755 67.4395 46.6798C67.3638 46.6046 67.3213 46.5027 67.3213 46.3963C67.3213 46.29 67.3638 46.188 67.4395 46.1128C67.5151 46.0377 67.6177 45.9954 67.7247 45.9954H69.1611C69.2681 45.9954 69.3707 46.0377 69.4463 46.1128C69.522 46.188 69.5645 46.29 69.5645 46.3963C69.5645 46.5027 69.522 46.6046 69.4463 46.6798C69.3707 46.755 69.2681 46.7973 69.1611 46.7973Z" fill="#DFEAEF"/>
<path d="M66.0419 46.7973H64.6056C64.4986 46.7973 64.396 46.755 64.3203 46.6798C64.2447 46.6046 64.2021 46.5027 64.2021 46.3963C64.2021 46.29 64.2447 46.188 64.3203 46.1128C64.396 46.0377 64.4986 45.9954 64.6056 45.9954H66.0419C66.1489 45.9954 66.2515 46.0377 66.3272 46.1128C66.4029 46.188 66.4454 46.29 66.4454 46.3963C66.4454 46.5027 66.4029 46.6046 66.3272 46.6798C66.2515 46.755 66.1489 46.7973 66.0419 46.7973Z" fill="#DFEAEF"/>
<path d="M70.7345 32.9857C70.6275 32.9857 70.5249 32.9434 70.4492 32.8682C70.3736 32.793 70.3311 32.6911 70.3311 32.5847V31.382C70.3311 31.2757 70.3736 31.1737 70.4492 31.0985C70.5249 31.0233 70.6275 30.9811 70.7345 30.9811C70.8415 30.9811 70.9441 31.0233 71.0198 31.0985C71.0955 31.1737 71.138 31.2757 71.138 31.382V32.5847C71.138 32.6911 71.0955 32.793 71.0198 32.8682C70.9441 32.9434 70.8415 32.9857 70.7345 32.9857Z" fill="#DFEAEF"/>
<path d="M70.7345 35.5956C70.6275 35.5956 70.5249 35.5533 70.4492 35.4782C70.3736 35.403 70.3311 35.301 70.3311 35.1947V33.9919C70.3311 33.8856 70.3736 33.7836 70.4492 33.7084C70.5249 33.6332 70.6275 33.591 70.7345 33.591C70.8415 33.591 70.9441 33.6332 71.0198 33.7084C71.0955 33.7836 71.138 33.8856 71.138 33.9919V35.1947C71.138 35.301 71.0955 35.403 71.0198 35.4782C70.9441 35.5533 70.8415 35.5956 70.7345 35.5956Z" fill="#DFEAEF"/>
<path d="M72.6343 33.6913H71.424C71.317 33.6913 71.2143 33.6491 71.1387 33.5739C71.063 33.4987 71.0205 33.3967 71.0205 33.2904C71.0205 33.1841 71.063 33.0821 71.1387 33.0069C71.2143 32.9317 71.317 32.8895 71.424 32.8895H72.6343C72.7413 32.8895 72.844 32.9317 72.9196 33.0069C72.9953 33.0821 73.0378 33.1841 73.0378 33.2904C73.0378 33.3967 72.9953 33.4987 72.9196 33.5739C72.844 33.6491 72.7413 33.6913 72.6343 33.6913Z" fill="#DFEAEF"/>
<path d="M70.0084 33.6913H68.798C68.691 33.6913 68.5884 33.6491 68.5127 33.5739C68.437 33.4987 68.3945 33.3967 68.3945 33.2904C68.3945 33.1841 68.437 33.0821 68.5127 33.0069C68.5884 32.9317 68.691 32.8895 68.798 32.8895H70.0084C70.1154 32.8895 70.218 32.9317 70.2936 33.0069C70.3693 33.0821 70.4118 33.1841 70.4118 33.2904C70.4118 33.3967 70.3693 33.4987 70.2936 33.5739C70.218 33.6491 70.1154 33.6913 70.0084 33.6913Z" fill="#DFEAEF"/>
</svg>
