<svg width="201" height="231" viewBox="0 0 201 231" fill="none" xmlns="http://www.w3.org/2000/svg">
<rect width="198" height="231" fill="white"/>
<path d="M100.221 190.789H94.7366V206H92.4983V190.789H87.0257V188.938H100.221V190.789ZM108.941 206C108.816 205.75 108.714 205.305 108.636 204.664C107.628 205.711 106.425 206.234 105.026 206.234C103.776 206.234 102.749 205.883 101.944 205.18C101.148 204.469 100.749 203.57 100.749 202.484C100.749 201.164 101.249 200.141 102.249 199.414C103.257 198.68 104.671 198.312 106.491 198.312H108.601V197.316C108.601 196.559 108.374 195.957 107.921 195.512C107.468 195.059 106.8 194.832 105.917 194.832C105.144 194.832 104.495 195.027 103.972 195.418C103.448 195.809 103.187 196.281 103.187 196.836H101.007C101.007 196.203 101.23 195.594 101.675 195.008C102.128 194.414 102.737 193.945 103.503 193.602C104.276 193.258 105.124 193.086 106.046 193.086C107.507 193.086 108.651 193.453 109.48 194.188C110.308 194.914 110.737 195.918 110.769 197.199V203.035C110.769 204.199 110.917 205.125 111.214 205.812V206H108.941ZM105.343 204.348C106.023 204.348 106.667 204.172 107.276 203.82C107.886 203.469 108.327 203.012 108.601 202.449V199.848H106.901C104.245 199.848 102.917 200.625 102.917 202.18C102.917 202.859 103.144 203.391 103.597 203.773C104.05 204.156 104.632 204.348 105.343 204.348ZM121.586 202.637C121.586 202.051 121.363 201.598 120.918 201.277C120.48 200.949 119.711 200.668 118.609 200.434C117.516 200.199 116.645 199.918 115.996 199.59C115.355 199.262 114.879 198.871 114.566 198.418C114.262 197.965 114.109 197.426 114.109 196.801C114.109 195.762 114.547 194.883 115.422 194.164C116.305 193.445 117.43 193.086 118.797 193.086C120.234 193.086 121.398 193.457 122.289 194.199C123.188 194.941 123.637 195.891 123.637 197.047H121.457C121.457 196.453 121.203 195.941 120.695 195.512C120.195 195.082 119.562 194.867 118.797 194.867C118.008 194.867 117.391 195.039 116.945 195.383C116.5 195.727 116.277 196.176 116.277 196.73C116.277 197.254 116.484 197.648 116.898 197.914C117.312 198.18 118.059 198.434 119.137 198.676C120.223 198.918 121.102 199.207 121.773 199.543C122.445 199.879 122.941 200.285 123.262 200.762C123.59 201.23 123.754 201.805 123.754 202.484C123.754 203.617 123.301 204.527 122.395 205.215C121.488 205.895 120.312 206.234 118.867 206.234C117.852 206.234 116.953 206.055 116.172 205.695C115.391 205.336 114.777 204.836 114.332 204.195C113.895 203.547 113.676 202.848 113.676 202.098H115.844C115.883 202.824 116.172 203.402 116.711 203.832C117.258 204.254 117.977 204.465 118.867 204.465C119.688 204.465 120.344 204.301 120.836 203.973C121.336 203.637 121.586 203.191 121.586 202.637ZM130.153 200.129L128.794 201.547V206H126.626V188H128.794V198.887L129.954 197.492L133.903 193.32H136.54L131.606 198.617L137.114 206H134.571L130.153 200.129ZM146.197 202.637C146.197 202.051 145.974 201.598 145.529 201.277C145.092 200.949 144.322 200.668 143.22 200.434C142.127 200.199 141.256 199.918 140.607 199.59C139.967 199.262 139.49 198.871 139.177 198.418C138.873 197.965 138.72 197.426 138.72 196.801C138.72 195.762 139.158 194.883 140.033 194.164C140.916 193.445 142.041 193.086 143.408 193.086C144.845 193.086 146.009 193.457 146.9 194.199C147.799 194.941 148.248 195.891 148.248 197.047H146.068C146.068 196.453 145.814 195.941 145.306 195.512C144.806 195.082 144.174 194.867 143.408 194.867C142.619 194.867 142.002 195.039 141.556 195.383C141.111 195.727 140.888 196.176 140.888 196.73C140.888 197.254 141.095 197.648 141.509 197.914C141.924 198.18 142.67 198.434 143.748 198.676C144.834 198.918 145.713 199.207 146.384 199.543C147.056 199.879 147.552 200.285 147.873 200.762C148.201 201.23 148.365 201.805 148.365 202.484C148.365 203.617 147.912 204.527 147.006 205.215C146.099 205.895 144.924 206.234 143.478 206.234C142.463 206.234 141.564 206.055 140.783 205.695C140.002 205.336 139.388 204.836 138.943 204.195C138.506 203.547 138.287 202.848 138.287 202.098H140.455C140.494 202.824 140.783 203.402 141.322 203.832C141.869 204.254 142.588 204.465 143.478 204.465C144.299 204.465 144.955 204.301 145.447 203.973C145.947 203.637 146.197 203.191 146.197 202.637Z" fill="#1E272E"/>
<path d="M201 159.484H31V159.592H201V159.484Z" fill="#EBEBEB"/>
<path d="M183.966 166.438H172.705V166.546H183.966V166.438Z" fill="#EBEBEB"/>
<path d="M143.615 167.613H140.66V167.721H143.615V167.613Z" fill="#EBEBEB"/>
<path d="M172.365 162.427H165.841V162.535H172.365V162.427Z" fill="#EBEBEB"/>
<path d="M63.5215 163.153H48.8369V163.261H63.5215V163.153Z" fill="#EBEBEB"/>
<path d="M68.703 163.153H66.5508V163.261H68.703V163.153Z" fill="#EBEBEB"/>
<path d="M107.55 164.977H75.6992V165.085H107.55V164.977Z" fill="#EBEBEB"/>
<path d="M111.58 140.211H45.9292C45.4149 140.209 44.922 139.949 44.5586 139.486C44.1953 139.024 43.9912 138.397 43.9912 137.743V20.4459C43.9957 19.796 44.2017 19.1746 44.5646 18.7166C44.9275 18.2586 45.4178 18.0011 45.9292 18H111.58C112.095 18 112.589 18.26 112.953 18.7227C113.317 19.1855 113.521 19.8131 113.521 20.4675V137.743C113.521 138.398 113.317 139.025 112.953 139.488C112.589 139.951 112.095 140.211 111.58 140.211V140.211ZM45.9292 18.0864C45.4375 18.0876 44.9661 18.3367 44.6187 18.779C44.2713 19.2214 44.0762 19.8209 44.0762 20.4459V137.743C44.0762 138.368 44.2713 138.968 44.6187 139.41C44.9661 139.852 45.4375 140.101 45.9292 140.103H111.58C112.072 140.101 112.544 139.853 112.891 139.41C113.239 138.968 113.435 138.369 113.436 137.743V20.4459C113.435 19.8205 113.239 19.221 112.891 18.7788C112.544 18.3365 112.072 18.0876 111.58 18.0864H45.9292Z" fill="#EBEBEB"/>
<path d="M185.126 140.211H119.472C118.957 140.21 118.464 139.949 118.1 139.487C117.736 139.024 117.531 138.397 117.53 137.743V20.4459C117.536 19.7956 117.742 19.1742 118.106 18.7163C118.469 18.2585 118.96 18.0011 119.472 18H185.126C185.636 18.0022 186.126 18.2603 186.488 18.7181C186.85 19.176 187.056 19.7968 187.06 20.4459V137.743C187.06 138.396 186.857 139.022 186.494 139.485C186.131 139.947 185.639 140.208 185.126 140.211V140.211ZM119.472 18.0864C118.98 18.0876 118.508 18.3365 118.16 18.7788C117.812 19.221 117.616 19.8205 117.615 20.4459V137.743C117.616 138.369 117.812 138.968 118.16 139.41C118.508 139.853 118.98 140.101 119.472 140.103H185.126C185.618 140.101 186.089 139.853 186.437 139.41C186.785 138.968 186.981 138.369 186.982 137.743V20.4459C186.981 19.8205 186.785 19.221 186.437 18.7788C186.089 18.3365 185.618 18.0876 185.126 18.0864H119.472Z" fill="#EBEBEB"/>
<path d="M93.22 34.024H61.0322V126.188H93.22V34.024Z" fill="#F5F5F5"/>
<path d="M92.0059 124.459V35.7524H62.2457V124.459H92.0059Z" fill="#FAFAFA"/>
<path d="M77.4676 35.3074H76.7842V125.323H77.4676V35.3074Z" fill="#F5F5F5"/>
<path d="M93.9617 32.8225H60.2881V37.1612H93.9617V32.8225Z" fill="#F5F5F5"/>
<path d="M93.9617 37.641H60.2881V38.1552H93.9617V37.641Z" fill="#F5F5F5"/>
<path d="M93.9617 38.8077H60.2881V39.322H93.9617V38.8077Z" fill="#F5F5F5"/>
<path d="M93.9617 39.9745H60.2881V40.4887H93.9617V39.9745Z" fill="#F5F5F5"/>
<path d="M93.9617 41.1414H60.2881V41.6556H93.9617V41.1414Z" fill="#F5F5F5"/>
<path d="M93.9617 42.3081H60.2881V42.8224H93.9617V42.3081Z" fill="#F5F5F5"/>
<path d="M93.9617 43.4749H60.2881V43.9891H93.9617V43.4749Z" fill="#F5F5F5"/>
<path d="M93.9617 44.6416H60.2881V45.1559H93.9617V44.6416Z" fill="#F5F5F5"/>
<path d="M93.9617 45.8085H60.2881V46.3227H93.9617V45.8085Z" fill="#F5F5F5"/>
<path d="M93.9617 46.9753H60.2881V47.4896H93.9617V46.9753Z" fill="#F5F5F5"/>
<path d="M93.9617 48.1422H60.2881V48.6565H93.9617V48.1422Z" fill="#F5F5F5"/>
<path d="M93.9617 49.309H60.2881V49.8232H93.9617V49.309Z" fill="#F5F5F5"/>
<path d="M93.9617 50.4758H60.2881V50.9901H93.9617V50.4758Z" fill="#F5F5F5"/>
<path d="M93.9617 51.6426H60.2881V52.1568H93.9617V51.6426Z" fill="#F5F5F5"/>
<path d="M93.9617 52.8093H60.2881V53.3236H93.9617V52.8093Z" fill="#F5F5F5"/>
<path d="M93.9617 53.9762H60.2881V54.4905H93.9617V53.9762Z" fill="#F5F5F5"/>
<path d="M93.9617 55.1429H60.2881V55.6572H93.9617V55.1429Z" fill="#F5F5F5"/>
<path d="M93.9617 56.3097H60.2881V56.8239H93.9617V56.3097Z" fill="#F5F5F5"/>
<path d="M93.9617 57.4764H60.2881V57.9907H93.9617V57.4764Z" fill="#F5F5F5"/>
<path d="M131.33 34.024H99.1426V126.188H131.33V34.024Z" fill="#F5F5F5"/>
<path d="M130.117 124.455V35.7483H100.357V124.455H130.117Z" fill="#FAFAFA"/>
<path d="M115.578 35.3074H114.895V125.323H115.578V35.3074Z" fill="#F5F5F5"/>
<path d="M132.072 32.8225H98.3984V37.1612H132.072V32.8225Z" fill="#F5F5F5"/>
<path d="M132.072 37.641H98.3984V38.1552H132.072V37.641Z" fill="#F5F5F5"/>
<path d="M132.072 38.8077H98.3984V39.322H132.072V38.8077Z" fill="#F5F5F5"/>
<path d="M132.072 39.9745H98.3984V40.4887H132.072V39.9745Z" fill="#F5F5F5"/>
<path d="M132.072 41.1414H98.3984V41.6556H132.072V41.1414Z" fill="#F5F5F5"/>
<path d="M132.072 42.3081H98.3984V42.8224H132.072V42.3081Z" fill="#F5F5F5"/>
<path d="M132.072 43.4749H98.3984V43.9891H132.072V43.4749Z" fill="#F5F5F5"/>
<path d="M132.072 44.6416H98.3984V45.1559H132.072V44.6416Z" fill="#F5F5F5"/>
<path d="M132.072 45.8085H98.3984V46.3227H132.072V45.8085Z" fill="#F5F5F5"/>
<path d="M132.072 46.9753H98.3984V47.4896H132.072V46.9753Z" fill="#F5F5F5"/>
<path d="M132.072 48.1422H98.3984V48.6565H132.072V48.1422Z" fill="#F5F5F5"/>
<path d="M132.072 49.309H98.3984V49.8232H132.072V49.309Z" fill="#F5F5F5"/>
<path d="M132.072 50.4758H98.3984V50.9901H132.072V50.4758Z" fill="#F5F5F5"/>
<path d="M132.072 51.6426H98.3984V52.1568H132.072V51.6426Z" fill="#F5F5F5"/>
<path d="M132.072 52.8093H98.3984V53.3236H132.072V52.8093Z" fill="#F5F5F5"/>
<path d="M132.072 53.9762H98.3984V54.4905H132.072V53.9762Z" fill="#F5F5F5"/>
<path d="M132.072 55.1429H98.3984V55.6572H132.072V55.1429Z" fill="#F5F5F5"/>
<path d="M132.072 56.3097H98.3984V56.8239H132.072V56.3097Z" fill="#F5F5F5"/>
<path d="M132.072 57.4764H98.3984V57.9907H132.072V57.4764Z" fill="#F5F5F5"/>
<path d="M169.438 34.024H137.25V126.188H169.438V34.024Z" fill="#F5F5F5"/>
<path d="M168.224 124.459V35.7524H138.463V124.459H168.224Z" fill="#FAFAFA"/>
<path d="M153.685 35.3074H153.002V125.323H153.685V35.3074Z" fill="#F5F5F5"/>
<path d="M170.183 32.8225H136.51V37.1612H170.183V32.8225Z" fill="#F5F5F5"/>
<path d="M170.183 37.641H136.51V38.1552H170.183V37.641Z" fill="#F5F5F5"/>
<path d="M170.183 38.8077H136.51V39.322H170.183V38.8077Z" fill="#F5F5F5"/>
<path d="M170.183 39.9745H136.51V40.4887H170.183V39.9745Z" fill="#F5F5F5"/>
<path d="M170.183 41.1414H136.51V41.6556H170.183V41.1414Z" fill="#F5F5F5"/>
<path d="M170.183 42.3081H136.51V42.8224H170.183V42.3081Z" fill="#F5F5F5"/>
<path d="M170.183 43.4749H136.51V43.9891H170.183V43.4749Z" fill="#F5F5F5"/>
<path d="M170.183 44.6416H136.51V45.1559H170.183V44.6416Z" fill="#F5F5F5"/>
<path d="M170.183 45.8085H136.51V46.3227H170.183V45.8085Z" fill="#F5F5F5"/>
<path d="M170.183 46.9753H136.51V47.4896H170.183V46.9753Z" fill="#F5F5F5"/>
<path d="M170.183 48.1422H136.51V48.6565H170.183V48.1422Z" fill="#F5F5F5"/>
<path d="M170.183 49.309H136.51V49.8232H170.183V49.309Z" fill="#F5F5F5"/>
<path d="M170.183 50.4758H136.51V50.9901H170.183V50.4758Z" fill="#F5F5F5"/>
<path d="M170.183 51.6426H136.51V52.1568H170.183V51.6426Z" fill="#F5F5F5"/>
<path d="M170.183 52.8093H136.51V53.3236H170.183V52.8093Z" fill="#F5F5F5"/>
<path d="M170.183 53.9762H136.51V54.4905H170.183V53.9762Z" fill="#F5F5F5"/>
<path d="M170.183 55.1429H136.51V55.6572H170.183V55.1429Z" fill="#F5F5F5"/>
<path d="M170.183 56.3097H136.51V56.8239H170.183V56.3097Z" fill="#F5F5F5"/>
<path d="M170.183 57.4764H136.51V57.9907H170.183V57.4764Z" fill="#F5F5F5"/>
<path d="M143.829 116.322H184.68C184.68 117.239 184.401 118.121 183.902 118.783C183.403 119.446 182.722 119.838 182.001 119.878C177.612 120.129 170.859 121.015 168.717 124.1C164.725 129.856 165.11 150.072 169.894 154.752C171.393 156.222 175.762 159.134 175.762 159.134H152.744C152.744 159.134 156.824 156.161 158.249 154.752C163.009 150.033 163.141 129.831 159.129 124.1C157.072 121.162 150.741 120.211 146.495 119.913C145.773 119.861 145.095 119.46 144.599 118.792C144.104 118.124 143.828 117.24 143.829 116.322V116.322Z" fill="#F5F5F5"/>
<path d="M179.617 120.068C175.466 120.501 170.495 121.533 168.714 124.1C168.131 124.986 167.671 125.992 167.354 127.073H160.503C160.183 125.993 159.724 124.988 159.143 124.1C157.354 121.546 152.343 120.496 148.263 120.068H179.617Z" fill="#E6E6E6"/>
<path d="M161.227 116.348L161.785 108.275H153.733L153.176 116.348H161.227Z" fill="#EBEBEB"/>
<path d="M161.227 116.348L161.784 108.275H162.216L161.662 116.348H161.227Z" fill="#E0E0E0"/>
<path d="M160.465 115.527L160.907 109.101H154.495L154.053 115.527H160.465Z" fill="#F0F0F0"/>
<path d="M159.973 114.995L160.344 109.628H154.989L154.618 114.995H159.973Z" fill="#FAFAFA"/>
<path d="M163.842 116.322H171.931L171.033 103.284H162.944L163.842 116.322Z" fill="#E6E6E6"/>
<path d="M163.841 116.322H163.453L162.556 103.284H162.943L163.841 116.322Z" fill="#E0E0E0"/>
<path d="M164.573 114.991H171.013L170.299 104.615H163.859L164.573 114.991Z" fill="#F0F0F0"/>
<path d="M165.045 114.139H170.423L169.825 105.466H164.446L165.045 114.139Z" fill="#FAFAFA"/>
<path d="M167.761 109.368C167.675 109.479 167.571 109.567 167.458 109.627C167.344 109.688 167.223 109.718 167.1 109.718C166.977 109.718 166.855 109.688 166.742 109.627C166.628 109.567 166.525 109.479 166.439 109.368C166.351 109.258 166.282 109.127 166.235 108.983C166.187 108.839 166.163 108.684 166.163 108.528C166.163 108.372 166.187 108.217 166.235 108.073C166.282 107.928 166.351 107.797 166.439 107.687V107.687C166.525 107.576 166.628 107.488 166.742 107.428C166.855 107.368 166.977 107.337 167.1 107.337C167.223 107.337 167.344 107.368 167.458 107.428C167.571 107.488 167.675 107.576 167.761 107.687V107.687C167.936 107.911 168.034 108.213 168.034 108.528C168.034 108.843 167.936 109.145 167.761 109.368V109.368Z" fill="#EBEBEB"/>
<path d="M167.364 110.825C167.427 110.743 167.502 110.678 167.585 110.634C167.669 110.59 167.758 110.567 167.848 110.567C167.938 110.567 168.027 110.59 168.111 110.634C168.194 110.678 168.269 110.743 168.333 110.825C168.431 110.945 168.498 111.1 168.526 111.27C168.554 111.44 168.541 111.617 168.489 111.777C168.437 111.937 168.348 112.074 168.234 112.169C168.12 112.265 167.986 112.314 167.85 112.311C167.713 112.315 167.578 112.266 167.464 112.171C167.349 112.076 167.26 111.94 167.207 111.779C167.155 111.618 167.142 111.441 167.17 111.271C167.197 111.101 167.265 110.945 167.364 110.825V110.825Z" fill="#F0F0F0"/>
<path d="M87.5967 156.468H95.4745L91.3299 113.599C91.2311 112.703 90.8853 111.881 90.3543 111.279C89.8232 110.677 89.1412 110.333 88.4297 110.31H54.0557L59.0945 156.468H87.5967Z" fill="#F5F5F5"/>
<path d="M62.6208 156.468H54.7328L50.5916 113.599C50.5407 113.187 50.5616 112.766 50.6529 112.365C50.7443 111.964 50.9037 111.594 51.1201 111.28C51.3364 110.967 51.6043 110.717 51.9049 110.55C52.2054 110.382 52.5313 110.3 52.8594 110.311H55.5794C56.291 110.334 56.9731 110.677 57.5046 111.279C58.0362 111.881 58.3828 112.703 58.483 113.599L62.6208 156.468Z" fill="#F0F0F0"/>
<path d="M65.5135 156.416L64.0855 135.673C64.0533 135.223 63.9009 134.799 63.6535 134.474C63.4062 134.149 63.0787 133.941 62.7255 133.884L62.1441 133.815C61.6717 133.739 61.2341 133.46 60.9043 133.023C60.5745 132.587 60.3724 132.02 60.3319 131.417L60.0701 127.635C60.0436 127.268 60.0776 126.898 60.17 126.549C60.2623 126.199 60.411 125.878 60.6064 125.605C60.8019 125.333 61.0399 125.115 61.3052 124.966C61.5705 124.817 61.8574 124.74 62.1475 124.74H48.9827C48.6935 124.74 48.4076 124.817 48.143 124.965C47.8785 125.114 47.641 125.33 47.4457 125.601C47.2504 125.872 47.1015 126.192 47.0085 126.54C46.9154 126.888 46.8803 127.256 46.9053 127.622L47.1637 131.404C47.2034 132.009 47.4053 132.579 47.7358 133.018C48.0662 133.457 48.5052 133.738 48.9793 133.815L49.5675 133.91C49.9212 133.965 50.2493 134.173 50.4969 134.498C50.7445 134.824 50.8965 135.248 50.9275 135.699L52.3555 156.442C52.4056 157.172 52.6691 157.851 53.0939 158.347C53.5187 158.842 54.0741 159.117 54.6505 159.117H67.8153C67.2342 159.119 66.674 158.842 66.2471 158.341C65.8202 157.84 65.5581 157.153 65.5135 156.416V156.416Z" fill="#E6E6E6"/>
<path d="M101.743 130.492C101.852 128.922 102.419 127.46 103.334 126.396C104.248 125.331 105.443 124.74 106.683 124.74H95.2218C93.981 124.739 92.7851 125.33 91.8705 126.396C90.9558 127.462 90.3888 128.925 90.2816 130.496L89.1494 146.918H100.611L101.743 130.492Z" fill="#E6E6E6"/>
<path d="M111.777 124.74H106.677C105.437 124.74 104.241 125.332 103.327 126.397C102.412 127.463 101.845 128.925 101.737 130.496L100.605 146.917H73.3133L72.1811 130.496C72.0731 128.925 71.5059 127.463 70.5914 126.397C69.6769 125.332 68.4815 124.74 67.2409 124.74H62.1409C61.8517 124.74 61.5658 124.817 61.3012 124.965C61.0367 125.113 60.7992 125.33 60.6039 125.601C60.4086 125.872 60.2597 126.191 60.1667 126.539C60.0736 126.887 60.0385 127.256 60.0635 127.622L60.3253 131.403C60.3639 132.01 60.5659 132.581 60.8973 133.02C61.2287 133.46 61.6691 133.74 62.1443 133.815L62.7325 133.91C63.0857 133.966 63.4132 134.174 63.6606 134.5C63.9079 134.825 64.0603 135.248 64.0925 135.699L65.5171 156.442C65.5672 157.172 65.8307 157.851 66.2555 158.346C66.6803 158.842 67.2357 159.116 67.8121 159.117H106.12C106.696 159.116 107.251 158.841 107.675 158.346C108.099 157.851 108.362 157.171 108.411 156.442L109.839 135.699C109.872 135.248 110.024 134.825 110.271 134.5C110.519 134.174 110.846 133.966 111.199 133.91L111.788 133.815C112.26 133.739 112.698 133.459 113.027 133.023C113.357 132.586 113.559 132.019 113.6 131.416L113.862 127.635C113.888 127.267 113.854 126.896 113.761 126.546C113.668 126.196 113.519 125.875 113.323 125.602C113.127 125.329 112.888 125.112 112.622 124.964C112.356 124.815 112.068 124.739 111.777 124.74V124.74Z" fill="#F0F0F0"/>
<path d="M116 179C152.408 179 181.922 176.81 181.922 174.108C181.922 171.406 152.408 169.216 116 169.216C79.5917 169.216 50.0771 171.406 50.0771 174.108C50.0771 176.81 79.5917 179 116 179Z" fill="#F5F5F5"/>
<path d="M160.217 55.0953H88.4502C87.6315 55.0953 86.9678 55.9389 86.9678 56.9795V140.82C86.9678 141.861 87.6315 142.704 88.4502 142.704H160.217C161.036 142.704 161.7 141.861 161.7 140.82V56.9795C161.7 55.9389 161.036 55.0953 160.217 55.0953Z" fill="#4ABDAC"/>
<path opacity="0.4" d="M160.217 55.0953H88.4502C87.6315 55.0953 86.9678 55.9389 86.9678 56.9795V140.82C86.9678 141.861 87.6315 142.704 88.4502 142.704H160.217C161.036 142.704 161.7 141.861 161.7 140.82V56.9795C161.7 55.9389 161.036 55.0953 160.217 55.0953Z" fill="white"/>
<path opacity="0.6" d="M87.7803 72.7139V140.431C87.7812 140.757 87.8835 141.07 88.0651 141.301C88.2466 141.531 88.4926 141.661 88.7493 141.663H159.908C160.165 141.661 160.411 141.531 160.592 141.301C160.774 141.07 160.876 140.757 160.877 140.431V72.7139H87.7803Z" fill="white"/>
<path d="M119.499 59.9656H100.856C100.502 59.9656 100.214 60.3312 100.214 60.7823V68.0337C100.214 68.4848 100.502 68.8505 100.856 68.8505H119.499C119.854 68.8505 120.141 68.4848 120.141 68.0337V60.7823C120.141 60.3312 119.854 59.9656 119.499 59.9656Z" fill="#4ABDAC"/>
<path d="M109.343 65.4194H107.5L107.103 66.5386H106.742L108.248 62.3468H108.588L110.095 66.5386H109.727L109.343 65.4194ZM109.217 65.0607L108.425 62.8092L107.633 65.0607H109.217Z" fill="white"/>
<path d="M110.655 62.3468H111.998C113.052 62.3468 113.763 63.2111 113.763 64.4427C113.763 65.6743 113.052 66.5386 111.998 66.5386H110.655V62.3468ZM111.978 66.1583C112.17 66.1908 112.365 66.1708 112.551 66.0996C112.736 66.0283 112.908 65.9076 113.053 65.7453C113.199 65.5831 113.316 65.3831 113.396 65.1589C113.476 64.9346 113.517 64.6911 113.517 64.4449C113.517 64.1986 113.476 63.9552 113.396 63.7309C113.316 63.5066 113.199 63.3066 113.053 63.1444C112.908 62.9822 112.736 62.8614 112.551 62.7902C112.365 62.7189 112.17 62.6989 111.978 62.7314H111.002V66.1583H111.978Z" fill="white"/>
<path d="M114.545 62.3468H115.888C116.945 62.3468 117.656 63.2111 117.656 64.4427C117.656 65.6743 116.945 66.5386 115.888 66.5386H114.545V62.3468ZM115.871 66.1583C116.063 66.1908 116.258 66.1708 116.444 66.0996C116.629 66.0283 116.801 65.9076 116.946 65.7453C117.092 65.5831 117.209 65.3831 117.289 65.1589C117.369 64.9346 117.41 64.6911 117.41 64.4449C117.41 64.1986 117.369 63.9552 117.289 63.7309C117.209 63.5066 117.092 63.3066 116.946 63.1444C116.801 62.9822 116.629 62.8614 116.444 62.7902C116.258 62.7189 116.063 62.6989 115.871 62.7314H114.895V66.1583H115.871Z" fill="white"/>
<path d="M105.011 64.1921H101.979V64.6243H105.011V64.1921Z" fill="white"/>
<path d="M103.665 62.4807H103.325V66.3355H103.665V62.4807Z" fill="white"/>
<path d="M96.9634 60.7651H91.6016V67.5801H96.9634V60.7651Z" fill="white"/>
<path d="M96.96 67.7961H91.6016C91.5568 67.795 91.5141 67.7718 91.4824 67.7316C91.4507 67.6913 91.4325 67.637 91.4316 67.58V60.7824C91.4316 60.7251 91.4495 60.6701 91.4814 60.6296C91.5133 60.5891 91.5566 60.5663 91.6016 60.5663H96.96C97.0051 60.5663 97.0484 60.5891 97.0802 60.6296C97.1121 60.6701 97.13 60.7251 97.13 60.7824V67.5973C97.1266 67.6515 97.1072 67.7022 97.0757 67.739C97.0442 67.7759 97.0029 67.7962 96.96 67.7961ZM91.7682 67.3639H96.79V60.9811H91.7716L91.7682 67.3639Z" fill="#4ABDAC"/>
<path opacity="0.6" d="M154.784 77.1909H100.856C100.502 77.1909 100.214 77.5566 100.214 78.0077V85.2591C100.214 85.7101 100.502 86.0758 100.856 86.0758H154.784C155.139 86.0758 155.426 85.7101 155.426 85.2591V78.0077C155.426 77.5566 155.139 77.1909 154.784 77.1909Z" fill="#4ABDAC"/>
<g opacity="0.6">
<path opacity="0.6" d="M96.9634 78.5133H91.6016V85.3282H96.9634V78.5133Z" fill="white"/>
<path opacity="0.6" d="M96.96 85.54H91.6016C91.5566 85.54 91.5133 85.5173 91.4814 85.4767C91.4495 85.4362 91.4316 85.3812 91.4316 85.3239V78.5004C91.4316 78.4431 91.4495 78.3881 91.4814 78.3476C91.5133 78.3071 91.5566 78.2843 91.6016 78.2843H96.96C97.0051 78.2843 97.0484 78.3071 97.0802 78.3476C97.1121 78.3881 97.13 78.4431 97.13 78.5004V85.311C97.1314 85.3404 97.1281 85.3699 97.1201 85.3977C97.1122 85.4254 97.0999 85.4508 97.084 85.4722C97.0681 85.4937 97.0489 85.5108 97.0275 85.5224C97.0062 85.5341 96.9832 85.5401 96.96 85.54ZM91.7682 85.1079H96.79V78.7294H91.7716L91.7682 85.1079Z" fill="#4ABDAC"/>
</g>
<path d="M103.362 80.5271H102.454V80.2289H104.545V80.5271H103.637V83.5132H103.362V80.5271Z" fill="white"/>
<path d="M106.479 82.636H105.041L104.732 83.5002H104.439L105.623 80.2159H105.891L107.071 83.5002H106.785L106.479 82.636ZM106.381 82.3551L105.762 80.5876L105.119 82.3551H106.381Z" fill="white"/>
<path d="M107.255 83.1157L107.364 82.8478C107.6 83.1094 107.904 83.251 108.217 83.2453C108.7 83.2453 108.897 82.9861 108.897 82.6619C108.897 81.7631 107.306 82.3162 107.306 81.1019C107.306 80.6179 107.602 80.1987 108.258 80.1987C108.542 80.1949 108.82 80.2954 109.06 80.4883L108.965 80.7648C108.754 80.5914 108.509 80.497 108.258 80.4926C107.785 80.4926 107.578 80.7605 107.578 81.0889C107.578 81.9921 109.169 81.4476 109.169 82.6447C109.169 83.1287 108.866 83.5435 108.207 83.5435C107.859 83.5538 107.52 83.4016 107.255 83.1157V83.1157Z" fill="white"/>
<path d="M110.578 81.9575L110.051 82.6359V83.5002H109.775V80.2289H110.051V82.2124L111.581 80.2289H111.897L110.775 81.7155L111.972 83.5132H111.632L110.578 81.9575Z" fill="white"/>
<path d="M113.145 81.8711C113.145 80.8253 113.576 80.1987 114.165 80.1987C114.753 80.1987 115.185 80.8253 115.185 81.8711C115.185 82.9169 114.749 83.5435 114.165 83.5435C113.58 83.5435 113.145 82.9169 113.145 81.8711ZM114.936 81.8711C114.936 81.0068 114.624 80.5099 114.175 80.5099C113.726 80.5099 113.413 80.9939 113.413 81.8711C113.413 82.7484 113.723 83.2324 114.175 83.2324C114.627 83.2324 114.936 82.7484 114.936 81.8711Z" fill="white"/>
<path d="M116.299 80.2289V83.5132H116.034V80.5271H115.422V80.2289H116.299Z" fill="white"/>
<path d="M152.765 83.9928H149.827V79.0707H152.765V83.9928ZM150.167 83.5607H152.425V79.5028H150.167V83.5607Z" fill="white"/>
<path d="M153.331 79.9177L151.583 82.1882L151.826 82.4904L153.574 80.2199L153.331 79.9177Z" fill="white"/>
<path opacity="0.6" d="M154.947 89.412H101.02C100.665 89.412 100.377 89.7777 100.377 90.2287V97.4801C100.377 97.9312 100.665 98.2969 101.02 98.2969H154.947C155.302 98.2969 155.59 97.9312 155.59 97.4801V90.2287C155.59 89.7777 155.302 89.412 154.947 89.412Z" fill="#4ABDAC"/>
<g opacity="0.6">
<path opacity="0.6" d="M97.1294 90.7301H91.7676V97.545H97.1294V90.7301Z" fill="white"/>
<path opacity="0.6" d="M97.1304 97.761H91.7686C91.7235 97.761 91.6803 97.7382 91.6484 97.6977C91.6165 97.6572 91.5986 97.6022 91.5986 97.5449V90.73C91.5986 90.6727 91.6165 90.6177 91.6484 90.5772C91.6803 90.5367 91.7235 90.5139 91.7686 90.5139H97.1304C97.1752 90.515 97.218 90.5381 97.2497 90.5784C97.2814 90.6187 97.2996 90.673 97.3004 90.73V97.5449C97.3004 97.6022 97.2825 97.6572 97.2506 97.6977C97.2188 97.7382 97.1755 97.761 97.1304 97.761ZM91.9386 97.3288H96.9604V90.9461H91.9386V97.3288Z" fill="#4ABDAC"/>
</g>
<path d="M103.362 92.7612H102.454V92.4587H104.545V92.7612H103.637V95.7474H103.362V92.7612Z" fill="white"/>
<path d="M106.479 94.8528H105.041L104.732 95.7171H104.439L105.623 92.4285H105.891L107.071 95.7171H106.785L106.479 94.8528ZM106.381 94.5719L105.762 92.8088L105.119 94.5719H106.381Z" fill="white"/>
<path d="M107.255 95.354L107.364 95.0861C107.599 95.3511 107.903 95.4945 108.217 95.488C108.7 95.488 108.897 95.2287 108.897 94.9046C108.897 94.0014 107.306 94.5589 107.306 93.3403C107.306 92.8562 107.602 92.4414 108.258 92.4414C108.542 92.4376 108.82 92.5381 109.06 92.7309L108.965 93.0075C108.754 92.8341 108.509 92.7397 108.258 92.7353C107.785 92.7353 107.578 93.0032 107.578 93.3316C107.578 94.2348 109.169 93.6903 109.169 94.8873C109.169 95.3713 108.866 95.7819 108.207 95.7819C107.859 95.7942 107.52 95.6418 107.255 95.354V95.354Z" fill="white"/>
<path d="M110.578 94.1871L110.051 94.8699V95.7342H109.775V92.4456H110.051V94.4334L111.567 92.4456H111.883L110.761 93.9365L111.958 95.7342H111.618L110.578 94.1871Z" fill="white"/>
<path d="M113.145 94.0879C113.145 93.0421 113.576 92.4198 114.165 92.4198C114.753 92.4198 115.185 93.0421 115.185 94.0879C115.185 95.1337 114.749 95.7603 114.165 95.7603C113.58 95.7603 113.145 95.138 113.145 94.0879ZM114.936 94.0879C114.936 93.2236 114.624 92.7266 114.175 92.7266C113.726 92.7266 113.413 93.2106 113.413 94.0879C113.413 94.9651 113.723 95.4491 114.175 95.4491C114.627 95.4491 114.936 94.9695 114.936 94.0879Z" fill="white"/>
<path d="M117.36 95.4318V95.7344H115.548V95.4924L116.622 94.157C116.915 93.7897 116.962 93.5693 116.962 93.3446C116.962 92.9643 116.751 92.7266 116.357 92.7266C116.226 92.7161 116.094 92.7437 115.972 92.8074C115.85 92.871 115.741 92.969 115.653 93.0939L115.463 92.8865C115.58 92.7282 115.723 92.6044 115.881 92.5238C116.04 92.4432 116.21 92.4077 116.381 92.4198C116.904 92.4198 117.238 92.7569 117.238 93.2841C117.231 93.4849 117.19 93.6814 117.116 93.8593C117.043 94.0372 116.939 94.1921 116.813 94.3126L115.932 95.4102L117.36 95.4318Z" fill="white"/>
<path d="M152.931 96.2184H150V91.292H152.938L152.931 96.2184ZM150.34 95.7863H152.598V91.7241H150.34V95.7863Z" fill="white"/>
<path d="M153.494 92.1382L151.746 94.4087L151.989 94.7109L153.737 92.4404L153.494 92.1382Z" fill="white"/>
<path opacity="0.6" d="M155.114 101.629H101.187C100.832 101.629 100.544 101.994 100.544 102.446V109.697C100.544 110.148 100.832 110.514 101.187 110.514H155.114C155.469 110.514 155.757 110.148 155.757 109.697V102.446C155.757 101.994 155.469 101.629 155.114 101.629Z" fill="#4ABDAC"/>
<g opacity="0.6">
<path opacity="0.6" d="M97.2964 102.951H91.9346V109.766H97.2964V102.951Z" fill="white"/>
<path opacity="0.6" d="M97.2998 109.982H91.9346C91.8896 109.982 91.8463 109.959 91.8144 109.919C91.7826 109.878 91.7646 109.823 91.7646 109.766V102.951C91.7646 102.894 91.7826 102.839 91.8144 102.798C91.8463 102.758 91.8896 102.735 91.9346 102.735H97.2998C97.3449 102.735 97.3882 102.758 97.4201 102.798C97.4519 102.839 97.4698 102.894 97.4698 102.951V109.766C97.469 109.823 97.4508 109.877 97.4191 109.918C97.3874 109.958 97.3447 109.981 97.2998 109.982V109.982ZM92.108 109.55H97.1298V103.167H92.1046L92.108 109.55Z" fill="#4ABDAC"/>
</g>
<path d="M103.362 104.965H102.454V104.667H104.545V104.965H103.637V107.951H103.362V104.965Z" fill="white"/>
<path d="M106.479 107.074H105.041L104.728 107.938H104.439L105.619 104.654H105.891L107.071 107.938H106.785L106.479 107.074ZM106.381 106.793L105.762 105.025L105.119 106.793H106.381Z" fill="white"/>
<path d="M107.255 107.554L107.364 107.286C107.6 107.547 107.904 107.689 108.217 107.683C108.7 107.683 108.897 107.428 108.897 107.104C108.897 106.201 107.306 106.754 107.306 105.54C107.306 105.056 107.598 104.637 108.258 104.637C108.542 104.632 108.821 104.734 109.06 104.93L108.965 105.207C108.755 105.032 108.509 104.937 108.258 104.935C107.785 104.935 107.578 105.203 107.578 105.531C107.578 106.43 109.169 105.886 109.169 107.083C109.169 107.567 108.866 107.981 108.207 107.981C107.859 107.995 107.519 107.842 107.255 107.554V107.554Z" fill="white"/>
<path d="M110.578 106.408L110.051 107.087V107.951H109.775V104.667H110.051V106.65L111.567 104.667H111.883L110.761 106.153L111.958 107.951H111.618L110.578 106.408Z" fill="white"/>
<path d="M113.145 106.309C113.145 105.263 113.576 104.637 114.165 104.637C114.753 104.637 115.185 105.263 115.185 106.309C115.185 107.355 114.749 107.981 114.165 107.981C113.58 107.981 113.145 107.355 113.145 106.309ZM114.936 106.309C114.936 105.445 114.624 104.948 114.175 104.948C113.726 104.948 113.413 105.432 113.413 106.309C113.413 107.186 113.723 107.67 114.175 107.67C114.627 107.67 114.936 107.186 114.936 106.309Z" fill="white"/>
<path d="M117.261 107.022C117.261 107.571 116.948 107.994 116.323 107.994C115.981 108.006 115.649 107.852 115.395 107.562L115.524 107.294C115.741 107.548 116.028 107.685 116.323 107.674C116.751 107.674 117.003 107.419 117.003 107.013C117.003 106.607 116.785 106.361 116.323 106.361H116.136V106.11L116.853 104.969H115.531V104.671H117.193V104.909L116.462 106.08C116.986 106.11 117.261 106.482 117.261 107.022Z" fill="white"/>
<path d="M153.098 108.431H150.16V103.509H153.098V108.431ZM150.5 107.999H152.758V103.941H150.5V107.999Z" fill="white"/>
<path d="M153.664 104.357L151.916 106.628L152.159 106.93L153.907 104.659L153.664 104.357Z" fill="white"/>
<path opacity="0.6" d="M155.28 113.85H101.353C100.998 113.85 100.71 114.216 100.71 114.667V121.918C100.71 122.369 100.998 122.735 101.353 122.735H155.28C155.635 122.735 155.923 122.369 155.923 121.918V114.667C155.923 114.216 155.635 113.85 155.28 113.85Z" fill="#4ABDAC"/>
<g opacity="0.6">
<path opacity="0.6" d="M97.4624 115.172H92.1006V121.987H97.4624V115.172Z" fill="white"/>
<path opacity="0.6" d="M97.4591 122.199H92.1007C92.0556 122.199 92.0123 122.176 91.9805 122.136C91.9486 122.095 91.9307 122.04 91.9307 121.983V115.172C91.9307 115.115 91.9486 115.06 91.9805 115.019C92.0123 114.979 92.0556 114.956 92.1007 114.956H97.4591C97.5041 114.956 97.5474 114.979 97.5793 115.019C97.6111 115.06 97.6291 115.115 97.6291 115.172V121.983C97.6291 122.04 97.6111 122.095 97.5793 122.136C97.5474 122.176 97.5041 122.199 97.4591 122.199ZM92.2707 121.767H97.2993V115.388H92.2707V121.767Z" fill="#4ABDAC"/>
</g>
<path d="M103.362 117.186H102.454V116.883H104.545V117.186H103.637V120.172H103.362V117.186Z" fill="white"/>
<path d="M106.479 119.295H105.041L104.728 120.159H104.439L105.619 116.87H105.891L107.071 120.159H106.785L106.479 119.295ZM106.381 119.014L105.762 117.246L105.119 119.014H106.381Z" fill="white"/>
<path d="M107.255 119.77L107.364 119.507C107.6 119.768 107.904 119.91 108.217 119.904C108.7 119.904 108.897 119.645 108.897 119.321C108.897 118.422 107.306 118.975 107.306 117.756C107.306 117.277 107.598 116.858 108.258 116.858C108.542 116.854 108.82 116.954 109.06 117.147L108.965 117.424C108.754 117.25 108.509 117.156 108.258 117.151C107.785 117.151 107.578 117.419 107.578 117.748C107.578 118.651 109.169 118.106 109.169 119.303C109.169 119.787 108.866 120.198 108.207 120.198C107.859 120.211 107.519 120.059 107.255 119.77Z" fill="white"/>
<path d="M110.578 118.625L110.051 119.308V120.172H109.775V116.883H110.051V118.871L111.567 116.883H111.883L110.761 118.374L111.958 120.172H111.618L110.578 118.625Z" fill="white"/>
<path d="M113.145 118.53C113.145 117.48 113.576 116.858 114.165 116.858C114.753 116.858 115.185 117.48 115.185 118.53C115.185 119.58 114.749 120.198 114.165 120.198C113.58 120.198 113.145 119.576 113.145 118.53ZM114.936 118.53C114.936 117.666 114.624 117.169 114.175 117.169C113.726 117.169 113.413 117.648 113.413 118.53C113.413 119.412 113.723 119.891 114.175 119.891C114.627 119.891 114.936 119.407 114.936 118.53Z" fill="white"/>
<path d="M117.789 119.308H117.272V120.172H117.02V119.308H115.562V119.066L116.922 116.883H117.217L115.895 119.005H117.02V118.258H117.279V119.018H117.795L117.789 119.308Z" fill="white"/>
<path d="M153.264 120.652H150.34V115.73H153.281L153.264 120.652ZM150.663 120.22H152.924V116.162H150.68L150.663 120.22Z" fill="white"/>
<path d="M153.828 116.58L152.08 118.85L152.323 119.152L154.071 116.882L153.828 116.58Z" fill="white"/>
<path opacity="0.6" d="M155.447 126.071H101.52C101.165 126.071 100.877 126.436 100.877 126.888V134.139C100.877 134.59 101.165 134.956 101.52 134.956H155.447C155.802 134.956 156.09 134.59 156.09 134.139V126.888C156.09 126.436 155.802 126.071 155.447 126.071Z" fill="#4ABDAC"/>
<g opacity="0.6">
<path opacity="0.6" d="M97.6265 127.389H92.2646V134.204H97.6265V127.389Z" fill="white"/>
<path opacity="0.6" d="M97.6401 134.42H92.2647C92.2196 134.42 92.1764 134.397 92.1445 134.357C92.1126 134.316 92.0947 134.261 92.0947 134.204V127.389C92.0956 127.332 92.1138 127.278 92.1455 127.237C92.1772 127.197 92.2199 127.174 92.2647 127.173H97.6401C97.6852 127.173 97.7284 127.196 97.7603 127.236C97.7922 127.277 97.8101 127.332 97.8101 127.389V134.204C97.8101 134.261 97.7922 134.316 97.7603 134.357C97.7284 134.397 97.6852 134.42 97.6401 134.42ZM92.4483 133.988H97.4701V127.605H92.4347L92.4483 133.988Z" fill="#4ABDAC"/>
</g>
<path d="M103.362 129.403H102.454V129.104H104.545V129.403H103.637V132.393H103.362V129.403Z" fill="white"/>
<path d="M106.479 131.512H105.041L104.728 132.376H104.439L105.619 129.087H105.891L107.071 132.376H106.785L106.479 131.512ZM106.381 131.231L105.762 129.468L105.119 131.222L106.381 131.231Z" fill="white"/>
<path d="M107.255 131.991L107.364 131.723C107.599 131.987 107.903 132.13 108.217 132.125C108.7 132.125 108.897 131.866 108.897 131.542C108.897 130.639 107.306 131.192 107.306 129.977C107.306 129.493 107.598 129.079 108.258 129.079C108.542 129.075 108.82 129.175 109.06 129.368L108.965 129.645C108.754 129.471 108.509 129.377 108.258 129.372C107.785 129.372 107.578 129.64 107.578 129.969C107.578 130.872 109.169 130.323 109.169 131.525C109.169 132.004 108.866 132.419 108.207 132.419C107.859 132.432 107.519 132.28 107.255 131.991Z" fill="white"/>
<path d="M110.578 130.846L110.051 131.529V132.393H109.775V129.104H110.051V131.092L111.567 129.104H111.883L110.761 130.591L111.958 132.393H111.618L110.578 130.846Z" fill="white"/>
<path d="M113.145 130.747C113.145 129.701 113.576 129.079 114.165 129.079C114.753 129.079 115.185 129.701 115.185 130.747C115.185 131.792 114.749 132.419 114.165 132.419C113.58 132.419 113.145 131.797 113.145 130.747ZM114.936 130.747C114.936 129.882 114.624 129.385 114.175 129.385C113.726 129.385 113.413 129.869 113.413 130.747C113.413 131.624 113.723 132.108 114.175 132.108C114.627 132.108 114.936 131.624 114.936 130.747Z" fill="white"/>
<path d="M117.36 131.425C117.36 131.983 117.054 132.419 116.422 132.419C116.081 132.431 115.75 132.277 115.497 131.987L115.626 131.719C115.841 131.973 116.125 132.11 116.418 132.099C116.86 132.099 117.098 131.827 117.098 131.43C117.098 131.032 116.891 130.742 116.235 130.742H115.66L115.793 129.096H117.207V129.394H116.024L115.936 130.444H116.276C117.047 130.453 117.36 130.842 117.36 131.425Z" fill="white"/>
<path d="M153.431 132.873H150.49V127.946H153.431V132.873ZM150.83 132.441H153.091V128.379H150.83V132.441Z" fill="white"/>
<path d="M153.991 128.8L152.243 131.071L152.486 131.373L154.234 129.102L153.991 128.8Z" fill="white"/>
<path d="M151.951 60.0305H128.192C126.408 60.0305 124.962 61.8676 124.962 64.1337C124.962 66.3999 126.408 68.237 128.192 68.237H151.951C153.735 68.237 155.181 66.3999 155.181 64.1337C155.181 61.8676 153.735 60.0305 151.951 60.0305Z" fill="white"/>
<path d="M150.751 65.1686C150.563 65.1691 150.377 65.1103 150.211 64.9976C150.044 64.8849 149.902 64.7218 149.797 64.5226C149.692 64.3235 149.628 64.0945 149.609 63.856C149.591 63.6175 149.618 63.3768 149.691 63.1553C149.763 62.9339 149.877 62.7385 150.023 62.5864C150.168 62.4344 150.341 62.3305 150.526 62.2838C150.711 62.2372 150.902 62.2493 151.083 62.3191C151.263 62.3888 151.427 62.5141 151.561 62.6838V62.6838C151.72 62.8875 151.829 63.1467 151.873 63.4289C151.917 63.7111 151.895 64.0035 151.808 64.2693C151.721 64.5351 151.575 64.7623 151.387 64.9224C151.199 65.0825 150.978 65.1681 150.751 65.1686V65.1686ZM150.751 62.6924C150.595 62.6958 150.443 62.7569 150.313 62.8683C150.184 62.9798 150.083 63.1366 150.022 63.3199C149.961 63.5031 149.944 63.7048 149.972 63.9003C150 64.0959 150.073 64.2768 150.18 64.421C150.334 64.6058 150.538 64.7087 150.75 64.7087C150.961 64.7087 151.165 64.6058 151.319 64.421C151.427 64.277 151.499 64.0965 151.527 63.9014C151.555 63.7062 151.538 63.5049 151.478 63.3218C151.418 63.1387 151.317 62.9818 151.188 62.8701C151.059 62.7583 150.907 62.6966 150.751 62.6924V62.6924Z" fill="#4ABDAC"/>
<path d="M152.818 66.5601C152.773 66.56 152.729 66.5367 152.696 66.4953L151.319 64.7408C151.303 64.7214 151.29 64.698 151.281 64.672C151.272 64.646 151.268 64.6179 151.268 64.5896C151.268 64.5612 151.272 64.5332 151.281 64.5071C151.29 64.4811 151.303 64.4577 151.319 64.4383C151.335 64.4181 151.354 64.402 151.374 64.391C151.395 64.38 151.417 64.3744 151.44 64.3744C151.462 64.3744 151.484 64.38 151.505 64.391C151.526 64.402 151.545 64.4181 151.56 64.4383L152.937 66.1669C152.953 66.187 152.966 66.2109 152.975 66.2372C152.983 66.2635 152.988 66.2918 152.988 66.3203C152.988 66.3488 152.983 66.3771 152.975 66.4034C152.966 66.4297 152.953 66.4536 152.937 66.4737C152.923 66.4978 152.906 66.518 152.885 66.5328C152.865 66.5477 152.842 66.557 152.818 66.5601V66.5601Z" fill="#4ABDAC"/>
<path d="M164.26 163.91C164.26 163.91 162.577 159.238 164.501 154.636C166.425 150.033 166.983 148.949 165.756 148.002C164.528 147.056 163.967 151.688 163.967 151.688C163.36 149.598 163.296 147.315 163.787 145.176C164.64 141.844 165.174 136.421 164.008 135.837C162.842 135.254 163.787 142.605 162.774 145.111C162.26 143.351 161.928 141.513 161.784 139.645C161.645 136.97 161.866 132.7 160.945 131.602C160.023 130.505 159.435 131.265 160.339 137.168C160.883 140.696 161.183 144.278 161.237 147.873C161.237 147.873 159.238 140.129 157.898 139.9C156.559 139.67 156.559 142.181 157.704 144.359C158.85 146.537 161.067 150.431 161.444 152.436C161.444 152.436 159.251 146.606 157.276 148.396C155.301 150.185 158.983 153.694 160.625 154.99C162.267 156.286 163.413 164.234 163.413 164.234L164.26 163.91Z" fill="#4ABDAC"/>
<path opacity="0.2" d="M164.26 163.91C164.26 163.91 162.577 159.238 164.501 154.636C166.425 150.033 166.983 148.949 165.756 148.002C164.528 147.056 163.967 151.688 163.967 151.688C163.36 149.598 163.296 147.315 163.787 145.176C164.64 141.844 165.174 136.421 164.008 135.837C162.842 135.254 163.787 142.605 162.774 145.111C162.26 143.351 161.928 141.513 161.784 139.645C161.645 136.97 161.866 132.7 160.945 131.602C160.023 130.505 159.435 131.265 160.339 137.168C160.883 140.696 161.183 144.278 161.237 147.873C161.237 147.873 159.238 140.129 157.898 139.9C156.559 139.67 156.559 142.181 157.704 144.359C158.85 146.537 161.067 150.431 161.444 152.436C161.444 152.436 159.251 146.606 157.276 148.396C155.301 150.185 158.983 153.694 160.625 154.99C162.267 156.286 163.413 164.234 163.413 164.234L164.26 163.91Z" fill="black"/>
<path d="M162.919 165.824C162.919 165.824 164.558 161.122 162.579 156.555C160.601 151.987 160.043 150.915 161.26 149.947C162.477 148.979 163.086 153.599 163.086 153.599C163.674 151.499 163.715 149.214 163.205 147.082C162.318 143.767 161.733 138.353 162.892 137.752C164.052 137.151 163.178 144.511 164.215 147C164.713 145.231 165.029 143.388 165.153 141.516C165.265 138.837 165.007 134.571 165.918 133.456C166.829 132.341 167.424 133.093 166.574 139.014C166.065 142.55 165.799 146.136 165.779 149.731C165.779 149.731 167.703 141.952 169.043 141.697C170.382 141.442 170.403 143.953 169.277 146.153C168.152 148.352 165.996 152.285 165.639 154.299C165.639 154.299 167.778 148.43 169.767 150.176C171.756 151.922 168.098 155.517 166.466 156.818C164.834 158.119 163.766 166.118 163.766 166.118L162.919 165.824Z" fill="#4ABDAC"/>
<path d="M170.495 162.47H156.949L158.044 174.791H169.397L170.495 162.47Z" fill="#263238"/>
<path d="M64.8496 163.948L66.4918 165.176C67.2621 163.858 68.0956 162.603 68.9874 161.416V161.416C69.4634 160.776 69.9632 160.068 70.4834 159.307C71.5238 157.79 72.6492 156.057 73.829 154.195L74.8864 152.514C78.997 145.941 83.4408 138.214 85.0864 132.989C85.6032 131.365 85.8548 129.986 85.7426 128.953C85.4026 125.833 84.4506 121.136 83.3626 116.598C81.7034 109.684 79.8368 103.089 79.8368 103.089L75.2502 112.964C75.2502 112.964 76.6578 117.229 77.9396 121.771C79.201 126.231 80.34 130.963 79.9184 132.194C79.8776 132.315 79.8266 132.458 79.7688 132.626C79.0208 134.61 76.8992 139.152 74.5192 144.186L73.7882 145.712C72.503 148.391 71.1668 151.144 69.9292 153.672C69.4464 154.666 68.9772 155.625 68.5318 156.533C66.4238 160.824 64.8496 163.948 64.8496 163.948Z" fill="#B97964"/>
<path opacity="0.2" d="M74.9787 152.509C72.8095 155.967 70.7253 159.121 69.1749 161.412C68.9539 160.003 68.7295 158.335 68.5527 156.515C70.3445 152.86 72.5375 148.348 74.5299 144.169C74.4877 146.961 74.6378 149.751 74.9787 152.509V152.509Z" fill="black"/>
<path d="M66.794 123.936C67.3618 128.858 68.154 133.318 68.698 135.976C69.0142 137.57 69.2284 138.512 69.2284 138.512C69.2361 143.567 69.4699 148.617 69.9288 153.637C70.1022 155.617 70.2892 157.527 70.483 159.286C71.197 165.828 71.9484 170.521 71.9484 170.521L73.9034 170.197L73.8388 154.191L73.798 145.695L73.7436 134.135L73.7232 132.121L73.628 123.331L73.4886 110.367L66.6886 106.477C65.7672 111.404 66.1072 118.007 66.794 123.936Z" fill="#B97964"/>
<path opacity="0.2" d="M84.9915 124.014C83.2541 125.539 80.9115 126.455 79.3033 126.948C78.9327 125.336 78.4533 123.525 77.9433 121.762C76.6615 117.22 75.2539 112.955 75.2539 112.955L79.8405 103.081C79.8405 103.081 81.7071 109.654 83.3663 116.59C83.9851 119.122 84.5495 121.689 84.9915 124.014Z" fill="black"/>
<path opacity="0.2" d="M73.6773 128.767C71.5643 128.712 69.4547 128.522 67.3568 128.197C67.1596 126.844 66.9658 125.414 66.7958 123.94C66.1158 118.011 65.7758 111.408 66.6802 106.482L73.4802 110.371L73.6195 123.335L73.6773 128.767Z" fill="black"/>
<path d="M85.3186 123.154C81.0652 126.33 68.5566 127.678 68.5566 127.678L66.5166 120.366L66.7376 127.6H66.1324C66.1324 127.6 61.5594 107.938 67.6352 95.0513L78.5152 93.9839L79.7052 101.106C79.7052 101.106 82.7618 111.313 85.3186 123.154Z" fill="#263238"/>
<path d="M77.3423 173.728C77.0217 173.481 76.6677 173.312 76.2985 173.231V173.231C76.2985 173.231 75.0983 172.094 74.1429 168.188L72.7149 167.98C72.4711 167.951 72.2262 168.019 72.0137 168.173C71.8013 168.328 71.6317 168.562 71.5283 168.845C71.4978 168.922 71.4771 169.005 71.4671 169.091C71.4433 169.533 71.4433 169.976 71.4671 170.418C71.5522 171.892 71.7089 173.358 71.9363 174.808L72.1845 174.765L71.9771 171.991C71.9091 171.048 72.5959 172.042 72.8679 173.023C73.1399 174.004 73.6057 175.011 75.2241 174.752C77.1111 174.462 77.8829 174.225 77.3423 173.728Z" fill="#2E353A"/>
<path d="M71.1713 55.5404C71.1713 55.5404 73.8913 53.6217 76.1047 55.0521C77.1247 55.7089 77.4885 57.39 77.7027 58.6994C78.0053 60.5317 78.0427 62.4072 78.2569 64.2568C78.33 65.039 78.5058 65.8 78.7771 66.5083C79.1545 67.446 79.9263 68.3838 79.7733 69.5333C79.6373 70.5488 78.8213 71.1538 78.1107 71.4304C76.2237 72.1694 74.0885 71.7588 72.1403 71.9187C70.5695 72.044 69.0565 72.7139 67.4857 72.783C67.037 72.8319 66.5866 72.718 66.1869 72.4546C64.6739 71.3051 65.3335 68.3492 65.8231 66.707C66.2379 65.3199 65.9319 63.8851 66.0679 62.4288C66.1625 61.1436 66.4006 59.882 66.7751 58.6821C67.5605 56.2923 69.1381 55.0391 71.1713 55.5404Z" fill="#263238"/>
<path d="M73.7485 166.801C73.7485 166.801 74.2585 168.568 74.9385 170.513C75.2507 171.521 75.7124 172.444 76.2985 173.231C76.2985 173.231 75.1187 173.719 74.4795 172.799C73.8403 171.878 72.7523 168.477 71.5283 168.849C71.5954 168.572 71.6878 168.307 71.8037 168.058C71.9839 167.652 73.7485 166.801 73.7485 166.801Z" fill="#B97964"/>
<path d="M65.3635 172.189C65.2921 171.722 65.1562 171.274 64.9623 170.867V170.867C64.9623 170.867 64.8365 168.97 66.5059 165.474L65.6797 163.974C65.5357 163.724 65.3352 163.536 65.105 163.435C64.8747 163.334 64.6257 163.325 64.3911 163.408C64.3263 163.434 64.2645 163.47 64.2075 163.516C63.9322 163.782 63.671 164.071 63.4255 164.381C62.6125 165.441 61.8517 166.564 61.1475 167.743L61.3379 167.95L62.8339 165.91C63.3439 165.223 63.2147 166.537 62.8339 167.444C62.4531 168.352 62.1539 169.463 63.3677 170.845C64.7753 172.457 65.4247 173.036 65.3635 172.189Z" fill="#2E353A"/>
<path d="M67.0608 164.177C67.0608 164.177 66.3604 165.837 65.6804 167.773C65.2922 168.737 65.0544 169.788 64.98 170.867C64.98 170.867 63.909 170.067 64.0416 168.836C64.1742 167.604 65.456 164.316 64.4122 163.408C64.6199 163.289 64.8379 163.2 65.0616 163.145C65.3914 163.067 67.0608 164.177 67.0608 164.177Z" fill="#B97964"/>
<path d="M67.529 93.6383L67.4678 95.7256L78.7116 95.1681L78.783 92.7006L67.529 93.6383Z" fill="#263238"/>
<path opacity="0.2" d="M67.529 93.6383L67.4678 95.7256L78.7116 95.1681L78.783 92.7006L67.529 93.6383Z" fill="white"/>
<path d="M71.3242 92.9405L70.7666 92.9501L70.8048 96.5582L71.3623 96.5486L71.3242 92.9405Z" fill="#263238"/>
<path d="M78.1943 92.3195L77.6367 92.3289L77.6744 95.937L78.2319 95.9276L78.1943 92.3195Z" fill="#263238"/>
<path d="M76.0125 93.0765C75.9463 92.9968 75.8675 92.9359 75.7813 92.8979C75.6951 92.8599 75.6036 92.8457 75.5127 92.8561L74.1833 92.9858C74.0186 93.0011 73.8645 93.0952 73.7522 93.2492C73.6399 93.4031 73.5777 93.6055 73.5781 93.8155V94.8958C73.5772 95.1174 73.6454 95.3305 73.7677 95.4884C73.89 95.6463 74.0566 95.7362 74.2309 95.7385H74.2887L75.6181 95.6046C75.7826 95.5883 75.9362 95.4938 76.0484 95.3401C76.1605 95.1863 76.223 94.9845 76.2233 94.7748V93.6988C76.2242 93.5821 76.2059 93.4665 76.1696 93.3594C76.1333 93.2522 76.0798 93.1559 76.0125 93.0765V93.0765ZM75.5841 95.1681L74.2547 95.3064C74.2108 95.311 74.1665 95.3038 74.1249 95.2852C74.0833 95.2666 74.0453 95.237 74.0133 95.1983C73.9798 95.1606 73.9532 95.114 73.9356 95.0617C73.918 95.0093 73.9097 94.9527 73.9113 94.8958V93.8198C73.9111 93.7182 73.9411 93.6203 73.9954 93.5458C74.0496 93.4712 74.1241 93.4255 74.2037 93.4179L75.5331 93.2839H75.5603C75.64 93.2835 75.7167 93.3222 75.7745 93.392C75.8075 93.4302 75.8337 93.477 75.8513 93.5292C75.8689 93.5814 75.8775 93.6377 75.8765 93.6945V93.8587C75.8586 93.8541 75.8401 93.8541 75.8221 93.8587L75.4515 93.8889C75.3923 93.8956 75.3374 93.9313 75.2987 93.9887C75.2599 94.046 75.2404 94.1203 75.2441 94.1958C75.2459 94.2331 75.2534 94.2696 75.2664 94.3031C75.2793 94.3366 75.2974 94.3666 75.3196 94.3911C75.3417 94.4157 75.3675 94.4343 75.3954 94.4461C75.4234 94.4578 75.4528 94.4623 75.4821 94.4594L75.8561 94.4291H75.8731V94.7835C75.8701 94.8813 75.8391 94.9744 75.7858 95.0452C75.7326 95.1161 75.6609 95.1597 75.5841 95.1681V95.1681Z" fill="white"/>
<path d="M64.4736 75.3629C64.715 76.1451 64.6164 76.4433 64.8136 77.1433C65.0108 77.8434 65.2352 78.5997 65.4188 79.2652C65.854 80.8382 66.1974 82.1994 66.4694 83.4051C67.3092 87.1302 67.452 94.2952 67.452 94.2952L78.7638 93.2883C79.5492 79.9609 77.7438 73.375 77.7438 73.375L77.0026 73.3059C76.139 73.2281 74.66 73.1158 73.3068 73.1287C71.7121 73.1902 70.1221 73.3822 68.5468 73.7035C67.486 73.9066 65.7724 74.2609 64.4736 75.3629Z" fill="#4ABDAC"/>
<path opacity="0.2" d="M75.4955 84.9824C75.4955 84.9824 71.1843 91.4646 67.4443 93.8846C67.3967 92.3116 67.1893 86.5986 66.4719 83.4051C66.2781 82.5408 66.0469 81.603 65.7715 80.5659L65.4961 77.8347C65.4961 77.8347 66.9819 80.8597 67.1961 83.4872C67.1961 83.4872 72.1737 83.055 75.1351 80.8554L75.4955 84.9824Z" fill="black"/>
<path d="M72.9635 75.9636C70.3115 75.3542 69.5635 73.8547 69.5635 73.8547C71.3383 71.9316 70.0735 68.3146 70.0735 68.3146L73.2559 69.2869C73.1596 69.8566 73.0949 70.4342 73.0621 71.0155C72.9397 73.496 73.8203 73.5781 73.8203 73.5781C74.3337 74.9394 72.9635 75.9636 72.9635 75.9636Z" fill="#EEC1BB"/>
<path opacity="0.2" d="M73.2576 69.2869C73.1613 69.8567 73.0966 70.4343 73.0638 71.0155C71.5338 70.4624 70.0752 68.3319 70.0752 68.3319L73.2576 69.2869Z" fill="black"/>
<path d="M73.0236 57.7011C75.815 58.0208 76.58 60.0217 76.5256 63.7036C76.4576 68.3016 75.4308 71.4562 72.0104 70.082C67.3796 68.2152 68.3996 57.1695 73.0236 57.7011Z" fill="#EEC1BB"/>
<path d="M74.7341 63.2975C74.9207 63.8533 75.1593 64.3785 75.4447 64.8618C75.3522 64.9987 75.2321 65.1009 75.0972 65.1572C74.9624 65.2136 74.818 65.222 74.6797 65.1816L74.7341 63.2975Z" fill="#D4827D"/>
<path d="M73.0471 62.8133C73.0471 63.1029 72.8941 63.3319 72.7411 63.3189C72.5881 63.306 72.4759 63.0553 72.4929 62.7658C72.5099 62.4762 72.6425 62.2472 72.7955 62.2602C72.9485 62.2731 73.0607 62.5108 73.0471 62.8133Z" fill="#263238"/>
<path d="M72.7314 62.269L73.2448 62.0615C73.2448 62.0615 72.9694 62.5758 72.7314 62.269Z" fill="#263238"/>
<path d="M75.9065 62.9905C75.9065 63.2844 75.7535 63.5091 75.6005 63.4961C75.4475 63.4832 75.3353 63.2368 75.3523 62.9473C75.3693 62.6578 75.5053 62.4287 75.6583 62.4417C75.8113 62.4547 75.9235 62.701 75.9065 62.9905Z" fill="#263238"/>
<path d="M75.5947 62.4505L76.1047 62.243C76.1047 62.243 75.8293 62.7573 75.5947 62.4505Z" fill="#263238"/>
<path d="M71.9433 60.912C71.9276 60.9123 71.912 60.9086 71.8974 60.9012C71.8828 60.8938 71.8695 60.8828 71.8583 60.8688C71.8469 60.8544 71.8378 60.8372 71.8316 60.8183C71.8254 60.7994 71.8223 60.7791 71.8223 60.7586C71.8223 60.7381 71.8254 60.7179 71.8316 60.699C71.8378 60.68 71.8469 60.6629 71.8583 60.6484C72.0425 60.446 72.2615 60.3014 72.4977 60.2263C72.734 60.1513 72.9808 60.1478 73.2183 60.2163C73.2342 60.2204 73.2493 60.2285 73.2627 60.2401C73.2761 60.2517 73.2876 60.2665 73.2965 60.2838C73.3053 60.3011 73.3114 60.3205 73.3143 60.3408C73.3172 60.3611 73.3169 60.3819 73.3135 60.4021C73.3062 60.4421 73.2867 60.4769 73.2593 60.4988C73.2319 60.5206 73.1988 60.5278 73.1673 60.5188C72.9692 60.4668 72.7644 60.4716 72.568 60.5329C72.3715 60.5942 72.1883 60.7104 72.0317 60.8731C72.02 60.8873 72.0061 60.8981 71.9908 60.9048C71.9756 60.9116 71.9593 60.914 71.9433 60.912V60.912Z" fill="#263238"/>
<path d="M76.325 61.0156C76.2967 61.0147 76.2694 61.0026 76.2468 60.9811C76.1167 60.8261 75.9608 60.7106 75.7906 60.6432C75.6204 60.5759 75.4404 60.5584 75.2642 60.5921C75.2326 60.6014 75.1995 60.595 75.1716 60.574C75.1438 60.5531 75.1233 60.5194 75.1146 60.4798C75.1062 60.4402 75.1104 60.3981 75.1263 60.3625C75.1422 60.3269 75.1686 60.3007 75.1996 60.2896C75.4123 60.2402 75.6311 60.2535 75.8392 60.3284C76.0472 60.4034 76.239 60.5379 76.3998 60.7218C76.4126 60.7344 76.4233 60.7502 76.4313 60.7682C76.4393 60.7862 76.4444 60.806 76.4463 60.8265C76.4482 60.847 76.4469 60.8678 76.4424 60.8877C76.4379 60.9075 76.4303 60.9261 76.4202 60.9422C76.4094 60.9624 76.3954 60.9795 76.3789 60.9922C76.3625 61.0049 76.3441 61.0129 76.325 61.0156Z" fill="#263238"/>
<path d="M69.5489 63.3319C69.5489 63.3319 71.0619 60.5662 71.0211 58.2931C71.0211 58.2931 76.7603 56.0503 76.5257 63.2195C76.5257 63.2195 77.5151 56.9448 72.7245 56.2534C67.9339 55.5619 67.3253 64.49 69.6169 67.433C69.6169 67.433 68.6139 65.0648 69.5489 63.3319Z" fill="#263238"/>
<path d="M69.9538 64.1314C69.9547 63.7175 69.8269 63.32 69.5983 63.0254C69.3697 62.7308 69.0587 62.5629 68.7332 62.5583C67.8594 62.5583 67.2882 64.7925 69.4132 65.5834C69.7056 65.6957 69.9062 65.3284 69.9538 64.1314Z" fill="#EEC1BB"/>
<path d="M74.4282 66.8324C74.0873 66.8527 73.7505 66.73 73.4698 66.4833C73.189 66.2365 72.9799 65.8794 72.8744 65.4668C72.8697 65.4475 72.8681 65.4272 72.8697 65.4071C72.8713 65.3871 72.8761 65.3676 72.8837 65.3499C72.8913 65.3321 72.9016 65.3165 72.914 65.304C72.9264 65.2914 72.9407 65.2821 72.956 65.2767C72.9867 65.2658 73.0194 65.2706 73.0473 65.29C73.0753 65.3094 73.0962 65.3418 73.1056 65.3804C73.2 65.7362 73.3849 66.0419 73.6312 66.2493C73.8774 66.4567 74.171 66.5539 74.4656 66.5256C74.497 66.5231 74.5279 66.5361 74.552 66.5618C74.576 66.5876 74.5914 66.6241 74.5948 66.6638C74.5967 66.7049 74.5862 66.7453 74.5653 66.7767C74.5444 66.8081 74.5148 66.828 74.4826 66.8324H74.4282Z" fill="#263238"/>
<path d="M70.2433 72.139L72.7321 74.5633L73.4699 71.9705L74.6803 73.1675L75.7785 73.5305C75.8672 73.5601 75.9497 73.614 76.0202 73.6886C76.0907 73.7632 76.1474 73.8566 76.1863 73.9622C76.2253 74.0677 76.2455 74.1829 76.2455 74.2995C76.2455 74.4161 76.2254 74.5312 76.1865 74.6368C75.6119 76.2012 74.3301 79.3342 73.2863 79.3904C72.2425 79.4466 68.6963 76.3654 67.1493 74.9825C67.0864 74.9243 67.0382 74.844 67.0105 74.7516C66.9829 74.6591 66.977 74.5584 66.9936 74.4618C67.0102 74.3651 67.0485 74.2767 67.1039 74.2073C67.1593 74.1378 67.2294 74.0904 67.3057 74.0707L69.2675 73.5737L70.2433 72.139Z" fill="#4ABDAC"/>
<path opacity="0.6" d="M70.2433 72.139L72.7321 74.5633L73.4699 71.9705L74.6803 73.1675L75.7785 73.5305C75.8672 73.5601 75.9497 73.614 76.0202 73.6886C76.0907 73.7632 76.1474 73.8566 76.1863 73.9622C76.2253 74.0677 76.2455 74.1829 76.2455 74.2995C76.2455 74.4161 76.2254 74.5312 76.1865 74.6368C75.6119 76.2012 74.3301 79.3342 73.2863 79.3904C72.2425 79.4466 68.6963 76.3654 67.1493 74.9825C67.0864 74.9243 67.0382 74.844 67.0105 74.7516C66.9829 74.6591 66.977 74.5584 66.9936 74.4618C67.0102 74.3651 67.0485 74.2767 67.1039 74.2073C67.1593 74.1378 67.2294 74.0904 67.3057 74.0707L69.2675 73.5737L70.2433 72.139Z" fill="white"/>
<path opacity="0.3" d="M69.2676 73.5696L70.9166 76.5687L72.7322 74.8747L74.49 75.9637L74.6804 73.1504L73.47 71.9534L72.7322 74.5635L70.2434 72.1392L69.2676 73.5696Z" fill="white"/>
<path d="M72.8099 83.0636L73.6395 84.3644L68.1621 86.9097L68.2403 84.6755L72.8099 83.0636Z" fill="#EEC1BB"/>
<path d="M76.1039 62.714C76.0748 62.7133 76.0468 62.6994 76.0249 62.6749C76.0031 62.6503 75.9889 62.6167 75.9849 62.58C75.8319 61.0502 75.3525 59.918 74.5569 59.2006C73.1051 57.9042 71.0685 58.4357 71.0481 58.4401C71.0327 58.4445 71.0167 58.445 71.0012 58.4415C70.9856 58.438 70.9707 58.4306 70.9574 58.4198C70.9441 58.4089 70.9327 58.3948 70.9237 58.3782C70.9148 58.3617 70.9085 58.343 70.9053 58.3234C70.9018 58.3038 70.9014 58.2835 70.9041 58.2637C70.9069 58.2439 70.9127 58.2251 70.9212 58.2082C70.9298 58.1913 70.9409 58.1767 70.9539 58.1653C70.9669 58.1539 70.9816 58.146 70.9971 58.1419C71.0855 58.1419 73.1561 57.5714 74.6929 58.95C75.5463 59.7149 76.0529 60.9249 76.2263 62.5411C76.2292 62.5811 76.2199 62.6209 76.2002 62.6523C76.1806 62.6837 76.1522 62.7043 76.1209 62.7097L76.1039 62.714Z" fill="#263238"/>
<path d="M65.4628 74.7321C63.4228 74.6456 57.8196 85.5962 59.7406 89.4898C61.6616 93.3835 69.6244 87.3291 69.6244 87.3291L68.9444 84.0491C68.9444 84.0491 64.0348 85.298 63.7696 84.6887C63.5044 84.0794 65.4696 80.8945 65.4696 80.8945C65.4696 80.8945 66.3978 80.1598 66.1156 77.8046C65.8334 75.4494 65.4628 74.7321 65.4628 74.7321Z" fill="#4ABDAC"/>
<path d="M69.3148 88.1327L69.954 88.1025L69.5902 83.4872L68.7266 83.4958L69.3148 88.1327Z" fill="#4ABDAC"/>
<path d="M98.6804 68.3059L99.765 69.2523L95.0696 73.6602L94.6514 71.4865L98.6804 68.3059Z" fill="#EEC1BB"/>
<path d="M102.621 66.8885C102.352 66.5038 100.761 65.108 100.421 65.35C100.081 65.592 98.8504 68.1071 98.4696 68.375C98.4254 68.4053 99.1802 70.1468 99.1802 70.1468C99.5204 70.1804 99.8623 70.1673 100.2 70.1079C100.489 70.0085 102.893 67.2644 102.621 66.8885Z" fill="#EEC1BB"/>
<path d="M77.7539 73.3749C83.9249 73.9108 87.8689 74.1658 90.1129 73.1286C92.3569 72.0915 96.4879 69.7406 96.4879 69.7406L97.6745 72.6576C97.6745 72.6576 90.3203 77.5365 89.0079 77.718C87.6955 77.8995 78.2605 79.3861 78.2605 79.3861L77.7539 73.3749Z" fill="#4ABDAC"/>
<path d="M74.0957 85.5787C74.0856 85.628 74.0842 85.6794 74.0915 85.7294C74.0989 85.7794 74.1148 85.8267 74.1382 85.868C74.1616 85.9092 74.1918 85.9434 74.2268 85.9681C74.2618 85.9929 74.3006 86.0074 74.3405 86.0109L77.4277 86.443C77.5137 86.4535 77.5998 86.4244 77.6704 86.3609C77.7409 86.2975 77.7911 86.2039 77.8119 86.0973L79.1719 78.444C79.1824 78.3918 79.1845 78.3373 79.1779 78.284C79.1713 78.2307 79.1563 78.1797 79.1337 78.134C79.1111 78.0883 79.0815 78.0489 79.0465 78.0183C79.0116 77.9876 78.9721 77.9663 78.9305 77.9557L75.8399 77.5236C75.7492 77.5256 75.6617 77.5664 75.5914 77.6393C75.5211 77.7121 75.4721 77.8129 75.4523 77.9255L74.0957 85.5787Z" fill="#263238"/>
<path opacity="0.5" d="M75.7954 77.9213L74.4354 85.648C74.4226 85.6925 74.4182 85.7401 74.4225 85.7871C74.4268 85.8341 74.4397 85.8792 74.4602 85.9187C74.4807 85.9582 74.5082 85.9911 74.5405 86.0146C74.5729 86.0381 74.6091 86.0517 74.6462 86.0542L77.2676 86.4172C77.441 86.4388 77.7742 86.3611 77.8116 86.145L79.1716 78.3923C79.2124 78.1719 78.9268 77.9602 78.75 77.9299L76.132 77.5669C76.0521 77.5663 75.9746 77.6014 75.913 77.6662C75.8515 77.731 75.8098 77.8213 75.7954 77.9213Z" fill="white"/>
<path d="M76.9001 83.1199C76.7267 82.6489 75.5095 80.7431 75.1321 80.8555C74.7547 80.9678 73.0139 82.9384 72.5889 83.0551C72.6593 83.7134 72.7557 84.3668 72.8779 85.0127C73.1953 85.1653 73.5247 85.2739 73.8605 85.3368C74.1801 85.3498 77.0803 83.591 76.9001 83.1199Z" fill="#EEC1BB"/>
<path opacity="0.6" d="M69.3148 88.1327L69.954 88.1025L69.5902 83.4872L68.7266 83.4958L69.3148 88.1327Z" fill="white"/>
<path d="M97.8508 73.5694L98.4016 73.1503L96.3446 69.3171L95.5898 69.853L97.8508 73.5694Z" fill="#4ABDAC"/>
<path opacity="0.6" d="M97.8508 73.5694L98.4016 73.1503L96.3446 69.3171L95.5898 69.853L97.8508 73.5694Z" fill="white"/>
</svg>
