<svg width="50" height="50" viewBox="0 0 50 50" fill="none" xmlns="http://www.w3.org/2000/svg">
<path fill-rule="evenodd" clip-rule="evenodd" d="M21.875 9.375L25 6.25H43.75L46.875 9.375V25L43.75 28.125H31.25V25H43.75V9.375H25V18.75H21.875V9.375ZM28.125 28.125V25L25 21.875H6.25L3.125 25V40.625L6.25 43.75H25L28.125 40.625V28.125ZM25 25V40.625H6.25V25H25ZM29.4187 21.875L28.125 20.5812V18.75H40.625V21.875H29.4187ZM28.125 12.5H40.625V15.625H28.125V12.5ZM21.875 31.25H9.375V34.375H21.875V31.25Z" fill="#4ABDAC"/>
</svg>
