<svg width="107" height="73" viewBox="0 0 107 73" fill="none" xmlns="http://www.w3.org/2000/svg">
<path d="M81.9404 9.1068C84.4215 8.38907 86.9513 7.83744 89.5116 7.45588C90.3446 7.33637 90.0363 7.97373 89.935 8.53141C89.8108 9.21302 89.6635 9.89464 89.4748 10.5718C89.2861 11.249 89.1296 12.8999 88.4944 13.2275C87.7719 13.4848 87.0048 13.6065 86.2346 13.586C85.581 13.586 84.8124 13.5461 84.3337 13.0637C83.9563 12.6609 82.0923 9.06254 81.9404 9.1068Z" fill="#70CC40"/>
<path d="M86.0403 14.0286C85.6743 14.0547 85.3067 14.0094 84.9595 13.8953C84.6122 13.7812 84.2926 13.6007 84.0198 13.3647C83.5102 12.6616 83.0578 11.9217 82.6666 11.1517C82.3122 10.5232 81.829 9.67336 81.6679 9.46091C81.5865 9.40414 81.5267 9.3233 81.4976 9.23076C81.4799 9.17496 81.4738 9.11635 81.4797 9.05829C81.4857 9.00024 81.5035 8.94388 81.5321 8.89246C81.5608 8.84105 81.5997 8.79559 81.6467 8.7587C81.6937 8.7218 81.7478 8.69421 81.806 8.6775C84.3037 7.9568 86.8504 7.40369 89.4277 7.02215C89.5826 6.98578 89.7444 6.98611 89.8991 7.02312C90.0538 7.06012 90.1969 7.1327 90.316 7.2346C90.4309 7.39718 90.5016 7.58483 90.5217 7.78043C90.5418 7.97602 90.5106 8.17334 90.4311 8.3544C90.4311 8.43849 90.3897 8.52259 90.3759 8.60668C90.247 9.29715 90.0997 9.99204 89.9156 10.6737C89.8834 10.802 89.8512 10.9746 89.8144 11.1605C89.5934 12.3069 89.3541 13.285 88.7051 13.617C87.9236 13.9135 87.087 14.0521 86.2474 14.0242L86.0403 14.0286ZM82.6804 9.35911C82.8737 9.67336 83.1407 10.116 83.4767 10.7356C83.8909 11.4703 84.5261 12.5857 84.6871 12.7539C84.9771 13.0416 85.465 13.1655 86.2428 13.139C86.942 13.155 87.6385 13.0516 88.3001 12.8336C88.6085 12.6742 88.8386 11.5058 88.9399 10.9968C88.9767 10.7932 89.0135 10.6117 89.0503 10.4656C89.216 9.80172 89.3587 9.13781 89.483 8.45177C89.483 8.3544 89.5244 8.25703 89.5474 8.15965C89.5704 8.06228 89.5888 7.97818 89.6026 7.89409H89.5796C87.2498 8.24083 84.9454 8.73016 82.6804 9.35911V9.35911Z" fill="#093F68"/>
<path d="M80.3481 27.6298C78.1711 27.112 75.5707 25.9125 76.3899 23.3764C77.177 20.9376 78.277 18.5077 80.118 16.6886C81.3134 15.49 82.8426 14.6479 84.5226 14.2631C85.8527 13.9666 87.8778 13.7674 89.208 14.1303C91.9235 14.8739 94.0452 16.9763 95.3017 19.3442C96.3741 21.3581 97.6536 25.0981 95.7344 26.9925C94.1465 28.5637 90.9201 28.2672 88.8306 28.2893C86.0092 28.3247 83.1234 28.2893 80.3481 27.6298Z" fill="#70CC40"/>
<path d="M90.5926 28.7453H89.7918C89.4604 28.7453 89.1475 28.7453 88.8713 28.7453C86.0822 28.7762 83.1227 28.7453 80.2554 28.0725C78.8286 27.7361 76.9646 27.0501 76.1729 25.7001C75.9624 25.3296 75.8351 24.9206 75.7994 24.4997C75.7637 24.0788 75.8204 23.6554 75.9658 23.2569C76.9553 20.1985 78.175 18.0209 79.8043 16.3921C81.0598 15.1317 82.6679 14.2477 84.4345 13.8471C85.8152 13.5418 87.9094 13.3249 89.35 13.7188C91.9412 14.427 94.2701 16.4098 95.7291 19.1584C96.2261 20.0879 98.5688 24.8548 96.0835 27.3112C94.7487 28.6081 92.5487 28.7453 90.5926 28.7453ZM89.1152 27.8601H89.801C91.7525 27.8601 94.178 27.9043 95.4023 26.6916C96.9902 25.1203 96.1203 21.8672 94.8914 19.5568C93.5475 17.0251 91.4303 15.206 89.083 14.5642C87.8864 14.2411 85.9809 14.4004 84.6232 14.7058C83.0302 15.0679 81.5804 15.8657 80.4487 17.0029C78.9206 18.5255 77.77 20.5969 76.8265 23.5137C76.718 23.7972 76.6734 24.0997 76.6956 24.4011C76.7178 24.7025 76.8063 24.9959 76.9553 25.262C77.4478 26.0985 78.6905 26.7889 80.4579 27.2094C83.2194 27.8601 86.1144 27.8866 88.8437 27.8556L89.1152 27.8601Z" fill="#093F68"/>
<path d="M84.3286 38.6683H73.9269C73.3702 38.6683 72.9189 39.1023 72.9189 39.6376V41.1159C72.9189 41.6513 73.3702 42.0853 73.9269 42.0853H84.3286C84.8853 42.0853 85.3366 41.6513 85.3366 41.1159V39.6376C85.3366 39.1023 84.8853 38.6683 84.3286 38.6683Z" fill="#FFBC0E"/>
<path d="M84.3289 42.528H73.9272C73.5378 42.528 73.1644 42.3792 72.889 42.1144C72.6137 41.8496 72.459 41.4905 72.459 41.116V39.6377C72.459 39.2633 72.6137 38.9042 72.889 38.6394C73.1644 38.3746 73.5378 38.2258 73.9272 38.2258H84.3289C84.7183 38.2258 85.0917 38.3746 85.3671 38.6394C85.6424 38.9042 85.7971 39.2633 85.7971 39.6377V41.116C85.7971 41.4905 85.6424 41.8496 85.3671 42.1144C85.0917 42.3792 84.7183 42.528 84.3289 42.528V42.528ZM73.9272 39.111C73.7819 39.111 73.6426 39.1665 73.5399 39.2653C73.4372 39.3641 73.3795 39.4981 73.3795 39.6377V41.116C73.3807 41.2554 73.4388 41.3887 73.5412 41.4872C73.6437 41.5857 73.7823 41.6416 73.9272 41.6427H84.3289C84.4742 41.6427 84.6135 41.5873 84.7162 41.4885C84.8189 41.3897 84.8766 41.2557 84.8766 41.116V39.6377C84.8766 39.4981 84.8189 39.3641 84.7162 39.2653C84.6135 39.1665 84.4742 39.111 84.3289 39.111H73.9272Z" fill="#093F68"/>
<path d="M83.4634 35.2516H73.0617C72.505 35.2516 72.0537 35.6856 72.0537 36.2209V37.6992C72.0537 38.2345 72.505 38.6685 73.0617 38.6685H83.4634C84.0201 38.6685 84.4713 38.2345 84.4713 37.6992V36.2209C84.4713 35.6856 84.0201 35.2516 83.4634 35.2516Z" fill="#FFBC0E"/>
<path d="M83.4683 39.1111H73.0666C72.6767 39.1111 72.3028 38.9625 72.0267 38.6978C71.7507 38.4332 71.595 38.074 71.5938 37.6992V36.2209C71.595 35.846 71.7507 35.4869 72.0267 35.2222C72.3028 34.9576 72.6767 34.809 73.0666 34.809H83.4683C83.8577 34.809 84.2311 34.9577 84.5065 35.2225C84.7818 35.4873 84.9365 35.8464 84.9365 36.2209V37.6992C84.9365 38.0736 84.7818 38.4328 84.5065 38.6976C84.2311 38.9623 83.8577 39.1111 83.4683 39.1111V39.1111ZM73.0666 35.6942C72.9942 35.6936 72.9225 35.7068 72.8555 35.733C72.7886 35.7592 72.7276 35.7979 72.6763 35.8469C72.6249 35.8958 72.5842 35.9541 72.5564 36.0183C72.5286 36.0825 72.5143 36.1513 72.5143 36.2209V37.6992C72.5155 37.8393 72.5742 37.9732 72.6776 38.0719C72.7811 38.1705 72.9209 38.2259 73.0666 38.2259H83.4683C83.6132 38.2247 83.7518 38.1689 83.8542 38.0703C83.9567 37.9718 84.0148 37.8385 84.016 37.6992V36.2209C84.016 36.0812 83.9583 35.9472 83.8556 35.8484C83.7528 35.7497 83.6135 35.6942 83.4683 35.6942H73.0666Z" fill="#093F68"/>
<path d="M85.8286 31.8346H75.4269C74.8702 31.8346 74.4189 32.2686 74.4189 32.8039V34.2822C74.4189 34.8175 74.8702 35.2515 75.4269 35.2515H85.8286C86.3853 35.2515 86.8366 34.8175 86.8366 34.2822V32.8039C86.8366 32.2686 86.3853 31.8346 85.8286 31.8346Z" fill="#FFBC0E"/>
<path d="M85.8289 35.6941H75.4272C75.0378 35.6941 74.6644 35.5453 74.389 35.2806C74.1137 35.0158 73.959 34.6566 73.959 34.2822V32.8039C73.959 32.4294 74.1137 32.0703 74.389 31.8055C74.6644 31.5407 75.0378 31.392 75.4272 31.392H85.8289C86.2183 31.392 86.5917 31.5407 86.8671 31.8055C87.1424 32.0703 87.2971 32.4294 87.2971 32.8039V34.2689C87.2989 34.4554 87.2623 34.6405 87.1893 34.8133C87.1164 34.9861 87.0085 35.1434 86.872 35.2759C86.7355 35.4084 86.573 35.5136 86.394 35.5854C86.2149 35.6571 86.0229 35.6941 85.8289 35.6941V35.6941ZM75.4272 32.2772C75.2819 32.2772 75.1426 32.3327 75.0399 32.4314C74.9372 32.5302 74.8795 32.6642 74.8795 32.8039V34.2689C74.8795 34.4086 74.9372 34.5426 75.0399 34.6413C75.1426 34.7401 75.2819 34.7956 75.4272 34.7956H85.8289C85.9742 34.7956 86.1135 34.7401 86.2162 34.6413C86.3189 34.5426 86.3766 34.4086 86.3766 34.2689V32.7906C86.3766 32.6509 86.3189 32.5169 86.2162 32.4182C86.1135 32.3194 85.9742 32.2639 85.8289 32.2639L75.4272 32.2772Z" fill="#093F68"/>
<path d="M83.4634 28.4176H73.0617C72.505 28.4176 72.0537 28.8516 72.0537 29.3869V30.8652C72.0537 31.4005 72.505 31.8345 73.0617 31.8345H83.4634C84.0201 31.8345 84.4713 31.4005 84.4713 30.8652V29.3869C84.4713 28.8516 84.0201 28.4176 83.4634 28.4176Z" fill="#FFBC0E"/>
<path d="M83.4683 32.2774H73.0666C72.6767 32.2774 72.3028 32.1288 72.0267 31.8641C71.7507 31.5995 71.595 31.2403 71.5938 30.8655V29.4004C71.595 29.0256 71.7507 28.6665 72.0267 28.4018C72.3028 28.1371 72.6767 27.9885 73.0666 27.9885H83.4683C83.8577 27.9885 84.2311 28.1373 84.5065 28.4021C84.7818 28.6668 84.9365 29.026 84.9365 29.4004V30.8787C84.9328 31.2509 84.7766 31.6066 84.5016 31.8685C84.2267 32.1305 83.8553 32.2774 83.4683 32.2774V32.2774ZM73.0666 28.8605C72.9209 28.8605 72.7811 28.9158 72.6776 29.0145C72.5742 29.1131 72.5155 29.2471 72.5143 29.3872V30.8655C72.5143 30.935 72.5286 31.0039 72.5564 31.0681C72.5842 31.1322 72.6249 31.1905 72.6763 31.2395C72.7276 31.2884 72.7886 31.3271 72.8555 31.3534C72.9225 31.3796 72.9942 31.3928 73.0666 31.3922H83.4683C83.6135 31.3922 83.7528 31.3367 83.8556 31.2379C83.9583 31.1391 84.016 31.0052 84.016 30.8655V29.4004C84.0148 29.2611 83.9567 29.1278 83.8542 29.0293C83.7518 28.9308 83.6132 28.8749 83.4683 28.8737L73.0666 28.8605Z" fill="#093F68"/>
<path d="M100.755 38.6683H90.3537C89.797 38.6683 89.3457 39.1023 89.3457 39.6376V41.1159C89.3457 41.6513 89.797 42.0853 90.3537 42.0853H100.755C101.312 42.0853 101.763 41.6513 101.763 41.1159V39.6376C101.763 39.1023 101.312 38.6683 100.755 38.6683Z" fill="#FFBC0E"/>
<path d="M100.755 42.528H90.3491C89.9597 42.528 89.5862 42.3792 89.3109 42.1144C89.0355 41.8496 88.8809 41.4905 88.8809 41.116V39.6377C88.8809 39.2633 89.0355 38.9042 89.3109 38.6394C89.5862 38.3746 89.9597 38.2258 90.3491 38.2258H100.751C101.14 38.2258 101.514 38.3746 101.789 38.6394C102.064 38.9042 102.219 39.2633 102.219 39.6377V41.116C102.219 41.4897 102.065 41.8482 101.791 42.1129C101.516 42.3775 101.144 42.5268 100.755 42.528V42.528ZM90.3491 39.111C90.2038 39.111 90.0645 39.1665 89.9618 39.2653C89.8591 39.3641 89.8014 39.4981 89.8014 39.6377V41.116C89.8014 41.2557 89.8591 41.3897 89.9618 41.4885C90.0645 41.5873 90.2038 41.6427 90.3491 41.6427H100.751C100.896 41.6427 101.035 41.5873 101.138 41.4885C101.241 41.3897 101.298 41.2557 101.298 41.116V39.6377C101.298 39.4981 101.241 39.3641 101.138 39.2653C101.035 39.1665 100.896 39.111 100.751 39.111H90.3491Z" fill="#093F68"/>
<path d="M99.8901 35.2516H89.4884C88.9317 35.2516 88.4805 35.6856 88.4805 36.2209V37.6992C88.4805 38.2345 88.9317 38.6685 89.4884 38.6685H99.8901C100.447 38.6685 100.898 38.2345 100.898 37.6992V36.2209C100.898 35.6856 100.447 35.2516 99.8901 35.2516Z" fill="#FFBC0E"/>
<path d="M99.8895 39.1111H89.4877C89.0983 39.1111 88.7249 38.9623 88.4496 38.6976C88.1742 38.4328 88.0195 38.0736 88.0195 37.6992V36.2209C88.0195 35.8464 88.1742 35.4873 88.4496 35.2225C88.7249 34.9577 89.0983 34.809 89.4877 34.809H99.8895C100.279 34.809 100.652 34.9577 100.928 35.2225C101.203 35.4873 101.358 35.8464 101.358 36.2209V37.6992C101.358 38.0736 101.203 38.4328 100.928 38.6976C100.652 38.9623 100.279 39.1111 99.8895 39.1111V39.1111ZM89.4877 35.6942C89.3425 35.6942 89.2032 35.7497 89.1005 35.8484C88.9977 35.9472 88.94 36.0812 88.94 36.2209V37.6992C88.9412 37.8385 88.9993 37.9718 89.1018 38.0703C89.2042 38.1689 89.3429 38.2247 89.4877 38.2259H99.8895C100.035 38.2259 100.174 38.1704 100.277 38.0716C100.379 37.9728 100.437 37.8389 100.437 37.6992V36.2209C100.437 36.0812 100.379 35.9472 100.277 35.8484C100.174 35.7497 100.035 35.6942 99.8895 35.6942H89.4877Z" fill="#093F68"/>
<path d="M99.9546 31.8346H89.5529C88.9962 31.8346 88.5449 32.2686 88.5449 32.8039V34.2822C88.5449 34.8175 88.9962 35.2515 89.5529 35.2515H99.9546C100.511 35.2515 100.963 34.8175 100.963 34.2822V32.8039C100.963 32.2686 100.511 31.8346 99.9546 31.8346Z" fill="#FFBC0E"/>
<path d="M99.9539 35.6941H89.5522C89.1628 35.6941 88.7894 35.5453 88.514 35.2806C88.2387 35.0158 88.084 34.6566 88.084 34.2822V32.8039C88.084 32.4294 88.2387 32.0703 88.514 31.8055C88.7894 31.5407 89.1628 31.392 89.5522 31.392H99.9539C100.343 31.392 100.717 31.5407 100.992 31.8055C101.267 32.0703 101.422 32.4294 101.422 32.8039V34.2689C101.424 34.4554 101.387 34.6405 101.314 34.8133C101.241 34.9861 101.134 35.1434 100.997 35.2759C100.86 35.4084 100.698 35.5136 100.519 35.5854C100.34 35.6571 100.148 35.6941 99.9539 35.6941V35.6941ZM89.5522 32.2772C89.4069 32.2772 89.2676 32.3327 89.1649 32.4314C89.0622 32.5302 89.0045 32.6642 89.0045 32.8039V34.2689C89.0045 34.4086 89.0622 34.5426 89.1649 34.6413C89.2676 34.7401 89.4069 34.7956 89.5522 34.7956H99.9539C100.099 34.7956 100.238 34.7401 100.341 34.6413C100.444 34.5426 100.502 34.4086 100.502 34.2689V32.7906C100.502 32.6509 100.444 32.5169 100.341 32.4182C100.238 32.3194 100.099 32.2639 99.9539 32.2639L89.5522 32.2772Z" fill="#093F68"/>
<path d="M99.8901 28.4176H89.4884C88.9317 28.4176 88.4805 28.8516 88.4805 29.3869V30.8652C88.4805 31.4005 88.9317 31.8345 89.4884 31.8345H99.8901C100.447 31.8345 100.898 31.4005 100.898 30.8652V29.3869C100.898 28.8516 100.447 28.4176 99.8901 28.4176Z" fill="#FFBC0E"/>
<path d="M99.8895 32.2774H89.4877C89.0983 32.2774 88.7249 32.1286 88.4496 31.8638C88.1742 31.5991 88.0195 31.2399 88.0195 30.8655V29.4004C88.0195 29.026 88.1742 28.6668 88.4496 28.4021C88.7249 28.1373 89.0983 27.9885 89.4877 27.9885H99.8895C100.279 27.9885 100.652 28.1373 100.928 28.4021C101.203 28.6668 101.358 29.026 101.358 29.4004V30.8787C101.354 31.2509 101.198 31.6066 100.923 31.8685C100.648 32.1305 100.276 32.2774 99.8895 32.2774V32.2774ZM89.4877 28.8605C89.3429 28.8616 89.2042 28.9175 89.1018 29.016C88.9993 29.1145 88.9412 29.2478 88.94 29.3872V30.8655C88.94 31.0052 88.9977 31.1391 89.1005 31.2379C89.2032 31.3367 89.3425 31.3922 89.4877 31.3922H99.8895C100.035 31.3922 100.174 31.3367 100.277 31.2379C100.379 31.1391 100.437 31.0052 100.437 30.8655V29.4004C100.437 29.2607 100.379 29.1268 100.277 29.028C100.174 28.9292 100.035 28.8737 99.8895 28.8737L89.4877 28.8605Z" fill="#093F68"/>
<path d="M87.5411 12.2936C88.1123 12.2058 88.6968 12.2467 89.2487 12.4131C89.5216 12.5058 89.7533 12.6853 89.9057 12.9219C90.058 13.1585 90.1217 13.4381 90.0863 13.7143C90.0603 13.8413 89.9845 13.9538 89.8746 14.0286C89.7927 14.0743 89.7018 14.1029 89.6077 14.1127C88.4731 14.3241 87.3266 14.4719 86.1742 14.5553C85.3503 14.6084 83.2654 14.9005 83.1733 13.5992C83.0905 12.4485 84.1951 12.599 84.9867 12.4883C85.7784 12.3777 86.6897 12.3644 87.5411 12.2936Z" fill="#093F68"/>
<path d="M85.0104 15.042C84.3674 15.0891 83.727 14.9219 83.197 14.5684C83.0571 14.4464 82.9441 14.2984 82.8651 14.1333C82.786 13.9683 82.7423 13.7896 82.7368 13.608C82.6401 12.2182 83.8782 12.1208 84.5456 12.0633C84.6837 12.0633 84.8171 12.0633 84.946 12.0279C85.4818 11.9587 86.0211 11.9173 86.5615 11.9039C86.8837 11.9039 87.2058 11.8774 87.528 11.8508C88.1715 11.7552 88.8294 11.8083 89.4473 12.0057C89.823 12.1352 90.1397 12.3872 90.3424 12.7179C90.545 13.0486 90.6208 13.4372 90.5565 13.816C90.5034 14.0531 90.3587 14.2619 90.1515 14.4002C90.0167 14.476 89.8684 14.527 89.7142 14.5507C88.5611 14.7627 87.3963 14.9105 86.2255 14.9933H85.9862C85.6916 15.0155 85.3602 15.042 85.0104 15.042ZM87.5833 12.736C87.2473 12.7626 86.9113 12.7759 86.5753 12.7891C86.0674 12.8008 85.5604 12.8377 85.0565 12.8998C84.9092 12.8998 84.7573 12.9352 84.5962 12.9485C83.7217 13.0193 83.5929 13.0945 83.6297 13.546C83.6282 13.6125 83.6423 13.6785 83.671 13.739C83.6997 13.7996 83.7422 13.8531 83.7954 13.8957C84.2142 14.2409 85.3004 14.1568 85.8849 14.1081H86.1381C87.2732 14.0353 88.4028 13.8978 89.5209 13.6965H89.6222C89.6222 13.6965 89.6222 13.6965 89.6222 13.6478C89.7004 13.3424 89.3967 12.9972 89.0607 12.8644C88.5768 12.7278 88.0671 12.6975 87.5694 12.7759L87.5833 12.736Z" fill="#093F68"/>
<path d="M86.349 24.9964V24.4077C86.1281 24.3502 85.9118 24.3059 85.7047 24.2351C85.3253 24.1254 84.994 23.8987 84.7619 23.5899C84.5298 23.2811 84.4099 22.9075 84.4206 22.5266H85.6172C85.6249 22.7253 85.7002 22.9161 85.8316 23.0697C85.963 23.2232 86.1431 23.331 86.3444 23.3764V21.8185C86.1051 21.7521 85.8842 21.6901 85.631 21.6149C85.3709 21.5468 85.1332 21.4157 84.9407 21.2342C84.7346 21.0399 84.599 20.787 84.5541 20.5128C84.4815 20.1807 84.5071 19.8358 84.6277 19.5169C84.7147 19.2859 84.854 19.0763 85.0355 18.9033C85.2169 18.7303 85.4361 18.5983 85.6771 18.5166C85.8746 18.4545 86.076 18.4043 86.28 18.3661H86.349V17.5872H87.4675V17.6624C87.4675 17.8881 87.4675 18.105 87.4675 18.3307C87.4675 18.3838 87.4675 18.4016 87.5411 18.4148C87.9209 18.4763 88.2785 18.6285 88.5813 18.8574C88.8996 19.1099 89.1108 19.4658 89.175 19.8577C89.175 19.964 89.2026 20.0702 89.2164 20.1808H88.0013C87.9991 20.0217 87.9481 19.8667 87.8548 19.7352C87.7615 19.6038 87.63 19.5017 87.4767 19.4417V20.8934L87.6055 20.9244C87.9339 20.9855 88.2537 21.0835 88.5583 21.2165C88.7866 21.3123 88.9838 21.4658 89.1288 21.6606C89.2738 21.8554 89.3614 22.0843 89.3821 22.323C89.454 22.7681 89.3416 23.2226 89.0691 23.5889C88.8404 23.8909 88.5182 24.1155 88.1486 24.2307C87.9277 24.3059 87.6884 24.3546 87.4536 24.4166V24.9875L86.349 24.9964ZM87.4721 22.0398V23.3941C87.6531 23.3671 87.8231 23.2937 87.9645 23.1817C88.0366 23.1242 88.0941 23.0517 88.1327 22.9697C88.1713 22.8877 88.19 22.7983 88.1874 22.7083C88.1847 22.6183 88.1608 22.53 88.1174 22.4503C88.074 22.3705 88.0123 22.3012 87.9369 22.2478C87.7864 22.1697 87.6312 22.1002 87.4721 22.0398V22.0398ZM86.3444 20.6544V19.3487C86.1996 19.4109 86.0583 19.4803 85.921 19.5568C85.8422 19.6113 85.7787 19.6838 85.7361 19.7677C85.6935 19.8516 85.6731 19.9443 85.6768 20.0376C85.6804 20.1309 85.708 20.2219 85.757 20.3025C85.806 20.3831 85.875 20.4508 85.9578 20.4995C86.0775 20.5482 86.2064 20.6013 86.3444 20.6544V20.6544Z" fill="#093F68"/>
<path d="M72.1827 16.9763C72.0757 16.9786 71.9712 16.945 71.8872 16.8811C71.8031 16.8173 71.7449 16.7273 71.7224 16.6267C71.184 14.1525 69.527 14.1171 69.458 14.1171C69.3449 14.1179 69.2355 14.0786 69.1506 14.0068C69.0657 13.9349 69.0113 13.8356 68.9978 13.7276C68.9839 13.6218 69.0102 13.5147 69.072 13.426C69.1337 13.3374 69.2267 13.2731 69.3337 13.2452C71.681 12.6432 71.635 10.9259 71.635 10.8507C71.6287 10.7925 71.6343 10.7338 71.6515 10.6778C71.6688 10.6217 71.6974 10.5695 71.7356 10.5241C71.7739 10.4787 71.8211 10.441 71.8745 10.4131C71.9279 10.3852 71.9865 10.3677 72.0469 10.3616C72.1074 10.3555 72.1685 10.3609 72.2267 10.3775C72.285 10.3941 72.3393 10.4216 72.3865 10.4584C72.4338 10.4952 72.473 10.5405 72.502 10.5919C72.531 10.6433 72.5492 10.6996 72.5555 10.7577C72.9467 13.077 74.6727 13.0239 74.8568 13.0106C74.9788 12.9989 75.1008 13.0342 75.1957 13.1089C75.2906 13.1836 75.3508 13.2916 75.363 13.4089C75.3753 13.5263 75.3385 13.6436 75.2608 13.7349C75.1831 13.8262 75.0709 13.8841 74.9488 13.8958C72.8777 14.1304 72.6476 16.4762 72.6476 16.578C72.6378 16.6839 72.5887 16.7829 72.5092 16.8569C72.4298 16.9308 72.3253 16.9748 72.2149 16.9808L72.1827 16.9763ZM70.8019 13.6214C71.3774 13.9611 71.8391 14.4527 72.1321 15.0377C72.4002 14.4402 72.8292 13.9223 73.3748 13.5373C72.8517 13.2646 72.4229 12.8507 72.1413 12.3467C71.821 12.8788 71.3586 13.3189 70.8019 13.6214V13.6214Z" fill="#DFEAEF"/>
<path d="M77.5542 5.41103C77.4472 5.41332 77.3427 5.37966 77.2587 5.31584C77.1747 5.25202 77.1164 5.16203 77.094 5.06137C76.6797 3.16702 75.4325 3.13161 75.3818 3.13161C75.2688 3.13239 75.1593 3.09312 75.0745 3.02128C74.9896 2.94945 74.9351 2.85007 74.9216 2.74211C74.9077 2.63626 74.9341 2.52916 74.9958 2.44051C75.0575 2.35186 75.1505 2.28764 75.2576 2.25967C77.048 1.81707 77.0157 0.489251 77.0157 0.444991C77.0152 0.334885 77.0573 0.228525 77.1339 0.146683C77.2105 0.0648409 77.316 0.0133941 77.43 0.00238482C77.5465 -0.00929298 77.6633 0.0222083 77.7565 0.090469C77.8497 0.15873 77.9123 0.258611 77.9316 0.369749C78.2262 2.14017 79.5241 2.09591 79.6714 2.08706C79.792 2.07847 79.9114 2.11592 80.0035 2.19129C80.0957 2.26667 80.1533 2.37392 80.1639 2.48983C80.1742 2.60451 80.1378 2.71858 80.0622 2.80782C79.9865 2.89706 79.8777 2.95446 79.7588 2.96784C78.1894 3.14489 78.0053 4.94629 78.0007 5.02596C77.9909 5.13188 77.9418 5.23087 77.8623 5.30483C77.7829 5.37878 77.6784 5.42277 77.568 5.42873L77.5542 5.41103ZM76.6337 2.64917C76.9967 2.89041 77.2974 3.20836 77.5128 3.57864C77.7098 3.19863 77.9892 2.86359 78.3321 2.59606C78.0044 2.39428 77.729 2.12332 77.5266 1.80379C77.2938 2.1441 76.9877 2.43239 76.6291 2.64917H76.6337Z" fill="#DFEAEF"/>
<path d="M100.898 15.7149C100.791 15.7172 100.687 15.6835 100.603 15.6197C100.519 15.5559 100.46 15.4659 100.438 15.3652C99.7154 12.0722 97.4878 12.0324 97.3911 12.0324C97.3307 12.0399 97.2693 12.036 97.2105 12.0207C97.1516 12.0054 97.0965 11.9792 97.0482 11.9434C96.9506 11.8712 96.8869 11.7647 96.8711 11.6473C96.8552 11.5299 96.8885 11.4113 96.9636 11.3175C97.0386 11.2237 97.1494 11.1624 97.2715 11.1472C100.401 10.3416 100.328 8.04893 100.323 7.93828C100.322 7.82886 100.364 7.72307 100.439 7.64133C100.515 7.5596 100.619 7.50771 100.733 7.49567C100.849 7.48399 100.966 7.51549 101.059 7.58376C101.152 7.65202 101.215 7.75189 101.234 7.86303C101.768 11.0188 104.24 10.8728 104.346 10.8639C104.465 10.8553 104.584 10.8921 104.676 10.9666C104.768 11.041 104.826 11.1471 104.838 11.2622C104.85 11.377 104.814 11.4916 104.74 11.5817C104.665 11.6718 104.557 11.7303 104.438 11.7447C101.676 12.0589 101.359 15.1793 101.345 15.3121C101.335 15.4173 101.287 15.5157 101.208 15.5896C101.13 15.6634 101.026 15.7079 100.917 15.7149H100.898ZM98.8962 11.5057C99.7578 12.0355 100.428 12.8084 100.815 13.7187C101.166 12.7738 101.826 11.9643 102.698 11.4127C101.882 11.041 101.229 10.4026 100.857 9.61133C100.435 10.4309 99.7464 11.0958 98.8962 11.5057V11.5057Z" fill="#DFEAEF"/>
<path d="M35.7075 72.01H7.50322C7.38116 72.01 7.26409 71.9634 7.17777 71.8804C7.09146 71.7974 7.04297 71.6848 7.04297 71.5674C7.04297 71.45 7.09146 71.3374 7.17777 71.2544C7.26409 71.1714 7.38116 71.1248 7.50322 71.1248H35.2381V61.6619C35.2381 61.5445 35.2866 61.4319 35.3729 61.3489C35.4592 61.2659 35.5762 61.2193 35.6983 61.2193H52.6264V52.3362C52.6264 52.2188 52.6749 52.1062 52.7612 52.0232C52.8475 51.9402 52.9646 51.8936 53.0867 51.8936H68.0817V42.0854C68.0817 41.968 68.1302 41.8555 68.2165 41.7725C68.3028 41.6895 68.4199 41.6428 68.542 41.6428H105.68C105.802 41.6428 105.919 41.6895 106.005 41.7725C106.092 41.8555 106.14 41.968 106.14 42.0854C106.14 42.2028 106.092 42.3154 106.005 42.3984C105.919 42.4814 105.802 42.528 105.68 42.528H69.0114V52.3362C69.0114 52.4536 68.9629 52.5661 68.8766 52.6491C68.7903 52.7322 68.6732 52.7788 68.5512 52.7788H53.5561V61.6619C53.5561 61.7793 53.5076 61.8919 53.4213 61.9749C53.335 62.0579 53.2179 62.1045 53.0959 62.1045H36.1678V71.5674C36.1678 71.6848 36.1193 71.7974 36.033 71.8804C35.9467 71.9634 35.8296 72.01 35.7075 72.01V72.01Z" fill="#093F68"/>
<path d="M5.84678 24.3142L4.2876 22.9007C4.2876 22.9007 4.4862 21.8005 4.21155 21.4838C3.9369 21.1671 3.05801 20.7504 2.87632 20.8171C2.69462 20.8837 2.58477 21.2571 2.58477 21.2571C2.58477 21.2571 1.47771 20.4503 1.20728 20.687C0.936855 20.9237 -0.0138625 22.9174 0.645301 23.7775C1.30446 24.6376 4.66789 26.7779 4.66789 26.7779L5.84678 24.3142Z" fill="#FFC9B0"/>
<path d="M4.66779 27.1146C4.57103 27.1149 4.47706 27.089 4.40159 27.0412C4.05088 26.8179 0.962107 24.8376 0.281816 23.9508C-0.50411 22.9206 0.569145 20.7503 0.894502 20.4636C0.947828 20.4166 1.01286 20.3787 1.08555 20.3523C1.15825 20.3259 1.23704 20.3116 1.31704 20.3103C1.7316 20.3469 2.11999 20.4884 2.4241 20.7137C2.49407 20.6315 2.58833 20.564 2.69875 20.517C3.21425 20.3236 4.2875 20.9704 4.56638 21.2971C4.84526 21.6238 4.79878 22.3706 4.7354 22.794L6.16781 24.0975C6.21708 24.1426 6.25013 24.1973 6.2635 24.256C6.27688 24.3146 6.2701 24.375 6.24387 24.4309L5.0692 26.8979C5.04523 26.9473 5.00666 26.9916 4.95669 27.027C4.90673 27.0623 4.8468 27.0878 4.78188 27.1012C4.7452 27.1112 4.70653 27.1157 4.66779 27.1146V27.1146ZM1.44803 21.007C1.16493 21.4538 0.535341 22.9873 1.02549 23.6074C1.51564 24.2275 3.38749 25.501 4.49877 26.2278L5.37766 24.3842L3.9875 23.1173C3.94781 23.0817 3.91822 23.0397 3.90073 22.9943C3.88325 22.9489 3.87825 22.901 3.88609 22.854C3.98391 22.4632 3.98391 22.0612 3.88609 21.6705C3.65408 21.4661 3.37246 21.3006 3.05791 21.1837C3.03187 21.232 3.01205 21.2823 2.99875 21.3338C2.9814 21.39 2.94578 21.4417 2.8954 21.4838C2.84502 21.5259 2.78161 21.5569 2.71143 21.5738C2.63915 21.5927 2.56174 21.5959 2.48736 21.583C2.41298 21.5701 2.3444 21.5416 2.28888 21.5004C2.03421 21.3104 1.75197 21.1448 1.44803 21.007Z" fill="#093F68"/>
<path d="M3.09199 24.2609C3.03096 24.2609 2.97065 24.2505 2.91522 24.2303C2.85978 24.2102 2.81053 24.1808 2.77086 24.1442C2.56806 23.9341 2.44894 23.6811 2.4286 23.4175C2.31071 23.4786 2.17855 23.5205 2.03987 23.5408C1.93328 23.5533 1.82455 23.5475 1.72103 23.5239C1.61751 23.5003 1.52162 23.4595 1.43986 23.4041C0.958159 23.0707 1.22436 22.2906 2.23424 21.0705C2.29905 21.0038 2.3934 20.9589 2.4984 20.9447C2.60339 20.9306 2.71129 20.9482 2.80049 20.9941C2.88969 21.0401 2.95361 21.1109 2.97946 21.1924C3.0053 21.274 2.99117 21.3602 2.93988 21.4338C2.57734 21.8573 2.28483 22.3155 2.06944 22.7974C2.24573 22.6715 2.40055 22.528 2.53001 22.3706C2.5821 22.3057 2.66102 22.257 2.75342 22.2327C2.84582 22.2084 2.94602 22.21 3.03706 22.2373C3.12831 22.2647 3.20469 22.3163 3.25322 22.3831C3.30175 22.45 3.31943 22.528 3.30326 22.604C3.23143 22.9374 3.21876 23.5241 3.41312 23.7042C3.46833 23.7524 3.50446 23.8123 3.51707 23.8766C3.52968 23.9408 3.51822 24.0065 3.4841 24.0657C3.44997 24.1248 3.39468 24.1748 3.32502 24.2095C3.25535 24.2442 3.17436 24.2621 3.09199 24.2609Z" fill="#093F68"/>
<path d="M41.1201 23.8508L42.6793 22.4373C42.6793 22.4373 42.4849 21.3372 42.7553 21.0204C43.0258 20.7037 43.9089 20.287 44.0906 20.3537C44.2723 20.4204 44.3821 20.7937 44.3821 20.7937C44.3821 20.7937 45.4934 19.987 45.7596 20.2237C46.0258 20.4604 46.9808 22.454 46.3216 23.3141C45.6624 24.1742 42.299 26.3145 42.299 26.3145L41.1201 23.8508Z" fill="#FFC9B0"/>
<path d="M42.2827 26.6479C42.2462 26.6511 42.2094 26.6511 42.1729 26.6479C42.1087 26.634 42.0496 26.6083 42.0004 26.573C41.9512 26.5376 41.9133 26.4936 41.8898 26.4445L40.6982 23.9642C40.672 23.9083 40.6652 23.8479 40.6786 23.7893C40.6919 23.7307 40.725 23.6759 40.7742 23.6308L42.2067 22.3306C42.1433 21.9072 42.0884 21.1704 42.3757 20.8337C42.6165 20.5537 43.7067 19.8336 44.2433 20.0536C44.3534 20.0995 44.4477 20.1658 44.518 20.247C44.8281 20.0294 45.2137 19.8901 45.625 19.8469C45.7048 19.8492 45.7832 19.8639 45.8557 19.8902C45.9283 19.9166 45.9935 19.954 46.0476 20.0003C46.3687 20.287 47.4419 22.454 46.656 23.4874C45.98 24.3709 42.887 26.3545 42.5362 26.5745C42.4642 26.6202 42.3751 26.646 42.2827 26.6479ZM41.5898 23.9142L42.4729 25.7611C43.5799 25.0343 45.5067 23.7141 45.9461 23.1407C46.3856 22.5673 45.7898 20.9938 45.5236 20.5404C45.217 20.6778 44.9332 20.8446 44.6785 21.0371C44.623 21.0782 44.5544 21.1068 44.4801 21.1197C44.4057 21.1326 44.3283 21.1294 44.256 21.1104C44.1853 21.0933 44.1215 21.0617 44.0711 21.019C44.0207 20.9763 43.9854 20.9239 43.9687 20.8671C43.9547 20.8168 43.9349 20.7677 43.9095 20.7204C43.6044 20.8385 43.3316 21.0028 43.1067 21.2038C43.0089 21.5945 43.0089 21.9966 43.1067 22.3873C43.1145 22.4344 43.1095 22.4822 43.092 22.5276C43.0745 22.573 43.045 22.615 43.0053 22.6507L41.5898 23.9142Z" fill="#093F68"/>
<path d="M42.5441 59.7159L37.1398 60.236C36.5018 54.5352 35.4496 52.1649 34.4313 51.2347C33.6074 50.478 23.627 48.0876 23.627 48.0876L26.2678 42.9269C28.8327 43.4736 37.0933 46.7074 39.4046 48.8244C41.6018 50.818 42.1765 57.2356 42.5441 59.7159Z" fill="#093F68"/>
<path d="M37.1405 60.5694C37.0437 60.5698 36.9497 60.5439 36.8743 60.4961C36.8307 60.4677 36.7948 60.4327 36.7687 60.3932C36.7425 60.3537 36.7267 60.3105 36.7221 60.2661C36.1897 55.5054 35.3109 52.535 34.1108 51.4381C33.646 51.0114 28.3558 49.5545 23.5051 48.3944C23.4493 48.3807 23.3977 48.358 23.3535 48.3278C23.3094 48.2975 23.2737 48.2604 23.2487 48.2187C23.2237 48.1771 23.2099 48.1318 23.2082 48.0857C23.2065 48.0396 23.2169 47.9937 23.2389 47.951L25.8755 42.7869C25.9143 42.7113 25.9869 42.6494 26.0796 42.6132C26.1722 42.5769 26.2785 42.5688 26.3783 42.5902C29.1418 43.1803 37.4067 46.4708 39.7264 48.5911C41.7335 50.428 42.4095 55.5287 42.8152 58.5758C42.8701 58.9959 42.9208 59.3659 42.9631 59.676C42.9762 59.7635 42.9449 59.8515 42.876 59.9208C42.8071 59.9902 42.7063 60.0352 42.5955 60.046L37.1912 60.5661L37.1405 60.5694ZM24.1938 47.8543C26.5685 48.431 33.9503 50.2613 34.7573 50.9947C36.0588 52.1882 36.9672 55.0887 37.5292 59.856L42.0842 59.4193C42.0504 59.1826 42.0166 58.9225 41.9786 58.6392C41.6109 55.8654 40.9222 50.698 39.0926 49.0211C36.925 47.0408 29.2981 44.0204 26.5178 43.3137L24.1938 47.8543Z" fill="#093F68"/>
<path d="M37.3586 58.6742L36.8815 61.555L46.0719 61.5287C46.1109 61.5285 46.1479 61.5185 46.1779 61.5001C46.2079 61.4817 46.2292 61.4559 46.2388 61.4263C46.2485 61.3967 46.2459 61.3649 46.2316 61.3354C46.2172 61.3058 46.1918 61.2801 46.1589 61.2618L42.4348 58.5084L37.3586 58.6742Z" fill="#E6A01B"/>
<path d="M36.8276 61.8842C36.7169 61.8673 36.6165 61.8164 36.5485 61.7427C36.4804 61.669 36.4503 61.5785 36.4648 61.4912L36.9419 58.6104C36.9519 58.5343 36.9947 58.4649 37.0631 58.4139C37.1316 58.3629 37.2215 58.3334 37.3177 58.3303L42.3945 58.1611C42.4515 58.1594 42.5092 58.167 42.5638 58.1835C42.6185 58.1999 42.669 58.225 42.7123 58.257L46.4209 61.0013C46.5169 61.0626 46.5897 61.1442 46.6301 61.2357C46.6705 61.3271 46.6768 61.4245 46.6481 61.5154C46.617 61.6113 46.5489 61.6954 46.4531 61.7563C46.3572 61.8172 46.2383 61.8518 46.1125 61.8555L36.9132 61.8838L36.8276 61.8842ZM37.7356 58.9849L37.3675 61.2072L45.4708 61.1835L42.2999 58.8353L37.7356 58.9849Z" fill="#093F68"/>
<path d="M31.4017 37.3793L31.8242 44.3503L18.0579 45.3505L17.2381 38.2295L2.2168 26.4578L5.88445 24.1475L18.5818 32.1286C20.9565 32.0686 27.7552 31.8619 29.682 31.3718L41.1201 23.7507L44.3483 25.671C44.3483 25.671 36.0032 33.1554 31.4017 37.3793Z" fill="#E6A01B"/>
<path d="M18.088 45.6705C17.9893 45.6706 17.8936 45.6435 17.8176 45.5938C17.7321 45.5367 17.6789 45.4551 17.6697 45.3671L16.8626 38.3661L1.92156 26.6978C1.87934 26.6647 1.84646 26.6249 1.82508 26.5811C1.80369 26.5372 1.79429 26.4903 1.79748 26.4434C1.80067 26.3965 1.81639 26.3507 1.8436 26.3089C1.8708 26.2672 1.90889 26.2304 1.95537 26.201L5.62725 23.8874C5.70219 23.84 5.79533 23.8142 5.89133 23.8142C5.98734 23.8142 6.08048 23.84 6.15542 23.8874L18.726 31.7918C24.1472 31.6518 28.1402 31.3851 29.4755 31.0751L40.8334 23.4973C40.9083 23.45 41.0014 23.4242 41.0974 23.4242C41.1935 23.4242 41.2866 23.45 41.3615 23.4973L44.5897 25.4176C44.6361 25.4454 44.6747 25.4805 44.7031 25.5207C44.7314 25.5609 44.7489 25.6052 44.7545 25.651C44.7606 25.6964 44.7547 25.7424 44.7372 25.786C44.7198 25.8296 44.6911 25.8698 44.6531 25.9043C44.5686 25.981 36.4051 33.3187 31.8417 37.5093L32.2642 44.347C32.2701 44.4332 32.2333 44.518 32.1616 44.5833C32.0899 44.6486 31.9888 44.6894 31.8797 44.697L18.1133 45.6971L18.088 45.6705ZM2.85538 26.4844L17.5683 37.9794C17.6372 38.0356 17.6804 38.1083 17.6908 38.1861L18.4725 44.977L31.4022 44.0469L30.9797 37.3793C30.9744 37.2941 31.0107 37.2106 31.0811 37.1459C35.1291 33.4221 42.1686 27.0845 43.7024 25.7043L41.1207 24.1841L29.9572 31.6352C29.9142 31.6626 29.8656 31.684 29.8135 31.6985C27.8867 32.1886 21.3289 32.4019 18.5993 32.4686C18.4987 32.4722 18.3998 32.4474 18.3204 32.3986L5.885 24.5741L2.85538 26.4844Z" fill="#093F68"/>
<path d="M12.8779 64.3666C12.8779 64.3666 17.3019 59.0859 18.5019 56.3088C19.702 53.5318 18.6963 45.3073 18.6963 45.3073H25.1105C25.1105 45.3073 26.9485 51.9082 24.5274 56.7789C22.1062 61.6496 17.0991 66.0202 17.0991 66.0202L12.8779 64.3666Z" fill="#093F68"/>
<path d="M17.0988 66.3635C17.0327 66.3625 16.9678 66.35 16.9086 66.3268L12.6832 64.6599C12.6302 64.6384 12.5837 64.6082 12.5465 64.5714C12.5094 64.5347 12.4825 64.4921 12.4677 64.4466C12.4521 64.401 12.449 64.3534 12.4585 64.3069C12.4679 64.2603 12.4898 64.2159 12.5226 64.1765C12.5649 64.1232 16.9255 58.8991 18.096 56.1954C19.2664 53.4917 18.2819 45.4272 18.2692 45.3439C18.2633 45.2974 18.2698 45.2504 18.2884 45.206C18.3069 45.1616 18.3371 45.1208 18.377 45.0863C18.4168 45.0517 18.4654 45.0241 18.5196 45.0053C18.5739 44.9865 18.6325 44.9769 18.6917 44.9771H25.1059C25.2042 44.9754 25.3001 45.0008 25.3772 45.0488C25.4544 45.0969 25.5078 45.1647 25.5285 45.2405C25.6045 45.5139 27.3623 51.9948 24.9242 56.9088C22.4862 61.8229 17.4664 66.2101 17.4157 66.2435C17.3769 66.2803 17.3285 66.31 17.2738 66.3307C17.2191 66.3514 17.1594 66.3626 17.0988 66.3635V66.3635ZM13.4903 64.2365L16.9974 65.6167C17.9692 64.7299 22.0678 60.8561 24.1341 56.6655C26.2003 52.4749 25.0637 46.9174 24.7636 45.6639H19.1481C19.3298 47.3308 19.9932 53.9217 18.8946 56.4288C17.8509 58.8558 14.4706 63.0464 13.4903 64.2365V64.2365Z" fill="#093F68"/>
<path d="M12.8776 64.3666L10.7227 67.1103L18.1425 70.5975C18.1943 70.6132 18.251 70.6155 18.3046 70.6041C18.3582 70.5927 18.4058 70.5682 18.4406 70.5341C18.4753 70.5 18.4955 70.458 18.4981 70.4143C18.5007 70.3706 18.4857 70.3273 18.4552 70.2908L17.0988 66.0301L12.8776 64.3666Z" fill="#E6A01B"/>
<path d="M18.2437 70.9475C18.1524 70.946 18.0621 70.9313 17.9775 70.9042L17.9268 70.8842L10.5027 67.397C10.4546 67.3744 10.4126 67.3445 10.3793 67.309C10.3459 67.2736 10.3218 67.2332 10.3084 67.1903C10.2952 67.1468 10.2933 67.1016 10.3028 67.0575C10.3122 67.0134 10.3328 66.9713 10.3633 66.9336L12.5183 64.1899C12.5743 64.1194 12.6618 64.068 12.7634 64.0458C12.865 64.0236 12.9735 64.0322 13.0676 64.0699L17.293 65.7368C17.3476 65.7587 17.3956 65.7897 17.4335 65.8277C17.4715 65.8657 17.4985 65.9097 17.5127 65.9568L18.8522 70.1707C18.9133 70.2626 18.9387 70.3666 18.9252 70.4698C18.9116 70.573 18.8598 70.6708 18.7761 70.7508C18.7112 70.8125 18.6299 70.8622 18.5378 70.8962C18.4458 70.9302 18.3453 70.9477 18.2437 70.9475V70.9475ZM11.3056 66.9969L17.9648 70.124L16.7352 66.2602L13.0338 64.8L11.3056 66.9969Z" fill="#093F68"/>
<path d="M27.3372 31.772L25.795 42.3135L21.0625 32.1654L27.3372 31.772Z" fill="#F5F8FA"/>
<path d="M25.7943 42.6469C25.7079 42.6471 25.6236 42.6264 25.5526 42.5877C25.4816 42.5489 25.4273 42.494 25.3971 42.4302L20.6646 32.2787C20.6426 32.2305 20.635 32.179 20.6424 32.1281C20.6497 32.0773 20.6718 32.0284 20.7069 31.9853C20.7418 31.942 20.789 31.9056 20.8447 31.879C20.9004 31.8524 20.9631 31.8363 21.028 31.832L27.3028 31.4386C27.3648 31.4348 27.4272 31.442 27.4853 31.4594C27.5435 31.4769 27.5961 31.5043 27.6392 31.5396C27.6824 31.575 27.7152 31.6174 27.7352 31.6639C27.7552 31.7104 27.7619 31.7599 27.7549 31.8086L26.2126 42.3535C26.2019 42.4278 26.1599 42.4972 26.0932 42.5504C26.0265 42.6036 25.9391 42.6376 25.845 42.6469H25.7943ZM21.6492 32.4621L25.5788 40.8833L26.8464 32.1354L21.6492 32.4621Z" fill="#093F68"/>
<path d="M22.7998 30.7073L25.6697 30.5016L25.8195 31.8031C25.8488 32.0576 25.7488 32.3108 25.5415 32.5071C25.3341 32.7034 25.0364 32.8267 24.7139 32.8498L24.2931 32.8799C23.9705 32.903 23.6496 32.8241 23.4008 32.6605C23.152 32.4969 22.9958 32.262 22.9665 32.0076L22.8166 30.7061L22.7998 30.7073Z" fill="#FFC9B0"/>
<path d="M24.1639 33.2188C23.7809 33.2184 23.4102 33.1123 23.116 32.9188C22.7809 32.6979 22.5698 32.3816 22.5287 32.0386L22.3808 30.7351C22.3702 30.6471 22.4043 30.5595 22.4756 30.4913C22.5469 30.4232 22.6496 30.3802 22.7611 30.3717L25.6301 30.1684C25.7412 30.1597 25.8521 30.1861 25.9386 30.2417C26.024 30.2988 26.0772 30.3804 26.0865 30.4684L26.2386 31.7719C26.2762 32.1147 26.1405 32.4553 25.8611 32.7195C25.5817 32.9837 25.1812 33.15 24.747 33.1821V33.1821L24.3245 33.2121L24.1639 33.2188ZM23.2597 31.0085L23.3696 31.9786C23.3905 32.1451 23.4938 32.2984 23.6569 32.4053C23.7369 32.4589 23.8298 32.4992 23.93 32.5238C24.0301 32.5484 24.1356 32.5569 24.24 32.5487L24.6625 32.5187C24.8742 32.5035 25.0696 32.4226 25.2059 32.2939C25.3421 32.1651 25.4081 31.999 25.3893 31.8319L25.2752 30.8618L23.2597 31.0085Z" fill="#093F68"/>
<path d="M14.4288 26.578C14.2297 26.4234 14.0577 26.2485 13.9175 26.0579C12.4432 24.2483 11.3422 22.2656 10.6555 20.1837C10.4164 19.5978 10.3343 18.9791 10.4146 18.3668C10.6344 17.2567 11.7414 16.4099 12.7893 15.6498C13.3513 15.2397 13.6724 15.2564 14.0569 14.7196C14.4839 14.2043 15.0232 13.7528 15.6499 13.3861C18.0331 11.8759 21.3247 11.6925 24.3796 11.7525C25.6853 11.7792 27.0332 11.8459 28.1825 12.3126C29.3318 12.7794 30.2952 13.7362 30.1684 14.7596C31.6854 14.6463 32.5135 14.7096 33.0079 15.9931C33.7727 17.9934 33.6459 23.6042 33.6459 23.6042L31.8375 23.6476L18.3711 26.1946C17.4964 26.3579 15.3457 27.0847 14.5682 26.688C14.5181 26.6543 14.4714 26.6176 14.4288 26.578V26.578Z" fill="#725858"/>
<path d="M15.2691 27.1513C14.9627 27.1643 14.6582 27.1052 14.3945 26.9813C14.3022 26.9346 14.2159 26.881 14.1367 26.8212C13.9151 26.6476 13.7221 26.4527 13.5621 26.2412C12.0655 24.4032 10.9461 22.3904 10.2451 20.277C9.99063 19.6466 9.90572 18.9812 9.99582 18.3234C10.2324 17.1465 11.3142 16.2731 12.5057 15.4096C12.688 15.2775 12.8845 15.1581 13.093 15.0529C13.3537 14.9352 13.5685 14.7634 13.7142 14.5562C14.1696 14.0113 14.7414 13.533 15.4043 13.1426C17.9396 11.5324 21.3875 11.3757 24.4087 11.4357C25.7482 11.4624 27.1552 11.5324 28.4102 12.0291C29.4919 12.4592 30.5229 13.3427 30.6327 14.4161C31.9426 14.3528 32.9187 14.5262 33.4511 15.913C34.2243 17.9133 34.1145 23.3941 34.106 23.6275C34.106 23.7159 34.0615 23.8007 33.9823 23.8632C33.903 23.9257 33.7955 23.9608 33.6835 23.9608L31.913 24.0042L18.4931 26.5412C18.2988 26.5779 18.0326 26.6445 17.7241 26.7212C16.9356 26.9552 16.1091 27.1 15.2691 27.1513V27.1513ZM23.4242 12.0925C20.8129 12.0925 18.0114 12.3492 15.9325 13.6627C15.3511 14.0049 14.8469 14.4219 14.441 14.8962C14.2294 15.187 13.9287 15.4312 13.5663 15.6063C13.3923 15.6925 13.2283 15.7907 13.0761 15.8997C12.0029 16.6798 11.0226 17.4599 10.8325 18.4267C10.7667 18.9888 10.8443 19.5556 11.0606 20.0936C11.7372 22.1392 12.8211 24.0871 14.2719 25.8644C14.3957 26.0304 14.5447 26.1838 14.7156 26.3212V26.3212C14.7606 26.354 14.8086 26.3841 14.8593 26.4112C15.2818 26.6279 16.71 26.2645 17.4832 26.0778C17.8086 25.9945 18.0917 25.9244 18.3283 25.8811L31.7905 23.3374H31.875L33.2863 23.3041C33.2863 22.0939 33.2863 17.76 32.6567 16.1131C32.2342 15.0629 31.7102 15.0096 30.2609 15.1129C30.199 15.1174 30.1366 15.1111 30.0782 15.0944C30.0198 15.0776 29.9667 15.051 29.9229 15.0162C29.8788 14.9816 29.845 14.9398 29.8238 14.8937C29.8027 14.8476 29.7946 14.7984 29.8003 14.7495C29.9144 13.8161 28.9552 12.9959 28.0468 12.6292C26.9482 12.1925 25.6467 12.1325 24.4045 12.1058C24.0777 12.0969 23.7509 12.0925 23.4242 12.0925V12.0925Z" fill="#093F68"/>
<path d="M32.132 26.0294C33.6448 25.7824 34.6523 24.7476 34.3823 23.7181C34.1123 22.6885 32.6671 22.0542 31.1542 22.3011C29.6414 22.5481 28.6339 23.5829 28.9039 24.6124C29.1739 25.6419 30.6191 26.2763 32.132 26.0294Z" fill="#FFC9B0"/>
<path d="M31.4776 26.4212C30.0241 26.4212 28.7565 25.7211 28.486 24.6843C28.4107 24.3845 28.4198 24.0754 28.5125 23.7788C28.6052 23.4821 28.7794 23.2051 29.0227 22.9674C29.5298 22.4508 30.2558 22.0957 31.0678 21.9672C32.8044 21.6838 34.4777 22.434 34.7946 23.6341C35.1115 24.8343 33.9495 26.0511 32.2128 26.3378C31.972 26.3853 31.7257 26.4132 31.4776 26.4212V26.4212ZM31.8072 22.5873C31.6156 22.5883 31.4246 22.6039 31.2368 22.634C30.6334 22.7306 30.0929 22.9928 29.7114 23.3741C29.5425 23.5362 29.4208 23.7257 29.3551 23.9291C29.2894 24.1325 29.2812 24.3448 29.3311 24.5509C29.5551 25.3977 30.7804 25.9144 32.0607 25.7078C33.341 25.5011 34.2072 24.6376 33.9833 23.7908C33.8506 23.4264 33.5643 23.1085 33.1718 22.8897C32.7792 22.6709 32.3038 22.5642 31.8241 22.5873H31.8072Z" fill="#093F68"/>
<path d="M25.3174 31.5185C23.7221 31.7719 22.0681 31.6592 20.5516 31.1935C19.0351 30.7279 17.7195 29.929 16.7609 28.8915C14.682 26.6145 14.9144 23.264 17.8299 21.4438C18.4511 21.0537 19.1652 20.777 19.799 20.3869C21.1638 19.5768 21.768 18.5567 22.4103 17.3632C22.5751 17.0598 22.4694 17.0798 22.7737 17.2565C23.0779 17.4332 23.3737 17.6399 23.6568 17.8232C24.3098 18.2456 24.845 18.77 25.2286 19.3635C26.3617 18.8625 27.2941 18.121 27.9202 17.2232C27.953 17.167 28.0006 17.117 28.0597 17.0765C28.1313 17.0467 28.2111 17.0311 28.2921 17.0311C28.373 17.0311 28.4528 17.0467 28.5245 17.0765C30.5527 17.5965 30.7597 19.4101 31.1231 20.807L31.8752 23.6641C32.3198 25.3913 31.8795 27.1872 30.6507 28.659C29.4218 30.1309 27.5043 31.159 25.3174 31.5185V31.5185Z" fill="#FFC9B0"/>
<path d="M23.669 31.9986C22.2574 31.9969 20.866 31.734 19.6067 31.2308C18.3474 30.7276 17.2553 29.9983 16.4182 29.1015C14.1112 26.5778 14.6267 23.0306 17.5675 21.1971C17.9161 20.9854 18.2785 20.7884 18.6535 20.607C18.9662 20.4469 19.2619 20.3003 19.545 20.1336C20.8127 19.3868 21.3662 18.4667 22.0211 17.2465C22.0507 17.1932 22.0676 17.1498 22.0845 17.1198C22.1046 17.0514 22.1466 16.9881 22.2065 16.9362C22.2664 16.8842 22.3423 16.8453 22.4268 16.8231C22.5122 16.8069 22.6016 16.8085 22.6861 16.8278C22.7705 16.8471 22.8471 16.8834 22.9085 16.9331L23.0225 16.9998C23.2423 17.1265 23.4451 17.2732 23.6775 17.4165L23.9268 17.5799C24.5045 17.9564 24.9974 18.4072 25.3845 18.9134C26.2855 18.4501 27.0284 17.8193 27.548 17.0765C27.6088 16.9798 27.6952 16.8945 27.8015 16.8264C27.9239 16.7602 28.0655 16.7193 28.2132 16.7077C28.3609 16.696 28.5099 16.7139 28.6466 16.7598C30.6917 17.2832 31.0931 18.9401 31.4142 20.2736C31.4522 20.4336 31.4903 20.587 31.5283 20.7403L32.2804 23.5974C32.7503 25.4109 32.2908 27.2973 31.0025 28.8442C29.7142 30.3911 27.7019 31.4725 25.4057 31.8519C24.8346 31.9471 24.2527 31.9962 23.669 31.9986ZM22.7183 17.6566C22.0634 18.8634 21.4211 19.8535 20.0521 20.657C19.7436 20.8403 19.4225 20.9904 19.1098 21.157C18.7971 21.3237 18.4084 21.5171 18.0915 21.7171C15.5013 23.3374 15.0576 26.4711 17.1027 28.7181C18.0186 29.6993 19.2692 30.4548 20.7087 30.8963C22.1482 31.3378 23.7171 31.4473 25.2324 31.2118C27.3131 30.8701 29.1371 29.8914 30.3046 28.4903C31.4721 27.0892 31.8878 25.38 31.4607 23.7374L30.7086 20.8803C30.6705 20.727 30.6325 20.567 30.5903 20.4069C30.2818 19.1268 29.9607 17.7999 28.393 17.4065L28.3043 17.3865V17.4065C27.6391 18.3595 26.6499 19.147 25.4479 19.6802C25.3981 19.7019 25.3432 19.7155 25.2866 19.7201C25.23 19.7246 25.1727 19.7201 25.1183 19.7068C25.0641 19.6939 25.0137 19.6725 24.9701 19.6438C24.9266 19.6152 24.8907 19.5799 24.8648 19.5402C24.5002 18.9824 23.9922 18.4908 23.3733 18.0966L23.1155 17.9266C22.9972 17.8499 22.8578 17.7432 22.7183 17.6566Z" fill="#093F68"/>
<path d="M23.3442 24.6208C23.7759 24.6208 24.1259 24.3447 24.1259 24.0041C24.1259 23.6635 23.7759 23.3873 23.3442 23.3873C22.9125 23.3873 22.5625 23.6635 22.5625 24.0041C22.5625 24.3447 22.9125 24.6208 23.3442 24.6208Z" fill="#093F68"/>
<path d="M29.5639 23.7742C29.9956 23.7742 30.3456 23.498 30.3456 23.1574C30.3456 22.8168 29.9956 22.5406 29.5639 22.5406C29.1322 22.5406 28.7822 22.8168 28.7822 23.1574C28.7822 23.498 29.1322 23.7742 29.5639 23.7742Z" fill="#093F68"/>
<path d="M24.9333 26.4078C24.8212 26.4078 24.7137 26.3727 24.6345 26.3101C24.5553 26.2476 24.5107 26.1628 24.5107 26.0744C24.5107 25.986 24.5553 25.9012 24.6345 25.8387C24.7137 25.7762 24.8212 25.741 24.9333 25.741C25.2496 25.7287 25.563 25.6873 25.8671 25.6177C25.6153 25.2049 25.2972 24.8195 24.9206 24.4709C24.8565 24.4019 24.8284 24.3161 24.8422 24.2312C24.856 24.1464 24.9107 24.069 24.9948 24.015C25.0789 23.961 25.1861 23.9347 25.2942 23.9413C25.4023 23.948 25.5031 23.9872 25.5755 24.0508C26.1671 24.6242 26.8432 25.3843 26.7249 25.8377C26.7069 25.9093 26.6681 25.9767 26.6117 26.0345C26.5553 26.0923 26.4826 26.1391 26.3995 26.1711C25.9411 26.3179 25.4532 26.3992 24.9586 26.4111L24.9333 26.4078Z" fill="#093F68"/>
<path d="M18.8312 22.604C18.6071 22.6119 18.3881 22.5493 18.2225 22.4299C18.0569 22.3105 17.9582 22.144 17.9481 21.9672C17.938 21.7904 18.0174 21.6176 18.1687 21.487C18.3201 21.3563 18.531 21.2784 18.7552 21.2704L22.4651 21.0004C22.6892 20.984 22.9124 21.0386 23.0855 21.1521C23.2587 21.2656 23.3676 21.4287 23.3883 21.6055C23.4091 21.7823 23.3399 21.9584 23.1961 22.095C23.0523 22.2316 22.8456 22.3176 22.6214 22.3339L18.9115 22.604H18.8312Z" fill="#093F68"/>
<path d="M25.8709 21.7938C25.7599 21.8034 25.6476 21.7957 25.5404 21.7711C25.4332 21.7465 25.3332 21.7054 25.2461 21.6503C25.159 21.5952 25.0865 21.5271 25.0327 21.4499C24.979 21.3727 24.945 21.2879 24.9328 21.2004C24.9206 21.1128 24.9304 21.0242 24.9616 20.9396C24.9928 20.855 25.0448 20.7761 25.1146 20.7074C25.1845 20.6387 25.2708 20.5815 25.3686 20.5391C25.4665 20.4967 25.574 20.4699 25.685 20.4602L29.323 19.8135C29.4326 19.7911 29.5468 19.7863 29.6588 19.7995C29.7707 19.8126 29.8782 19.8433 29.9749 19.8898C30.0715 19.9363 30.1553 19.9977 30.2213 20.0703C30.2873 20.1428 30.3341 20.2251 30.359 20.3122C30.384 20.3994 30.3864 20.4895 30.3663 20.5774C30.3462 20.6653 30.3039 20.7491 30.242 20.8239C30.18 20.8986 30.0997 20.9628 30.0057 21.0126C29.9117 21.0624 29.806 21.0967 29.6949 21.1137L26.0568 21.7604C25.9971 21.7784 25.9345 21.7896 25.8709 21.7938V21.7938Z" fill="#093F68"/>
<path d="M20.0524 26.2111C19.7641 26.2094 19.4852 26.1302 19.2616 25.9865C19.0381 25.8429 18.8833 25.6434 18.8228 25.421L18.3537 23.6241C18.3308 23.5379 18.3521 23.448 18.4129 23.3741C18.4741 23.3004 18.5698 23.2489 18.6791 23.2307L23.9904 22.3639C24.0448 22.3552 24.1009 22.3549 24.1553 22.3633C24.2098 22.3716 24.2617 22.3883 24.308 22.4124C24.3543 22.4366 24.3941 22.4677 24.4252 22.504C24.4562 22.5403 24.4779 22.5811 24.489 22.624L24.9623 24.4209C25.0262 24.6779 24.9598 24.9445 24.7773 25.1633C24.5947 25.3821 24.3107 25.5357 23.9862 25.591L20.3059 26.1911C20.2224 26.2044 20.1375 26.2111 20.0524 26.2111V26.2111ZM19.2664 23.8175L19.6509 25.2877C19.6615 25.3293 19.6827 25.3688 19.7132 25.4037C19.7437 25.4387 19.7829 25.4684 19.8284 25.491C19.8728 25.5155 19.9232 25.5323 19.9763 25.5404C20.0295 25.5484 20.0842 25.5475 20.1369 25.5377L23.813 24.9376C23.9178 24.9184 24.0093 24.8684 24.069 24.7978C24.1287 24.7272 24.1519 24.6413 24.1341 24.5576L23.7454 23.084L19.2664 23.8175Z" fill="#093F68"/>
<path d="M26.6441 25.1376C26.356 25.135 26.0776 25.0549 25.8549 24.9107C25.6321 24.7664 25.4783 24.5666 25.4188 24.3442L24.9455 22.5473C24.9238 22.4606 24.9466 22.3707 25.0089 22.2972C25.0701 22.2236 25.1658 22.172 25.2751 22.1539L30.5864 21.2871C30.6963 21.27 30.8103 21.2879 30.9033 21.3371C30.9967 21.3854 31.062 21.4609 31.085 21.5471L31.5541 23.344C31.618 23.6011 31.5516 23.8677 31.369 24.0865C31.1865 24.3053 30.9025 24.4589 30.578 24.5142V24.5142L26.9019 25.1143C26.8175 25.1305 26.7309 25.1383 26.6441 25.1376ZM25.8624 22.7406L26.2469 24.2108C26.2699 24.2953 26.3336 24.3694 26.4244 24.4175C26.4693 24.4411 26.5199 24.457 26.5729 24.4645C26.626 24.472 26.6804 24.4707 26.7329 24.4609L30.409 23.8641C30.5138 23.8442 30.6051 23.7934 30.664 23.7221C30.7229 23.6508 30.745 23.5645 30.7259 23.4807L30.3414 22.0072L25.8624 22.7406Z" fill="#093F68"/>
<path d="M14.3819 25.6145C14.3265 25.6189 14.2704 25.6146 14.217 25.6019C14.1636 25.5892 14.1139 25.5683 14.0708 25.5404C14.0276 25.5126 13.9918 25.4783 13.9655 25.4395C13.9391 25.4007 13.9227 25.3582 13.9171 25.3144C13.9116 25.2707 13.917 25.2264 13.9331 25.1843C13.9492 25.1422 13.9757 25.103 14.011 25.0689C14.0823 25.0002 14.1854 24.9566 14.2974 24.9477L18.9454 24.1909C18.9998 24.1822 19.0558 24.182 19.1103 24.1903C19.1648 24.1986 19.2167 24.2153 19.263 24.2395C19.3093 24.2636 19.3491 24.2947 19.3801 24.331C19.4112 24.3673 19.4329 24.4081 19.444 24.451C19.4665 24.5372 19.445 24.6269 19.384 24.7006C19.3231 24.7743 19.2277 24.826 19.1186 24.8444L14.4707 25.6012L14.3819 25.6145Z" fill="#093F68"/>
<path d="M16.9178 28.5182C16.2644 28.6461 15.5734 28.5679 14.9919 28.3002C14.4104 28.0325 13.9841 27.5964 13.8037 27.0846C12.6713 24.5443 16.246 25.4177 16.246 25.4177" fill="#FFC9B0"/>
<path d="M16.2968 28.9081C15.6421 28.9147 15.0032 28.7497 14.4802 28.439C13.9572 28.1283 13.5796 27.6894 13.4066 27.1912C13.0305 26.3544 13.0855 25.731 13.5672 25.341C14.4123 24.6509 16.1742 25.0609 16.3728 25.1109C16.4799 25.1375 16.5691 25.1964 16.6211 25.2749C16.673 25.3534 16.6832 25.4449 16.6496 25.5293C16.616 25.6138 16.5412 25.6842 16.4418 25.7252C16.3423 25.7661 16.2263 25.7742 16.1193 25.7477C15.7433 25.6543 14.5855 25.4676 14.1756 25.8044C13.8756 26.0477 14.0235 26.5711 14.201 26.9712C14.9193 28.5748 16.7362 28.2114 16.8081 28.1947C16.9156 28.1722 17.0301 28.1841 17.1266 28.2278C17.2231 28.2715 17.2939 28.3435 17.3236 28.4281C17.341 28.4707 17.3474 28.5157 17.3424 28.5604C17.3373 28.605 17.3208 28.6484 17.294 28.688C17.2672 28.7275 17.2305 28.7623 17.1862 28.7904C17.1419 28.8185 17.0909 28.8393 17.0362 28.8515C16.794 28.8959 16.5454 28.9149 16.2968 28.9081V28.9081Z" fill="#093F68"/>
<path d="M26.754 27.4313L23.3314 26.9246C23.3314 26.9246 22.5582 28.7848 23.8976 29.5249C25.6681 30.4984 26.754 27.4313 26.754 27.4313Z" fill="#093F68"/>
<path d="M25.1549 32.9497L24.267 33.0133C23.9254 33.0378 23.6736 33.2761 23.7046 33.5457L23.744 33.8877C23.775 34.1572 24.0771 34.3559 24.4188 34.3314L25.3067 34.2677C25.6483 34.2433 25.9001 34.0049 25.8691 33.7354L25.8297 33.3934C25.7987 33.1238 25.4966 32.9252 25.1549 32.9497Z" fill="#F56132"/>
<path d="M24.3668 34.6657C24.1069 34.6665 23.8562 34.5901 23.6644 34.4518C23.4727 34.3134 23.3538 34.1232 23.3316 33.919L23.2893 33.5856C23.2647 33.3681 23.3505 33.1518 23.528 32.9842C23.7055 32.8167 23.9601 32.7116 24.2358 32.6921L25.1231 32.6288C25.3981 32.6093 25.6717 32.6766 25.884 32.816C26.0962 32.9553 26.2298 33.1553 26.2555 33.3722L26.2978 33.7056C26.3224 33.9231 26.2366 34.1394 26.0591 34.307C25.8816 34.4745 25.627 34.5796 25.3513 34.5991L24.464 34.6624L24.3668 34.6657ZM25.2119 33.2789H25.1907L24.3034 33.3422C24.2507 33.3464 24.2021 33.3668 24.1682 33.3989C24.1344 33.4304 24.1177 33.4711 24.1217 33.5122L24.164 33.8456C24.1654 33.8656 24.1722 33.8851 24.1839 33.9029C24.1955 33.9207 24.2118 33.9364 24.2316 33.949C24.2511 33.9625 24.2739 33.9727 24.2986 33.979C24.3233 33.9854 24.3494 33.9876 24.3752 33.9856L25.2668 33.9223C25.2927 33.9206 25.318 33.9149 25.3411 33.9054C25.3642 33.8959 25.3846 33.8828 25.4011 33.8669C25.4177 33.8511 25.43 33.8328 25.4375 33.8131C25.4449 33.7934 25.4472 33.7727 25.4443 33.7523L25.4062 33.4189C25.4013 33.382 25.3799 33.3476 25.3458 33.322C25.3118 33.2963 25.2673 33.281 25.2203 33.2789H25.2119Z" fill="#093F68"/>
<path d="M26.2635 38.1595L25.7945 42.3134L24.2227 38.7096L24.2607 34.3423L25.4776 34.2556L26.2635 38.1595Z" fill="#F56132"/>
<path d="M25.7951 42.6468C25.707 42.6472 25.621 42.6259 25.549 42.5859C25.477 42.5458 25.4227 42.489 25.3936 42.4234L23.826 38.8163C23.8158 38.78 23.8158 38.7425 23.826 38.7062L23.8598 34.3423C23.8594 34.2588 23.8986 34.1783 23.9698 34.1166C24.041 34.0548 24.139 34.0164 24.2443 34.0089L25.4613 33.9189C25.5682 33.9111 25.6749 33.9357 25.7596 33.9877C25.8444 34.0397 25.9009 34.1152 25.9176 34.1989L26.7035 38.1062C26.7098 38.1326 26.7098 38.1597 26.7035 38.1862L26.2303 42.3401C26.2223 42.4162 26.1815 42.4879 26.1146 42.5432C26.0477 42.5984 25.9587 42.6338 25.8627 42.6435L25.7951 42.6468ZM24.65 38.6462L25.55 40.7199L25.8415 38.1662L25.1232 34.609L24.7007 34.6423L24.65 38.6462Z" fill="#093F68"/>
<path d="M43.8581 23.7941C43.7569 23.7932 43.6594 23.7637 43.5835 23.7108C43.5413 23.6823 43.5066 23.6476 43.4815 23.6086C43.4563 23.5696 43.4411 23.527 43.4368 23.4834C43.4325 23.4397 43.4391 23.3958 43.4563 23.3542C43.4735 23.3126 43.5009 23.274 43.537 23.2407C43.7356 23.064 43.7187 22.4806 43.6511 22.1439C43.6338 22.0678 43.6506 21.9893 43.6986 21.9219C43.7466 21.8545 43.8228 21.8023 43.9142 21.7743C44.0055 21.7464 44.1064 21.7443 44.1995 21.7686C44.2925 21.7928 44.372 21.8418 44.4243 21.9072C44.5489 22.0665 44.7027 22.2103 44.8807 22.3339C44.666 21.8529 44.3734 21.3957 44.0102 20.9737C43.9795 20.937 43.9583 20.8959 43.9478 20.8526C43.9373 20.8094 43.9378 20.765 43.9492 20.7219C43.9606 20.6788 43.9826 20.638 44.0142 20.6016C44.0457 20.5653 44.086 20.5343 44.1328 20.5103C44.2264 20.4624 44.3403 20.4457 44.4496 20.4638C44.5589 20.4819 44.6546 20.5334 44.7159 20.607C45.7257 21.8239 45.9835 22.6073 45.5103 22.9407C45.4291 22.9968 45.3333 23.0382 45.2296 23.0618C45.1259 23.0854 45.0168 23.0907 44.9102 23.0774C44.7718 23.0583 44.6396 23.0175 44.5215 22.9574C44.5012 23.221 44.382 23.474 44.1793 23.6841C44.1388 23.7195 44.0892 23.7476 44.0338 23.7666C43.9784 23.7856 43.9185 23.795 43.8581 23.7941Z" fill="#093F68"/>
<path d="M105.674 42.1567V72.01" stroke="#093F68"/>
</svg>
