<svg width="107" height="72" viewBox="0 0 107 72" fill="none" xmlns="http://www.w3.org/2000/svg">
<path d="M79.4959 71.9005H103.727C103.832 71.9005 103.932 71.8686 104.006 71.8119C104.08 71.7552 104.122 71.6783 104.122 71.5981C104.122 71.5179 104.08 71.441 104.006 71.3843C103.932 71.3276 103.832 71.2957 103.727 71.2957H79.8992V64.831C79.8992 64.7508 79.8575 64.6739 79.7834 64.6172C79.7092 64.5605 79.6087 64.5286 79.5038 64.5286H64.9606V58.46C64.9606 58.3798 64.9189 58.3029 64.8448 58.2462C64.7706 58.1895 64.67 58.1576 64.5652 58.1576H51.6827V51.4571C51.6827 51.3769 51.641 51.3 51.5669 51.2433C51.4927 51.1866 51.3921 51.1547 51.2873 51.1547H19.3816C19.2767 51.1547 19.1761 51.1866 19.102 51.2433C19.0278 51.3 18.9862 51.3769 18.9862 51.4571C18.9862 51.5373 19.0278 51.6142 19.102 51.6709C19.1761 51.7276 19.2767 51.7594 19.3816 51.7594H50.884V58.46C50.884 58.5402 50.9256 58.6171 50.9998 58.6738C51.0739 58.7305 51.1745 58.7624 51.2794 58.7624H64.1619V64.831C64.1619 64.9112 64.2035 64.9881 64.2777 65.0448C64.3518 65.1015 64.4524 65.1334 64.5573 65.1334H79.1005V71.5981C79.1005 71.6783 79.1421 71.7552 79.2163 71.8119C79.2904 71.8686 79.391 71.9005 79.4959 71.9005Z" fill="#093F68"/>
<path d="M12.3984 12.3522L11.1746 10.8704C11.1746 10.8704 11.5268 9.91265 11.3216 9.591C11.1164 9.26934 10.3683 8.77448 10.1902 8.80904C10.012 8.8436 9.85326 9.16279 9.85326 9.16279C9.85326 9.16279 8.95409 8.28702 8.6679 8.46157C8.38171 8.63612 7.19742 10.2899 7.67455 11.1515C8.15168 12.013 10.9312 14.3954 10.9312 14.3954L12.3984 12.3522Z" fill="#FFC9B0"/>
<path d="M10.8787 14.697C10.7892 14.6839 10.7064 14.6477 10.6439 14.5945C10.3542 14.3459 7.80388 12.1449 7.31132 11.2565C6.74314 10.2252 8.06776 8.43004 8.41238 8.21831C8.46887 8.18354 8.53478 8.1586 8.60599 8.14503C8.67721 8.13147 8.75221 8.12957 8.82633 8.13946C9.20377 8.22961 9.54094 8.41012 9.78738 8.65396C9.86464 8.59006 9.96209 8.54265 10.0713 8.51583C10.5773 8.41402 11.4698 9.1418 11.6774 9.47299C11.8849 9.80419 11.7274 10.4665 11.6039 10.837L12.7275 12.2026C12.7661 12.2499 12.7883 12.3035 12.7916 12.3578C12.795 12.4122 12.7795 12.4653 12.7467 12.5117L11.2828 14.5585C11.2531 14.5995 11.2107 14.6338 11.1591 14.6585C11.1075 14.6833 11.0482 14.6978 10.9861 14.7009C10.9507 14.7047 10.9143 14.7034 10.8787 14.697V14.697ZM8.84048 8.7816C8.51036 9.14249 7.69337 10.4287 8.05115 11.0519C8.40893 11.6751 9.94318 13.0747 10.8585 13.8794L11.9534 12.35L10.8633 11.023C10.832 10.9856 10.8111 10.9439 10.802 10.9008C10.7928 10.8577 10.7955 10.8142 10.8099 10.7731C10.9603 10.4368 11.0219 10.0767 10.9915 9.71322C10.8085 9.49812 10.5736 9.31091 10.3009 9.16268C10.2694 9.20234 10.2434 9.24461 10.2232 9.28884C10.1986 9.33682 10.1577 9.3782 10.1047 9.40892C10.0517 9.43964 9.98837 9.45863 9.92093 9.46404C9.85125 9.47101 9.77922 9.46315 9.71247 9.44129C9.64573 9.41943 9.58674 9.38439 9.54175 9.33987C9.33558 9.13443 9.10019 8.94704 8.84048 8.7816Z" fill="#093F68"/>
<path d="M9.86119 11.9232C9.80479 11.9148 9.75067 11.8971 9.70253 11.8714C9.6544 11.8456 9.6134 11.8125 9.58236 11.7742C9.42721 11.558 9.35594 11.3149 9.3776 11.076C9.25929 11.1144 9.13074 11.1337 8.99948 11.1327C8.89908 11.1291 8.79949 11.1089 8.70746 11.0734C8.61543 11.038 8.53309 10.9881 8.46603 10.9272C8.07208 10.562 8.43772 9.90015 9.55803 8.94719C9.62815 8.89643 9.72222 8.86926 9.82141 8.87113C9.9206 8.87299 10.0176 8.90374 10.093 8.95722C10.1683 9.01071 10.2165 9.08298 10.2279 9.15958C10.2393 9.23617 10.213 9.31143 10.1543 9.3703C9.75436 9.69932 9.41379 10.0692 9.14085 10.4709C9.32306 10.3826 9.48812 10.2756 9.63188 10.1525C9.68997 10.1016 9.77037 10.0689 9.85948 10.0599C9.94858 10.0509 10.0409 10.0663 10.1209 10.1033C10.201 10.1405 10.2636 10.1972 10.2982 10.2638C10.3328 10.3304 10.3372 10.4028 10.3106 10.4686C10.1931 10.7572 10.0913 11.2809 10.2433 11.469C10.2869 11.5199 10.3111 11.5786 10.3129 11.6378C10.3147 11.6971 10.294 11.7544 10.2534 11.8026C10.2128 11.8509 10.1541 11.888 10.0844 11.9094C10.0147 11.9308 9.93711 11.9356 9.86119 11.9232Z" fill="#093F68"/>
<path d="M45.0619 16.8198L46.7194 15.7697C46.7194 15.7697 46.7086 14.7575 47.0071 14.5113C47.3055 14.2651 48.1855 14.0142 48.3431 14.099C48.5008 14.1839 48.545 14.5335 48.545 14.5335C48.545 14.5335 49.6956 13.9648 49.9053 14.2136C50.1149 14.4624 50.6915 16.3801 49.9505 17.0591C49.2094 17.7382 45.7733 19.1894 45.7733 19.1894L45.0619 16.8198Z" fill="#FFC9B0"/>
<path d="M45.7069 19.4857C45.6727 19.4836 45.6386 19.4785 45.6054 19.4705C45.5482 19.4492 45.4976 19.418 45.4575 19.3795C45.4175 19.3411 45.3892 19.2964 45.375 19.2492L44.6544 16.8629C44.6388 16.8093 44.6418 16.7543 44.6631 16.7036C44.6845 16.6529 44.7234 16.6085 44.7759 16.5749L46.2989 15.6088C46.3053 15.2208 46.3675 14.5534 46.6847 14.2916C46.9502 14.0741 48.068 13.5801 48.53 13.8515C48.6248 13.9078 48.7017 13.9803 48.7542 14.0627C49.0741 13.9108 49.4517 13.8394 49.8385 13.8576C49.9118 13.8707 49.982 13.8947 50.045 13.9283C50.108 13.962 50.1625 14.0045 50.2054 14.0534C50.4581 14.3547 51.1174 16.4439 50.2327 17.2607C49.4724 17.9583 46.3102 19.3066 45.9524 19.4551C45.8788 19.4861 45.7926 19.4968 45.7069 19.4857ZM45.4859 16.9416L46.0186 18.7179C47.153 18.2202 49.1359 17.3046 49.6299 16.8519C50.1239 16.3992 49.8148 14.9075 49.6384 14.4646C49.334 14.5452 49.0461 14.6554 48.7813 14.7925C48.7237 14.8216 48.656 14.8377 48.5853 14.839C48.5146 14.8402 48.4435 14.8267 48.3796 14.7997C48.3169 14.7745 48.2629 14.7375 48.2228 14.6922C48.1828 14.647 48.1582 14.5952 48.1515 14.542C48.1463 14.495 48.1356 14.4483 48.1193 14.4024C47.8193 14.466 47.5421 14.5753 47.3034 14.7242C47.153 15.0606 47.0914 15.4206 47.1218 15.7841C47.1218 15.8273 47.1099 15.8695 47.0867 15.9077C47.0636 15.946 47.0298 15.9795 46.9877 16.0059L45.4859 16.9416Z" fill="#093F68"/>
<path d="M40.8758 49.1366L35.8024 48.8543C36.0874 43.6605 35.4788 41.3921 34.6806 40.4181C34.0353 39.6263 25.18 36.1041 25.18 36.1041L28.4119 31.8479C30.6979 32.6925 37.8348 36.7321 39.6457 38.9479C41.3701 41.0375 40.9166 46.8644 40.8758 49.1366Z" fill="#093F68"/>
<path d="M35.7516 49.1529C35.6621 49.1398 35.5793 49.1036 35.5169 49.0504C35.481 49.0189 35.4532 48.9827 35.4351 48.9437C35.417 48.9047 35.409 48.8637 35.4116 48.8233C35.6499 44.4861 35.2935 41.7042 34.3529 40.5558C33.9889 40.1093 29.3242 38.0723 25.02 36.3618C24.9706 36.3419 24.9264 36.3144 24.8902 36.2812C24.8541 36.248 24.8268 36.2099 24.8101 36.1691C24.7933 36.1283 24.7875 36.0858 24.7931 36.0443C24.7986 36.0028 24.8152 35.9631 24.8421 35.9279L28.0705 31.6681C28.118 31.6057 28.1945 31.5604 28.2857 31.5407C28.3769 31.5211 28.4764 31.5285 28.5653 31.5615C31.0282 32.4725 38.1603 36.5634 39.9785 38.7834C41.5513 40.7063 41.3935 45.3679 41.3009 48.153C41.2872 48.5368 41.2773 48.8752 41.2688 49.1587C41.2675 49.2389 41.2251 49.3134 41.1508 49.366C41.0765 49.4185 40.9764 49.4449 40.8723 49.4393L35.7989 49.157L35.7516 49.1529ZM25.7393 35.9735C27.845 36.8187 34.3851 39.4797 35.0183 40.2482C36.0378 41.4972 36.4323 44.2205 36.2202 48.5678L40.4961 48.8072C40.5011 48.5905 40.5098 48.353 40.5181 48.0939C40.6039 45.559 40.7602 40.8358 39.3269 39.0808C37.6277 37.0073 31.0438 33.2465 28.5832 32.2287L25.7393 35.9735Z" fill="#093F68"/>
<path d="M35.8026 48.8545L35.3551 51.4669L43.9545 51.4568C43.991 51.4566 44.0257 51.4476 44.0537 51.431C44.0817 51.4144 44.1017 51.391 44.1107 51.3642C44.1198 51.3373 44.1174 51.3085 44.104 51.2816C44.0906 51.2548 44.0668 51.2314 44.036 51.2148L40.5524 48.7116L35.8026 48.8545Z" fill="#00AA92"/>
<path d="M35.3047 51.7654C35.2011 51.7499 35.1072 51.7035 35.0436 51.6366C34.9799 51.5696 34.9518 51.4875 34.9654 51.4083L35.4129 48.7959C35.4222 48.7269 35.4623 48.664 35.5264 48.6179C35.5904 48.5717 35.6746 48.545 35.7646 48.5423L40.5149 48.3965C40.5683 48.395 40.6222 48.402 40.6734 48.417C40.7245 48.4321 40.7718 48.4548 40.8123 48.4839L44.2813 50.9788C44.3712 51.0346 44.4393 51.1087 44.477 51.1917C44.5148 51.2747 44.5206 51.363 44.4937 51.4454C44.4646 51.5324 44.4009 51.6086 44.3112 51.6637C44.2215 51.7188 44.1102 51.75 43.9925 51.7531L35.3848 51.7651L35.3047 51.7654ZM36.1554 49.1368L35.8102 51.1521L43.3923 51.1426L40.4262 49.0079L36.1554 49.1368Z" fill="#093F68"/>
<path d="M34.0073 27.5904L33.3284 33.8919L20.4547 32.8821L20.7896 26.3912L8.7156 13.7696L12.4589 12.2082L22.9671 21.1135C25.1705 21.3884 31.4843 22.1444 33.3398 21.9722L45.0779 16.7303L47.7662 18.8969C47.7662 18.8969 38.9071 24.4445 34.0073 27.5904Z" fill="#00AA92"/>
<path d="M20.4325 33.1728C20.3413 33.1593 20.257 33.1217 20.1944 33.0667C20.1242 33.0037 20.0876 32.9233 20.0925 32.8432L20.4208 26.4616L8.40504 13.9436C8.3711 13.9081 8.34682 13.868 8.33378 13.8257C8.32075 13.7835 8.31926 13.7402 8.3294 13.6987C8.33954 13.6571 8.36109 13.6182 8.39264 13.5846C8.42419 13.5509 8.46502 13.5233 8.51247 13.5034L12.2602 11.9397C12.3367 11.9076 12.4268 11.8974 12.5155 11.9107C12.6042 11.924 12.6863 11.96 12.7483 12.0128L23.1511 20.8318C28.1818 21.4568 31.9123 21.7707 33.1936 21.6778L44.8508 16.4636C44.9273 16.4316 45.0173 16.4214 45.106 16.4347C45.1948 16.4479 45.2769 16.4839 45.3388 16.5367L48.0272 18.7033C48.0658 18.7346 48.096 18.7714 48.1161 18.8113C48.1361 18.8512 48.1455 18.8934 48.1436 18.9351C48.1422 18.9767 48.1297 19.017 48.1069 19.0536C48.0841 19.0902 48.0515 19.1224 48.0111 19.148C47.9212 19.205 39.2525 24.6464 34.393 27.7677L33.7345 33.9498C33.7267 34.0279 33.6797 34.0987 33.6034 34.1472C33.5271 34.1958 33.4275 34.2183 33.3255 34.2101L20.4518 33.2002L20.4325 33.1728ZM9.30062 13.8818L21.1321 26.2129C21.1872 26.2728 21.2159 26.3439 21.2136 26.415L20.8942 32.605L32.9841 33.5618L33.6164 27.532C33.6246 27.455 33.671 27.3852 33.7459 27.337C38.0575 24.5623 45.5343 19.861 47.1633 18.8372L45.0109 17.1184L33.5528 22.2461C33.5089 22.2648 33.4607 22.2772 33.4103 22.283C31.5548 22.4551 25.4625 21.7385 22.9301 21.4204C22.8366 21.4097 22.7491 21.3737 22.6832 21.3191L12.393 12.5904L9.30062 13.8818Z" fill="#093F68"/>
<path d="M12.7511 49.1953C12.7511 49.1953 17.649 45.0783 19.1838 42.7574C20.7186 40.4364 21.051 32.9316 21.051 32.9316L26.9778 33.8195C26.9778 33.8195 27.6636 39.9855 24.6792 44.0124C21.6949 48.0393 16.3978 51.2605 16.3978 51.2605L12.7511 49.1953Z" fill="#093F68"/>
<path d="M16.3449 51.5679C16.2841 51.5578 16.226 51.5376 16.1748 51.5087L12.5262 49.431C12.4806 49.4044 12.4422 49.3709 12.4135 49.3328C12.3848 49.2948 12.3666 49.2529 12.3598 49.2101C12.3525 49.1672 12.3568 49.1241 12.3727 49.0837C12.3886 49.0434 12.4156 49.0066 12.452 48.9759C12.4993 48.934 17.3299 44.859 18.8261 42.5997C20.3224 40.3403 20.6498 32.9817 20.6508 32.9053C20.6525 32.8628 20.6657 32.8217 20.6897 32.7845C20.7137 32.7473 20.7478 32.715 20.7899 32.6895C20.8321 32.6641 20.8812 32.6461 20.9342 32.6368C20.9872 32.6274 21.0428 32.6269 21.0975 32.6354L27.0243 33.5232C27.1153 33.5353 27.2001 33.5713 27.264 33.625C27.3279 33.6787 27.3669 33.7468 27.3743 33.8176C27.4026 34.0729 28.0327 40.1204 25.0261 44.1838C22.0195 48.2472 16.7081 51.4814 16.6562 51.5043C16.6146 51.5318 16.5654 51.5518 16.5117 51.5628C16.458 51.5737 16.4011 51.5755 16.3449 51.5679V51.5679ZM13.3369 49.1636L16.3658 50.8851C17.3998 50.2254 21.7812 47.3234 24.3333 43.8564C26.8853 40.3895 26.6876 35.255 26.6027 34.0909L21.4138 33.3136C21.326 34.8316 20.9279 40.826 19.5282 42.9192C18.1916 44.9483 14.4253 48.2334 13.3369 49.1636V49.1636Z" fill="#093F68"/>
<path d="M14.4438 47.2603L12.176 49.2794L17.9043 54.6107C17.9457 54.6398 17.9934 54.6574 18.0407 54.6612C18.0879 54.6649 18.1322 54.6546 18.1672 54.6317C18.2021 54.6087 18.2259 54.5744 18.2352 54.5336C18.2445 54.4928 18.2387 54.4476 18.2187 54.4046L17.7542 49.9891L14.4438 47.2603Z" fill="#00AA92"/>
<path d="M17.9345 54.9709C17.8573 54.9446 17.7832 54.9061 17.7159 54.8573L17.6761 54.8245L11.9442 49.492C11.907 49.4574 11.8762 49.4176 11.8537 49.3749C11.8311 49.3321 11.8171 49.2872 11.8127 49.2428C11.8085 49.1979 11.8142 49.1545 11.8293 49.1152C11.8444 49.0759 11.8686 49.0414 11.9005 49.0139L14.1683 46.9948C14.2272 46.9431 14.3095 46.9181 14.3993 46.9247C14.489 46.9312 14.5796 46.9689 14.6532 47.0303L17.9667 49.7635C18.0095 49.7991 18.0451 49.8417 18.0712 49.8881C18.0972 49.9345 18.113 49.9837 18.1175 50.0322L18.5752 54.3988C18.6122 54.5027 18.617 54.6084 18.589 54.7027C18.5609 54.797 18.5012 54.8758 18.4174 54.929C18.3525 54.97 18.2756 54.995 18.1921 55.0022C18.1086 55.0095 18.0206 54.9988 17.9345 54.9709V54.9709ZM12.689 49.3306L17.8306 54.1129L17.4097 50.1087L14.5071 47.7145L12.689 49.3306Z" fill="#093F68"/>
<path d="M31.1114 22.0059L28.0692 31.2331L25.2531 21.4896L31.1114 22.0059Z" fill="#F5F8FA"/>
<path d="M28.018 31.5316C27.9382 31.5199 27.8634 31.4897 27.8038 31.4452C27.7441 31.4006 27.7024 31.3439 27.6843 31.2826L24.8687 21.5361C24.8557 21.4899 24.8566 21.4427 24.8712 21.3982C24.8858 21.3536 24.9137 21.3129 24.9527 21.2792C24.9916 21.2453 25.0408 21.2192 25.0964 21.2031C25.1519 21.187 25.2124 21.1812 25.273 21.1864L31.1312 21.7026C31.1891 21.7078 31.2457 21.7228 31.2967 21.7465C31.3478 21.7702 31.3922 21.802 31.4266 21.8397C31.4611 21.8773 31.4849 21.9199 31.4962 21.9643C31.5076 22.0087 31.5062 22.0539 31.4922 22.0966L28.4496 31.3268C28.4283 31.3919 28.3788 31.4482 28.309 31.4866C28.2393 31.525 28.1533 31.5434 28.0649 31.5386L28.018 31.5316ZM25.7502 21.8366L28.0894 29.9224L30.6027 22.2634L25.7502 21.8366Z" fill="#093F68"/>
<path d="M27.082 20.4242L29.7654 20.6373L29.7042 21.8236C29.6922 22.0555 29.561 22.2685 29.3393 22.4156C29.1175 22.5627 28.8236 22.6318 28.522 22.6079L28.1285 22.5767C27.827 22.5527 27.5425 22.4376 27.3377 22.2567C27.1329 22.0757 27.0246 21.8437 27.0366 21.6118L27.0978 20.4254L27.082 20.4242Z" fill="#FFC9B0"/>
<path d="M27.9576 22.8624C27.6037 22.809 27.2774 22.6626 27.0353 22.4486C26.7595 22.2045 26.613 21.892 26.6276 21.5791L26.6909 20.3912C26.6946 20.311 26.7396 20.2372 26.8159 20.186C26.8923 20.1349 26.9938 20.1106 27.0981 20.1184L29.7803 20.3334C29.8842 20.3411 29.9827 20.38 30.0541 20.4418C30.1242 20.5048 30.1609 20.5852 30.1559 20.6653L30.0965 21.8538C30.0787 22.166 29.901 22.4522 29.6023 22.6501C29.3036 22.848 28.9081 22.9415 28.502 22.9102V22.9102L28.1069 22.8786L27.9576 22.8624ZM27.4611 20.7577L27.4138 21.6417C27.4076 21.7938 27.4795 21.9453 27.6138 22.0637C27.6795 22.1227 27.7592 22.1717 27.848 22.2076C27.9368 22.2435 28.0329 22.2657 28.1306 22.2728L28.5257 22.3044C28.7236 22.3201 28.9166 22.2747 29.0622 22.1783C29.2078 22.0818 29.2943 21.9422 29.3026 21.79L29.346 20.9053L27.4611 20.7577Z" fill="#093F68"/>
<path d="M19.9805 15.5672C19.8203 15.4012 19.6882 15.2208 19.5879 15.0307C18.5032 13.206 17.79 11.2779 17.4749 9.31839C17.3438 8.76057 17.3629 8.19508 17.531 7.65787C17.9044 6.69406 19.0572 6.08894 20.142 5.55326C20.7242 5.26381 21.0184 5.32319 21.456 4.89572C21.9295 4.49332 22.4972 4.16363 23.1325 3.92196C25.5662 2.89933 28.6358 3.19074 31.4494 3.66735C32.6518 3.87197 33.887 4.11826 34.8774 4.69534C35.8678 5.27243 36.6112 6.26267 36.337 7.16172C37.7561 7.27018 38.5116 7.44154 38.7715 8.65946C39.1714 10.5567 38.1935 15.564 38.1935 15.564L36.5158 15.3525L23.6821 15.7695C22.8488 15.7948 20.75 16.1479 20.0925 15.685C20.0513 15.648 20.0139 15.6085 19.9805 15.5672V15.5672Z" fill="#725858"/>
<path d="M20.6692 16.1972C20.384 16.1665 20.1118 16.0713 19.8871 15.9239C19.809 15.8693 19.7374 15.8094 19.6735 15.7449C19.4954 15.5587 19.3469 15.3575 19.2315 15.1458C18.1306 13.2926 17.405 11.3351 17.0815 9.34533C16.9431 8.74552 16.9667 8.13786 17.1508 7.56123C17.55 6.54004 18.6835 5.90753 19.917 5.29918C20.1057 5.20606 20.3056 5.12637 20.5144 5.06101C20.7733 4.99169 20.9982 4.86757 21.1645 4.70213C21.6689 4.2772 22.2707 3.92801 22.9431 3.67016C25.5327 2.57901 28.7426 2.91595 31.525 3.38789C32.7586 3.59718 34.048 3.85465 35.1314 4.47322C36.0649 5.0081 36.882 5.94202 36.8189 6.91861C38.0389 7.04319 38.9142 7.33356 39.1934 8.64929C39.6011 10.5477 38.6588 15.4409 38.6152 15.6488C38.6016 15.728 38.5475 15.7977 38.4647 15.8428C38.3819 15.8878 38.2772 15.9044 38.1736 15.8889L36.5311 15.6826L23.7418 16.0971C23.5566 16.103 23.3004 16.1259 23.0036 16.1519C22.2391 16.2523 21.4532 16.2675 20.6692 16.1972V16.1972ZM30.5146 3.83978C28.1017 3.47833 25.4738 3.32044 23.3514 4.20903C22.7616 4.43501 22.2317 4.73866 21.7839 5.10726C21.5439 5.33841 21.2285 5.51546 20.8668 5.62214C20.6928 5.67526 20.5262 5.74048 20.3689 5.81703C19.2575 6.36711 18.232 6.93007 17.908 7.76959C17.7611 8.26387 17.7458 8.7822 17.8632 9.29401C18.1745 11.2196 18.8773 13.1141 19.9452 14.9067C20.0341 15.0725 20.1482 15.2304 20.2851 15.3772V15.3772C20.3216 15.4128 20.3614 15.4464 20.404 15.4777C20.7612 15.7302 22.1366 15.6025 22.8798 15.5423C23.1932 15.5127 23.4655 15.4892 23.6908 15.4831L36.5201 15.0685L36.5982 15.0802L37.9074 15.2457C38.093 14.1619 38.7578 10.2805 38.4287 8.71847C38.1994 7.7195 37.7235 7.5992 36.3684 7.49114C36.3105 7.4866 36.2539 7.47229 36.2024 7.44923C36.151 7.42618 36.1061 7.39495 36.0709 7.35777C36.0355 7.32068 36.0107 7.27852 35.9982 7.2343C35.9857 7.19009 35.9858 7.14489 35.9986 7.10195C36.2472 6.28176 35.4867 5.41451 34.7036 4.96034C33.7554 4.41715 32.5621 4.18326 31.4183 3.98742C31.1178 3.93423 30.8165 3.88502 30.5146 3.83978V3.83978Z" fill="#093F68"/>
<path d="M36.4224 17.5267C37.8581 17.5149 38.9478 16.7276 38.8562 15.7682C38.7647 14.8088 37.5266 14.0407 36.0909 14.0524C34.6551 14.0642 33.5654 14.8515 33.657 15.8109C33.7485 16.7702 34.9866 17.5384 36.4224 17.5267Z" fill="#FFC9B0"/>
<path d="M35.7581 17.787C34.415 17.5858 33.3512 16.7834 33.2603 15.8174C33.2367 15.5386 33.2925 15.263 33.4237 15.0101C33.5549 14.7573 33.7583 14.5333 34.0195 14.3541C34.5674 13.9617 35.2927 13.7442 36.0627 13.7415C37.7108 13.7281 39.1418 14.6315 39.2506 15.7502C39.3593 16.8689 38.0989 17.7978 36.4503 17.8142C36.2204 17.8233 35.9885 17.8142 35.7581 17.787V17.787ZM36.6508 14.3991C36.4736 14.3735 36.2947 14.361 36.1165 14.362C35.5442 14.365 35.0046 14.525 34.5936 14.8137C34.4126 14.9355 34.2711 15.0883 34.1792 15.2614C34.0872 15.4344 34.0471 15.6234 34.0616 15.815C34.1387 16.6043 35.1917 17.2367 36.4064 17.2288C37.6211 17.2209 38.5539 16.5675 38.4769 15.7782C38.4102 15.4334 38.1944 15.1091 37.8653 14.8588C37.5361 14.6085 37.1132 14.4472 36.6664 14.4015L36.6508 14.3991Z" fill="#093F68"/>
<path d="M29.284 21.4993C27.7711 21.5055 26.2601 21.1755 24.9302 20.5486C23.6004 19.9217 22.5074 19.0241 21.7808 17.9622C20.2091 15.6353 20.9378 12.6668 23.911 11.4402C24.5448 11.1769 25.2471 11.0279 25.8926 10.7663C27.2779 10.2297 27.9927 9.39977 28.7693 8.4198C28.9681 8.17092 28.8674 8.17421 29.1214 8.37456C29.3754 8.57492 29.617 8.80097 29.8505 9.00437C30.3891 9.47299 30.8032 10.0167 31.0666 10.6013C32.1904 10.3095 33.1657 9.7745 33.882 9.0571C33.9209 9.01137 33.9725 8.97317 34.0333 8.94503C34.1041 8.92827 34.1802 8.92538 34.255 8.93659C34.3298 8.9478 34.4012 8.97278 34.4628 9.00937C36.2571 9.75587 36.1702 11.4087 36.2917 12.71L36.5484 15.3729C36.6942 16.9813 36.0119 18.5287 34.6507 19.6767C33.2894 20.8248 31.3599 21.4801 29.284 21.4993V21.4993Z" fill="#FFC9B0"/>
<path d="M27.6886 21.7012C26.3845 21.5044 25.1392 21.0762 24.0528 20.4513C22.9663 19.8264 22.0691 19.022 21.4332 18.103C19.6886 15.5235 20.7091 12.4181 23.7077 11.1831C24.0622 11.0418 24.4274 10.9155 24.8017 10.8049C25.1151 10.7049 25.4109 10.6145 25.6981 10.5044C26.9839 10.0111 27.6366 9.26365 28.4289 8.26155C28.4644 8.21788 28.4867 8.1814 28.5069 8.15687C28.5359 8.09835 28.5844 8.04753 28.6478 8.0093C28.7111 7.97107 28.7872 7.94669 28.8687 7.93852C28.9501 7.93586 29.0325 7.94969 29.1075 7.97865C29.1826 8.00762 29.2479 8.05072 29.2969 8.10373L29.3921 8.17923C29.5757 8.3231 29.7406 8.48254 29.9333 8.6431L30.1386 8.8239C30.6147 9.24105 31.0009 9.71306 31.281 10.22C32.1845 9.92974 32.9678 9.46766 33.5618 8.87431C33.6329 8.79612 33.7258 8.73172 33.8344 8.68548C33.9577 8.64309 34.0948 8.62611 34.2331 8.63612C34.3714 8.64613 34.5063 8.6828 34.6255 8.74275C36.4349 9.49458 36.5517 11.034 36.6438 12.2727C36.6544 12.4213 36.666 12.5639 36.6777 12.7065L36.9343 15.3693C37.0903 17.0585 36.3764 18.6843 34.9487 19.8914C33.5209 21.0984 31.4957 21.7883 29.3158 21.8102C28.7735 21.8164 28.2283 21.7799 27.6886 21.7012V21.7012ZM29.0102 8.72529C28.2199 9.71545 27.4746 10.5133 26.0863 11.0433C25.7732 11.1648 25.4534 11.2547 25.139 11.3608C24.8245 11.4668 24.4356 11.5861 24.1121 11.7214C21.4702 12.8139 20.5795 15.559 22.1245 17.8544C22.8202 18.8599 23.8599 19.7096 25.1223 20.3043C26.3847 20.899 27.8176 21.2141 29.2539 21.213C31.2288 21.195 33.0644 20.571 34.3581 19.4778C35.6518 18.3846 36.2981 16.9114 36.1554 15.3813L35.8987 12.7185C35.8871 12.5758 35.8765 12.4273 35.862 12.2781C35.7734 11.0889 35.6802 9.85617 34.2921 9.28687L34.2131 9.25668L34.2101 9.27459C33.4493 10.036 32.4144 10.6043 31.222 10.9154C31.1726 10.928 31.1198 10.9326 31.0668 10.9288C31.0137 10.9251 30.9616 10.9131 30.9133 10.8937C30.8652 10.8746 30.8219 10.8484 30.786 10.8167C30.7502 10.7851 30.7225 10.7485 30.7047 10.7093C30.4533 10.1593 30.0593 9.64872 29.5479 9.21006L29.3358 9.02211C29.2382 8.93707 29.1258 8.82222 29.0102 8.72529V8.72529Z" fill="#093F68"/>
<path d="M28.5184 15.0488C28.9173 15.1086 29.2831 14.9097 29.3353 14.6047C29.3876 14.2996 29.1066 14.0039 28.7076 13.9441C28.3087 13.8844 27.943 14.0832 27.8907 14.3883C27.8385 14.6933 28.1195 14.9891 28.5184 15.0488Z" fill="#093F68"/>
<path d="M34.3954 15.1515C34.7943 15.2113 35.16 15.0124 35.2123 14.7074C35.2645 14.4023 34.9835 14.1066 34.5846 14.0468C34.1857 13.987 33.8199 14.1859 33.7677 14.4909C33.7154 14.796 33.9965 15.0917 34.3954 15.1515Z" fill="#093F68"/>
<path d="M29.7131 16.8691C29.6095 16.8536 29.5156 16.8073 29.452 16.7403C29.3884 16.6734 29.3602 16.5913 29.3738 16.5121C29.3874 16.4329 29.4415 16.3631 29.5243 16.3181C29.6071 16.2731 29.7118 16.2565 29.8154 16.272C30.1095 16.3048 30.4054 16.3111 30.6971 16.2908C30.5278 15.8863 30.293 15.4971 29.9985 15.1327C29.9498 15.062 29.9371 14.9813 29.9629 14.9073C29.9886 14.8332 30.051 14.7714 30.137 14.7347C30.223 14.698 30.3261 14.6893 30.425 14.7102C30.5238 14.7311 30.6109 14.7802 30.6681 14.8472C31.1268 15.4426 31.6348 16.2169 31.456 16.6066C31.4284 16.6682 31.3822 16.7232 31.3212 16.7671C31.2602 16.8111 31.1859 16.8429 31.1042 16.8601C30.6581 16.9281 30.1948 16.9334 29.736 16.8756L29.7131 16.8691Z" fill="#093F68"/>
<path d="M24.6583 12.6178C24.4499 12.5939 24.2572 12.5075 24.1225 12.3776C23.9878 12.2478 23.9221 12.085 23.9399 11.9253C23.9577 11.7655 24.0576 11.6218 24.2175 11.5257C24.3774 11.4296 24.5842 11.3891 24.7925 11.413L28.262 11.6847C28.4716 11.701 28.6694 11.7808 28.812 11.9064C28.9546 12.032 29.0302 12.1931 29.0222 12.3544C29.0143 12.5156 28.9233 12.6637 28.7695 12.7662C28.6156 12.8686 28.4115 12.917 28.2019 12.9006L24.7324 12.6289L24.6583 12.6178Z" fill="#093F68"/>
<path d="M31.2881 12.8669C31.184 12.8602 31.0815 12.8377 30.9862 12.8009C30.8909 12.764 30.8048 12.7134 30.7328 12.652C30.6607 12.5906 30.6042 12.5196 30.5664 12.443C30.5285 12.3664 30.5102 12.2857 30.5123 12.2056C30.5145 12.1255 30.5371 12.0475 30.5789 11.9761C30.6207 11.9047 30.6809 11.8412 30.7559 11.7893C30.831 11.7374 30.9195 11.6981 31.0165 11.6737C31.1134 11.6493 31.2168 11.6402 31.3208 11.6469L34.7817 11.5713C34.8864 11.5664 34.9926 11.578 35.094 11.6052C35.1955 11.6324 35.2901 11.6748 35.3722 11.7299C35.4544 11.7849 35.5224 11.8515 35.5723 11.9256C35.6221 11.9997 35.6528 12.0799 35.6624 12.1614C35.6721 12.2428 35.6606 12.3239 35.6285 12.3999C35.5964 12.4758 35.5445 12.545 35.4758 12.6034C35.4071 12.6617 35.323 12.7081 35.2285 12.7397C35.134 12.7712 35.0311 12.7874 34.9258 12.7872L31.465 12.8628C31.4071 12.8706 31.3475 12.872 31.2881 12.8669V12.8669Z" fill="#093F68"/>
<path d="M25.2337 16.0175C24.9676 15.976 24.7221 15.8664 24.5375 15.7068C24.353 15.5473 24.2406 15.3472 24.2188 15.1397L24.061 13.4655C24.0531 13.3851 24.0865 13.3075 24.1541 13.2497C24.222 13.1922 24.3183 13.1593 24.422 13.1582L29.4627 13.1171C29.5143 13.1168 29.5661 13.1243 29.6152 13.1393C29.6643 13.1543 29.7096 13.1765 29.7487 13.2045C29.7878 13.2326 29.8198 13.2659 29.8429 13.3027C29.8661 13.3395 29.8799 13.3791 29.8835 13.419L30.0452 15.0938C30.0648 15.3328 29.9625 15.5624 29.7603 15.7331C29.5581 15.9038 29.2721 16.002 28.9638 16.0067L25.4711 16.0346C25.3919 16.035 25.3124 16.0292 25.2337 16.0175V16.0175ZM24.8747 13.765L25.0045 15.1349C25.0079 15.1736 25.0214 15.2119 25.0442 15.2474C25.067 15.2829 25.0987 15.315 25.1373 15.3416C25.1745 15.3696 25.2185 15.3916 25.2664 15.4062C25.3143 15.4208 25.3649 15.4275 25.4151 15.4261L28.9039 15.3975C29.0037 15.3948 29.096 15.3627 29.1619 15.3077C29.2279 15.2527 29.2626 15.179 29.259 15.1016L29.1258 13.7281L24.8747 13.765Z" fill="#093F68"/>
<path d="M31.4882 15.9684C31.2224 15.9261 30.9774 15.8159 30.7937 15.6559C30.61 15.4959 30.4986 15.2957 30.4777 15.0882L30.3161 13.4134C30.3093 13.3328 30.3442 13.2554 30.413 13.1983C30.4809 13.1408 30.5772 13.1079 30.6809 13.1067L35.7216 13.0657C35.8258 13.0655 35.9283 13.0974 36.0068 13.1543C36.0856 13.2105 36.1344 13.2872 36.1424 13.3676L36.3002 15.0418C36.3198 15.2808 36.2175 15.5104 36.0153 15.6811C35.8131 15.8517 35.5271 15.95 35.2188 15.9546V15.9546L31.73 15.9832C31.6495 15.986 31.5683 15.981 31.4882 15.9684ZM31.1336 13.7135L31.2634 15.0834C31.2717 15.1622 31.3191 15.2374 31.3957 15.2931C31.4335 15.3204 31.4778 15.3417 31.5257 15.3557C31.5736 15.3697 31.6241 15.3762 31.674 15.3746L35.1623 15.349C35.2623 15.3457 35.3544 15.3128 35.4197 15.2571C35.4851 15.2015 35.5188 15.1272 35.514 15.0495L35.3847 13.6767L31.1336 13.7135Z" fill="#093F68"/>
<path d="M20.086 14.6981C20.0341 14.6943 19.983 14.6827 19.9356 14.664C19.8882 14.6452 19.8455 14.6196 19.8099 14.5887C19.7743 14.5578 19.7465 14.5221 19.7281 14.4837C19.7097 14.4453 19.701 14.405 19.7026 14.365C19.7042 14.3251 19.716 14.2862 19.7373 14.2507C19.7587 14.2152 19.7891 14.1838 19.827 14.1582C19.9034 14.1065 20.0053 14.0817 20.1102 14.0893L24.5211 14.0549C24.5727 14.0546 24.6245 14.0621 24.6735 14.0771C24.7226 14.0921 24.768 14.1143 24.8071 14.1423C24.8461 14.1703 24.8782 14.2037 24.9013 14.2405C24.9244 14.2773 24.9382 14.3168 24.9419 14.3568C24.9495 14.4371 24.9158 14.5144 24.8482 14.572C24.7806 14.6296 24.6845 14.6627 24.5809 14.6641L20.1701 14.6984L20.086 14.6981Z" fill="#093F68"/>
<path d="M21.9819 17.6494C21.3585 17.6735 20.7321 17.5079 20.2358 17.1876C19.7395 16.8674 19.4125 16.4178 19.3243 15.9345C18.6677 13.5027 21.8367 14.7798 21.8367 14.7798" fill="#FFC9B0"/>
<path d="M21.3479 17.9128C20.742 17.828 20.1769 17.5918 19.7413 17.2412C19.3057 16.8905 19.0241 16.4452 18.9407 15.9751C18.7216 15.1736 18.868 14.6229 19.3729 14.3403C20.2596 13.8392 21.8248 14.4504 22.0006 14.5226C22.0955 14.5612 22.1689 14.6264 22.2048 14.7038C22.2408 14.7813 22.2362 14.8647 22.1922 14.9356C22.1482 15.0066 22.0683 15.0594 21.9701 15.0823C21.872 15.1052 21.7635 15.0964 21.6687 15.0578C21.3355 14.9222 20.2944 14.5947 19.864 14.8395C19.5495 15.0159 19.6059 15.5052 19.7085 15.888C20.1262 17.4235 21.8608 17.3496 21.9297 17.3446C22.0326 17.3394 22.1365 17.3659 22.219 17.4183C22.3015 17.4708 22.3558 17.5451 22.3703 17.625C22.3799 17.6656 22.3789 17.7068 22.3673 17.7461C22.3558 17.7854 22.3339 17.822 22.3031 17.8536C22.2722 17.8853 22.233 17.9115 22.1878 17.9305C22.1426 17.9495 22.0922 17.961 22.0398 17.9644C21.8092 17.9706 21.5765 17.9533 21.3479 17.9128V17.9128Z" fill="#093F68"/>
<path d="M27.5978 19.1254L30.6825 20.053C30.6825 20.053 31.6824 18.494 30.5582 17.6458C29.0717 16.5289 27.5978 19.1254 27.5978 19.1254Z" fill="#093F68"/>
<path d="M28.9135 22.7583L28.0833 22.6924C27.7638 22.667 27.4946 22.8457 27.4819 23.0914L27.4658 23.4031C27.4532 23.6488 27.7018 23.8685 28.0213 23.8939L28.8515 23.9598C29.1709 23.9851 29.4401 23.8065 29.4528 23.5608L29.4689 23.2491C29.4816 23.0034 29.2329 22.7837 28.9135 22.7583Z" fill="#F56132"/>
<path d="M27.9228 24.1863C27.6826 24.151 27.4626 24.0479 27.3066 23.8974C27.1506 23.747 27.07 23.5602 27.0808 23.3742L27.0929 23.0698C27.1035 22.8716 27.216 22.6897 27.4057 22.5642C27.5954 22.4387 27.8468 22.3799 28.1045 22.4006L28.9341 22.4667C29.1912 22.4873 29.4337 22.5855 29.6084 22.7397C29.7832 22.8938 29.8759 23.0915 29.8664 23.2893L29.8543 23.5937C29.8437 23.7919 29.7312 23.9737 29.5415 24.0992C29.3518 24.2247 29.1004 24.2836 28.8427 24.2628L28.0131 24.1967L27.9228 24.1863ZM28.9164 23.0612L28.8969 23.0583L28.0672 22.9922C28.0179 22.9887 27.9699 23.0002 27.9336 23.0242C27.8976 23.0477 27.8759 23.0819 27.8733 23.1193L27.8612 23.4237C27.8595 23.4418 27.8628 23.4603 27.8708 23.4778C27.8788 23.4954 27.8914 23.5117 27.9078 23.5256C27.9237 23.5404 27.9432 23.5528 27.9651 23.5618C27.987 23.5709 28.0107 23.5765 28.0349 23.5784L28.8684 23.645C28.8927 23.6472 28.9169 23.6455 28.9397 23.6402C28.9625 23.6348 28.9834 23.626 29.0011 23.6141C29.0188 23.6021 29.033 23.5874 29.0429 23.5708C29.0528 23.5542 29.0581 23.536 29.0585 23.5173L29.0745 23.2135C29.0756 23.1797 29.0611 23.146 29.0336 23.1183C29.0061 23.0907 28.9673 23.0708 28.9242 23.0624L28.9164 23.0612Z" fill="#093F68"/>
<path d="M29.1404 27.5779L28.0698 31.2331L27.1703 27.788L27.8754 23.8821L29.0131 23.9729L29.1404 27.5779Z" fill="#F56132"/>
<path d="M28.0177 31.5315C27.9362 31.5197 27.86 31.4887 27.7997 31.4429C27.7393 31.3971 27.6978 31.3387 27.681 31.2759L26.7859 27.8285C26.782 27.7946 26.7878 27.761 26.8028 27.7299L27.5034 23.8264C27.5158 23.7516 27.5645 23.6849 27.6397 23.6394C27.715 23.594 27.8114 23.5732 27.9098 23.581L29.0481 23.6689C29.1481 23.6767 29.2429 23.7135 29.3132 23.7718C29.3836 23.8301 29.4242 23.9056 29.4268 23.9828L29.5536 27.5908C29.5554 27.6154 29.5512 27.6397 29.5414 27.6625L28.4669 31.3171C28.4479 31.3842 28.3991 31.4428 28.3288 31.4829C28.2585 31.5231 28.1709 31.5425 28.0807 31.5379L28.0177 31.5315ZM27.5733 27.7902L28.0868 29.7719L28.748 27.5252L28.6299 24.2401L28.2343 24.2115L27.5733 27.7902Z" fill="#093F68"/>
<path d="M47.6011 17.148C47.5077 17.1332 47.4222 17.0932 47.3601 17.0354C47.3255 17.0041 47.2988 16.9682 47.2816 16.9297C47.2643 16.8913 47.2568 16.8511 47.2595 16.8114C47.2622 16.7717 47.2751 16.7333 47.2974 16.6984C47.3196 16.6635 47.3509 16.6328 47.3893 16.608C47.5999 16.4772 47.6738 15.9524 47.663 15.6415C47.6587 15.5709 47.6863 15.5029 47.7409 15.4492C47.7956 15.3955 47.874 15.3593 47.9628 15.3469C48.0515 15.3345 48.145 15.3466 48.2273 15.3812C48.3095 15.4158 48.3755 15.4707 48.4138 15.5365C48.5044 15.6964 48.6245 15.8465 48.77 15.9819C48.6454 15.5213 48.4452 15.0714 48.1743 14.6432C48.1516 14.6061 48.1383 14.5663 48.1352 14.5261C48.1322 14.486 48.1394 14.4462 48.1566 14.4092C48.1737 14.3722 48.2004 14.3387 48.2351 14.3105C48.2697 14.2824 48.3118 14.2602 48.3587 14.2452C48.4526 14.2152 48.5604 14.216 48.6586 14.2473C48.7567 14.2787 48.8373 14.338 48.8826 14.4125C49.6291 15.642 49.7471 16.3793 49.2587 16.6124C49.175 16.6514 49.0801 16.6752 48.9807 16.682C48.8813 16.6888 48.7797 16.6785 48.6833 16.6518C48.5583 16.6155 48.4424 16.5606 48.3425 16.4905C48.2832 16.7238 48.1344 16.9338 47.9148 17.094C47.8719 17.12 47.8218 17.1384 47.7677 17.1477C47.7136 17.157 47.6568 17.1571 47.6011 17.148Z" fill="#093F68"/>
<path d="M97.3701 48.7336C95.2386 48.2432 93.0652 47.8664 90.8656 47.6057C90.1499 47.5241 90.4148 47.9595 90.5018 48.3405C90.6086 48.8061 90.7351 49.2718 90.8972 49.7344C91.0594 50.197 91.1938 51.3249 91.7395 51.5486C92.3602 51.7245 93.0193 51.8076 93.6809 51.7936C94.2424 51.7936 94.9028 51.7664 95.314 51.4368C95.6382 51.1616 97.2396 48.7033 97.3701 48.7336Z" fill="#70CC40"/>
<path d="M93.8467 52.096C94.1611 52.1138 94.4769 52.0828 94.7752 52.0049C95.0735 51.9269 95.3482 51.8036 95.5825 51.6424C96.0203 51.1621 96.409 50.6566 96.745 50.1305C97.0495 49.7012 97.4647 49.1206 97.6031 48.9755C97.673 48.9367 97.7244 48.8815 97.7494 48.8182C97.7646 48.7801 97.7698 48.7401 97.7647 48.7004C97.7596 48.6608 97.7443 48.6223 97.7197 48.5871C97.6951 48.552 97.6616 48.5209 97.6212 48.4957C97.5809 48.4705 97.5344 48.4517 97.4845 48.4403C95.3386 47.9479 93.1507 47.57 90.9364 47.3094C90.8034 47.2845 90.6644 47.2848 90.5315 47.3101C90.3986 47.3353 90.2757 47.3849 90.1733 47.4545C90.0746 47.5656 90.0139 47.6938 89.9966 47.8274C89.9794 47.961 90.0061 48.0958 90.0745 48.2195C90.0745 48.277 90.11 48.3344 90.1219 48.3919C90.2326 48.8636 90.3592 49.3383 90.5173 49.804C90.545 49.8917 90.5727 50.0096 90.6043 50.1366C90.7941 50.9197 90.9997 51.588 91.5572 51.8147C92.2287 52.0173 92.9474 52.112 93.6687 52.0929L93.8467 52.096ZM96.7332 48.9059C96.5671 49.1206 96.3378 49.423 96.0491 49.8463C95.6932 50.3482 95.1476 51.1102 95.0092 51.2251C94.7601 51.4217 94.3409 51.5063 93.6727 51.4882C93.072 51.4992 92.4736 51.4285 91.9052 51.2795C91.6403 51.1707 91.4426 50.3724 91.3556 50.0247C91.324 49.8856 91.2923 49.7616 91.2607 49.6619C91.1183 49.2083 90.9958 48.7547 90.889 48.2861C90.889 48.2195 90.8534 48.153 90.8336 48.0865C90.8139 48.02 90.7981 47.9625 90.7862 47.9051H90.806C92.8075 48.1419 94.7873 48.4762 96.7332 48.9059V48.9059Z" fill="#093F68"/>
<path d="M98.7382 61.3878C100.608 61.034 102.843 60.2145 102.139 58.4819C101.463 56.8159 100.518 55.1558 98.9359 53.9131C97.9088 53.0942 96.5951 52.519 95.1518 52.2561C94.009 52.0535 92.2692 51.9174 91.1265 52.1654C88.7936 52.6734 86.9707 54.1096 85.8912 55.7273C84.9699 57.1031 83.8707 59.6582 85.5196 60.9523C86.8837 62.0258 89.6556 61.8232 91.4507 61.8383C93.8746 61.8625 96.3538 61.8383 98.7382 61.3878Z" fill="#70CC40"/>
<path d="M89.9363 62.1497H90.6243C90.909 62.1497 91.1779 62.1497 91.4151 62.1497C93.8113 62.1709 96.3538 62.1497 98.8172 61.6901C100.043 61.4603 101.644 60.9917 102.325 60.0694C102.505 59.8163 102.615 59.5369 102.645 59.2493C102.676 58.9618 102.627 58.6725 102.502 58.4003C101.652 56.3109 100.604 54.8233 99.2047 53.7105C98.1261 52.8494 96.7446 52.2455 95.2269 51.9719C94.0407 51.7632 92.2415 51.6151 91.0039 51.8842C88.7777 52.368 86.777 53.7226 85.5235 55.6004C85.0965 56.2353 83.0838 59.4919 85.219 61.1701C86.3657 62.056 88.2558 62.1497 89.9363 62.1497ZM91.2056 61.545H90.6164C88.9399 61.545 86.856 61.5752 85.8042 60.7467C84.4401 59.6733 85.1874 57.4509 86.2432 55.8725C87.3978 54.1429 89.2167 52.9002 91.2332 52.4617C92.2613 52.241 93.8983 52.3498 95.0648 52.5585C96.4333 52.8059 97.6789 53.3509 98.6512 54.1278C99.9639 55.168 100.952 56.5831 101.763 58.5757C101.856 58.7694 101.895 58.9761 101.875 59.182C101.856 59.3879 101.78 59.5883 101.652 59.7701C101.229 60.3416 100.162 60.8133 98.6432 61.1005C96.2708 61.545 93.7836 61.5631 91.4389 61.542L91.2056 61.545Z" fill="#093F68"/>
<path d="M95.3179 68.929H104.254C104.732 68.929 105.12 69.2255 105.12 69.5912V70.6011C105.12 70.9668 104.732 71.2633 104.254 71.2633H95.3179C94.8396 71.2633 94.4519 70.9668 94.4519 70.6011V69.5912C94.4519 69.2255 94.8396 68.929 95.3179 68.929Z" fill="#FFBC0E"/>
<path d="M95.318 71.5657H104.254C104.589 71.5657 104.91 71.4641 105.146 71.2832C105.383 71.1023 105.516 70.8569 105.516 70.6011V69.5912C105.516 69.3354 105.383 69.09 105.146 68.9091C104.91 68.7282 104.589 68.6266 104.254 68.6266H95.318C94.9834 68.6266 94.6626 68.7282 94.4261 68.9091C94.1895 69.09 94.0566 69.3354 94.0566 69.5912V70.6011C94.0566 70.8569 94.1895 71.1023 94.4261 71.2832C94.6626 71.4641 94.9834 71.5657 95.318 71.5657V71.5657ZM104.254 69.2314C104.379 69.2314 104.499 69.2693 104.587 69.3368C104.675 69.4042 104.725 69.4958 104.725 69.5912V70.6011C104.724 70.6963 104.674 70.7874 104.586 70.8547C104.498 70.922 104.379 70.9601 104.254 70.9609H95.318C95.1932 70.9609 95.0735 70.923 94.9853 70.8555C94.897 70.7881 94.8474 70.6965 94.8474 70.6011V69.5912C94.8474 69.4958 94.897 69.4042 94.9853 69.3368C95.0735 69.2693 95.1932 69.2314 95.318 69.2314H104.254Z" fill="#093F68"/>
<path d="M96.061 66.5948H104.997C105.476 66.5948 105.863 66.8912 105.863 67.257V68.2669C105.863 68.6326 105.476 68.9291 104.997 68.9291H96.061C95.5828 68.9291 95.1951 68.6326 95.1951 68.2669V67.257C95.1951 66.8912 95.5828 66.5948 96.061 66.5948Z" fill="#FFBC0E"/>
<path d="M96.0572 69.2313H104.993C105.328 69.2313 105.65 69.1297 105.887 68.9489C106.124 68.7681 106.258 68.5228 106.259 68.2667V67.2568C106.258 67.0007 106.124 66.7553 105.887 66.5745C105.65 66.3937 105.328 66.2922 104.993 66.2922H96.0572C95.7227 66.2922 95.4018 66.3938 95.1653 66.5747C94.9287 66.7556 94.7958 67.001 94.7958 67.2568V68.2667C94.7958 68.5225 94.9287 68.7679 95.1653 68.9488C95.4018 69.1296 95.7227 69.2313 96.0572 69.2313V69.2313ZM104.993 66.897C105.056 66.8966 105.117 66.9056 105.175 66.9235C105.232 66.9414 105.285 66.9678 105.329 67.0013C105.373 67.0347 105.408 67.0745 105.432 67.1184C105.456 67.1622 105.468 67.2093 105.468 67.2568V68.2667C105.467 68.3624 105.416 68.4539 105.328 68.5213C105.239 68.5887 105.119 68.6265 104.993 68.6265H96.0572C95.9327 68.6257 95.8136 68.5876 95.7256 68.5203C95.6376 68.4529 95.5877 68.3619 95.5867 68.2667V67.2568C95.5867 67.1613 95.6362 67.0698 95.7245 67.0023C95.8127 66.9349 95.9324 66.897 96.0572 66.897H104.993Z" fill="#093F68"/>
<path d="M94.0288 64.2604H102.965C103.443 64.2604 103.831 64.5569 103.831 64.9226V65.9325C103.831 66.2982 103.443 66.5947 102.965 66.5947H94.0288C93.5506 66.5947 93.1629 66.2982 93.1629 65.9325V64.9226C93.1629 64.5569 93.5506 64.2604 94.0288 64.2604Z" fill="#FFBC0E"/>
<path d="M94.0289 66.8971H102.965C103.3 66.8971 103.621 66.7955 103.857 66.6146C104.094 66.4337 104.227 66.1884 104.227 65.9325V64.9226C104.227 64.6668 104.094 64.4214 103.857 64.2406C103.621 64.0597 103.3 63.958 102.965 63.958H94.0289C93.6944 63.958 93.3736 64.0597 93.137 64.2406C92.9004 64.4214 92.7676 64.6668 92.7676 64.9226V65.9235C92.766 66.0509 92.7975 66.1773 92.8601 66.2954C92.9228 66.4135 93.0155 66.5209 93.1328 66.6114C93.2501 66.7019 93.3897 66.7738 93.5435 66.8228C93.6973 66.8719 93.8623 66.8971 94.0289 66.8971V66.8971ZM102.965 64.5628C103.09 64.5628 103.21 64.6007 103.298 64.6682C103.386 64.7357 103.436 64.8272 103.436 64.9226V65.9235C103.436 66.0189 103.386 66.1104 103.298 66.1779C103.21 66.2454 103.09 66.2833 102.965 66.2833H94.0289C93.9041 66.2833 93.7844 66.2454 93.6962 66.1779C93.608 66.1104 93.5584 66.0189 93.5584 65.9235V64.9135C93.5584 64.8181 93.608 64.7266 93.6962 64.6591C93.7844 64.5916 93.9041 64.5537 94.0289 64.5537L102.965 64.5628Z" fill="#093F68"/>
<path d="M96.061 61.9259H104.997C105.476 61.9259 105.863 62.2224 105.863 62.5881V63.5981C105.863 63.9638 105.476 64.2603 104.997 64.2603H96.061C95.5828 64.2603 95.1951 63.9638 95.1951 63.5981V62.5881C95.1951 62.2224 95.5828 61.9259 96.061 61.9259Z" fill="#FFBC0E"/>
<path d="M96.0572 64.5627H104.993C105.328 64.5627 105.65 64.4612 105.887 64.2804C106.124 64.0995 106.258 63.8542 106.259 63.5981V62.5973C106.258 62.3412 106.124 62.0958 105.887 61.915C105.65 61.7342 105.328 61.6327 104.993 61.6327H96.0572C95.7227 61.6327 95.4018 61.7343 95.1653 61.9152C94.9287 62.0961 94.7958 62.3414 94.7958 62.5973V63.6072C94.799 63.8614 94.9332 64.1044 95.1694 64.2834C95.4057 64.4623 95.7247 64.5627 96.0572 64.5627V64.5627ZM104.993 62.2284C105.119 62.2284 105.239 62.2662 105.328 62.3336C105.416 62.401 105.467 62.4925 105.468 62.5882V63.5981C105.468 63.6456 105.456 63.6927 105.432 63.7365C105.408 63.7804 105.373 63.8202 105.329 63.8536C105.285 63.8871 105.232 63.9135 105.175 63.9314C105.117 63.9493 105.056 63.9583 104.993 63.9579H96.0572C95.9324 63.9579 95.8127 63.92 95.7245 63.8525C95.6362 63.7851 95.5867 63.6935 95.5867 63.5981V62.5973C95.5877 62.5021 95.6376 62.411 95.7256 62.3437C95.8136 62.2764 95.9327 62.2382 96.0572 62.2374L104.993 62.2284Z" fill="#093F68"/>
<path d="M81.2056 68.929H90.1419C90.6201 68.929 91.0078 69.2255 91.0078 69.5912V70.6011C91.0078 70.9668 90.6201 71.2633 90.1419 71.2633H81.2056C80.7273 71.2633 80.3396 70.9668 80.3396 70.6011V69.5912C80.3396 69.2255 80.7273 68.929 81.2056 68.929Z" fill="#FFBC0E"/>
<path d="M81.2056 71.5657H90.1459C90.4804 71.5657 90.8012 71.4641 91.0378 71.2832C91.2743 71.1023 91.4072 70.8569 91.4072 70.6011V69.5912C91.4072 69.3354 91.2743 69.09 91.0378 68.9091C90.8012 68.7282 90.4804 68.6266 90.1459 68.6266H81.2096C80.875 68.6266 80.5542 68.7282 80.3177 68.9091C80.0811 69.09 79.9482 69.3354 79.9482 69.5912V70.6011C79.9482 70.8564 80.0806 71.1013 80.3163 71.2821C80.552 71.4629 80.8718 71.5649 81.2056 71.5657V71.5657ZM90.1459 69.2314C90.2707 69.2314 90.3903 69.2693 90.4786 69.3368C90.5668 69.4042 90.6164 69.4958 90.6164 69.5912V70.6011C90.6164 70.6965 90.5668 70.7881 90.4786 70.8555C90.3903 70.923 90.2707 70.9609 90.1459 70.9609H81.2096C81.0848 70.9609 80.9651 70.923 80.8769 70.8555C80.7886 70.7881 80.739 70.6965 80.739 70.6011V69.5912C80.739 69.4958 80.7886 69.4042 80.8769 69.3368C80.9651 69.2693 81.0848 69.2314 81.2096 69.2314H90.1459Z" fill="#093F68"/>
<path d="M81.9487 66.5948H90.885C91.3633 66.5948 91.751 66.8912 91.751 67.257V68.2669C91.751 68.6326 91.3633 68.9291 90.885 68.9291H81.9487C81.4705 68.9291 81.0828 68.6326 81.0828 68.2669V67.257C81.0828 66.8912 81.4705 66.5948 81.9487 66.5948Z" fill="#FFBC0E"/>
<path d="M81.9488 69.2313H90.8851C91.2197 69.2313 91.5405 69.1297 91.777 68.9488C92.0136 68.7679 92.1465 68.5226 92.1465 68.2668V67.2568C92.1465 67.001 92.0136 66.7557 91.777 66.5748C91.5405 66.3939 91.2197 66.2923 90.8851 66.2923H81.9488C81.6143 66.2923 81.2935 66.3939 81.0569 66.5748C80.8204 66.7557 80.6875 67.001 80.6875 67.2568V68.2668C80.6875 68.5226 80.8204 68.7679 81.0569 68.9488C81.2935 69.1297 81.6143 69.2313 81.9488 69.2313V69.2313ZM90.8851 66.897C91.0099 66.897 91.1296 66.9349 91.2178 67.0024C91.3061 67.0699 91.3557 67.1614 91.3557 67.2568V68.2668C91.3546 68.3619 91.3047 68.453 91.2167 68.5203C91.1287 68.5876 91.0096 68.6258 90.8851 68.6266H81.9488C81.824 68.6266 81.7044 68.5887 81.6161 68.5212C81.5279 68.4537 81.4783 68.3622 81.4783 68.2668V67.2568C81.4783 67.1614 81.5279 67.0699 81.6161 67.0024C81.7044 66.9349 81.824 66.897 81.9488 66.897H90.8851Z" fill="#093F68"/>
<path d="M81.8931 64.2604H90.8294C91.3076 64.2604 91.6953 64.5569 91.6953 64.9226V65.9325C91.6953 66.2982 91.3076 66.5947 90.8294 66.5947H81.8931C81.4148 66.5947 81.0271 66.2982 81.0271 65.9325V64.9226C81.0271 64.5569 81.4148 64.2604 81.8931 64.2604Z" fill="#FFBC0E"/>
<path d="M81.8941 66.8971H90.8304C91.165 66.8971 91.4858 66.7955 91.7223 66.6146C91.9589 66.4337 92.0918 66.1884 92.0918 65.9325V64.9226C92.0918 64.6668 91.9589 64.4214 91.7223 64.2406C91.4858 64.0597 91.165 63.958 90.8304 63.958H81.8941C81.5596 63.958 81.2388 64.0597 81.0022 64.2406C80.7657 64.4214 80.6328 64.6668 80.6328 64.9226V65.9235C80.6312 66.0509 80.6627 66.1773 80.7254 66.2954C80.7881 66.4135 80.8807 66.5209 80.998 66.6114C81.1153 66.7019 81.2549 66.7738 81.4087 66.8228C81.5625 66.8719 81.7275 66.8971 81.8941 66.8971V66.8971ZM90.8304 64.5628C90.9552 64.5628 91.0749 64.6007 91.1632 64.6682C91.2514 64.7357 91.301 64.8272 91.301 64.9226V65.9235C91.301 66.0189 91.2514 66.1104 91.1632 66.1779C91.0749 66.2454 90.9552 66.2833 90.8304 66.2833H81.8941C81.7694 66.2833 81.6497 66.2454 81.5614 66.1779C81.4732 66.1104 81.4236 66.0189 81.4236 65.9235V64.9135C81.4236 64.8181 81.4732 64.7266 81.5614 64.6591C81.6497 64.5916 81.7694 64.5537 81.8941 64.5537L90.8304 64.5628Z" fill="#093F68"/>
<path d="M81.9487 61.9259H90.885C91.3633 61.9259 91.751 62.2224 91.751 62.5881V63.5981C91.751 63.9638 91.3633 64.2603 90.885 64.2603H81.9487C81.4705 64.2603 81.0828 63.9638 81.0828 63.5981V62.5881C81.0828 62.2224 81.4705 61.9259 81.9487 61.9259Z" fill="#FFBC0E"/>
<path d="M81.9488 64.5627H90.8851C91.2197 64.5627 91.5405 64.4611 91.777 64.2802C92.0136 64.0993 92.1465 63.854 92.1465 63.5981V62.5973C92.1465 62.3415 92.0136 62.0961 91.777 61.9152C91.5405 61.7343 91.2197 61.6327 90.8851 61.6327H81.9488C81.6143 61.6327 81.2935 61.7343 81.0569 61.9152C80.8204 62.0961 80.6875 62.3415 80.6875 62.5973V63.6072C80.6906 63.8615 80.8249 64.1045 81.0611 64.2834C81.2973 64.4623 81.6163 64.5627 81.9488 64.5627V64.5627ZM90.8851 62.2284C91.0096 62.2292 91.1287 62.2673 91.2167 62.3347C91.3047 62.402 91.3546 62.493 91.3557 62.5882V63.5981C91.3557 63.6936 91.3061 63.7851 91.2178 63.8526C91.1296 63.9201 91.0099 63.958 90.8851 63.958H81.9488C81.824 63.958 81.7044 63.9201 81.6161 63.8526C81.5279 63.7851 81.4783 63.6936 81.4783 63.5981V62.5973C81.4783 62.5019 81.5279 62.4103 81.6161 62.3429C81.7044 62.2754 81.824 62.2375 81.9488 62.2375L90.8851 62.2284Z" fill="#093F68"/>
<path d="M92.5582 50.9106C92.0676 50.8506 91.5654 50.8785 91.0913 50.9922C90.8568 51.0555 90.6577 51.1782 90.5268 51.3398C90.396 51.5015 90.3412 51.6925 90.3716 51.8812C90.394 51.9679 90.4591 52.0448 90.5535 52.0959C90.6238 52.1271 90.702 52.1466 90.7828 52.1533C91.7576 52.2978 92.7425 52.3987 93.7326 52.4557C94.4404 52.492 96.2316 52.6915 96.3107 51.8026C96.3818 51.0164 95.4329 51.1192 94.7528 51.0436C94.0726 50.968 93.2897 50.9589 92.5582 50.9106Z" fill="#093F68"/>
<path d="M94.7325 52.7883C95.285 52.8205 95.8351 52.7062 96.2904 52.4647C96.4107 52.3813 96.5077 52.2803 96.5756 52.1675C96.6436 52.0548 96.6811 51.9327 96.6858 51.8086C96.7689 50.8591 95.7052 50.7926 95.1319 50.7533C95.0132 50.7533 94.8986 50.7533 94.7879 50.7291C94.3276 50.6819 93.8643 50.6536 93.4 50.6445C93.1232 50.6445 92.8464 50.6263 92.5696 50.6082C92.0168 50.5428 91.4516 50.5791 90.9207 50.714C90.5979 50.8025 90.3258 50.9746 90.1517 51.2005C89.9777 51.4265 89.9126 51.6919 89.9678 51.9507C90.0134 52.1127 90.1378 52.2554 90.3158 52.3498C90.4316 52.4016 90.559 52.4364 90.6914 52.4526C91.682 52.5975 92.6828 52.6984 93.6886 52.755H93.8942C94.1473 52.7701 94.432 52.7883 94.7325 52.7883ZM92.5222 51.2129C92.8108 51.2311 93.0995 51.2401 93.3881 51.2492C93.8245 51.2572 94.26 51.2824 94.693 51.3248C94.8195 51.3248 94.95 51.349 95.0884 51.3581C95.8397 51.4064 95.9504 51.4578 95.9187 51.7663C95.92 51.8117 95.9079 51.8568 95.8832 51.8981C95.8586 51.9395 95.8221 51.9761 95.7764 52.0051C95.4166 52.241 94.4834 52.1835 93.9812 52.1503H93.7637C92.7886 52.1005 91.8181 52.0066 90.8575 51.8691H90.7705C90.7705 51.8691 90.7705 51.8691 90.7705 51.8358C90.7033 51.6272 90.9642 51.3913 91.2529 51.3006C91.6686 51.2073 92.1065 51.1866 92.534 51.2401L92.5222 51.2129Z" fill="#093F68"/>
<path d="M92.6153 59.5887V59.1866C92.4255 59.1473 92.2397 59.117 92.0618 59.0686C91.7358 58.9937 91.4512 58.8388 91.2518 58.6279C91.0524 58.4169 90.9494 58.1617 90.9586 57.9015H91.9866C91.9932 58.0372 92.0579 58.1676 92.1708 58.2725C92.2837 58.3774 92.4385 58.451 92.6114 58.482V57.4177C92.4058 57.3723 92.216 57.33 91.9985 57.2786C91.775 57.2321 91.5708 57.1426 91.4054 57.0186C91.2283 56.8858 91.1119 56.713 91.0732 56.5257C91.011 56.2988 91.0329 56.0632 91.1365 55.8454C91.2113 55.6875 91.3309 55.5443 91.4868 55.4262C91.6427 55.308 91.831 55.2178 92.0381 55.162C92.2078 55.1196 92.3808 55.0852 92.556 55.0592H92.6153V54.527H93.5762V54.5784C93.5762 54.7326 93.5762 54.8808 93.5762 55.035C93.5762 55.0713 93.5762 55.0834 93.6395 55.0924C93.9657 55.1345 94.273 55.2384 94.5331 55.3948C94.8066 55.5673 94.988 55.8104 95.0432 56.0782C95.0432 56.1508 95.0669 56.2233 95.0788 56.2989H94.0349C94.0329 56.1902 93.9891 56.0843 93.909 55.9945C93.8288 55.9047 93.7158 55.8349 93.5841 55.794V56.7857L93.6948 56.8069C93.977 56.8486 94.2517 56.9156 94.5133 57.0065C94.7095 57.0719 94.8789 57.1767 95.0035 57.3098C95.1281 57.4429 95.2033 57.5993 95.2211 57.7624C95.2828 58.0665 95.1863 58.3769 94.9522 58.6272C94.7557 58.8335 94.4789 58.9869 94.1614 59.0656C93.9716 59.117 93.766 59.1503 93.5643 59.1926V59.5827L92.6153 59.5887ZM93.5802 57.5689V58.4941C93.7356 58.4756 93.8818 58.4255 94.0032 58.349C94.0652 58.3097 94.1146 58.2602 94.1477 58.2042C94.1809 58.1481 94.197 58.0871 94.1947 58.0256C94.1924 57.9641 94.1718 57.9038 94.1346 57.8493C94.0973 57.7948 94.0443 57.7475 93.9795 57.711C93.8502 57.6576 93.7168 57.6102 93.5802 57.5689V57.5689ZM92.6114 56.6225V55.7305C92.487 55.7729 92.3655 55.8203 92.2476 55.8726C92.18 55.9099 92.1254 55.9594 92.0888 56.0167C92.0522 56.074 92.0347 56.1373 92.0378 56.2011C92.0409 56.2648 92.0646 56.327 92.1067 56.382C92.1489 56.4371 92.2081 56.4833 92.2792 56.5166C92.3821 56.5499 92.4928 56.5862 92.6114 56.6225V56.6225Z" fill="#093F68"/>
<path d="M19.4258 51.1073V71.9005" stroke="#093F68"/>
</svg>
