<svg width="198" height="231" viewBox="0 0 198 231" fill="none" xmlns="http://www.w3.org/2000/svg">
<rect width="198" height="231" fill="white"/>
<path d="M79.3467 200.02C79.3467 201.691 79.0654 203.152 78.5029 204.402C77.9404 205.645 77.1435 206.594 76.1123 207.25C75.081 207.906 73.8779 208.234 72.5029 208.234C71.1592 208.234 69.9678 207.906 68.9287 207.25C67.8896 206.586 67.081 205.645 66.5029 204.426C65.9326 203.199 65.6396 201.781 65.624 200.172V198.941C65.624 197.301 65.9092 195.852 66.4795 194.594C67.0498 193.336 67.8545 192.375 68.8935 191.711C69.9404 191.039 71.1357 190.703 72.4795 190.703C73.8467 190.703 75.0498 191.035 76.0888 191.699C77.1357 192.355 77.9404 193.312 78.5029 194.57C79.0654 195.82 79.3467 197.277 79.3467 198.941V200.02ZM77.1084 198.918C77.1084 196.895 76.7021 195.344 75.8896 194.266C75.0771 193.18 73.9404 192.637 72.4795 192.637C71.0576 192.637 69.9365 193.18 69.1162 194.266C68.3037 195.344 67.8857 196.844 67.8623 198.766V200.02C67.8623 201.98 68.2724 203.523 69.0928 204.648C69.9209 205.766 71.0576 206.324 72.5029 206.324C73.956 206.324 75.081 205.797 75.8779 204.742C76.6748 203.68 77.0849 202.16 77.1084 200.184V198.918ZM86.6014 205.059L89.742 195.32H91.9569L87.41 208H85.7577L81.1639 195.32H83.3787L86.6014 205.059ZM99.1765 208.234C97.4577 208.234 96.0593 207.672 94.9812 206.547C93.903 205.414 93.364 203.902 93.364 202.012V201.613C93.364 200.355 93.6022 199.234 94.0788 198.25C94.5632 197.258 95.2351 196.484 96.0944 195.93C96.9616 195.367 97.8991 195.086 98.9069 195.086C100.555 195.086 101.837 195.629 102.751 196.715C103.665 197.801 104.122 199.355 104.122 201.379V202.281H95.5319C95.5632 203.531 95.9265 204.543 96.6218 205.316C97.3249 206.082 98.2155 206.465 99.2937 206.465C100.059 206.465 100.708 206.309 101.239 205.996C101.77 205.684 102.235 205.27 102.633 204.754L103.958 205.785C102.895 207.418 101.301 208.234 99.1765 208.234ZM98.9069 196.867C98.0319 196.867 97.2976 197.188 96.7038 197.828C96.1101 198.461 95.7429 199.352 95.6022 200.5H101.954V200.336C101.891 199.234 101.594 198.383 101.063 197.781C100.532 197.172 99.8132 196.867 98.9069 196.867ZM112.806 197.266C112.478 197.211 112.123 197.184 111.74 197.184C110.318 197.184 109.353 197.789 108.845 199V208H106.677V195.32H108.787L108.822 196.785C109.533 195.652 110.541 195.086 111.845 195.086C112.267 195.086 112.587 195.141 112.806 195.25V197.266ZM119.241 205.059L122.381 195.32H124.596L120.049 208H118.397L113.803 195.32H116.018L119.241 205.059ZM129.074 208H126.906V195.32H129.074V208ZM126.73 191.957C126.73 191.605 126.835 191.309 127.046 191.066C127.265 190.824 127.585 190.703 128.007 190.703C128.429 190.703 128.749 190.824 128.968 191.066C129.187 191.309 129.296 191.605 129.296 191.957C129.296 192.309 129.187 192.602 128.968 192.836C128.749 193.07 128.429 193.188 128.007 193.188C127.585 193.188 127.265 193.07 127.046 192.836C126.835 192.602 126.73 192.309 126.73 191.957ZM137.852 208.234C136.133 208.234 134.735 207.672 133.656 206.547C132.578 205.414 132.039 203.902 132.039 202.012V201.613C132.039 200.355 132.278 199.234 132.754 198.25C133.238 197.258 133.91 196.484 134.77 195.93C135.637 195.367 136.574 195.086 137.582 195.086C139.231 195.086 140.512 195.629 141.426 196.715C142.34 197.801 142.797 199.355 142.797 201.379V202.281H134.207C134.238 203.531 134.602 204.543 135.297 205.316C136 206.082 136.891 206.465 137.969 206.465C138.735 206.465 139.383 206.309 139.914 205.996C140.445 205.684 140.91 205.27 141.309 204.754L142.633 205.785C141.57 207.418 139.977 208.234 137.852 208.234ZM137.582 196.867C136.707 196.867 135.973 197.188 135.379 197.828C134.785 198.461 134.418 199.352 134.278 200.5H140.629V200.336C140.567 199.234 140.27 198.383 139.738 197.781C139.207 197.172 138.488 196.867 137.582 196.867ZM156.579 205.012L159.017 195.32H161.185L157.493 208H155.735L152.653 198.391L149.653 208H147.896L144.216 195.32H146.372L148.868 204.812L151.821 195.32H153.567L156.579 205.012Z" fill="#1E272E"/>
<path d="M167.479 133.793L171.065 168.139" stroke="#263238" stroke-miterlimit="10"/>
<path d="M170.485 161.565L168.86 159.848" stroke="#263238" stroke-miterlimit="10"/>
<path d="M169.356 160.365C169.353 160.102 169.293 159.843 169.182 159.605C169.07 159.366 168.909 159.155 168.708 158.984C168.291 158.613 166.096 157.689 165.877 158.464C165.675 159.303 167.909 160.956 169.356 160.365Z" fill="#4ABDAC" stroke="#263238" stroke-miterlimit="10"/>
<path d="M169.356 160.365L167.268 159.062" stroke="#263238" stroke-width="0.5" stroke-miterlimit="10"/>
<path d="M170.896 165.473L169.271 163.756" stroke="#263238" stroke-miterlimit="10"/>
<path d="M169.764 164.27C169.76 164.007 169.7 163.749 169.589 163.511C169.477 163.274 169.316 163.063 169.116 162.893C168.698 162.517 166.504 161.597 166.285 162.369C166.072 163.211 168.316 164.861 169.764 164.27Z" fill="#4ABDAC" stroke="#263238" stroke-miterlimit="10"/>
<path d="M169.763 164.27L167.675 162.967" stroke="#263238" stroke-width="0.5" stroke-miterlimit="10"/>
<path d="M169.491 152.035L167.866 150.318" stroke="#263238" stroke-miterlimit="10"/>
<path d="M168.362 150.832C168.358 150.569 168.298 150.311 168.187 150.073C168.075 149.836 167.914 149.625 167.714 149.455C167.296 149.083 165.102 148.159 164.883 148.931C164.667 149.773 166.914 151.423 168.362 150.832Z" fill="#4ABDAC" stroke="#263238" stroke-miterlimit="10"/>
<path d="M168.362 150.832L166.273 149.529" stroke="#263238" stroke-width="0.5" stroke-miterlimit="10"/>
<path d="M169.902 155.94L168.277 154.223" stroke="#263238" stroke-miterlimit="10"/>
<path d="M168.768 154.74C168.765 154.477 168.706 154.218 168.594 153.98C168.482 153.741 168.321 153.53 168.121 153.359C167.703 152.988 165.509 152.064 165.289 152.839C165.077 153.678 167.321 155.331 168.768 154.74Z" fill="#4ABDAC" stroke="#263238" stroke-miterlimit="10"/>
<path d="M168.768 154.74L166.68 153.437" stroke="#263238" stroke-width="0.5" stroke-miterlimit="10"/>
<path d="M168.83 145.688L167.205 143.975" stroke="#263238" stroke-miterlimit="10"/>
<path d="M167.7 144.488C167.696 144.225 167.637 143.966 167.525 143.727C167.413 143.489 167.252 143.278 167.052 143.107C166.634 142.736 164.44 141.812 164.221 142.587C164.005 143.426 166.252 145.079 167.7 144.488Z" fill="#4ABDAC" stroke="#263238" stroke-miterlimit="10"/>
<path d="M167.7 144.488L165.608 143.185" stroke="#263238" stroke-width="0.5" stroke-miterlimit="10"/>
<path d="M168.163 139.316L166.538 137.599" stroke="#263238" stroke-miterlimit="10"/>
<path d="M167.035 138.116C167.031 137.853 166.972 137.594 166.86 137.355C166.748 137.117 166.587 136.906 166.387 136.735C165.969 136.363 163.775 135.44 163.555 136.215C163.34 137.054 165.587 138.707 167.035 138.116Z" fill="#4ABDAC" stroke="#263238" stroke-miterlimit="10"/>
<path d="M167.034 138.116L164.946 136.813" stroke="#263238" stroke-width="0.5" stroke-miterlimit="10"/>
<path d="M170.213 159.253L171.448 157.239" stroke="#263238" stroke-miterlimit="10"/>
<path d="M171.073 157.845C171.023 157.586 171.028 157.321 171.09 157.065C171.151 156.809 171.265 156.569 171.427 156.361C171.759 155.912 173.716 154.556 174.077 155.267C174.467 156.046 172.609 158.124 171.073 157.845Z" fill="#4ABDAC" stroke="#263238" stroke-miterlimit="10"/>
<path d="M171.072 157.845L172.952 156.046" stroke="#263238" stroke-width="0.5" stroke-miterlimit="10"/>
<path d="M169.14 148.977L170.375 146.963" stroke="#263238" stroke-miterlimit="10"/>
<path d="M170 147.568C169.95 147.309 169.955 147.044 170.016 146.788C170.077 146.532 170.192 146.292 170.354 146.084C170.686 145.635 172.643 144.275 173.004 144.991C173.394 145.766 171.536 147.844 170 147.568Z" fill="#4ABDAC" stroke="#263238" stroke-miterlimit="10"/>
<path d="M170 147.568L171.879 145.766" stroke="#263238" stroke-width="0.5" stroke-miterlimit="10"/>
<path d="M168.669 144.459L169.904 142.445" stroke="#263238" stroke-miterlimit="10"/>
<path d="M169.53 143.047C169.479 142.79 169.484 142.524 169.545 142.269C169.606 142.013 169.722 141.774 169.884 141.567C170.216 141.118 172.17 139.758 172.535 140.474C172.924 141.249 171.066 143.327 169.53 143.047Z" fill="#4ABDAC" stroke="#263238" stroke-miterlimit="10"/>
<path d="M169.53 143.051L171.41 141.249" stroke="#263238" stroke-width="0.5" stroke-miterlimit="10"/>
<path d="M167.979 137.836L169.214 135.822" stroke="#263238" stroke-miterlimit="10"/>
<path d="M168.836 136.427C168.785 136.169 168.791 135.903 168.852 135.647C168.913 135.391 169.028 135.151 169.19 134.944C169.519 134.494 171.476 133.138 171.841 133.85C172.23 134.625 170.375 136.707 168.836 136.427Z" fill="#4ABDAC" stroke="#263238" stroke-miterlimit="10"/>
<path d="M168.836 136.427L170.719 134.629" stroke="#263238" stroke-width="0.5" stroke-miterlimit="10"/>
<path d="M167.445 133.602C167.394 133.344 167.399 133.078 167.46 132.822C167.521 132.566 167.637 132.326 167.799 132.119C168.128 131.669 170.085 130.313 170.45 131.025C170.846 131.804 168.988 133.882 167.445 133.602Z" fill="#4ABDAC" stroke="#263238" stroke-miterlimit="10"/>
<path d="M167.452 133.602L169.331 131.804" stroke="#263238" stroke-width="0.5" stroke-miterlimit="10"/>
<path d="M167.558 133.68C167.297 133.704 167.033 133.671 166.785 133.584C166.537 133.498 166.311 133.359 166.121 133.177C165.711 132.802 164.564 130.699 165.314 130.427C166.125 130.115 167.997 132.179 167.558 133.68Z" fill="#4ABDAC" stroke="#263238" stroke-miterlimit="10"/>
<path d="M167.559 133.68L165.97 131.62" stroke="#263238" stroke-width="0.5" stroke-miterlimit="10"/>
<path d="M176.934 138.523L173.37 172.872" stroke="#263238" stroke-miterlimit="10"/>
<path d="M174.155 166.319L172.92 164.305" stroke="#263238" stroke-miterlimit="10"/>
<path d="M173.299 164.91C173.35 164.652 173.344 164.386 173.283 164.13C173.222 163.874 173.107 163.635 172.945 163.427C172.613 162.977 170.655 161.622 170.294 162.337C169.902 163.112 171.76 165.19 173.299 164.91Z" fill="#4ABDAC" stroke="#263238" stroke-miterlimit="10"/>
<path d="M173.299 164.91L171.522 163.208" stroke="#263238" stroke-width="0.5" stroke-miterlimit="10"/>
<path d="M175.146 156.786L173.907 154.775" stroke="#263238" stroke-miterlimit="10"/>
<path d="M174.287 155.377C174.337 155.12 174.331 154.854 174.27 154.599C174.209 154.344 174.094 154.104 173.933 153.897C173.604 153.448 171.646 152.092 171.282 152.804C170.892 153.579 172.754 155.66 174.287 155.377Z" fill="#4ABDAC" stroke="#263238" stroke-miterlimit="10"/>
<path d="M174.285 155.377L172.509 153.674" stroke="#263238" stroke-width="0.5" stroke-miterlimit="10"/>
<path d="M174.739 160.694L173.504 158.68" stroke="#263238" stroke-miterlimit="10"/>
<path d="M173.883 159.285C173.934 159.027 173.928 158.761 173.867 158.505C173.806 158.249 173.691 158.01 173.529 157.802C173.197 157.352 171.239 155.996 170.878 156.712C170.486 157.487 172.344 159.565 173.883 159.285Z" fill="#4ABDAC" stroke="#263238" stroke-miterlimit="10"/>
<path d="M173.882 159.285L172.105 157.579" stroke="#263238" stroke-width="0.5" stroke-miterlimit="10"/>
<path d="M175.805 150.442L174.566 148.428" stroke="#263238" stroke-miterlimit="10"/>
<path d="M174.944 149.033C174.994 148.775 174.989 148.509 174.928 148.253C174.867 147.997 174.751 147.758 174.59 147.55C174.261 147.1 172.304 145.745 171.939 146.46C171.55 147.235 173.408 149.313 174.944 149.033Z" fill="#4ABDAC" stroke="#263238" stroke-miterlimit="10"/>
<path d="M174.945 149.033L173.168 147.327" stroke="#263238" stroke-width="0.5" stroke-miterlimit="10"/>
<path d="M176.465 144.07L175.227 142.056" stroke="#263238" stroke-miterlimit="10"/>
<path d="M175.606 142.661C175.656 142.403 175.651 142.137 175.59 141.881C175.529 141.625 175.414 141.385 175.252 141.178C174.923 140.728 172.966 139.372 172.601 140.084C172.208 140.863 174.066 142.941 175.606 142.661Z" fill="#4ABDAC" stroke="#263238" stroke-miterlimit="10"/>
<path d="M175.607 142.661L173.83 140.955" stroke="#263238" stroke-width="0.5" stroke-miterlimit="10"/>
<path d="M174.364 164.001L175.989 162.284" stroke="#263238" stroke-miterlimit="10"/>
<path d="M175.497 162.801C175.499 162.538 175.558 162.278 175.669 162.04C175.78 161.802 175.941 161.59 176.141 161.42C176.559 161.066 178.753 160.124 178.973 160.896C179.188 161.735 176.945 163.388 175.497 162.801Z" fill="#4ABDAC" stroke="#263238" stroke-miterlimit="10"/>
<path d="M175.497 162.801L177.706 161.427" stroke="#263238" stroke-width="0.5" stroke-miterlimit="10"/>
<path d="M175.434 153.724L177.055 152.003" stroke="#263238" stroke-miterlimit="10"/>
<path d="M176.562 152.52C176.566 152.258 176.625 151.998 176.736 151.76C176.847 151.522 177.007 151.311 177.207 151.14C177.624 150.768 179.819 149.844 180.038 150.616C180.254 151.458 178.01 153.111 176.562 152.52Z" fill="#4ABDAC" stroke="#263238" stroke-miterlimit="10"/>
<path d="M176.562 152.52L178.775 151.147" stroke="#263238" stroke-width="0.5" stroke-miterlimit="10"/>
<path d="M175.9 149.203L177.525 147.486" stroke="#263238" stroke-miterlimit="10"/>
<path d="M177.028 148.003C177.032 147.74 177.091 147.481 177.203 147.243C177.315 147.005 177.476 146.793 177.676 146.623C178.094 146.251 180.288 145.327 180.507 146.099C180.723 146.941 178.476 148.591 177.028 148.003Z" fill="#4ABDAC" stroke="#263238" stroke-miterlimit="10"/>
<path d="M177.028 148.003L179.24 146.63" stroke="#263238" stroke-width="0.5" stroke-miterlimit="10"/>
<path d="M176.586 142.583L178.21 140.866" stroke="#263238" stroke-miterlimit="10"/>
<path d="M177.708 141.38C177.71 141.117 177.769 140.858 177.88 140.619C177.991 140.381 178.152 140.17 178.352 139.999C178.77 139.627 180.964 138.703 181.184 139.475C181.41 140.318 179.163 141.971 177.708 141.38Z" fill="#4ABDAC" stroke="#263238" stroke-miterlimit="10"/>
<path d="M177.72 141.38L179.928 140.006" stroke="#263238" stroke-width="0.5" stroke-miterlimit="10"/>
<path d="M176.94 138.331C176.944 138.068 177.003 137.809 177.115 137.571C177.227 137.333 177.388 137.121 177.588 136.951C178.006 136.597 180.2 135.655 180.419 136.427C180.635 137.266 178.388 138.933 176.94 138.331Z" fill="#4ABDAC" stroke="#263238" stroke-miterlimit="10"/>
<path d="M176.94 138.332L179.152 136.958" stroke="#263238" stroke-width="0.5" stroke-miterlimit="10"/>
<path d="M177.033 138.427C176.772 138.397 176.521 138.311 176.296 138.176C176.072 138.04 175.879 137.858 175.73 137.641C175.401 137.188 174.715 134.908 175.504 134.781C176.364 134.643 177.773 137.05 177.033 138.427Z" fill="#4ABDAC" stroke="#263238" stroke-miterlimit="10"/>
<path d="M177.033 138.427L175.9 136.084" stroke="#263238" stroke-width="0.5" stroke-miterlimit="10"/>
<path d="M172.85 124.536V167.973" stroke="#263238" stroke-miterlimit="10"/>
<path d="M172.884 161.441L171.443 159.565" stroke="#263238" stroke-miterlimit="10"/>
<path d="M171.883 160.128C171.907 159.867 171.874 159.603 171.788 159.355C171.702 159.108 171.564 158.881 171.384 158.691C171.005 158.276 168.906 157.129 168.634 157.876C168.319 158.691 170.382 160.567 171.883 160.128Z" fill="#4ABDAC" stroke="#263238" stroke-miterlimit="10"/>
<path d="M171.883 160.128L169.94 158.616" stroke="#263238" stroke-width="0.5" stroke-miterlimit="10"/>
<path d="M172.884 153.278L171.443 151.402" stroke="#263238" stroke-miterlimit="10"/>
<path d="M171.883 151.964C171.907 151.703 171.874 151.44 171.788 151.192C171.702 150.944 171.564 150.717 171.384 150.527C171.005 150.113 168.906 148.966 168.634 149.713C168.319 150.527 170.382 152.403 171.883 151.964Z" fill="#4ABDAC" stroke="#263238" stroke-miterlimit="10"/>
<path d="M171.883 151.964L169.94 150.453" stroke="#263238" stroke-width="0.5" stroke-miterlimit="10"/>
<path d="M172.884 143.695L171.443 141.819" stroke="#263238" stroke-miterlimit="10"/>
<path d="M171.883 142.382C171.907 142.12 171.874 141.857 171.788 141.609C171.702 141.361 171.564 141.135 171.384 140.944C171.005 140.53 168.906 139.383 168.634 140.13C168.319 140.944 170.382 142.828 171.883 142.382Z" fill="#4ABDAC" stroke="#263238" stroke-miterlimit="10"/>
<path d="M171.883 142.382L169.94 140.87" stroke="#263238" stroke-width="0.5" stroke-miterlimit="10"/>
<path d="M172.884 137.315L171.443 135.439" stroke="#263238" stroke-miterlimit="10"/>
<path d="M171.883 136.002C171.907 135.741 171.874 135.478 171.788 135.23C171.702 134.982 171.564 134.755 171.384 134.565C171.005 134.151 168.906 133.004 168.634 133.751C168.319 134.565 170.382 136.455 171.883 136.002Z" fill="#4ABDAC" stroke="#263238" stroke-miterlimit="10"/>
<path d="M171.883 136.002L169.94 134.491" stroke="#263238" stroke-width="0.5" stroke-miterlimit="10"/>
<path d="M172.884 130.908L171.443 129.032" stroke="#263238" stroke-miterlimit="10"/>
<path d="M171.883 129.595C171.907 129.333 171.874 129.07 171.788 128.822C171.702 128.574 171.564 128.348 171.384 128.157C171.005 127.743 168.906 126.596 168.634 127.343C168.319 128.157 170.382 130.034 171.883 129.595Z" fill="#4ABDAC" stroke="#263238" stroke-miterlimit="10"/>
<path d="M171.883 129.595L169.94 128.083" stroke="#263238" stroke-width="0.5" stroke-miterlimit="10"/>
<path d="M172.853 163.933L174.289 162.057" stroke="#263238" stroke-miterlimit="10"/>
<path d="M173.85 162.62C173.827 162.358 173.859 162.095 173.946 161.847C174.033 161.599 174.171 161.373 174.353 161.183C174.728 160.769 176.83 159.622 177.103 160.368C177.414 161.183 175.351 163.059 173.85 162.62Z" fill="#4ABDAC" stroke="#263238" stroke-miterlimit="10"/>
<path d="M173.852 162.62L175.911 161.027" stroke="#263238" stroke-width="0.5" stroke-miterlimit="10"/>
<path d="M172.853 150.952L174.289 149.076" stroke="#263238" stroke-miterlimit="10"/>
<path d="M173.85 149.639C173.827 149.377 173.859 149.113 173.946 148.865C174.033 148.618 174.171 148.391 174.353 148.201C174.728 147.787 176.83 146.64 177.103 147.387C177.414 148.201 175.351 150.074 173.85 149.639Z" fill="#4ABDAC" stroke="#263238" stroke-miterlimit="10"/>
<path d="M173.852 149.638L175.911 148.045" stroke="#263238" stroke-width="0.5" stroke-miterlimit="10"/>
<path d="M172.853 144.544L174.289 142.668" stroke="#263238" stroke-miterlimit="10"/>
<path d="M173.85 143.231C173.827 142.97 173.859 142.706 173.946 142.458C174.033 142.21 174.171 141.984 174.353 141.794C174.728 141.38 176.83 140.233 177.103 140.98C177.414 141.794 175.351 143.667 173.85 143.231Z" fill="#4ABDAC" stroke="#263238" stroke-miterlimit="10"/>
<path d="M173.852 143.231L175.911 141.638" stroke="#263238" stroke-width="0.5" stroke-miterlimit="10"/>
<path d="M172.853 136.073L174.289 134.2" stroke="#263238" stroke-miterlimit="10"/>
<path d="M173.85 134.763C173.827 134.501 173.859 134.237 173.946 133.988C174.033 133.74 174.171 133.513 174.353 133.322C174.728 132.908 176.83 131.765 177.103 132.512C177.414 133.322 175.351 135.199 173.85 134.763Z" fill="#4ABDAC" stroke="#263238" stroke-miterlimit="10"/>
<path d="M173.852 134.763L175.911 133.167" stroke="#263238" stroke-width="0.5" stroke-miterlimit="10"/>
<path d="M172.853 129.418L174.289 127.542" stroke="#263238" stroke-miterlimit="10"/>
<path d="M173.85 128.104C173.827 127.842 173.859 127.578 173.946 127.33C174.033 127.081 174.171 126.854 174.353 126.663C174.728 126.253 176.83 125.106 177.103 125.853C177.414 126.663 175.351 128.54 173.85 128.104Z" fill="#4ABDAC" stroke="#263238" stroke-miterlimit="10"/>
<path d="M173.852 128.104L175.911 126.511" stroke="#263238" stroke-width="0.5" stroke-miterlimit="10"/>
<path d="M172.754 125.152C172.73 124.89 172.763 124.626 172.849 124.377C172.936 124.129 173.075 123.902 173.256 123.711C173.631 123.297 175.734 122.154 176.006 122.9C176.328 123.711 174.265 125.587 172.754 125.152Z" fill="#4ABDAC" stroke="#263238" stroke-miterlimit="10"/>
<path d="M172.765 125.152L174.824 123.556" stroke="#263238" stroke-width="0.5" stroke-miterlimit="10"/>
<path d="M172.867 125.24C172.604 125.236 172.345 125.176 172.108 125.063C171.871 124.951 171.66 124.789 171.49 124.589C171.115 124.171 170.194 121.976 170.969 121.757C171.808 121.545 173.461 123.792 172.867 125.24Z" fill="#4ABDAC" stroke="#263238" stroke-miterlimit="10"/>
<path d="M172.867 125.241L171.497 123.024" stroke="#263238" stroke-width="0.5" stroke-miterlimit="10"/>
<path d="M174.636 179.237H170.035L169.462 167.619H175.21L174.636 179.237Z" fill="#263238" stroke="#263238" stroke-miterlimit="10"/>
<path d="M160.721 179.644H197.175" stroke="#263238" stroke-linecap="round" stroke-linejoin="round"/>
<path d="M59.1445 179.644H157.889" stroke="#263238" stroke-linecap="round" stroke-linejoin="round"/>
<path d="M28 179.644H55.2519" stroke="#263238" stroke-linecap="round" stroke-linejoin="round"/>
<path d="M80.9006 179.651L78.416 154.273L76.4766 154.697L79.9839 179.651H80.9006Z" fill="#808080" stroke="#808080" stroke-linecap="round" stroke-linejoin="round"/>
<path d="M52.2119 179.651L55.7193 154.697L53.7834 154.273L51.2988 179.651H52.2119Z" fill="#808080" stroke="#808080" stroke-linecap="round" stroke-linejoin="round"/>
<path d="M54.3522 157.342L53.1064 127.662C53.0883 127.243 53.1552 126.824 53.3032 126.431C53.4512 126.038 53.6772 125.68 53.9676 125.377C54.258 125.074 54.6067 124.833 54.9928 124.668C55.3788 124.504 55.7942 124.419 56.2139 124.419H77.0032C77.4319 124.419 77.8559 124.508 78.2487 124.68C78.6415 124.852 78.9945 125.103 79.2856 125.418C79.5767 125.733 79.7997 126.104 79.9404 126.509C80.0812 126.914 80.1367 127.344 80.1035 127.772L77.7995 157.342H54.3522Z" fill="#808080" stroke="#808080" stroke-linecap="round" stroke-linejoin="round"/>
<path d="M79.7717 150.832H52.1836V157.335H79.7717V150.832Z" fill="#808080" stroke="#808080" stroke-linecap="round" stroke-linejoin="round"/>
<path d="M54.3526 157.342H52.2644L50.8027 145.122C50.8027 144.652 50.9892 144.202 51.321 143.87C51.6529 143.538 52.103 143.352 52.5723 143.352V143.352C53.0417 143.352 53.4918 143.538 53.8236 143.87C54.1555 144.202 54.3419 144.652 54.3419 145.122L54.3526 157.342Z" fill="#808080" stroke="#808080" stroke-linecap="round" stroke-linejoin="round"/>
<path d="M77.8008 157.342H79.8889L81.3541 145.122C81.3541 144.652 81.1677 144.202 80.8358 143.87C80.504 143.538 80.0539 143.352 79.5845 143.352C79.1152 143.352 78.6651 143.538 78.3332 143.87C78.0014 144.202 77.8149 144.652 77.8149 145.122L77.8008 157.342Z" fill="#808080" stroke="#808080" stroke-linecap="round" stroke-linejoin="round"/>
<path d="M39.8848 124.922H57.4357C57.6704 124.922 57.8955 125.015 58.0614 125.181C58.2273 125.347 58.3206 125.572 58.3206 125.807V136.399H39V125.807C39 125.572 39.0932 125.347 39.2592 125.181C39.4251 125.015 39.6501 124.922 39.8848 124.922Z" fill="white" stroke="#808080" stroke-linecap="round" stroke-linejoin="round"/>
<path d="M100.907 179.651L98.614 139.62H96.6533L100.016 179.651H100.907Z" fill="#808080" stroke="#808080" stroke-linecap="round" stroke-linejoin="round"/>
<path d="M108.121 179.651L105.828 139.62H103.863L107.226 179.651H108.121Z" fill="#808080" stroke="#808080" stroke-linecap="round" stroke-linejoin="round"/>
<path d="M44.5 179.651L47.3633 139.62H45.4061L43.6152 179.651H44.5Z" fill="#808080" stroke="#808080" stroke-linecap="round" stroke-linejoin="round"/>
<path d="M36.4336 179.651L39.2933 139.62H37.3397L35.5488 179.651H36.4336Z" fill="#808080" stroke="#808080" stroke-linecap="round" stroke-linejoin="round"/>
<path d="M108.339 137.362H36.0615V140.863H108.339V137.362Z" fill="white" stroke="#808080" stroke-linecap="round" stroke-linejoin="round"/>
<path d="M108.339 137.362H36.0615V138.562H108.339V137.362Z" fill="#808080" stroke="#808080" stroke-linecap="round" stroke-linejoin="round"/>
<path d="M109.426 136.193H34.9756V137.528H109.426V136.193Z" fill="white" stroke="#808080" stroke-linecap="round" stroke-linejoin="round"/>
<path opacity="0.15" d="M169.922 25.2972H46.7578V121.587H169.922V25.2972Z" fill="black"/>
<path d="M174.286 21.5308H50.75V118.047H174.286V21.5308Z" fill="#4ABDAC"/>
<path d="M174.286 21.5308H50.75V118.047H174.286V21.5308Z" fill="white" stroke="#263238" stroke-linecap="round" stroke-linejoin="round"/>
<path d="M168.871 40.1443H53.7227V92.5692H168.871V40.1443Z" fill="white"/>
<path d="M57.3721 85.0289H164.638" stroke="#8C8C8C" stroke-width="0.5" stroke-miterlimit="10"/>
<path d="M57.3721 85.0291V83.9777" stroke="#8C8C8C" stroke-width="0.5" stroke-miterlimit="10"/>
<path d="M63.0166 85.0291V83.9777" stroke="#8C8C8C" stroke-width="0.5" stroke-miterlimit="10"/>
<path d="M68.6611 85.0291V83.9777" stroke="#8C8C8C" stroke-width="0.5" stroke-miterlimit="10"/>
<path d="M74.3066 85.0291V83.9777" stroke="#8C8C8C" stroke-width="0.5" stroke-miterlimit="10"/>
<path d="M79.9521 85.0291V83.9777" stroke="#8C8C8C" stroke-width="0.5" stroke-miterlimit="10"/>
<path d="M85.5967 85.0291V83.9777" stroke="#8C8C8C" stroke-width="0.5" stroke-miterlimit="10"/>
<path d="M91.2461 85.0291V83.9777" stroke="#8C8C8C" stroke-width="0.5" stroke-miterlimit="10"/>
<path d="M96.8906 85.0291V83.9777" stroke="#8C8C8C" stroke-width="0.5" stroke-miterlimit="10"/>
<path d="M102.536 85.0291V83.9777" stroke="#8C8C8C" stroke-width="0.5" stroke-miterlimit="10"/>
<path d="M108.182 85.0291V83.9777" stroke="#8C8C8C" stroke-width="0.5" stroke-miterlimit="10"/>
<path d="M113.826 85.0291V83.9777" stroke="#8C8C8C" stroke-width="0.5" stroke-miterlimit="10"/>
<path d="M119.471 85.0291V83.9777" stroke="#8C8C8C" stroke-width="0.5" stroke-miterlimit="10"/>
<path d="M125.119 85.0291V83.9777" stroke="#8C8C8C" stroke-width="0.5" stroke-miterlimit="10"/>
<path d="M130.765 85.0291V83.9777" stroke="#8C8C8C" stroke-width="0.5" stroke-miterlimit="10"/>
<path d="M136.409 85.0291V83.9777" stroke="#8C8C8C" stroke-width="0.5" stroke-miterlimit="10"/>
<path d="M142.055 85.0291V83.9777" stroke="#8C8C8C" stroke-width="0.5" stroke-miterlimit="10"/>
<path d="M147.699 85.0291V83.9777" stroke="#8C8C8C" stroke-width="0.5" stroke-miterlimit="10"/>
<path d="M153.345 85.0291V83.9777" stroke="#8C8C8C" stroke-width="0.5" stroke-miterlimit="10"/>
<path d="M158.99 85.0291V83.9777" stroke="#8C8C8C" stroke-width="0.5" stroke-miterlimit="10"/>
<path d="M164.638 85.0291V83.9777" stroke="#8C8C8C" stroke-width="0.5" stroke-miterlimit="10"/>
<path d="M57.3721 85.029V42.9447" stroke="#8C8C8C" stroke-width="0.5" stroke-miterlimit="10"/>
<path d="M57.3721 85.0289H60.0513" stroke="#8C8C8C" stroke-width="0.5" stroke-miterlimit="10"/>
<path d="M57.3725 76.6141H54.4102" stroke="#8C8C8C" stroke-width="0.5" stroke-miterlimit="10"/>
<path d="M57.3725 68.1959H54.4102" stroke="#8C8C8C" stroke-width="0.5" stroke-miterlimit="10"/>
<path d="M57.3725 59.7778H54.4102" stroke="#8C8C8C" stroke-width="0.5" stroke-miterlimit="10"/>
<path d="M57.3725 51.363H54.4102" stroke="#8C8C8C" stroke-width="0.5" stroke-miterlimit="10"/>
<path d="M57.3725 42.9447H54.4102" stroke="#8C8C8C" stroke-width="0.5" stroke-miterlimit="10"/>
<path d="M156.169 51.3631L161.814 44.9874" stroke="#4ABDAC" stroke-width="2" stroke-miterlimit="10" stroke-linecap="round"/>
<path d="M150.523 65.672L156.168 51.363" stroke="#4ABDAC" stroke-width="2" stroke-miterlimit="10" stroke-linecap="round"/>
<path d="M144.879 59.7778L150.524 65.6721" stroke="#4ABDAC" stroke-width="2" stroke-miterlimit="10" stroke-linecap="round"/>
<path d="M139.23 74.9293L144.879 59.7778" stroke="#4ABDAC" stroke-width="2" stroke-miterlimit="10" stroke-linecap="round"/>
<path d="M133.586 51.363L139.231 74.9293" stroke="#4ABDAC" stroke-width="2" stroke-miterlimit="10" stroke-linecap="round"/>
<path d="M127.94 42.9447L133.585 51.363" stroke="#4ABDAC" stroke-width="2" stroke-miterlimit="10" stroke-linecap="round"/>
<path d="M122.295 80.8234L127.94 42.9447" stroke="#4ABDAC" stroke-width="2" stroke-miterlimit="10" stroke-linecap="round"/>
<path d="M116.65 78.2958L122.295 80.8234" stroke="#4ABDAC" stroke-width="2" stroke-miterlimit="10" stroke-linecap="round"/>
<path d="M111.006 77.4531L116.651 78.2957" stroke="#4ABDAC" stroke-width="2" stroke-miterlimit="10" stroke-linecap="round"/>
<path d="M105.357 60.7689L111.006 77.4533" stroke="#4ABDAC" stroke-width="2" stroke-miterlimit="10" stroke-linecap="round"/>
<path d="M99.7119 57.4021L105.357 60.7687" stroke="#4ABDAC" stroke-width="2" stroke-miterlimit="10" stroke-linecap="round"/>
<path d="M94.0664 73.2474L99.7114 57.4021" stroke="#4ABDAC" stroke-width="2" stroke-miterlimit="10" stroke-linecap="round"/>
<path d="M88.4219 76.6142L94.0669 73.2476" stroke="#4ABDAC" stroke-width="2" stroke-miterlimit="10" stroke-linecap="round"/>
<path d="M82.7773 58.9386L88.4224 76.6142" stroke="#4ABDAC" stroke-width="2" stroke-miterlimit="10" stroke-linecap="round"/>
<path d="M77.1309 56.4109L82.7759 58.9385" stroke="#4ABDAC" stroke-width="2" stroke-miterlimit="10" stroke-linecap="round"/>
<path d="M71.4854 53.0442L77.1304 56.4108" stroke="#4ABDAC" stroke-width="2" stroke-miterlimit="10" stroke-linecap="round"/>
<path d="M65.8379 56.4108L71.4865 53.0442" stroke="#4ABDAC" stroke-width="2" stroke-miterlimit="10" stroke-linecap="round"/>
<path d="M60.1924 59.7775L65.8374 56.4109" stroke="#4ABDAC" stroke-width="2" stroke-miterlimit="10" stroke-linecap="round"/>
<path d="M161.813 43.989C161.549 43.989 161.295 44.0942 161.108 44.2814C160.921 44.4686 160.815 44.7225 160.815 44.9873V44.9873C160.815 45.2521 160.921 45.506 161.108 45.6932C161.295 45.8804 161.549 45.9856 161.813 45.9856V45.9856C162.078 45.9856 162.332 45.8804 162.519 45.6932C162.706 45.506 162.812 45.2521 162.812 44.9873V44.9873C162.812 44.7225 162.706 44.4686 162.519 44.2814C162.332 44.0942 162.078 43.989 161.813 43.989V43.989Z" fill="white" stroke="#4ABDAC" stroke-linecap="round" stroke-linejoin="round"/>
<path d="M156.169 50.3646C155.904 50.3646 155.65 50.4698 155.463 50.657C155.276 50.8442 155.171 51.0982 155.171 51.3629V51.3629C155.171 51.6277 155.276 51.8816 155.463 52.0688C155.65 52.256 155.904 52.3612 156.169 52.3612V52.3612C156.434 52.3612 156.688 52.256 156.875 52.0688C157.062 51.8816 157.167 51.6277 157.167 51.3629V51.3629C157.167 51.0982 157.062 50.8442 156.875 50.657C156.688 50.4698 156.434 50.3646 156.169 50.3646V50.3646Z" fill="white" stroke="#4ABDAC" stroke-linecap="round" stroke-linejoin="round"/>
<path d="M150.523 64.6736C150.259 64.6736 150.005 64.7788 149.818 64.966C149.631 65.1532 149.525 65.4071 149.525 65.6719V65.6719C149.525 65.9367 149.631 66.1906 149.818 66.3778C150.005 66.565 150.259 66.6702 150.523 66.6702V66.6702C150.788 66.6692 151.041 66.5638 151.228 66.3768C151.415 66.1897 151.521 65.9364 151.522 65.6719V65.6719C151.522 65.4071 151.416 65.1532 151.229 64.966C151.042 64.7788 150.788 64.6736 150.523 64.6736V64.6736Z" fill="white" stroke="#4ABDAC" stroke-linecap="round" stroke-linejoin="round"/>
<path d="M144.879 58.7792C144.614 58.7792 144.36 58.8844 144.173 59.0716C143.986 59.2588 143.881 59.5127 143.881 59.7775V59.7775C143.881 60.0422 143.986 60.2962 144.173 60.4834C144.36 60.6706 144.614 60.7758 144.879 60.7758V60.7758C145.01 60.7758 145.139 60.7499 145.26 60.6997C145.381 60.6495 145.491 60.5759 145.583 60.4832C145.676 60.3904 145.749 60.2803 145.799 60.1592C145.849 60.0381 145.874 59.9084 145.873 59.7775C145.873 59.5133 145.769 59.2599 145.582 59.0728C145.396 58.8857 145.143 58.7801 144.879 58.7792V58.7792Z" fill="white" stroke="#4ABDAC" stroke-linecap="round" stroke-linejoin="round"/>
<path d="M139.23 73.9309C138.966 73.9309 138.712 74.0361 138.525 74.2233C138.338 74.4105 138.232 74.6644 138.232 74.9292V74.9292C138.232 75.194 138.338 75.4479 138.525 75.6351C138.712 75.8223 138.966 75.9275 139.23 75.9275V75.9275C139.495 75.9275 139.749 75.8223 139.936 75.6351C140.123 75.4479 140.229 75.194 140.229 74.9292V74.9292C140.229 74.6644 140.123 74.4105 139.936 74.2233C139.749 74.0361 139.495 73.9309 139.23 73.9309V73.9309Z" fill="white" stroke="#4ABDAC" stroke-linecap="round" stroke-linejoin="round"/>
<path d="M133.585 50.3646C133.32 50.3646 133.066 50.4698 132.879 50.657C132.692 50.8442 132.587 51.0982 132.587 51.3629V51.3629C132.588 51.6274 132.693 51.8808 132.88 52.0678C133.067 52.2548 133.321 52.3603 133.585 52.3612V52.3612C133.85 52.3612 134.104 52.256 134.291 52.0688C134.478 51.8816 134.583 51.6277 134.583 51.3629V51.3629C134.583 51.0982 134.478 50.8442 134.291 50.657C134.104 50.4698 133.85 50.3646 133.585 50.3646V50.3646Z" fill="white" stroke="#4ABDAC" stroke-linecap="round" stroke-linejoin="round"/>
<path d="M127.94 41.9359C127.676 41.9359 127.422 42.0411 127.235 42.2283C127.048 42.4155 126.942 42.6694 126.942 42.9342V42.9342C126.942 43.199 127.048 43.4529 127.235 43.6401C127.422 43.8273 127.676 43.9325 127.94 43.9325V43.9325C128.205 43.9325 128.459 43.8273 128.646 43.6401C128.833 43.4529 128.939 43.199 128.939 42.9342V42.9342C128.939 42.6694 128.833 42.4155 128.646 42.2283C128.459 42.0411 128.205 41.9359 127.94 41.9359V41.9359Z" fill="#263238" stroke="#4ABDAC" stroke-linecap="round" stroke-linejoin="round"/>
<path d="M122.296 79.8143C122.031 79.8143 121.777 79.9195 121.59 80.1067C121.403 80.2939 121.298 80.5479 121.298 80.8126C121.298 80.9436 121.324 81.0732 121.374 81.1941C121.424 81.3151 121.498 81.4249 121.59 81.5173C121.683 81.6097 121.793 81.6829 121.914 81.7327C122.035 81.7825 122.165 81.8079 122.296 81.8074V81.8074C122.427 81.8079 122.557 81.7825 122.678 81.7327C122.799 81.6829 122.909 81.6097 123.001 81.5173C123.094 81.4249 123.168 81.3151 123.218 81.1941C123.268 81.0732 123.294 80.9436 123.294 80.8126V80.8126C123.294 80.5479 123.189 80.2939 123.002 80.1067C122.814 79.9195 122.561 79.8143 122.296 79.8143Z" fill="white" stroke="#4ABDAC" stroke-linecap="round" stroke-linejoin="round"/>
<path d="M116.65 77.2975C116.386 77.2975 116.132 77.4027 115.945 77.5899C115.757 77.7771 115.652 78.031 115.652 78.2958V78.2958C115.652 78.5606 115.757 78.8145 115.945 79.0017C116.132 79.1889 116.386 79.2941 116.65 79.2941V79.2941C116.915 79.2941 117.169 79.1889 117.356 79.0017C117.543 78.8145 117.648 78.5606 117.648 78.2958V78.2958C117.648 78.0313 117.542 77.7779 117.355 77.5909C117.168 77.4039 116.915 77.2984 116.65 77.2975V77.2975Z" fill="white" stroke="#4ABDAC" stroke-linecap="round" stroke-linejoin="round"/>
<path d="M111.005 76.4585C110.874 76.458 110.744 76.4834 110.623 76.5332C110.502 76.583 110.392 76.6562 110.299 76.7486C110.207 76.841 110.133 76.9508 110.083 77.0718C110.033 77.1927 110.007 77.3223 110.007 77.4533V77.4533C110.007 77.718 110.112 77.9719 110.299 78.1592C110.486 78.3464 110.74 78.4516 111.005 78.4516V78.4516C111.27 78.4516 111.523 78.3464 111.711 78.1592C111.898 77.9719 112.003 77.718 112.003 77.4533V77.4533C112.002 77.1891 111.896 76.9361 111.709 76.7496C111.522 76.5632 111.269 76.4585 111.005 76.4585V76.4585Z" fill="white" stroke="#4ABDAC" stroke-linecap="round" stroke-linejoin="round"/>
<path d="M105.357 59.7705C105.226 59.7705 105.096 59.7964 104.975 59.8466C104.855 59.8968 104.745 59.9704 104.652 60.0631C104.56 60.1559 104.487 60.2659 104.437 60.387C104.387 60.5081 104.362 60.6379 104.362 60.7688V60.7688C104.362 60.8997 104.387 61.0295 104.437 61.1506C104.487 61.2717 104.56 61.3817 104.652 61.4745C104.745 61.5672 104.855 61.6408 104.975 61.691C105.096 61.7413 105.226 61.7671 105.357 61.7671V61.7671C105.622 61.7671 105.875 61.6619 106.063 61.4747C106.25 61.2875 106.355 61.0336 106.355 60.7688V60.7688C106.355 60.504 106.25 60.2501 106.063 60.0629C105.875 59.8757 105.622 59.7705 105.357 59.7705V59.7705Z" fill="white" stroke="#4ABDAC" stroke-linecap="round" stroke-linejoin="round"/>
<path d="M99.7109 56.4039C99.4462 56.4039 99.1924 56.5091 99.0052 56.6963C98.818 56.8835 98.7129 57.1375 98.7129 57.4022V57.4022C98.7129 57.667 98.818 57.9209 99.0052 58.1081C99.1924 58.2953 99.4462 58.4005 99.7109 58.4005V58.4005C99.9756 58.4005 100.23 58.2953 100.417 58.1081C100.604 57.9209 100.709 57.667 100.709 57.4022V57.4022C100.709 57.1375 100.604 56.8835 100.417 56.6963C100.23 56.5091 99.9756 56.4039 99.7109 56.4039V56.4039Z" fill="white" stroke="#4ABDAC" stroke-linecap="round" stroke-linejoin="round"/>
<path d="M94.0664 72.2493C93.8017 72.2493 93.5479 72.3544 93.3607 72.5417C93.1735 72.7289 93.0684 72.9828 93.0684 73.2476V73.2476C93.0684 73.5123 93.1735 73.7663 93.3607 73.9535C93.5479 74.1407 93.8017 74.2459 94.0664 74.2459V74.2459C94.3311 74.2459 94.585 74.1407 94.7722 73.9535C94.9593 73.7663 95.0645 73.5123 95.0645 73.2476V73.2476C95.0645 72.9828 94.9593 72.7289 94.7722 72.5417C94.585 72.3544 94.3311 72.2493 94.0664 72.2493V72.2493Z" fill="white" stroke="#4ABDAC" stroke-linecap="round" stroke-linejoin="round"/>
<path d="M88.421 75.616C88.2887 75.616 88.1578 75.6422 88.0358 75.6933C87.9138 75.7443 87.8031 75.8191 87.7102 75.9134C87.6174 76.0076 87.5441 76.1193 87.4948 76.242C87.4455 76.3648 87.4211 76.4961 87.423 76.6284V76.6284C87.423 76.8932 87.5281 77.1471 87.7153 77.3343C87.9024 77.5215 88.1563 77.6267 88.421 77.6267V77.6267C88.6857 77.6267 88.9396 77.5215 89.1267 77.3343C89.3139 77.1471 89.4191 76.8932 89.4191 76.6284V76.6284C89.4209 76.4961 89.3965 76.3648 89.3472 76.242C89.2979 76.1193 89.2247 76.0076 89.1318 75.9134C89.0389 75.8191 88.9283 75.7443 88.8063 75.6933C88.6842 75.6422 88.5533 75.616 88.421 75.616V75.616Z" fill="white" stroke="#4ABDAC" stroke-linecap="round" stroke-linejoin="round"/>
<path d="M82.7763 57.9401C82.5165 57.9447 82.2687 58.0504 82.0856 58.2349C81.9026 58.4193 81.7986 58.6679 81.7959 58.9278V58.9278C81.7959 59.1925 81.9011 59.4465 82.0882 59.6337C82.2754 59.8209 82.5293 59.9261 82.794 59.9261V59.9261C83.0587 59.9261 83.3125 59.8209 83.4997 59.6337C83.6869 59.4465 83.792 59.1925 83.792 58.9278V58.9278C83.7906 58.7961 83.7632 58.6659 83.7113 58.5449C83.6594 58.4238 83.5841 58.3142 83.4897 58.2224C83.3953 58.1306 83.2836 58.0584 83.1612 58.0099C83.0387 57.9615 82.9079 57.9378 82.7763 57.9401V57.9401Z" fill="white" stroke="#4ABDAC" stroke-linecap="round" stroke-linejoin="round"/>
<path d="M77.1309 55.4128C76.8662 55.4128 76.6123 55.518 76.4251 55.7052C76.238 55.8925 76.1328 56.1464 76.1328 56.4111V56.4111C76.1328 56.6759 76.238 56.9298 76.4251 57.117C76.6123 57.3043 76.8662 57.4094 77.1309 57.4094V57.4094C77.3956 57.4094 77.6494 57.3043 77.8366 57.117C78.0238 56.9298 78.1289 56.6759 78.1289 56.4111V56.4111C78.128 56.1467 78.0225 55.8933 77.8356 55.7063C77.6486 55.5193 77.3953 55.4138 77.1309 55.4128Z" fill="white" stroke="#4ABDAC" stroke-linecap="round" stroke-linejoin="round"/>
<path d="M71.4863 52.0463C71.2216 52.0463 70.9678 52.1514 70.7806 52.3387C70.5934 52.5259 70.4883 52.7798 70.4883 53.0446V53.0446C70.4883 53.3093 70.5934 53.5633 70.7806 53.7505C70.9678 53.9377 71.2216 54.0429 71.4863 54.0429V54.0429C71.6172 54.0429 71.7469 54.017 71.8677 53.9668C71.9886 53.9166 72.0984 53.843 72.1908 53.7503C72.2832 53.6575 72.3564 53.5474 72.4062 53.4263C72.4559 53.3052 72.4813 53.1755 72.4809 53.0446V53.0446C72.4809 52.7804 72.3762 52.527 72.1898 52.3399C72.0034 52.1528 71.7504 52.0472 71.4863 52.0463V52.0463Z" fill="white" stroke="#4ABDAC" stroke-linecap="round" stroke-linejoin="round"/>
<path d="M65.8379 55.4128C65.5735 55.4138 65.3202 55.5193 65.1332 55.7063C64.9462 55.8933 64.8408 56.1467 64.8398 56.4111V56.4111C64.8398 56.6759 64.945 56.9298 65.1322 57.117C65.3193 57.3043 65.5732 57.4094 65.8379 57.4094V57.4094C66.1026 57.4094 66.3565 57.3043 66.5436 57.117C66.7308 56.9298 66.836 56.6759 66.836 56.4111V56.4111C66.836 56.1464 66.7308 55.8925 66.5436 55.7052C66.3565 55.518 66.1026 55.4128 65.8379 55.4128V55.4128Z" fill="white" stroke="#4ABDAC" stroke-linecap="round" stroke-linejoin="round"/>
<path d="M60.207 58.7792C59.9426 58.7801 59.6893 58.8856 59.5023 59.0726C59.3154 59.2596 59.2099 59.513 59.209 59.7775V59.7775C59.209 60.0422 59.3141 60.2962 59.5013 60.4834C59.6885 60.6706 59.9423 60.7758 60.207 60.7758V60.7758C60.4717 60.7758 60.7256 60.6706 60.9128 60.4834C61.0999 60.2962 61.2051 60.0422 61.2051 59.7775C61.2051 59.5127 61.0999 59.2588 60.9128 59.0716C60.7256 58.8844 60.4717 58.7792 60.207 58.7792V58.7792Z" fill="white" stroke="#4ABDAC" stroke-linecap="round" stroke-linejoin="round"/>
<path d="M174.286 21.5308H171.094V118.047H174.286V21.5308Z" fill="#DBDBDB" stroke="#263238" stroke-miterlimit="10"/>
<path d="M174.286 51.4337H171.094V77.5134H174.286V51.4337Z" fill="#878787"/>
<path d="M174.286 21.5308H50.75V27.8002H174.286V21.5308Z" fill="#4ABDAC" stroke="#263238" stroke-linecap="round" stroke-linejoin="round"/>
<path d="M50.75 29.7047H81.7641C81.9518 29.7047 82.1319 29.7793 82.2646 29.9121C82.3974 30.0449 82.472 30.2249 82.472 30.4127V34.0165C82.472 34.2043 82.3974 34.3844 82.2646 34.5172C82.1319 34.6499 81.9518 34.7245 81.7641 34.7245H50.75V29.7047Z" fill="#263238"/>
<path d="M55.7191 32.6005L56.0483 30.4269H56.7136V33.489H56.2606V31.2942L55.9279 33.489H55.4749L55.121 31.3261V33.489H54.6963V30.4269H55.3652L55.7191 32.6005Z" fill="#4ABDAC"/>
<path d="M58.6216 33.489H58.1367L58.0553 32.9332H57.4642L57.3758 33.489H56.9404L57.4288 30.4269H58.1367L58.6216 33.489ZM57.5244 32.5191H57.988L57.758 30.9614L57.5244 32.5191Z" fill="#4ABDAC"/>
<path d="M59.8528 33.489C59.8145 33.3679 59.8 33.2404 59.8103 33.1138V32.6323C59.8103 32.3491 59.7148 32.2429 59.4953 32.2429H59.329V33.489H58.8477V30.4269H59.5555C60.0545 30.4269 60.2633 30.6605 60.2633 31.1349V31.3756C60.2795 31.4991 60.2581 31.6246 60.202 31.7358C60.1458 31.8469 60.0574 31.9385 59.9483 31.9987C60.189 32.0978 60.2669 32.3279 60.2669 32.65V33.1209C60.2601 33.2413 60.2782 33.3618 60.32 33.4749L59.8528 33.489ZM59.329 30.8658V31.804H59.4989C59.6794 31.804 59.7891 31.7261 59.7891 31.4818V31.1809C59.7891 30.9614 59.7148 30.8658 59.5449 30.8658H59.329Z" fill="#4ABDAC"/>
<path d="M61.9977 32.3491V32.7526C61.9977 33.2447 61.7535 33.5244 61.2899 33.5244C60.8262 33.5244 60.582 33.2447 60.582 32.7526V31.1631C60.582 30.6746 60.8262 30.3949 61.2899 30.3949C61.3899 30.388 61.4903 30.4036 61.5835 30.4406C61.6767 30.4776 61.7603 30.5352 61.8283 30.6089C61.8963 30.6827 61.9468 30.7708 61.9761 30.8667C62.0054 30.9627 62.0128 31.064 61.9977 31.1631V31.4605H61.5447V31.1313C61.5447 30.9153 61.4456 30.8304 61.2934 30.8304C61.1412 30.8304 61.0457 30.9153 61.0457 31.1313V32.7845C61.0457 33.004 61.1412 33.0818 61.2934 33.0818C61.4456 33.0818 61.5447 33.004 61.5447 32.7845V32.3491H61.9977Z" fill="#4ABDAC"/>
<path d="M62.7723 33.489H62.291V30.4269H62.7723V31.7402H63.3174V30.4269H63.8058V33.489H63.3174V32.1757H62.7723V33.489Z" fill="#4ABDAC"/>
<path d="M138.299 22.5997H58.876V26.1363H138.299V22.5997Z" fill="white"/>
<path d="M62.8051 86.1865H57.4326V88.6575H62.8051V86.1865Z" fill="#A1A1A1"/>
<path d="M68.4565 86.1865H63.084V88.6575H68.4565V86.1865Z" fill="#595959"/>
<path d="M74.1088 86.1865H68.7363V88.6575H74.1088V86.1865Z" fill="#A1A1A1"/>
<path d="M79.7612 86.1865H74.3887V88.6575H79.7612V86.1865Z" fill="#595959"/>
<path d="M85.4165 86.1865H80.0439V88.6575H85.4165V86.1865Z" fill="#A1A1A1"/>
<path d="M91.0688 86.1865H85.6963V88.6575H91.0688V86.1865Z" fill="#595959"/>
<path d="M96.7202 86.1865H91.3477V88.6575H96.7202V86.1865Z" fill="#A1A1A1"/>
<path d="M102.373 86.1865H97.001V88.6575H102.373V86.1865Z" fill="#595959"/>
<path d="M108.025 86.1865H102.652V88.6575H108.025V86.1865Z" fill="#A1A1A1"/>
<path d="M113.676 86.1865H108.304V88.6575H113.676V86.1865Z" fill="#595959"/>
<path d="M119.33 86.1865H113.957V88.6575H119.33V86.1865Z" fill="#A1A1A1"/>
<path d="M124.981 86.1865H119.608V88.6575H124.981V86.1865Z" fill="#595959"/>
<path d="M130.634 86.1865H125.262V88.6575H130.634V86.1865Z" fill="#A1A1A1"/>
<path d="M136.29 86.1865H130.917V88.6575H136.29V86.1865Z" fill="#595959"/>
<path d="M141.942 86.1865H136.569V88.6575H141.942V86.1865Z" fill="#A1A1A1"/>
<path d="M147.593 86.1865H142.221V88.6575H147.593V86.1865Z" fill="#595959"/>
<path d="M153.247 86.1865H147.874V88.6575H153.247V86.1865Z" fill="#A1A1A1"/>
<path d="M158.898 86.1865H153.525V88.6575H158.898V86.1865Z" fill="#595959"/>
<path d="M164.549 86.1865H159.177V88.6575H164.549V86.1865Z" fill="#A1A1A1"/>
<path d="M63.0909 36.7355H53.9385V39.2064H63.0909V36.7355Z" fill="#A1A1A1"/>
<path d="M72.7178 36.7355H63.5654V39.2064H72.7178V36.7355Z" fill="#595959"/>
<path d="M82.3448 36.7355H73.1924V39.2064H82.3448V36.7355Z" fill="#A1A1A1"/>
<path d="M91.9747 36.7355H82.8223V39.2064H91.9747V36.7355Z" fill="#595959"/>
<path d="M101.602 36.7355H92.4492V39.2064H101.602V36.7355Z" fill="#A1A1A1"/>
<path d="M111.232 36.7355H102.079V39.2064H111.232V36.7355Z" fill="#595959"/>
<path d="M120.858 36.7355H111.706V39.2064H120.858V36.7355Z" fill="#A1A1A1"/>
<path d="M130.485 36.7355H121.333V39.2064H130.485V36.7355Z" fill="#595959"/>
<path d="M140.115 36.7355H130.963V39.2064H140.115V36.7355Z" fill="#A1A1A1"/>
<path d="M149.742 36.7355H140.59V39.2064H149.742V36.7355Z" fill="#595959"/>
<path d="M159.369 36.7355H150.217V39.2064H159.369V36.7355Z" fill="#A1A1A1"/>
<path d="M168.999 36.7355H159.847V39.2064H168.999V36.7355Z" fill="#595959"/>
<path d="M107.02 42.9552H125.873L121.545 45.1217V49.5397C121.545 49.8508 121.422 50.1492 121.202 50.3695C120.983 50.5899 120.685 50.7141 120.374 50.715H107.02C106.709 50.7141 106.411 50.5899 106.192 50.3695C105.972 50.1492 105.849 49.8508 105.849 49.5397V44.127C105.849 43.9731 105.879 43.8207 105.938 43.6785C105.997 43.5364 106.083 43.4072 106.192 43.2984C106.301 43.1896 106.43 43.1033 106.572 43.0444C106.714 42.9855 106.866 42.9552 107.02 42.9552V42.9552Z" fill="#263238"/>
<path d="M111.076 45.5042C111.076 45.0546 110.92 44.9342 110.669 44.9342C110.418 44.9342 110.262 45.0687 110.262 45.4263V45.7484H109.519V45.4758C109.519 44.6758 109.918 44.2191 110.69 44.2191C111.462 44.2191 111.879 44.6758 111.879 45.4758V45.6068C111.879 46.1414 111.709 46.4777 111.331 46.6334C111.723 46.8069 111.879 47.1786 111.879 47.6955V48.0884C111.879 48.8885 111.479 49.3487 110.708 49.3487C109.936 49.3487 109.536 48.8885 109.536 48.0884V47.6742H110.279V48.138C110.279 48.492 110.435 48.6336 110.686 48.6336C110.938 48.6336 111.094 48.5097 111.094 48.0672V47.6742C111.094 47.2105 110.938 47.037 110.58 47.037H110.315V46.329H110.623C110.917 46.329 111.094 46.2016 111.094 45.8015L111.076 45.5042Z" fill="#4ABDAC"/>
<path d="M112.325 45.4758C112.325 44.6758 112.75 44.2191 113.521 44.2191C114.293 44.2191 114.71 44.6758 114.71 45.4758V48.0778C114.71 48.8778 114.289 49.3381 113.518 49.3381C112.746 49.3381 112.321 48.8778 112.321 48.0778L112.325 45.4758ZM113.114 48.1274C113.114 48.4814 113.27 48.623 113.521 48.623C113.772 48.623 113.928 48.4849 113.928 48.1274V45.4263C113.928 45.0723 113.769 44.9342 113.521 44.9342C113.273 44.9342 113.114 45.0687 113.114 45.4263V48.1274Z" fill="#4ABDAC"/>
<path d="M116.25 47.2847L116.005 47.7414V49.2813H115.22V44.2756H116.005V46.4563L117.035 44.2756H117.821L116.727 46.5059L117.821 49.2813H117.014L116.25 47.2847Z" fill="#4ABDAC"/>
<path d="M67.2849 103.657V104.074C67.2849 104.393 67.4229 104.51 67.6388 104.51C67.8547 104.51 67.9927 104.393 67.9927 104.074V103.087C67.9927 102.765 67.8511 102.644 67.6388 102.644C67.4264 102.644 67.2849 102.765 67.2849 103.087V103.221H66.616L66.7469 100.619H68.605V101.26H67.3804L67.3238 102.322C67.3867 102.217 67.4769 102.132 67.5847 102.074C67.6926 102.017 67.8141 101.99 67.9361 101.996C68.4563 101.996 68.7183 102.35 68.7183 103.023V104.021C68.7183 104.729 68.3643 105.151 67.6565 105.151C66.9486 105.151 66.5947 104.74 66.5947 104.021V103.667L67.2849 103.657Z" fill="#263238"/>
<path d="M69.1113 101.696C69.1113 100.988 69.49 100.57 70.1731 100.57C70.8562 100.57 71.2349 100.977 71.2349 101.696V104.029C71.2349 104.737 70.8562 105.158 70.1731 105.158C69.49 105.158 69.1113 104.747 69.1113 104.029V101.696ZM69.8192 104.075C69.8192 104.393 69.9607 104.517 70.1731 104.517C70.3854 104.517 70.527 104.393 70.527 104.075V101.653C70.527 101.331 70.3854 101.211 70.1731 101.211C69.9607 101.211 69.8192 101.331 69.8192 101.653V104.075Z" fill="#263238"/>
<path d="M71.6494 101.696C71.6494 100.988 72.0281 100.57 72.7112 100.57C73.3942 100.57 73.7729 100.977 73.7729 101.696V104.029C73.7729 104.737 73.3942 105.158 72.7112 105.158C72.0281 105.158 71.6494 104.747 71.6494 104.029V101.696ZM72.3573 104.075C72.3573 104.393 72.4988 104.517 72.7112 104.517C72.9235 104.517 73.0651 104.393 73.0651 104.075V101.653C73.0651 101.331 72.9235 101.211 72.7112 101.211C72.4988 101.211 72.3573 101.331 72.3573 101.653V104.075Z" fill="#263238"/>
<path d="M75.1669 103.317L74.951 103.728V105.105H74.2432V100.619H74.951V102.574L75.8747 100.619H76.5826L75.6022 102.62L76.5826 105.098H75.8747L75.1669 103.317Z" fill="#263238"/>
<path d="M66.3721 108.241H76.6464" stroke="#263238" stroke-miterlimit="10"/>
<path d="M105.863 103.657V104.074C105.863 104.393 106.005 104.51 106.217 104.51C106.43 104.51 106.571 104.393 106.571 104.074V103.087C106.571 102.765 106.43 102.644 106.217 102.644C106.005 102.644 105.863 102.765 105.863 103.087V103.221H105.198L105.325 100.619H107.183V101.26H105.959L105.902 102.322C105.966 102.217 106.057 102.131 106.165 102.074C106.274 102.016 106.396 101.99 106.518 101.996C107.035 101.996 107.3 102.35 107.3 103.023V104.021C107.3 104.729 106.946 105.151 106.239 105.151C105.531 105.151 105.177 104.74 105.177 104.021V103.667L105.863 103.657Z" fill="#263238"/>
<path d="M107.692 101.696C107.692 100.988 108.071 100.57 108.754 100.57C109.437 100.57 109.816 100.977 109.816 101.696V104.029C109.816 104.737 109.441 105.158 108.754 105.158C108.068 105.158 107.692 104.747 107.692 104.029V101.696ZM108.4 104.075C108.4 104.393 108.542 104.517 108.754 104.517C108.966 104.517 109.108 104.393 109.108 104.075V101.653C109.108 101.331 108.966 101.211 108.754 101.211C108.542 101.211 108.4 101.331 108.4 101.653V104.075Z" fill="#263238"/>
<path d="M110.23 101.696C110.23 100.988 110.609 100.57 111.292 100.57C111.975 100.57 112.354 100.977 112.354 101.696V104.029C112.354 104.737 111.979 105.158 111.292 105.158C110.606 105.158 110.23 104.747 110.23 104.029V101.696ZM110.938 104.075C110.938 104.393 111.08 104.517 111.292 104.517C111.505 104.517 111.646 104.393 111.646 104.075V101.653C111.646 101.331 111.505 101.211 111.292 101.211C111.08 101.211 110.938 101.331 110.938 101.653V104.075Z" fill="#263238"/>
<path d="M113.748 103.317L113.528 103.728V105.105H112.82V100.619H113.528V102.574L114.452 100.619H115.16L114.179 102.62L115.16 105.098H114.452L113.748 103.317Z" fill="#263238"/>
<path d="M104.95 108.241H115.228" stroke="#263238" stroke-miterlimit="10"/>
<path d="M147.736 103.657V104.074C147.736 104.393 147.877 104.51 148.089 104.51C148.302 104.51 148.443 104.393 148.443 104.074V103.087C148.443 102.765 148.302 102.644 148.089 102.644C147.877 102.644 147.736 102.765 147.736 103.087V103.221H147.067L147.198 100.619H149.042V101.26H147.817L147.76 102.322C147.823 102.217 147.913 102.132 148.021 102.074C148.129 102.017 148.251 101.99 148.373 101.996C148.893 101.996 149.155 102.35 149.155 103.023V104.021C149.155 104.729 148.801 105.151 148.093 105.151C147.385 105.151 147.031 104.74 147.031 104.021V103.667L147.736 103.657Z" fill="#263238"/>
<path d="M149.579 101.696C149.579 100.988 149.958 100.57 150.641 100.57C151.324 100.57 151.703 100.977 151.703 101.696V104.029C151.703 104.737 151.324 105.158 150.641 105.158C149.958 105.158 149.579 104.747 149.579 104.029V101.696ZM150.287 104.075C150.287 104.393 150.429 104.517 150.641 104.517C150.853 104.517 150.995 104.393 150.995 104.075V101.653C150.995 101.331 150.853 101.211 150.641 101.211C150.429 101.211 150.287 101.331 150.287 101.653V104.075Z" fill="#263238"/>
<path d="M152.12 101.696C152.12 100.988 152.495 100.57 153.182 100.57C153.868 100.57 154.244 100.977 154.244 101.696V104.029C154.244 104.737 153.865 105.158 153.182 105.158C152.499 105.158 152.12 104.747 152.12 104.029V101.696ZM152.828 104.075C152.828 104.393 152.966 104.517 153.182 104.517C153.398 104.517 153.536 104.393 153.536 104.075V101.653C153.536 101.331 153.394 101.211 153.182 101.211C152.97 101.211 152.828 101.331 152.828 101.653V104.075Z" fill="#263238"/>
<path d="M155.635 103.317L155.419 103.728V105.105H154.711V100.619H155.419V102.574L156.343 100.619H157.05L156.07 102.62L157.05 105.098H156.325L155.635 103.317Z" fill="#263238"/>
<path d="M146.839 108.241H157.117" stroke="#263238" stroke-miterlimit="10"/>
<path d="M91.374 96.8031V109.314" stroke="#263238" stroke-miterlimit="10"/>
<path d="M133.334 96.8031V109.314" stroke="#263238" stroke-miterlimit="10"/>
<path d="M67.9293 94.7889H69.1787V95.1429H68.754V97.3449H68.3469V95.1429H67.9258L67.9293 94.7889Z" fill="#263238"/>
<path d="M69.3201 95.3908C69.3137 95.3062 69.3248 95.2212 69.3528 95.1411C69.3807 95.061 69.4249 94.9876 69.4825 94.9254C69.5402 94.8632 69.6101 94.8135 69.6878 94.7796C69.7655 94.7457 69.8494 94.7281 69.9342 94.7281C70.019 94.7281 70.1029 94.7457 70.1806 94.7796C70.2583 94.8135 70.3282 94.8632 70.3858 94.9254C70.4435 94.9876 70.4877 95.061 70.5156 95.1411C70.5435 95.2212 70.5547 95.3062 70.5482 95.3908V96.7289C70.5547 96.8135 70.5435 96.8985 70.5156 96.9786C70.4877 97.0587 70.4435 97.1321 70.3858 97.1943C70.3282 97.2565 70.2583 97.3062 70.1806 97.3401C70.1029 97.374 70.019 97.3916 69.9342 97.3916C69.8494 97.3916 69.7655 97.374 69.6878 97.3401C69.6101 97.3062 69.5402 97.2565 69.4825 97.1943C69.4249 97.1321 69.3807 97.0587 69.3528 96.9786C69.3248 96.8985 69.3137 96.8135 69.3201 96.7289V95.3908ZM69.7236 96.7537C69.7236 96.9378 69.805 97.0086 69.9324 97.0086C70.0598 97.0086 70.1448 96.9378 70.1448 96.7537V95.3908C70.1448 95.2067 70.0634 95.1359 69.9324 95.1359C69.8015 95.1359 69.7236 95.2067 69.7236 95.3908V96.7537Z" fill="#263238"/>
<path d="M70.8252 94.7889H71.4658C71.8693 94.7889 72.0675 95.012 72.0675 95.4226V96.7254C72.0675 97.136 71.8693 97.359 71.4658 97.359H70.8252V94.7889ZM71.2322 95.1429V96.9802H71.4587C71.5861 96.9802 71.664 96.913 71.664 96.7289V95.3908C71.664 95.2067 71.5861 95.1429 71.4587 95.1429H71.2322Z" fill="#263238"/>
<path d="M73.6099 97.359H73.2029L73.1321 96.8953H72.6366L72.5658 97.359H72.2119L72.5941 94.7889H73.1852L73.6099 97.359ZM72.6897 96.5448H73.079L72.8844 95.2456L72.6897 96.5448Z" fill="#263238"/>
<path d="M74.1765 96.5094L73.6562 94.7889H74.081L74.3889 95.9607L74.6968 94.7889H75.0826L74.5729 96.5094V97.359H74.1694L74.1765 96.5094Z" fill="#263238"/>
<path d="M107.986 95.989L107.841 97.359H107.278L106.991 94.7889H107.384L107.603 96.8174L107.798 94.7889H108.187L108.389 96.8316L108.598 94.7889H108.952L108.665 97.359H108.131L107.986 95.989Z" fill="#263238"/>
<path d="M109.554 95.8722H110.11V96.2262H109.558V96.9802H110.265V97.3343H109.161V94.7889H110.265V95.1429H109.558L109.554 95.8722Z" fill="#263238"/>
<path d="M110.902 95.8722H111.458V96.2262H110.902V96.9802H111.61V97.3343H110.499V94.7889H111.603V95.1429H110.895L110.902 95.8722Z" fill="#263238"/>
<path d="M112.379 96.3359L112.255 96.5696V97.359H111.852V94.7889H112.255V95.9076L112.786 94.7889H113.189L112.627 95.9359L113.189 97.3519H112.772L112.379 96.3359Z" fill="#263238"/>
<path d="M149.041 96.6156L149.314 94.7889H149.877V97.359H149.494V95.5147L149.215 97.359H148.836L148.532 95.543V97.359H148.178V94.7889H148.74L149.041 96.6156Z" fill="#263238"/>
<path d="M150.138 95.3908C150.138 95.2283 150.202 95.0725 150.317 94.9577C150.432 94.8428 150.588 94.7783 150.75 94.7783C150.912 94.7783 151.068 94.8428 151.183 94.9577C151.298 95.0725 151.362 95.2283 151.362 95.3908V96.7289C151.362 96.8913 151.298 97.0471 151.183 97.162C151.068 97.2768 150.912 97.3413 150.75 97.3413C150.588 97.3413 150.432 97.2768 150.317 97.162C150.202 97.0471 150.138 96.8913 150.138 96.7289V95.3908ZM150.541 96.7537C150.541 96.9378 150.623 97.0086 150.75 97.0086C150.877 97.0086 150.959 96.9378 150.959 96.7537V95.3908C150.959 95.2067 150.877 95.1359 150.75 95.1359C150.623 95.1359 150.541 95.2067 150.541 95.3908V96.7537Z" fill="#263238"/>
<path d="M151.985 95.497V97.359H151.631V94.7889H152.137L152.551 96.3289V94.7889H152.905V97.359H152.491L151.985 95.497Z" fill="#263238"/>
<path d="M153.076 94.7889H154.326V95.1429H153.901V97.3449H153.497V95.1429H153.076V94.7889Z" fill="#263238"/>
<path d="M154.902 97.359H154.499V94.7889H154.902V95.8899H155.363V94.7889H155.766V97.359H155.356V96.2581H154.895L154.902 97.359Z" fill="#263238"/>
<path d="M168.27 30.0162H162.137" stroke="#263238" stroke-miterlimit="10"/>
<path d="M168.27 31.9069H162.137" stroke="#263238" stroke-miterlimit="10"/>
<path d="M168.27 33.7936H162.137" stroke="#263238" stroke-miterlimit="10"/>
<path d="M122.747 108.198L104.65 106.519L103.546 118.427L121.642 120.106L122.747 108.198Z" fill="white" stroke="#263238" stroke-linecap="round" stroke-linejoin="round"/>
<path d="M105.892 114.298L108.047 111.247L110.022 111.785L111.82 115.017L115.051 111.965L117.029 116.277H118.286L121.34 111.247" stroke="#4ABDAC" stroke-width="2" stroke-miterlimit="10" stroke-linecap="round"/>
<path d="M122.679 112.078C122.068 111.475 121.395 110.937 120.672 110.475C119.256 109.501 118.439 109.328 118.195 109.445C117.95 109.561 116.071 111.335 116.018 111.965C115.965 112.595 115.664 113.169 115.664 113.399C115.664 113.629 116.064 113.455 116.464 113.169C116.864 112.882 117.172 111.908 117.324 111.735C117.476 111.561 118.527 111.505 118.701 111.505C118.874 111.505 119.101 112.482 119.101 112.482C119.101 112.482 119.214 114.086 119.731 114.316C120.247 114.546 122.137 114.486 122.137 114.486L122.679 112.078Z" fill="white" stroke="#263238" stroke-linecap="round" stroke-linejoin="round"/>
<path d="M122.106 109.671L114.256 114.829" stroke="#263238" stroke-width="2" stroke-linecap="round" stroke-linejoin="round"/>
<path d="M119.698 111.965L118.552 112.882C118.265 113.112 116.375 113.456 116.145 113.569C115.915 113.682 115.285 113.856 115.688 114.086C116.092 114.316 117.178 114.44 117.635 114.44C118.092 114.44 119.405 114.9 119.985 114.613L121.015 114.096" fill="white"/>
<path d="M119.698 111.965L118.552 112.882C118.265 113.112 116.375 113.456 116.145 113.569C115.915 113.682 115.285 113.856 115.688 114.086C116.092 114.316 117.178 114.44 117.635 114.44C118.092 114.44 119.405 114.9 119.985 114.613L121.015 114.096" stroke="#263238" stroke-linecap="round" stroke-linejoin="round"/>
<path d="M124.451 111.852L122.161 111.622L121.701 114.886L124.451 115.633V111.852Z" fill="#4ABDAC" stroke="#263238" stroke-linecap="round" stroke-linejoin="round"/>
<path d="M126.78 88.9514C126.78 88.9514 126.539 90.7214 127.021 91.4295C127.304 91.8476 127.52 92.3075 127.661 92.7924C127.661 92.7924 126.78 95.5997 127.098 95.7448C127.489 95.8725 127.893 95.9533 128.302 95.9855C128.302 95.9855 129.502 98.63 129.901 98.8707C130.122 99.0078 130.36 99.115 130.609 99.1893L131.317 99.7522L137.564 96.867L136.523 93.904C136.327 92.8712 136.327 91.8108 136.523 90.7781C136.842 89.008 134.279 86.8521 132.598 86.3707C130.917 85.8892 128.114 86.6114 128.114 86.6114L126.78 88.9514Z" fill="white" stroke="#263238" stroke-linecap="round" stroke-linejoin="round"/>
<path d="M128.943 85.1033C128.943 85.1033 125.581 87.0291 125.659 88.0699C125.728 88.7306 126.009 89.3513 126.458 89.84L128.161 89.0187C128.161 89.0187 127.453 90.3002 127.839 90.463C127.96 90.5024 128.09 90.508 128.215 90.4793C128.34 90.4506 128.454 90.3887 128.547 90.3002L129.028 91.8224L130.068 90.9409C130.068 90.9409 131.838 94.9483 133.031 95.1076C134.223 95.2669 136.074 95.0262 136.715 94.6261C137.356 94.2261 138.237 90.463 138.555 89.0187C138.874 87.5743 137.196 84.8555 134.871 84.0626C132.546 83.2696 129.265 84.944 129.265 84.944L128.943 85.1033Z" fill="#263238" stroke="#263238" stroke-linecap="round" stroke-linejoin="round"/>
<path d="M129.502 91.0326C129.787 91.5356 130.003 92.0751 130.143 92.6363C130.546 93.9178 130.946 95.7586 131.187 93.6771C131.427 91.5955 129.983 89.5918 129.502 91.0326Z" fill="white" stroke="#263238" stroke-linecap="round" stroke-linejoin="round"/>
<path d="M124.398 176.508C124.398 176.508 123.117 178.189 122.876 178.278C122.635 178.366 120.313 179.078 120.232 179.559C120.203 179.898 120.288 180.237 120.473 180.522C121.762 180.814 123.077 180.974 124.398 181C125.737 180.981 127.075 180.875 128.401 180.681C129.307 180.766 130.219 180.766 131.126 180.681C132.007 180.522 132.085 179.973 132.085 179.973L131.604 175.488L126.319 175.647L124.398 176.508Z" fill="white" stroke="#263238" stroke-linecap="round" stroke-linejoin="round"/>
<path d="M136.17 176.589L134.249 178.83C134.249 178.83 133.367 179.071 133.449 179.874C133.53 180.678 134.408 180.756 135.218 180.756C136.029 180.756 141.143 180.915 141.943 180.515C142.743 180.115 141.235 176.108 141.235 176.108L136.17 176.589Z" fill="white" stroke="#263238" stroke-linecap="round" stroke-linejoin="round"/>
<path d="M123.576 132.207C123.576 132.207 123.417 145.267 123.495 148.138C123.573 151.009 124.536 167.927 124.617 169.378C124.698 170.829 124.776 172.918 124.776 172.918C124.776 172.918 124.217 173.8 124.217 174.2V175.563C124.217 175.563 126.861 178.203 128.22 178.203C129.579 178.203 131.904 177.403 131.904 177.403C131.904 177.403 132.545 173.318 132.708 172.596C132.87 171.874 132.053 160.245 132.053 160.007C132.053 159.77 131.653 154.959 131.653 154.637C131.653 154.315 133.656 165.293 133.738 166.815C133.819 168.337 134.778 173.541 134.778 173.541C134.61 173.672 134.477 173.844 134.393 174.04C134.309 174.236 134.276 174.451 134.297 174.663C134.378 175.371 134.456 176.904 134.456 176.904C135.153 177.514 136.015 177.904 136.933 178.026C138.074 178.188 139.225 178.269 140.377 178.267C140.696 178.267 141.418 178.349 141.658 177.786C141.899 177.223 141.74 172.978 141.74 172.178C141.74 171.378 141.418 169.215 141.418 168.656C141.418 168.096 139.977 153.515 140.055 150.148C140.133 146.782 140.136 138.774 140.459 138.052C140.781 137.33 141.899 132.845 141.899 132.034C141.899 131.223 137.893 133.878 132.927 133.315C129.778 132.948 126.651 132.414 123.559 131.715L123.576 132.207Z" fill="#263238" stroke="#263238" stroke-linecap="round" stroke-linejoin="round"/>
<path d="M136.152 136.615L133.586 138.537C133.586 138.537 132.709 149.352 132.305 151.281C131.902 153.211 131.746 153.759 131.746 153.759" stroke="#757575" stroke-linecap="round" stroke-linejoin="round"/>
<path d="M117.571 119.229C117.571 119.229 114.686 117.707 114.032 117.629C113.377 117.551 111.31 117.87 111.31 117.87C111.31 117.87 109.866 117.229 109.307 117.707C108.748 118.185 109.066 118.27 109.466 118.415C109.866 118.56 111.869 118.978 111.869 118.978C111.869 118.978 111.388 120.497 111.629 120.748C111.869 120.999 113.31 121.07 113.31 121.07C113.618 121.202 113.913 121.363 114.191 121.552C114.672 121.87 115.961 121.792 116.194 121.629C116.428 121.467 116.902 121.229 116.902 121.229L117.571 119.229Z" fill="white" stroke="#263238" stroke-linecap="round" stroke-linejoin="round"/>
<path d="M130.064 100.566L131.346 98.7217C131.346 98.7217 134.867 96.4808 136.301 96.1586C137.734 95.8365 139.985 98.003 139.985 98.003C139.985 98.003 138.704 98.2437 135.738 99.1252C132.772 100.007 130.064 100.566 130.064 100.566Z" fill="#4ABDAC" stroke="#263238" stroke-linecap="round" stroke-linejoin="round"/>
<path d="M131.345 99.7661C131.345 99.7661 124.699 102.244 124.621 103.611C124.543 104.977 123.499 121.874 123.499 121.874L122.218 133.089C122.218 133.089 126.543 135.252 130.786 135.411C135.03 135.57 137.196 135.493 138.718 134.933C140.239 134.374 143.52 131.729 143.52 131.729C143.52 131.729 141.751 121.796 141.751 120.592C141.751 119.389 144.472 110.659 145.032 108.096C145.511 105.801 145.787 103.469 145.856 101.126C145.856 99.9254 139.369 98.0032 139.369 98.0032C139.369 98.0032 135.108 98.2439 131.345 99.7661Z" fill="#4ABDAC" stroke="#263238" stroke-linecap="round" stroke-linejoin="round"/>
<path d="M140.717 109.767C139.656 111.891 137.943 115.24 136.552 117.148Z" fill="white"/>
<path d="M140.717 109.767C139.656 111.891 137.943 115.24 136.552 117.148" stroke="#263238" stroke-linecap="round" stroke-linejoin="round"/>
<path d="M141.677 107.781C141.677 107.781 141.496 108.17 141.195 108.797Z" fill="white"/>
<path d="M141.677 107.781C141.677 107.781 141.496 108.17 141.195 108.797" stroke="#263238" stroke-linecap="round" stroke-linejoin="round"/>
<path d="M137.327 117.413C136.641 118.362 135.947 119.318 135.83 119.47" stroke="#263238" stroke-linecap="round" stroke-linejoin="round"/>
<path d="M138.778 115.385C138.778 115.385 138.282 116.075 137.691 116.886" stroke="#263238" stroke-linecap="round" stroke-linejoin="round"/>
<path d="M129.824 114.503L132.305 108.977" stroke="#263238" stroke-linecap="round" stroke-linejoin="round"/>
<path d="M129.184 115.707L132.065 112.503" stroke="#263238" stroke-linecap="round" stroke-linejoin="round"/>
<path d="M128.867 100.885C128.867 100.885 124.62 102.329 124.542 102.807C124.464 103.285 123.261 119.552 123.261 119.552L117.173 118.844C116.821 119.395 116.628 120.033 116.614 120.688V122.61C116.614 122.61 117.414 122.688 120.153 123.732C122.893 124.777 126.078 125.414 126.8 125.332C127.522 125.251 129.044 122.929 129.044 121.647C129.044 120.366 131.125 108.591 131.125 108.591" fill="#4ABDAC"/>
<path d="M128.867 100.885C128.867 100.885 124.62 102.329 124.542 102.807C124.464 103.285 123.261 119.552 123.261 119.552L117.173 118.844C116.821 119.395 116.628 120.033 116.614 120.688V122.61C116.614 122.61 117.414 122.688 120.153 123.732C122.893 124.777 126.078 125.414 126.8 125.332C127.522 125.251 129.044 122.929 129.044 121.647C129.044 120.366 131.125 108.591 131.125 108.591" stroke="#263238" stroke-linecap="round" stroke-linejoin="round"/>
<path d="M123.559 122.15L123.265 119.552C123.265 119.552 122.653 121.424 122.745 122.33" stroke="#263238" stroke-linecap="round" stroke-linejoin="round"/>
<path d="M85.3246 95.0086L84.8857 97.8761L92.2367 100.492V97.9362L90.1804 88.2825L85.3848 91.3977L85.3246 95.0086Z" fill="white" stroke="#263238" stroke-linecap="round" stroke-linejoin="round"/>
<path d="M94.9159 86.6009C94.9159 86.6009 94.976 89.2772 94.976 89.84C94.909 90.378 94.7623 90.9029 94.5407 91.3977C94.5407 91.3977 95.1636 92.7677 95.2875 93.1394C95.4114 93.5111 94.5407 94.1377 94.5407 94.1377C94.5407 94.1377 94.4168 95.2599 94.3531 95.444C94.1782 95.7317 93.9098 95.9506 93.5928 96.064C93.2758 96.1775 92.9295 96.1785 92.6118 96.067C91.6775 95.713 90.7431 92.2685 90.6157 91.1463C90.4883 90.0241 90.5556 87.6063 91.8014 86.7248C93.0472 85.8433 94.9159 86.6009 94.9159 86.6009Z" fill="white" stroke="#263238" stroke-linecap="round" stroke-linejoin="round"/>
<path d="M91.1153 91.2701C91.1153 91.2701 92.7362 90.3391 92.9202 89.9639C93.1043 89.5886 92.8601 88.654 92.7362 87.8398C92.6123 87.0256 94.4173 86.9052 94.9164 87.153C95.4154 87.4009 96.1622 87.8398 96.1622 86.2185C96.1622 84.5971 94.5377 82.3633 90.9277 82.4872C87.3177 82.6111 83.828 83.6094 83.0211 87.4717C82.2141 91.3339 84.2633 94.573 84.5146 95.1324C84.7659 95.6917 86.1957 96.6298 88.0538 95.3837C89.9119 94.1376 89.4695 92.5163 89.4695 92.5163C89.4695 92.5163 89.4695 91.4542 89.781 91.4542C90.0924 91.4542 90.1526 91.7658 90.1526 94.1341C90.1526 96.5024 90.0924 98.4954 91.5223 98.9946C92.9521 99.4937 94.4492 98.7432 94.5766 97.3095C94.704 95.8758 94.4492 94.7571 93.8263 94.7571C93.2034 94.7571 92.8318 95.6917 92.2089 94.1978C91.586 92.7039 91.1153 91.2701 91.1153 91.2701Z" fill="#263238" stroke="#263238" stroke-linecap="round" stroke-linejoin="round"/>
<path d="M90.2443 92.1445C90.2443 92.1445 90.3682 88.9585 89.2462 90.3391C88.1243 91.7197 89.4338 93.7623 89.4338 93.7623L89.809 93.1393" fill="white"/>
<path d="M90.2443 92.1445C90.2443 92.1445 90.3682 88.9585 89.2462 90.3391C88.1243 91.7197 89.4338 93.7623 89.4338 93.7623L89.809 93.1393" stroke="#263238" stroke-linecap="round" stroke-linejoin="round"/>
<path d="M84.139 96.4529L82.5039 99.4619C82.5039 99.4619 85.8201 99.0584 88.3118 99.869C90.8034 100.68 93.0472 101.551 93.0472 101.551L92.173 98.5769C92.173 98.5769 89.4337 97.2706 87.1934 96.8954C84.953 96.5201 84.139 96.4529 84.139 96.4529Z" fill="#4ABDAC" stroke="#263238" stroke-linecap="round" stroke-linejoin="round"/>
<path d="M95.6266 176.437C95.6266 176.437 96.9078 178.119 97.1485 178.207C97.3891 178.296 99.7109 179.007 99.7923 179.489C99.8189 179.826 99.7344 180.163 99.5516 180.448C98.2631 180.742 96.9479 180.903 95.6266 180.929C94.2867 180.91 92.9495 180.803 91.6238 180.607C90.7174 180.694 89.8049 180.694 88.8986 180.607C88.0173 180.448 87.9395 179.899 87.9395 179.899L88.4172 175.396L93.7048 175.556L95.6266 176.437Z" fill="white" stroke="#263238" stroke-linecap="round" stroke-linejoin="round"/>
<path d="M83.856 176.515L85.7778 178.759C85.7778 178.759 86.6591 179 86.5777 179.8C86.4963 180.6 85.615 180.682 84.8081 180.682C84.0011 180.682 78.8834 180.841 78.0836 180.441C77.2837 180.041 78.7914 176.037 78.7914 176.037L83.856 176.515Z" fill="white" stroke="#263238" stroke-linecap="round" stroke-linejoin="round"/>
<path d="M78.8089 132.608C78.8089 132.608 79.2407 137.659 79.4495 138.215C79.6902 138.859 80.49 155.119 79.6902 157.363C78.8903 159.608 78.2497 164.012 78.5682 165.775C78.8295 167.391 78.9903 169.023 79.0496 170.66C79.0496 171.141 78.0869 174.033 78.0869 175.234C78.0983 176.019 78.2065 176.8 78.409 177.559C78.409 177.559 80.9714 177.719 82.2526 177.319C83.5338 176.919 84.3336 176.756 84.3336 176.756L84.8964 177.156V173.711C84.8964 172.43 85.5263 169.952 85.5263 169.152C85.5263 168.352 86.1811 161.746 86.6624 160.064C87.1438 158.383 87.6994 148.63 87.6994 148.63C87.6994 148.63 87.8587 161.449 87.6994 162.889C87.5401 164.33 87.2181 164.974 87.6994 166.734C88.1807 168.493 88.0179 174.593 88.0179 174.593C87.9337 175.016 87.9337 175.451 88.0179 175.874C88.1772 176.274 88.4179 177.319 88.4179 177.319C89.0273 177.421 89.6439 177.474 90.2618 177.478C91.8615 177.559 94.4274 177.637 94.6646 177.559C94.9017 177.481 95.7865 177.237 95.7865 177.237C95.8375 176.648 95.8375 176.056 95.7865 175.467C95.7086 174.426 95.0787 172.175 94.9866 169.612C94.8946 167.049 96.827 151.508 97.3084 147.263C97.7897 143.019 99.5522 139.171 99.2302 136.367C98.9081 133.563 97.549 131.082 97.4606 130.519C97.3721 129.956 96.82 129.637 96.82 129.397C96.82 129.156 78.6426 130.037 78.6426 130.037L78.8089 132.608Z" fill="#263238" stroke="#263238" stroke-linecap="round" stroke-linejoin="round"/>
<path d="M84.415 137.737L87.4588 140.459L87.6994 148.63" stroke="#757575" stroke-linecap="round" stroke-linejoin="round"/>
<path d="M84.3905 98.2476C84.3905 98.2476 77.4749 102.496 77.4749 103.356C77.4749 104.216 76.9794 112.949 77.7262 116.065C78.473 119.18 79.8497 122.978 79.8497 122.978L77.1953 133.977C77.1953 133.977 78.9224 135.217 83.8455 136.456C88.7685 137.695 93.0474 137.496 93.596 137.369L93.4757 134.686L95.4683 128.767C95.4683 128.767 98.02 124.904 98.2076 123.658C98.3952 122.412 98.1474 120.472 98.02 119.41C97.8926 118.348 97.0255 114.178 96.7141 113.119C96.4026 112.061 96.215 104.46 95.4683 103.59C94.5621 102.66 93.5596 101.829 92.4776 101.111C91.9821 100.8 87.682 97.6847 84.1959 98.1201" fill="#4ABDAC"/>
<path d="M84.3905 98.2476C84.3905 98.2476 77.4749 102.496 77.4749 103.356C77.4749 104.216 76.9794 112.949 77.7262 116.065C78.473 119.18 79.8497 122.978 79.8497 122.978L77.1953 133.977C77.1953 133.977 78.9224 135.217 83.8455 136.456C88.7685 137.695 93.0474 137.496 93.596 137.369L93.4757 134.686L95.4683 128.767C95.4683 128.767 98.02 124.904 98.2076 123.658C98.3952 122.412 98.1474 120.472 98.02 119.41C97.8926 118.348 97.0255 114.178 96.7141 113.119C96.4026 112.061 96.215 104.46 95.4683 103.59C94.5621 102.66 93.5596 101.829 92.4776 101.111C91.9821 100.8 87.682 97.6847 84.1959 98.1201" stroke="#263238" stroke-linecap="round" stroke-linejoin="round"/>
<path d="M86.1211 118.883C86.3688 119.13 86.613 119.357 86.8502 119.559" stroke="#263238" stroke-linecap="round" stroke-linejoin="round"/>
<path d="M81.1738 112.557C82.52 114.596 84.0078 116.539 85.6262 118.37" stroke="#263238" stroke-linecap="round" stroke-linejoin="round"/>
<path d="M86.9492 121.527C87.4635 121.72 88.007 121.823 88.556 121.832" stroke="#263238" stroke-linecap="round" stroke-linejoin="round"/>
<path d="M83.0664 118.993C83.7948 119.691 84.5997 120.305 85.466 120.823" stroke="#263238" stroke-linecap="round" stroke-linejoin="round"/>
<path d="M95.4113 128.526C94.5333 130.135 93.3742 131.574 91.9889 132.774C89.6813 134.767 88.9346 135.518 88.9346 135.518C88.9346 135.518 92.8596 135.641 93.2312 136.512L93.6063 137.383L95.4113 128.526Z" fill="#4ABDAC" stroke="#263238" stroke-linecap="round" stroke-linejoin="round"/>
<path d="M95.7871 133.135L97.716 136.746C97.716 136.746 99.0255 134.94 98.4663 133.383C97.9071 131.825 97.716 131.326 97.716 131.326L95.7871 133.135Z" stroke="#263238" stroke-linecap="round" stroke-linejoin="round"/>
<path d="M89.4971 109.774C89.4971 109.774 90.6792 124.289 91.8011 126.968C92.923 129.648 95.6624 133.758 95.6624 133.758C95.6624 133.758 97.2196 133.323 97.7151 132.696C98.2106 132.07 98.338 130.703 98.338 130.703C98.338 130.703 98.0266 125.283 98.0266 124.097C98.0266 122.911 96.9082 116.309 96.9082 115.438C96.9082 114.567 97.0958 105.657 96.6569 104.464C96.218 103.271 92.8593 102.283 92.8593 102.283" fill="#4ABDAC"/>
<path d="M89.4971 109.774C89.4971 109.774 90.6792 124.289 91.8011 126.968C92.923 129.648 95.6624 133.758 95.6624 133.758C95.6624 133.758 97.2196 133.323 97.7151 132.696C98.2106 132.07 98.338 130.703 98.338 130.703C98.338 130.703 98.0266 125.283 98.0266 124.097C98.0266 122.911 96.9082 116.309 96.9082 115.438C96.9082 114.567 97.0958 105.657 96.6569 104.464C96.218 103.271 92.8593 102.283 92.8593 102.283" stroke="#263238" stroke-linecap="round" stroke-linejoin="round"/>
</svg>
