<svg width="450" height="230" viewBox="0 0 450 230" fill="none" xmlns="http://www.w3.org/2000/svg">
<rect width="450" height="230" fill="white"/>
<path d="M273.722 189.759L277.378 179.203H279.224L274.478 192H272.983L268.246 179.203H270.083L273.722 189.759ZM282.485 192H280.859V182.49H282.485V192ZM280.727 179.968C280.727 179.704 280.806 179.481 280.965 179.3C281.129 179.118 281.369 179.027 281.685 179.027C282.002 179.027 282.242 179.118 282.406 179.3C282.57 179.481 282.652 179.704 282.652 179.968C282.652 180.231 282.57 180.451 282.406 180.627C282.242 180.803 282.002 180.891 281.685 180.891C281.369 180.891 281.129 180.803 280.965 180.627C280.806 180.451 280.727 180.231 280.727 179.968ZM289.069 192.176C287.78 192.176 286.731 191.754 285.922 190.91C285.114 190.061 284.709 188.927 284.709 187.509V187.21C284.709 186.267 284.888 185.426 285.245 184.688C285.609 183.943 286.113 183.363 286.757 182.947C287.408 182.525 288.111 182.314 288.866 182.314C290.103 182.314 291.064 182.722 291.749 183.536C292.435 184.351 292.778 185.517 292.778 187.034V187.711H286.335C286.359 188.648 286.631 189.407 287.153 189.987C287.68 190.562 288.348 190.849 289.157 190.849C289.731 190.849 290.217 190.731 290.616 190.497C291.014 190.263 291.363 189.952 291.661 189.565L292.655 190.339C291.858 191.563 290.662 192.176 289.069 192.176ZM288.866 183.65C288.21 183.65 287.659 183.891 287.214 184.371C286.769 184.846 286.493 185.514 286.388 186.375H291.152V186.252C291.105 185.426 290.882 184.787 290.484 184.336C290.085 183.879 289.546 183.65 288.866 183.65ZM303.114 189.759L304.942 182.49H306.568L303.8 192H302.481L300.17 184.793L297.92 192H296.602L293.842 182.49H295.459L297.331 189.609L299.546 182.49H300.855L303.114 189.759ZM312.353 187.166C312.353 185.707 312.698 184.535 313.39 183.65C314.081 182.76 314.987 182.314 316.106 182.314C317.219 182.314 318.101 182.695 318.751 183.457V178.5H320.377V192H318.883L318.804 190.98C318.154 191.777 317.248 192.176 316.088 192.176C314.987 192.176 314.087 191.725 313.39 190.822C312.698 189.92 312.353 188.742 312.353 187.289V187.166ZM313.979 187.351C313.979 188.429 314.201 189.272 314.647 189.882C315.092 190.491 315.707 190.796 316.492 190.796C317.524 190.796 318.277 190.333 318.751 189.407V185.039C318.265 184.143 317.518 183.694 316.51 183.694C315.713 183.694 315.092 184.002 314.647 184.617C314.201 185.232 313.979 186.144 313.979 187.351ZM328.807 192C328.713 191.812 328.637 191.479 328.578 190.998C327.822 191.783 326.92 192.176 325.871 192.176C324.933 192.176 324.163 191.912 323.559 191.385C322.962 190.852 322.663 190.178 322.663 189.363C322.663 188.373 323.038 187.605 323.788 187.061C324.544 186.51 325.604 186.234 326.97 186.234H328.552V185.487C328.552 184.919 328.382 184.468 328.042 184.134C327.702 183.794 327.201 183.624 326.539 183.624C325.959 183.624 325.473 183.771 325.08 184.063C324.687 184.356 324.491 184.711 324.491 185.127H322.856C322.856 184.652 323.023 184.195 323.357 183.756C323.697 183.311 324.154 182.959 324.728 182.701C325.308 182.443 325.944 182.314 326.636 182.314C327.731 182.314 328.59 182.59 329.211 183.141C329.832 183.686 330.154 184.438 330.178 185.399V189.776C330.178 190.649 330.289 191.344 330.512 191.859V192H328.807ZM326.108 190.761C326.618 190.761 327.101 190.629 327.558 190.365C328.016 190.102 328.347 189.759 328.552 189.337V187.386H327.277C325.285 187.386 324.289 187.969 324.289 189.135C324.289 189.645 324.459 190.043 324.799 190.33C325.139 190.617 325.575 190.761 326.108 190.761ZM334.96 180.188V182.49H336.735V183.747H334.96V189.645C334.96 190.025 335.039 190.312 335.197 190.506C335.355 190.693 335.625 190.787 336.005 190.787C336.193 190.787 336.451 190.752 336.779 190.682V192C336.351 192.117 335.935 192.176 335.531 192.176C334.804 192.176 334.256 191.956 333.887 191.517C333.518 191.077 333.334 190.453 333.334 189.645V183.747H331.602V182.49H333.334V180.188H334.96ZM344.54 192C344.446 191.812 344.37 191.479 344.312 190.998C343.556 191.783 342.654 192.176 341.605 192.176C340.667 192.176 339.897 191.912 339.293 191.385C338.695 190.852 338.397 190.178 338.397 189.363C338.397 188.373 338.772 187.605 339.522 187.061C340.278 186.51 341.338 186.234 342.703 186.234H344.285V185.487C344.285 184.919 344.115 184.468 343.776 184.134C343.436 183.794 342.935 183.624 342.273 183.624C341.693 183.624 341.206 183.771 340.814 184.063C340.421 184.356 340.225 184.711 340.225 185.127H338.59C338.59 184.652 338.757 184.195 339.091 183.756C339.431 183.311 339.888 182.959 340.462 182.701C341.042 182.443 341.678 182.314 342.369 182.314C343.465 182.314 344.323 182.59 344.945 183.141C345.566 183.686 345.888 184.438 345.911 185.399V189.776C345.911 190.649 346.023 191.344 346.245 191.859V192H344.54ZM341.842 190.761C342.352 190.761 342.835 190.629 343.292 190.365C343.749 190.102 344.08 189.759 344.285 189.337V187.386H343.011C341.019 187.386 340.023 187.969 340.023 189.135C340.023 189.645 340.193 190.043 340.532 190.33C340.872 190.617 341.309 190.761 341.842 190.761Z" fill="#00B8D1"/>
<path d="M356.952 187H367.009L363.931 191.36C363.787 191.564 363.718 191.827 363.738 192.092C363.759 192.356 363.868 192.6 364.041 192.77C364.214 192.94 364.438 193.021 364.662 192.997C364.886 192.973 365.093 192.844 365.237 192.64L369.477 186.64C369.505 186.592 369.531 186.542 369.553 186.49C369.553 186.44 369.553 186.41 369.613 186.36C369.651 186.245 369.671 186.123 369.672 186C369.671 185.877 369.651 185.755 369.613 185.64C369.613 185.59 369.613 185.56 369.553 185.51C369.531 185.458 369.505 185.408 369.477 185.36L365.237 179.36C365.157 179.247 365.057 179.156 364.944 179.094C364.832 179.032 364.708 179 364.584 179C364.386 179 364.194 179.081 364.041 179.23C363.955 179.314 363.884 179.417 363.832 179.533C363.78 179.65 363.748 179.777 363.738 179.908C363.728 180.039 363.739 180.171 363.773 180.297C363.806 180.422 363.86 180.539 363.931 180.64L367.009 185H356.952C356.727 185 356.511 185.105 356.352 185.293C356.193 185.48 356.104 185.735 356.104 186C356.104 186.265 356.193 186.52 356.352 186.707C356.511 186.895 356.727 187 356.952 187Z" fill="#00B8D1"/>
<path d="M248.328 129V122.376H252.456V116.376H248.328V96.984H238.92L226.2 117V122.376H241.512V129H248.328ZM241.512 116.376H232.872L241.512 103.032V116.376ZM268.641 129.576C277.809 129.576 281.889 121.272 281.889 113.016C281.889 104.76 277.809 96.504 268.641 96.504C259.473 96.504 255.393 104.76 255.393 113.016C255.393 121.272 259.473 129.576 268.641 129.576ZM268.641 123.528C264.081 123.528 262.353 118.92 262.353 113.016C262.353 107.112 264.081 102.552 268.641 102.552C273.249 102.552 274.929 107.112 274.929 113.016C274.929 118.92 273.201 123.528 268.641 123.528ZM298.526 129.576C307.694 129.576 311.774 121.272 311.774 113.016C311.774 104.76 307.694 96.504 298.526 96.504C289.358 96.504 285.278 104.76 285.278 113.016C285.278 121.272 289.358 129.576 298.526 129.576ZM298.526 123.528C293.966 123.528 292.238 118.92 292.238 113.016C292.238 107.112 293.966 102.552 298.526 102.552C303.134 102.552 304.814 107.112 304.814 113.016C304.814 118.92 303.086 123.528 298.526 123.528ZM318.645 129.528C320.757 129.528 322.533 127.752 322.533 125.64C322.533 123.528 320.757 121.752 318.645 121.752C316.533 121.752 314.757 123.528 314.757 125.64C314.757 127.752 316.533 129.528 318.645 129.528ZM338.798 129.576C347.966 129.576 352.046 121.272 352.046 113.016C352.046 104.76 347.966 96.504 338.798 96.504C329.63 96.504 325.55 104.76 325.55 113.016C325.55 121.272 329.63 129.576 338.798 129.576ZM338.798 123.528C334.238 123.528 332.51 118.92 332.51 113.016C332.51 107.112 334.238 102.552 338.798 102.552C343.406 102.552 345.086 107.112 345.086 113.016C345.086 118.92 343.358 123.528 338.798 123.528ZM368.683 129.576C377.851 129.576 381.931 121.272 381.931 113.016C381.931 104.76 377.851 96.504 368.683 96.504C359.515 96.504 355.435 104.76 355.435 113.016C355.435 121.272 359.515 129.576 368.683 129.576ZM368.683 123.528C364.123 123.528 362.395 118.92 362.395 113.016C362.395 107.112 364.123 102.552 368.683 102.552C373.291 102.552 374.971 107.112 374.971 113.016C374.971 118.92 373.243 123.528 368.683 123.528ZM398.569 129.576C407.737 129.576 411.817 121.272 411.817 113.016C411.817 104.76 407.737 96.504 398.569 96.504C389.401 96.504 385.321 104.76 385.321 113.016C385.321 121.272 389.401 129.576 398.569 129.576ZM398.569 123.528C394.009 123.528 392.281 118.92 392.281 113.016C392.281 107.112 394.009 102.552 398.569 102.552C403.177 102.552 404.857 107.112 404.857 113.016C404.857 118.92 403.129 123.528 398.569 123.528Z" fill="#1E272E"/>
<path d="M79.3467 198.02C79.3467 199.691 79.0654 201.152 78.5029 202.402C77.9404 203.645 77.1435 204.594 76.1123 205.25C75.081 205.906 73.8779 206.234 72.5029 206.234C71.1592 206.234 69.9678 205.906 68.9287 205.25C67.8896 204.586 67.081 203.645 66.5029 202.426C65.9326 201.199 65.6396 199.781 65.624 198.172V196.941C65.624 195.301 65.9092 193.852 66.4795 192.594C67.0498 191.336 67.8545 190.375 68.8935 189.711C69.9404 189.039 71.1357 188.703 72.4795 188.703C73.8467 188.703 75.0498 189.035 76.0888 189.699C77.1357 190.355 77.9404 191.312 78.5029 192.57C79.0654 193.82 79.3467 195.277 79.3467 196.941V198.02ZM77.1084 196.918C77.1084 194.895 76.7021 193.344 75.8896 192.266C75.0771 191.18 73.9404 190.637 72.4795 190.637C71.0576 190.637 69.9365 191.18 69.1162 192.266C68.3037 193.344 67.8857 194.844 67.8623 196.766V198.02C67.8623 199.98 68.2724 201.523 69.0928 202.648C69.9209 203.766 71.0576 204.324 72.5029 204.324C73.956 204.324 75.081 203.797 75.8779 202.742C76.6748 201.68 77.0849 200.16 77.1084 198.184V196.918ZM86.6014 203.059L89.742 193.32H91.9569L87.41 206H85.7577L81.1639 193.32H83.3787L86.6014 203.059ZM99.1765 206.234C97.4577 206.234 96.0593 205.672 94.9812 204.547C93.903 203.414 93.364 201.902 93.364 200.012V199.613C93.364 198.355 93.6022 197.234 94.0788 196.25C94.5632 195.258 95.2351 194.484 96.0944 193.93C96.9616 193.367 97.8991 193.086 98.9069 193.086C100.555 193.086 101.837 193.629 102.751 194.715C103.665 195.801 104.122 197.355 104.122 199.379V200.281H95.5319C95.5632 201.531 95.9265 202.543 96.6218 203.316C97.3249 204.082 98.2155 204.465 99.2937 204.465C100.059 204.465 100.708 204.309 101.239 203.996C101.77 203.684 102.235 203.27 102.633 202.754L103.958 203.785C102.895 205.418 101.301 206.234 99.1765 206.234ZM98.9069 194.867C98.0319 194.867 97.2976 195.188 96.7038 195.828C96.1101 196.461 95.7429 197.352 95.6022 198.5H101.954V198.336C101.891 197.234 101.594 196.383 101.063 195.781C100.532 195.172 99.8132 194.867 98.9069 194.867ZM112.806 195.266C112.478 195.211 112.123 195.184 111.74 195.184C110.318 195.184 109.353 195.789 108.845 197V206H106.677V193.32H108.787L108.822 194.785C109.533 193.652 110.541 193.086 111.845 193.086C112.267 193.086 112.587 193.141 112.806 193.25V195.266ZM119.241 203.059L122.381 193.32H124.596L120.049 206H118.397L113.803 193.32H116.018L119.241 203.059ZM129.074 206H126.906V193.32H129.074V206ZM126.73 189.957C126.73 189.605 126.835 189.309 127.046 189.066C127.265 188.824 127.585 188.703 128.007 188.703C128.429 188.703 128.749 188.824 128.968 189.066C129.187 189.309 129.296 189.605 129.296 189.957C129.296 190.309 129.187 190.602 128.968 190.836C128.749 191.07 128.429 191.188 128.007 191.188C127.585 191.188 127.265 191.07 127.046 190.836C126.835 190.602 126.73 190.309 126.73 189.957ZM137.852 206.234C136.133 206.234 134.735 205.672 133.656 204.547C132.578 203.414 132.039 201.902 132.039 200.012V199.613C132.039 198.355 132.278 197.234 132.754 196.25C133.238 195.258 133.91 194.484 134.77 193.93C135.637 193.367 136.574 193.086 137.582 193.086C139.231 193.086 140.512 193.629 141.426 194.715C142.34 195.801 142.797 197.355 142.797 199.379V200.281H134.207C134.238 201.531 134.602 202.543 135.297 203.316C136 204.082 136.891 204.465 137.969 204.465C138.735 204.465 139.383 204.309 139.914 203.996C140.445 203.684 140.91 203.27 141.309 202.754L142.633 203.785C141.57 205.418 139.977 206.234 137.852 206.234ZM137.582 194.867C136.707 194.867 135.973 195.188 135.379 195.828C134.785 196.461 134.418 197.352 134.278 198.5H140.629V198.336C140.567 197.234 140.27 196.383 139.738 195.781C139.207 195.172 138.488 194.867 137.582 194.867ZM156.579 203.012L159.017 193.32H161.185L157.493 206H155.735L152.653 196.391L149.653 206H147.896L144.216 193.32H146.372L148.868 202.812L151.821 193.32H153.567L156.579 203.012Z" fill="#1E272E"/>
<path d="M167.479 131.793L171.065 166.139" stroke="#263238" stroke-miterlimit="10"/>
<path d="M170.485 159.565L168.86 157.848" stroke="#263238" stroke-miterlimit="10"/>
<path d="M169.356 158.365C169.353 158.102 169.293 157.843 169.182 157.605C169.07 157.366 168.909 157.155 168.708 156.984C168.291 156.613 166.096 155.689 165.877 156.464C165.675 157.303 167.909 158.956 169.356 158.365Z" fill="#4ABDAC" stroke="#263238" stroke-miterlimit="10"/>
<path d="M169.356 158.365L167.268 157.062" stroke="#263238" stroke-width="0.5" stroke-miterlimit="10"/>
<path d="M170.896 163.473L169.271 161.756" stroke="#263238" stroke-miterlimit="10"/>
<path d="M169.764 162.27C169.76 162.007 169.7 161.749 169.589 161.511C169.477 161.274 169.316 161.063 169.116 160.893C168.698 160.517 166.504 159.597 166.285 160.369C166.072 161.211 168.316 162.861 169.764 162.27Z" fill="#4ABDAC" stroke="#263238" stroke-miterlimit="10"/>
<path d="M169.763 162.27L167.675 160.967" stroke="#263238" stroke-width="0.5" stroke-miterlimit="10"/>
<path d="M169.491 150.035L167.866 148.318" stroke="#263238" stroke-miterlimit="10"/>
<path d="M168.362 148.832C168.358 148.569 168.298 148.311 168.187 148.073C168.075 147.836 167.914 147.625 167.714 147.455C167.296 147.083 165.102 146.159 164.883 146.931C164.667 147.773 166.914 149.423 168.362 148.832Z" fill="#4ABDAC" stroke="#263238" stroke-miterlimit="10"/>
<path d="M168.362 148.832L166.273 147.529" stroke="#263238" stroke-width="0.5" stroke-miterlimit="10"/>
<path d="M169.902 153.94L168.277 152.223" stroke="#263238" stroke-miterlimit="10"/>
<path d="M168.768 152.74C168.765 152.477 168.706 152.218 168.594 151.98C168.482 151.741 168.321 151.53 168.121 151.359C167.703 150.988 165.509 150.064 165.289 150.839C165.077 151.678 167.321 153.331 168.768 152.74Z" fill="#4ABDAC" stroke="#263238" stroke-miterlimit="10"/>
<path d="M168.768 152.74L166.68 151.437" stroke="#263238" stroke-width="0.5" stroke-miterlimit="10"/>
<path d="M168.83 143.688L167.205 141.975" stroke="#263238" stroke-miterlimit="10"/>
<path d="M167.7 142.488C167.696 142.225 167.637 141.966 167.525 141.727C167.413 141.489 167.252 141.278 167.052 141.107C166.634 140.736 164.44 139.812 164.221 140.587C164.005 141.426 166.252 143.079 167.7 142.488Z" fill="#4ABDAC" stroke="#263238" stroke-miterlimit="10"/>
<path d="M167.7 142.488L165.608 141.185" stroke="#263238" stroke-width="0.5" stroke-miterlimit="10"/>
<path d="M168.163 137.316L166.538 135.599" stroke="#263238" stroke-miterlimit="10"/>
<path d="M167.035 136.116C167.031 135.853 166.972 135.594 166.86 135.355C166.748 135.117 166.587 134.906 166.387 134.735C165.969 134.363 163.775 133.44 163.555 134.215C163.34 135.054 165.587 136.707 167.035 136.116Z" fill="#4ABDAC" stroke="#263238" stroke-miterlimit="10"/>
<path d="M167.034 136.116L164.946 134.813" stroke="#263238" stroke-width="0.5" stroke-miterlimit="10"/>
<path d="M170.213 157.253L171.448 155.239" stroke="#263238" stroke-miterlimit="10"/>
<path d="M171.073 155.845C171.023 155.586 171.028 155.321 171.09 155.065C171.151 154.809 171.265 154.569 171.427 154.361C171.759 153.912 173.716 152.556 174.077 153.267C174.467 154.046 172.609 156.124 171.073 155.845Z" fill="#4ABDAC" stroke="#263238" stroke-miterlimit="10"/>
<path d="M171.072 155.845L172.952 154.046" stroke="#263238" stroke-width="0.5" stroke-miterlimit="10"/>
<path d="M169.14 146.977L170.375 144.963" stroke="#263238" stroke-miterlimit="10"/>
<path d="M170 145.568C169.95 145.309 169.955 145.044 170.016 144.788C170.077 144.532 170.192 144.292 170.354 144.084C170.686 143.635 172.643 142.275 173.004 142.991C173.394 143.766 171.536 145.844 170 145.568Z" fill="#4ABDAC" stroke="#263238" stroke-miterlimit="10"/>
<path d="M170 145.568L171.879 143.766" stroke="#263238" stroke-width="0.5" stroke-miterlimit="10"/>
<path d="M168.669 142.459L169.904 140.445" stroke="#263238" stroke-miterlimit="10"/>
<path d="M169.53 141.047C169.479 140.79 169.484 140.524 169.545 140.269C169.606 140.013 169.722 139.774 169.884 139.567C170.216 139.118 172.17 137.758 172.535 138.474C172.924 139.249 171.066 141.327 169.53 141.047Z" fill="#4ABDAC" stroke="#263238" stroke-miterlimit="10"/>
<path d="M169.53 141.051L171.41 139.249" stroke="#263238" stroke-width="0.5" stroke-miterlimit="10"/>
<path d="M167.979 135.836L169.214 133.822" stroke="#263238" stroke-miterlimit="10"/>
<path d="M168.836 134.427C168.785 134.169 168.791 133.903 168.852 133.647C168.913 133.391 169.028 133.151 169.19 132.944C169.519 132.494 171.476 131.138 171.841 131.85C172.23 132.625 170.375 134.707 168.836 134.427Z" fill="#4ABDAC" stroke="#263238" stroke-miterlimit="10"/>
<path d="M168.836 134.427L170.719 132.629" stroke="#263238" stroke-width="0.5" stroke-miterlimit="10"/>
<path d="M167.445 131.602C167.394 131.344 167.399 131.078 167.46 130.822C167.521 130.566 167.637 130.326 167.799 130.119C168.128 129.669 170.085 128.313 170.45 129.025C170.846 129.804 168.988 131.882 167.445 131.602Z" fill="#4ABDAC" stroke="#263238" stroke-miterlimit="10"/>
<path d="M167.452 131.602L169.331 129.804" stroke="#263238" stroke-width="0.5" stroke-miterlimit="10"/>
<path d="M167.558 131.68C167.297 131.704 167.033 131.671 166.785 131.584C166.537 131.498 166.311 131.359 166.121 131.177C165.711 130.802 164.564 128.699 165.314 128.427C166.125 128.115 167.997 130.179 167.558 131.68Z" fill="#4ABDAC" stroke="#263238" stroke-miterlimit="10"/>
<path d="M167.559 131.68L165.97 129.62" stroke="#263238" stroke-width="0.5" stroke-miterlimit="10"/>
<path d="M176.934 136.523L173.37 170.872" stroke="#263238" stroke-miterlimit="10"/>
<path d="M174.155 164.319L172.92 162.305" stroke="#263238" stroke-miterlimit="10"/>
<path d="M173.299 162.91C173.35 162.652 173.344 162.386 173.283 162.13C173.222 161.874 173.107 161.635 172.945 161.427C172.613 160.977 170.655 159.622 170.294 160.337C169.902 161.112 171.76 163.19 173.299 162.91Z" fill="#4ABDAC" stroke="#263238" stroke-miterlimit="10"/>
<path d="M173.299 162.91L171.522 161.208" stroke="#263238" stroke-width="0.5" stroke-miterlimit="10"/>
<path d="M175.146 154.786L173.907 152.775" stroke="#263238" stroke-miterlimit="10"/>
<path d="M174.287 153.377C174.337 153.12 174.331 152.854 174.27 152.599C174.209 152.344 174.094 152.104 173.933 151.897C173.604 151.448 171.646 150.092 171.282 150.804C170.892 151.579 172.754 153.66 174.287 153.377Z" fill="#4ABDAC" stroke="#263238" stroke-miterlimit="10"/>
<path d="M174.285 153.377L172.509 151.674" stroke="#263238" stroke-width="0.5" stroke-miterlimit="10"/>
<path d="M174.739 158.694L173.504 156.68" stroke="#263238" stroke-miterlimit="10"/>
<path d="M173.883 157.285C173.934 157.027 173.928 156.761 173.867 156.505C173.806 156.249 173.691 156.01 173.529 155.802C173.197 155.352 171.239 153.996 170.878 154.712C170.486 155.487 172.344 157.565 173.883 157.285Z" fill="#4ABDAC" stroke="#263238" stroke-miterlimit="10"/>
<path d="M173.882 157.285L172.105 155.579" stroke="#263238" stroke-width="0.5" stroke-miterlimit="10"/>
<path d="M175.805 148.442L174.566 146.428" stroke="#263238" stroke-miterlimit="10"/>
<path d="M174.944 147.033C174.994 146.775 174.989 146.509 174.928 146.253C174.867 145.997 174.751 145.758 174.59 145.55C174.261 145.1 172.304 143.745 171.939 144.46C171.55 145.235 173.408 147.313 174.944 147.033Z" fill="#4ABDAC" stroke="#263238" stroke-miterlimit="10"/>
<path d="M174.945 147.033L173.168 145.327" stroke="#263238" stroke-width="0.5" stroke-miterlimit="10"/>
<path d="M176.465 142.07L175.227 140.056" stroke="#263238" stroke-miterlimit="10"/>
<path d="M175.606 140.661C175.656 140.403 175.651 140.137 175.59 139.881C175.529 139.625 175.414 139.385 175.252 139.178C174.923 138.728 172.966 137.372 172.601 138.084C172.208 138.863 174.066 140.941 175.606 140.661Z" fill="#4ABDAC" stroke="#263238" stroke-miterlimit="10"/>
<path d="M175.607 140.661L173.83 138.955" stroke="#263238" stroke-width="0.5" stroke-miterlimit="10"/>
<path d="M174.364 162.001L175.989 160.284" stroke="#263238" stroke-miterlimit="10"/>
<path d="M175.497 160.801C175.499 160.538 175.558 160.278 175.669 160.04C175.78 159.802 175.941 159.59 176.141 159.42C176.559 159.066 178.753 158.124 178.973 158.896C179.188 159.735 176.945 161.388 175.497 160.801Z" fill="#4ABDAC" stroke="#263238" stroke-miterlimit="10"/>
<path d="M175.497 160.801L177.706 159.427" stroke="#263238" stroke-width="0.5" stroke-miterlimit="10"/>
<path d="M175.434 151.724L177.055 150.003" stroke="#263238" stroke-miterlimit="10"/>
<path d="M176.562 150.52C176.566 150.258 176.625 149.998 176.736 149.76C176.847 149.522 177.007 149.311 177.207 149.14C177.624 148.768 179.819 147.844 180.038 148.616C180.254 149.458 178.01 151.111 176.562 150.52Z" fill="#4ABDAC" stroke="#263238" stroke-miterlimit="10"/>
<path d="M176.562 150.52L178.775 149.147" stroke="#263238" stroke-width="0.5" stroke-miterlimit="10"/>
<path d="M175.9 147.203L177.525 145.486" stroke="#263238" stroke-miterlimit="10"/>
<path d="M177.028 146.003C177.032 145.74 177.091 145.481 177.203 145.243C177.315 145.005 177.476 144.793 177.676 144.623C178.094 144.251 180.288 143.327 180.507 144.099C180.723 144.941 178.476 146.591 177.028 146.003Z" fill="#4ABDAC" stroke="#263238" stroke-miterlimit="10"/>
<path d="M177.028 146.003L179.24 144.63" stroke="#263238" stroke-width="0.5" stroke-miterlimit="10"/>
<path d="M176.586 140.583L178.21 138.866" stroke="#263238" stroke-miterlimit="10"/>
<path d="M177.708 139.38C177.71 139.117 177.769 138.858 177.88 138.619C177.991 138.381 178.152 138.17 178.352 137.999C178.77 137.627 180.964 136.703 181.184 137.475C181.41 138.318 179.163 139.971 177.708 139.38Z" fill="#4ABDAC" stroke="#263238" stroke-miterlimit="10"/>
<path d="M177.72 139.38L179.928 138.006" stroke="#263238" stroke-width="0.5" stroke-miterlimit="10"/>
<path d="M176.94 136.331C176.944 136.068 177.003 135.809 177.115 135.571C177.227 135.333 177.388 135.121 177.588 134.951C178.006 134.597 180.2 133.655 180.419 134.427C180.635 135.266 178.388 136.933 176.94 136.331Z" fill="#4ABDAC" stroke="#263238" stroke-miterlimit="10"/>
<path d="M176.94 136.332L179.152 134.958" stroke="#263238" stroke-width="0.5" stroke-miterlimit="10"/>
<path d="M177.033 136.427C176.772 136.397 176.521 136.311 176.296 136.176C176.072 136.04 175.879 135.858 175.73 135.641C175.401 135.188 174.715 132.908 175.504 132.781C176.364 132.643 177.773 135.05 177.033 136.427Z" fill="#4ABDAC" stroke="#263238" stroke-miterlimit="10"/>
<path d="M177.033 136.427L175.9 134.084" stroke="#263238" stroke-width="0.5" stroke-miterlimit="10"/>
<path d="M172.85 122.536V165.973" stroke="#263238" stroke-miterlimit="10"/>
<path d="M172.884 159.441L171.443 157.565" stroke="#263238" stroke-miterlimit="10"/>
<path d="M171.883 158.128C171.907 157.867 171.874 157.603 171.788 157.355C171.702 157.108 171.564 156.881 171.384 156.691C171.005 156.276 168.906 155.129 168.634 155.876C168.319 156.691 170.382 158.567 171.883 158.128Z" fill="#4ABDAC" stroke="#263238" stroke-miterlimit="10"/>
<path d="M171.883 158.128L169.94 156.616" stroke="#263238" stroke-width="0.5" stroke-miterlimit="10"/>
<path d="M172.884 151.278L171.443 149.402" stroke="#263238" stroke-miterlimit="10"/>
<path d="M171.883 149.964C171.907 149.703 171.874 149.44 171.788 149.192C171.702 148.944 171.564 148.717 171.384 148.527C171.005 148.113 168.906 146.966 168.634 147.713C168.319 148.527 170.382 150.403 171.883 149.964Z" fill="#4ABDAC" stroke="#263238" stroke-miterlimit="10"/>
<path d="M171.883 149.964L169.94 148.453" stroke="#263238" stroke-width="0.5" stroke-miterlimit="10"/>
<path d="M172.884 141.695L171.443 139.819" stroke="#263238" stroke-miterlimit="10"/>
<path d="M171.883 140.382C171.907 140.12 171.874 139.857 171.788 139.609C171.702 139.361 171.564 139.135 171.384 138.944C171.005 138.53 168.906 137.383 168.634 138.13C168.319 138.944 170.382 140.828 171.883 140.382Z" fill="#4ABDAC" stroke="#263238" stroke-miterlimit="10"/>
<path d="M171.883 140.382L169.94 138.87" stroke="#263238" stroke-width="0.5" stroke-miterlimit="10"/>
<path d="M172.884 135.315L171.443 133.439" stroke="#263238" stroke-miterlimit="10"/>
<path d="M171.883 134.002C171.907 133.741 171.874 133.478 171.788 133.23C171.702 132.982 171.564 132.755 171.384 132.565C171.005 132.151 168.906 131.004 168.634 131.751C168.319 132.565 170.382 134.455 171.883 134.002Z" fill="#4ABDAC" stroke="#263238" stroke-miterlimit="10"/>
<path d="M171.883 134.002L169.94 132.491" stroke="#263238" stroke-width="0.5" stroke-miterlimit="10"/>
<path d="M172.884 128.908L171.443 127.032" stroke="#263238" stroke-miterlimit="10"/>
<path d="M171.883 127.595C171.907 127.333 171.874 127.07 171.788 126.822C171.702 126.574 171.564 126.348 171.384 126.157C171.005 125.743 168.906 124.596 168.634 125.343C168.319 126.157 170.382 128.034 171.883 127.595Z" fill="#4ABDAC" stroke="#263238" stroke-miterlimit="10"/>
<path d="M171.883 127.595L169.94 126.083" stroke="#263238" stroke-width="0.5" stroke-miterlimit="10"/>
<path d="M172.853 161.933L174.289 160.057" stroke="#263238" stroke-miterlimit="10"/>
<path d="M173.85 160.62C173.827 160.358 173.859 160.095 173.946 159.847C174.033 159.599 174.171 159.373 174.353 159.183C174.728 158.769 176.83 157.622 177.103 158.368C177.414 159.183 175.351 161.059 173.85 160.62Z" fill="#4ABDAC" stroke="#263238" stroke-miterlimit="10"/>
<path d="M173.852 160.62L175.911 159.027" stroke="#263238" stroke-width="0.5" stroke-miterlimit="10"/>
<path d="M172.853 148.952L174.289 147.076" stroke="#263238" stroke-miterlimit="10"/>
<path d="M173.85 147.639C173.827 147.377 173.859 147.113 173.946 146.865C174.033 146.618 174.171 146.391 174.353 146.201C174.728 145.787 176.83 144.64 177.103 145.387C177.414 146.201 175.351 148.074 173.85 147.639Z" fill="#4ABDAC" stroke="#263238" stroke-miterlimit="10"/>
<path d="M173.852 147.638L175.911 146.045" stroke="#263238" stroke-width="0.5" stroke-miterlimit="10"/>
<path d="M172.853 142.544L174.289 140.668" stroke="#263238" stroke-miterlimit="10"/>
<path d="M173.85 141.231C173.827 140.97 173.859 140.706 173.946 140.458C174.033 140.21 174.171 139.984 174.353 139.794C174.728 139.38 176.83 138.233 177.103 138.98C177.414 139.794 175.351 141.667 173.85 141.231Z" fill="#4ABDAC" stroke="#263238" stroke-miterlimit="10"/>
<path d="M173.852 141.231L175.911 139.638" stroke="#263238" stroke-width="0.5" stroke-miterlimit="10"/>
<path d="M172.853 134.073L174.289 132.2" stroke="#263238" stroke-miterlimit="10"/>
<path d="M173.85 132.763C173.827 132.501 173.859 132.237 173.946 131.988C174.033 131.74 174.171 131.513 174.353 131.322C174.728 130.908 176.83 129.765 177.103 130.512C177.414 131.322 175.351 133.199 173.85 132.763Z" fill="#4ABDAC" stroke="#263238" stroke-miterlimit="10"/>
<path d="M173.852 132.763L175.911 131.167" stroke="#263238" stroke-width="0.5" stroke-miterlimit="10"/>
<path d="M172.853 127.418L174.289 125.542" stroke="#263238" stroke-miterlimit="10"/>
<path d="M173.85 126.104C173.827 125.842 173.859 125.578 173.946 125.33C174.033 125.081 174.171 124.854 174.353 124.663C174.728 124.253 176.83 123.106 177.103 123.853C177.414 124.663 175.351 126.54 173.85 126.104Z" fill="#4ABDAC" stroke="#263238" stroke-miterlimit="10"/>
<path d="M173.852 126.104L175.911 124.511" stroke="#263238" stroke-width="0.5" stroke-miterlimit="10"/>
<path d="M172.754 123.152C172.73 122.89 172.763 122.626 172.849 122.377C172.936 122.129 173.075 121.902 173.256 121.711C173.631 121.297 175.734 120.154 176.006 120.9C176.328 121.711 174.265 123.587 172.754 123.152Z" fill="#4ABDAC" stroke="#263238" stroke-miterlimit="10"/>
<path d="M172.765 123.152L174.824 121.556" stroke="#263238" stroke-width="0.5" stroke-miterlimit="10"/>
<path d="M172.867 123.24C172.604 123.236 172.345 123.176 172.108 123.063C171.871 122.951 171.66 122.789 171.49 122.589C171.115 122.171 170.194 119.976 170.969 119.757C171.808 119.545 173.461 121.792 172.867 123.24Z" fill="#4ABDAC" stroke="#263238" stroke-miterlimit="10"/>
<path d="M172.867 123.241L171.497 121.024" stroke="#263238" stroke-width="0.5" stroke-miterlimit="10"/>
<path d="M174.636 177.237H170.035L169.462 165.619H175.21L174.636 177.237Z" fill="#263238" stroke="#263238" stroke-miterlimit="10"/>
<path d="M160.721 177.644H197.175" stroke="#263238" stroke-linecap="round" stroke-linejoin="round"/>
<path d="M59.1445 177.644H157.889" stroke="#263238" stroke-linecap="round" stroke-linejoin="round"/>
<path d="M28 177.644H55.2519" stroke="#263238" stroke-linecap="round" stroke-linejoin="round"/>
<path d="M80.9006 177.651L78.416 152.273L76.4766 152.697L79.9839 177.651H80.9006Z" fill="#808080" stroke="#808080" stroke-linecap="round" stroke-linejoin="round"/>
<path d="M52.2119 177.651L55.7193 152.697L53.7834 152.273L51.2988 177.651H52.2119Z" fill="#808080" stroke="#808080" stroke-linecap="round" stroke-linejoin="round"/>
<path d="M54.3522 155.342L53.1064 125.662C53.0883 125.243 53.1552 124.824 53.3032 124.431C53.4512 124.038 53.6772 123.68 53.9676 123.377C54.258 123.074 54.6067 122.833 54.9928 122.668C55.3788 122.504 55.7942 122.419 56.2139 122.419H77.0032C77.4319 122.419 77.8559 122.508 78.2487 122.68C78.6415 122.852 78.9945 123.103 79.2856 123.418C79.5767 123.733 79.7997 124.104 79.9404 124.509C80.0812 124.914 80.1367 125.344 80.1035 125.772L77.7995 155.342H54.3522Z" fill="#808080" stroke="#808080" stroke-linecap="round" stroke-linejoin="round"/>
<path d="M79.7717 148.832H52.1836V155.335H79.7717V148.832Z" fill="#808080" stroke="#808080" stroke-linecap="round" stroke-linejoin="round"/>
<path d="M54.3526 155.342H52.2644L50.8027 143.122C50.8027 142.652 50.9892 142.202 51.321 141.87C51.6529 141.538 52.103 141.352 52.5723 141.352C53.0417 141.352 53.4918 141.538 53.8236 141.87C54.1555 142.202 54.3419 142.652 54.3419 143.122L54.3526 155.342Z" fill="#808080" stroke="#808080" stroke-linecap="round" stroke-linejoin="round"/>
<path d="M77.8008 155.342H79.8889L81.3541 143.122C81.3541 142.652 81.1677 142.202 80.8358 141.87C80.504 141.538 80.0539 141.352 79.5845 141.352C79.1152 141.352 78.6651 141.538 78.3332 141.87C78.0014 142.202 77.8149 142.652 77.8149 143.122L77.8008 155.342Z" fill="#808080" stroke="#808080" stroke-linecap="round" stroke-linejoin="round"/>
<path d="M39.8848 122.922H57.4357C57.6704 122.922 57.8955 123.015 58.0614 123.181C58.2273 123.347 58.3206 123.572 58.3206 123.807V134.399H39V123.807C39 123.572 39.0932 123.347 39.2592 123.181C39.4251 123.015 39.6501 122.922 39.8848 122.922Z" fill="white" stroke="#808080" stroke-linecap="round" stroke-linejoin="round"/>
<path d="M100.907 177.651L98.614 137.62H96.6533L100.016 177.651H100.907Z" fill="#808080" stroke="#808080" stroke-linecap="round" stroke-linejoin="round"/>
<path d="M108.121 177.651L105.828 137.62H103.863L107.226 177.651H108.121Z" fill="#808080" stroke="#808080" stroke-linecap="round" stroke-linejoin="round"/>
<path d="M44.5 177.651L47.3633 137.62H45.4061L43.6152 177.651H44.5Z" fill="#808080" stroke="#808080" stroke-linecap="round" stroke-linejoin="round"/>
<path d="M36.4336 177.651L39.2933 137.62H37.3397L35.5488 177.651H36.4336Z" fill="#808080" stroke="#808080" stroke-linecap="round" stroke-linejoin="round"/>
<path d="M108.339 135.362H36.0615V138.863H108.339V135.362Z" fill="white" stroke="#808080" stroke-linecap="round" stroke-linejoin="round"/>
<path d="M108.339 135.362H36.0615V136.562H108.339V135.362Z" fill="#808080" stroke="#808080" stroke-linecap="round" stroke-linejoin="round"/>
<path d="M109.426 134.193H34.9756V135.528H109.426V134.193Z" fill="white" stroke="#808080" stroke-linecap="round" stroke-linejoin="round"/>
<path opacity="0.15" d="M169.922 23.2972H46.7578V119.587H169.922V23.2972Z" fill="black"/>
<path d="M174.286 19.5308H50.75V116.047H174.286V19.5308Z" fill="#4ABDAC"/>
<path d="M174.286 19.5308H50.75V116.047H174.286V19.5308Z" fill="white" stroke="#263238" stroke-linecap="round" stroke-linejoin="round"/>
<path d="M168.871 38.1443H53.7227V90.5692H168.871V38.1443Z" fill="white"/>
<path d="M57.3721 83.0289H164.638" stroke="#8C8C8C" stroke-width="0.5" stroke-miterlimit="10"/>
<path d="M57.3721 83.0291V81.9777" stroke="#8C8C8C" stroke-width="0.5" stroke-miterlimit="10"/>
<path d="M63.0166 83.0291V81.9777" stroke="#8C8C8C" stroke-width="0.5" stroke-miterlimit="10"/>
<path d="M68.6611 83.0291V81.9777" stroke="#8C8C8C" stroke-width="0.5" stroke-miterlimit="10"/>
<path d="M74.3066 83.0291V81.9777" stroke="#8C8C8C" stroke-width="0.5" stroke-miterlimit="10"/>
<path d="M79.9521 83.0291V81.9777" stroke="#8C8C8C" stroke-width="0.5" stroke-miterlimit="10"/>
<path d="M85.5967 83.0291V81.9777" stroke="#8C8C8C" stroke-width="0.5" stroke-miterlimit="10"/>
<path d="M91.2461 83.0291V81.9777" stroke="#8C8C8C" stroke-width="0.5" stroke-miterlimit="10"/>
<path d="M96.8906 83.0291V81.9777" stroke="#8C8C8C" stroke-width="0.5" stroke-miterlimit="10"/>
<path d="M102.536 83.0291V81.9777" stroke="#8C8C8C" stroke-width="0.5" stroke-miterlimit="10"/>
<path d="M108.182 83.0291V81.9777" stroke="#8C8C8C" stroke-width="0.5" stroke-miterlimit="10"/>
<path d="M113.826 83.0291V81.9777" stroke="#8C8C8C" stroke-width="0.5" stroke-miterlimit="10"/>
<path d="M119.471 83.0291V81.9777" stroke="#8C8C8C" stroke-width="0.5" stroke-miterlimit="10"/>
<path d="M125.119 83.0291V81.9777" stroke="#8C8C8C" stroke-width="0.5" stroke-miterlimit="10"/>
<path d="M130.765 83.0291V81.9777" stroke="#8C8C8C" stroke-width="0.5" stroke-miterlimit="10"/>
<path d="M136.409 83.0291V81.9777" stroke="#8C8C8C" stroke-width="0.5" stroke-miterlimit="10"/>
<path d="M142.055 83.0291V81.9777" stroke="#8C8C8C" stroke-width="0.5" stroke-miterlimit="10"/>
<path d="M147.699 83.0291V81.9777" stroke="#8C8C8C" stroke-width="0.5" stroke-miterlimit="10"/>
<path d="M153.345 83.0291V81.9777" stroke="#8C8C8C" stroke-width="0.5" stroke-miterlimit="10"/>
<path d="M158.99 83.0291V81.9777" stroke="#8C8C8C" stroke-width="0.5" stroke-miterlimit="10"/>
<path d="M164.638 83.0291V81.9777" stroke="#8C8C8C" stroke-width="0.5" stroke-miterlimit="10"/>
<path d="M57.3721 83.029V40.9447" stroke="#8C8C8C" stroke-width="0.5" stroke-miterlimit="10"/>
<path d="M57.3721 83.0289H60.0513" stroke="#8C8C8C" stroke-width="0.5" stroke-miterlimit="10"/>
<path d="M57.3725 74.6141H54.4102" stroke="#8C8C8C" stroke-width="0.5" stroke-miterlimit="10"/>
<path d="M57.3725 66.1959H54.4102" stroke="#8C8C8C" stroke-width="0.5" stroke-miterlimit="10"/>
<path d="M57.3725 57.7778H54.4102" stroke="#8C8C8C" stroke-width="0.5" stroke-miterlimit="10"/>
<path d="M57.3725 49.363H54.4102" stroke="#8C8C8C" stroke-width="0.5" stroke-miterlimit="10"/>
<path d="M57.3725 40.9447H54.4102" stroke="#8C8C8C" stroke-width="0.5" stroke-miterlimit="10"/>
<path d="M156.169 49.3631L161.814 42.9874" stroke="#4ABDAC" stroke-width="2" stroke-miterlimit="10" stroke-linecap="round"/>
<path d="M150.523 63.672L156.168 49.363" stroke="#4ABDAC" stroke-width="2" stroke-miterlimit="10" stroke-linecap="round"/>
<path d="M144.879 57.7778L150.524 63.6721" stroke="#4ABDAC" stroke-width="2" stroke-miterlimit="10" stroke-linecap="round"/>
<path d="M139.23 72.9293L144.879 57.7778" stroke="#4ABDAC" stroke-width="2" stroke-miterlimit="10" stroke-linecap="round"/>
<path d="M133.586 49.363L139.231 72.9293" stroke="#4ABDAC" stroke-width="2" stroke-miterlimit="10" stroke-linecap="round"/>
<path d="M127.94 40.9447L133.585 49.363" stroke="#4ABDAC" stroke-width="2" stroke-miterlimit="10" stroke-linecap="round"/>
<path d="M122.295 78.8234L127.94 40.9447" stroke="#4ABDAC" stroke-width="2" stroke-miterlimit="10" stroke-linecap="round"/>
<path d="M116.65 76.2958L122.295 78.8234" stroke="#4ABDAC" stroke-width="2" stroke-miterlimit="10" stroke-linecap="round"/>
<path d="M111.006 75.4531L116.651 76.2957" stroke="#4ABDAC" stroke-width="2" stroke-miterlimit="10" stroke-linecap="round"/>
<path d="M105.357 58.7689L111.006 75.4533" stroke="#4ABDAC" stroke-width="2" stroke-miterlimit="10" stroke-linecap="round"/>
<path d="M99.7119 55.4021L105.357 58.7687" stroke="#4ABDAC" stroke-width="2" stroke-miterlimit="10" stroke-linecap="round"/>
<path d="M94.0664 71.2474L99.7114 55.4021" stroke="#4ABDAC" stroke-width="2" stroke-miterlimit="10" stroke-linecap="round"/>
<path d="M88.4219 74.6142L94.0669 71.2476" stroke="#4ABDAC" stroke-width="2" stroke-miterlimit="10" stroke-linecap="round"/>
<path d="M82.7773 56.9386L88.4224 74.6142" stroke="#4ABDAC" stroke-width="2" stroke-miterlimit="10" stroke-linecap="round"/>
<path d="M77.1309 54.4109L82.7759 56.9385" stroke="#4ABDAC" stroke-width="2" stroke-miterlimit="10" stroke-linecap="round"/>
<path d="M71.4854 51.0442L77.1304 54.4108" stroke="#4ABDAC" stroke-width="2" stroke-miterlimit="10" stroke-linecap="round"/>
<path d="M65.8379 54.4108L71.4865 51.0442" stroke="#4ABDAC" stroke-width="2" stroke-miterlimit="10" stroke-linecap="round"/>
<path d="M60.1924 57.7775L65.8374 54.4109" stroke="#4ABDAC" stroke-width="2" stroke-miterlimit="10" stroke-linecap="round"/>
<path d="M161.813 41.989C161.549 41.989 161.295 42.0942 161.108 42.2814C160.921 42.4686 160.815 42.7225 160.815 42.9873C160.815 43.2521 160.921 43.506 161.108 43.6932C161.295 43.8804 161.549 43.9856 161.813 43.9856C162.078 43.9856 162.332 43.8804 162.519 43.6932C162.706 43.506 162.812 43.2521 162.812 42.9873C162.812 42.7225 162.706 42.4686 162.519 42.2814C162.332 42.0942 162.078 41.989 161.813 41.989Z" fill="white" stroke="#4ABDAC" stroke-linecap="round" stroke-linejoin="round"/>
<path d="M156.169 48.3646C155.904 48.3646 155.65 48.4698 155.463 48.657C155.276 48.8442 155.171 49.0982 155.171 49.3629C155.171 49.6277 155.276 49.8816 155.463 50.0688C155.65 50.256 155.904 50.3612 156.169 50.3612C156.434 50.3612 156.688 50.256 156.875 50.0688C157.062 49.8816 157.167 49.6277 157.167 49.3629C157.167 49.0982 157.062 48.8442 156.875 48.657C156.688 48.4698 156.434 48.3646 156.169 48.3646Z" fill="white" stroke="#4ABDAC" stroke-linecap="round" stroke-linejoin="round"/>
<path d="M150.523 62.6736C150.259 62.6736 150.005 62.7788 149.818 62.966C149.631 63.1532 149.525 63.4071 149.525 63.6719C149.525 63.9367 149.631 64.1906 149.818 64.3778C150.005 64.565 150.259 64.6702 150.523 64.6702C150.788 64.6692 151.041 64.5638 151.228 64.3768C151.415 64.1897 151.521 63.9364 151.522 63.6719C151.522 63.4071 151.416 63.1532 151.229 62.966C151.042 62.7788 150.788 62.6736 150.523 62.6736Z" fill="white" stroke="#4ABDAC" stroke-linecap="round" stroke-linejoin="round"/>
<path d="M144.879 56.7792C144.614 56.7792 144.36 56.8844 144.173 57.0716C143.986 57.2588 143.881 57.5127 143.881 57.7775C143.881 58.0422 143.986 58.2962 144.173 58.4834C144.36 58.6706 144.614 58.7758 144.879 58.7758C145.01 58.7758 145.139 58.7499 145.26 58.6997C145.381 58.6495 145.491 58.5759 145.583 58.4832C145.676 58.3904 145.749 58.2803 145.799 58.1592C145.849 58.0381 145.874 57.9084 145.873 57.7775C145.873 57.5133 145.769 57.2599 145.582 57.0728C145.396 56.8857 145.143 56.7801 144.879 56.7792Z" fill="white" stroke="#4ABDAC" stroke-linecap="round" stroke-linejoin="round"/>
<path d="M139.23 71.9309C138.966 71.9309 138.712 72.0361 138.525 72.2233C138.338 72.4105 138.232 72.6644 138.232 72.9292C138.232 73.194 138.338 73.4479 138.525 73.6351C138.712 73.8223 138.966 73.9275 139.23 73.9275C139.495 73.9275 139.749 73.8223 139.936 73.6351C140.123 73.4479 140.229 73.194 140.229 72.9292C140.229 72.6644 140.123 72.4105 139.936 72.2233C139.749 72.0361 139.495 71.9309 139.23 71.9309Z" fill="white" stroke="#4ABDAC" stroke-linecap="round" stroke-linejoin="round"/>
<path d="M133.585 48.3646C133.32 48.3646 133.066 48.4698 132.879 48.657C132.692 48.8442 132.587 49.0982 132.587 49.3629C132.588 49.6274 132.693 49.8808 132.88 50.0678C133.067 50.2548 133.321 50.3603 133.585 50.3612C133.85 50.3612 134.104 50.256 134.291 50.0688C134.478 49.8816 134.583 49.6277 134.583 49.3629C134.583 49.0982 134.478 48.8442 134.291 48.657C134.104 48.4698 133.85 48.3646 133.585 48.3646Z" fill="white" stroke="#4ABDAC" stroke-linecap="round" stroke-linejoin="round"/>
<path d="M127.94 39.9359C127.676 39.9359 127.422 40.0411 127.235 40.2283C127.048 40.4155 126.942 40.6694 126.942 40.9342C126.942 41.199 127.048 41.4529 127.235 41.6401C127.422 41.8273 127.676 41.9325 127.94 41.9325C128.205 41.9325 128.459 41.8273 128.646 41.6401C128.833 41.4529 128.939 41.199 128.939 40.9342C128.939 40.6694 128.833 40.4155 128.646 40.2283C128.459 40.0411 128.205 39.9359 127.94 39.9359Z" fill="#263238" stroke="#4ABDAC" stroke-linecap="round" stroke-linejoin="round"/>
<path d="M122.296 77.8143C122.031 77.8143 121.777 77.9195 121.59 78.1067C121.403 78.2939 121.298 78.5479 121.298 78.8126C121.298 78.9436 121.324 79.0732 121.374 79.1941C121.424 79.3151 121.498 79.4249 121.59 79.5173C121.683 79.6097 121.793 79.6829 121.914 79.7327C122.035 79.7825 122.165 79.8079 122.296 79.8074C122.427 79.8079 122.557 79.7825 122.678 79.7327C122.799 79.6829 122.909 79.6097 123.001 79.5173C123.094 79.4249 123.168 79.3151 123.218 79.1941C123.268 79.0732 123.294 78.9436 123.294 78.8126C123.294 78.5479 123.189 78.2939 123.002 78.1067C122.814 77.9195 122.561 77.8143 122.296 77.8143Z" fill="white" stroke="#4ABDAC" stroke-linecap="round" stroke-linejoin="round"/>
<path d="M116.65 75.2975C116.386 75.2975 116.132 75.4027 115.945 75.5899C115.757 75.7771 115.652 76.031 115.652 76.2958C115.652 76.5606 115.757 76.8145 115.945 77.0017C116.132 77.1889 116.386 77.2941 116.65 77.2941C116.915 77.2941 117.169 77.1889 117.356 77.0017C117.543 76.8145 117.648 76.5606 117.648 76.2958C117.648 76.0313 117.542 75.7779 117.355 75.5909C117.168 75.4039 116.915 75.2984 116.65 75.2975Z" fill="white" stroke="#4ABDAC" stroke-linecap="round" stroke-linejoin="round"/>
<path d="M111.005 74.4585C110.874 74.458 110.744 74.4834 110.623 74.5332C110.502 74.583 110.392 74.6562 110.299 74.7486C110.207 74.841 110.133 74.9508 110.083 75.0718C110.033 75.1927 110.007 75.3223 110.007 75.4533C110.007 75.718 110.112 75.9719 110.299 76.1592C110.486 76.3464 110.74 76.4516 111.005 76.4516C111.27 76.4516 111.523 76.3464 111.711 76.1592C111.898 75.9719 112.003 75.718 112.003 75.4533C112.002 75.1891 111.896 74.9361 111.709 74.7496C111.522 74.5632 111.269 74.4585 111.005 74.4585Z" fill="white" stroke="#4ABDAC" stroke-linecap="round" stroke-linejoin="round"/>
<path d="M105.357 57.7705C105.226 57.7705 105.096 57.7964 104.975 57.8466C104.855 57.8968 104.745 57.9704 104.652 58.0631C104.56 58.1559 104.487 58.2659 104.437 58.387C104.387 58.5081 104.362 58.6379 104.362 58.7688C104.362 58.8997 104.387 59.0295 104.437 59.1506C104.487 59.2717 104.56 59.3817 104.652 59.4745C104.745 59.5672 104.855 59.6408 104.975 59.691C105.096 59.7413 105.226 59.7671 105.357 59.7671C105.622 59.7671 105.875 59.6619 106.063 59.4747C106.25 59.2875 106.355 59.0336 106.355 58.7688C106.355 58.504 106.25 58.2501 106.063 58.0629C105.875 57.8757 105.622 57.7705 105.357 57.7705Z" fill="white" stroke="#4ABDAC" stroke-linecap="round" stroke-linejoin="round"/>
<path d="M99.7109 54.4039C99.4462 54.4039 99.1924 54.5091 99.0052 54.6963C98.818 54.8835 98.7129 55.1375 98.7129 55.4022C98.7129 55.667 98.818 55.9209 99.0052 56.1081C99.1924 56.2953 99.4462 56.4005 99.7109 56.4005C99.9756 56.4005 100.23 56.2953 100.417 56.1081C100.604 55.9209 100.709 55.667 100.709 55.4022C100.709 55.1375 100.604 54.8835 100.417 54.6963C100.23 54.5091 99.9756 54.4039 99.7109 54.4039Z" fill="white" stroke="#4ABDAC" stroke-linecap="round" stroke-linejoin="round"/>
<path d="M94.0664 70.2493C93.8017 70.2493 93.5479 70.3544 93.3607 70.5417C93.1735 70.7289 93.0684 70.9828 93.0684 71.2476C93.0684 71.5123 93.1735 71.7663 93.3607 71.9535C93.5479 72.1407 93.8017 72.2459 94.0664 72.2459C94.3311 72.2459 94.585 72.1407 94.7722 71.9535C94.9593 71.7663 95.0645 71.5123 95.0645 71.2476C95.0645 70.9828 94.9593 70.7289 94.7722 70.5417C94.585 70.3544 94.3311 70.2493 94.0664 70.2493Z" fill="white" stroke="#4ABDAC" stroke-linecap="round" stroke-linejoin="round"/>
<path d="M88.421 73.616C88.2887 73.616 88.1578 73.6422 88.0358 73.6933C87.9138 73.7443 87.8031 73.8191 87.7102 73.9134C87.6174 74.0076 87.5441 74.1193 87.4948 74.242C87.4455 74.3648 87.4211 74.4961 87.423 74.6284C87.423 74.8932 87.5281 75.1471 87.7153 75.3343C87.9024 75.5215 88.1563 75.6267 88.421 75.6267C88.6857 75.6267 88.9396 75.5215 89.1267 75.3343C89.3139 75.1471 89.4191 74.8932 89.4191 74.6284C89.4209 74.4961 89.3965 74.3648 89.3472 74.242C89.2979 74.1193 89.2247 74.0076 89.1318 73.9134C89.0389 73.8191 88.9283 73.7443 88.8063 73.6933C88.6842 73.6422 88.5533 73.616 88.421 73.616Z" fill="white" stroke="#4ABDAC" stroke-linecap="round" stroke-linejoin="round"/>
<path d="M82.7763 55.9401C82.5165 55.9447 82.2687 56.0504 82.0856 56.2349C81.9026 56.4193 81.7986 56.6679 81.7959 56.9278C81.7959 57.1925 81.9011 57.4465 82.0882 57.6337C82.2754 57.8209 82.5293 57.9261 82.794 57.9261C83.0587 57.9261 83.3125 57.8209 83.4997 57.6337C83.6869 57.4465 83.792 57.1925 83.792 56.9278C83.7906 56.7961 83.7632 56.6659 83.7113 56.5449C83.6594 56.4238 83.5841 56.3142 83.4897 56.2224C83.3953 56.1306 83.2836 56.0584 83.1612 56.0099C83.0387 55.9615 82.9079 55.9378 82.7763 55.9401Z" fill="white" stroke="#4ABDAC" stroke-linecap="round" stroke-linejoin="round"/>
<path d="M77.1309 53.4128C76.8662 53.4128 76.6123 53.518 76.4251 53.7052C76.238 53.8925 76.1328 54.1464 76.1328 54.4111C76.1328 54.6759 76.238 54.9298 76.4251 55.117C76.6123 55.3043 76.8662 55.4094 77.1309 55.4094C77.3956 55.4094 77.6494 55.3043 77.8366 55.117C78.0238 54.9298 78.1289 54.6759 78.1289 54.4111C78.128 54.1467 78.0225 53.8933 77.8356 53.7063C77.6486 53.5193 77.3953 53.4138 77.1309 53.4128Z" fill="white" stroke="#4ABDAC" stroke-linecap="round" stroke-linejoin="round"/>
<path d="M71.4863 50.0463C71.2216 50.0463 70.9678 50.1514 70.7806 50.3387C70.5934 50.5259 70.4883 50.7798 70.4883 51.0446C70.4883 51.3093 70.5934 51.5633 70.7806 51.7505C70.9678 51.9377 71.2216 52.0429 71.4863 52.0429C71.6172 52.0429 71.7469 52.017 71.8677 51.9668C71.9886 51.9166 72.0984 51.843 72.1908 51.7503C72.2832 51.6575 72.3564 51.5474 72.4062 51.4263C72.4559 51.3052 72.4813 51.1755 72.4809 51.0446C72.4809 50.7804 72.3762 50.527 72.1898 50.3399C72.0034 50.1528 71.7504 50.0472 71.4863 50.0463Z" fill="white" stroke="#4ABDAC" stroke-linecap="round" stroke-linejoin="round"/>
<path d="M65.8379 53.4128C65.5735 53.4138 65.3202 53.5193 65.1332 53.7063C64.9462 53.8933 64.8408 54.1467 64.8398 54.4111C64.8398 54.6759 64.945 54.9298 65.1322 55.117C65.3193 55.3043 65.5732 55.4094 65.8379 55.4094C66.1026 55.4094 66.3565 55.3043 66.5436 55.117C66.7308 54.9298 66.836 54.6759 66.836 54.4111C66.836 54.1464 66.7308 53.8925 66.5436 53.7052C66.3565 53.518 66.1026 53.4128 65.8379 53.4128Z" fill="white" stroke="#4ABDAC" stroke-linecap="round" stroke-linejoin="round"/>
<path d="M60.207 56.7792C59.9426 56.7801 59.6893 56.8856 59.5023 57.0726C59.3154 57.2596 59.2099 57.513 59.209 57.7775C59.209 58.0422 59.3141 58.2962 59.5013 58.4834C59.6885 58.6706 59.9423 58.7758 60.207 58.7758C60.4717 58.7758 60.7256 58.6706 60.9128 58.4834C61.0999 58.2962 61.2051 58.0422 61.2051 57.7775C61.2051 57.5127 61.0999 57.2588 60.9128 57.0716C60.7256 56.8844 60.4717 56.7792 60.207 56.7792Z" fill="white" stroke="#4ABDAC" stroke-linecap="round" stroke-linejoin="round"/>
<path d="M174.286 19.5308H171.094V116.047H174.286V19.5308Z" fill="#DBDBDB" stroke="#263238" stroke-miterlimit="10"/>
<path d="M174.286 49.4337H171.094V75.5134H174.286V49.4337Z" fill="#878787"/>
<path d="M174.286 19.5308H50.75V25.8002H174.286V19.5308Z" fill="#4ABDAC" stroke="#263238" stroke-linecap="round" stroke-linejoin="round"/>
<path d="M50.75 27.7047H81.7641C81.9518 27.7047 82.1319 27.7793 82.2646 27.9121C82.3974 28.0449 82.472 28.2249 82.472 28.4127V32.0165C82.472 32.2043 82.3974 32.3844 82.2646 32.5172C82.1319 32.6499 81.9518 32.7245 81.7641 32.7245H50.75V27.7047Z" fill="#263238"/>
<path d="M55.7191 30.6005L56.0483 28.4269H56.7136V31.489H56.2606V29.2942L55.9279 31.489H55.4749L55.121 29.3261V31.489H54.6963V28.4269H55.3652L55.7191 30.6005Z" fill="#4ABDAC"/>
<path d="M58.6216 31.489H58.1367L58.0553 30.9332H57.4642L57.3758 31.489H56.9404L57.4288 28.4269H58.1367L58.6216 31.489ZM57.5244 30.5191H57.988L57.758 28.9614L57.5244 30.5191Z" fill="#4ABDAC"/>
<path d="M59.8528 31.489C59.8145 31.3679 59.8 31.2404 59.8103 31.1138V30.6323C59.8103 30.3491 59.7148 30.2429 59.4953 30.2429H59.329V31.489H58.8477V28.4269H59.5555C60.0545 28.4269 60.2633 28.6605 60.2633 29.1349V29.3756C60.2795 29.4991 60.2581 29.6246 60.202 29.7358C60.1458 29.8469 60.0574 29.9385 59.9483 29.9987C60.189 30.0978 60.2669 30.3279 60.2669 30.65V31.1209C60.2601 31.2413 60.2782 31.3618 60.32 31.4749L59.8528 31.489ZM59.329 28.8658V29.804H59.4989C59.6794 29.804 59.7891 29.7261 59.7891 29.4818V29.1809C59.7891 28.9614 59.7148 28.8658 59.5449 28.8658H59.329Z" fill="#4ABDAC"/>
<path d="M61.9977 30.3491V30.7526C61.9977 31.2447 61.7535 31.5244 61.2899 31.5244C60.8262 31.5244 60.582 31.2447 60.582 30.7526V29.1631C60.582 28.6746 60.8262 28.3949 61.2899 28.3949C61.3899 28.388 61.4903 28.4036 61.5835 28.4406C61.6767 28.4776 61.7603 28.5352 61.8283 28.6089C61.8963 28.6827 61.9468 28.7708 61.9761 28.8667C62.0054 28.9627 62.0128 29.064 61.9977 29.1631V29.4605H61.5447V29.1313C61.5447 28.9153 61.4456 28.8304 61.2934 28.8304C61.1412 28.8304 61.0457 28.9153 61.0457 29.1313V30.7845C61.0457 31.004 61.1412 31.0818 61.2934 31.0818C61.4456 31.0818 61.5447 31.004 61.5447 30.7845V30.3491H61.9977Z" fill="#4ABDAC"/>
<path d="M62.7723 31.489H62.291V28.4269H62.7723V29.7402H63.3174V28.4269H63.8058V31.489H63.3174V30.1757H62.7723V31.489Z" fill="#4ABDAC"/>
<path d="M138.299 20.5997H58.876V24.1363H138.299V20.5997Z" fill="white"/>
<path d="M62.8051 84.1865H57.4326V86.6575H62.8051V84.1865Z" fill="#A1A1A1"/>
<path d="M68.4565 84.1865H63.084V86.6575H68.4565V84.1865Z" fill="#595959"/>
<path d="M74.1088 84.1865H68.7363V86.6575H74.1088V84.1865Z" fill="#A1A1A1"/>
<path d="M79.7612 84.1865H74.3887V86.6575H79.7612V84.1865Z" fill="#595959"/>
<path d="M85.4165 84.1865H80.0439V86.6575H85.4165V84.1865Z" fill="#A1A1A1"/>
<path d="M91.0688 84.1865H85.6963V86.6575H91.0688V84.1865Z" fill="#595959"/>
<path d="M96.7202 84.1865H91.3477V86.6575H96.7202V84.1865Z" fill="#A1A1A1"/>
<path d="M102.373 84.1865H97.001V86.6575H102.373V84.1865Z" fill="#595959"/>
<path d="M108.025 84.1865H102.652V86.6575H108.025V84.1865Z" fill="#A1A1A1"/>
<path d="M113.676 84.1865H108.304V86.6575H113.676V84.1865Z" fill="#595959"/>
<path d="M119.33 84.1865H113.957V86.6575H119.33V84.1865Z" fill="#A1A1A1"/>
<path d="M124.981 84.1865H119.608V86.6575H124.981V84.1865Z" fill="#595959"/>
<path d="M130.634 84.1865H125.262V86.6575H130.634V84.1865Z" fill="#A1A1A1"/>
<path d="M136.29 84.1865H130.917V86.6575H136.29V84.1865Z" fill="#595959"/>
<path d="M141.942 84.1865H136.569V86.6575H141.942V84.1865Z" fill="#A1A1A1"/>
<path d="M147.593 84.1865H142.221V86.6575H147.593V84.1865Z" fill="#595959"/>
<path d="M153.247 84.1865H147.874V86.6575H153.247V84.1865Z" fill="#A1A1A1"/>
<path d="M158.898 84.1865H153.525V86.6575H158.898V84.1865Z" fill="#595959"/>
<path d="M164.549 84.1865H159.177V86.6575H164.549V84.1865Z" fill="#A1A1A1"/>
<path d="M63.0909 34.7355H53.9385V37.2064H63.0909V34.7355Z" fill="#A1A1A1"/>
<path d="M72.7178 34.7355H63.5654V37.2064H72.7178V34.7355Z" fill="#595959"/>
<path d="M82.3448 34.7355H73.1924V37.2064H82.3448V34.7355Z" fill="#A1A1A1"/>
<path d="M91.9747 34.7355H82.8223V37.2064H91.9747V34.7355Z" fill="#595959"/>
<path d="M101.602 34.7355H92.4492V37.2064H101.602V34.7355Z" fill="#A1A1A1"/>
<path d="M111.232 34.7355H102.079V37.2064H111.232V34.7355Z" fill="#595959"/>
<path d="M120.858 34.7355H111.706V37.2064H120.858V34.7355Z" fill="#A1A1A1"/>
<path d="M130.485 34.7355H121.333V37.2064H130.485V34.7355Z" fill="#595959"/>
<path d="M140.115 34.7355H130.963V37.2064H140.115V34.7355Z" fill="#A1A1A1"/>
<path d="M149.742 34.7355H140.59V37.2064H149.742V34.7355Z" fill="#595959"/>
<path d="M159.369 34.7355H150.217V37.2064H159.369V34.7355Z" fill="#A1A1A1"/>
<path d="M168.999 34.7355H159.847V37.2064H168.999V34.7355Z" fill="#595959"/>
<path d="M107.02 40.9552H125.873L121.545 43.1217V47.5397C121.545 47.8508 121.422 48.1492 121.202 48.3695C120.983 48.5899 120.685 48.7141 120.374 48.715H107.02C106.709 48.7141 106.411 48.5899 106.192 48.3695C105.972 48.1492 105.849 47.8508 105.849 47.5397V42.127C105.849 41.9731 105.879 41.8207 105.938 41.6785C105.997 41.5364 106.083 41.4072 106.192 41.2984C106.301 41.1896 106.43 41.1033 106.572 41.0444C106.714 40.9855 106.866 40.9552 107.02 40.9552Z" fill="#263238"/>
<path d="M111.076 43.5042C111.076 43.0546 110.92 42.9342 110.669 42.9342C110.418 42.9342 110.262 43.0687 110.262 43.4263V43.7484H109.519V43.4758C109.519 42.6758 109.918 42.2191 110.69 42.2191C111.462 42.2191 111.879 42.6758 111.879 43.4758V43.6068C111.879 44.1414 111.709 44.4777 111.331 44.6334C111.723 44.8069 111.879 45.1786 111.879 45.6955V46.0884C111.879 46.8885 111.479 47.3487 110.708 47.3487C109.936 47.3487 109.536 46.8885 109.536 46.0884V45.6742H110.279V46.138C110.279 46.492 110.435 46.6336 110.686 46.6336C110.938 46.6336 111.094 46.5097 111.094 46.0672V45.6742C111.094 45.2105 110.938 45.037 110.58 45.037H110.315V44.329H110.623C110.917 44.329 111.094 44.2016 111.094 43.8015L111.076 43.5042Z" fill="#4ABDAC"/>
<path d="M112.325 43.4758C112.325 42.6758 112.75 42.2191 113.521 42.2191C114.293 42.2191 114.71 42.6758 114.71 43.4758V46.0778C114.71 46.8778 114.289 47.3381 113.518 47.3381C112.746 47.3381 112.321 46.8778 112.321 46.0778L112.325 43.4758ZM113.114 46.1274C113.114 46.4814 113.27 46.623 113.521 46.623C113.772 46.623 113.928 46.4849 113.928 46.1274V43.4263C113.928 43.0723 113.769 42.9342 113.521 42.9342C113.273 42.9342 113.114 43.0687 113.114 43.4263V46.1274Z" fill="#4ABDAC"/>
<path d="M116.25 45.2847L116.005 45.7414V47.2813H115.22V42.2756H116.005V44.4563L117.035 42.2756H117.821L116.727 44.5059L117.821 47.2813H117.014L116.25 45.2847Z" fill="#4ABDAC"/>
<path d="M67.2849 101.657V102.074C67.2849 102.393 67.4229 102.51 67.6388 102.51C67.8547 102.51 67.9927 102.393 67.9927 102.074V101.087C67.9927 100.765 67.8511 100.644 67.6388 100.644C67.4264 100.644 67.2849 100.765 67.2849 101.087V101.221H66.616L66.7469 98.6194H68.605V99.2601H67.3804L67.3238 100.322C67.3867 100.217 67.4769 100.132 67.5847 100.074C67.6926 100.017 67.8141 99.99 67.9361 99.9965C68.4563 99.9965 68.7183 100.35 68.7183 101.023V102.021C68.7183 102.729 68.3643 103.151 67.6565 103.151C66.9486 103.151 66.5947 102.74 66.5947 102.021V101.667L67.2849 101.657Z" fill="#263238"/>
<path d="M69.1113 99.6957C69.1113 98.9877 69.49 98.5699 70.1731 98.5699C70.8562 98.5699 71.2349 98.9771 71.2349 99.6957V102.029C71.2349 102.737 70.8562 103.158 70.1731 103.158C69.49 103.158 69.1113 102.747 69.1113 102.029V99.6957ZM69.8192 102.075C69.8192 102.393 69.9607 102.517 70.1731 102.517C70.3854 102.517 70.527 102.393 70.527 102.075V99.6532C70.527 99.3311 70.3854 99.2107 70.1731 99.2107C69.9607 99.2107 69.8192 99.3311 69.8192 99.6532V102.075Z" fill="#263238"/>
<path d="M71.6494 99.6957C71.6494 98.9877 72.0281 98.5699 72.7112 98.5699C73.3942 98.5699 73.7729 98.9771 73.7729 99.6957V102.029C73.7729 102.737 73.3942 103.158 72.7112 103.158C72.0281 103.158 71.6494 102.747 71.6494 102.029V99.6957ZM72.3573 102.075C72.3573 102.393 72.4988 102.517 72.7112 102.517C72.9235 102.517 73.0651 102.393 73.0651 102.075V99.6532C73.0651 99.3311 72.9235 99.2107 72.7112 99.2107C72.4988 99.2107 72.3573 99.3311 72.3573 99.6532V102.075Z" fill="#263238"/>
<path d="M75.1669 101.317L74.951 101.728V103.105H74.2432V98.6194H74.951V100.574L75.8747 98.6194H76.5826L75.6022 100.62L76.5826 103.098H75.8747L75.1669 101.317Z" fill="#263238"/>
<path d="M66.3721 106.241H76.6464" stroke="#263238" stroke-miterlimit="10"/>
<path d="M105.863 101.657V102.074C105.863 102.393 106.005 102.51 106.217 102.51C106.43 102.51 106.571 102.393 106.571 102.074V101.087C106.571 100.765 106.43 100.644 106.217 100.644C106.005 100.644 105.863 100.765 105.863 101.087V101.221H105.198L105.325 98.6194H107.183V99.2601H105.959L105.902 100.322C105.966 100.217 106.057 100.131 106.165 100.074C106.274 100.016 106.396 99.9897 106.518 99.9965C107.035 99.9965 107.3 100.35 107.3 101.023V102.021C107.3 102.729 106.946 103.151 106.239 103.151C105.531 103.151 105.177 102.74 105.177 102.021V101.667L105.863 101.657Z" fill="#263238"/>
<path d="M107.692 99.6957C107.692 98.9877 108.071 98.5699 108.754 98.5699C109.437 98.5699 109.816 98.9771 109.816 99.6957V102.029C109.816 102.737 109.441 103.158 108.754 103.158C108.068 103.158 107.692 102.747 107.692 102.029V99.6957ZM108.4 102.075C108.4 102.393 108.542 102.517 108.754 102.517C108.966 102.517 109.108 102.393 109.108 102.075V99.6532C109.108 99.3311 108.966 99.2107 108.754 99.2107C108.542 99.2107 108.4 99.3311 108.4 99.6532V102.075Z" fill="#263238"/>
<path d="M110.23 99.6957C110.23 98.9877 110.609 98.5699 111.292 98.5699C111.975 98.5699 112.354 98.9771 112.354 99.6957V102.029C112.354 102.737 111.979 103.158 111.292 103.158C110.606 103.158 110.23 102.747 110.23 102.029V99.6957ZM110.938 102.075C110.938 102.393 111.08 102.517 111.292 102.517C111.505 102.517 111.646 102.393 111.646 102.075V99.6532C111.646 99.3311 111.505 99.2107 111.292 99.2107C111.08 99.2107 110.938 99.3311 110.938 99.6532V102.075Z" fill="#263238"/>
<path d="M113.748 101.317L113.528 101.728V103.105H112.82V98.6194H113.528V100.574L114.452 98.6194H115.16L114.179 100.62L115.16 103.098H114.452L113.748 101.317Z" fill="#263238"/>
<path d="M104.95 106.241H115.228" stroke="#263238" stroke-miterlimit="10"/>
<path d="M147.736 101.657V102.074C147.736 102.393 147.877 102.51 148.089 102.51C148.302 102.51 148.443 102.393 148.443 102.074V101.087C148.443 100.765 148.302 100.644 148.089 100.644C147.877 100.644 147.736 100.765 147.736 101.087V101.221H147.067L147.198 98.6194H149.042V99.2601H147.817L147.76 100.322C147.823 100.217 147.913 100.132 148.021 100.074C148.129 100.017 148.251 99.99 148.373 99.9965C148.893 99.9965 149.155 100.35 149.155 101.023V102.021C149.155 102.729 148.801 103.151 148.093 103.151C147.385 103.151 147.031 102.74 147.031 102.021V101.667L147.736 101.657Z" fill="#263238"/>
<path d="M149.579 99.6957C149.579 98.9877 149.958 98.5699 150.641 98.5699C151.324 98.5699 151.703 98.9771 151.703 99.6957V102.029C151.703 102.737 151.324 103.158 150.641 103.158C149.958 103.158 149.579 102.747 149.579 102.029V99.6957ZM150.287 102.075C150.287 102.393 150.429 102.517 150.641 102.517C150.853 102.517 150.995 102.393 150.995 102.075V99.6532C150.995 99.3311 150.853 99.2107 150.641 99.2107C150.429 99.2107 150.287 99.3311 150.287 99.6532V102.075Z" fill="#263238"/>
<path d="M152.12 99.6957C152.12 98.9877 152.495 98.5699 153.182 98.5699C153.868 98.5699 154.244 98.9771 154.244 99.6957V102.029C154.244 102.737 153.865 103.158 153.182 103.158C152.499 103.158 152.12 102.747 152.12 102.029V99.6957ZM152.828 102.075C152.828 102.393 152.966 102.517 153.182 102.517C153.398 102.517 153.536 102.393 153.536 102.075V99.6532C153.536 99.3311 153.394 99.2107 153.182 99.2107C152.97 99.2107 152.828 99.3311 152.828 99.6532V102.075Z" fill="#263238"/>
<path d="M155.635 101.317L155.419 101.728V103.105H154.711V98.6194H155.419V100.574L156.343 98.6194H157.05L156.07 100.62L157.05 103.098H156.325L155.635 101.317Z" fill="#263238"/>
<path d="M146.839 106.241H157.117" stroke="#263238" stroke-miterlimit="10"/>
<path d="M91.374 94.8031V107.314" stroke="#263238" stroke-miterlimit="10"/>
<path d="M133.334 94.8031V107.314" stroke="#263238" stroke-miterlimit="10"/>
<path d="M67.9293 92.7889H69.1787V93.1429H68.754V95.3449H68.3469V93.1429H67.9258L67.9293 92.7889Z" fill="#263238"/>
<path d="M69.3201 93.3908C69.3137 93.3062 69.3248 93.2212 69.3528 93.1411C69.3807 93.061 69.4249 92.9876 69.4825 92.9254C69.5402 92.8632 69.6101 92.8135 69.6878 92.7796C69.7655 92.7457 69.8494 92.7281 69.9342 92.7281C70.019 92.7281 70.1029 92.7457 70.1806 92.7796C70.2583 92.8135 70.3282 92.8632 70.3858 92.9254C70.4435 92.9876 70.4877 93.061 70.5156 93.1411C70.5435 93.2212 70.5547 93.3062 70.5482 93.3908V94.7289C70.5547 94.8135 70.5435 94.8985 70.5156 94.9786C70.4877 95.0587 70.4435 95.1321 70.3858 95.1943C70.3282 95.2565 70.2583 95.3062 70.1806 95.3401C70.1029 95.374 70.019 95.3916 69.9342 95.3916C69.8494 95.3916 69.7655 95.374 69.6878 95.3401C69.6101 95.3062 69.5402 95.2565 69.4825 95.1943C69.4249 95.1321 69.3807 95.0587 69.3528 94.9786C69.3248 94.8985 69.3137 94.8135 69.3201 94.7289V93.3908ZM69.7236 94.7537C69.7236 94.9378 69.805 95.0086 69.9324 95.0086C70.0598 95.0086 70.1448 94.9378 70.1448 94.7537V93.3908C70.1448 93.2067 70.0634 93.1359 69.9324 93.1359C69.8015 93.1359 69.7236 93.2067 69.7236 93.3908V94.7537Z" fill="#263238"/>
<path d="M70.8252 92.7889H71.4658C71.8693 92.7889 72.0675 93.012 72.0675 93.4226V94.7254C72.0675 95.136 71.8693 95.359 71.4658 95.359H70.8252V92.7889ZM71.2322 93.1429V94.9802H71.4587C71.5861 94.9802 71.664 94.913 71.664 94.7289V93.3908C71.664 93.2067 71.5861 93.1429 71.4587 93.1429H71.2322Z" fill="#263238"/>
<path d="M73.6099 95.359H73.2029L73.1321 94.8953H72.6366L72.5658 95.359H72.2119L72.5941 92.7889H73.1852L73.6099 95.359ZM72.6897 94.5448H73.079L72.8844 93.2456L72.6897 94.5448Z" fill="#263238"/>
<path d="M74.1765 94.5094L73.6562 92.7889H74.081L74.3889 93.9607L74.6968 92.7889H75.0826L74.5729 94.5094V95.359H74.1694L74.1765 94.5094Z" fill="#263238"/>
<path d="M107.986 93.989L107.841 95.359H107.278L106.991 92.7889H107.384L107.603 94.8174L107.798 92.7889H108.187L108.389 94.8316L108.598 92.7889H108.952L108.665 95.359H108.131L107.986 93.989Z" fill="#263238"/>
<path d="M109.554 93.8722H110.11V94.2262H109.558V94.9802H110.265V95.3343H109.161V92.7889H110.265V93.1429H109.558L109.554 93.8722Z" fill="#263238"/>
<path d="M110.902 93.8722H111.458V94.2262H110.902V94.9802H111.61V95.3343H110.499V92.7889H111.603V93.1429H110.895L110.902 93.8722Z" fill="#263238"/>
<path d="M112.379 94.3359L112.255 94.5696V95.359H111.852V92.7889H112.255V93.9076L112.786 92.7889H113.189L112.627 93.9359L113.189 95.3519H112.772L112.379 94.3359Z" fill="#263238"/>
<path d="M149.041 94.6156L149.314 92.7889H149.877V95.359H149.494V93.5147L149.215 95.359H148.836L148.532 93.543V95.359H148.178V92.7889H148.74L149.041 94.6156Z" fill="#263238"/>
<path d="M150.138 93.3908C150.138 93.2283 150.202 93.0725 150.317 92.9577C150.432 92.8428 150.588 92.7783 150.75 92.7783C150.912 92.7783 151.068 92.8428 151.183 92.9577C151.298 93.0725 151.362 93.2283 151.362 93.3908V94.7289C151.362 94.8913 151.298 95.0471 151.183 95.162C151.068 95.2768 150.912 95.3413 150.75 95.3413C150.588 95.3413 150.432 95.2768 150.317 95.162C150.202 95.0471 150.138 94.8913 150.138 94.7289V93.3908ZM150.541 94.7537C150.541 94.9378 150.623 95.0086 150.75 95.0086C150.877 95.0086 150.959 94.9378 150.959 94.7537V93.3908C150.959 93.2067 150.877 93.1359 150.75 93.1359C150.623 93.1359 150.541 93.2067 150.541 93.3908V94.7537Z" fill="#263238"/>
<path d="M151.985 93.497V95.359H151.631V92.7889H152.137L152.551 94.3289V92.7889H152.905V95.359H152.491L151.985 93.497Z" fill="#263238"/>
<path d="M153.076 92.7889H154.326V93.1429H153.901V95.3449H153.497V93.1429H153.076V92.7889Z" fill="#263238"/>
<path d="M154.902 95.359H154.499V92.7889H154.902V93.8899H155.363V92.7889H155.766V95.359H155.356V94.2581H154.895L154.902 95.359Z" fill="#263238"/>
<path d="M168.27 28.0162H162.137" stroke="#263238" stroke-miterlimit="10"/>
<path d="M168.27 29.9069H162.137" stroke="#263238" stroke-miterlimit="10"/>
<path d="M168.27 31.7936H162.137" stroke="#263238" stroke-miterlimit="10"/>
<path d="M122.747 106.198L104.65 104.519L103.546 116.427L121.642 118.106L122.747 106.198Z" fill="white" stroke="#263238" stroke-linecap="round" stroke-linejoin="round"/>
<path d="M105.892 112.298L108.047 109.247L110.022 109.785L111.82 113.017L115.051 109.965L117.029 114.277H118.286L121.34 109.247" stroke="#4ABDAC" stroke-width="2" stroke-miterlimit="10" stroke-linecap="round"/>
<path d="M122.679 110.078C122.068 109.475 121.395 108.937 120.672 108.475C119.256 107.501 118.439 107.328 118.195 107.445C117.95 107.561 116.071 109.335 116.018 109.965C115.965 110.595 115.664 111.169 115.664 111.399C115.664 111.629 116.064 111.455 116.464 111.169C116.864 110.882 117.172 109.908 117.324 109.735C117.476 109.561 118.527 109.505 118.701 109.505C118.874 109.505 119.101 110.482 119.101 110.482C119.101 110.482 119.214 112.086 119.731 112.316C120.247 112.546 122.137 112.486 122.137 112.486L122.679 110.078Z" fill="white" stroke="#263238" stroke-linecap="round" stroke-linejoin="round"/>
<path d="M122.106 107.671L114.256 112.829" stroke="#263238" stroke-width="2" stroke-linecap="round" stroke-linejoin="round"/>
<path d="M119.698 109.965L118.552 110.882C118.265 111.112 116.375 111.456 116.145 111.569C115.915 111.682 115.285 111.856 115.688 112.086C116.092 112.316 117.178 112.44 117.635 112.44C118.092 112.44 119.405 112.9 119.985 112.613L121.015 112.096" fill="white"/>
<path d="M119.698 109.965L118.552 110.882C118.265 111.112 116.375 111.456 116.145 111.569C115.915 111.682 115.285 111.856 115.688 112.086C116.092 112.316 117.178 112.44 117.635 112.44C118.092 112.44 119.405 112.9 119.985 112.613L121.015 112.096" stroke="#263238" stroke-linecap="round" stroke-linejoin="round"/>
<path d="M124.451 109.852L122.161 109.622L121.701 112.886L124.451 113.633V109.852Z" fill="#4ABDAC" stroke="#263238" stroke-linecap="round" stroke-linejoin="round"/>
<path d="M126.78 86.9514C126.78 86.9514 126.539 88.7214 127.021 89.4295C127.304 89.8476 127.52 90.3075 127.661 90.7924C127.661 90.7924 126.78 93.5997 127.098 93.7448C127.489 93.8725 127.893 93.9533 128.302 93.9855C128.302 93.9855 129.502 96.63 129.901 96.8707C130.122 97.0078 130.36 97.115 130.609 97.1893L131.317 97.7522L137.564 94.867L136.523 91.904C136.327 90.8712 136.327 89.8108 136.523 88.7781C136.842 87.008 134.279 84.8521 132.598 84.3707C130.917 83.8892 128.114 84.6114 128.114 84.6114L126.78 86.9514Z" fill="white" stroke="#263238" stroke-linecap="round" stroke-linejoin="round"/>
<path d="M128.943 83.1033C128.943 83.1033 125.581 85.0291 125.659 86.0699C125.728 86.7306 126.009 87.3513 126.458 87.84L128.161 87.0187C128.161 87.0187 127.453 88.3002 127.839 88.463C127.96 88.5024 128.09 88.508 128.215 88.4793C128.34 88.4506 128.454 88.3887 128.547 88.3002L129.028 89.8224L130.068 88.9409C130.068 88.9409 131.838 92.9483 133.031 93.1076C134.223 93.2669 136.074 93.0262 136.715 92.6261C137.356 92.2261 138.237 88.463 138.555 87.0187C138.874 85.5743 137.196 82.8555 134.871 82.0626C132.546 81.2696 129.265 82.944 129.265 82.944L128.943 83.1033Z" fill="#263238" stroke="#263238" stroke-linecap="round" stroke-linejoin="round"/>
<path d="M129.502 89.0326C129.787 89.5356 130.003 90.0751 130.143 90.6363C130.546 91.9178 130.946 93.7586 131.187 91.6771C131.427 89.5955 129.983 87.5918 129.502 89.0326Z" fill="white" stroke="#263238" stroke-linecap="round" stroke-linejoin="round"/>
<path d="M124.398 174.508C124.398 174.508 123.117 176.189 122.876 176.278C122.635 176.366 120.313 177.078 120.232 177.559C120.203 177.898 120.288 178.237 120.473 178.522C121.762 178.814 123.077 178.974 124.398 179C125.737 178.981 127.075 178.875 128.401 178.681C129.307 178.766 130.219 178.766 131.126 178.681C132.007 178.522 132.085 177.973 132.085 177.973L131.604 173.488L126.319 173.647L124.398 174.508Z" fill="white" stroke="#263238" stroke-linecap="round" stroke-linejoin="round"/>
<path d="M136.17 174.589L134.249 176.83C134.249 176.83 133.367 177.071 133.449 177.874C133.53 178.678 134.408 178.756 135.218 178.756C136.029 178.756 141.143 178.915 141.943 178.515C142.743 178.115 141.235 174.108 141.235 174.108L136.17 174.589Z" fill="white" stroke="#263238" stroke-linecap="round" stroke-linejoin="round"/>
<path d="M123.576 130.207C123.576 130.207 123.417 143.267 123.495 146.138C123.573 149.009 124.536 165.927 124.617 167.378C124.698 168.829 124.776 170.918 124.776 170.918C124.776 170.918 124.217 171.8 124.217 172.2V173.563C124.217 173.563 126.861 176.203 128.22 176.203C129.579 176.203 131.904 175.403 131.904 175.403C131.904 175.403 132.545 171.318 132.708 170.596C132.87 169.874 132.053 158.245 132.053 158.007C132.053 157.77 131.653 152.959 131.653 152.637C131.653 152.315 133.656 163.293 133.738 164.815C133.819 166.337 134.778 171.541 134.778 171.541C134.61 171.672 134.477 171.844 134.393 172.04C134.309 172.236 134.276 172.451 134.297 172.663C134.378 173.371 134.456 174.904 134.456 174.904C135.153 175.514 136.015 175.904 136.933 176.026C138.074 176.188 139.225 176.269 140.377 176.267C140.696 176.267 141.418 176.349 141.658 175.786C141.899 175.223 141.74 170.978 141.74 170.178C141.74 169.378 141.418 167.215 141.418 166.656C141.418 166.097 139.977 151.515 140.055 148.148C140.133 144.782 140.136 136.774 140.459 136.052C140.781 135.33 141.899 130.845 141.899 130.034C141.899 129.223 137.893 131.878 132.927 131.315C129.778 130.948 126.651 130.414 123.559 129.715L123.576 130.207Z" fill="#263238" stroke="#263238" stroke-linecap="round" stroke-linejoin="round"/>
<path d="M136.152 134.615L133.586 136.537C133.586 136.537 132.709 147.352 132.305 149.281C131.902 151.211 131.746 151.759 131.746 151.759" stroke="#757575" stroke-linecap="round" stroke-linejoin="round"/>
<path d="M117.571 117.229C117.571 117.229 114.686 115.707 114.032 115.629C113.377 115.551 111.31 115.87 111.31 115.87C111.31 115.87 109.866 115.229 109.307 115.707C108.748 116.185 109.066 116.27 109.466 116.415C109.866 116.56 111.869 116.978 111.869 116.978C111.869 116.978 111.388 118.497 111.629 118.748C111.869 118.999 113.31 119.07 113.31 119.07C113.618 119.202 113.913 119.363 114.191 119.552C114.672 119.87 115.961 119.792 116.194 119.629C116.428 119.467 116.902 119.229 116.902 119.229L117.571 117.229Z" fill="white" stroke="#263238" stroke-linecap="round" stroke-linejoin="round"/>
<path d="M130.064 98.566L131.346 96.7217C131.346 96.7217 134.867 94.4808 136.301 94.1586C137.734 93.8365 139.985 96.003 139.985 96.003C139.985 96.003 138.704 96.2437 135.738 97.1252C132.772 98.0067 130.064 98.566 130.064 98.566Z" fill="#4ABDAC" stroke="#263238" stroke-linecap="round" stroke-linejoin="round"/>
<path d="M131.345 97.7661C131.345 97.7661 124.699 100.244 124.621 101.611C124.543 102.977 123.499 119.874 123.499 119.874L122.218 131.089C122.218 131.089 126.543 133.252 130.786 133.411C135.03 133.57 137.196 133.493 138.718 132.933C140.239 132.374 143.52 129.729 143.52 129.729C143.52 129.729 141.751 119.796 141.751 118.592C141.751 117.389 144.472 108.659 145.032 106.096C145.511 103.801 145.787 101.469 145.856 99.1255C145.856 97.9254 139.369 96.0032 139.369 96.0032C139.369 96.0032 135.108 96.2439 131.345 97.7661Z" fill="#4ABDAC" stroke="#263238" stroke-linecap="round" stroke-linejoin="round"/>
<path d="M140.717 107.767C139.656 109.891 137.943 113.24 136.552 115.148L140.717 107.767Z" fill="white"/>
<path d="M140.717 107.767C139.656 109.891 137.943 113.24 136.552 115.148" stroke="#263238" stroke-linecap="round" stroke-linejoin="round"/>
<path d="M141.677 105.781C141.677 105.781 141.496 106.17 141.195 106.797L141.677 105.781Z" fill="white"/>
<path d="M141.677 105.781C141.677 105.781 141.496 106.17 141.195 106.797" stroke="#263238" stroke-linecap="round" stroke-linejoin="round"/>
<path d="M137.327 115.413C136.641 116.362 135.947 117.318 135.83 117.47" stroke="#263238" stroke-linecap="round" stroke-linejoin="round"/>
<path d="M138.778 113.385C138.778 113.385 138.282 114.075 137.691 114.886" stroke="#263238" stroke-linecap="round" stroke-linejoin="round"/>
<path d="M129.824 112.503L132.305 106.977" stroke="#263238" stroke-linecap="round" stroke-linejoin="round"/>
<path d="M129.184 113.707L132.065 110.503" stroke="#263238" stroke-linecap="round" stroke-linejoin="round"/>
<path d="M128.867 98.8848C128.867 98.8848 124.62 100.329 124.542 100.807C124.464 101.285 123.261 117.552 123.261 117.552L117.173 116.844C116.821 117.395 116.628 118.033 116.614 118.688V120.61C116.614 120.61 117.414 120.688 120.153 121.732C122.893 122.777 126.078 123.414 126.8 123.332C127.522 123.251 129.044 120.929 129.044 119.647C129.044 118.366 131.125 106.591 131.125 106.591" fill="#4ABDAC"/>
<path d="M128.867 98.8848C128.867 98.8848 124.62 100.329 124.542 100.807C124.464 101.285 123.261 117.552 123.261 117.552L117.173 116.844C116.821 117.395 116.628 118.033 116.614 118.688V120.61C116.614 120.61 117.414 120.688 120.153 121.732C122.893 122.777 126.078 123.414 126.8 123.332C127.522 123.251 129.044 120.929 129.044 119.647C129.044 118.366 131.125 106.591 131.125 106.591" stroke="#263238" stroke-linecap="round" stroke-linejoin="round"/>
<path d="M123.559 120.15L123.265 117.552C123.265 117.552 122.653 119.424 122.745 120.33" stroke="#263238" stroke-linecap="round" stroke-linejoin="round"/>
<path d="M85.3246 93.0086L84.8857 95.8761L92.2367 98.4922V95.9362L90.1804 86.2825L85.3848 89.3977L85.3246 93.0086Z" fill="white" stroke="#263238" stroke-linecap="round" stroke-linejoin="round"/>
<path d="M94.9159 84.6009C94.9159 84.6009 94.976 87.2772 94.976 87.84C94.909 88.378 94.7623 88.9029 94.5407 89.3977C94.5407 89.3977 95.1636 90.7677 95.2875 91.1394C95.4114 91.5111 94.5407 92.1377 94.5407 92.1377C94.5407 92.1377 94.4168 93.2599 94.3531 93.444C94.1782 93.7317 93.9098 93.9506 93.5928 94.064C93.2758 94.1775 92.9295 94.1785 92.6118 94.067C91.6775 93.713 90.7431 90.2685 90.6157 89.1463C90.4883 88.0241 90.5556 85.6063 91.8014 84.7248C93.0472 83.8433 94.9159 84.6009 94.9159 84.6009Z" fill="white" stroke="#263238" stroke-linecap="round" stroke-linejoin="round"/>
<path d="M91.1153 89.2701C91.1153 89.2701 92.7362 88.3391 92.9202 87.9639C93.1043 87.5886 92.8601 86.654 92.7362 85.8398C92.6123 85.0256 94.4173 84.9052 94.9164 85.153C95.4154 85.4009 96.1622 85.8398 96.1622 84.2185C96.1622 82.5971 94.5377 80.3633 90.9277 80.4872C87.3177 80.6111 83.828 81.6094 83.0211 85.4717C82.2141 89.3339 84.2633 92.573 84.5146 93.1324C84.7659 93.6917 86.1957 94.6298 88.0538 93.3837C89.9119 92.1376 89.4695 90.5163 89.4695 90.5163C89.4695 90.5163 89.4695 89.4542 89.781 89.4542C90.0924 89.4542 90.1526 89.7658 90.1526 92.1341C90.1526 94.5024 90.0924 96.4954 91.5223 96.9946C92.9521 97.4937 94.4492 96.7432 94.5766 95.3095C94.704 93.8758 94.4492 92.7571 93.8263 92.7571C93.2034 92.7571 92.8318 93.6917 92.2089 92.1978C91.586 90.7039 91.1153 89.2701 91.1153 89.2701Z" fill="#263238" stroke="#263238" stroke-linecap="round" stroke-linejoin="round"/>
<path d="M90.2443 90.1445C90.2443 90.1445 90.3682 86.9585 89.2462 88.3391C88.1243 89.7197 89.4338 91.7623 89.4338 91.7623L89.809 91.1393" fill="white"/>
<path d="M90.2443 90.1445C90.2443 90.1445 90.3682 86.9585 89.2462 88.3391C88.1243 89.7197 89.4338 91.7623 89.4338 91.7623L89.809 91.1393" stroke="#263238" stroke-linecap="round" stroke-linejoin="round"/>
<path d="M84.139 94.4529L82.5039 97.4619C82.5039 97.4619 85.8201 97.0584 88.3118 97.869C90.8034 98.6797 93.0472 99.5506 93.0472 99.5506L92.173 96.5769C92.173 96.5769 89.4337 95.2706 87.1934 94.8954C84.953 94.5201 84.139 94.4529 84.139 94.4529Z" fill="#4ABDAC" stroke="#263238" stroke-linecap="round" stroke-linejoin="round"/>
<path d="M95.6266 174.437C95.6266 174.437 96.9078 176.119 97.1485 176.207C97.3891 176.296 99.7109 177.007 99.7923 177.489C99.8189 177.826 99.7344 178.163 99.5516 178.448C98.2631 178.742 96.9479 178.903 95.6266 178.929C94.2867 178.91 92.9495 178.803 91.6238 178.607C90.7174 178.694 89.8049 178.694 88.8986 178.607C88.0173 178.448 87.9395 177.899 87.9395 177.899L88.4172 173.396L93.7048 173.556L95.6266 174.437Z" fill="white" stroke="#263238" stroke-linecap="round" stroke-linejoin="round"/>
<path d="M83.856 174.515L85.7778 176.759C85.7778 176.759 86.6591 177 86.5777 177.8C86.4963 178.6 85.615 178.682 84.8081 178.682C84.0011 178.682 78.8834 178.841 78.0836 178.441C77.2837 178.041 78.7914 174.037 78.7914 174.037L83.856 174.515Z" fill="white" stroke="#263238" stroke-linecap="round" stroke-linejoin="round"/>
<path d="M78.8089 130.608C78.8089 130.608 79.2407 135.659 79.4495 136.215C79.6902 136.859 80.49 153.119 79.6902 155.363C78.8903 157.608 78.2497 162.012 78.5682 163.775C78.8295 165.391 78.9903 167.023 79.0496 168.66C79.0496 169.141 78.0869 172.033 78.0869 173.234C78.0983 174.019 78.2065 174.8 78.409 175.559C78.409 175.559 80.9714 175.719 82.2526 175.319C83.5338 174.919 84.3336 174.756 84.3336 174.756L84.8964 175.156V171.711C84.8964 170.43 85.5263 167.952 85.5263 167.152C85.5263 166.352 86.1811 159.746 86.6624 158.064C87.1438 156.383 87.6994 146.63 87.6994 146.63C87.6994 146.63 87.8587 159.449 87.6994 160.889C87.5401 162.33 87.2181 162.974 87.6994 164.734C88.1807 166.493 88.0179 172.593 88.0179 172.593C87.9337 173.016 87.9337 173.451 88.0179 173.874C88.1772 174.274 88.4179 175.319 88.4179 175.319C89.0273 175.421 89.6439 175.474 90.2618 175.478C91.8615 175.559 94.4275 175.637 94.6646 175.559C94.9017 175.481 95.7865 175.237 95.7865 175.237C95.8375 174.648 95.8375 174.056 95.7865 173.467C95.7086 172.426 95.0787 170.175 94.9866 167.612C94.8946 165.049 96.827 149.508 97.3084 145.263C97.7897 141.019 99.5522 137.171 99.2302 134.367C98.9081 131.563 97.549 129.082 97.4606 128.519C97.3721 127.956 96.82 127.637 96.82 127.397C96.82 127.156 78.6426 128.037 78.6426 128.037L78.8089 130.608Z" fill="#263238" stroke="#263238" stroke-linecap="round" stroke-linejoin="round"/>
<path d="M84.415 135.737L87.4588 138.459L87.6994 146.63" stroke="#757575" stroke-linecap="round" stroke-linejoin="round"/>
<path d="M84.3905 96.2476C84.3905 96.2476 77.4749 100.496 77.4749 101.356C77.4749 102.216 76.9794 110.949 77.7262 114.065C78.473 117.18 79.8497 120.979 79.8497 120.979L77.1953 131.977C77.1953 131.977 78.9224 133.217 83.8455 134.456C88.7685 135.695 93.0474 135.496 93.596 135.369L93.4757 132.686L95.4683 126.767C95.4683 126.767 98.02 122.904 98.2076 121.658C98.3952 120.412 98.1474 118.472 98.02 117.41C97.8926 116.348 97.0255 112.178 96.7141 111.119C96.4026 110.061 96.215 102.46 95.4683 101.59C94.5621 100.66 93.5596 99.829 92.4776 99.1115C91.9821 98.8 87.682 95.6847 84.1959 96.1201" fill="#4ABDAC"/>
<path d="M84.3905 96.2476C84.3905 96.2476 77.4749 100.496 77.4749 101.356C77.4749 102.216 76.9794 110.949 77.7262 114.065C78.473 117.18 79.8497 120.978 79.8497 120.978L77.1953 131.977C77.1953 131.977 78.9224 133.217 83.8455 134.456C88.7685 135.695 93.0474 135.496 93.596 135.369L93.4757 132.686L95.4683 126.767C95.4683 126.767 98.02 122.904 98.2076 121.658C98.3952 120.412 98.1474 118.472 98.02 117.41C97.8926 116.348 97.0255 112.178 96.7141 111.119C96.4026 110.061 96.215 102.46 95.4683 101.59C94.5621 100.66 93.5596 99.829 92.4776 99.1115C91.9821 98.8 87.682 95.6847 84.1959 96.1201" stroke="#263238" stroke-linecap="round" stroke-linejoin="round"/>
<path d="M86.1211 116.883C86.3688 117.13 86.613 117.357 86.8502 117.559" stroke="#263238" stroke-linecap="round" stroke-linejoin="round"/>
<path d="M81.1738 110.557C82.52 112.596 84.0078 114.539 85.6262 116.37" stroke="#263238" stroke-linecap="round" stroke-linejoin="round"/>
<path d="M86.9492 119.527C87.4635 119.72 88.007 119.823 88.556 119.832" stroke="#263238" stroke-linecap="round" stroke-linejoin="round"/>
<path d="M83.0664 116.993C83.7948 117.691 84.5997 118.305 85.466 118.823" stroke="#263238" stroke-linecap="round" stroke-linejoin="round"/>
<path d="M95.4113 126.526C94.5333 128.135 93.3742 129.574 91.9889 130.774C89.6813 132.767 88.9346 133.518 88.9346 133.518C88.9346 133.518 92.8596 133.641 93.2312 134.512L93.6063 135.383L95.4113 126.526Z" fill="#4ABDAC" stroke="#263238" stroke-linecap="round" stroke-linejoin="round"/>
<path d="M95.7871 131.135L97.716 134.746C97.716 134.746 99.0255 132.94 98.4663 131.383C97.9071 129.825 97.716 129.326 97.716 129.326L95.7871 131.135Z" stroke="#263238" stroke-linecap="round" stroke-linejoin="round"/>
<path d="M89.4971 107.774C89.4971 107.774 90.6792 122.289 91.8011 124.968C92.923 127.648 95.6624 131.758 95.6624 131.758C95.6624 131.758 97.2196 131.323 97.7151 130.696C98.2106 130.07 98.338 128.703 98.338 128.703C98.338 128.703 98.0266 123.283 98.0266 122.097C98.0266 120.911 96.9082 114.309 96.9082 113.438C96.9082 112.567 97.0958 103.657 96.6569 102.464C96.218 101.271 92.8593 100.283 92.8593 100.283" fill="#4ABDAC"/>
<path d="M89.4971 107.774C89.4971 107.774 90.6792 122.289 91.8011 124.968C92.923 127.648 95.6624 131.758 95.6624 131.758C95.6624 131.758 97.2196 131.323 97.7151 130.696C98.2106 130.07 98.338 128.703 98.338 128.703C98.338 128.703 98.0266 123.283 98.0266 122.097C98.0266 120.911 96.9082 114.309 96.9082 113.438C96.9082 112.567 97.0958 103.657 96.6569 102.464C96.218 101.271 92.8593 100.283 92.8593 100.283" stroke="#263238" stroke-linecap="round" stroke-linejoin="round"/>
</svg>
